**ABCDEFGHIJKLMNOPQRSTUVWXYZabcdefghijklmnopqrstuvwxyz**************************
**PARASOLID !"#$%&'()*+,-./:;<=>?@[\]^_`{|}~0123456789**************************
**PART1;
MC=x86;
MC_MODEL=Intel64 Family 6 Model 158 Stepping 10, GenuineIntel;
MC_ID=unknown;
OS=Windows_NT;
OS_RELEASE=unknown;
FRU=CAD Exchanger 3.6.1 (cadexchanger.com);
APPL=unknown;
SITE=unknown;
USER=unknown;
FORMAT=text;
GUISE=transmit;
KEY=356810_3568-10;
FILE=356810_3568-10.x_t;
DATE=Wed Jul 21 02:34:42 2021;
**PART2;
SCH=SCH_1200000_12006;
USFLD_SIZE=0;
**PART3;
**END_OF_HEADER*****************************************************************
T51 : TRANSMIT FILE created by modeller version 120000017 SCH_1200000_120060 74
 17 1 17 0 2 105 143 181 219 257 295 333 371 409 447 485 523 561 599 637 675 12
 2 68 0 3 0 0 0 0 1000 1e-008 0 0 0 1 0 1 1 39 7 13 11 36 12 10 70 3 0 2 0 0 4 1
 20 0 4 4 1 T74 20 4 1 0 5 0 0 0 0 0 0 0 0 0 0 0 0 0 0 0 0 0 0 0 81 1 5 7 33 6 0
 0 42 0 35 14 6 5 5 1e-008 40 0 8 39 7 +0 0 40 0 37 50 7 6 0 6 41 0 0 +-0.003039
960245593183 0.005065040108468939 0.0001 -1.748455531469491e-007 0.9999999999999
848 0 0.9999999999999848 1.748455531469491e-007 0 15 8 8 0 9 6 0 17 9 0 8 17 29
 10 14 12 0 87 +18 10 9 0 9 0 15 11 ?2 29 11 10 0 10 16 0 -0.003039960245593183
 0.005065040108468939 0.0076 16 12 11 0 ?9 0 20 13 0 0 2 30 13 12 0 12 21 0 0 +-
0.003039960245593183 0.005065040108468939 0.0001 0 0 1 17 14 0 86 91 87 15 9 12
 0 29 -18 15 13 0 14 10 18 16 ?2 29 16 14 0 15 19 11 -0.003039960245593183 0.005
065040108468939 0.0001 17 17 0 8 23 9 18 22 20 0 28 +18 18 15 0 50 15 24 19 ?2 2
9 19 16 0 18 25 16 0.01296003975440658 0.005065042905997789 0.0076 16 20 17 0 ?1
7 12 26 21 0 0 2 30 21 18 0 20 27 13 0 +-0.003039960245593183 0.0050650401084689
39 0.0076 0.9999999999999848 1.748455531469491e-007 0 17 22 0 104 90 50 10 17 20
 0 0 -17 23 0 8 29 17 24 28 26 0 0 -18 24 19 0 57 18 46 25 ?2 29 25 20 0 24 47 1
9 0.01296003975440658 0.005065042905997789 0.0001 16 26 21 0 ?28 20 30 27 0 0 2
 30 27 22 0 26 31 21 0 +0.01296003975440658 0.005065042905997789 0.0001 0 0 1 17
 28 0 44 45 57 18 23 26 0 0 +17 29 0 8 9 23 15 32 30 0 94 -16 30 23 0 ?32 26 48
 31 0 0 2 30 31 24 0 30 49 27 0 +-0.003039960245593183 0.005065040108468939 0.00
01 0.9999999999999848 1.748455531469491e-007 0 17 32 0 99 60 94 24 29 30 0 23 +8
0 1 33 0 34 8001 0 0 0 0 3 5 0 0 FFFFTFTFFFFFFF2 79 15 34 SDL/TYSA_COLOUR83 3 35
 0.300000011920929 0.300000011920929 0.300000011920929 19 36 1 0 2 38 0 37 V13 3
7 2 0 2 0 0 0 0 36 6 19 38 3 0 2 0 36 39 S13 39 4 0 2 0 6 0 0 38 0 14 40 25 42 1
e-008 61 6 44 39 41 +0 0 61 6 37 50 41 26 0 40 62 7 0 +0.01296003975440658 0.005
065042905997789 0.0001 0.9999999999999848 1.748455531469491e-007 0 1.74845553146
9491e-007 -0.9999999999999848 0 81 1 42 27 33 40 0 0 63 5 43 83 3 43 0.300000011
920929 0.300000011920929 0.300000011920929 15 44 28 0 28 40 0 17 45 0 44 51 28 4
6 50 48 0 71 +18 46 29 0 45 24 52 47 ?2 29 47 30 0 46 53 25 0.01296004093111715
 -0.001664957094002109 0.0076 16 48 31 0 ?45 30 54 49 0 0 2 30 49 32 0 48 55 31
 0 +0.01296003975440658 0.005065042905997789 0.0076 1.748455531469491e-007 -0.99
99999999999848 0 17 50 0 104 22 71 18 45 48 0 17 -17 51 0 44 57 45 52 56 54 0 0
 -18 52 33 0 60 46 67 53 ?2 29 53 34 0 52 68 47 0.01296004093111715 -0.001664957
094002109 0.0001 16 54 35 0 ?56 48 58 55 0 0 2 30 55 36 0 54 59 49 0 +0.01296004
093111715 -0.001664957094002109 0.0001 0 0 1 17 56 0 65 66 78 46 51 54 0 0 +17 5
7 0 44 28 51 24 60 58 0 32 -16 58 37 0 ?60 54 69 59 0 0 2 30 59 38 0 58 70 55 0
 +0.01296003975440658 0.005065042905997789 0.0001 1.748455531469491e-007 -0.9999
999999999848 0 17 60 0 99 81 32 52 57 58 0 78 +14 61 39 63 1e-008 82 40 65 39 62
 +0 0 82 40 37 50 62 40 0 61 83 41 0 +0.01296004093111715 -0.001664957094002109
 0.0001 1.748455531469491e-007 -0.9999999999999848 0 -0.9999999999999848 -1.7484
55531469491e-007 0 81 1 63 41 33 61 0 0 84 42 64 83 3 64 0.300000011920929 0.300
000011920929 0.300000011920929 15 65 42 0 56 61 0 17 66 0 65 72 56 67 71 69 0 77
 +18 67 43 0 90 52 73 68 ?2 29 68 44 0 67 74 53 -0.003039959068882611 -0.0016649
59891530959 0.0076 16 69 45 0 ?66 58 75 70 0 0 2 30 70 46 0 69 76 59 0 +0.012960
04093111715 -0.001664957094002109 0.0076 -0.9999999999999848 -1.748455531469491e
-007 0 17 71 0 104 50 90 46 66 69 0 56 -17 72 0 65 78 66 73 77 75 0 91 -18 73 47
 0 81 67 0 74 ?2 29 74 48 0 73 0 68 -0.003039959068882611 -0.001664959891530959
 0.0001 16 75 49 0 ?77 69 79 76 0 0 2 30 76 50 0 75 80 70 0 +-0.0030399590688826
11 -0.001664959891530959 0.0001 0 0 1 17 77 0 86 87 91 67 72 75 0 0 +17 78 0 65
 56 72 52 81 79 0 51 -16 79 51 0 ?81 75 88 80 0 0 2 30 80 52 0 79 89 76 0 +0.012
96004093111715 -0.001664957094002109 0.0001 -0.9999999999999848 -1.7484555314694
91e-007 0 17 81 0 99 94 60 73 78 79 0 72 +14 82 53 84 1e-008 95 61 86 39 83 +0 0
 95 61 37 50 83 54 0 82 96 62 0 +-0.003039959068882611 -0.001664959891530959 0.0
001 -0.9999999999999848 -1.748455531469491e-007 0 -1.748455531469491e-007 0.9999
999999999848 0 81 1 84 55 33 82 0 0 97 63 85 83 3 85 0.300000011920929 0.3000000
11920929 0.300000011920929 15 86 56 0 77 82 0 17 87 0 86 14 77 10 90 88 0 22 +16
 88 57 0 ?87 79 92 89 0 0 2 30 89 58 0 88 93 80 0 +-0.003039959068882611 -0.0016
64959891530959 0.0076 -1.748455531469491e-007 0.9999999999999848 0 17 90 0 104 7
1 22 67 87 88 0 66 -17 91 0 86 77 14 73 94 92 0 0 -16 92 59 0 ?94 88 0 93 0 0 2
 30 93 60 0 92 0 89 0 +-0.003039959068882611 -0.001664959891530959 0.0001 -1.748
455531469491e-007 0.9999999999999848 0 17 94 0 99 32 81 15 91 92 0 0 +14 95 61 9
7 1e-008 100 82 99 39 96 +0 0 100 82 37 50 96 62 0 95 101 83 0 +0.00496004034276
1982 0.001700041507233415 9.999999999999999e-005 3.728152659035136e-034 1.915627
336380944e-034 -1 -0.9999999999999848 -1.748455531469491e-007 -3.728152993974e-0
34 81 1 97 63 33 95 0 0 102 84 98 83 3 98 0.300000011920929 0.300000011920929 0.
300000011920929 15 99 64 0 32 95 0 14 100 65 102 1e-008 0 95 104 39 101 -0 0 0 9
5 37 50 101 66 0 100 0 96 0 +0.004960040342761982 0.001700041507233415 0.0076 3.
728152659035136e-034 1.915627336380944e-034 -1 -0.9999999999999848 -1.7484555314
69491e-007 -3.728152993974e-034 81 1 102 67 33 100 0 0 0 97 103 83 3 103 0.30000
0011920929 0.300000011920929 0.300000011920929 15 104 68 0 90 100 0 12 105 26 0
 106 0 0 0 0 1000 1e-008 0 0 0 1 0 1 1 132 110 116 114 129 115 113 70 106 0 105
 0 0 4 1 20 0 107 107 1 T74 20 107 1 0 108 0 0 0 0 0 0 0 0 0 0 0 0 0 0 0 0 0 0 0
 81 1 108 7 33 109 0 0 135 0 128 14 109 5 108 1e-008 133 0 111 132 110 +0 0 133
 0 130 51 110 6 0 109 134 0 0 +4.06399994972162e-008 4.06399994972162e-008 -0.00
5 0 0 1 0.0007 0.9999999999999848 1.748455531469491e-007 0 15 111 8 0 112 109 0
 17 112 0 111 118 123 113 117 115 0 123 -18 113 9 0 117 0 119 114 ?105 29 114 10
 0 113 120 0 0.0007000406399994865 4.076239138424761e-008 0.0001 16 115 11 0 ?11
7 0 121 116 0 0 105 31 116 12 0 115 122 0 0 +4.06399994972162e-008 4.06399994972
162e-008 0.0001 0 -0 1 0.9999999999999848 1.748455531469491e-007 0 0.0007 17 117
 0 137 117 117 113 112 115 0 112 +17 118 0 111 124 112 119 123 121 0 124 -18 119
 13 0 118 113 0 120 ?105 29 120 14 0 119 0 114 0.0007000406399994865 4.076239138
424761e-008 -0.005 16 121 15 0 ?123 115 125 122 0 0 105 30 122 16 0 121 126 116
 0 +0.0007000406399994865 4.076239138424761e-008 -0.005 0 0 1 17 123 0 111 112 1
24 113 118 121 0 0 +17 124 0 111 123 118 119 127 125 0 127 +16 125 17 0 ?124 121
 0 126 0 0 105 31 126 18 0 125 0 122 0 +4.06399994972162e-008 4.06399994972162e-
008 -0.005 0 -0 1 0.9999999999999848 1.748455531469491e-007 0 0.0007 17 127 0 14
2 127 127 119 124 125 0 0 -83 3 128 0.734000027179718 0.7730000019073486 0.79699
9990940094 19 129 1 0 105 131 0 130 V13 130 2 0 105 0 0 0 0 129 109 19 131 3 0 1
05 0 129 132 S13 132 4 0 105 0 109 0 0 131 0 14 133 19 135 1e-008 138 109 137 13
2 134 +0 0 138 109 130 50 134 20 0 133 139 110 0 +4.06399994972162e-008 4.063999
94972162e-008 0.0001 0 0 1 0.9999999999999848 1.748455531469491e-007 0 81 1 135
 21 33 133 0 0 140 108 136 83 3 136 0.734000027179718 0.7730000019073486 0.79699
9990940094 15 137 22 0 117 133 0 14 138 23 140 1e-008 0 133 142 132 139 -0 0 0 1
33 130 50 139 24 0 138 0 134 0 +4.06399994972162e-008 4.06399994972162e-008 -0.0
05 0 0 1 0.9999999999999848 1.748455531469491e-007 0 81 1 140 25 33 138 0 0 0 13
5 141 83 3 141 0.734000027179718 0.7730000019073486 0.796999990940094 15 142 26
 0 127 138 0 12 143 26 0 144 0 0 0 0 1000 1e-008 0 0 0 1 0 1 1 170 148 154 152 1
67 153 151 70 144 0 143 0 0 4 1 20 0 145 145 1 T74 20 145 1 0 146 0 0 0 0 0 0 0
 0 0 0 0 0 0 0 0 0 0 0 0 81 1 146 7 33 147 0 0 173 0 166 14 147 5 146 1e-008 171
 0 149 170 148 +0 0 171 0 168 51 148 6 0 147 172 0 0 +0.009920040639999347 4.237
446738443393e-008 -0.005 0 0 1 0.0007 0.9999999999999848 1.748455531469491e-007
 0 15 149 8 0 150 147 0 17 150 0 149 156 161 151 155 153 0 161 -18 151 9 0 155 0
 157 152 ?143 29 152 10 0 151 158 0 0.01062004063999934 4.249685927146534e-008 0
.0001 16 153 11 0 ?155 0 159 154 0 0 143 31 154 12 0 153 160 0 0 +0.009920040639
999347 4.237446738443393e-008 0.0001 0 -0 1 0.9999999999999848 1.748455531469491
e-007 0 0.0007 17 155 0 175 155 155 151 150 153 0 150 +17 156 0 149 162 150 157
 161 159 0 162 -18 157 13 0 156 151 0 158 ?143 29 158 14 0 157 0 152 0.010620040
63999934 4.249685927146534e-008 -0.005 16 159 15 0 ?161 153 163 160 0 0 143 30 1
60 16 0 159 164 154 0 +0.01062004063999934 4.249685927146534e-008 -0.005 0 0 1 1
7 161 0 149 150 162 151 156 159 0 0 +17 162 0 149 161 156 157 165 163 0 165 +16
 163 17 0 ?162 159 0 164 0 0 143 31 164 18 0 163 0 160 0 +0.009920040639999347 4
.237446738443393e-008 -0.005 0 -0 1 0.9999999999999848 1.748455531469491e-007 0
 0.0007 17 165 0 180 165 165 157 162 163 0 0 -83 3 166 0.734000027179718 0.77300
00019073486 0.796999990940094 19 167 1 0 143 169 0 168 V13 168 2 0 143 0 0 0 0 1
67 147 19 169 3 0 143 0 167 170 S13 170 4 0 143 0 147 0 0 169 0 14 171 19 173 1e
-008 176 147 175 170 172 +0 0 176 147 168 50 172 20 0 171 177 148 0 +0.009920040
639999347 4.237446738443393e-008 0.0001 0 0 1 0.9999999999999848 1.7484555314694
91e-007 0 81 1 173 21 33 171 0 0 178 146 174 83 3 174 0.734000027179718 0.773000
0019073486 0.796999990940094 15 175 22 0 155 171 0 14 176 23 178 1e-008 0 171 18
0 170 177 -0 0 0 171 168 50 177 24 0 176 0 172 0 +0.009920040639999347 4.2374467
38443393e-008 -0.005 0 0 1 0.9999999999999848 1.748455531469491e-007 0 81 1 178
 25 33 176 0 0 0 173 179 83 3 179 0.734000027179718 0.7730000019073486 0.7969999
90940094 15 180 26 0 165 176 0 12 181 26 0 182 0 0 0 0 1000 1e-008 0 0 0 1 0 1 1
 208 186 192 190 205 191 189 70 182 0 181 0 0 4 1 20 0 183 183 1 T74 20 183 1 0
 184 0 0 0 0 0 0 0 0 0 0 0 0 0 0 0 0 0 0 0 81 1 184 7 33 185 0 0 211 0 204 14 18
5 5 184 1e-008 209 0 187 208 186 +0 0 209 0 206 51 186 6 0 185 210 0 0 +0.009920
040045524466 0.003400042374467333 -0.005 0 0 1 0.0007 0.9999999999999848 1.74845
5531469491e-007 0 15 187 8 0 188 185 0 17 188 0 187 194 199 189 193 191 0 199 -1
8 189 9 0 193 0 195 190 ?181 29 190 10 0 189 196 0 0.01062004004552446 0.0034000
4249685922 0.0001 16 191 11 0 ?193 0 197 192 0 0 181 31 192 12 0 191 198 0 0 +0.
009920040045524466 0.003400042374467333 0.0001 0 -0 1 0.9999999999999848 1.74845
5531469491e-007 0 0.0007 17 193 0 213 193 193 189 188 191 0 188 +17 194 0 187 20
0 188 195 199 197 0 200 -18 195 13 0 194 189 0 196 ?181 29 196 14 0 195 0 190 0.
01062004004552446 0.00340004249685922 -0.005 16 197 15 0 ?199 191 201 198 0 0 18
1 30 198 16 0 197 202 192 0 +0.01062004004552446 0.00340004249685922 -0.005 0 0
 1 17 199 0 187 188 200 189 194 197 0 0 +17 200 0 187 199 194 195 203 201 0 203
 +16 201 17 0 ?200 197 0 202 0 0 181 31 202 18 0 201 0 198 0 +0.0099200400455244
66 0.003400042374467333 -0.005 0 -0 1 0.9999999999999848 1.748455531469491e-007
 0 0.0007 17 203 0 218 203 203 195 200 201 0 0 -83 3 204 0.734000027179718 0.773
0000019073486 0.796999990940094 19 205 1 0 181 207 0 206 V13 206 2 0 181 0 0 0 0
 205 185 19 207 3 0 181 0 205 208 S13 208 4 0 181 0 185 0 0 207 0 14 209 19 211
 1e-008 214 185 213 208 210 +0 0 214 185 206 50 210 20 0 209 215 186 0 +0.009920
040045524466 0.003400042374467333 0.0001 0 0 1 0.9999999999999848 1.748455531469
491e-007 0 81 1 211 21 33 209 0 0 216 184 212 83 3 212 0.734000027179718 0.77300
00019073486 0.796999990940094 15 213 22 0 193 209 0 14 214 23 216 1e-008 0 209 2
18 208 215 -0 0 0 209 206 50 215 24 0 214 0 210 0 +0.009920040045524466 0.003400
042374467333 -0.005 0 0 1 0.9999999999999848 1.748455531469491e-007 0 81 1 216 2
5 33 214 0 0 0 211 217 83 3 217 0.734000027179718 0.7730000019073486 0.796999990
940094 15 218 26 0 203 214 0 12 219 26 0 220 0 0 0 0 1000 1e-008 0 0 0 1 0 1 1 2
46 224 230 228 243 229 227 70 220 0 219 0 0 4 1 20 0 221 221 1 T74 20 221 1 0 22
2 0 0 0 0 0 0 0 0 0 0 0 0 0 0 0 0 0 0 0 81 1 222 7 33 223 0 0 249 0 242 14 223 5
 222 1e-008 247 0 225 246 224 +0 0 247 0 244 51 224 6 0 223 248 0 0 +4.004552461
651657e-008 0.003400040639999446 -0.005 0 0 1 0.0007 0.9999999999999848 1.748455
531469491e-007 0 15 225 8 0 226 223 0 17 226 0 225 232 237 227 231 229 0 237 -18
 227 9 0 231 0 233 228 ?219 29 228 10 0 227 234 0 0.0007000400455246059 0.003400
040762391333 0.0001 16 229 11 0 ?231 0 235 230 0 0 219 31 230 12 0 229 236 0 0 +
4.004552461651657e-008 0.003400040639999446 0.0001 0 -0 1 0.9999999999999848 1.7
48455531469491e-007 0 0.0007 17 231 0 251 231 231 227 226 229 0 226 +17 232 0 22
5 238 226 233 237 235 0 238 -18 233 13 0 232 227 0 234 ?219 29 234 14 0 233 0 22
8 0.0007000400455246059 0.003400040762391333 -0.005 16 235 15 0 ?237 229 239 236
 0 0 219 30 236 16 0 235 240 230 0 +0.0007000400455246059 0.003400040762391333 -
0.005 0 0 1 17 237 0 225 226 238 227 232 235 0 0 +17 238 0 225 237 232 233 241 2
39 0 241 +16 239 17 0 ?238 235 0 240 0 0 219 31 240 18 0 239 0 236 0 +4.00455246
1651657e-008 0.003400040639999446 -0.005 0 -0 1 0.9999999999999848 1.74845553146
9491e-007 0 0.0007 17 241 0 256 241 241 233 238 239 0 0 -83 3 242 0.734000027179
718 0.7730000019073486 0.796999990940094 19 243 1 0 219 245 0 244 V13 244 2 0 21
9 0 0 0 0 243 223 19 245 3 0 219 0 243 246 S13 246 4 0 219 0 223 0 0 245 0 14 24
7 19 249 1e-008 252 223 251 246 248 +0 0 252 223 244 50 248 20 0 247 253 224 0 +
4.004552461651657e-008 0.003400040639999446 0.0001 0 0 1 0.9999999999999848 1.74
8455531469491e-007 0 81 1 249 21 33 247 0 0 254 222 250 83 3 250 0.7340000271797
18 0.7730000019073486 0.796999990940094 15 251 22 0 231 247 0 14 252 23 254 1e-0
08 0 247 256 246 253 -0 0 0 247 244 50 253 24 0 252 0 248 0 +4.004552461651657e-
008 0.003400040639999446 -0.005 0 0 1 0.9999999999999848 1.748455531469491e-007
 0 81 1 254 25 33 252 0 0 0 249 255 83 3 255 0.734000027179718 0.773000001907348
6 0.796999990940094 15 256 26 0 241 252 0 12 257 26 0 258 0 0 0 0 1000 1e-008 0
 0 0 1 0 1 1 284 262 268 266 281 267 265 70 258 0 257 0 0 4 1 20 0 259 259 1 T74
 20 259 1 0 260 0 0 0 0 0 0 0 0 0 0 0 0 0 0 0 0 0 0 0 81 1 260 7 33 261 0 0 287
 0 280 14 261 5 260 1e-008 285 0 263 284 262 +0 0 285 0 282 51 262 6 0 261 286 0
 0 +4.06399994972162e-008 4.06399994972162e-008 -0.005 0 0 1 0.0007 0.9999999999
999848 1.748455531469491e-007 0 15 263 8 0 264 261 0 17 264 0 263 270 275 265 26
9 267 0 275 -18 265 9 0 269 0 271 266 ?257 29 266 10 0 265 272 0 0.0007000406399
994865 4.076239138424761e-008 0.0001 16 267 11 0 ?269 0 273 268 0 0 257 31 268 1
2 0 267 274 0 0 +4.06399994972162e-008 4.06399994972162e-008 0.0001 0 -0 1 0.999
9999999999848 1.748455531469491e-007 0 0.0007 17 269 0 289 269 269 265 264 267 0
 264 +17 270 0 263 276 264 271 275 273 0 276 -18 271 13 0 270 265 0 272 ?257 29
 272 14 0 271 0 266 0.0007000406399994865 4.076239138424761e-008 -0.005 16 273 1
5 0 ?275 267 277 274 0 0 257 30 274 16 0 273 278 268 0 +0.0007000406399994865 4.
076239138424761e-008 -0.005 0 0 1 17 275 0 263 264 276 265 270 273 0 0 +17 276 0
 263 275 270 271 279 277 0 279 +16 277 17 0 ?276 273 0 278 0 0 257 31 278 18 0 2
77 0 274 0 +4.06399994972162e-008 4.06399994972162e-008 -0.005 0 -0 1 0.99999999
99999848 1.748455531469491e-007 0 0.0007 17 279 0 294 279 279 271 276 277 0 0 -8
3 3 280 0.734000027179718 0.7730000019073486 0.796999990940094 19 281 1 0 257 28
3 0 282 V13 282 2 0 257 0 0 0 0 281 261 19 283 3 0 257 0 281 284 S13 284 4 0 257
 0 261 0 0 283 0 14 285 19 287 1e-008 290 261 289 284 286 +0 0 290 261 282 50 28
6 20 0 285 291 262 0 +4.06399994972162e-008 4.06399994972162e-008 0.0001 0 0 1 0
.9999999999999848 1.748455531469491e-007 0 81 1 287 21 33 285 0 0 292 260 288 83
 3 288 0.734000027179718 0.7730000019073486 0.796999990940094 15 289 22 0 269 28
5 0 14 290 23 292 1e-008 0 285 294 284 291 -0 0 0 285 282 50 291 24 0 290 0 286
 0 +4.06399994972162e-008 4.06399994972162e-008 -0.005 0 0 1 0.9999999999999848
 1.748455531469491e-007 0 81 1 292 25 33 290 0 0 0 287 293 83 3 293 0.7340000271
79718 0.7730000019073486 0.796999990940094 15 294 26 0 279 290 0 12 295 26 0 296
 0 0 0 0 1000 1e-008 0 0 0 1 0 1 1 322 300 306 304 319 305 303 70 296 0 295 0 0
 4 1 20 0 297 297 1 T74 20 297 1 0 298 0 0 0 0 0 0 0 0 0 0 0 0 0 0 0 0 0 0 0 81
 1 298 7 33 299 0 0 325 0 318 14 299 5 298 1e-008 323 0 301 322 300 +0 0 323 0 3
20 51 300 6 0 299 324 0 0 +0.009920040639999347 4.237446738443393e-008 -0.005 0
 0 1 0.0007 0.9999999999999848 1.748455531469491e-007 0 15 301 8 0 302 299 0 17
 302 0 301 308 313 303 307 305 0 313 -18 303 9 0 307 0 309 304 ?295 29 304 10 0
 303 310 0 0.01062004063999934 4.249685927146534e-008 0.0001 16 305 11 0 ?307 0
 311 306 0 0 295 31 306 12 0 305 312 0 0 +0.009920040639999347 4.237446738443393
e-008 0.0001 0 -0 1 0.9999999999999848 1.748455531469491e-007 0 0.0007 17 307 0
 327 307 307 303 302 305 0 302 +17 308 0 301 314 302 309 313 311 0 314 -18 309 1
3 0 308 303 0 310 ?295 29 310 14 0 309 0 304 0.01062004063999934 4.2496859271465
34e-008 -0.005 16 311 15 0 ?313 305 315 312 0 0 295 30 312 16 0 311 316 306 0 +0
.01062004063999934 4.249685927146534e-008 -0.005 0 0 1 17 313 0 301 302 314 303
 308 311 0 0 +17 314 0 301 313 308 309 317 315 0 317 +16 315 17 0 ?314 311 0 316
 0 0 295 31 316 18 0 315 0 312 0 +0.009920040639999347 4.237446738443393e-008 -0
.005 0 -0 1 0.9999999999999848 1.748455531469491e-007 0 0.0007 17 317 0 332 317
 317 309 314 315 0 0 -83 3 318 0.734000027179718 0.7730000019073486 0.7969999909
40094 19 319 1 0 295 321 0 320 V13 320 2 0 295 0 0 0 0 319 299 19 321 3 0 295 0
 319 322 S13 322 4 0 295 0 299 0 0 321 0 14 323 19 325 1e-008 328 299 327 322 32
4 +0 0 328 299 320 50 324 20 0 323 329 300 0 +0.009920040639999347 4.23744673844
3393e-008 0.0001 0 0 1 0.9999999999999848 1.748455531469491e-007 0 81 1 325 21 3
3 323 0 0 330 298 326 83 3 326 0.734000027179718 0.7730000019073486 0.7969999909
40094 15 327 22 0 307 323 0 14 328 23 330 1e-008 0 323 332 322 329 -0 0 0 323 32
0 50 329 24 0 328 0 324 0 +0.009920040639999347 4.237446738443393e-008 -0.005 0
 0 1 0.9999999999999848 1.748455531469491e-007 0 81 1 330 25 33 328 0 0 0 325 33
1 83 3 331 0.734000027179718 0.7730000019073486 0.796999990940094 15 332 26 0 31
7 328 0 12 333 26 0 334 0 0 0 0 1000 1e-008 0 0 0 1 0 1 1 360 338 344 342 357 34
3 341 70 334 0 333 0 0 4 1 20 0 335 335 1 T74 20 335 1 0 336 0 0 0 0 0 0 0 0 0 0
 0 0 0 0 0 0 0 0 0 81 1 336 7 33 337 0 0 363 0 356 14 337 5 336 1e-008 361 0 339
 360 338 +0 0 361 0 358 51 338 6 0 337 362 0 0 +0.009920040045524466 0.003400042
374467333 -0.005 0 0 1 0.0007 0.9999999999999848 1.748455531469491e-007 0 15 339
 8 0 340 337 0 17 340 0 339 346 351 341 345 343 0 351 -18 341 9 0 345 0 347 342
 ?333 29 342 10 0 341 348 0 0.01062004004552446 0.00340004249685922 0.0001 16 34
3 11 0 ?345 0 349 344 0 0 333 31 344 12 0 343 350 0 0 +0.009920040045524466 0.00
3400042374467333 0.0001 0 -0 1 0.9999999999999848 1.748455531469491e-007 0 0.000
7 17 345 0 365 345 345 341 340 343 0 340 +17 346 0 339 352 340 347 351 349 0 0 -
18 347 13 0 352 341 0 348 ?333 29 348 14 0 347 0 342 0.01062004004552446 0.00340
004249685922 -0.005 16 349 15 0 ?351 343 353 350 0 0 333 30 350 16 0 349 354 344
 0 +0.01062004004552446 0.00340004249685922 -0.005 0 0 1 17 351 0 339 340 352 34
1 346 349 0 0 +17 352 0 339 351 346 347 355 353 0 355 +16 353 17 0 ?352 349 0 35
4 0 0 333 31 354 18 0 353 0 350 0 +0.009920040045524466 0.003400042374467333 -0.
005 0 -0 1 0.9999999999999848 1.748455531469491e-007 0 0.0007 17 355 0 370 355 3
55 347 352 353 0 346 -83 3 356 0.734000027179718 0.7730000019073486 0.7969999909
40094 19 357 1 0 333 359 0 358 V13 358 2 0 333 0 0 0 0 357 337 19 359 3 0 333 0
 357 360 S13 360 4 0 333 0 337 0 0 359 0 14 361 19 363 1e-008 366 337 365 360 36
2 +0 0 366 337 358 50 362 20 0 361 367 338 0 +0.009920040045524466 0.00340004237
4467333 0.0001 0 0 1 0.9999999999999848 1.748455531469491e-007 0 81 1 363 21 33
 361 0 0 368 336 364 83 3 364 0.734000027179718 0.7730000019073486 0.79699999094
0094 15 365 22 0 345 361 0 14 366 23 368 1e-008 0 361 370 360 367 -0 0 0 361 358
 50 367 24 0 366 0 362 0 +0.009920040045524466 0.003400042374467333 -0.005 0 0 1
 0.9999999999999848 1.748455531469491e-007 0 81 1 368 25 33 366 0 0 0 363 369 83
 3 369 0.734000027179718 0.7730000019073486 0.796999990940094 15 370 26 0 355 36
6 0 12 371 26 0 372 0 0 0 0 1000 1e-008 0 0 0 1 0 1 1 398 376 382 380 395 381 37
9 70 372 0 371 0 0 4 1 20 0 373 373 1 T74 20 373 1 0 374 0 0 0 0 0 0 0 0 0 0 0 0
 0 0 0 0 0 0 0 81 1 374 7 33 375 0 0 401 0 394 14 375 5 374 1e-008 399 0 377 398
 376 +0 0 399 0 396 51 376 6 0 375 400 0 0 +4.004552461651657e-008 0.00340004063
9999446 -0.005 0 0 1 0.0007 0.9999999999999848 1.748455531469491e-007 0 15 377 8
 0 378 375 0 17 378 0 377 384 389 379 383 381 0 389 -18 379 9 0 383 0 385 380 ?3
71 29 380 10 0 379 386 0 0.0007000400455246059 0.003400040762391333 0.0001 16 38
1 11 0 ?383 0 387 382 0 0 371 31 382 12 0 381 388 0 0 +4.004552461651657e-008 0.
003400040639999446 0.0001 0 -0 1 0.9999999999999848 1.748455531469491e-007 0 0.0
007 17 383 0 403 383 383 379 378 381 0 378 +17 384 0 377 390 378 385 389 387 0 3
90 -18 385 13 0 384 379 0 386 ?371 29 386 14 0 385 0 380 0.0007000400455246059 0
.003400040762391333 -0.005 16 387 15 0 ?389 381 391 388 0 0 371 30 388 16 0 387
 392 382 0 +0.0007000400455246059 0.003400040762391333 -0.005 0 0 1 17 389 0 377
 378 390 379 384 387 0 0 +17 390 0 377 389 384 385 393 391 0 393 +16 391 17 0 ?3
90 387 0 392 0 0 371 31 392 18 0 391 0 388 0 +4.004552461651657e-008 0.003400040
639999446 -0.005 0 -0 1 0.9999999999999848 1.748455531469491e-007 0 0.0007 17 39
3 0 408 393 393 385 390 391 0 0 -83 3 394 0.734000027179718 0.7730000019073486 0
.796999990940094 19 395 1 0 371 397 0 396 V13 396 2 0 371 0 0 0 0 395 375 19 397
 3 0 371 0 395 398 S13 398 4 0 371 0 375 0 0 397 0 14 399 19 401 1e-008 404 375
 403 398 400 +0 0 404 375 396 50 400 20 0 399 405 376 0 +4.004552461651657e-008
 0.003400040639999446 0.0001 0 0 1 0.9999999999999848 1.748455531469491e-007 0 8
1 1 401 21 33 399 0 0 406 374 402 83 3 402 0.734000027179718 0.7730000019073486
 0.796999990940094 15 403 22 0 383 399 0 14 404 23 406 1e-008 0 399 408 398 405
 -0 0 0 399 396 50 405 24 0 404 0 400 0 +4.004552461651657e-008 0.00340004063999
9446 -0.005 0 0 1 0.9999999999999848 1.748455531469491e-007 0 81 1 406 25 33 404
 0 0 0 401 407 83 3 407 0.734000027179718 0.7730000019073486 0.796999990940094 1
5 408 26 0 393 404 0 12 409 26 0 410 0 0 0 0 1000 1e-008 0 0 0 1 0 1 1 436 414 4
20 418 433 419 417 70 410 0 409 0 0 4 1 20 0 411 411 1 T74 20 411 1 0 412 0 0 0
 0 0 0 0 0 0 0 0 0 0 0 0 0 0 0 0 81 1 412 7 33 413 0 0 439 0 432 14 413 5 412 1e
-008 437 0 415 436 414 +0 0 437 0 434 51 414 6 0 413 438 0 0 +4.06399994972162e-
008 4.06399994972162e-008 -0.005 0 0 1 0.0007 0.9999999999999848 1.7484555314694
91e-007 0 15 415 8 0 416 413 0 17 416 0 415 422 427 417 421 419 0 427 -18 417 9
 0 421 0 423 418 ?409 29 418 10 0 417 424 0 0.0007000406399994865 4.076239138424
761e-008 0.0001 16 419 11 0 ?421 0 425 420 0 0 409 31 420 12 0 419 426 0 0 +4.06
399994972162e-008 4.06399994972162e-008 0.0001 0 -0 1 0.9999999999999848 1.74845
5531469491e-007 0 0.0007 17 421 0 441 421 421 417 416 419 0 416 +17 422 0 415 42
8 416 423 427 425 0 428 -18 423 13 0 422 417 0 424 ?409 29 424 14 0 423 0 418 0.
0007000406399994865 4.076239138424761e-008 -0.005 16 425 15 0 ?427 419 429 426 0
 0 409 30 426 16 0 425 430 420 0 +0.0007000406399994865 4.076239138424761e-008 -
0.005 0 0 1 17 427 0 415 416 428 417 422 425 0 0 +17 428 0 415 427 422 423 431 4
29 0 431 +16 429 17 0 ?428 425 0 430 0 0 409 31 430 18 0 429 0 426 0 +4.06399994
972162e-008 4.06399994972162e-008 -0.005 0 -0 1 0.9999999999999848 1.74845553146
9491e-007 0 0.0007 17 431 0 446 431 431 423 428 429 0 0 -83 3 432 0.734000027179
718 0.7730000019073486 0.796999990940094 19 433 1 0 409 435 0 434 V13 434 2 0 40
9 0 0 0 0 433 413 19 435 3 0 409 0 433 436 S13 436 4 0 409 0 413 0 0 435 0 14 43
7 19 439 1e-008 442 413 441 436 438 +0 0 442 413 434 50 438 20 0 437 443 414 0 +
4.06399994972162e-008 4.06399994972162e-008 0.0001 0 0 1 0.9999999999999848 1.74
8455531469491e-007 0 81 1 439 21 33 437 0 0 444 412 440 83 3 440 0.7340000271797
18 0.7730000019073486 0.796999990940094 15 441 22 0 421 437 0 14 442 23 444 1e-0
08 0 437 446 436 443 -0 0 0 437 434 50 443 24 0 442 0 438 0 +4.06399994972162e-0
08 4.06399994972162e-008 -0.005 0 0 1 0.9999999999999848 1.748455531469491e-007
 0 81 1 444 25 33 442 0 0 0 439 445 83 3 445 0.734000027179718 0.773000001907348
6 0.796999990940094 15 446 26 0 431 442 0 12 447 26 0 448 0 0 0 0 1000 1e-008 0
 0 0 1 0 1 1 474 452 458 456 471 457 455 70 448 0 447 0 0 4 1 20 0 449 449 1 T74
 20 449 1 0 450 0 0 0 0 0 0 0 0 0 0 0 0 0 0 0 0 0 0 0 81 1 450 7 33 451 0 0 477
 0 470 14 451 5 450 1e-008 475 0 453 474 452 +0 0 475 0 472 51 452 6 0 451 476 0
 0 +0.009920040639999347 4.237446738443393e-008 -0.005 0 0 1 0.0007 0.9999999999
999848 1.748455531469491e-007 0 15 453 8 0 454 451 0 17 454 0 453 460 465 455 45
9 457 0 465 -18 455 9 0 459 0 461 456 ?447 29 456 10 0 455 462 0 0.0106200406399
9934 4.249685927146534e-008 0.0001 16 457 11 0 ?459 0 463 458 0 0 447 31 458 12
 0 457 464 0 0 +0.009920040639999347 4.237446738443393e-008 0.0001 0 -0 1 0.9999
999999999848 1.748455531469491e-007 0 0.0007 17 459 0 479 459 459 455 454 457 0
 454 +17 460 0 453 466 454 461 465 463 0 466 -18 461 13 0 460 455 0 462 ?447 29
 462 14 0 461 0 456 0.01062004063999934 4.249685927146534e-008 -0.005 16 463 15
 0 ?465 457 467 464 0 0 447 30 464 16 0 463 468 458 0 +0.01062004063999934 4.249
685927146534e-008 -0.005 0 0 1 17 465 0 453 454 466 455 460 463 0 0 +17 466 0 45
3 465 460 461 469 467 0 469 +16 467 17 0 ?466 463 0 468 0 0 447 31 468 18 0 467
 0 464 0 +0.009920040639999347 4.237446738443393e-008 -0.005 0 -0 1 0.9999999999
999848 1.748455531469491e-007 0 0.0007 17 469 0 484 469 469 461 466 467 0 0 -83
 3 470 0.734000027179718 0.7730000019073486 0.796999990940094 19 471 1 0 447 473
 0 472 V13 472 2 0 447 0 0 0 0 471 451 19 473 3 0 447 0 471 474 S13 474 4 0 447
 0 451 0 0 473 0 14 475 19 477 1e-008 480 451 479 474 476 +0 0 480 451 472 50 47
6 20 0 475 481 452 0 +0.009920040639999347 4.237446738443393e-008 0.0001 0 0 1 0
.9999999999999848 1.748455531469491e-007 0 81 1 477 21 33 475 0 0 482 450 478 83
 3 478 0.734000027179718 0.7730000019073486 0.796999990940094 15 479 22 0 459 47
5 0 14 480 23 482 1e-008 0 475 484 474 481 -0 0 0 475 472 50 481 24 0 480 0 476
 0 +0.009920040639999347 4.237446738443393e-008 -0.005 0 0 1 0.9999999999999848
 1.748455531469491e-007 0 81 1 482 25 33 480 0 0 0 477 483 83 3 483 0.7340000271
79718 0.7730000019073486 0.796999990940094 15 484 26 0 469 480 0 12 485 26 0 486
 0 0 0 0 1000 1e-008 0 0 0 1 0 1 1 512 490 496 494 509 495 493 70 486 0 485 0 0
 4 1 20 0 487 487 1 T74 20 487 1 0 488 0 0 0 0 0 0 0 0 0 0 0 0 0 0 0 0 0 0 0 81
 1 488 7 33 489 0 0 515 0 508 14 489 5 488 1e-008 513 0 491 512 490 +0 0 513 0 5
10 51 490 6 0 489 514 0 0 +0.009920040045524466 0.003400042374467333 -0.005 0 0
 1 0.0007 0.9999999999999848 1.748455531469491e-007 0 15 491 8 0 492 489 0 17 49
2 0 491 498 503 493 497 495 0 503 -18 493 9 0 497 0 499 494 ?485 29 494 10 0 493
 500 0 0.01062004004552446 0.00340004249685922 0.0001 16 495 11 0 ?497 0 501 496
 0 0 485 31 496 12 0 495 502 0 0 +0.009920040045524466 0.003400042374467333 0.00
01 0 -0 1 0.9999999999999848 1.748455531469491e-007 0 0.0007 17 497 0 517 497 49
7 493 492 495 0 492 +17 498 0 491 504 492 499 503 501 0 504 -18 499 13 0 498 493
 0 500 ?485 29 500 14 0 499 0 494 0.01062004004552446 0.00340004249685922 -0.005
 16 501 15 0 ?503 495 505 502 0 0 485 30 502 16 0 501 506 496 0 +0.0106200400455
2446 0.00340004249685922 -0.005 0 0 1 17 503 0 491 492 504 493 498 501 0 0 +17 5
04 0 491 503 498 499 507 505 0 507 +16 505 17 0 ?504 501 0 506 0 0 485 31 506 18
 0 505 0 502 0 +0.009920040045524466 0.003400042374467333 -0.005 0 -0 1 0.999999
9999999848 1.748455531469491e-007 0 0.0007 17 507 0 522 507 507 499 504 505 0 0
 -83 3 508 0.734000027179718 0.7730000019073486 0.796999990940094 19 509 1 0 485
 511 0 510 V13 510 2 0 485 0 0 0 0 509 489 19 511 3 0 485 0 509 512 S13 512 4 0
 485 0 489 0 0 511 0 14 513 19 515 1e-008 518 489 517 512 514 +0 0 518 489 510 5
0 514 20 0 513 519 490 0 +0.009920040045524466 0.003400042374467333 0.0001 0 0 1
 0.9999999999999848 1.748455531469491e-007 0 81 1 515 21 33 513 0 0 520 488 516
 83 3 516 0.734000027179718 0.7730000019073486 0.796999990940094 15 517 22 0 497
 513 0 14 518 23 520 1e-008 0 513 522 512 519 -0 0 0 513 510 50 519 24 0 518 0 5
14 0 +0.009920040045524466 0.003400042374467333 -0.005 0 0 1 0.9999999999999848
 1.748455531469491e-007 0 81 1 520 25 33 518 0 0 0 515 521 83 3 521 0.7340000271
79718 0.7730000019073486 0.796999990940094 15 522 26 0 507 518 0 12 523 26 0 524
 0 0 0 0 1000 1e-008 0 0 0 1 0 1 1 550 528 534 532 547 533 531 70 524 0 523 0 0
 4 1 20 0 525 525 1 T74 20 525 1 0 526 0 0 0 0 0 0 0 0 0 0 0 0 0 0 0 0 0 0 0 81
 1 526 7 33 527 0 0 553 0 546 14 527 5 526 1e-008 551 0 529 550 528 +0 0 551 0 5
48 51 528 6 0 527 552 0 0 +4.004552461651657e-008 0.003400040639999446 -0.005 0
 0 1 0.0007 0.9999999999999848 1.748455531469491e-007 0 15 529 8 0 530 527 0 17
 530 0 529 536 541 531 535 533 0 541 -18 531 9 0 535 0 537 532 ?523 29 532 10 0
 531 538 0 0.0007000400455246059 0.003400040762391333 0.0001 16 533 11 0 ?535 0
 539 534 0 0 523 31 534 12 0 533 540 0 0 +4.004552461651657e-008 0.0034000406399
99446 0.0001 0 -0 1 0.9999999999999848 1.748455531469491e-007 0 0.0007 17 535 0
 555 535 535 531 530 533 0 530 +17 536 0 529 542 530 537 541 539 0 542 -18 537 1
3 0 536 531 0 538 ?523 29 538 14 0 537 0 532 0.0007000400455246059 0.00340004076
2391333 -0.005 16 539 15 0 ?541 533 543 540 0 0 523 30 540 16 0 539 544 534 0 +0
.0007000400455246059 0.003400040762391333 -0.005 0 0 1 17 541 0 529 530 542 531
 536 539 0 0 +17 542 0 529 541 536 537 545 543 0 545 +16 543 17 0 ?542 539 0 544
 0 0 523 31 544 18 0 543 0 540 0 +4.004552461651657e-008 0.003400040639999446 -0
.005 0 -0 1 0.9999999999999848 1.748455531469491e-007 0 0.0007 17 545 0 560 545
 545 537 542 543 0 0 -83 3 546 0.734000027179718 0.7730000019073486 0.7969999909
40094 19 547 1 0 523 549 0 548 V13 548 2 0 523 0 0 0 0 547 527 19 549 3 0 523 0
 547 550 S13 550 4 0 523 0 527 0 0 549 0 14 551 19 553 1e-008 556 527 555 550 55
2 +0 0 556 527 548 50 552 20 0 551 557 528 0 +4.004552461651657e-008 0.003400040
639999446 0.0001 0 0 1 0.9999999999999848 1.748455531469491e-007 0 81 1 553 21 3
3 551 0 0 558 526 554 83 3 554 0.734000027179718 0.7730000019073486 0.7969999909
40094 15 555 22 0 535 551 0 14 556 23 558 1e-008 0 551 560 550 557 -0 0 0 551 54
8 50 557 24 0 556 0 552 0 +4.004552461651657e-008 0.003400040639999446 -0.005 0
 0 1 0.9999999999999848 1.748455531469491e-007 0 81 1 558 25 33 556 0 0 0 553 55
9 83 3 559 0.734000027179718 0.7730000019073486 0.796999990940094 15 560 26 0 54
5 556 0 12 561 26 0 562 0 0 0 0 1000 1e-008 0 0 0 1 0 1 1 588 566 572 570 585 57
1 569 70 562 0 561 0 0 4 1 20 0 563 563 1 T74 20 563 1 0 564 0 0 0 0 0 0 0 0 0 0
 0 0 0 0 0 0 0 0 0 81 1 564 7 33 565 0 0 591 0 584 14 565 5 564 1e-008 589 0 567
 588 566 +0 0 589 0 586 51 566 6 0 565 590 0 0 +4.06399994972162e-008 4.06399994
972162e-008 -0.005 0 0 1 0.0007 0.9999999999999848 1.748455531469491e-007 0 15 5
67 8 0 568 565 0 17 568 0 567 574 579 569 573 571 0 579 -18 569 9 0 573 0 575 57
0 ?561 29 570 10 0 569 576 0 0.0007000406399994865 4.076239138424761e-008 0.0001
 16 571 11 0 ?573 0 577 572 0 0 561 31 572 12 0 571 578 0 0 +4.06399994972162e-0
08 4.06399994972162e-008 0.0001 0 -0 1 0.9999999999999848 1.748455531469491e-007
 0 0.0007 17 573 0 593 573 573 569 568 571 0 568 +17 574 0 567 580 568 575 579 5
77 0 580 -18 575 13 0 574 569 0 576 ?561 29 576 14 0 575 0 570 0.000700040639999
4865 4.076239138424761e-008 -0.005 16 577 15 0 ?579 571 581 578 0 0 561 30 578 1
6 0 577 582 572 0 +0.0007000406399994865 4.076239138424761e-008 -0.005 0 0 1 17
 579 0 567 568 580 569 574 577 0 0 +17 580 0 567 579 574 575 583 581 0 583 +16 5
81 17 0 ?580 577 0 582 0 0 561 31 582 18 0 581 0 578 0 +4.06399994972162e-008 4.
06399994972162e-008 -0.005 0 -0 1 0.9999999999999848 1.748455531469491e-007 0 0.
0007 17 583 0 598 583 583 575 580 581 0 0 -83 3 584 0.734000027179718 0.77300000
19073486 0.796999990940094 19 585 1 0 561 587 0 586 V13 586 2 0 561 0 0 0 0 585
 565 19 587 3 0 561 0 585 588 S13 588 4 0 561 0 565 0 0 587 0 14 589 19 591 1e-0
08 594 565 593 588 590 +0 0 594 565 586 50 590 20 0 589 595 566 0 +4.06399994972
162e-008 4.06399994972162e-008 0.0001 0 0 1 0.9999999999999848 1.748455531469491
e-007 0 81 1 591 21 33 589 0 0 596 564 592 83 3 592 0.734000027179718 0.77300000
19073486 0.796999990940094 15 593 22 0 573 589 0 14 594 23 596 1e-008 0 589 598
 588 595 -0 0 0 589 586 50 595 24 0 594 0 590 0 +4.06399994972162e-008 4.0639999
4972162e-008 -0.005 0 0 1 0.9999999999999848 1.748455531469491e-007 0 81 1 596 2
5 33 594 0 0 0 591 597 83 3 597 0.734000027179718 0.7730000019073486 0.796999990
940094 15 598 26 0 583 594 0 12 599 26 0 600 0 0 0 0 1000 1e-008 0 0 0 1 0 1 1 6
26 604 610 608 623 609 607 70 600 0 599 0 0 4 1 20 0 601 601 1 T74 20 601 1 0 60
2 0 0 0 0 0 0 0 0 0 0 0 0 0 0 0 0 0 0 0 81 1 602 7 33 603 0 0 629 0 622 14 603 5
 602 1e-008 627 0 605 626 604 +0 0 627 0 624 51 604 6 0 603 628 0 0 +0.009920040
639999347 4.237446738443393e-008 -0.005 0 0 1 0.0007 0.9999999999999848 1.748455
531469491e-007 0 15 605 8 0 606 603 0 17 606 0 605 612 617 607 611 609 0 617 -18
 607 9 0 611 0 613 608 ?599 29 608 10 0 607 614 0 0.01062004063999934 4.24968592
7146534e-008 0.0001 16 609 11 0 ?611 0 615 610 0 0 599 31 610 12 0 609 616 0 0 +
0.009920040639999347 4.237446738443393e-008 0.0001 0 -0 1 0.9999999999999848 1.7
48455531469491e-007 0 0.0007 17 611 0 631 611 611 607 606 609 0 606 +17 612 0 60
5 618 606 613 617 615 0 618 -18 613 13 0 612 607 0 614 ?599 29 614 14 0 613 0 60
8 0.01062004063999934 4.249685927146534e-008 -0.005 16 615 15 0 ?617 609 619 616
 0 0 599 30 616 16 0 615 620 610 0 +0.01062004063999934 4.249685927146534e-008 -
0.005 0 0 1 17 617 0 605 606 618 607 612 615 0 0 +17 618 0 605 617 612 613 621 6
19 0 621 +16 619 17 0 ?618 615 0 620 0 0 599 31 620 18 0 619 0 616 0 +0.00992004
0639999347 4.237446738443393e-008 -0.005 0 -0 1 0.9999999999999848 1.74845553146
9491e-007 0 0.0007 17 621 0 636 621 621 613 618 619 0 0 -83 3 622 0.734000027179
718 0.7730000019073486 0.796999990940094 19 623 1 0 599 625 0 624 V13 624 2 0 59
9 0 0 0 0 623 603 19 625 3 0 599 0 623 626 S13 626 4 0 599 0 603 0 0 625 0 14 62
7 19 629 1e-008 632 603 631 626 628 +0 0 632 603 624 50 628 20 0 627 633 604 0 +
0.009920040639999347 4.237446738443393e-008 0.0001 0 0 1 0.9999999999999848 1.74
8455531469491e-007 0 81 1 629 21 33 627 0 0 634 602 630 83 3 630 0.7340000271797
18 0.7730000019073486 0.796999990940094 15 631 22 0 611 627 0 14 632 23 634 1e-0
08 0 627 636 626 633 -0 0 0 627 624 50 633 24 0 632 0 628 0 +0.00992004063999934
7 4.237446738443393e-008 -0.005 0 0 1 0.9999999999999848 1.748455531469491e-007
 0 81 1 634 25 33 632 0 0 0 629 635 83 3 635 0.734000027179718 0.773000001907348
6 0.796999990940094 15 636 26 0 621 632 0 12 637 26 0 638 0 0 0 0 1000 1e-008 0
 0 0 1 0 1 1 664 642 648 646 661 647 645 70 638 0 637 0 0 4 1 20 0 639 639 1 T74
 20 639 1 0 640 0 0 0 0 0 0 0 0 0 0 0 0 0 0 0 0 0 0 0 81 1 640 7 33 641 0 0 667
 0 660 14 641 5 640 1e-008 665 0 643 664 642 +0 0 665 0 662 51 642 6 0 641 666 0
 0 +0.009920040045524466 0.003400042374467333 -0.005 0 0 1 0.0007 0.999999999999
9848 1.748455531469491e-007 0 15 643 8 0 644 641 0 17 644 0 643 650 655 645 649
 647 0 655 -18 645 9 0 649 0 651 646 ?637 29 646 10 0 645 652 0 0.01062004004552
446 0.00340004249685922 0.0001 16 647 11 0 ?649 0 653 648 0 0 637 31 648 12 0 64
7 654 0 0 +0.009920040045524466 0.003400042374467333 0.0001 0 -0 1 0.99999999999
99848 1.748455531469491e-007 0 0.0007 17 649 0 669 649 649 645 644 647 0 644 +17
 650 0 643 656 644 651 655 653 0 656 -18 651 13 0 650 645 0 652 ?637 29 652 14 0
 651 0 646 0.01062004004552446 0.00340004249685922 -0.005 16 653 15 0 ?655 647 6
57 654 0 0 637 30 654 16 0 653 658 648 0 +0.01062004004552446 0.0034000424968592
2 -0.005 0 0 1 17 655 0 643 644 656 645 650 653 0 0 +17 656 0 643 655 650 651 65
9 657 0 659 +16 657 17 0 ?656 653 0 658 0 0 637 31 658 18 0 657 0 654 0 +0.00992
0040045524466 0.003400042374467333 -0.005 0 -0 1 0.9999999999999848 1.7484555314
69491e-007 0 0.0007 17 659 0 674 659 659 651 656 657 0 0 -83 3 660 0.73400002717
9718 0.7730000019073486 0.796999990940094 19 661 1 0 637 663 0 662 V13 662 2 0 6
37 0 0 0 0 661 641 19 663 3 0 637 0 661 664 S13 664 4 0 637 0 641 0 0 663 0 14 6
65 19 667 1e-008 670 641 669 664 666 +0 0 670 641 662 50 666 20 0 665 671 642 0
 +0.009920040045524466 0.003400042374467333 0.0001 0 0 1 0.9999999999999848 1.74
8455531469491e-007 0 81 1 667 21 33 665 0 0 672 640 668 83 3 668 0.7340000271797
18 0.7730000019073486 0.796999990940094 15 669 22 0 649 665 0 14 670 23 672 1e-0
08 0 665 674 664 671 -0 0 0 665 662 50 671 24 0 670 0 666 0 +0.00992004004552446
6 0.003400042374467333 -0.005 0 0 1 0.9999999999999848 1.748455531469491e-007 0
 81 1 672 25 33 670 0 0 0 667 673 83 3 673 0.734000027179718 0.7730000019073486
 0.796999990940094 15 674 26 0 659 670 0 12 675 26 0 676 0 0 0 0 1000 1e-008 0 0
 0 1 0 1 1 702 680 686 684 699 685 683 70 676 0 675 0 0 4 1 20 0 677 677 1 T74 2
0 677 1 0 678 0 0 0 0 0 0 0 0 0 0 0 0 0 0 0 0 0 0 0 81 1 678 7 33 679 0 0 705 0
 698 14 679 5 678 1e-008 703 0 681 702 680 +0 0 703 0 700 51 680 6 0 679 704 0 0
 +4.004552461651657e-008 0.003400040639999446 -0.005 0 0 1 0.0007 0.999999999999
9848 1.748455531469491e-007 0 15 681 8 0 682 679 0 17 682 0 681 688 693 683 687
 685 0 693 -18 683 9 0 687 0 689 684 ?675 29 684 10 0 683 690 0 0.00070004004552
46059 0.003400040762391333 0.0001 16 685 11 0 ?687 0 691 686 0 0 675 31 686 12 0
 685 692 0 0 +4.004552461651657e-008 0.003400040639999446 0.0001 0 -0 1 0.999999
9999999848 1.748455531469491e-007 0 0.0007 17 687 0 707 687 687 683 682 685 0 68
2 +17 688 0 681 694 682 689 693 691 0 694 -18 689 13 0 688 683 0 690 ?675 29 690
 14 0 689 0 684 0.0007000400455246059 0.003400040762391333 -0.005 16 691 15 0 ?6
93 685 695 692 0 0 675 30 692 16 0 691 696 686 0 +0.0007000400455246059 0.003400
040762391333 -0.005 0 0 1 17 693 0 681 682 694 683 688 691 0 0 +17 694 0 681 693
 688 689 697 695 0 697 +16 695 17 0 ?694 691 0 696 0 0 675 31 696 18 0 695 0 692
 0 +4.004552461651657e-008 0.003400040639999446 -0.005 0 -0 1 0.9999999999999848
 1.748455531469491e-007 0 0.0007 17 697 0 712 697 697 689 694 695 0 0 -83 3 698
 0.734000027179718 0.7730000019073486 0.796999990940094 19 699 1 0 675 701 0 700
 V13 700 2 0 675 0 0 0 0 699 679 19 701 3 0 675 0 699 702 S13 702 4 0 675 0 679
 0 0 701 0 14 703 19 705 1e-008 708 679 707 702 704 +0 0 708 679 700 50 704 20 0
 703 709 680 0 +4.004552461651657e-008 0.003400040639999446 0.0001 0 0 1 0.99999
99999999848 1.748455531469491e-007 0 81 1 705 21 33 703 0 0 710 678 706 83 3 706
 0.734000027179718 0.7730000019073486 0.796999990940094 15 707 22 0 687 703 0 14
 708 23 710 1e-008 0 703 712 702 709 -0 0 0 703 700 50 709 24 0 708 0 704 0 +4.0
04552461651657e-008 0.003400040639999446 -0.005 0 0 1 0.9999999999999848 1.74845
5531469491e-007 0 81 1 710 25 33 708 0 0 0 705 711 83 3 711 0.734000027179718 0.
7730000019073486 0.796999990940094 15 712 26 0 697 708 0 1 0 
