**ABCDEFGHIJKLMNOPQRSTUVWXYZabcdefghijklmnopqrstuvwxyz**************************
**PARASOLID !"#$%&'()*+,-./:;<=>?@[\]^_`{|}~0123456789**************************
**PART1;
MC=x86;
MC_MODEL=Intel64 Family 6 Model 158 Stepping 10, GenuineIntel;
MC_ID=unknown;
OS=Windows_NT;
OS_RELEASE=unknown;
FRU=CAD Exchanger 3.6.1 (cadexchanger.com);
APPL=unknown;
SITE=unknown;
USER=unknown;
FORMAT=text;
GUISE=transmit;
KEY=JST_XH_B2B-XH-A_2_Pin;
FILE=JST_XH_B2B-XH-A_2_Pin.x_t;
DATE=Wed Jul 21 02:34:42 2021;
**PART2;
SCH=SCH_1200000_12006;
USFLD_SIZE=0;
**PART3;
**END_OF_HEADER*****************************************************************
T51 : TRANSMIT FILE created by modeller version 120000017 SCH_1200000_120060 12
 1 508 0 2 0 0 0 0 1000 1e-008 0 0 0 1 0 1 1 38 6 12 10 35 11 9 70 2 0 1 0 0 4 1
 20 0 3 3 1 T74 20 3 1 0 4 0 0 0 0 0 0 0 0 0 0 0 0 0 0 0 0 0 0 0 81 1 4 7 32 5 0
 0 41 0 34 14 5 5 4 1e-008 39 0 7 38 6 -0 0 39 0 36 50 6 6 0 5 40 0 0 +-0.003699
948948658313 -0.003374938364436016 1.256702413243719e-010 -8.742277657347545e-00
8 0.9999999999999953 -4.371138828673806e-008 -0.9999999999999962 -8.742277657347
554e-008 0 15 7 8 0 8 5 0 17 8 0 7 16 28 9 13 11 0 21 -18 9 9 0 8 0 14 10 ?1 29
 10 10 0 9 15 0 -0.00369994894865834 -0.003374938058456298 0.007000000125670234
 16 11 11 0 ?13 0 19 12 0 0 1 30 12 12 0 11 20 0 0 +-0.00369994894865834 -0.0033
74938058456298 0.007000000125670235 0.9999999999999962 8.742277657347554e-008 -0
 17 13 0 88 83 115 14 8 11 0 28 +18 14 13 0 13 9 17 15 ?1 29 15 14 0 14 18 10 0.
003700051051341633 -0.003374937411527752 0.007000000125670234 17 16 0 7 22 8 17
 21 19 0 27 -18 17 15 0 16 14 23 18 ?1 29 18 16 0 17 24 15 -0.003699948948658313
 -0.003374938364436016 1.256702413243719e-010 16 19 17 0 ?21 11 25 20 0 0 1 30 2
0 18 0 19 26 12 0 +-0.003699948948658313 -0.003374938364436016 1.256702413243719
e-010 -3.821370931907936e-015 4.371138828673789e-008 0.9999999999999991 17 21 0
 127 118 128 9 16 19 0 115 +17 22 0 7 28 16 23 27 25 0 31 -18 23 19 0 22 17 45 2
4 ?1 29 24 20 0 23 46 18 0.003700051051341659 -0.00337493771750747 1.25670241324
3719e-010 16 25 21 0 ?27 19 29 26 0 0 1 30 26 22 0 25 30 20 0 +-0.00369994894865
8313 -0.003374938364436016 1.256702413243719e-010 -0.9999999999999962 -8.7422776
57347554e-008 0 17 27 0 191 131 49 17 22 25 0 128 +17 28 0 7 8 22 14 31 29 0 80
 -16 29 23 0 ?31 25 47 30 0 0 1 30 30 24 0 29 48 26 0 +0.003700051051341659 -0.0
0337493771750747 1.256702413243719e-010 3.821370931907936e-015 -4.37113882867378
9e-008 -0.9999999999999991 17 31 0 43 44 80 23 28 29 0 49 +80 1 32 0 33 8001 0 0
 0 0 3 5 0 0 FFFFTFTFFFFFFF2 79 15 33 SDL/TYSA_COLOUR83 3 34 1 1 1 19 35 1 0 1 3
7 0 36 V13 36 2 0 1 0 0 0 0 35 5 19 37 3 0 1 0 35 38 S13 38 4 0 1 0 5 0 0 37 0 1
4 39 25 41 1e-008 84 5 43 38 40 +0 0 84 5 36 50 40 26 0 39 85 6 0 +0.00370005054
8660668 0.002375062588472222 0.006999999874329753 0.9999999999999962 8.742277657
347554e-008 0 -8.742277657347545e-008 0.9999999999999953 -4.371138828673806e-008
 81 1 41 27 32 39 0 0 86 4 42 83 3 42 1 1 1 15 43 28 0 31 39 0 17 44 0 43 50 31
 45 49 47 0 55 +18 45 29 0 192 23 51 46 ?1 29 46 30 0 45 52 24 0.003700050548660
694 0.002375062282492504 -1.256702413243719e-010 16 47 31 0 ?44 29 53 48 0 0 1 3
0 48 32 0 47 54 30 0 +0.003700050548660694 0.002375062282492504 -1.2567024132437
19e-010 -8.742277657347545e-008 0.9999999999999953 -4.371138828673806e-008 17 49
 0 191 27 192 23 44 47 0 0 -17 50 0 43 56 44 51 55 53 0 61 +18 51 33 0 50 45 57
 52 ?1 29 52 34 0 51 58 46 0.003700050548660668 0.002375062588472222 0.006999999
874329753 16 53 35 0 ?50 47 59 54 0 0 1 30 54 36 0 53 60 48 0 +0.003700050548660
668 0.002375062588472222 0.006999999874329753 -3.821370931907936e-015 4.37113882
8673789e-008 0.9999999999999991 17 55 0 310 195 319 45 50 53 0 0 -17 56 0 43 62
 50 57 61 59 0 67 +18 57 37 0 305 51 63 58 ?1 29 58 38 0 57 64 52 0.003700050620
784458 0.001550062588472226 0.006999999910391648 16 59 39 0 ?56 53 65 60 0 0 1 3
0 60 40 0 59 66 54 0 +0.003700050548660668 0.002375062588472222 0.00699999987432
9753 8.742277657347545e-008 -0.9999999999999953 4.371138828673806e-008 17 61 0 4
48 322 305 51 56 59 0 319 -17 62 0 43 68 56 63 67 65 0 73 +18 63 41 0 62 57 69 6
4 ?1 29 64 42 0 63 70 58 0.00370005062078447 0.001550062452966922 0.003899999910
39165 16 65 43 0 ?62 59 71 66 0 0 1 30 66 44 0 65 72 60 0 +0.003700050620784458
 0.001550062588472226 0.006999999910391648 3.821370931907936e-015 -4.37113882867
3789e-008 -0.9999999999999991 17 67 0 255 302 250 57 62 65 0 0 -17 68 0 43 74 62
 69 73 71 0 79 +18 69 45 0 235 63 75 70 ?1 29 70 46 0 69 76 64 0.003700050708207
246 0.0005500624529669269 0.003899999954103039 16 71 47 0 ?68 65 77 72 0 0 1 30
 72 48 0 71 78 66 0 +0.003700050548660679 0.002375062452966919 0.003899999874329
755 8.742277657347545e-008 -0.9999999999999953 4.371138828673806e-008 17 73 0 24
0 247 235 63 68 71 0 250 -17 74 0 43 80 68 75 79 77 0 83 +18 75 49 0 74 69 90 76
 ?1 29 76 50 0 75 91 70 0.003700050708207235 0.0005500625884722305 0.00699999995
4103036 16 77 51 0 ?74 71 81 78 0 0 1 30 78 52 0 77 82 72 0 +0.00370005070820723
5 0.0005500625884722305 0.006999999954103037 -3.821370931907936e-015 4.371138828
673789e-008 0.9999999999999991 17 79 0 225 232 122 69 74 77 0 0 -17 80 0 43 31 7
4 14 83 81 0 0 +16 81 53 0 ?80 77 92 82 0 0 1 30 82 54 0 81 93 78 0 +0.003700050
548660668 0.002375062588472222 0.006999999874329752 8.742277657347545e-008 -0.99
99999999999953 4.371138828673806e-008 17 83 0 88 119 13 75 80 81 0 122 -14 84 55
 86 1e-008 123 39 88 38 85 -0 0 123 39 36 50 85 56 0 84 124 40 0 +-0.00369994929
1792738 0.0005500619415436839 0.006999999954103036 3.82137095122696e-015 -4.3711
38850772177e-008 -0.9999999999999991 8.742277657347545e-008 -0.9999999999999953
 4.371138850772194e-008 81 1 86 57 32 84 0 0 125 41 87 83 3 87 1 1 1 15 88 58 0
 89 84 0 17 89 0 88 97 119 90 94 92 0 0 -18 90 59 0 350 75 95 91 ?1 29 91 60 0 9
0 96 76 0.002850050979217846 -0.002549937485837115 0.007000000089608338 16 92 61
 0 ?94 81 100 93 0 0 1 30 93 62 0 92 101 82 0 +0.002850050708207238 0.0005500625
141628703 0.006999999954103036 -8.742277657347545e-008 0.9999999999999953 -4.371
138850772194e-008 17 94 0 343 229 350 95 89 92 0 119 +18 95 63 0 226 90 98 96 ?1
 29 96 64 0 95 99 91 0.002850050708207238 0.0005500625141628703 0.00699999995410
3036 17 97 0 88 103 89 98 102 100 0 108 -18 98 65 0 97 95 104 99 ?1 29 99 66 0 9
8 105 96 -0.002849949020782134 -0.002549937984146942 0.007000000089608338 16 100
 67 0 ?102 92 106 101 0 0 1 30 101 68 0 100 107 93 0 +-0.003699949020782131 -0.0
02549938058456302 0.007000000089608339 0.9999999999999962 8.742277657347554e-008
 0 17 102 0 358 353 365 90 97 100 0 89 +17 103 0 88 109 97 104 108 106 0 114 -18
 104 69 0 384 98 110 105 ?1 29 105 70 0 104 111 99 -0.002849949291792741 0.00055
00620158530441 0.006999999954103036 16 106 71 0 ?108 100 112 107 0 0 1 30 107 72
 0 106 113 101 0 +-0.002849949291792741 0.0005500620158530441 0.0069999999541030
36 8.742277657347545e-008 -0.9999999999999953 4.371138850772194e-008 17 108 0 37
3 368 384 98 103 106 0 365 +17 109 0 88 115 103 110 114 112 0 0 +18 110 73 0 139
 104 132 111 ?1 29 111 74 0 110 133 105 -0.003699949291792738 0.0005500619415436
839 0.006999999954103036 16 112 75 0 ?109 106 116 113 0 0 1 30 113 76 0 112 117
 107 0 +-0.003699949291792738 0.0005500619415436839 0.006999999954103036 -0.9999
999999999962 -8.742277657347554e-008 0 17 114 0 392 387 139 104 109 112 0 0 -17
 115 0 88 13 109 9 118 116 0 0 -16 116 77 0 ?118 112 120 117 0 0 1 30 117 78 0 1
16 121 113 0 +-0.003699949291792738 0.0005500619415436839 0.006999999954103036 -
8.742277657347545e-008 0.9999999999999953 -4.371138850772194e-008 17 118 0 127 1
34 21 110 115 116 0 109 +17 119 0 88 89 83 95 122 120 0 0 -16 120 79 0 ?122 116
 129 121 0 0 1 30 121 80 0 120 130 117 0 +-0.003699949291792738 0.00055006194154
36839 0.006999999954103036 0.9999999999999962 8.742277657347554e-008 0 17 122 0
 225 79 226 75 119 120 0 0 +14 123 81 125 1e-008 162 84 127 38 124 -0 0 162 84 3
6 50 124 82 0 123 163 85 0 +-0.003699949451339306 0.002375061941543675 0.0069999
99874329753 0.9999999999999962 8.742277657347554e-008 0 -8.742277657347545e-008
 0.9999999999999953 -4.371138828673806e-008 81 1 125 83 32 123 0 0 164 86 126 83
 3 126 1 1 1 15 127 84 0 128 123 0 17 128 0 127 21 158 17 131 129 0 0 -16 129 85
 0 ?131 120 137 130 0 0 1 30 130 86 0 129 138 121 0 +-0.003699949451339279 0.002
375061635563958 -1.256702413243719e-010 -8.742277657347545e-008 0.99999999999999
53 -4.371138828673806e-008 17 131 0 191 192 27 132 128 129 0 158 +18 132 87 0 19
5 110 135 133 ?1 29 133 88 0 132 136 111 -0.003699949451339279 0.002375061635563
958 -1.256702413243719e-010 17 134 0 127 140 118 135 139 137 0 145 -18 135 89 0
 393 132 141 136 ?1 29 136 90 0 135 142 133 -0.003699949291792726 0.000550061806
0383802 0.003899999954103039 16 137 91 0 ?139 129 143 138 0 0 1 30 138 92 0 137
 144 130 0 +-0.003699949291792738 0.0005500619415436839 0.006999999954103037 -3.
821370931907936e-015 4.371138828673789e-008 0.9999999999999991 17 139 0 392 114
 393 110 134 137 0 118 +17 140 0 127 146 134 141 145 143 0 151 -18 141 93 0 285
 135 147 142 ?1 29 142 94 0 141 148 136 -0.003699949379215503 0.0015500618060383
75 0.00389999991039165 16 143 95 0 ?145 137 149 144 0 0 1 30 144 96 0 143 150 13
8 0 +-0.003699949451339294 0.002375061806038372 0.003899999874329755 8.742277657
347545e-008 -0.9999999999999953 4.371138828673806e-008 17 145 0 401 396 285 135
 140 143 0 0 +17 146 0 127 152 140 147 151 149 0 0 -18 147 97 0 276 141 153 148
 ?1 29 148 98 0 147 154 142 -0.003699949379215515 0.001550061941543679 0.0069999
99910391648 16 149 99 0 ?151 143 155 150 0 0 1 30 150 100 0 149 156 144 0 +-0.00
3699949379215515 0.001550061941543679 0.006999999910391648 3.821370931907936e-01
5 -4.371138828673789e-008 -0.9999999999999991 17 151 0 255 280 276 141 146 149 0
 0 +17 152 0 127 158 146 153 157 155 0 161 +18 153 101 0 328 147 168 154 ?1 29 1
54 102 0 153 169 148 -0.003699949451339305 0.002375061941543675 0.00699999987432
9753 16 155 103 0 ?152 149 159 156 0 0 1 30 156 104 0 155 160 150 0 +-0.00369994
9451339305 0.002375061941543675 0.006999999874329753 -8.742277657347545e-008 0.9
999999999999953 -4.371138828673806e-008 17 157 0 484 279 328 147 152 155 0 146 -
17 158 0 127 128 152 132 161 159 0 0 -16 159 105 0 ?161 155 170 160 0 0 1 30 160
 106 0 159 171 156 0 +-0.003699949451339305 0.002375061941543675 0.0069999998743
29753 -3.821370931907936e-015 4.371138828673789e-008 0.9999999999999991 17 161 0
 310 323 195 153 158 159 0 0 +14 162 107 164 1e-008 221 123 166 38 163 -0 0 221
 123 36 50 163 108 0 162 222 124 0 +-0.003699949451339279 0.002375061635563958 -
1.256702413243719e-010 -3.821370931907936e-015 4.371138828673789e-008 0.99999999
99999991 -8.742277657347545e-008 0.9999999999999953 -4.371138828673806e-008 81 1
 164 109 32 162 0 0 223 125 165 83 3 165 1 1 1 15 166 110 0 167 162 191 17 167 0
 166 175 187 168 172 170 0 180 +18 168 111 0 551 153 173 169 ?1 29 169 112 0 168
 174 154 0.001570050728314508 0.0003200620962819994 -3.58433383951252e-011 16 17
0 113 0 ?167 159 178 171 0 0 1 30 171 114 0 170 179 160 0 +0.001570050728314508
 0.0003200620962819994 -3.58433383951252e-011 -8.742277657347545e-008 0.99999999
99999953 -4.371138828673806e-008 17 172 0 544 422 551 173 167 170 0 0 -18 173 11
5 0 187 168 176 174 ?1 29 174 116 0 173 177 169 0.001570050784265085 -0.00031993
79037179977 -7.868049891612844e-012 17 175 0 166 181 167 176 180 178 0 0 +18 176
 117 0 186 173 182 177 ?1 29 177 118 0 176 183 174 0.0009300507283145096 0.00032
00620403314224 -3.58433383951252e-011 16 178 119 0 ?175 170 184 179 0 0 1 30 179
 120 0 178 185 171 0 +0.001570050728314508 0.0003200620962819994 -3.584333839512
52e-011 -0.9999999999999962 -8.742277674288213e-008 7.404997209818562e-024 17 18
0 0 664 554 565 168 175 178 0 0 -17 181 0 166 187 175 182 186 184 0 412 +18 182
 121 0 181 176 198 183 ?1 29 183 122 0 182 199 177 0.0009300507842650873 -0.0003
199379596685747 -7.868049891612849e-012 16 184 123 0 ?181 178 188 185 0 0 1 30 1
85 124 0 184 189 179 0 +0.00093005072831451 0.0003200620403314223 -3.58433383951
252e-011 8.742277725110181e-008 -0.9999999999999953 4.371138828673806e-008 17 18
6 0 559 560 412 176 181 184 0 565 -17 187 0 166 167 181 173 190 188 0 419 -16 18
8 125 0 ?190 184 193 189 0 0 1 30 189 126 0 188 194 185 0 +-0.003699949215734896
 -0.0003199383644360301 -7.868049891612852e-012 -0.9999999999999962 -8.742277657
347554e-008 0 17 190 0 406 407 419 182 187 188 0 0 +15 191 127 0 27 162 196 17 1
92 0 191 49 131 45 195 193 0 44 -16 193 128 0 ?195 188 200 194 0 0 1 30 194 129
 0 193 201 189 0 +-0.003699949451339279 0.002375061635563958 -1.256702413243719e
-010 -0.9999999999999962 -8.742277657347554e-008 0 17 195 0 310 161 55 132 192 1
93 0 131 +15 196 130 0 197 162 0 17 197 0 196 205 217 198 202 200 0 210 +18 198
 131 0 197 182 203 199 ?1 29 199 132 0 198 204 183 -0.0009299492716854826 0.0003
20061877725058 -3.58433383951252e-011 16 200 133 0 ?197 193 208 201 0 0 1 30 201
 134 0 200 209 194 0 +-0.0009299492716854826 0.000320061877725058 -3.58433383951
252e-011 -8.742277657347545e-008 0.9999999999999953 -4.371138828673806e-008 17 2
02 0 583 443 590 203 197 200 0 217 -18 203 135 0 440 198 206 204 ?1 29 204 136 0
 203 207 199 -0.0009299492157349055 -0.0003199381222749391 -7.868049891612844e-0
12 17 205 0 196 211 197 206 210 208 0 216 +18 206 137 0 205 203 212 207 ?1 29 20
7 138 0 206 213 204 -0.001569949271685481 0.0003200618217744809 -3.5843338395125
2e-011 16 208 139 0 ?205 200 214 209 0 0 1 30 209 140 0 208 215 201 0 +-0.000929
9492716854826 0.000320061877725058 -3.58433383951252e-011 -0.9999999999999962 -8
.742277674288213e-008 7.404997209818562e-024 17 210 0 669 593 604 198 205 208 0
 590 -17 211 0 196 217 205 212 216 214 0 220 +18 212 141 0 433 206 230 213 ?1 29
 213 142 0 212 231 207 -0.001569949215734903 -0.0003199381782255161 -7.868049891
612849e-012 16 214 143 0 ?211 208 218 215 0 0 1 30 215 144 0 214 219 209 0 +-0.0
01569949271685481 0.0003200618217744808 -3.58433383951252e-011 8.742277725110181
e-008 -0.9999999999999953 4.371138828673806e-008 17 216 0 598 599 433 206 211 21
4 0 604 -17 217 0 196 197 211 203 220 218 0 0 -16 218 145 0 ?220 214 227 219 0 0
 1 30 219 146 0 218 228 215 0 +-0.003699949215734896 -0.0003199383644360301 -7.8
68049891612852e-012 -0.9999999999999962 -8.742277657347554e-008 0 17 220 0 427 4
28 440 212 217 218 0 0 +14 221 147 223 1e-008 236 162 225 38 222 -0 0 236 162 36
 50 222 148 0 221 237 163 0 +-0.003699949291792727 0.0005500618060383802 0.00389
9999954103039 8.742277657347545e-008 -0.9999999999999953 4.371138828673806e-008
 0.9999999999999962 8.742277657347554e-008 0 81 1 223 149 32 221 0 0 238 164 224
 83 3 224 1 1 1 15 225 150 0 226 221 0 17 226 0 225 122 232 95 229 227 0 94 -16
 227 151 0 ?229 218 233 228 0 0 1 30 228 152 0 227 234 219 0 +0.0028500507082072
49 0.0005500623786575667 0.003899999954103039 3.821370931907936e-015 -4.37113882
8673789e-008 -0.9999999999999991 17 229 0 343 244 94 230 226 227 0 232 +18 230 1
53 0 229 212 245 231 ?1 29 231 154 0 230 246 213 0.002850050708207249 0.00055006
23786575667 0.003899999954103039 17 232 0 225 226 79 230 235 233 0 241 -16 233 1
55 0 ?235 227 242 234 0 0 1 30 234 156 0 233 243 228 0 +-0.003699949291792726 0.
0005500618060383802 0.003899999954103039 0.9999999999999962 8.742277657347554e-0
08 0 17 235 0 240 73 241 69 232 233 0 68 +14 236 157 238 1e-008 251 221 240 38 2
37 -0 0 251 221 36 50 237 158 0 236 252 222 0 +-0.003699949379215503 0.001550061
806038375 0.00389999991039165 3.821370969821522e-015 -4.371138872041876e-008 -0.
9999999999999991 8.742277657347545e-008 -0.9999999999999953 4.371138872041892e-0
08 81 1 238 159 32 236 0 0 253 223 239 83 3 239 1 1 1 15 240 160 0 241 236 0 17
 241 0 240 235 247 230 244 242 0 0 -16 242 161 0 ?244 233 248 243 0 0 1 30 243 1
62 0 242 249 234 0 +0.002850050620784473 0.001550062378657562 0.0038999999103916
5 -8.742277657347545e-008 0.9999999999999953 -4.371138872041892e-008 17 244 0 34
3 301 229 245 241 242 0 247 +18 245 163 0 298 230 257 246 ?1 29 246 164 0 245 25
8 231 0.002850050620784473 0.001550062378657562 0.00389999991039165 17 247 0 240
 241 73 245 250 248 0 0 -16 248 165 0 ?250 242 259 249 0 0 1 30 249 166 0 248 26
0 243 0 +-0.003699949379215503 0.001550061806038375 0.00389999991039165 0.999999
9999999962 8.742277657347554e-008 0 17 250 0 255 67 298 63 247 248 0 0 +14 251 1
67 253 1e-008 306 236 255 38 252 -0 0 306 236 36 50 252 168 0 251 307 237 0 +-0.
003699949379215515 0.001550061941543679 0.006999999910391648 -8.742277657347545e
-008 0.9999999999999953 -4.371138835668659e-008 3.82137093802303e-015 -4.3711388
35668642e-008 -0.9999999999999991 81 1 253 169 32 251 0 0 308 238 254 83 3 254 1
 1 1 15 255 170 0 256 251 0 17 256 0 255 264 302 257 261 259 0 0 -18 257 171 0 4
58 245 262 258 ?1 29 258 172 0 257 263 246 0.00175005062078448 0.001550062256265
675 0.003299999910391651 16 259 173 0 ?261 248 267 260 0 0 1 30 260 174 0 259 26
8 249 0 +0.001750050620784466 0.001550062417997812 0.006999999910391648 -3.82137
093802303e-015 4.371138835668642e-008 0.9999999999999991 17 261 0 457 452 458 26
2 256 259 0 0 +18 262 175 0 302 257 265 263 ?1 29 263 176 0 262 266 258 0.001750
050620784466 0.001550062417997812 0.006999999910391648 17 264 0 255 270 256 265
 269 267 0 0 -18 265 177 0 275 262 271 266 ?1 29 266 178 0 265 272 263 -0.001749
949379215507 0.001550061950285956 0.003299999910391651 16 267 179 0 ?269 259 273
 268 0 0 1 30 268 180 0 267 274 260 0 +-0.003699949379215501 0.00155006177981154
2 0.003299999910391651 0.9999999999999962 8.742277657347554e-008 0 17 269 0 466
 461 467 257 264 267 0 256 +17 270 0 255 276 264 271 275 273 0 279 -18 271 181 0
 270 265 281 272 ?1 29 272 182 0 271 282 266 -0.001749949379215521 0.00155006211
2018093 0.006999999910391648 16 273 183 0 ?275 267 277 274 0 0 1 30 274 184 0 27
3 278 268 0 +-0.001749949379215521 0.001550062112018093 0.006999999910391648 3.8
2137093802303e-015 -4.371138835668642e-008 -0.9999999999999991 17 275 0 475 470
 476 265 270 273 0 467 +17 276 0 255 151 270 147 279 277 0 157 -16 277 185 0 ?27
9 273 283 278 0 0 1 30 278 186 0 277 284 274 0 +-0.003699949379215515 0.00155006
1941543679 0.006999999910391648 0.9999999999999962 8.742277657347554e-008 0 17 2
79 0 484 479 157 271 276 277 0 476 +17 280 0 255 286 151 281 285 283 0 0 -18 281
 187 0 383 271 287 282 ?1 29 282 188 0 281 288 272 -0.002849949379215506 0.00155
0061880347735 0.00389999991039165 16 283 189 0 ?285 277 289 284 0 0 1 30 284 190
 0 283 290 278 0 +-0.003699949379215503 0.001550061806038375 0.00389999991039165
 -0.9999999999999962 -8.742277657347554e-008 0 17 285 0 401 145 383 141 280 283
 0 140 +17 286 0 255 292 280 287 291 289 0 374 -18 287 191 0 286 281 293 288 ?1
 29 288 192 0 287 294 282 -0.0028499493792155 0.001550061810409513 0.00229999991
0391651 16 289 193 0 ?291 283 295 290 0 0 1 30 290 194 0 289 296 284 0 +-0.00284
9949379215518 0.001550062015853039 0.006999999910391648 -3.82137093802303e-015 4
.371138835668642e-008 0.9999999999999991 17 291 0 373 378 374 281 286 289 0 280
 +17 292 0 255 298 286 293 297 295 0 301 -18 293 195 0 292 287 312 294 ?1 29 294
 196 0 293 313 288 0.002850050620784479 0.00155006230871934 0.002299999910391651
 16 295 197 0 ?297 289 299 296 0 0 1 30 296 198 0 295 300 290 0 +-0.003699949379
215497 0.001550061736100154 0.002299999910391651 -0.9999999999999962 -8.74227765
7347554e-008 0 17 297 0 514 377 349 287 292 295 0 0 +17 298 0 255 250 292 245 30
1 299 0 244 -16 299 199 0 ?301 295 303 300 0 0 1 30 300 200 0 299 304 296 0 +0.0
02850050620784461 0.001550062514162866 0.006999999910391648 3.82137093802303e-01
5 -4.371138835668642e-008 -0.9999999999999991 17 301 0 343 344 244 293 298 299 0
 349 +17 302 0 255 256 67 262 305 303 0 449 -16 303 201 0 ?305 299 314 304 0 0 1
 30 304 202 0 303 315 300 0 +-0.003699949379215515 0.001550061941543679 0.006999
999910391648 0.9999999999999962 8.742277657347554e-008 0 17 305 0 448 61 449 57
 302 303 0 56 +14 306 203 308 1e-008 339 251 310 38 307 -0 0 339 251 36 50 307 2
04 0 306 340 252 0 +-0.003699949451339279 0.002375061635563958 -1.25670241324371
9e-010 8.742277657347545e-008 -0.9999999999999953 4.371138828673806e-008 0.99999
99999999962 8.742277657347554e-008 0 81 1 308 205 32 306 0 0 341 253 309 83 3 30
9 1 1 1 15 310 206 0 311 306 0 17 311 0 310 319 335 312 316 314 0 452 -18 312 20
7 0 311 293 317 313 ?1 29 313 208 0 312 318 294 0.001750050548660675 0.002375062
417997808 0.006999999874329753 16 314 209 0 ?316 303 320 315 0 0 1 30 315 210 0
 314 321 304 0 +0.001750050548660702 0.00237506211201809 -1.256702413243719e-010
 3.821370931907936e-015 -4.371138828673789e-008 -0.9999999999999991 17 316 0 457
 458 452 317 311 314 0 461 +18 317 211 0 316 312 324 318 ?1 29 318 212 0 317 325
 313 0.00175005054866069 0.002375062256265671 0.003299999874329755 17 319 0 310
 55 311 51 322 320 0 0 -16 320 213 0 ?322 314 326 321 0 0 1 30 321 214 0 320 327
 315 0 +-0.003699949451339305 0.002375061941543675 0.006999999874329753 -0.99999
99999999962 -8.742277657347554e-008 0 17 322 0 448 449 61 312 319 320 0 0 +17 32
3 0 310 329 161 324 328 326 0 334 -18 324 215 0 479 317 330 325 ?1 29 325 216 0
 324 331 318 -0.001749949451339312 0.00237506211201809 0.006999999874329753 16 3
26 217 0 ?328 320 332 327 0 0 1 30 327 218 0 326 333 321 0 +-0.00369994945133930
5 0.002375061941543675 0.006999999874329753 -0.9999999999999962 -8.7422776573475
54e-008 0 17 328 0 484 157 479 153 323 326 0 152 +17 329 0 310 335 323 330 334 3
32 0 0 -18 330 219 0 470 324 345 331 ?1 29 331 220 0 330 346 325 -0.001749949451
339298 0.002375061950285953 0.003299999874329755 16 332 221 0 ?334 326 336 333 0
 0 1 30 333 222 0 332 337 327 0 +-0.001749949451339285 0.002375061806038372 -1.2
56702413243719e-010 -3.821370931907936e-015 4.371138828673789e-008 0.99999999999
99991 17 334 0 475 476 470 324 329 332 0 0 +17 335 0 310 311 329 317 338 336 0 0
 -16 336 223 0 ?338 332 347 337 0 0 1 30 337 224 0 336 348 333 0 +-0.00369994945
1339291 0.002375061779811539 0.003299999874329755 -0.9999999999999962 -8.7422776
57347554e-008 0 17 338 0 466 467 461 330 335 336 0 329 +14 339 225 341 1e-008 35
4 306 343 38 340 -0 0 354 306 36 50 340 226 0 339 355 307 0 +0.00285005062078447
9 0.00155006230871934 0.002299999910391651 0.9999999999999962 8.742277667925136e
-008 -4.623608013935496e-024 -8.742277667925127e-008 0.9999999999999953 -4.37113
8828673806e-008 81 1 341 227 32 339 0 0 356 308 342 83 3 342 1 1 1 15 343 228 0
 301 339 0 17 344 0 343 350 301 345 349 347 0 0 -18 345 229 0 353 330 360 346 ?1
 29 346 230 0 345 361 331 0.002850050979217863 -0.00254993769128064 0.0023000000
89608343 16 347 231 0 ?349 336 351 348 0 0 1 30 348 232 0 347 352 337 0 +0.00285
0050620784479 0.00155006230871934 0.002299999910391651 -8.742277667925127e-008 0
.9999999999999953 -4.371138828673806e-008 17 349 0 514 297 364 293 344 347 0 0 +
17 350 0 343 94 344 90 353 351 0 102 -16 351 233 0 ?353 347 362 352 0 0 1 30 352
 234 0 351 363 348 0 +0.002850050979217864 -0.00254993769128064 0.00230000008960
8343 3.821370931907936e-015 -4.371138828673789e-008 -0.9999999999999991 17 353 0
 358 359 102 345 350 351 0 364 +14 354 235 356 1e-008 369 339 358 38 355 -0 0 36
9 339 36 50 355 236 0 354 370 340 0 +0.002850050979217864 -0.00254993769128064 0
.002300000089608343 8.742277672564418e-008 -0.9999999999999953 4.371138828673806
e-008 0.9999999999999962 8.742277672564427e-008 -6.651506265661589e-024 81 1 356
 237 32 354 0 0 371 341 357 83 3 357 1 1 1 15 358 238 0 353 354 0 17 359 0 358 3
65 353 360 364 362 0 368 -18 360 239 0 377 345 379 361 ?1 29 361 240 0 360 380 3
46 -0.002849949020782116 -0.002549938189590467 0.002300000089608343 16 362 241 0
 ?364 351 366 363 0 0 1 30 363 242 0 362 367 352 0 +0.002850050979217864 -0.0025
4993769128064 0.002300000089608343 0.9999999999999962 8.742277672564427e-008 -6.
651506265661589e-024 17 364 0 514 349 377 345 359 362 0 344 +17 365 0 358 102 35
9 98 368 366 0 0 -16 366 243 0 ?368 362 375 367 0 0 1 30 367 244 0 366 376 363 0
 +-0.002849949020782116 -0.002549938189590467 0.002300000089608343 3.82137093190
7936e-015 -4.371138828673789e-008 -0.9999999999999991 17 368 0 373 374 108 360 3
65 366 0 0 +14 369 245 371 1e-008 388 354 373 38 370 -0 0 388 354 36 50 370 246
 0 369 389 355 0 +-0.0028499493792155 0.001550061810409513 0.002299999910391651
 -0.9999999999999962 -8.742277667925136e-008 4.623608013935496e-024 8.7422776679
25127e-008 -0.9999999999999953 4.371138828673806e-008 81 1 371 247 32 369 0 0 39
0 356 372 83 3 372 1 1 1 15 373 248 0 368 369 0 17 374 0 373 291 368 287 377 375
 0 297 -16 375 249 0 ?377 366 381 376 0 0 1 30 376 250 0 375 382 367 0 +-0.00284
99493792155 0.001550061810409513 0.002299999910391651 8.742277667925127e-008 -0.
9999999999999953 4.371138828673806e-008 17 377 0 514 364 297 360 374 375 0 359 +
17 378 0 373 384 291 379 383 381 0 396 -18 379 251 0 378 360 408 380 ?1 29 380 2
52 0 379 409 361 -0.00284994929179273 0.0005500618803477402 0.003899999954103039
 16 381 253 0 ?383 375 385 382 0 0 1 30 382 254 0 381 386 376 0 +-0.002849949379
215506 0.001550061880347734 0.00389999991039165 -8.742277667925127e-008 0.999999
9999999953 -4.371138828673806e-008 17 383 0 401 285 396 281 378 381 0 291 +17 38
4 0 373 108 378 104 387 385 0 103 -16 385 255 0 ?387 381 394 386 0 0 1 30 386 25
6 0 385 395 382 0 +-0.002849949291792723 0.0005500618104095189 0.002299999954103
039 3.821370931907936e-015 -4.371138828673789e-008 -0.9999999999999991 17 387 0
 392 393 114 379 384 385 0 0 +14 388 257 390 1e-008 397 369 392 38 389 -0 0 397
 369 36 50 389 258 0 388 398 370 0 +-0.003699949291792727 0.0005500618060383802
 0.003899999954103039 8.742277657347545e-008 -0.9999999999999953 4.3711388286738
06e-008 0.9999999999999962 8.742277657347554e-008 0 81 1 390 259 32 388 0 0 399
 371 391 83 3 391 1 1 1 15 392 260 0 387 388 0 17 393 0 392 139 387 135 396 394
 0 134 -16 394 261 0 ?396 385 410 395 0 0 1 30 395 262 0 394 411 386 0 +-0.00369
9949291792726 0.0005500618060383802 0.003899999954103039 0.9999999999999962 8.74
2277657347554e-008 0 17 396 0 401 383 145 379 393 394 0 387 +14 397 263 399 1e-0
08 402 388 401 38 398 -0 0 402 388 36 50 398 264 0 397 403 389 0 +-0.00369994937
9215503 0.001550061806038375 0.00389999991039165 3.821370969821522e-015 -4.37113
8872041876e-008 -0.9999999999999991 8.742277657347545e-008 -0.9999999999999953 4
.371138872041892e-008 81 1 399 265 32 397 0 0 404 390 400 83 3 400 1 1 1 15 401
 266 0 383 397 0 14 402 267 404 1e-008 423 397 406 38 403 -0 0 423 397 36 50 403
 268 0 402 424 398 0 +0.001570050784265056 -0.000319937566917525 0.0077050966720
50727 -8.742277665817874e-008 0.9999999999999953 -4.371138828673806e-008 -0.9999
999999999962 -8.742277665817884e-008 3.702498604909285e-024 81 1 404 269 32 402
 0 0 425 399 405 83 3 405 0.8274509906768799 0.8392156958580017 0.82745099067687
99 15 406 270 0 190 402 0 17 407 0 406 413 190 408 412 410 0 418 -18 408 271 0 4
07 379 414 409 ?1 29 409 272 0 408 415 380 0.0009300507842651003 -0.000319938108
2872949 -0.003400000007868048 16 410 273 0 ?412 394 416 411 0 0 1 30 411 274 0 4
10 417 395 0 +0.0009300507842650579 -0.000319937622868102 0.007705096672050727 -
3.821370931907936e-015 4.371138828673789e-008 0.9999999999999991 17 412 0 559 18
6 566 182 407 410 0 190 +17 413 0 406 419 407 414 418 416 0 0 -18 414 275 0 550
 408 429 415 ?1 29 415 276 0 414 430 409 0.001570050784265098 -0.000319938052336
7179 -0.003400000007868048 16 416 277 0 ?418 410 420 417 0 0 1 30 417 278 0 416
 421 411 0 +0.001570050784265098 -0.0003199380523367179 -0.003400000007868048 -0
.9999999999999962 -8.742277665817884e-008 3.702498604909285e-024 17 418 0 574 56
9 550 408 413 416 0 566 +17 419 0 406 190 413 173 422 420 0 172 -16 420 279 0 ?4
22 416 431 421 0 0 1 30 421 280 0 420 432 417 0 +0.001570050784265056 -0.0003199
375669175249 0.007705096672050727 3.821370931907936e-015 -4.371138828673789e-008
 -0.9999999999999991 17 422 0 544 545 172 414 419 420 0 413 +14 423 281 425 1e-0
08 444 402 427 38 424 -0 0 444 402 36 50 424 282 0 423 445 403 0 +-0.00092994921
57349349 -0.0003199377854744664 0.007705096672050727 -8.742277665817874e-008 0.9
999999999999953 -4.371138828673806e-008 -0.9999999999999962 -8.742277665817884e-
008 3.702498604909285e-024 81 1 425 283 32 423 0 0 446 404 426 83 3 426 0.827450
9906768799 0.8392156958580017 0.8274509906768799 15 427 284 0 220 423 0 17 428 0
 427 434 220 429 433 431 0 439 -18 429 285 0 428 414 435 430 ?1 29 430 286 0 429
 436 415 -0.00156994921573489 -0.0003199383268442363 -0.003400000007868048 16 43
1 287 0 ?433 420 437 432 0 0 1 30 432 288 0 431 438 421 0 +-0.001569949215734933
 -0.0003199378414250434 0.007705096672050727 -3.821370931907936e-015 4.371138828
673789e-008 0.9999999999999991 17 433 0 598 216 605 212 428 431 0 211 +17 434 0
 427 440 428 435 439 437 0 589 -18 435 289 0 443 429 491 436 ?1 29 436 290 0 435
 492 430 -0.0009299492157348925 -0.0003199382708936594 -0.003400000007868048 16
 437 291 0 ?439 431 441 438 0 0 1 30 438 292 0 437 442 432 0 +-0.000929949215734
8925 -0.0003199382708936594 -0.003400000007868048 -0.9999999999999962 -8.7422776
65817884e-008 3.702498604909285e-024 17 439 0 613 608 589 429 434 437 0 605 +17
 440 0 427 220 434 203 443 441 0 202 -16 441 293 0 ?443 437 450 442 0 0 1 30 442
 294 0 441 451 438 0 +-0.0009299492157349349 -0.0003199377854744664 0.0077050966
72050727 3.821370931907936e-015 -4.371138828673789e-008 -0.9999999999999991 17 4
43 0 583 584 202 435 440 441 0 434 +14 444 295 446 1e-008 453 423 448 38 445 -0
 0 453 423 36 50 445 296 0 444 454 424 0 +-0.003699949451339306 0.00237506194154
3675 0.006999999874329753 3.821370931907936e-015 -4.371138828673789e-008 -0.9999
999999999991 8.742277657347545e-008 -0.9999999999999953 4.371138828673806e-008 8
1 1 446 297 32 444 0 0 455 425 447 83 3 447 1 1 1 15 448 298 0 449 444 0 17 449
 0 448 305 322 262 452 450 0 261 -16 450 299 0 ?452 441 459 451 0 0 1 30 451 300
 0 450 460 442 0 +0.001750050548660675 0.002375062417997808 0.006999999874329753
 -8.742277657347545e-008 0.9999999999999953 -4.371138828673806e-008 17 452 0 457
 316 261 312 449 450 0 322 +14 453 301 455 1e-008 462 444 457 38 454 -0 0 462 44
4 36 50 454 302 0 453 463 445 0 +0.001750051066040262 -0.003543070213300903 0.00
7000000133019546 0.9999999999999962 8.742277657347554e-008 -5.860552283705424e-0
17 3.762765409070881e-015 -4.37113882867379e-008 -0.9999999999999991 81 1 455 30
3 32 453 0 0 464 446 456 83 3 456 1 1 1 15 457 304 0 452 453 0 17 458 0 457 261
 316 257 461 459 0 269 -16 459 305 0 ?461 450 468 460 0 0 1 30 460 306 0 459 469
 451 0 +0.001750051066040276 -0.00354307037503304 0.003300000133019549 -8.742277
657347545e-008 0.9999999999999953 -4.371138828673806e-008 17 461 0 466 338 269 3
17 458 459 0 335 +14 462 307 464 1e-008 471 453 466 38 463 -0 0 471 453 36 50 46
3 308 0 462 472 454 0 +0.001750051066040276 -0.00354307037503304 0.0033000001330
19549 3.697462112195307e-015 -4.37113882867379e-008 -0.9999999999999991 -0.99999
99999999962 -8.742277657347554e-008 1.23908819712629e-016 81 1 464 309 32 462 0
 0 473 455 465 83 3 465 1 1 1 15 466 310 0 461 462 0 17 467 0 466 269 338 265 47
0 468 0 264 -16 468 311 0 ?470 459 477 469 0 0 1 30 469 312 0 468 478 460 0 +-0.
001749948933959711 -0.003543070681012758 0.003300000133019549 -8.742277657347545
e-008 0.9999999999999953 -4.371138828673806e-008 17 470 0 475 334 275 330 467 46
8 0 338 +14 471 313 473 1e-008 480 462 475 38 472 -0 0 480 462 36 50 472 314 0 4
71 481 463 0 +-0.001749948933959725 -0.003543070519280621 0.007000000133019546 -
0.9999999999999962 -8.742277657347553e-008 1.758165685111628e-016 -3.64555436339
6774e-015 4.37113882867379e-008 0.9999999999999991 81 1 473 315 32 471 0 0 482 4
64 474 83 3 474 1 1 1 15 475 316 0 470 471 0 17 476 0 475 275 334 271 479 477 0
 0 -16 477 317 0 ?479 468 493 478 0 0 1 30 478 318 0 477 494 469 0 +-0.001749948
933959725 -0.003543070519280621 0.007000000133019545 -8.742277657347545e-008 0.9
999999999999953 -4.371138828673806e-008 17 479 0 484 328 279 324 476 477 0 323 +
14 480 319 482 1e-008 485 471 484 38 481 -0 0 485 471 36 50 481 320 0 480 486 47
2 0 +-0.003699949451339306 0.002375061941543675 0.006999999874329753 3.821370931
907936e-015 -4.371138828673789e-008 -0.9999999999999991 8.742277657347545e-008 -
0.9999999999999953 4.371138828673806e-008 81 1 482 321 32 480 0 0 487 473 483 83
 3 483 1 1 1 15 484 322 0 479 480 0 14 485 323 487 1e-008 540 480 489 38 486 -0
 0 540 480 36 50 486 324 0 485 541 481 0 +0.002850050979217864 -0.00254993769128
064 0.002300000089608343 3.821370931907936e-015 -4.371138828673789e-008 -0.99999
99999999991 8.742277657347545e-008 -0.9999999999999953 4.371138828673806e-008 81
 1 487 325 32 485 0 0 542 482 488 83 3 488 1 1 1 15 489 326 0 490 485 514 17 490
 0 489 498 510 491 495 493 0 681 +18 491 327 0 503 435 496 492 ?1 29 492 328 0 4
91 497 436 0.0009300507283145011 0.0003200621408676153 0.002299999964156658 16 4
93 329 0 ?490 477 501 494 0 0 1 30 494 330 0 493 502 478 0 +0.000930050728314501
2 0.0003200621408676153 0.002299999964156658 -8.742277725110181e-008 0.999999999
9999953 -4.371138828673806e-008 17 495 0 674 638 681 496 490 493 0 635 -18 496 3
31 0 510 491 499 497 ?1 29 497 332 0 496 500 492 0.0009300507842650785 -0.000319
9378591323818 0.002299999992131947 17 498 0 489 504 490 499 503 501 0 509 +18 49
9 333 0 498 496 505 500 ?1 29 500 334 0 499 506 497 0.001570050728314499 0.00032
00621968181925 0.002299999964156658 16 501 335 0 ?498 493 507 502 0 0 1 30 502 3
36 0 501 508 494 0 +0.001570050728314499 0.0003200621968181925 0.002299999964156
658 0.9999999999999962 8.742277674288213e-008 -7.404997209818562e-024 17 503 0 7
52 684 695 491 498 501 0 490 -17 504 0 489 510 498 505 509 507 0 513 +18 505 337
 0 504 499 517 506 ?1 29 506 338 0 505 518 500 0.001570050784265076 -0.000319937
8031818047 0.002299999992131947 16 507 339 0 ?504 501 511 508 0 0 1 30 508 340 0
 507 512 502 0 +0.001570050728314499 0.0003200621968181925 0.002299999964156658
 8.742277657347545e-008 -0.9999999999999953 4.371138828673806e-008 17 509 0 689
 690 628 499 504 507 0 695 -17 510 0 489 490 504 496 513 511 0 495 -16 511 341 0
 ?513 507 519 512 0 0 1 30 512 342 0 511 520 508 0 +0.002850050784265072 -0.0003
199376912806509 0.002299999992131947 0.9999999999999962 8.742277657347554e-008 0
 17 513 0 622 623 635 505 510 511 0 628 +15 514 343 0 297 485 515 15 515 344 0 5
16 485 0 17 516 0 515 524 536 517 521 519 0 529 +18 517 345 0 516 505 522 518 ?1
 29 518 346 0 517 523 506 -0.001569949271685489 0.0003200619223106739 0.00229999
9964156658 16 519 347 0 ?516 511 527 520 0 0 1 30 520 348 0 519 528 512 0 +-0.00
156994927168549 0.0003200619223106739 0.002299999964156658 -8.742277725110181e-0
08 0.9999999999999953 -4.371138828673806e-008 17 521 0 713 659 720 522 516 519 0
 536 -18 522 349 0 521 517 525 523 ?1 29 523 350 0 522 526 518 -0.00156994921573
4912 -0.0003199380776893232 0.002299999992131947 17 524 0 515 530 516 525 529 52
7 0 535 +18 525 351 0 524 522 531 526 ?1 29 526 352 0 525 532 523 -0.00092994927
16854914 0.000320061978261251 0.002299999964156658 16 527 353 0 ?524 519 533 528
 0 0 1 30 528 354 0 527 534 520 0 +-0.0009299492716854914 0.000320061978261251 0
.002299999964156658 0.9999999999999962 8.742277674288213e-008 -7.404997209818562
e-024 17 529 0 757 723 734 517 524 527 0 720 -17 530 0 515 536 524 531 535 533 0
 539 +18 531 355 0 649 525 546 532 ?1 29 532 356 0 531 547 526 -0.00092994921573
49143 -0.0003199380217387461 0.002299999992131947 16 533 357 0 ?530 527 537 534
 0 0 1 30 534 358 0 533 538 528 0 +-0.0009299492716854914 0.000320061978261251 0
.002299999964156658 8.742277657347545e-008 -0.9999999999999953 4.371138828673806
e-008 17 535 0 728 729 649 525 530 533 0 734 -17 536 0 515 516 530 522 539 537 0
 656 -16 537 359 0 ?539 533 548 538 0 0 1 30 538 360 0 537 549 534 0 +0.00285005
0784265072 -0.0003199376912806509 0.002299999992131947 0.9999999999999962 8.7422
77657347554e-008 0 17 539 0 643 644 656 531 536 537 0 0 +14 540 361 542 1e-008 5
55 485 544 38 541 -0 0 555 485 36 50 541 362 0 540 556 486 0 +0.0015700507283144
79 0.0003200624330824722 0.007705096644075439 -0.9999999999999962 -8.74227765734
7554e-008 0 8.742277657347545e-008 -0.9999999999999953 4.371138828673806e-008 81
 1 542 363 32 540 0 0 557 487 543 83 3 543 0.8274509906768799 0.8392156958580017
 0.8274509906768799 15 544 364 0 172 540 0 17 545 0 544 551 422 546 550 548 0 55
4 -18 546 365 0 545 531 561 547 ?1 29 547 366 0 546 562 532 0.001570050728314521
 0.0003200619476632791 -0.003400000035843336 16 548 367 0 ?550 537 552 549 0 0 1
 30 549 368 0 548 553 538 0 +0.001570050728314521 0.0003200619476632792 -0.00340
0000035843336 8.742277657347545e-008 -0.9999999999999953 4.371138828673806e-008
 17 550 0 574 418 575 414 545 548 0 422 +17 551 0 544 172 545 168 554 552 0 167
 -16 552 369 0 ?554 548 563 553 0 0 1 30 553 370 0 552 564 549 0 +0.001570050728
314479 0.0003200624330824722 0.007705096644075439 3.821370931907936e-015 -4.3711
38828673789e-008 -0.9999999999999991 17 554 0 664 578 180 546 551 552 0 575 +14
 555 371 557 1e-008 570 540 559 38 556 -0 0 570 540 36 50 556 372 0 555 571 541
 0 +0.0009300507283144805 0.0003200623771318951 0.007705096644075439 0.999999999
9999962 8.74227772511019e-008 -2.961998883927427e-023 -8.742277725110181e-008 0.
9999999999999953 -4.371138828673806e-008 81 1 557 373 32 555 0 0 572 542 558 83
 3 558 0.8274509906768799 0.8392156958580017 0.8274509906768799 15 559 374 0 186
 555 0 17 560 0 559 566 186 561 565 563 0 569 -18 561 375 0 560 546 585 562 ?1 2
9 562 376 0 561 586 547 0.0009300507283145229 0.0003200618917127021 -0.003400000
035843336 16 563 377 0 ?565 552 567 564 0 0 1 30 564 378 0 563 568 553 0 +0.0009
300507283144805 0.0003200623771318951 0.007705096644075439 -3.821370931907936e-0
15 4.371138828673789e-008 0.9999999999999991 17 565 0 664 180 578 176 560 563 0
 175 +17 566 0 559 412 560 408 569 567 0 0 -16 567 379 0 ?569 563 576 568 0 0 1
 30 568 380 0 567 577 564 0 +0.0009300507283145229 0.0003200618917127022 -0.0034
00000035843336 -8.742277725110181e-008 0.9999999999999953 -4.371138828673806e-00
8 17 569 0 574 575 418 561 566 567 0 578 +14 570 381 572 1e-008 579 555 574 38 5
71 +0 0 579 555 36 50 571 382 0 570 580 556 0 +0.001570050784265098 -0.000319938
0523367179 -0.003400000007868048 3.821370931907936e-015 -4.371138828673789e-008
 -0.9999999999999991 8.742277657347545e-008 -0.9999999999999953 4.37113882867380
6e-008 81 1 572 383 32 570 0 0 581 557 573 83 3 573 0.8274509906768799 0.8392156
958580017 0.8274509906768799 15 574 384 0 569 570 0 17 575 0 574 550 569 546 578
 576 0 0 +16 576 385 0 ?575 567 587 577 0 0 1 30 577 386 0 576 588 568 0 +0.0015
70050728314521 0.000320061947663279 -0.003400000035843336 0.9999999999999962 8.7
42277657347554e-008 0 17 578 0 664 565 554 561 575 576 0 0 -14 579 387 581 1e-00
8 594 570 583 38 580 -0 0 594 570 36 50 580 388 0 579 595 571 0 +-0.000929949271
685512 0.0003200622145255307 0.007705096644075439 -0.9999999999999962 -8.7422776
57347554e-008 0 8.742277657347545e-008 -0.9999999999999953 4.371138828673806e-00
8 81 1 581 389 32 579 0 0 596 572 582 83 3 582 0.8274509906768799 0.839215695858
0017 0.8274509906768799 15 583 390 0 202 579 0 17 584 0 583 590 443 585 589 587
 0 0 -18 585 391 0 593 561 600 586 ?1 29 586 392 0 585 601 562 -0.00092994927168
54696 0.0003200617291063377 -0.003400000035843336 16 587 393 0 ?589 576 591 588
 0 0 1 30 588 394 0 587 592 577 0 +-0.0009299492716854696 0.0003200617291063378
 -0.003400000035843336 8.742277657347545e-008 -0.9999999999999953 4.371138828673
806e-008 17 589 0 613 439 614 435 584 587 0 0 +17 590 0 583 202 584 198 593 591
 0 0 -16 591 395 0 ?593 587 602 592 0 0 1 30 592 396 0 591 603 588 0 +-0.0009299
49271685512 0.0003200622145255307 0.007705096644075439 3.821370931907936e-015 -4
.371138828673789e-008 -0.9999999999999991 17 593 0 669 617 210 585 590 591 0 614
 +14 594 397 596 1e-008 609 579 598 38 595 -0 0 609 579 36 50 595 398 0 594 610
 580 0 +-0.00156994927168551 0.0003200621585749537 0.007705096644075439 0.999999
9999999962 8.74227772511019e-008 -2.961998883927427e-023 -8.742277725110181e-008
 0.9999999999999953 -4.371138828673806e-008 81 1 596 399 32 594 0 0 611 581 597
 83 3 597 0.8274509906768799 0.8392156958580017 0.8274509906768799 15 598 400 0
 216 594 0 17 599 0 598 605 216 600 604 602 0 608 -18 600 401 0 599 585 624 601
 ?1 29 601 402 0 600 625 586 -0.001569949271685467 0.0003200616731557606 -0.0034
00000035843336 16 602 403 0 ?604 591 606 603 0 0 1 30 603 404 0 602 607 592 0 +-
0.00156994927168551 0.0003200621585749537 0.007705096644075439 -3.82137093190793
6e-015 4.371138828673789e-008 0.9999999999999991 17 604 0 669 210 617 206 599 60
2 0 0 +17 605 0 598 433 599 429 608 606 0 0 -16 606 405 0 ?608 602 615 607 0 0 1
 30 607 406 0 606 616 603 0 +-0.001569949271685468 0.0003200616731557607 -0.0034
00000035843336 -8.742277725110181e-008 0.9999999999999953 -4.371138828673806e-00
8 17 608 0 613 614 439 600 605 606 0 617 +14 609 407 611 1e-008 618 594 613 38 6
10 +0 0 618 594 36 50 610 408 0 609 619 595 0 +-0.0009299492157348925 -0.0003199
382708936594 -0.003400000007868048 3.821370931907936e-015 -4.371138828673789e-00
8 -0.9999999999999991 8.742277657347545e-008 -0.9999999999999953 4.3711388286738
06e-008 81 1 611 409 32 609 0 0 620 596 612 83 3 612 0.8274509906768799 0.839215
6958580017 0.8274509906768799 15 613 410 0 608 609 0 17 614 0 613 589 608 585 61
7 615 0 584 +16 615 411 0 ?614 606 626 616 0 0 1 30 616 412 0 615 627 607 0 +-0.
0009299492716854696 0.0003200617291063375 -0.003400000035843336 0.99999999999999
62 8.742277657347554e-008 0 17 617 0 669 604 593 600 614 615 0 0 -14 618 413 620
 1e-008 639 609 622 38 619 -0 0 639 609 36 50 619 414 0 618 640 610 0 +0.0015700
50784265056 -0.000319937566917525 0.007705096672050727 -8.742277665817874e-008 0
.9999999999999953 -4.371138828673806e-008 -0.9999999999999962 -8.742277665817884
e-008 3.702498604909285e-024 81 1 620 415 32 618 0 0 641 611 621 83 3 621 0.8274
509906768799 0.8392156958580017 0.8274509906768799 15 622 416 0 513 618 0 17 623
 0 622 629 513 624 628 626 0 634 -18 624 417 0 696 600 630 625 ?1 29 625 418 0 6
24 631 601 0.001570050784265059 -0.0003199376064805573 0.006799999992131944 16 6
26 419 0 ?628 615 632 627 0 0 1 30 627 420 0 626 633 616 0 +0.001570050784265056
 -0.0003199375669175249 0.007705096672050727 3.821370931907936e-015 -4.371138828
673789e-008 -0.9999999999999991 17 628 0 689 509 696 505 623 626 0 0 +17 629 0 6
22 635 623 630 634 632 0 638 -18 630 421 0 680 624 645 631 ?1 29 631 422 0 630 6
46 625 0.0009300507842650614 -0.0003199376624311344 0.006799999992131944 16 632
 423 0 ?634 626 636 633 0 0 1 30 633 424 0 632 637 627 0 +0.001570050784265059 -
0.0003199376064805574 0.006799999992131944 0.9999999999999962 8.742277665817884e
-008 -3.702498604909285e-024 17 634 0 704 699 680 624 629 632 0 0 +17 635 0 622
 513 629 496 638 636 0 0 -16 636 425 0 ?638 632 647 637 0 0 1 30 637 426 0 636 6
48 633 0 +0.0009300507842650579 -0.000319937622868102 0.007705096672050727 -3.82
1370931907936e-015 4.371138828673789e-008 0.9999999999999991 17 638 0 674 675 49
5 630 635 636 0 0 +14 639 427 641 1e-008 660 618 643 38 640 -0 0 660 618 36 50 6
40 428 0 639 661 619 0 +-0.0009299492157349349 -0.0003199377854744664 0.00770509
6672050727 -8.742277665817874e-008 0.9999999999999953 -4.371138828673806e-008 -0
.9999999999999962 -8.742277665817884e-008 3.702498604909285e-024 81 1 641 429 32
 639 0 0 662 620 642 83 3 642 0.8274509906768799 0.8392156958580017 0.8274509906
768799 15 643 430 0 539 639 0 17 644 0 643 650 539 645 649 647 0 735 -18 645 431
 0 644 630 651 646 ?1 29 646 432 0 645 652 631 -0.0009299492157349315 -0.0003199
378250374987 0.006799999992131944 16 647 433 0 ?649 636 653 648 0 0 1 30 648 434
 0 647 654 637 0 +-0.0009299492157349349 -0.0003199377854744664 0.00770509667205
0727 3.821370931907936e-015 -4.371138828673789e-008 -0.9999999999999991 17 649 0
 728 535 735 531 644 647 0 530 +17 650 0 643 656 644 651 655 653 0 659 -18 651 4
35 0 719 645 676 652 ?1 29 652 436 0 651 677 646 -0.001569949215734929 -0.000319
9378809880759 0.006799999992131944 16 653 437 0 ?655 647 657 654 0 0 1 30 654 43
8 0 653 658 648 0 +-0.0009299492157349315 -0.0003199378250374988 0.0067999999921
31944 0.9999999999999962 8.742277665817884e-008 -3.702498604909285e-024 17 655 0
 743 738 719 645 650 653 0 0 +17 656 0 643 539 650 522 659 657 0 0 -16 657 439 0
 ?659 653 678 658 0 0 1 30 658 440 0 657 679 654 0 +-0.001569949215734933 -0.000
3199378414250434 0.007705096672050727 -3.821370931907936e-015 4.371138828673789e
-008 0.9999999999999991 17 659 0 713 714 521 651 656 657 0 0 +14 660 441 662 1e-
008 665 639 664 38 661 -0 0 665 639 36 50 661 442 0 660 666 640 0 +0.00157005072
8314479 0.0003200624330824722 0.007705096644075439 8.742277674288204e-008 -0.999
9999999999953 4.371138828673806e-008 0.9999999999999962 8.742277674288213e-008 -
7.404997209818562e-024 81 1 662 443 32 660 0 0 667 641 663 83 3 663 0.8274509906
768799 0.8392156958580017 0.8274509906768799 15 664 444 0 180 660 0 14 665 445 6
67 1e-008 670 660 669 38 666 -0 0 670 660 36 50 666 446 0 665 671 661 0 +-0.0009
29949271685512 0.0003200622145255307 0.007705096644075439 8.742277674288204e-008
 -0.9999999999999953 4.371138828673806e-008 0.9999999999999962 8.742277674288213
e-008 -7.404997209818562e-024 81 1 667 447 32 665 0 0 672 662 668 83 3 668 0.827
4509906768799 0.8392156958580017 0.8274509906768799 15 669 448 0 210 665 0 14 67
0 449 672 1e-008 685 665 674 38 671 -0 0 685 665 36 50 671 450 0 670 686 666 0 +
0.0009300507283144805 0.0003200623771318951 0.007705096644075439 0.9999999999999
962 8.74227772511019e-008 -2.961998883927427e-023 -8.742277725110181e-008 0.9999
999999999953 -4.371138828673806e-008 81 1 672 451 32 670 0 0 687 667 673 83 3 67
3 0.8274509906768799 0.8392156958580017 0.8274509906768799 15 674 452 0 495 670
 0 17 675 0 674 681 638 676 680 678 0 705 -18 676 453 0 675 651 691 677 ?1 29 67
7 454 0 676 692 652 0.0009300507283144842 0.0003200623375688625 0.00679999996415
6656 16 678 455 0 ?680 657 682 679 0 0 1 30 679 456 0 678 683 658 0 +0.000930050
728314484 0.0003200623375688626 0.006799999964156656 8.742277725110181e-008 -0.9
999999999999953 4.371138828673806e-008 17 680 0 704 634 705 630 675 678 0 629 +1
7 681 0 674 495 675 491 684 682 0 0 -16 682 457 0 ?684 678 693 683 0 0 1 30 683
 458 0 682 694 679 0 +0.0009300507283144805 0.000320062377131895 0.0077050966440
75439 -3.821370931907936e-015 4.371138828673789e-008 0.9999999999999991 17 684 0
 752 708 503 676 681 682 0 0 +14 685 459 687 1e-008 700 670 689 38 686 -0 0 700
 670 36 50 686 460 0 685 701 671 0 +0.001570050728314479 0.0003200624330824722 0
.007705096644075439 -0.9999999999999962 -8.742277657347554e-008 0 8.742277657347
545e-008 -0.9999999999999953 4.371138828673806e-008 81 1 687 461 32 685 0 0 702
 672 688 83 3 688 0.8274509906768799 0.8392156958580017 0.8274509906768799 15 68
9 462 0 509 685 0 17 690 0 689 696 509 691 695 693 0 0 -18 691 463 0 699 676 715
 692 ?1 29 692 464 0 691 716 677 0.001570050728314482 0.0003200623935194398 0.00
6799999964156656 16 693 465 0 ?695 682 697 694 0 0 1 30 694 466 0 693 698 683 0
 +0.001570050728314479 0.0003200624330824722 0.007705096644075439 3.821370931907
936e-015 -4.371138828673789e-008 -0.9999999999999991 17 695 0 752 503 708 499 69
0 693 0 0 +17 696 0 689 628 690 624 699 697 0 623 -16 697 467 0 ?699 693 706 698
 0 0 1 30 698 468 0 697 707 694 0 +0.001570050728314482 0.0003200623935194398 0.
006799999964156656 -8.742277657347545e-008 0.9999999999999953 -4.371138828673806
e-008 17 699 0 704 705 634 691 696 697 0 708 +14 700 469 702 1e-008 709 685 704
 38 701 -0 0 709 685 36 50 701 470 0 700 710 686 0 +5.075628977623759e-008 6.225
62656820147e-008 0.006799999978144299 3.821370931907936e-015 -4.371138828673789e
-008 -0.9999999999999991 8.742277657347545e-008 -0.9999999999999953 4.3711388286
73806e-008 81 1 702 471 32 700 0 0 711 687 703 83 3 703 0.8274509906768799 0.839
2156958580017 0.8274509906768799 15 704 472 0 680 700 0 17 705 0 704 680 699 676
 708 706 0 684 -16 706 473 0 ?708 697 717 707 0 0 1 30 707 474 0 706 718 698 0 +
5.072831448773408e-008 0.0003200622562656804 0.006799999964156656 0.999999999999
9962 8.742277657347554e-008 0 17 708 0 752 695 684 691 705 706 0 690 +14 709 475
 711 1e-008 724 700 713 38 710 -0 0 724 700 36 50 710 476 0 709 725 701 0 +-0.00
156994927168551 0.0003200621585749537 0.007705096644075439 0.9999999999999962 8.
74227772511019e-008 -2.961998883927427e-023 -8.742277725110181e-008 0.9999999999
999953 -4.371138828673806e-008 81 1 711 477 32 709 0 0 726 702 712 83 3 712 0.82
74509906768799 0.8392156958580017 0.8274509906768799 15 713 478 0 521 709 0 17 7
14 0 713 720 659 715 719 717 0 723 -18 715 479 0 714 691 730 716 ?1 29 716 480 0
 715 731 692 -0.001569949271685506 0.0003200621190119211 0.006799999964156656 16
 717 481 0 ?719 706 721 718 0 0 1 30 718 482 0 717 722 707 0 +-0.001569949271685
507 0.0003200621190119212 0.006799999964156656 8.742277725110181e-008 -0.9999999
999999953 4.371138828673806e-008 17 719 0 743 655 744 651 714 717 0 650 +17 720
 0 713 521 714 517 723 721 0 0 -16 721 483 0 ?723 717 732 722 0 0 1 30 722 484 0
 721 733 718 0 +-0.00156994927168551 0.0003200621585749536 0.007705096644075439
 -3.821370931907936e-015 4.371138828673789e-008 0.9999999999999991 17 723 0 757
 747 529 715 720 721 0 744 +14 724 485 726 1e-008 739 709 728 38 725 -0 0 739 70
9 36 50 725 486 0 724 740 710 0 +-0.000929949271685512 0.0003200622145255307 0.0
07705096644075439 -0.9999999999999962 -8.742277657347554e-008 0 8.74227765734754
5e-008 -0.9999999999999953 4.371138828673806e-008 81 1 726 487 32 724 0 0 741 71
1 727 83 3 727 0.8274509906768799 0.8392156958580017 0.8274509906768799 15 728 4
88 0 535 724 0 17 729 0 728 735 535 730 734 732 0 738 -18 730 489 0 729 715 0 73
1 ?1 29 731 490 0 730 0 716 -0.0009299492716855085 0.0003200621749624984 0.00679
9999964156656 16 732 491 0 ?734 721 736 733 0 0 1 30 733 492 0 732 737 722 0 +-0
.000929949271685512 0.0003200622145255307 0.007705096644075439 3.821370931907936
e-015 -4.371138828673789e-008 -0.9999999999999991 17 734 0 757 529 747 525 729 7
32 0 0 +17 735 0 728 649 729 645 738 736 0 655 -16 736 493 0 ?738 732 745 737 0
 0 1 30 737 494 0 736 746 733 0 +-0.0009299492716855085 0.0003200621749624984 0.
006799999964156656 -8.742277657347545e-008 0.9999999999999953 -4.371138828673806
e-008 17 738 0 743 744 655 730 735 736 0 747 +14 739 495 741 1e-008 748 724 743
 38 740 -0 0 748 724 36 50 740 496 0 739 749 725 0 +5.075628977623759e-008 6.225
62656820147e-008 0.006799999978144299 3.821370931907936e-015 -4.371138828673789e
-008 -0.9999999999999991 8.742277657347545e-008 -0.9999999999999953 4.3711388286
73806e-008 81 1 741 497 32 739 0 0 750 726 742 83 3 742 0.8274509906768799 0.839
2156958580017 0.8274509906768799 15 743 498 0 719 739 0 17 744 0 743 719 738 715
 747 745 0 0 -16 745 499 0 ?747 736 0 746 0 0 1 30 746 500 0 745 0 737 0 +5.0728
31448773408e-008 0.0003200622562656804 0.006799999964156656 0.9999999999999962 8
.742277657347554e-008 0 17 747 0 757 734 723 730 744 745 0 0 +14 748 501 750 1e-
008 753 739 752 38 749 -0 0 753 739 36 50 749 502 0 748 754 740 0 +0.00157005072
8314479 0.0003200624330824722 0.007705096644075439 8.742277674288204e-008 -0.999
9999999999953 4.371138828673806e-008 0.9999999999999962 8.742277674288213e-008 -
7.404997209818562e-024 81 1 750 503 32 748 0 0 755 741 751 83 3 751 0.8274509906
768799 0.8392156958580017 0.8274509906768799 15 752 504 0 503 748 0 14 753 505 7
55 1e-008 0 748 757 38 754 -0 0 0 748 36 50 754 506 0 753 0 749 0 +-0.0009299492
71685512 0.0003200622145255307 0.007705096644075439 8.742277674288204e-008 -0.99
99999999999953 4.371138828673806e-008 0.9999999999999962 8.742277674288213e-008
 -7.404997209818562e-024 81 1 755 507 32 753 0 0 0 750 756 83 3 756 0.8274509906
768799 0.8392156958580017 0.8274509906768799 15 757 508 0 529 753 0 1 0 
