G04 Layer_Color=13948096*
%FSLAX44Y44*%
%MOMM*%
G71*
G01*
G75*
%ADD22C,0.2540*%
D22*
X370414Y741000D02*
G03*
X370414Y741000I-1414J0D01*
G01*
X240414D02*
G03*
X240414Y741000I-1414J0D01*
G01*
X140414Y1011000D02*
G03*
X140414Y1011000I-1414J0D01*
G01*
X230414D02*
G03*
X230414Y1011000I-1414J0D01*
G01*
X400414Y361000D02*
G03*
X400414Y361000I-1414J0D01*
G01*
X250414D02*
G03*
X250414Y361000I-1414J0D01*
G01*
X400414Y251000D02*
G03*
X400414Y251000I-1414J0D01*
G01*
X250414D02*
G03*
X250414Y251000I-1414J0D01*
G01*
X137292Y930734D02*
G03*
X137292Y930734I-1414J0D01*
G01*
X320414Y1011000D02*
G03*
X320414Y1011000I-1414J0D01*
G01*
X440414D02*
G03*
X440414Y1011000I-1414J0D01*
G01*
X500414Y931000D02*
G03*
X500414Y931000I-1414J0D01*
G01*
X380414D02*
G03*
X380414Y931000I-1414J0D01*
G01*
X260414D02*
G03*
X260414Y931000I-1414J0D01*
G01*
X310414Y451000D02*
G03*
X310414Y451000I-1414J0D01*
G01*
X75414Y888500D02*
G03*
X75414Y888500I-1414J0D01*
G01*
X237664Y1187500D02*
G03*
X237664Y1187500I-1414J0D01*
G01*
X137664D02*
G03*
X137664Y1187500I-1414J0D01*
G01*
X659164Y863000D02*
G03*
X659164Y863000I-1414J0D01*
G01*
Y936750D02*
G03*
X659164Y936750I-1414J0D01*
G01*
X47664Y1187000D02*
G03*
X47664Y1187000I-1414J0D01*
G01*
X70250Y1420000D02*
X970250D01*
X1020250Y1370000D01*
Y70000D02*
Y1370000D01*
X970250Y20000D02*
X1020250Y70000D01*
X70250Y20000D02*
X970250D01*
X20250Y70000D02*
X70250Y20000D01*
X20250Y70000D02*
Y1370000D01*
X70250Y1420000D01*
Y1420000D01*
M02*
