G04 Layer_Color=8150272*
%FSLAX44Y44*%
%MOMM*%
G71*
G01*
G75*
%ADD22C,0.2540*%
%ADD69R,1.8542X1.8542*%
%ADD70C,1.8542*%
%ADD71O,1.7032X2.7032*%
%ADD72O,1.9532X2.7032*%
%ADD73O,2.2032X1.4032*%
%ADD74R,1.6312X1.6312*%
%ADD75C,1.6312*%
%ADD76C,2.5032*%
%ADD77O,2.7032X1.9532*%
%ADD78C,1.7032*%
%ADD79C,3.2032*%
%ADD80C,5.2032*%
%ADD81C,1.8032*%
%ADD82O,1.7032X2.2032*%
%ADD83O,2.7032X1.7032*%
%ADD84C,2.2352*%
%ADD85R,2.2352X2.2352*%
%ADD86C,0.6032*%
D22*
X70250Y1420000D02*
X970250D01*
X1020250Y1370000D01*
Y70000D02*
Y1370000D01*
X970250Y20000D02*
X1020250Y70000D01*
X70250Y20000D02*
X970250D01*
X20250Y70000D02*
X70250Y20000D01*
X20250Y70000D02*
Y1370000D01*
X70250Y1420000D01*
Y1420000D01*
D69*
X420000Y830000D02*
D03*
D70*
X394854D02*
D03*
X369962D02*
D03*
X344816D02*
D03*
X319924D02*
D03*
X294778D02*
D03*
X269886D02*
D03*
D71*
X380000Y730000D02*
D03*
X440000D02*
D03*
X420000D02*
D03*
X400000D02*
D03*
X250000D02*
D03*
X310000D02*
D03*
X290000D02*
D03*
X270000D02*
D03*
X170000Y1000000D02*
D03*
X150000D02*
D03*
X260000D02*
D03*
X240000D02*
D03*
X450000Y350000D02*
D03*
X430000D02*
D03*
X410000D02*
D03*
X300000D02*
D03*
X280000D02*
D03*
X260000D02*
D03*
X450000Y240000D02*
D03*
X430000D02*
D03*
X410000D02*
D03*
X300000D02*
D03*
X280000D02*
D03*
X260000D02*
D03*
X146878Y919734D02*
D03*
X166878D02*
D03*
X186878D02*
D03*
X370000Y1000000D02*
D03*
X350000D02*
D03*
X330000D02*
D03*
X490000D02*
D03*
X470000D02*
D03*
X450000D02*
D03*
X550000Y920000D02*
D03*
X530000D02*
D03*
X510000D02*
D03*
X430000D02*
D03*
X410000D02*
D03*
X390000D02*
D03*
X270000D02*
D03*
X290000D02*
D03*
X310000D02*
D03*
X320000Y440000D02*
D03*
X380000D02*
D03*
X360000D02*
D03*
X340000D02*
D03*
X267250Y1176500D02*
D03*
X247250D02*
D03*
X167250D02*
D03*
X147250D02*
D03*
X708750Y852000D02*
D03*
X688750D02*
D03*
X668750D02*
D03*
X708750Y925750D02*
D03*
X688750D02*
D03*
X668750D02*
D03*
D72*
X412500Y640000D02*
D03*
X387500D02*
D03*
X362500D02*
D03*
X312500D02*
D03*
X287500D02*
D03*
X337500D02*
D03*
X412500Y530000D02*
D03*
X387500D02*
D03*
X362500D02*
D03*
X312500D02*
D03*
X287500D02*
D03*
X337500D02*
D03*
X677500Y1380000D02*
D03*
X702500D02*
D03*
X877500D02*
D03*
X902500D02*
D03*
X777500D02*
D03*
X802500D02*
D03*
D73*
X85000Y1119500D02*
D03*
Y1099500D02*
D03*
Y1079500D02*
D03*
Y1059500D02*
D03*
Y1019500D02*
D03*
Y999500D02*
D03*
Y919500D02*
D03*
Y939500D02*
D03*
Y959500D02*
D03*
Y899500D02*
D03*
Y979500D02*
D03*
Y1039500D02*
D03*
D74*
X585000Y1281250D02*
D03*
X405000D02*
D03*
X225000D02*
D03*
D75*
X560000D02*
D03*
X540000D02*
D03*
X515000D02*
D03*
X380000D02*
D03*
X360000D02*
D03*
X335000D02*
D03*
X200000D02*
D03*
X180000D02*
D03*
X155000D02*
D03*
D76*
X615700Y1308350D02*
D03*
X484300D02*
D03*
X435700D02*
D03*
X304300D02*
D03*
X255700D02*
D03*
X124300D02*
D03*
D77*
X160000Y467500D02*
D03*
Y417500D02*
D03*
Y392500D02*
D03*
Y442500D02*
D03*
Y287500D02*
D03*
Y237500D02*
D03*
Y212500D02*
D03*
Y262500D02*
D03*
Y647500D02*
D03*
Y597500D02*
D03*
Y572500D02*
D03*
Y622500D02*
D03*
Y827500D02*
D03*
Y777500D02*
D03*
Y752500D02*
D03*
Y802500D02*
D03*
D78*
X90000Y833500D02*
D03*
X70000D02*
D03*
Y653500D02*
D03*
X90000D02*
D03*
X70000Y473500D02*
D03*
X90000D02*
D03*
X70000Y293500D02*
D03*
X90000D02*
D03*
D79*
X80000Y795000D02*
D03*
Y745000D02*
D03*
Y565000D02*
D03*
Y615000D02*
D03*
Y385000D02*
D03*
Y435000D02*
D03*
Y205000D02*
D03*
Y255000D02*
D03*
D80*
X970250Y1370000D02*
D03*
X70250D02*
D03*
Y70000D02*
D03*
X970250D02*
D03*
D81*
X783250Y1220000D02*
D03*
X707250D02*
D03*
X942950Y593200D02*
D03*
X917550D02*
D03*
Y567800D02*
D03*
Y542400D02*
D03*
Y517000D02*
D03*
Y491600D02*
D03*
Y466200D02*
D03*
Y440800D02*
D03*
Y415400D02*
D03*
X942950D02*
D03*
Y440800D02*
D03*
Y466200D02*
D03*
Y491600D02*
D03*
Y517000D02*
D03*
Y542400D02*
D03*
Y567800D02*
D03*
Y364600D02*
D03*
Y339200D02*
D03*
Y313800D02*
D03*
Y288400D02*
D03*
Y263000D02*
D03*
Y237600D02*
D03*
Y212200D02*
D03*
X917550D02*
D03*
Y237600D02*
D03*
Y263000D02*
D03*
Y288400D02*
D03*
Y313800D02*
D03*
Y339200D02*
D03*
Y364600D02*
D03*
Y390000D02*
D03*
X942950D02*
D03*
X917550Y186800D02*
D03*
X942950D02*
D03*
Y1133200D02*
D03*
X917550D02*
D03*
Y1107800D02*
D03*
Y1082400D02*
D03*
Y1057000D02*
D03*
Y1031600D02*
D03*
Y1006200D02*
D03*
Y980800D02*
D03*
Y955400D02*
D03*
X942950D02*
D03*
Y980800D02*
D03*
Y1006200D02*
D03*
Y1031600D02*
D03*
Y1057000D02*
D03*
Y1082400D02*
D03*
Y1107800D02*
D03*
Y904600D02*
D03*
Y879200D02*
D03*
Y853800D02*
D03*
Y828400D02*
D03*
Y803000D02*
D03*
Y777600D02*
D03*
Y752200D02*
D03*
X917550D02*
D03*
Y777600D02*
D03*
Y803000D02*
D03*
Y828400D02*
D03*
Y853800D02*
D03*
Y879200D02*
D03*
Y904600D02*
D03*
Y930000D02*
D03*
X942950D02*
D03*
X917550Y726800D02*
D03*
X942950D02*
D03*
D82*
X555250Y150000D02*
D03*
X605250D02*
D03*
D83*
X57250Y1198000D02*
D03*
Y1258000D02*
D03*
Y1238000D02*
D03*
Y1218000D02*
D03*
D84*
X789300Y157300D02*
D03*
D85*
X751200D02*
D03*
D86*
X900750Y387250D02*
D03*
X463250Y1073000D02*
D03*
X441000D02*
D03*
X406250Y1164000D02*
D03*
M02*
