G04 Layer_Physical_Order=2*
G04 Layer_Color=12500520*
%FSLAX44Y44*%
%MOMM*%
G71*
G01*
G75*
%ADD22C,0.2540*%
%ADD23C,2.0000*%
%ADD24C,3.0000*%
%ADD26C,1.0000*%
%ADD27R,1.6510X1.6510*%
%ADD28C,1.6510*%
%ADD29O,1.5000X2.5000*%
%ADD30O,1.7500X2.5000*%
%ADD31O,2.0000X1.2000*%
%ADD32R,1.4280X1.4280*%
%ADD33C,1.4280*%
%ADD34C,2.3000*%
%ADD35O,2.5000X1.7500*%
%ADD36C,1.5000*%
%ADD37C,3.0000*%
%ADD38C,5.0000*%
%ADD39C,1.6000*%
%ADD40O,1.5000X2.0000*%
%ADD41O,2.5000X1.5000*%
%ADD42C,2.0320*%
%ADD43R,2.0320X2.0320*%
%ADD44C,0.4000*%
%ADD45C,1.0000*%
%ADD46C,2.5000*%
%ADD47C,2.0000*%
%ADD48C,1.2700*%
G36*
X1020250Y1370000D02*
Y70000D01*
X970250Y20000D01*
X70250D01*
X20250Y70000D01*
Y1370000D01*
X70250Y1420000D01*
X970250D01*
X1020250Y1370000D01*
D02*
G37*
%LPC*%
G36*
X163750Y632607D02*
X156250D01*
X153634Y632262D01*
X151197Y631253D01*
X149104Y629646D01*
X147498Y627553D01*
X146488Y625116D01*
X146144Y622500D01*
X146488Y619884D01*
X147498Y617447D01*
X149104Y615354D01*
X151197Y613747D01*
X153634Y612738D01*
X156250Y612393D01*
X163750D01*
X166366Y612738D01*
X168803Y613747D01*
X170896Y615354D01*
X172502Y617447D01*
X173512Y619884D01*
X173857Y622500D01*
X173512Y625116D01*
X172502Y627553D01*
X170896Y629646D01*
X168803Y631253D01*
X166366Y632262D01*
X163750Y632607D01*
D02*
G37*
G36*
X97500Y613730D02*
X81270D01*
Y597500D01*
X83438Y597714D01*
X86745Y598717D01*
X89792Y600345D01*
X92463Y602537D01*
X94655Y605208D01*
X96283Y608255D01*
X97286Y611562D01*
X97500Y613730D01*
D02*
G37*
G36*
X81270Y632500D02*
Y616270D01*
X97500D01*
X97286Y618438D01*
X96283Y621745D01*
X94655Y624792D01*
X92463Y627463D01*
X89792Y629655D01*
X86745Y631283D01*
X83438Y632286D01*
X81270Y632500D01*
D02*
G37*
G36*
X78730D02*
X76561Y632286D01*
X73255Y631283D01*
X70208Y629655D01*
X67537Y627463D01*
X65346Y624792D01*
X63717Y621745D01*
X62714Y618438D01*
X62500Y616270D01*
X78730D01*
Y632500D01*
D02*
G37*
G36*
X942950Y602550D02*
X940530Y602231D01*
X938275Y601297D01*
X936339Y599811D01*
X934853Y597875D01*
X933919Y595620D01*
X933600Y593200D01*
X933919Y590780D01*
X934853Y588525D01*
X936339Y586589D01*
X938275Y585103D01*
X940530Y584169D01*
X942950Y583850D01*
X945370Y584169D01*
X947625Y585103D01*
X949561Y586589D01*
X951047Y588525D01*
X951981Y590780D01*
X952300Y593200D01*
X951981Y595620D01*
X951047Y597875D01*
X949561Y599811D01*
X947625Y601297D01*
X945370Y602231D01*
X942950Y602550D01*
D02*
G37*
G36*
X917550D02*
X915130Y602231D01*
X912875Y601297D01*
X910939Y599811D01*
X909453Y597875D01*
X908519Y595620D01*
X908200Y593200D01*
X908519Y590780D01*
X909382Y588695D01*
X805419Y484731D01*
X804857Y483891D01*
X804660Y482900D01*
Y150573D01*
X787927Y133840D01*
X236823D01*
X217090Y153573D01*
Y154990D01*
X217580Y155724D01*
X217834Y157000D01*
X217580Y158276D01*
X216857Y159358D01*
X215776Y160080D01*
X214500Y160334D01*
X213224Y160080D01*
X212143Y159358D01*
X211357D01*
X210276Y160080D01*
X209000Y160334D01*
X207724Y160080D01*
X207156Y159700D01*
X206250Y159461D01*
X205344Y159700D01*
X204776Y160080D01*
X203500Y160334D01*
X202224Y160080D01*
X201656Y159700D01*
X200750Y159461D01*
X199844Y159700D01*
X199276Y160080D01*
X198000Y160334D01*
X196724Y160080D01*
X195983Y159585D01*
X195125Y159443D01*
X194267Y159585D01*
X193526Y160080D01*
X192250Y160334D01*
X190974Y160080D01*
X190233Y159585D01*
X189375Y159443D01*
X188517Y159585D01*
X187776Y160080D01*
X186500Y160334D01*
X185224Y160080D01*
X184483Y159585D01*
X183625Y159443D01*
X182767Y159585D01*
X182026Y160080D01*
X180750Y160334D01*
X179474Y160080D01*
X178733Y159585D01*
X177875Y159443D01*
X177017Y159585D01*
X176276Y160080D01*
X175000Y160334D01*
X173724Y160080D01*
X172642Y159358D01*
X171920Y158276D01*
X171666Y157000D01*
X171920Y155724D01*
X172410Y154990D01*
Y141250D01*
X172607Y140259D01*
X173169Y139419D01*
X216919Y95669D01*
X217759Y95107D01*
X218750Y94910D01*
X802000D01*
X802991Y95107D01*
X803831Y95669D01*
X842831Y134669D01*
X843393Y135509D01*
X843590Y136500D01*
Y293177D01*
X851660Y301248D01*
X852526Y301420D01*
X853607Y302143D01*
X853640Y302191D01*
X854910Y301806D01*
Y88090D01*
X159573D01*
X146090Y101573D01*
Y155240D01*
X146580Y155974D01*
X146834Y157250D01*
X146580Y158526D01*
X145857Y159607D01*
X144776Y160330D01*
X143500Y160584D01*
X142224Y160330D01*
X141143Y159607D01*
X140107D01*
X139026Y160330D01*
X137750Y160584D01*
X136474Y160330D01*
X135393Y159607D01*
X134358D01*
X133276Y160330D01*
X132000Y160584D01*
X130724Y160330D01*
X129642Y159607D01*
X128608D01*
X127526Y160330D01*
X126250Y160584D01*
X124974Y160330D01*
X123892Y159607D01*
X122858D01*
X121776Y160330D01*
X120500Y160584D01*
X119224Y160330D01*
X118195Y159642D01*
X118116Y159602D01*
X116858Y159358D01*
X116655Y159493D01*
X115776Y160080D01*
X114500Y160334D01*
X113224Y160080D01*
X112142Y159358D01*
X112135Y159346D01*
X110865D01*
X110857Y159358D01*
X109776Y160080D01*
X108500Y160334D01*
X107224Y160080D01*
X106143Y159358D01*
X106135Y159346D01*
X104865D01*
X104858Y159358D01*
X103776Y160080D01*
X102500Y160334D01*
X101224Y160080D01*
X100142Y159358D01*
X99420Y158276D01*
X99166Y157000D01*
X99420Y155724D01*
X99910Y154990D01*
Y88250D01*
X100107Y87259D01*
X100669Y86419D01*
X137169Y49919D01*
X138009Y49357D01*
X139000Y49160D01*
X881250D01*
X882241Y49357D01*
X883081Y49919D01*
X898831Y65669D01*
X899393Y66509D01*
X899590Y67500D01*
Y206556D01*
X900860Y206941D01*
X900892Y206893D01*
X901974Y206170D01*
X903250Y205916D01*
X904526Y206170D01*
X905608Y206893D01*
X906330Y207974D01*
X906584Y209250D01*
X906330Y210526D01*
X905840Y211260D01*
Y216927D01*
X910073Y221160D01*
X911913D01*
X912345Y219890D01*
X910939Y218811D01*
X909453Y216875D01*
X908519Y214620D01*
X908200Y212200D01*
X908519Y209780D01*
X909453Y207525D01*
X910939Y205589D01*
X912875Y204103D01*
X915130Y203169D01*
X917550Y202850D01*
X919970Y203169D01*
X922225Y204103D01*
X924161Y205589D01*
X925647Y207525D01*
X926581Y209780D01*
X926900Y212200D01*
X926581Y214620D01*
X925647Y216875D01*
X924161Y218811D01*
X922756Y219890D01*
X923187Y221160D01*
X929100D01*
X930091Y221357D01*
X930931Y221919D01*
X938445Y229432D01*
X940530Y228569D01*
X942950Y228250D01*
X945370Y228569D01*
X947625Y229503D01*
X949561Y230989D01*
X951047Y232925D01*
X951981Y235180D01*
X952300Y237600D01*
X951981Y240020D01*
X951047Y242275D01*
X949561Y244211D01*
X947625Y245697D01*
X945370Y246631D01*
X942950Y246950D01*
X940530Y246631D01*
X938275Y245697D01*
X936339Y244211D01*
X934853Y242275D01*
X933919Y240020D01*
X933600Y237600D01*
X933919Y235180D01*
X934782Y233095D01*
X928027Y226340D01*
X921226D01*
X920974Y227610D01*
X922866Y228393D01*
X925067Y230083D01*
X926757Y232285D01*
X927819Y234849D01*
X928014Y236330D01*
X907086D01*
X907281Y234849D01*
X908343Y232285D01*
X910033Y230083D01*
X912235Y228393D01*
X914126Y227610D01*
X913874Y226340D01*
X909000D01*
X908009Y226143D01*
X907169Y225581D01*
X901419Y219831D01*
X900857Y218991D01*
X899590Y219128D01*
Y287927D01*
X908323Y296660D01*
X911001D01*
X911432Y295390D01*
X910939Y295011D01*
X909453Y293075D01*
X908519Y290820D01*
X908200Y288400D01*
X908519Y285980D01*
X909453Y283725D01*
X910939Y281789D01*
X912875Y280303D01*
X915130Y279369D01*
X917550Y279050D01*
X919970Y279369D01*
X922225Y280303D01*
X924161Y281789D01*
X925647Y283725D01*
X926581Y285980D01*
X926900Y288400D01*
X926581Y290820D01*
X925647Y293075D01*
X924161Y295011D01*
X923668Y295390D01*
X924099Y296660D01*
X936401D01*
X936832Y295390D01*
X936339Y295011D01*
X934853Y293075D01*
X933919Y290820D01*
X933600Y288400D01*
X933919Y285980D01*
X934853Y283725D01*
X936339Y281789D01*
X938275Y280303D01*
X940530Y279369D01*
X942950Y279050D01*
X945370Y279369D01*
X947625Y280303D01*
X949561Y281789D01*
X951047Y283725D01*
X951981Y285980D01*
X952300Y288400D01*
X951981Y290820D01*
X951047Y293075D01*
X949561Y295011D01*
X948925Y295500D01*
X949241Y296857D01*
X950081Y297419D01*
X958581Y305919D01*
X959143Y306759D01*
X959340Y307750D01*
Y325400D01*
X959143Y326391D01*
X958581Y327231D01*
X951118Y334695D01*
X951981Y336780D01*
X952300Y339200D01*
X951981Y341620D01*
X951047Y343875D01*
X949561Y345811D01*
X947699Y347240D01*
X947619Y347338D01*
X947420Y348757D01*
X958081Y359419D01*
X958643Y360259D01*
X958840Y361250D01*
Y376700D01*
X958643Y377691D01*
X958081Y378531D01*
X951118Y385495D01*
X951981Y387580D01*
X952300Y390000D01*
X951981Y392420D01*
X951047Y394675D01*
X949561Y396611D01*
X947869Y397910D01*
X947629Y398860D01*
X947632Y399469D01*
X961331Y413169D01*
X961893Y414009D01*
X962090Y415000D01*
Y424250D01*
X961893Y425241D01*
X961331Y426081D01*
X951118Y436295D01*
X951981Y438380D01*
X952300Y440800D01*
X951981Y443220D01*
X951047Y445475D01*
X949561Y447411D01*
X948727Y448052D01*
X948771Y449609D01*
X958581Y459419D01*
X959143Y460259D01*
X959340Y461250D01*
Y477800D01*
X959143Y478791D01*
X958581Y479631D01*
X951118Y487095D01*
X951981Y489180D01*
X952300Y491600D01*
X951981Y494020D01*
X951047Y496275D01*
X949561Y498211D01*
X947625Y499697D01*
X945370Y500631D01*
X942950Y500950D01*
X940530Y500631D01*
X938275Y499697D01*
X936339Y498211D01*
X934853Y496275D01*
X933919Y494020D01*
X933600Y491600D01*
X933919Y489180D01*
X934853Y486925D01*
X936339Y484989D01*
X938275Y483503D01*
X940530Y482569D01*
X942950Y482250D01*
X945370Y482569D01*
X947455Y483432D01*
X954160Y476727D01*
Y462323D01*
X945867Y454030D01*
X936102D01*
X935616Y455203D01*
X938445Y458032D01*
X940530Y457169D01*
X942950Y456850D01*
X945370Y457169D01*
X947625Y458103D01*
X949561Y459589D01*
X951047Y461525D01*
X951981Y463780D01*
X952300Y466200D01*
X951981Y468620D01*
X951047Y470875D01*
X949561Y472811D01*
X947625Y474297D01*
X945370Y475231D01*
X942950Y475550D01*
X940530Y475231D01*
X938275Y474297D01*
X936339Y472811D01*
X934853Y470875D01*
X933919Y468620D01*
X933600Y466200D01*
X933919Y463780D01*
X934782Y461695D01*
X930927Y457840D01*
X925954D01*
X925395Y459110D01*
X926757Y460885D01*
X927819Y463449D01*
X928014Y464930D01*
X907086D01*
X907281Y463449D01*
X908343Y460885D01*
X909705Y459110D01*
X909146Y457840D01*
X898250D01*
X897259Y457643D01*
X896419Y457081D01*
X855669Y416331D01*
X855107Y415491D01*
X854910Y414500D01*
Y326194D01*
X853640Y325809D01*
X853607Y325858D01*
X852526Y326580D01*
X851250Y326834D01*
X849974Y326580D01*
X848893Y325858D01*
X848170Y324776D01*
X848002Y323931D01*
X847538Y323621D01*
X844879Y320962D01*
X844535Y320448D01*
X826860Y302772D01*
X825590Y303298D01*
Y388427D01*
X905983Y468821D01*
X907186Y468228D01*
X907086Y467470D01*
X928014D01*
X927819Y468951D01*
X926757Y471516D01*
X925067Y473717D01*
X923213Y475140D01*
X923644Y476410D01*
X928990D01*
X929724Y475920D01*
X931000Y475666D01*
X932276Y475920D01*
X933357Y476642D01*
X934080Y477724D01*
X934334Y479000D01*
X934080Y480276D01*
X933357Y481357D01*
X932276Y482080D01*
X931000Y482334D01*
X929724Y482080D01*
X928990Y481590D01*
X920925D01*
X920673Y482860D01*
X922225Y483503D01*
X924161Y484989D01*
X925647Y486925D01*
X926581Y489180D01*
X926900Y491600D01*
X926581Y494020D01*
X925647Y496275D01*
X924161Y498211D01*
X922225Y499697D01*
X919970Y500631D01*
X917550Y500950D01*
X915130Y500631D01*
X912875Y499697D01*
X910939Y498211D01*
X909453Y496275D01*
X908519Y494020D01*
X908200Y491600D01*
X908519Y489180D01*
X909382Y487095D01*
X816610Y394322D01*
X815853Y394483D01*
X815340Y394802D01*
Y461927D01*
X913045Y559632D01*
X915130Y558769D01*
X917550Y558450D01*
X919970Y558769D01*
X922225Y559703D01*
X924161Y561189D01*
X925647Y563125D01*
X926581Y565380D01*
X926900Y567800D01*
X926581Y570220D01*
X925647Y572475D01*
X924161Y574411D01*
X922225Y575897D01*
X919970Y576831D01*
X917550Y577150D01*
X915130Y576831D01*
X912875Y575897D01*
X910939Y574411D01*
X909453Y572475D01*
X908519Y570220D01*
X908200Y567800D01*
X908519Y565380D01*
X909382Y563295D01*
X811110Y465022D01*
X810353Y465183D01*
X809840Y465502D01*
Y481827D01*
X913045Y585032D01*
X915130Y584169D01*
X917550Y583850D01*
X919970Y584169D01*
X922225Y585103D01*
X924161Y586589D01*
X925647Y588525D01*
X926581Y590780D01*
X926900Y593200D01*
X926581Y595620D01*
X925647Y597875D01*
X924161Y599811D01*
X922225Y601297D01*
X919970Y602231D01*
X917550Y602550D01*
D02*
G37*
G36*
X78730Y613730D02*
X62500D01*
X62714Y611562D01*
X63717Y608255D01*
X65346Y605208D01*
X67537Y602537D01*
X70208Y600345D01*
X73255Y598717D01*
X76561Y597714D01*
X78730Y597500D01*
Y613730D01*
D02*
G37*
G36*
X163750Y607607D02*
X156250D01*
X153634Y607262D01*
X151197Y606253D01*
X149104Y604646D01*
X147498Y602553D01*
X146488Y600116D01*
X146144Y597500D01*
X146488Y594884D01*
X147498Y592447D01*
X149104Y590354D01*
X151197Y588747D01*
X153634Y587738D01*
X156250Y587393D01*
X163750D01*
X166366Y587738D01*
X168803Y588747D01*
X170896Y590354D01*
X172502Y592447D01*
X173512Y594884D01*
X173857Y597500D01*
X173512Y600116D01*
X172502Y602553D01*
X170896Y604646D01*
X168803Y606253D01*
X166366Y607262D01*
X163750Y607607D01*
D02*
G37*
G36*
X158730Y646230D02*
X145030D01*
X145251Y644553D01*
X146388Y641806D01*
X148198Y639448D01*
X150556Y637638D01*
X153303Y636501D01*
X156250Y636113D01*
X158730D01*
Y646230D01*
D02*
G37*
G36*
X387500Y653857D02*
X384884Y653512D01*
X382447Y652503D01*
X380354Y650896D01*
X378748Y648803D01*
X377738Y646366D01*
X377394Y643750D01*
Y636250D01*
X377738Y633634D01*
X378748Y631197D01*
X380354Y629104D01*
X382447Y627497D01*
X384884Y626488D01*
X387500Y626143D01*
X390116Y626488D01*
X392553Y627497D01*
X394646Y629104D01*
X396253Y631197D01*
X397262Y633634D01*
X397607Y636250D01*
Y643750D01*
X397262Y646366D01*
X396253Y648803D01*
X394646Y650896D01*
X392553Y652503D01*
X390116Y653512D01*
X387500Y653857D01*
D02*
G37*
G36*
X286230Y654970D02*
X284553Y654749D01*
X281806Y653612D01*
X279448Y651802D01*
X277638Y649444D01*
X276501Y646697D01*
X276113Y643750D01*
Y641270D01*
X286230D01*
Y654970D01*
D02*
G37*
G36*
X174970Y646230D02*
X161270D01*
Y636113D01*
X163750D01*
X166697Y636501D01*
X169444Y637638D01*
X171802Y639448D01*
X173612Y641806D01*
X174749Y644553D01*
X174970Y646230D01*
D02*
G37*
G36*
X298887Y638730D02*
X288770D01*
Y625030D01*
X290447Y625251D01*
X293194Y626388D01*
X295552Y628198D01*
X297362Y630556D01*
X298499Y633303D01*
X298887Y636250D01*
Y638730D01*
D02*
G37*
G36*
X286230D02*
X276113D01*
Y636250D01*
X276501Y633303D01*
X277638Y630556D01*
X279448Y628198D01*
X281806Y626388D01*
X284553Y625251D01*
X286230Y625030D01*
Y638730D01*
D02*
G37*
G36*
X362500Y653857D02*
X359884Y653512D01*
X357447Y652503D01*
X355354Y650896D01*
X353748Y648803D01*
X352738Y646366D01*
X352394Y643750D01*
Y636250D01*
X352738Y633634D01*
X353748Y631197D01*
X355354Y629104D01*
X357447Y627497D01*
X359884Y626488D01*
X362500Y626143D01*
X365116Y626488D01*
X367553Y627497D01*
X369646Y629104D01*
X371253Y631197D01*
X372262Y633634D01*
X372607Y636250D01*
Y643750D01*
X372262Y646366D01*
X371253Y648803D01*
X369646Y650896D01*
X367553Y652503D01*
X365116Y653512D01*
X362500Y653857D01*
D02*
G37*
G36*
X337500D02*
X334884Y653512D01*
X332447Y652503D01*
X330354Y650896D01*
X328748Y648803D01*
X327738Y646366D01*
X327394Y643750D01*
Y636250D01*
X327738Y633634D01*
X328748Y631197D01*
X330354Y629104D01*
X332447Y627497D01*
X334884Y626488D01*
X337500Y626143D01*
X340116Y626488D01*
X342553Y627497D01*
X344646Y629104D01*
X346253Y631197D01*
X347262Y633634D01*
X347607Y636250D01*
Y643750D01*
X347262Y646366D01*
X346253Y648803D01*
X344646Y650896D01*
X342553Y652503D01*
X340116Y653512D01*
X337500Y653857D01*
D02*
G37*
G36*
X942950Y577150D02*
X940530Y576831D01*
X938275Y575897D01*
X936339Y574411D01*
X934853Y572475D01*
X933919Y570220D01*
X933600Y567800D01*
X933919Y565380D01*
X934853Y563125D01*
X936339Y561189D01*
X938275Y559703D01*
X940530Y558769D01*
X942950Y558450D01*
X945370Y558769D01*
X947625Y559703D01*
X949561Y561189D01*
X951047Y563125D01*
X951981Y565380D01*
X952300Y567800D01*
X951981Y570220D01*
X951047Y572475D01*
X949561Y574411D01*
X947625Y575897D01*
X945370Y576831D01*
X942950Y577150D01*
D02*
G37*
G36*
X387500Y543857D02*
X384884Y543512D01*
X382447Y542503D01*
X380354Y540896D01*
X378748Y538803D01*
X377738Y536366D01*
X377394Y533750D01*
Y526250D01*
X377738Y523634D01*
X378748Y521197D01*
X380354Y519104D01*
X382447Y517497D01*
X384884Y516488D01*
X387500Y516143D01*
X390116Y516488D01*
X392553Y517497D01*
X394646Y519104D01*
X396253Y521197D01*
X397262Y523634D01*
X397607Y526250D01*
Y533750D01*
X397262Y536366D01*
X396253Y538803D01*
X394646Y540896D01*
X392553Y542503D01*
X390116Y543512D01*
X387500Y543857D01*
D02*
G37*
G36*
X362500D02*
X359884Y543512D01*
X357447Y542503D01*
X355354Y540896D01*
X353748Y538803D01*
X352738Y536366D01*
X352394Y533750D01*
Y526250D01*
X352738Y523634D01*
X353748Y521197D01*
X355354Y519104D01*
X357447Y517497D01*
X359884Y516488D01*
X362500Y516143D01*
X365116Y516488D01*
X367553Y517497D01*
X369646Y519104D01*
X371253Y521197D01*
X372262Y523634D01*
X372607Y526250D01*
Y533750D01*
X372262Y536366D01*
X371253Y538803D01*
X369646Y540896D01*
X367553Y542503D01*
X365116Y543512D01*
X362500Y543857D01*
D02*
G37*
G36*
X918820Y527464D02*
Y518270D01*
X928014D01*
X927819Y519752D01*
X926757Y522315D01*
X925067Y524517D01*
X922866Y526207D01*
X920302Y527269D01*
X918820Y527464D01*
D02*
G37*
G36*
X916280D02*
X914799Y527269D01*
X912235Y526207D01*
X910033Y524517D01*
X908343Y522315D01*
X907281Y519752D01*
X907086Y518270D01*
X916280D01*
Y527464D01*
D02*
G37*
G36*
X286230Y528730D02*
X276113D01*
Y526250D01*
X276501Y523303D01*
X277638Y520556D01*
X279448Y518198D01*
X281806Y516388D01*
X284553Y515251D01*
X286230Y515030D01*
Y528730D01*
D02*
G37*
G36*
X928014Y515730D02*
X918820D01*
Y506536D01*
X920302Y506731D01*
X922866Y507793D01*
X925067Y509483D01*
X926757Y511685D01*
X927819Y514249D01*
X928014Y515730D01*
D02*
G37*
G36*
X337500Y543857D02*
X334884Y543512D01*
X332447Y542503D01*
X330354Y540896D01*
X328748Y538803D01*
X327738Y536366D01*
X327394Y533750D01*
Y526250D01*
X327738Y523634D01*
X328748Y521197D01*
X330354Y519104D01*
X332447Y517497D01*
X334884Y516488D01*
X337500Y516143D01*
X340116Y516488D01*
X342553Y517497D01*
X344646Y519104D01*
X346253Y521197D01*
X347262Y523634D01*
X347607Y526250D01*
Y533750D01*
X347262Y536366D01*
X346253Y538803D01*
X344646Y540896D01*
X342553Y542503D01*
X340116Y543512D01*
X337500Y543857D01*
D02*
G37*
G36*
X298887Y528730D02*
X288770D01*
Y515030D01*
X290447Y515251D01*
X293194Y516388D01*
X295552Y518198D01*
X297362Y520556D01*
X298499Y523303D01*
X298887Y526250D01*
Y528730D01*
D02*
G37*
G36*
X916280Y552864D02*
X914799Y552669D01*
X912235Y551607D01*
X910033Y549917D01*
X908343Y547715D01*
X907281Y545151D01*
X907086Y543670D01*
X916280D01*
Y552864D01*
D02*
G37*
G36*
X928014Y541130D02*
X918820D01*
Y531936D01*
X920302Y532131D01*
X922866Y533193D01*
X925067Y534883D01*
X926757Y537085D01*
X927819Y539649D01*
X928014Y541130D01*
D02*
G37*
G36*
X80000Y581349D02*
X76810Y581035D01*
X73744Y580104D01*
X70917Y578593D01*
X68440Y576560D01*
X66406Y574083D01*
X64896Y571256D01*
X63965Y568190D01*
X63651Y565000D01*
X63965Y561810D01*
X64896Y558744D01*
X66406Y555917D01*
X68440Y553440D01*
X70917Y551407D01*
X73744Y549896D01*
X76810Y548965D01*
X80000Y548651D01*
X83189Y548965D01*
X86256Y549896D01*
X89083Y551407D01*
X91560Y553440D01*
X93593Y555917D01*
X95104Y558744D01*
X96035Y561810D01*
X96349Y565000D01*
X96035Y568190D01*
X95104Y571256D01*
X93593Y574083D01*
X91560Y576560D01*
X89083Y578593D01*
X86256Y580104D01*
X83189Y581035D01*
X80000Y581349D01*
D02*
G37*
G36*
X918820Y552864D02*
Y543670D01*
X928014D01*
X927819Y545151D01*
X926757Y547715D01*
X925067Y549917D01*
X922866Y551607D01*
X920302Y552669D01*
X918820Y552864D01*
D02*
G37*
G36*
X286230Y544970D02*
X284553Y544749D01*
X281806Y543612D01*
X279448Y541802D01*
X277638Y539444D01*
X276501Y536697D01*
X276113Y533750D01*
Y531270D01*
X286230D01*
Y544970D01*
D02*
G37*
G36*
X942950Y551750D02*
X940530Y551431D01*
X938275Y550497D01*
X936339Y549011D01*
X934853Y547075D01*
X933919Y544820D01*
X933600Y542400D01*
X933919Y539980D01*
X934853Y537725D01*
X936339Y535789D01*
X938275Y534303D01*
X940530Y533369D01*
X942950Y533050D01*
X945370Y533369D01*
X947625Y534303D01*
X949130Y535458D01*
X958169Y526419D01*
X958841Y525970D01*
X958893Y525892D01*
X959974Y525170D01*
X961250Y524916D01*
X962526Y525170D01*
X963607Y525892D01*
X964330Y526974D01*
X964584Y528250D01*
X964330Y529526D01*
X963607Y530607D01*
X962526Y531330D01*
X961250Y531584D01*
X960481Y531431D01*
X951967Y539945D01*
X951981Y539980D01*
X952300Y542400D01*
X951981Y544820D01*
X951047Y547075D01*
X949561Y549011D01*
X947625Y550497D01*
X945370Y551431D01*
X942950Y551750D01*
D02*
G37*
G36*
X916280Y541130D02*
X907086D01*
X907281Y539649D01*
X908343Y537085D01*
X910033Y534883D01*
X912235Y533193D01*
X914799Y532131D01*
X916280Y531936D01*
Y541130D01*
D02*
G37*
G36*
X288770Y544970D02*
Y531270D01*
X298887D01*
Y533750D01*
X298499Y536697D01*
X297362Y539444D01*
X295552Y541802D01*
X293194Y543612D01*
X290447Y544749D01*
X288770Y544970D01*
D02*
G37*
G36*
X163750Y838887D02*
X161270D01*
Y828770D01*
X174970D01*
X174749Y830447D01*
X173612Y833194D01*
X171802Y835552D01*
X169444Y837362D01*
X166697Y838499D01*
X163750Y838887D01*
D02*
G37*
G36*
X158730D02*
X156250D01*
X153303Y838499D01*
X150556Y837362D01*
X148198Y835552D01*
X146388Y833194D01*
X145251Y830447D01*
X145030Y828770D01*
X158730D01*
Y838887D01*
D02*
G37*
G36*
X271156Y840721D02*
Y831270D01*
X280607D01*
X280403Y832818D01*
X279315Y835444D01*
X277585Y837699D01*
X275330Y839429D01*
X272704Y840517D01*
X271156Y840721D01*
D02*
G37*
G36*
X268616D02*
X267068Y840517D01*
X264442Y839429D01*
X262187Y837699D01*
X260457Y835444D01*
X259369Y832818D01*
X259165Y831270D01*
X268616D01*
Y840721D01*
D02*
G37*
G36*
X280607Y828730D02*
X271156D01*
Y819279D01*
X272704Y819483D01*
X275330Y820571D01*
X277585Y822301D01*
X279315Y824556D01*
X280403Y827182D01*
X280607Y828730D01*
D02*
G37*
G36*
X268616D02*
X259165D01*
X259369Y827182D01*
X260457Y824556D01*
X262187Y822301D01*
X264442Y820571D01*
X267068Y819483D01*
X268616Y819279D01*
Y828730D01*
D02*
G37*
G36*
X90000Y842346D02*
X87711Y842044D01*
X85577Y841161D01*
X83745Y839755D01*
X82339Y837923D01*
X81456Y835789D01*
X81154Y833500D01*
X81456Y831211D01*
X82339Y829077D01*
X83745Y827245D01*
X85577Y825839D01*
X87711Y824956D01*
X90000Y824654D01*
X92289Y824956D01*
X94423Y825839D01*
X96255Y827245D01*
X97661Y829077D01*
X98544Y831211D01*
X98846Y833500D01*
X98544Y835789D01*
X97661Y837923D01*
X96255Y839755D01*
X94423Y841161D01*
X92289Y842044D01*
X90000Y842346D01*
D02*
G37*
G36*
X70000D02*
X67711Y842044D01*
X65577Y841161D01*
X63745Y839755D01*
X62339Y837923D01*
X61456Y835789D01*
X61154Y833500D01*
X61456Y831211D01*
X62339Y829077D01*
X63745Y827245D01*
X65577Y825839D01*
X67711Y824956D01*
X70000Y824654D01*
X72289Y824956D01*
X74423Y825839D01*
X76255Y827245D01*
X77661Y829077D01*
X78544Y831211D01*
X78846Y833500D01*
X78544Y835789D01*
X77661Y837923D01*
X76255Y839755D01*
X74423Y841161D01*
X72289Y842044D01*
X70000Y842346D01*
D02*
G37*
G36*
X83730Y908114D02*
X81000D01*
X78771Y907820D01*
X76693Y906960D01*
X74909Y905591D01*
X73540Y903807D01*
X72680Y901729D01*
X72554Y900770D01*
X83730D01*
Y908114D01*
D02*
G37*
G36*
X97446Y898230D02*
X86270D01*
Y890886D01*
X89000D01*
X91229Y891180D01*
X93307Y892040D01*
X95091Y893409D01*
X96460Y895193D01*
X97320Y897271D01*
X97446Y898230D01*
D02*
G37*
G36*
X197005Y918464D02*
X188148D01*
Y904775D01*
X189499Y904952D01*
X191941Y905964D01*
X194039Y907573D01*
X195648Y909671D01*
X196660Y912113D01*
X197005Y914734D01*
Y918464D01*
D02*
G37*
G36*
X89000Y908114D02*
X86270D01*
Y900770D01*
X97446D01*
X97320Y901729D01*
X96460Y903807D01*
X95091Y905591D01*
X93307Y906960D01*
X91229Y907820D01*
X89000Y908114D01*
D02*
G37*
G36*
X710020Y866959D02*
Y853270D01*
X718877D01*
Y857000D01*
X718532Y859621D01*
X717520Y862063D01*
X715911Y864161D01*
X713813Y865770D01*
X711371Y866782D01*
X710020Y866959D01*
D02*
G37*
G36*
X718877Y850730D02*
X710020D01*
Y837041D01*
X711371Y837218D01*
X713813Y838230D01*
X715911Y839839D01*
X717520Y841937D01*
X718532Y844379D01*
X718877Y847000D01*
Y850730D01*
D02*
G37*
G36*
X83730Y898230D02*
X72554D01*
X72680Y897271D01*
X73540Y895193D01*
X74909Y893409D01*
X76693Y892040D01*
X78771Y891180D01*
X81000Y890886D01*
X83730D01*
Y898230D01*
D02*
G37*
G36*
X810250Y1336349D02*
X807060Y1336035D01*
X803994Y1335104D01*
X801167Y1333593D01*
X798690Y1331560D01*
X796657Y1329083D01*
X795146Y1326256D01*
X794215Y1323190D01*
X793901Y1320000D01*
Y1260000D01*
Y916772D01*
X788690Y911560D01*
X786657Y909083D01*
X785146Y906256D01*
X784215Y903189D01*
X783901Y900000D01*
X784215Y896811D01*
X785146Y893744D01*
X786657Y890917D01*
X788690Y888440D01*
X791167Y886407D01*
X793994Y884896D01*
X797061Y883966D01*
X800250Y883651D01*
X803439Y883966D01*
X806506Y884896D01*
X809333Y886407D01*
X811810Y888440D01*
X821810Y898440D01*
X823844Y900917D01*
X825354Y903744D01*
X826285Y906811D01*
X826599Y910000D01*
Y1260000D01*
Y1320000D01*
X826285Y1323190D01*
X825354Y1326256D01*
X823844Y1329083D01*
X821810Y1331560D01*
X819333Y1333593D01*
X816506Y1335104D01*
X813439Y1336035D01*
X810250Y1336349D01*
D02*
G37*
G36*
X174970Y826230D02*
X161270D01*
Y816113D01*
X163750D01*
X166697Y816501D01*
X169444Y817638D01*
X171802Y819448D01*
X173612Y821806D01*
X174749Y824553D01*
X174970Y826230D01*
D02*
G37*
G36*
X163750Y658887D02*
X161270D01*
Y648770D01*
X174970D01*
X174749Y650447D01*
X173612Y653194D01*
X171802Y655552D01*
X169444Y657362D01*
X166697Y658499D01*
X163750Y658887D01*
D02*
G37*
G36*
X158730D02*
X156250D01*
X153303Y658499D01*
X150556Y657362D01*
X148198Y655552D01*
X146388Y653194D01*
X145251Y650447D01*
X145030Y648770D01*
X158730D01*
Y658887D01*
D02*
G37*
G36*
X311270Y744959D02*
Y731270D01*
X320127D01*
Y735000D01*
X319782Y737621D01*
X318770Y740063D01*
X317161Y742161D01*
X315063Y743770D01*
X312621Y744782D01*
X311270Y744959D01*
D02*
G37*
G36*
X80000Y761349D02*
X76810Y761035D01*
X73744Y760104D01*
X70917Y758594D01*
X68440Y756560D01*
X66406Y754083D01*
X64896Y751256D01*
X63965Y748189D01*
X63651Y745000D01*
X63965Y741811D01*
X64896Y738744D01*
X66406Y735917D01*
X68440Y733440D01*
X70917Y731407D01*
X73744Y729896D01*
X76810Y728965D01*
X80000Y728651D01*
X83189Y728965D01*
X86256Y729896D01*
X89083Y731407D01*
X91560Y733440D01*
X93593Y735917D01*
X95104Y738744D01*
X96035Y741811D01*
X96349Y745000D01*
X96035Y748189D01*
X95104Y751256D01*
X93593Y754083D01*
X91560Y756560D01*
X89083Y758594D01*
X86256Y760104D01*
X83189Y761035D01*
X80000Y761349D01*
D02*
G37*
G36*
X70000Y662346D02*
X67711Y662044D01*
X65577Y661161D01*
X63745Y659755D01*
X62339Y657923D01*
X61456Y655789D01*
X61154Y653500D01*
X61456Y651211D01*
X62339Y649077D01*
X63745Y647245D01*
X65577Y645839D01*
X67711Y644956D01*
X70000Y644654D01*
X72289Y644956D01*
X74423Y645839D01*
X76255Y647245D01*
X77661Y649077D01*
X78544Y651211D01*
X78846Y653500D01*
X78544Y655789D01*
X77661Y657923D01*
X76255Y659755D01*
X74423Y661161D01*
X72289Y662044D01*
X70000Y662346D01*
D02*
G37*
G36*
X288770Y654970D02*
Y641270D01*
X298887D01*
Y643750D01*
X298499Y646697D01*
X297362Y649444D01*
X295552Y651802D01*
X293194Y653612D01*
X290447Y654749D01*
X288770Y654970D01*
D02*
G37*
G36*
X903500Y675334D02*
X902224Y675080D01*
X901490Y674590D01*
X486000D01*
X485009Y674393D01*
X484169Y673831D01*
X477840Y667503D01*
X476974Y667330D01*
X475892Y666608D01*
X475170Y665526D01*
X474916Y664250D01*
X475170Y662974D01*
X475892Y661892D01*
X476974Y661170D01*
X477172Y661130D01*
X477590Y659752D01*
X472590Y654753D01*
X471724Y654580D01*
X470643Y653857D01*
X469920Y652776D01*
X469666Y651500D01*
X469920Y650224D01*
X470643Y649143D01*
X471724Y648420D01*
X473000Y648166D01*
X474276Y648420D01*
X475358Y649143D01*
X476080Y650224D01*
X476253Y651090D01*
X481709Y656546D01*
X483125Y656167D01*
X483643Y655393D01*
X484724Y654670D01*
X485130Y654589D01*
X485548Y653211D01*
X419419Y587081D01*
X418857Y586241D01*
X418660Y585250D01*
Y567260D01*
X418170Y566526D01*
X417916Y565250D01*
X418170Y563974D01*
X418893Y562892D01*
X419974Y562170D01*
X421250Y561916D01*
X422526Y562170D01*
X423607Y562892D01*
X424330Y563974D01*
X424584Y565250D01*
X424330Y566526D01*
X423840Y567260D01*
Y584177D01*
X491823Y652160D01*
X494996D01*
X495381Y650890D01*
X494919Y650581D01*
X427669Y583331D01*
X427107Y582491D01*
X426910Y581500D01*
Y520823D01*
X397927Y491840D01*
X363000D01*
X362009Y491643D01*
X361169Y491081D01*
X338169Y468081D01*
X337607Y467241D01*
X337410Y466250D01*
Y453420D01*
X335577Y452661D01*
X333745Y451255D01*
X332339Y449423D01*
X331456Y447290D01*
X331154Y445000D01*
Y435000D01*
X331456Y432711D01*
X332339Y430577D01*
X333745Y428745D01*
X335577Y427339D01*
X337711Y426456D01*
X340000Y426154D01*
X342289Y426456D01*
X344423Y427339D01*
X346255Y428745D01*
X347661Y430577D01*
X348544Y432711D01*
X348846Y435000D01*
Y445000D01*
X348544Y447290D01*
X347661Y449423D01*
X346255Y451255D01*
X344423Y452661D01*
X342590Y453420D01*
Y465177D01*
X364073Y486660D01*
X399000D01*
X399991Y486857D01*
X400831Y487419D01*
X431331Y517919D01*
X431893Y518759D01*
X432090Y519750D01*
Y580427D01*
X497823Y646160D01*
X904490D01*
X905224Y645670D01*
X906500Y645416D01*
X907776Y645670D01*
X908857Y646393D01*
X909580Y647474D01*
X909834Y648750D01*
X909580Y650026D01*
X908857Y651107D01*
X908539Y651320D01*
X907946Y652253D01*
X908224Y652942D01*
X908580Y653474D01*
X908834Y654750D01*
X908580Y656026D01*
X907931Y656998D01*
X907357Y658142D01*
X908080Y659224D01*
X908334Y660500D01*
X908080Y661776D01*
X907357Y662858D01*
X907164Y662987D01*
X906616Y664125D01*
X906897Y664576D01*
X907330Y665224D01*
X907584Y666500D01*
X907330Y667776D01*
X906608Y668857D01*
X906118Y670032D01*
X906580Y670724D01*
X906834Y672000D01*
X906580Y673276D01*
X905857Y674358D01*
X904776Y675080D01*
X903500Y675334D01*
D02*
G37*
G36*
X90000Y662346D02*
X87711Y662044D01*
X85577Y661161D01*
X83745Y659755D01*
X82339Y657923D01*
X81456Y655789D01*
X81154Y653500D01*
X81456Y651211D01*
X82339Y649077D01*
X83745Y647245D01*
X85577Y645839D01*
X87711Y644956D01*
X90000Y644654D01*
X92289Y644956D01*
X94423Y645839D01*
X96255Y647245D01*
X97661Y649077D01*
X98544Y651211D01*
X98846Y653500D01*
X98544Y655789D01*
X97661Y657923D01*
X96255Y659755D01*
X94423Y661161D01*
X92289Y662044D01*
X90000Y662346D01*
D02*
G37*
G36*
X78730Y812500D02*
X76561Y812286D01*
X73255Y811283D01*
X70208Y809654D01*
X67537Y807463D01*
X65346Y804792D01*
X63717Y801745D01*
X62714Y798438D01*
X62500Y796270D01*
X78730D01*
Y812500D01*
D02*
G37*
G36*
X163750Y812607D02*
X156250D01*
X153634Y812262D01*
X151197Y811253D01*
X149104Y809646D01*
X147498Y807553D01*
X146488Y805116D01*
X146144Y802500D01*
X146488Y799884D01*
X147498Y797447D01*
X149104Y795354D01*
X151197Y793747D01*
X153634Y792738D01*
X156250Y792393D01*
X163750D01*
X166366Y792738D01*
X168803Y793747D01*
X170896Y795354D01*
X172502Y797447D01*
X173512Y799884D01*
X173857Y802500D01*
X173512Y805116D01*
X172502Y807553D01*
X170896Y809646D01*
X168803Y811253D01*
X166366Y812262D01*
X163750Y812607D01*
D02*
G37*
G36*
X158730Y826230D02*
X145030D01*
X145251Y824553D01*
X146388Y821806D01*
X148198Y819448D01*
X150556Y817638D01*
X153303Y816501D01*
X156250Y816113D01*
X158730D01*
Y826230D01*
D02*
G37*
G36*
X81270Y812500D02*
Y796270D01*
X97500D01*
X97286Y798438D01*
X96283Y801745D01*
X94655Y804792D01*
X92463Y807463D01*
X89792Y809654D01*
X86745Y811283D01*
X83438Y812286D01*
X81270Y812500D01*
D02*
G37*
G36*
X163750Y787607D02*
X156250D01*
X153634Y787262D01*
X151197Y786253D01*
X149104Y784646D01*
X147498Y782553D01*
X146488Y780116D01*
X146144Y777500D01*
X146488Y774884D01*
X147498Y772447D01*
X149104Y770354D01*
X151197Y768747D01*
X153634Y767738D01*
X156250Y767393D01*
X163750D01*
X166366Y767738D01*
X168803Y768747D01*
X170896Y770354D01*
X172502Y772447D01*
X173512Y774884D01*
X173857Y777500D01*
X173512Y780116D01*
X172502Y782553D01*
X170896Y784646D01*
X168803Y786253D01*
X166366Y787262D01*
X163750Y787607D01*
D02*
G37*
G36*
X441270Y744959D02*
Y731270D01*
X450127D01*
Y735000D01*
X449782Y737621D01*
X448770Y740063D01*
X447161Y742161D01*
X445063Y743770D01*
X442621Y744782D01*
X441270Y744959D01*
D02*
G37*
G36*
X97500Y793730D02*
X81270D01*
Y777500D01*
X83438Y777714D01*
X86745Y778717D01*
X89792Y780346D01*
X92463Y782537D01*
X94655Y785208D01*
X96283Y788255D01*
X97286Y791562D01*
X97500Y793730D01*
D02*
G37*
G36*
X78730D02*
X62500D01*
X62714Y791562D01*
X63717Y788255D01*
X65346Y785208D01*
X67537Y782537D01*
X70208Y780346D01*
X73255Y778717D01*
X76561Y777714D01*
X78730Y777500D01*
Y793730D01*
D02*
G37*
G36*
Y253730D02*
X62500D01*
X62714Y251562D01*
X63717Y248255D01*
X65346Y245208D01*
X67537Y242537D01*
X70208Y240345D01*
X73255Y238717D01*
X76561Y237714D01*
X78730Y237500D01*
Y253730D01*
D02*
G37*
G36*
X163750Y247607D02*
X156250D01*
X153634Y247262D01*
X151197Y246252D01*
X149104Y244646D01*
X147498Y242553D01*
X146488Y240116D01*
X146144Y237500D01*
X146488Y234884D01*
X147498Y232447D01*
X149104Y230354D01*
X151197Y228748D01*
X153634Y227738D01*
X156250Y227394D01*
X163750D01*
X166366Y227738D01*
X168803Y228748D01*
X170896Y230354D01*
X172502Y232447D01*
X173512Y234884D01*
X173857Y237500D01*
X173512Y240116D01*
X172502Y242553D01*
X170896Y244646D01*
X168803Y246252D01*
X166366Y247262D01*
X163750Y247607D01*
D02*
G37*
G36*
X916280Y248064D02*
X914799Y247869D01*
X912235Y246807D01*
X910033Y245117D01*
X908343Y242915D01*
X907281Y240352D01*
X907086Y238870D01*
X916280D01*
Y248064D01*
D02*
G37*
G36*
X97500Y253730D02*
X81270D01*
Y237500D01*
X83438Y237714D01*
X86745Y238717D01*
X89792Y240345D01*
X92463Y242537D01*
X94655Y245208D01*
X96283Y248255D01*
X97286Y251562D01*
X97500Y253730D01*
D02*
G37*
G36*
X460127Y238730D02*
X451270D01*
Y225041D01*
X452621Y225218D01*
X455063Y226230D01*
X457161Y227839D01*
X458770Y229937D01*
X459782Y232379D01*
X460127Y235000D01*
Y238730D01*
D02*
G37*
G36*
X310127D02*
X301270D01*
Y225041D01*
X302621Y225218D01*
X305063Y226230D01*
X307161Y227839D01*
X308770Y229937D01*
X309782Y232379D01*
X310127Y235000D01*
Y238730D01*
D02*
G37*
G36*
X410000Y253846D02*
X407711Y253544D01*
X405577Y252661D01*
X403745Y251255D01*
X402339Y249423D01*
X401456Y247289D01*
X401154Y245000D01*
Y235000D01*
X401456Y232711D01*
X402339Y230577D01*
X403745Y228745D01*
X405577Y227339D01*
X407711Y226456D01*
X410000Y226154D01*
X412289Y226456D01*
X414423Y227339D01*
X416255Y228745D01*
X417661Y230577D01*
X418544Y232711D01*
X418846Y235000D01*
Y245000D01*
X418544Y247289D01*
X417661Y249423D01*
X416255Y251255D01*
X414423Y252661D01*
X412289Y253544D01*
X410000Y253846D01*
D02*
G37*
G36*
X260000D02*
X257711Y253544D01*
X255577Y252661D01*
X253745Y251255D01*
X252339Y249423D01*
X251456Y247289D01*
X251154Y245000D01*
Y235000D01*
X251456Y232711D01*
X252339Y230577D01*
X253745Y228745D01*
X255577Y227339D01*
X257711Y226456D01*
X260000Y226154D01*
X262289Y226456D01*
X264423Y227339D01*
X266255Y228745D01*
X267661Y230577D01*
X268544Y232711D01*
X268846Y235000D01*
Y245000D01*
X268544Y247289D01*
X267661Y249423D01*
X266255Y251255D01*
X264423Y252661D01*
X262289Y253544D01*
X260000Y253846D01*
D02*
G37*
G36*
X928014Y261730D02*
X918820D01*
Y252536D01*
X920302Y252731D01*
X922866Y253793D01*
X925067Y255483D01*
X926757Y257685D01*
X927819Y260249D01*
X928014Y261730D01*
D02*
G37*
G36*
X916280D02*
X907086D01*
X907281Y260249D01*
X908343Y257685D01*
X910033Y255483D01*
X912235Y253793D01*
X914799Y252731D01*
X916280Y252536D01*
Y261730D01*
D02*
G37*
G36*
X78730Y272500D02*
X76561Y272286D01*
X73255Y271283D01*
X70208Y269655D01*
X67537Y267463D01*
X65346Y264792D01*
X63717Y261745D01*
X62714Y258438D01*
X62500Y256270D01*
X78730D01*
Y272500D01*
D02*
G37*
G36*
X942950Y272350D02*
X940530Y272031D01*
X938275Y271097D01*
X936339Y269611D01*
X934853Y267675D01*
X933919Y265420D01*
X933600Y263000D01*
X933919Y260580D01*
X934853Y258325D01*
X936339Y256389D01*
X938275Y254903D01*
X940530Y253969D01*
X942950Y253650D01*
X945370Y253969D01*
X947625Y254903D01*
X949561Y256389D01*
X951047Y258325D01*
X951981Y260580D01*
X952300Y263000D01*
X951981Y265420D01*
X951047Y267675D01*
X949561Y269611D01*
X947625Y271097D01*
X945370Y272031D01*
X942950Y272350D01*
D02*
G37*
G36*
X301270Y254959D02*
Y241270D01*
X310127D01*
Y245000D01*
X309782Y247621D01*
X308770Y250063D01*
X307161Y252161D01*
X305063Y253770D01*
X302621Y254782D01*
X301270Y254959D01*
D02*
G37*
G36*
X918820Y248064D02*
Y238870D01*
X928014D01*
X927819Y240352D01*
X926757Y242915D01*
X925067Y245117D01*
X922866Y246807D01*
X920302Y247869D01*
X918820Y248064D01*
D02*
G37*
G36*
X163750Y272607D02*
X156250D01*
X153634Y272262D01*
X151197Y271252D01*
X149104Y269646D01*
X147498Y267553D01*
X146488Y265116D01*
X146144Y262500D01*
X146488Y259884D01*
X147498Y257447D01*
X149104Y255354D01*
X151197Y253748D01*
X153634Y252738D01*
X156250Y252394D01*
X163750D01*
X166366Y252738D01*
X168803Y253748D01*
X170896Y255354D01*
X172502Y257447D01*
X173512Y259884D01*
X173857Y262500D01*
X173512Y265116D01*
X172502Y267553D01*
X170896Y269646D01*
X168803Y271252D01*
X166366Y272262D01*
X163750Y272607D01*
D02*
G37*
G36*
X451270Y254959D02*
Y241270D01*
X460127D01*
Y245000D01*
X459782Y247621D01*
X458770Y250063D01*
X457161Y252161D01*
X455063Y253770D01*
X452621Y254782D01*
X451270Y254959D01*
D02*
G37*
G36*
X942950Y221550D02*
X940530Y221231D01*
X938275Y220297D01*
X936339Y218811D01*
X934853Y216875D01*
X933919Y214620D01*
X933600Y212200D01*
X933919Y209780D01*
X934853Y207525D01*
X936339Y205589D01*
X938275Y204103D01*
X940530Y203169D01*
X942950Y202850D01*
X945370Y203169D01*
X947625Y204103D01*
X949561Y205589D01*
X951047Y207525D01*
X951981Y209780D01*
X952300Y212200D01*
X951981Y214620D01*
X951047Y216875D01*
X949561Y218811D01*
X947625Y220297D01*
X945370Y221231D01*
X942950Y221550D01*
D02*
G37*
G36*
X788030Y156030D02*
X776658D01*
X776927Y153985D01*
X778207Y150895D01*
X780242Y148242D01*
X782895Y146207D01*
X785985Y144927D01*
X788030Y144658D01*
Y156030D01*
D02*
G37*
G36*
X555250Y161346D02*
X552961Y161044D01*
X550827Y160161D01*
X548995Y158755D01*
X547589Y156923D01*
X546706Y154789D01*
X546404Y152500D01*
Y147500D01*
X546706Y145211D01*
X547589Y143077D01*
X548995Y141245D01*
X550827Y139839D01*
X552961Y138956D01*
X555250Y138654D01*
X557539Y138956D01*
X559673Y139839D01*
X561505Y141245D01*
X562911Y143077D01*
X563794Y145211D01*
X564096Y147500D01*
Y152500D01*
X563794Y154789D01*
X562911Y156923D01*
X561505Y158755D01*
X559673Y160161D01*
X557539Y161044D01*
X555250Y161346D01*
D02*
G37*
G36*
X762630Y168730D02*
X739770D01*
Y145870D01*
X762630D01*
Y168730D01*
D02*
G37*
G36*
X801942Y156030D02*
X790570D01*
Y144658D01*
X792615Y144927D01*
X795705Y146207D01*
X798358Y148242D01*
X800393Y150895D01*
X801673Y153985D01*
X801942Y156030D01*
D02*
G37*
G36*
X970250Y96351D02*
X966128Y96027D01*
X962107Y95062D01*
X958287Y93479D01*
X954761Y91319D01*
X951617Y88633D01*
X948931Y85489D01*
X946771Y81963D01*
X945189Y78143D01*
X944223Y74122D01*
X943899Y70000D01*
X944223Y65878D01*
X945189Y61857D01*
X946771Y58037D01*
X948931Y54511D01*
X951617Y51367D01*
X954761Y48681D01*
X958287Y46521D01*
X962107Y44939D01*
X966128Y43973D01*
X970250Y43649D01*
X974372Y43973D01*
X978393Y44939D01*
X982213Y46521D01*
X985739Y48681D01*
X988883Y51367D01*
X991569Y54511D01*
X993729Y58037D01*
X995312Y61857D01*
X996277Y65878D01*
X996601Y70000D01*
X996277Y74122D01*
X995312Y78143D01*
X993729Y81963D01*
X991569Y85489D01*
X988883Y88633D01*
X985739Y91319D01*
X982213Y93479D01*
X978393Y95062D01*
X974372Y96027D01*
X970250Y96351D01*
D02*
G37*
G36*
X70250D02*
X66128Y96027D01*
X62107Y95062D01*
X58287Y93479D01*
X54761Y91319D01*
X51617Y88633D01*
X48931Y85489D01*
X46771Y81963D01*
X45188Y78143D01*
X44223Y74122D01*
X43899Y70000D01*
X44223Y65878D01*
X45188Y61857D01*
X46771Y58037D01*
X48931Y54511D01*
X51617Y51367D01*
X54761Y48681D01*
X58287Y46521D01*
X62107Y44939D01*
X66128Y43973D01*
X70250Y43649D01*
X74372Y43973D01*
X78393Y44939D01*
X82213Y46521D01*
X85739Y48681D01*
X88883Y51367D01*
X91569Y54511D01*
X93729Y58037D01*
X95311Y61857D01*
X96277Y65878D01*
X96601Y70000D01*
X96277Y74122D01*
X95311Y78143D01*
X93729Y81963D01*
X91569Y85489D01*
X88883Y88633D01*
X85739Y91319D01*
X82213Y93479D01*
X78393Y95062D01*
X74372Y96027D01*
X70250Y96351D01*
D02*
G37*
G36*
X615377Y148730D02*
X606520D01*
Y137541D01*
X607871Y137718D01*
X610313Y138730D01*
X612411Y140339D01*
X614020Y142437D01*
X615032Y144879D01*
X615377Y147500D01*
Y148730D01*
D02*
G37*
G36*
X603980D02*
X595123D01*
Y147500D01*
X595468Y144879D01*
X596480Y142437D01*
X598089Y140339D01*
X600187Y138730D01*
X602629Y137718D01*
X603980Y137541D01*
Y148730D01*
D02*
G37*
G36*
X942950Y196150D02*
X940530Y195831D01*
X938275Y194897D01*
X936339Y193411D01*
X934853Y191475D01*
X933919Y189220D01*
X933600Y186800D01*
X933919Y184380D01*
X934853Y182125D01*
X936339Y180189D01*
X938275Y178703D01*
X940530Y177769D01*
X942950Y177450D01*
X945370Y177769D01*
X947625Y178703D01*
X949561Y180189D01*
X951047Y182125D01*
X951981Y184380D01*
X952300Y186800D01*
X951981Y189220D01*
X951047Y191475D01*
X949561Y193411D01*
X947625Y194897D01*
X945370Y195831D01*
X942950Y196150D01*
D02*
G37*
G36*
X917550D02*
X915130Y195831D01*
X912875Y194897D01*
X910939Y193411D01*
X909453Y191475D01*
X908519Y189220D01*
X908200Y186800D01*
X908519Y184380D01*
X909453Y182125D01*
X910939Y180189D01*
X912875Y178703D01*
X915130Y177769D01*
X917550Y177450D01*
X919970Y177769D01*
X922225Y178703D01*
X924161Y180189D01*
X925647Y182125D01*
X926581Y184380D01*
X926900Y186800D01*
X926581Y189220D01*
X925647Y191475D01*
X924161Y193411D01*
X922225Y194897D01*
X919970Y195831D01*
X917550Y196150D01*
D02*
G37*
G36*
X798000Y224584D02*
X796724Y224330D01*
X795990Y223840D01*
X771500D01*
X770509Y223643D01*
X769669Y223081D01*
X738927Y192340D01*
X519000D01*
X518009Y192143D01*
X517169Y191581D01*
X513655Y188067D01*
X513525Y188093D01*
X512249Y187839D01*
X511167Y187117D01*
X510445Y186035D01*
X510191Y184759D01*
X510445Y183483D01*
X511056Y182569D01*
X511179Y182027D01*
Y181491D01*
X511056Y180949D01*
X510445Y180035D01*
X510191Y178759D01*
X510445Y177483D01*
X511167Y176401D01*
X511292Y176318D01*
X511393Y174858D01*
X510670Y173776D01*
X510416Y172500D01*
X510670Y171224D01*
X511281Y170310D01*
X511404Y169767D01*
Y169233D01*
X511281Y168690D01*
X510670Y167776D01*
X510416Y166500D01*
X510670Y165224D01*
X511393Y164142D01*
X512474Y163420D01*
X513750Y163166D01*
X515026Y163420D01*
X516107Y164142D01*
X516830Y165224D01*
X516941Y165781D01*
X517462Y166129D01*
X520121Y168788D01*
X520683Y169628D01*
X520718Y169805D01*
X522823Y171910D01*
X748000D01*
X748991Y172107D01*
X749831Y172669D01*
X777823Y200660D01*
X795990D01*
X796724Y200170D01*
X798000Y199916D01*
X799276Y200170D01*
X800358Y200893D01*
X801080Y201974D01*
X801334Y203250D01*
X801080Y204526D01*
X800358Y205607D01*
X800346Y205615D01*
Y206885D01*
X800358Y206893D01*
X801080Y207974D01*
X801334Y209250D01*
X801080Y210526D01*
X800358Y211607D01*
X800346Y211615D01*
Y212885D01*
X800358Y212892D01*
X801080Y213974D01*
X801334Y215250D01*
X801080Y216526D01*
X800470Y217440D01*
X800346Y217983D01*
Y218517D01*
X800470Y219060D01*
X801080Y219974D01*
X801334Y221250D01*
X801080Y222526D01*
X800358Y223608D01*
X799276Y224330D01*
X798000Y224584D01*
D02*
G37*
G36*
X80000Y221349D02*
X76810Y221035D01*
X73744Y220104D01*
X70917Y218593D01*
X68440Y216560D01*
X66406Y214083D01*
X64896Y211256D01*
X63965Y208190D01*
X63651Y205000D01*
X63965Y201810D01*
X64896Y198744D01*
X66406Y195917D01*
X68440Y193440D01*
X70917Y191407D01*
X73744Y189896D01*
X76810Y188965D01*
X80000Y188651D01*
X83189Y188965D01*
X86256Y189896D01*
X89083Y191407D01*
X91560Y193440D01*
X93593Y195917D01*
X95104Y198744D01*
X96035Y201810D01*
X96349Y205000D01*
X96035Y208190D01*
X95104Y211256D01*
X93593Y214083D01*
X91560Y216560D01*
X89083Y218593D01*
X86256Y220104D01*
X83189Y221035D01*
X80000Y221349D01*
D02*
G37*
G36*
X606520Y162460D02*
Y151270D01*
X615377D01*
Y152500D01*
X615032Y155121D01*
X614020Y157563D01*
X612411Y159661D01*
X610313Y161270D01*
X607871Y162282D01*
X606520Y162460D01*
D02*
G37*
G36*
X603980D02*
X602629Y162282D01*
X600187Y161270D01*
X598089Y159661D01*
X596480Y157563D01*
X595468Y155121D01*
X595123Y152500D01*
Y151270D01*
X603980D01*
Y162460D01*
D02*
G37*
G36*
X790570Y169942D02*
Y158570D01*
X801942D01*
X801673Y160615D01*
X800393Y163705D01*
X798358Y166358D01*
X795705Y168393D01*
X792615Y169673D01*
X790570Y169942D01*
D02*
G37*
G36*
X788030D02*
X785985Y169673D01*
X782895Y168393D01*
X780242Y166358D01*
X778207Y163705D01*
X776927Y160615D01*
X776658Y158570D01*
X788030D01*
Y169942D01*
D02*
G37*
G36*
X81270Y452500D02*
Y436270D01*
X97500D01*
X97286Y438438D01*
X96283Y441745D01*
X94655Y444792D01*
X92463Y447463D01*
X89792Y449655D01*
X86745Y451283D01*
X83438Y452286D01*
X81270Y452500D01*
D02*
G37*
G36*
X78730D02*
X76561Y452286D01*
X73255Y451283D01*
X70208Y449655D01*
X67537Y447463D01*
X65346Y444792D01*
X63717Y441745D01*
X62714Y438438D01*
X62500Y436270D01*
X78730D01*
Y452500D01*
D02*
G37*
G36*
X378730Y454959D02*
X377379Y454782D01*
X374937Y453770D01*
X372839Y452161D01*
X371230Y450063D01*
X370219Y447621D01*
X370000Y445962D01*
X368719D01*
X368544Y447290D01*
X367661Y449423D01*
X366255Y451255D01*
X364423Y452661D01*
X362289Y453544D01*
X360000Y453846D01*
X357711Y453544D01*
X355577Y452661D01*
X353745Y451255D01*
X352340Y449423D01*
X351456Y447290D01*
X351154Y445000D01*
Y435000D01*
X351456Y432711D01*
X352340Y430577D01*
X353745Y428745D01*
X355577Y427339D01*
X357711Y426456D01*
X360000Y426154D01*
X362289Y426456D01*
X364423Y427339D01*
X366255Y428745D01*
X367661Y430577D01*
X368544Y432711D01*
X368719Y434038D01*
X370000D01*
X370219Y432379D01*
X371230Y429937D01*
X372839Y427839D01*
X374937Y426230D01*
X377379Y425218D01*
X378730Y425041D01*
Y440000D01*
Y454959D01*
D02*
G37*
G36*
X381270D02*
Y441270D01*
X390127D01*
Y445000D01*
X389782Y447621D01*
X388770Y450063D01*
X387161Y452161D01*
X385063Y453770D01*
X382621Y454782D01*
X381270Y454959D01*
D02*
G37*
G36*
X97500Y433730D02*
X81270D01*
Y417500D01*
X83438Y417714D01*
X86745Y418717D01*
X89792Y420345D01*
X92463Y422537D01*
X94655Y425208D01*
X96283Y428255D01*
X97286Y431562D01*
X97500Y433730D01*
D02*
G37*
G36*
X78730D02*
X62500D01*
X62714Y431562D01*
X63717Y428255D01*
X65346Y425208D01*
X67537Y422537D01*
X70208Y420345D01*
X73255Y418717D01*
X76561Y417714D01*
X78730Y417500D01*
Y433730D01*
D02*
G37*
G36*
X163750Y452607D02*
X156250D01*
X153634Y452262D01*
X151197Y451253D01*
X149104Y449646D01*
X147498Y447553D01*
X146488Y445116D01*
X146144Y442500D01*
X146488Y439884D01*
X147498Y437447D01*
X149104Y435354D01*
X151197Y433747D01*
X153634Y432738D01*
X156250Y432393D01*
X163750D01*
X166366Y432738D01*
X168803Y433747D01*
X170896Y435354D01*
X172502Y437447D01*
X173512Y439884D01*
X173857Y442500D01*
X173512Y445116D01*
X172502Y447553D01*
X170896Y449646D01*
X168803Y451253D01*
X166366Y452262D01*
X163750Y452607D01*
D02*
G37*
G36*
X390127Y438730D02*
X381270D01*
Y425041D01*
X382621Y425218D01*
X385063Y426230D01*
X387161Y427839D01*
X388770Y429937D01*
X389782Y432379D01*
X390127Y435000D01*
Y438730D01*
D02*
G37*
G36*
X163750Y478887D02*
X161270D01*
Y468770D01*
X174970D01*
X174749Y470447D01*
X173612Y473194D01*
X171802Y475552D01*
X169444Y477362D01*
X166697Y478499D01*
X163750Y478887D01*
D02*
G37*
G36*
X158730D02*
X156250D01*
X153303Y478499D01*
X150556Y477362D01*
X148198Y475552D01*
X146388Y473194D01*
X145251Y470447D01*
X145030Y468770D01*
X158730D01*
Y478887D01*
D02*
G37*
G36*
X916280Y515730D02*
X907086D01*
X907281Y514249D01*
X908343Y511685D01*
X910033Y509483D01*
X912235Y507793D01*
X914799Y506731D01*
X916280Y506536D01*
Y515730D01*
D02*
G37*
G36*
X942950Y526350D02*
X940530Y526031D01*
X938275Y525097D01*
X936339Y523611D01*
X934853Y521675D01*
X933919Y519420D01*
X933600Y517000D01*
X933919Y514580D01*
X934853Y512325D01*
X936339Y510389D01*
X938275Y508903D01*
X940530Y507969D01*
X942950Y507650D01*
X945370Y507969D01*
X947625Y508903D01*
X949561Y510389D01*
X950394Y510443D01*
X960498Y500340D01*
X960670Y499474D01*
X961393Y498392D01*
X962474Y497670D01*
X963750Y497416D01*
X965026Y497670D01*
X966107Y498392D01*
X966830Y499474D01*
X967084Y500750D01*
X966830Y502026D01*
X966107Y503107D01*
X965026Y503830D01*
X964160Y504002D01*
X952168Y515995D01*
X952300Y517000D01*
X951981Y519420D01*
X951047Y521675D01*
X949561Y523611D01*
X947625Y525097D01*
X945370Y526031D01*
X942950Y526350D01*
D02*
G37*
G36*
X174970Y466230D02*
X161270D01*
Y456113D01*
X163750D01*
X166697Y456501D01*
X169444Y457638D01*
X171802Y459448D01*
X173612Y461806D01*
X174749Y464553D01*
X174970Y466230D01*
D02*
G37*
G36*
X158730D02*
X145030D01*
X145251Y464553D01*
X146388Y461806D01*
X148198Y459448D01*
X150556Y457638D01*
X153303Y456501D01*
X156250Y456113D01*
X158730D01*
Y466230D01*
D02*
G37*
G36*
X90000Y482346D02*
X87711Y482044D01*
X85577Y481161D01*
X83745Y479755D01*
X82339Y477923D01*
X81456Y475789D01*
X81154Y473500D01*
X81456Y471211D01*
X82339Y469077D01*
X83745Y467245D01*
X85577Y465839D01*
X87711Y464956D01*
X90000Y464654D01*
X92289Y464956D01*
X94423Y465839D01*
X96255Y467245D01*
X97661Y469077D01*
X98544Y471211D01*
X98846Y473500D01*
X98544Y475789D01*
X97661Y477923D01*
X96255Y479755D01*
X94423Y481161D01*
X92289Y482044D01*
X90000Y482346D01*
D02*
G37*
G36*
X70000D02*
X67711Y482044D01*
X65577Y481161D01*
X63745Y479755D01*
X62339Y477923D01*
X61456Y475789D01*
X61154Y473500D01*
X61456Y471211D01*
X62339Y469077D01*
X63745Y467245D01*
X65577Y465839D01*
X67711Y464956D01*
X70000Y464654D01*
X72289Y464956D01*
X74423Y465839D01*
X76255Y467245D01*
X77661Y469077D01*
X78544Y471211D01*
X78846Y473500D01*
X78544Y475789D01*
X77661Y477923D01*
X76255Y479755D01*
X74423Y481161D01*
X72289Y482044D01*
X70000Y482346D01*
D02*
G37*
G36*
X163750Y427607D02*
X156250D01*
X153634Y427262D01*
X151197Y426253D01*
X149104Y424646D01*
X147498Y422553D01*
X146488Y420116D01*
X146144Y417500D01*
X146488Y414884D01*
X147498Y412447D01*
X149104Y410354D01*
X151197Y408747D01*
X153634Y407738D01*
X156250Y407393D01*
X163750D01*
X166366Y407738D01*
X168803Y408747D01*
X170896Y410354D01*
X172502Y412447D01*
X173512Y414884D01*
X173857Y417500D01*
X173512Y420116D01*
X172502Y422553D01*
X170896Y424646D01*
X168803Y426253D01*
X166366Y427262D01*
X163750Y427607D01*
D02*
G37*
G36*
X70000Y302346D02*
X67711Y302044D01*
X65577Y301161D01*
X63745Y299755D01*
X62339Y297923D01*
X61456Y295789D01*
X61154Y293500D01*
X61456Y291211D01*
X62339Y289077D01*
X63745Y287245D01*
X65577Y285839D01*
X67711Y284956D01*
X70000Y284654D01*
X72289Y284956D01*
X74423Y285839D01*
X76255Y287245D01*
X77661Y289077D01*
X78544Y291211D01*
X78846Y293500D01*
X78544Y295789D01*
X77661Y297923D01*
X76255Y299755D01*
X74423Y301161D01*
X72289Y302044D01*
X70000Y302346D01*
D02*
G37*
G36*
X174970Y286230D02*
X161270D01*
Y276113D01*
X163750D01*
X166697Y276501D01*
X169444Y277638D01*
X171802Y279448D01*
X173612Y281806D01*
X174749Y284553D01*
X174970Y286230D01*
D02*
G37*
G36*
X158730Y298887D02*
X156250D01*
X153303Y298499D01*
X150556Y297362D01*
X148198Y295552D01*
X146388Y293194D01*
X145251Y290447D01*
X145030Y288770D01*
X158730D01*
Y298887D01*
D02*
G37*
G36*
X90000Y302346D02*
X87711Y302044D01*
X85577Y301161D01*
X83745Y299755D01*
X82339Y297923D01*
X81456Y295789D01*
X81154Y293500D01*
X81456Y291211D01*
X82339Y289077D01*
X83745Y287245D01*
X85577Y285839D01*
X87711Y284956D01*
X90000Y284654D01*
X92289Y284956D01*
X94423Y285839D01*
X96255Y287245D01*
X97661Y289077D01*
X98544Y291211D01*
X98846Y293500D01*
X98544Y295789D01*
X97661Y297923D01*
X96255Y299755D01*
X94423Y301161D01*
X92289Y302044D01*
X90000Y302346D01*
D02*
G37*
G36*
X916280Y273464D02*
X914799Y273269D01*
X912235Y272207D01*
X910033Y270517D01*
X908343Y268316D01*
X907281Y265751D01*
X907086Y264270D01*
X916280D01*
Y273464D01*
D02*
G37*
G36*
X81270Y272500D02*
Y256270D01*
X97500D01*
X97286Y258438D01*
X96283Y261745D01*
X94655Y264792D01*
X92463Y267463D01*
X89792Y269655D01*
X86745Y271283D01*
X83438Y272286D01*
X81270Y272500D01*
D02*
G37*
G36*
X158730Y286230D02*
X145030D01*
X145251Y284553D01*
X146388Y281806D01*
X148198Y279448D01*
X150556Y277638D01*
X153303Y276501D01*
X156250Y276113D01*
X158730D01*
Y286230D01*
D02*
G37*
G36*
X918820Y273464D02*
Y264270D01*
X928014D01*
X927819Y265751D01*
X926757Y268316D01*
X925067Y270517D01*
X922866Y272207D01*
X920302Y273269D01*
X918820Y273464D01*
D02*
G37*
G36*
X301270Y364959D02*
Y351270D01*
X310127D01*
Y355000D01*
X309782Y357621D01*
X308770Y360063D01*
X307161Y362161D01*
X305063Y363770D01*
X302621Y364782D01*
X301270Y364959D01*
D02*
G37*
G36*
X410000Y363846D02*
X407711Y363544D01*
X405577Y362661D01*
X403745Y361255D01*
X402339Y359423D01*
X401456Y357290D01*
X401154Y355000D01*
Y345000D01*
X401456Y342711D01*
X402339Y340577D01*
X403745Y338745D01*
X405577Y337339D01*
X407711Y336456D01*
X410000Y336154D01*
X412289Y336456D01*
X414423Y337339D01*
X416255Y338745D01*
X417661Y340577D01*
X418544Y342711D01*
X418846Y345000D01*
Y355000D01*
X418544Y357290D01*
X417661Y359423D01*
X416255Y361255D01*
X414423Y362661D01*
X412289Y363544D01*
X410000Y363846D01*
D02*
G37*
G36*
X80000Y401349D02*
X76810Y401035D01*
X73744Y400104D01*
X70917Y398593D01*
X68440Y396560D01*
X66406Y394083D01*
X64896Y391256D01*
X63965Y388190D01*
X63651Y385000D01*
X63965Y381810D01*
X64896Y378744D01*
X66406Y375917D01*
X68440Y373440D01*
X70917Y371407D01*
X73744Y369896D01*
X76810Y368965D01*
X80000Y368651D01*
X83189Y368965D01*
X86256Y369896D01*
X89083Y371407D01*
X91560Y373440D01*
X93593Y375917D01*
X95104Y378744D01*
X96035Y381810D01*
X96349Y385000D01*
X96035Y388190D01*
X95104Y391256D01*
X93593Y394083D01*
X91560Y396560D01*
X89083Y398593D01*
X86256Y400104D01*
X83189Y401035D01*
X80000Y401349D01*
D02*
G37*
G36*
X451270Y364959D02*
Y351270D01*
X460127D01*
Y355000D01*
X459782Y357621D01*
X458770Y360063D01*
X457161Y362161D01*
X455063Y363770D01*
X452621Y364782D01*
X451270Y364959D01*
D02*
G37*
G36*
X310127Y348730D02*
X301270D01*
Y335041D01*
X302621Y335218D01*
X305063Y336230D01*
X307161Y337839D01*
X308770Y339937D01*
X309782Y342379D01*
X310127Y345000D01*
Y348730D01*
D02*
G37*
G36*
X163750Y298887D02*
X161270D01*
Y288770D01*
X174970D01*
X174749Y290447D01*
X173612Y293194D01*
X171802Y295552D01*
X169444Y297362D01*
X166697Y298499D01*
X163750Y298887D01*
D02*
G37*
G36*
X260000Y363846D02*
X257711Y363544D01*
X255577Y362661D01*
X253745Y361255D01*
X252339Y359423D01*
X251456Y357290D01*
X251154Y355000D01*
Y345000D01*
X251456Y342711D01*
X252339Y340577D01*
X253745Y338745D01*
X255577Y337339D01*
X257711Y336456D01*
X260000Y336154D01*
X262289Y336456D01*
X264423Y337339D01*
X266255Y338745D01*
X267661Y340577D01*
X268544Y342711D01*
X268846Y345000D01*
Y355000D01*
X268544Y357290D01*
X267661Y359423D01*
X266255Y361255D01*
X264423Y362661D01*
X262289Y363544D01*
X260000Y363846D01*
D02*
G37*
G36*
X460127Y348730D02*
X451270D01*
Y335041D01*
X452621Y335218D01*
X455063Y336230D01*
X457161Y337839D01*
X458770Y339937D01*
X459782Y342379D01*
X460127Y345000D01*
Y348730D01*
D02*
G37*
G36*
X783250Y1229350D02*
X780830Y1229031D01*
X778575Y1228097D01*
X776639Y1226611D01*
X775153Y1224675D01*
X774219Y1222420D01*
X773900Y1220000D01*
X774219Y1217580D01*
X775153Y1215325D01*
X776639Y1213389D01*
X778575Y1211903D01*
X780830Y1210969D01*
X783250Y1210650D01*
X785670Y1210969D01*
X787925Y1211903D01*
X789861Y1213389D01*
X791347Y1215325D01*
X792281Y1217580D01*
X792600Y1220000D01*
X792281Y1222420D01*
X791347Y1224675D01*
X789861Y1226611D01*
X787925Y1228097D01*
X785670Y1229031D01*
X783250Y1229350D01*
D02*
G37*
G36*
X707250D02*
X704830Y1229031D01*
X702575Y1228097D01*
X700639Y1226611D01*
X699153Y1224675D01*
X698219Y1222420D01*
X697900Y1220000D01*
X698219Y1217580D01*
X699153Y1215325D01*
X700639Y1213389D01*
X702575Y1211903D01*
X704830Y1210969D01*
X707250Y1210650D01*
X709670Y1210969D01*
X711925Y1211903D01*
X713861Y1213389D01*
X715347Y1215325D01*
X716281Y1217580D01*
X716600Y1220000D01*
X716281Y1222420D01*
X715347Y1224675D01*
X713861Y1226611D01*
X711925Y1228097D01*
X709670Y1229031D01*
X707250Y1229350D01*
D02*
G37*
G36*
X72209Y1256730D02*
X42291D01*
X42468Y1255379D01*
X43480Y1252937D01*
X45089Y1250839D01*
X47187Y1249230D01*
X49629Y1248219D01*
X51288Y1248000D01*
Y1246719D01*
X49961Y1246544D01*
X47827Y1245661D01*
X45995Y1244255D01*
X44589Y1242423D01*
X43706Y1240289D01*
X43404Y1238000D01*
X43706Y1235711D01*
X44589Y1233577D01*
X45995Y1231745D01*
X47827Y1230339D01*
X49961Y1229456D01*
X52250Y1229154D01*
X62250D01*
X64539Y1229456D01*
X66673Y1230339D01*
X68505Y1231745D01*
X69911Y1233577D01*
X70794Y1235711D01*
X71096Y1238000D01*
X70794Y1240289D01*
X69911Y1242423D01*
X68505Y1244255D01*
X66673Y1245661D01*
X64539Y1246544D01*
X63212Y1246719D01*
Y1248000D01*
X64871Y1248219D01*
X67313Y1249230D01*
X69411Y1250839D01*
X71020Y1252937D01*
X72032Y1255379D01*
X72209Y1256730D01*
D02*
G37*
G36*
X494250Y1225393D02*
X491804Y1224906D01*
X489730Y1223520D01*
X488344Y1221447D01*
X487857Y1219000D01*
X488310Y1216723D01*
X472169Y1200581D01*
X471607Y1199741D01*
X471410Y1198750D01*
Y1176060D01*
X469480Y1174770D01*
X468094Y1172697D01*
X467607Y1170250D01*
X468094Y1167804D01*
X469480Y1165730D01*
X471554Y1164344D01*
X474000Y1163857D01*
X476446Y1164344D01*
X478520Y1165730D01*
X479906Y1167804D01*
X480393Y1170250D01*
X479906Y1172697D01*
X478520Y1174770D01*
X476590Y1176060D01*
Y1197677D01*
X491973Y1213060D01*
X494250Y1212607D01*
X496696Y1213094D01*
X498770Y1214480D01*
X500156Y1216554D01*
X500643Y1219000D01*
X500156Y1221447D01*
X498770Y1223520D01*
X496696Y1224906D01*
X494250Y1225393D01*
D02*
G37*
G36*
X62250Y1226846D02*
X52250D01*
X49961Y1226544D01*
X47827Y1225661D01*
X45995Y1224255D01*
X44589Y1222423D01*
X43706Y1220289D01*
X43404Y1218000D01*
X43706Y1215711D01*
X44589Y1213577D01*
X45995Y1211745D01*
X47827Y1210339D01*
X49961Y1209456D01*
X52250Y1209154D01*
X62250D01*
X64539Y1209456D01*
X66673Y1210339D01*
X68505Y1211745D01*
X69911Y1213577D01*
X70794Y1215711D01*
X71096Y1218000D01*
X70794Y1220289D01*
X69911Y1222423D01*
X68505Y1224255D01*
X66673Y1225661D01*
X64539Y1226544D01*
X62250Y1226846D01*
D02*
G37*
G36*
X407520Y1168376D02*
Y1165270D01*
X410626D01*
X410527Y1165771D01*
X409523Y1167273D01*
X408021Y1168277D01*
X407520Y1168376D01*
D02*
G37*
G36*
X404980D02*
X404479Y1168277D01*
X402977Y1167273D01*
X401973Y1165771D01*
X401874Y1165270D01*
X404980D01*
Y1168376D01*
D02*
G37*
G36*
X62250Y1206846D02*
X52250D01*
X49961Y1206544D01*
X47827Y1205661D01*
X45995Y1204255D01*
X44589Y1202423D01*
X43706Y1200289D01*
X43404Y1198000D01*
X43706Y1195711D01*
X44589Y1193577D01*
X45995Y1191745D01*
X47827Y1190339D01*
X49961Y1189456D01*
X52250Y1189154D01*
X62250D01*
X64539Y1189456D01*
X66673Y1190339D01*
X68505Y1191745D01*
X69911Y1193577D01*
X70794Y1195711D01*
X71096Y1198000D01*
X70794Y1200289D01*
X69911Y1202423D01*
X68505Y1204255D01*
X66673Y1205661D01*
X64539Y1206544D01*
X62250Y1206846D01*
D02*
G37*
G36*
X267250Y1190346D02*
X264961Y1190044D01*
X262827Y1189161D01*
X260995Y1187755D01*
X259590Y1185923D01*
X258785Y1183982D01*
X257406Y1182184D01*
X257315Y1181965D01*
X256012Y1182137D01*
X255794Y1183790D01*
X254911Y1185923D01*
X253505Y1187755D01*
X251673Y1189161D01*
X249540Y1190044D01*
X247250Y1190346D01*
X244961Y1190044D01*
X242827Y1189161D01*
X240995Y1187755D01*
X239590Y1185923D01*
X238706Y1183790D01*
X238404Y1181500D01*
Y1171500D01*
X238706Y1169211D01*
X239590Y1167077D01*
X240995Y1165245D01*
X242827Y1163839D01*
X244961Y1162956D01*
X247250Y1162654D01*
X249540Y1162956D01*
X251673Y1163839D01*
X253505Y1165245D01*
X254911Y1167077D01*
X255794Y1169211D01*
X256012Y1170863D01*
X257315Y1171034D01*
X257406Y1170816D01*
X258785Y1169018D01*
X259590Y1167077D01*
X260995Y1165245D01*
X262827Y1163839D01*
X264961Y1162956D01*
X267250Y1162654D01*
X269540Y1162956D01*
X270550Y1163374D01*
X441627Y992297D01*
X442339Y990577D01*
X443745Y988745D01*
X445577Y987339D01*
X447711Y986456D01*
X450000Y986154D01*
X452289Y986456D01*
X454423Y987339D01*
X456255Y988745D01*
X457661Y990577D01*
X458465Y992518D01*
X459844Y994316D01*
X459935Y994535D01*
X461238Y994363D01*
X461456Y992711D01*
X462339Y990577D01*
X463745Y988745D01*
X465577Y987339D01*
X467711Y986456D01*
X470000Y986154D01*
X472289Y986456D01*
X474423Y987339D01*
X476255Y988745D01*
X477661Y990577D01*
X478544Y992711D01*
X478719Y994038D01*
X480000D01*
X480218Y992379D01*
X481230Y989937D01*
X482839Y987839D01*
X484937Y986230D01*
X487379Y985218D01*
X488730Y985041D01*
Y1000000D01*
X490000D01*
Y1001270D01*
X500127D01*
Y1005000D01*
X499782Y1007621D01*
X498770Y1010063D01*
X497161Y1012161D01*
X496768Y1012462D01*
X497177Y1013664D01*
X609035D01*
X640090Y982610D01*
X639564Y981340D01*
X633323D01*
X610503Y1004160D01*
X610330Y1005026D01*
X609608Y1006107D01*
X608526Y1006830D01*
X607250Y1007084D01*
X605974Y1006830D01*
X604893Y1006107D01*
X604170Y1005026D01*
X603916Y1003750D01*
X603973Y1003464D01*
X602803Y1002838D01*
X601423Y1004218D01*
X601250Y1005084D01*
X600527Y1006165D01*
X599446Y1006888D01*
X598170Y1007142D01*
X596894Y1006888D01*
X595812Y1006165D01*
X595090Y1005084D01*
X594967Y1004466D01*
X593676Y1003886D01*
X592962Y1004359D01*
X592868Y1004830D01*
X592146Y1005911D01*
X591064Y1006634D01*
X589788Y1006888D01*
X588512Y1006634D01*
X587430Y1005911D01*
X586708Y1004830D01*
X586480Y1003685D01*
X586012Y1003397D01*
X585245Y1003124D01*
X584404Y1003964D01*
X584232Y1004830D01*
X583509Y1005911D01*
X582428Y1006634D01*
X581152Y1006888D01*
X579876Y1006634D01*
X578795Y1005911D01*
X578072Y1004830D01*
X577818Y1003554D01*
X578072Y1002278D01*
X578795Y1001197D01*
X579876Y1000474D01*
X580742Y1000302D01*
X620112Y960932D01*
X620062Y960498D01*
X619675Y959662D01*
X394001D01*
X370005Y983657D01*
X370517Y984941D01*
X372621Y985218D01*
X375063Y986230D01*
X377161Y987839D01*
X378770Y989937D01*
X379782Y992379D01*
X380127Y995000D01*
Y998730D01*
X370000D01*
Y1000000D01*
X368730D01*
Y1014959D01*
X367379Y1014782D01*
X364937Y1013770D01*
X362839Y1012161D01*
X361230Y1010063D01*
X360219Y1007621D01*
X360000Y1005962D01*
X358719D01*
X358544Y1007290D01*
X357661Y1009423D01*
X356255Y1011255D01*
X354423Y1012661D01*
X352289Y1013544D01*
X350000Y1013846D01*
X347711Y1013544D01*
X345577Y1012661D01*
X343745Y1011255D01*
X342339Y1009423D01*
X341456Y1007290D01*
X341154Y1005000D01*
Y995000D01*
X341456Y992711D01*
X342339Y990577D01*
X343745Y988745D01*
X345577Y987339D01*
X347711Y986456D01*
X350000Y986154D01*
X352289Y986456D01*
X354423Y987339D01*
X356255Y988745D01*
X357510Y988827D01*
X385060Y961278D01*
X384434Y960108D01*
X383000Y960393D01*
X354898D01*
X336393Y978898D01*
Y988925D01*
X337661Y990577D01*
X338544Y992711D01*
X338846Y995000D01*
Y1005000D01*
X338544Y1007290D01*
X337661Y1009423D01*
X336255Y1011255D01*
X334423Y1012661D01*
X332289Y1013544D01*
X330000Y1013846D01*
X327711Y1013544D01*
X325577Y1012661D01*
X323745Y1011255D01*
X322339Y1009423D01*
X321456Y1007290D01*
X321154Y1005000D01*
Y995000D01*
X321456Y992711D01*
X322339Y990577D01*
X323607Y988925D01*
Y976250D01*
X324094Y973804D01*
X325480Y971730D01*
X335643Y961566D01*
X335157Y960393D01*
X275609D01*
X246690Y989312D01*
X247661Y990577D01*
X248544Y992711D01*
X248846Y995000D01*
Y1005000D01*
X248544Y1007290D01*
X247661Y1009423D01*
X246255Y1011255D01*
X244423Y1012661D01*
X242289Y1013544D01*
X240000Y1013846D01*
X237711Y1013544D01*
X235577Y1012661D01*
X233745Y1011255D01*
X232339Y1009423D01*
X231456Y1007290D01*
X231154Y1005000D01*
Y995000D01*
X231456Y992711D01*
X232339Y990577D01*
X233607Y988925D01*
Y986961D01*
X234094Y984515D01*
X235480Y982441D01*
X256354Y961566D01*
X255868Y960393D01*
X184148D01*
X156393Y988148D01*
Y988925D01*
X157661Y990577D01*
X158544Y992711D01*
X158846Y995000D01*
Y1005000D01*
X158544Y1007290D01*
X157661Y1009423D01*
X156255Y1011255D01*
X154423Y1012661D01*
X152289Y1013544D01*
X150000Y1013846D01*
X147711Y1013544D01*
X145577Y1012661D01*
X143745Y1011255D01*
X142339Y1009423D01*
X141456Y1007290D01*
X141154Y1005000D01*
Y995000D01*
X141456Y992711D01*
X142339Y990577D01*
X143607Y988925D01*
Y985500D01*
X144094Y983054D01*
X145480Y980980D01*
X172459Y954000D01*
X162358Y943898D01*
X160972Y941824D01*
X160485Y939378D01*
Y930809D01*
X159217Y929157D01*
X158334Y927023D01*
X158032Y924734D01*
Y914734D01*
X158334Y912445D01*
X159217Y910311D01*
X160623Y908479D01*
X162455Y907073D01*
X164589Y906190D01*
X166878Y905888D01*
X169167Y906190D01*
X171301Y907073D01*
X173133Y908479D01*
X174539Y910311D01*
X175422Y912445D01*
X175597Y913772D01*
X176878D01*
X177096Y912113D01*
X178108Y909671D01*
X179717Y907573D01*
X181815Y905964D01*
X184257Y904952D01*
X185608Y904775D01*
Y919734D01*
Y934693D01*
X184257Y934516D01*
X181815Y933504D01*
X179717Y931895D01*
X178108Y929797D01*
X177096Y927355D01*
X176878Y925696D01*
X175597D01*
X175422Y927023D01*
X174539Y929157D01*
X173271Y930809D01*
Y936730D01*
X184148Y947607D01*
X270313D01*
X283607Y934313D01*
Y931075D01*
X282339Y929423D01*
X281456Y927289D01*
X281154Y925000D01*
Y915000D01*
X281456Y912710D01*
X282339Y910577D01*
X283607Y908925D01*
Y834778D01*
X284094Y832332D01*
X285250Y830601D01*
X285171Y830000D01*
X285498Y827514D01*
X286458Y825196D01*
X287985Y823207D01*
X288385Y822899D01*
Y803176D01*
X258230Y773020D01*
X245480Y760270D01*
X244094Y758196D01*
X243607Y755750D01*
Y747093D01*
X242434Y746607D01*
X232020Y757020D01*
X229946Y758406D01*
X227500Y758893D01*
X171475D01*
X170896Y759646D01*
X168803Y761253D01*
X166366Y762262D01*
X163750Y762607D01*
X156250D01*
X153634Y762262D01*
X151197Y761253D01*
X149104Y759646D01*
X147498Y757553D01*
X146488Y755116D01*
X146144Y752500D01*
X146488Y749884D01*
X147498Y747447D01*
X149104Y745354D01*
X151197Y743747D01*
X153634Y742738D01*
X156250Y742393D01*
X163750D01*
X166366Y742738D01*
X168803Y743747D01*
X170896Y745354D01*
X171475Y746107D01*
X224852D01*
X241154Y729805D01*
Y725000D01*
X241456Y722710D01*
X242339Y720577D01*
X243607Y718925D01*
Y714750D01*
X244094Y712304D01*
X245480Y710230D01*
X305119Y650590D01*
X303748Y648803D01*
X302738Y646366D01*
X302394Y643750D01*
Y636250D01*
X302738Y633634D01*
X303748Y631197D01*
X305354Y629104D01*
X306107Y628525D01*
Y578893D01*
X171475D01*
X170896Y579646D01*
X168803Y581253D01*
X166366Y582262D01*
X163750Y582607D01*
X156250D01*
X153634Y582262D01*
X151197Y581253D01*
X149104Y579646D01*
X147498Y577553D01*
X146488Y575116D01*
X146144Y572500D01*
X146488Y569884D01*
X147498Y567447D01*
X149104Y565354D01*
X151197Y563747D01*
X153634Y562738D01*
X156250Y562393D01*
X163750D01*
X166366Y562738D01*
X168803Y563747D01*
X170896Y565354D01*
X171475Y566107D01*
X306107D01*
Y541475D01*
X305354Y540896D01*
X303748Y538803D01*
X302738Y536366D01*
X302394Y533750D01*
Y526250D01*
X302738Y523634D01*
X303748Y521197D01*
X305354Y519104D01*
X306107Y518526D01*
Y447500D01*
X306594Y445054D01*
X307980Y442980D01*
X311154Y439805D01*
Y435000D01*
X311456Y432711D01*
X312339Y430577D01*
X313607Y428925D01*
Y418148D01*
X280000Y384541D01*
X267520Y397020D01*
X265446Y398406D01*
X263000Y398893D01*
X171475D01*
X170896Y399646D01*
X168803Y401253D01*
X166366Y402262D01*
X163750Y402607D01*
X156250D01*
X153634Y402262D01*
X151197Y401253D01*
X149104Y399646D01*
X147498Y397553D01*
X146488Y395116D01*
X146144Y392500D01*
X146488Y389884D01*
X147498Y387447D01*
X149104Y385354D01*
X151197Y383747D01*
X153634Y382738D01*
X156250Y382393D01*
X163750D01*
X166366Y382738D01*
X168803Y383747D01*
X170896Y385354D01*
X171475Y386107D01*
X260352D01*
X273607Y372852D01*
Y361075D01*
X272339Y359423D01*
X271456Y357290D01*
X271154Y355000D01*
Y345000D01*
X271456Y342711D01*
X272339Y340577D01*
X273607Y338925D01*
Y251075D01*
X272339Y249423D01*
X271456Y247289D01*
X271154Y245000D01*
Y235000D01*
X271456Y232711D01*
X272339Y230577D01*
X273607Y228925D01*
Y220648D01*
X271852Y218893D01*
X171475D01*
X170896Y219646D01*
X168803Y221252D01*
X166366Y222262D01*
X163750Y222607D01*
X156250D01*
X153634Y222262D01*
X151197Y221252D01*
X149104Y219646D01*
X147498Y217553D01*
X146488Y215116D01*
X146144Y212500D01*
X146488Y209884D01*
X147498Y207447D01*
X149104Y205354D01*
X151197Y203748D01*
X153634Y202738D01*
X156250Y202393D01*
X163750D01*
X166366Y202738D01*
X168803Y203748D01*
X170896Y205354D01*
X171475Y206107D01*
X274500D01*
X276946Y206594D01*
X279020Y207980D01*
X284520Y213480D01*
X285906Y215554D01*
X286393Y218000D01*
Y228925D01*
X287661Y230577D01*
X288544Y232711D01*
X288719Y234038D01*
X290000D01*
X290218Y232379D01*
X291230Y229937D01*
X292839Y227839D01*
X294937Y226230D01*
X297379Y225218D01*
X298730Y225041D01*
Y240000D01*
Y254959D01*
X297379Y254782D01*
X294937Y253770D01*
X292839Y252161D01*
X291230Y250063D01*
X290218Y247621D01*
X290000Y245962D01*
X288719D01*
X288544Y247289D01*
X287661Y249423D01*
X286393Y251075D01*
Y338925D01*
X287661Y340577D01*
X288544Y342711D01*
X288719Y344038D01*
X290000D01*
X290218Y342379D01*
X291230Y339937D01*
X292839Y337839D01*
X294937Y336230D01*
X297379Y335218D01*
X298730Y335041D01*
Y350000D01*
Y364959D01*
X297379Y364782D01*
X294937Y363770D01*
X292839Y362161D01*
X291230Y360063D01*
X290218Y357621D01*
X290000Y355962D01*
X288719D01*
X288544Y357290D01*
X287661Y359423D01*
X286393Y361075D01*
Y369107D01*
X415102D01*
X423402Y360807D01*
X422339Y359423D01*
X421456Y357290D01*
X421154Y355000D01*
Y345000D01*
X421456Y342711D01*
X422339Y340577D01*
X423607Y338925D01*
Y251075D01*
X422339Y249423D01*
X421456Y247289D01*
X421154Y245000D01*
Y235000D01*
X421456Y232711D01*
X422339Y230577D01*
X423745Y228745D01*
X425577Y227339D01*
X427711Y226456D01*
X430000Y226154D01*
X432289Y226456D01*
X434423Y227339D01*
X436255Y228745D01*
X437661Y230577D01*
X438544Y232711D01*
X438719Y234038D01*
X440000D01*
X440218Y232379D01*
X441230Y229937D01*
X442839Y227839D01*
X444937Y226230D01*
X447379Y225218D01*
X448730Y225041D01*
Y240000D01*
Y254959D01*
X447379Y254782D01*
X444937Y253770D01*
X442839Y252161D01*
X441230Y250063D01*
X440218Y247621D01*
X440000Y245962D01*
X438719D01*
X438544Y247289D01*
X437661Y249423D01*
X436393Y251075D01*
Y338925D01*
X437661Y340577D01*
X438544Y342711D01*
X438719Y344038D01*
X440000D01*
X440218Y342379D01*
X441230Y339937D01*
X442839Y337839D01*
X444937Y336230D01*
X447379Y335218D01*
X448730Y335041D01*
Y350000D01*
Y364959D01*
X447379Y364782D01*
X444937Y363770D01*
X442839Y362161D01*
X441230Y360063D01*
X440218Y357621D01*
X440000Y355962D01*
X438719D01*
X438544Y357290D01*
X437661Y359423D01*
X436393Y361075D01*
Y363250D01*
X435906Y365696D01*
X434520Y367770D01*
X422270Y380020D01*
X420196Y381406D01*
X417750Y381893D01*
X297093D01*
X296607Y383066D01*
X324520Y410980D01*
X325906Y413054D01*
X326393Y415500D01*
Y428925D01*
X327661Y430577D01*
X328544Y432711D01*
X328846Y435000D01*
Y445000D01*
X328544Y447290D01*
X327661Y449423D01*
X326255Y451255D01*
X324423Y452661D01*
X322289Y453544D01*
X320000Y453846D01*
X319848Y453826D01*
X318893Y454663D01*
Y518526D01*
X319646Y519104D01*
X321253Y521197D01*
X322262Y523634D01*
X322607Y526250D01*
Y533750D01*
X322262Y536366D01*
X321253Y538803D01*
X319646Y540896D01*
X318893Y541475D01*
Y628525D01*
X319646Y629104D01*
X321253Y631197D01*
X322262Y633634D01*
X322607Y636250D01*
Y643750D01*
X322262Y646366D01*
X321253Y648803D01*
X319646Y650896D01*
X318893Y651475D01*
Y652250D01*
X318406Y654696D01*
X317020Y656770D01*
X256393Y717398D01*
Y718925D01*
X257661Y720577D01*
X258544Y722710D01*
X258846Y725000D01*
Y735000D01*
X258544Y737289D01*
X257661Y739423D01*
X256393Y741075D01*
Y753102D01*
X265398Y762107D01*
X338852D01*
X371154Y729805D01*
Y725000D01*
X371456Y722710D01*
X372339Y720577D01*
X373745Y718745D01*
X374899Y717860D01*
X374468Y716590D01*
X317508D01*
X317239Y717381D01*
X317176Y717860D01*
X318770Y719937D01*
X319782Y722379D01*
X320127Y725000D01*
Y728730D01*
X310000D01*
Y730000D01*
X308730D01*
Y744959D01*
X307379Y744782D01*
X304937Y743770D01*
X302839Y742161D01*
X301230Y740063D01*
X300218Y737621D01*
X300000Y735962D01*
X298719D01*
X298544Y737289D01*
X297661Y739423D01*
X296255Y741255D01*
X294423Y742661D01*
X292289Y743544D01*
X290000Y743846D01*
X287711Y743544D01*
X285577Y742661D01*
X283745Y741255D01*
X282339Y739423D01*
X281456Y737289D01*
X281154Y735000D01*
Y725000D01*
X281260Y724199D01*
X280057Y723605D01*
X278824Y724838D01*
X278846Y725000D01*
Y735000D01*
X278544Y737289D01*
X277661Y739423D01*
X276255Y741255D01*
X274423Y742661D01*
X272289Y743544D01*
X270000Y743846D01*
X267711Y743544D01*
X265577Y742661D01*
X263745Y741255D01*
X262339Y739423D01*
X261456Y737289D01*
X261154Y735000D01*
Y725000D01*
X261456Y722710D01*
X262339Y720577D01*
X263745Y718745D01*
X265577Y717339D01*
X267711Y716456D01*
X270000Y716154D01*
X272289Y716456D01*
X274423Y717339D01*
X276255Y718745D01*
X277510Y718827D01*
X288919Y707419D01*
X289759Y706857D01*
X290750Y706660D01*
X477250D01*
X478241Y706857D01*
X479081Y707419D01*
X496073Y724410D01*
X564990D01*
X565724Y723920D01*
X567000Y723666D01*
X568276Y723920D01*
X569357Y724642D01*
X570080Y725724D01*
X570334Y727000D01*
X570080Y728276D01*
X569357Y729358D01*
X568276Y730080D01*
X567000Y730334D01*
X565724Y730080D01*
X564990Y729590D01*
X495000D01*
X494009Y729393D01*
X493169Y728831D01*
X476222Y711884D01*
X474978Y712010D01*
X474522Y713110D01*
X495823Y734410D01*
X564240D01*
X564974Y733920D01*
X566250Y733666D01*
X567526Y733920D01*
X568607Y734642D01*
X569330Y735724D01*
X569584Y737000D01*
X569330Y738276D01*
X568607Y739358D01*
X567526Y740080D01*
X566250Y740334D01*
X564974Y740080D01*
X564240Y739590D01*
X494750D01*
X493759Y739393D01*
X492919Y738831D01*
X470677Y716590D01*
X447508D01*
X447239Y717381D01*
X447176Y717860D01*
X448770Y719937D01*
X449782Y722379D01*
X450127Y725000D01*
Y728730D01*
X440000D01*
Y730000D01*
X438730D01*
Y744959D01*
X437379Y744782D01*
X434937Y743770D01*
X432839Y742161D01*
X431230Y740063D01*
X430218Y737621D01*
X430000Y735962D01*
X428719D01*
X428544Y737289D01*
X427661Y739423D01*
X426255Y741255D01*
X424423Y742661D01*
X422590Y743420D01*
Y779927D01*
X514073Y871410D01*
X562500D01*
X563491Y871607D01*
X564331Y872169D01*
X634823Y942660D01*
X770740D01*
X771474Y942170D01*
X772750Y941916D01*
X774026Y942170D01*
X775107Y942893D01*
X775830Y943974D01*
X776084Y945250D01*
X775965Y945846D01*
X776847Y947116D01*
X786152D01*
X786886Y946626D01*
X788162Y946372D01*
X789438Y946626D01*
X790519Y947348D01*
X791242Y948430D01*
X791496Y949706D01*
X791242Y950982D01*
X790519Y952064D01*
X790633Y953515D01*
X790757Y953700D01*
X791011Y954976D01*
X790757Y956252D01*
X790034Y957334D01*
X788953Y958056D01*
X788173Y959506D01*
X788194Y959612D01*
X787940Y960888D01*
X787217Y961970D01*
X787129Y962029D01*
X786600Y963494D01*
X786854Y964770D01*
X786600Y966046D01*
X785878Y967128D01*
X785662Y967271D01*
X785655Y967282D01*
X785330Y968724D01*
X785362Y968883D01*
X785362Y968883D01*
X785464Y969394D01*
X785584Y970000D01*
X785330Y971276D01*
X784607Y972357D01*
X784536Y972405D01*
X784130Y974084D01*
X784384Y975360D01*
X784130Y976636D01*
X783408Y977718D01*
X782326Y978440D01*
X781460Y978613D01*
X774499Y985573D01*
X773659Y986135D01*
X772668Y986332D01*
X643693D01*
X611939Y1018085D01*
X611099Y1018647D01*
X610108Y1018844D01*
X486254D01*
X485263Y1018647D01*
X484423Y1018085D01*
X477510Y1011173D01*
X476255Y1011255D01*
X474423Y1012661D01*
X472289Y1013544D01*
X470000Y1013846D01*
X467711Y1013544D01*
X465577Y1012661D01*
X463745Y1011255D01*
X462339Y1009423D01*
X461456Y1007290D01*
X461238Y1005637D01*
X459935Y1005465D01*
X459844Y1005684D01*
X458465Y1007482D01*
X457661Y1009423D01*
X456255Y1011255D01*
X454423Y1012661D01*
X452703Y1013373D01*
X281538Y1184538D01*
X279184Y1186344D01*
X276442Y1187480D01*
X273500Y1187867D01*
X273358D01*
X271673Y1189161D01*
X269540Y1190044D01*
X267250Y1190346D01*
D02*
G37*
G36*
X333730Y1279980D02*
X325404D01*
X325569Y1278723D01*
X326544Y1276368D01*
X328096Y1274346D01*
X330118Y1272795D01*
X332473Y1271819D01*
X333730Y1271654D01*
Y1279980D01*
D02*
G37*
G36*
X164596D02*
X156270D01*
Y1271654D01*
X157527Y1271819D01*
X159882Y1272795D01*
X161904Y1274346D01*
X163456Y1276368D01*
X164431Y1278723D01*
X164596Y1279980D01*
D02*
G37*
G36*
X513730D02*
X505404D01*
X505569Y1278723D01*
X506544Y1276368D01*
X508096Y1274346D01*
X510118Y1272795D01*
X512473Y1271819D01*
X513730Y1271654D01*
Y1279980D01*
D02*
G37*
G36*
X344596D02*
X336270D01*
Y1271654D01*
X337527Y1271819D01*
X339882Y1272795D01*
X341904Y1274346D01*
X343455Y1276368D01*
X344431Y1278723D01*
X344596Y1279980D01*
D02*
G37*
G36*
X153730D02*
X145404D01*
X145569Y1278723D01*
X146545Y1276368D01*
X148096Y1274346D01*
X150118Y1272795D01*
X152473Y1271819D01*
X153730Y1271654D01*
Y1279980D01*
D02*
G37*
G36*
X55980Y1268127D02*
X52250D01*
X49629Y1267782D01*
X47187Y1266770D01*
X45089Y1265161D01*
X43480Y1263063D01*
X42468Y1260621D01*
X42291Y1259270D01*
X55980D01*
Y1268127D01*
D02*
G37*
G36*
X850250Y1246393D02*
X847804Y1245906D01*
X845730Y1244520D01*
X844344Y1242447D01*
X843857Y1240000D01*
X844310Y1237723D01*
X838419Y1231831D01*
X837857Y1230991D01*
X837660Y1230000D01*
Y886094D01*
X837061Y886035D01*
X833994Y885104D01*
X831167Y883594D01*
X828690Y881560D01*
X826228Y879099D01*
X766272D01*
X742560Y902810D01*
X740083Y904844D01*
X737256Y906354D01*
X734190Y907285D01*
X731000Y907599D01*
X702288D01*
X700117Y907812D01*
Y913532D01*
X701320Y913941D01*
X701589Y913589D01*
X703687Y911980D01*
X706129Y910968D01*
X707480Y910791D01*
Y925750D01*
Y940709D01*
X706129Y940532D01*
X703687Y939520D01*
X701589Y937911D01*
X699980Y935813D01*
X698969Y933371D01*
X698930Y933082D01*
X697603Y932726D01*
X697215Y933232D01*
X696411Y935173D01*
X695005Y937005D01*
X693173Y938411D01*
X691039Y939294D01*
X688750Y939596D01*
X686461Y939294D01*
X684327Y938411D01*
X682495Y937005D01*
X681089Y935173D01*
X680285Y933232D01*
X678906Y931434D01*
X678815Y931216D01*
X677512Y931387D01*
X677294Y933039D01*
X676411Y935173D01*
X675005Y937005D01*
X673173Y938411D01*
X671039Y939294D01*
X668750Y939596D01*
X666461Y939294D01*
X664327Y938411D01*
X662495Y937005D01*
X661089Y935173D01*
X660206Y933039D01*
X659904Y930750D01*
Y920750D01*
X660206Y918460D01*
X661089Y916327D01*
X662495Y914495D01*
X664327Y913089D01*
X666461Y912206D01*
X668750Y911904D01*
X671039Y912206D01*
X673173Y913089D01*
X675005Y914495D01*
X676113Y915939D01*
X677383Y915508D01*
Y862242D01*
X676113Y861811D01*
X675005Y863255D01*
X673173Y864661D01*
X671039Y865544D01*
X668750Y865846D01*
X666461Y865544D01*
X664327Y864661D01*
X662495Y863255D01*
X661089Y861423D01*
X660206Y859289D01*
X659904Y857000D01*
Y847000D01*
X660206Y844711D01*
X661089Y842577D01*
X662495Y840745D01*
X664327Y839339D01*
X666461Y838456D01*
X668750Y838154D01*
X671039Y838456D01*
X673173Y839339D01*
X675005Y840745D01*
X676411Y842577D01*
X677294Y844711D01*
X677512Y846363D01*
X678815Y846535D01*
X678906Y846316D01*
X680285Y844518D01*
X681089Y842577D01*
X682495Y840745D01*
X684327Y839339D01*
X686461Y838456D01*
X688750Y838154D01*
X691039Y838456D01*
X693173Y839339D01*
X695005Y840745D01*
X696411Y842577D01*
X697215Y844518D01*
X697603Y845024D01*
X698930Y844668D01*
X698969Y844379D01*
X699980Y841937D01*
X701589Y839839D01*
X703687Y838230D01*
X706129Y837218D01*
X707480Y837041D01*
Y852000D01*
Y866959D01*
X706129Y866782D01*
X703687Y865770D01*
X701589Y864161D01*
X701320Y863809D01*
X700117Y864218D01*
Y874901D01*
X724228D01*
X747940Y851190D01*
X750417Y849156D01*
X753244Y847646D01*
X756311Y846715D01*
X759500Y846401D01*
X833000D01*
X836189Y846715D01*
X839256Y847646D01*
X842083Y849156D01*
X844560Y851190D01*
X851810Y858440D01*
X853844Y860917D01*
X855354Y863744D01*
X856285Y866811D01*
X856599Y870000D01*
X856285Y873189D01*
X855354Y876256D01*
X853844Y879083D01*
X851810Y881560D01*
X849333Y883594D01*
X846506Y885104D01*
X843439Y886035D01*
X842840Y886094D01*
Y1228927D01*
X847973Y1234060D01*
X850250Y1233607D01*
X852696Y1234094D01*
X854770Y1235480D01*
X856156Y1237554D01*
X856643Y1240000D01*
X856156Y1242447D01*
X854770Y1244520D01*
X852696Y1245906D01*
X850250Y1246393D01*
D02*
G37*
G36*
X593410Y1289660D02*
X576590D01*
Y1272840D01*
X593410D01*
Y1278910D01*
X640677D01*
X651169Y1268419D01*
X652009Y1267857D01*
X653000Y1267660D01*
X659440D01*
X660730Y1265730D01*
X662804Y1264344D01*
X665250Y1263857D01*
X667696Y1264344D01*
X669770Y1265730D01*
X671156Y1267804D01*
X671643Y1270250D01*
X671156Y1272696D01*
X669770Y1274770D01*
X667696Y1276156D01*
X665250Y1276643D01*
X662804Y1276156D01*
X660730Y1274770D01*
X659440Y1272840D01*
X654073D01*
X643581Y1283331D01*
X642741Y1283893D01*
X641750Y1284090D01*
X593410D01*
Y1289660D01*
D02*
G37*
G36*
X62250Y1268127D02*
X58520D01*
Y1259270D01*
X72209D01*
X72032Y1260621D01*
X71020Y1263063D01*
X69411Y1265161D01*
X67313Y1266770D01*
X64871Y1267782D01*
X62250Y1268127D01*
D02*
G37*
G36*
X942950Y1117150D02*
X940530Y1116831D01*
X938275Y1115897D01*
X936339Y1114411D01*
X934853Y1112475D01*
X933919Y1110220D01*
X933600Y1107800D01*
X933919Y1105380D01*
X934853Y1103125D01*
X936339Y1101189D01*
X938275Y1099703D01*
X940530Y1098769D01*
X942950Y1098450D01*
X945370Y1098769D01*
X947625Y1099703D01*
X949561Y1101189D01*
X951047Y1103125D01*
X951981Y1105380D01*
X952300Y1107800D01*
X951981Y1110220D01*
X951047Y1112475D01*
X949561Y1114411D01*
X947625Y1115897D01*
X945370Y1116831D01*
X942950Y1117150D01*
D02*
G37*
G36*
X917550D02*
X915130Y1116831D01*
X912875Y1115897D01*
X910939Y1114411D01*
X909453Y1112475D01*
X908519Y1110220D01*
X908200Y1107800D01*
X908519Y1105380D01*
X909453Y1103125D01*
X910939Y1101189D01*
X912875Y1099703D01*
X915130Y1098769D01*
X917550Y1098450D01*
X919970Y1098769D01*
X922225Y1099703D01*
X924161Y1101189D01*
X925647Y1103125D01*
X926581Y1105380D01*
X926900Y1107800D01*
X926581Y1110220D01*
X925647Y1112475D01*
X924161Y1114411D01*
X922225Y1115897D01*
X919970Y1116831D01*
X917550Y1117150D01*
D02*
G37*
G36*
X97446Y1118230D02*
X86270D01*
Y1110886D01*
X89000D01*
X91229Y1111180D01*
X93307Y1112040D01*
X95091Y1113409D01*
X96460Y1115193D01*
X97320Y1117271D01*
X97446Y1118230D01*
D02*
G37*
G36*
X83730D02*
X72554D01*
X72680Y1117271D01*
X73540Y1115193D01*
X74909Y1113409D01*
X76693Y1112040D01*
X78771Y1111180D01*
X81000Y1110886D01*
X83730D01*
Y1118230D01*
D02*
G37*
G36*
X89000Y1106833D02*
X81000D01*
X79102Y1106583D01*
X77334Y1105850D01*
X75815Y1104685D01*
X74650Y1103166D01*
X73917Y1101398D01*
X73667Y1099500D01*
X73917Y1097602D01*
X74650Y1095834D01*
X75815Y1094315D01*
X77334Y1093150D01*
X79102Y1092417D01*
X81000Y1092167D01*
X89000D01*
X90898Y1092417D01*
X92666Y1093150D01*
X94185Y1094315D01*
X95350Y1095834D01*
X96083Y1097602D01*
X96333Y1099500D01*
X96083Y1101398D01*
X95350Y1103166D01*
X94185Y1104685D01*
X92666Y1105850D01*
X90898Y1106583D01*
X89000Y1106833D01*
D02*
G37*
G36*
X464520Y1077376D02*
Y1074270D01*
X467626D01*
X467527Y1074771D01*
X466523Y1076273D01*
X465021Y1077277D01*
X464520Y1077376D01*
D02*
G37*
G36*
X461980D02*
X461479Y1077277D01*
X459977Y1076273D01*
X458973Y1074771D01*
X458874Y1074270D01*
X461980D01*
Y1077376D01*
D02*
G37*
G36*
X918820Y1092864D02*
Y1083670D01*
X928014D01*
X927819Y1085152D01*
X926757Y1087716D01*
X925067Y1089917D01*
X922866Y1091607D01*
X920302Y1092669D01*
X918820Y1092864D01*
D02*
G37*
G36*
X916280D02*
X914799Y1092669D01*
X912234Y1091607D01*
X910033Y1089917D01*
X908343Y1087716D01*
X907281Y1085152D01*
X907086Y1083670D01*
X916280D01*
Y1092864D01*
D02*
G37*
G36*
X410626Y1162730D02*
X407520D01*
Y1159624D01*
X408021Y1159723D01*
X409523Y1160727D01*
X410527Y1162229D01*
X410626Y1162730D01*
D02*
G37*
G36*
X404980D02*
X401874D01*
X401973Y1162229D01*
X402977Y1160727D01*
X404479Y1159723D01*
X404980Y1159624D01*
Y1162730D01*
D02*
G37*
G36*
X167250Y1190346D02*
X164961Y1190044D01*
X162827Y1189161D01*
X160995Y1187755D01*
X159590Y1185923D01*
X158706Y1183790D01*
X158404Y1181500D01*
Y1171500D01*
X158706Y1169211D01*
X159590Y1167077D01*
X160995Y1165245D01*
X162827Y1163839D01*
X164961Y1162956D01*
X167250Y1162654D01*
X169540Y1162956D01*
X171673Y1163839D01*
X173505Y1165245D01*
X174911Y1167077D01*
X175794Y1169211D01*
X176096Y1171500D01*
Y1181500D01*
X175794Y1183790D01*
X174911Y1185923D01*
X173505Y1187755D01*
X171673Y1189161D01*
X169540Y1190044D01*
X167250Y1190346D01*
D02*
G37*
G36*
X147250D02*
X144961Y1190044D01*
X142827Y1189161D01*
X140995Y1187755D01*
X139590Y1185923D01*
X138706Y1183790D01*
X138404Y1181500D01*
Y1171500D01*
X138706Y1169211D01*
X139590Y1167077D01*
X140995Y1165245D01*
X142827Y1163839D01*
X144961Y1162956D01*
X147250Y1162654D01*
X149539Y1162956D01*
X151673Y1163839D01*
X153505Y1165245D01*
X154911Y1167077D01*
X155794Y1169211D01*
X156096Y1171500D01*
Y1181500D01*
X155794Y1183790D01*
X154911Y1185923D01*
X153505Y1187755D01*
X151673Y1189161D01*
X149539Y1190044D01*
X147250Y1190346D01*
D02*
G37*
G36*
X413410Y1289660D02*
X396590D01*
Y1272840D01*
X402660D01*
Y1212250D01*
X402857Y1211259D01*
X403419Y1210419D01*
X418910Y1194927D01*
Y1182500D01*
X419107Y1181509D01*
X419669Y1180669D01*
X440919Y1159419D01*
X441759Y1158857D01*
X442750Y1158660D01*
X449740D01*
X450474Y1158170D01*
X451750Y1157916D01*
X453026Y1158170D01*
X454108Y1158893D01*
X454830Y1159974D01*
X455084Y1161250D01*
X454830Y1162526D01*
X454108Y1163607D01*
X453026Y1164330D01*
X451750Y1164584D01*
X450474Y1164330D01*
X449740Y1163840D01*
X443823D01*
X424090Y1183573D01*
Y1196000D01*
X423893Y1196991D01*
X423331Y1197831D01*
X407840Y1213323D01*
Y1272840D01*
X413410D01*
Y1289660D01*
D02*
G37*
G36*
X89000Y1128114D02*
X86270D01*
Y1120770D01*
X97446D01*
X97320Y1121729D01*
X96460Y1123807D01*
X95091Y1125591D01*
X93307Y1126960D01*
X91229Y1127820D01*
X89000Y1128114D01*
D02*
G37*
G36*
X83730D02*
X81000D01*
X78771Y1127820D01*
X76693Y1126960D01*
X74909Y1125591D01*
X73540Y1123807D01*
X72680Y1121729D01*
X72554Y1120770D01*
X83730D01*
Y1128114D01*
D02*
G37*
G36*
X942950Y1142550D02*
X940530Y1142231D01*
X938275Y1141297D01*
X936339Y1139811D01*
X934853Y1137875D01*
X933919Y1135620D01*
X933600Y1133200D01*
X933919Y1130780D01*
X934853Y1128525D01*
X936339Y1126589D01*
X938275Y1125103D01*
X940530Y1124169D01*
X942950Y1123850D01*
X945370Y1124169D01*
X947625Y1125103D01*
X949561Y1126589D01*
X951047Y1128525D01*
X951981Y1130780D01*
X952300Y1133200D01*
X951981Y1135620D01*
X951047Y1137875D01*
X949561Y1139811D01*
X947625Y1141297D01*
X945370Y1142231D01*
X942950Y1142550D01*
D02*
G37*
G36*
X917550D02*
X915130Y1142231D01*
X912875Y1141297D01*
X910939Y1139811D01*
X909453Y1137875D01*
X908519Y1135620D01*
X908200Y1133200D01*
X908519Y1130780D01*
X909453Y1128525D01*
X910939Y1126589D01*
X912875Y1125103D01*
X915130Y1124169D01*
X917550Y1123850D01*
X919970Y1124169D01*
X922225Y1125103D01*
X924161Y1126589D01*
X925647Y1128525D01*
X926581Y1130780D01*
X926900Y1133200D01*
X926581Y1135620D01*
X925647Y1137875D01*
X924161Y1139811D01*
X922225Y1141297D01*
X919970Y1142231D01*
X917550Y1142550D01*
D02*
G37*
G36*
X524596Y1279980D02*
X516270D01*
Y1271654D01*
X517527Y1271819D01*
X519882Y1272795D01*
X521904Y1274346D01*
X523455Y1276368D01*
X524431Y1278723D01*
X524596Y1279980D01*
D02*
G37*
G36*
X813887Y1378730D02*
X803770D01*
Y1365030D01*
X805447Y1365251D01*
X808194Y1366388D01*
X810552Y1368198D01*
X812362Y1370556D01*
X813499Y1373303D01*
X813887Y1376250D01*
Y1378730D01*
D02*
G37*
G36*
X801230D02*
X791113D01*
Y1376250D01*
X791501Y1373303D01*
X792638Y1370556D01*
X794448Y1368198D01*
X796806Y1366388D01*
X799553Y1365251D01*
X801230Y1365030D01*
Y1378730D01*
D02*
G37*
G36*
X913887D02*
X903770D01*
Y1365030D01*
X905447Y1365251D01*
X908194Y1366388D01*
X910552Y1368198D01*
X912362Y1370556D01*
X913499Y1373303D01*
X913887Y1376250D01*
Y1378730D01*
D02*
G37*
G36*
X901230D02*
X891113D01*
Y1376250D01*
X891501Y1373303D01*
X892638Y1370556D01*
X894448Y1368198D01*
X896806Y1366388D01*
X899553Y1365251D01*
X901230Y1365030D01*
Y1378730D01*
D02*
G37*
G36*
X713887D02*
X703770D01*
Y1365030D01*
X705447Y1365251D01*
X708194Y1366388D01*
X710552Y1368198D01*
X712362Y1370556D01*
X713499Y1373303D01*
X713887Y1376250D01*
Y1378730D01*
D02*
G37*
G36*
X70250Y1396351D02*
X66128Y1396027D01*
X62107Y1395061D01*
X58287Y1393479D01*
X54761Y1391319D01*
X51617Y1388633D01*
X48931Y1385489D01*
X46771Y1381963D01*
X45188Y1378143D01*
X44223Y1374122D01*
X43899Y1370000D01*
X44223Y1365878D01*
X45188Y1361857D01*
X46771Y1358037D01*
X48931Y1354511D01*
X51617Y1351367D01*
X54761Y1348681D01*
X58287Y1346521D01*
X62107Y1344939D01*
X66128Y1343973D01*
X70250Y1343649D01*
X74372Y1343973D01*
X78393Y1344939D01*
X82213Y1346521D01*
X85739Y1348681D01*
X88883Y1351367D01*
X91569Y1354511D01*
X93729Y1358037D01*
X95311Y1361857D01*
X96277Y1365878D01*
X96601Y1370000D01*
X96277Y1374122D01*
X95311Y1378143D01*
X93729Y1381963D01*
X91569Y1385489D01*
X88883Y1388633D01*
X85739Y1391319D01*
X82213Y1393479D01*
X78393Y1395061D01*
X74372Y1396027D01*
X70250Y1396351D01*
D02*
G37*
G36*
X615700Y1321230D02*
X612366Y1320791D01*
X609260Y1319505D01*
X606592Y1317458D01*
X604545Y1314790D01*
X603259Y1311684D01*
X602820Y1308350D01*
X603259Y1305016D01*
X604545Y1301910D01*
X606592Y1299242D01*
X609260Y1297195D01*
X612366Y1295909D01*
X615700Y1295470D01*
X619034Y1295909D01*
X622140Y1297195D01*
X624808Y1299242D01*
X626855Y1301910D01*
X628141Y1305016D01*
X628580Y1308350D01*
X628141Y1311684D01*
X626855Y1314790D01*
X624808Y1317458D01*
X622140Y1319505D01*
X619034Y1320791D01*
X615700Y1321230D01*
D02*
G37*
G36*
X701230Y1378730D02*
X691113D01*
Y1376250D01*
X691501Y1373303D01*
X692638Y1370556D01*
X694448Y1368198D01*
X696806Y1366388D01*
X699553Y1365251D01*
X701230Y1365030D01*
Y1378730D01*
D02*
G37*
G36*
X970250Y1396351D02*
X966128Y1396027D01*
X962107Y1395061D01*
X958287Y1393479D01*
X954761Y1391319D01*
X951617Y1388633D01*
X948931Y1385489D01*
X946771Y1381963D01*
X945189Y1378143D01*
X944223Y1374122D01*
X943899Y1370000D01*
X944223Y1365878D01*
X945189Y1361857D01*
X946771Y1358037D01*
X948931Y1354511D01*
X951617Y1351367D01*
X954761Y1348681D01*
X958287Y1346521D01*
X962107Y1344939D01*
X966128Y1343973D01*
X970250Y1343649D01*
X974372Y1343973D01*
X978393Y1344939D01*
X982213Y1346521D01*
X985739Y1348681D01*
X988883Y1351367D01*
X991569Y1354511D01*
X993729Y1358037D01*
X995312Y1361857D01*
X996277Y1365878D01*
X996601Y1370000D01*
X996277Y1374122D01*
X995312Y1378143D01*
X993729Y1381963D01*
X991569Y1385489D01*
X988883Y1388633D01*
X985739Y1391319D01*
X982213Y1393479D01*
X978393Y1395061D01*
X974372Y1396027D01*
X970250Y1396351D01*
D02*
G37*
G36*
X803770Y1394970D02*
Y1381270D01*
X813887D01*
Y1383750D01*
X813499Y1386697D01*
X812362Y1389444D01*
X810552Y1391802D01*
X808194Y1393612D01*
X805447Y1394749D01*
X803770Y1394970D01*
D02*
G37*
G36*
X801230D02*
X799553Y1394749D01*
X796806Y1393612D01*
X794448Y1391802D01*
X792638Y1389444D01*
X791501Y1386697D01*
X791113Y1383750D01*
Y1381270D01*
X801230D01*
Y1394970D01*
D02*
G37*
G36*
X903770D02*
Y1381270D01*
X913887D01*
Y1383750D01*
X913499Y1386697D01*
X912362Y1389444D01*
X910552Y1391802D01*
X908194Y1393612D01*
X905447Y1394749D01*
X903770Y1394970D01*
D02*
G37*
G36*
X901230D02*
X899553Y1394749D01*
X896806Y1393612D01*
X894448Y1391802D01*
X892638Y1389444D01*
X891501Y1386697D01*
X891113Y1383750D01*
Y1381270D01*
X901230D01*
Y1394970D01*
D02*
G37*
G36*
X703770D02*
Y1381270D01*
X713887D01*
Y1383750D01*
X713499Y1386697D01*
X712362Y1389444D01*
X710552Y1391802D01*
X708194Y1393612D01*
X705447Y1394749D01*
X703770Y1394970D01*
D02*
G37*
G36*
X777500Y1393857D02*
X774884Y1393512D01*
X772447Y1392502D01*
X770354Y1390896D01*
X768747Y1388803D01*
X767738Y1386366D01*
X767393Y1383750D01*
Y1376250D01*
X767738Y1373634D01*
X768747Y1371197D01*
X770354Y1369104D01*
X772447Y1367498D01*
X774884Y1366488D01*
X777500Y1366143D01*
X780116Y1366488D01*
X782553Y1367498D01*
X784646Y1369104D01*
X786253Y1371197D01*
X787262Y1373634D01*
X787607Y1376250D01*
Y1383750D01*
X787262Y1386366D01*
X786253Y1388803D01*
X784646Y1390896D01*
X782553Y1392502D01*
X780116Y1393512D01*
X777500Y1393857D01*
D02*
G37*
G36*
X677500D02*
X674884Y1393512D01*
X672447Y1392502D01*
X670354Y1390896D01*
X668747Y1388803D01*
X667738Y1386366D01*
X667393Y1383750D01*
Y1376250D01*
X667738Y1373634D01*
X668747Y1371197D01*
X670354Y1369104D01*
X672447Y1367498D01*
X674884Y1366488D01*
X677500Y1366143D01*
X680116Y1366488D01*
X682553Y1367498D01*
X684646Y1369104D01*
X686253Y1371197D01*
X687262Y1373634D01*
X687606Y1376250D01*
Y1383750D01*
X687262Y1386366D01*
X686253Y1388803D01*
X684646Y1390896D01*
X682553Y1392502D01*
X680116Y1393512D01*
X677500Y1393857D01*
D02*
G37*
G36*
X701230Y1394970D02*
X699553Y1394749D01*
X696806Y1393612D01*
X694448Y1391802D01*
X692638Y1389444D01*
X691501Y1386697D01*
X691113Y1383750D01*
Y1381270D01*
X701230D01*
Y1394970D01*
D02*
G37*
G36*
X877500Y1393857D02*
X874884Y1393512D01*
X872447Y1392502D01*
X870354Y1390896D01*
X868747Y1388803D01*
X867738Y1386366D01*
X867393Y1383750D01*
Y1376250D01*
X867738Y1373634D01*
X868747Y1371197D01*
X870354Y1369104D01*
X872447Y1367498D01*
X874884Y1366488D01*
X877500Y1366143D01*
X880116Y1366488D01*
X882553Y1367498D01*
X884646Y1369104D01*
X886253Y1371197D01*
X887262Y1373634D01*
X887607Y1376250D01*
Y1383750D01*
X887262Y1386366D01*
X886253Y1388803D01*
X884646Y1390896D01*
X882553Y1392502D01*
X880116Y1393512D01*
X877500Y1393857D01*
D02*
G37*
G36*
X233410Y1289660D02*
X216590D01*
Y1272840D01*
X233410D01*
Y1289660D01*
D02*
G37*
G36*
X560000Y1289733D02*
X557804Y1289444D01*
X555759Y1288596D01*
X554002Y1287248D01*
X552654Y1285491D01*
X551806Y1283445D01*
X551517Y1281250D01*
X551806Y1279055D01*
X552654Y1277009D01*
X554002Y1275252D01*
X555759Y1273904D01*
X557804Y1273056D01*
X560000Y1272767D01*
X562195Y1273056D01*
X564241Y1273904D01*
X565998Y1275252D01*
X567346Y1277009D01*
X568194Y1279055D01*
X568483Y1281250D01*
X568194Y1283445D01*
X567346Y1285491D01*
X565998Y1287248D01*
X564241Y1288596D01*
X562195Y1289444D01*
X560000Y1289733D01*
D02*
G37*
G36*
X156270Y1290846D02*
Y1282520D01*
X164596D01*
X164431Y1283777D01*
X163456Y1286132D01*
X161904Y1288154D01*
X159882Y1289706D01*
X157527Y1290681D01*
X156270Y1290846D01*
D02*
G37*
G36*
X153730D02*
X152473Y1290681D01*
X150118Y1289706D01*
X148096Y1288154D01*
X146545Y1286132D01*
X145569Y1283777D01*
X145404Y1282520D01*
X153730D01*
Y1290846D01*
D02*
G37*
G36*
X540000Y1289733D02*
X537804Y1289444D01*
X535759Y1288596D01*
X534002Y1287248D01*
X532654Y1285491D01*
X531806Y1283445D01*
X531517Y1281250D01*
X531806Y1279055D01*
X532654Y1277009D01*
X534002Y1275252D01*
X535759Y1273904D01*
X537804Y1273056D01*
X540000Y1272767D01*
X542195Y1273056D01*
X544241Y1273904D01*
X545998Y1275252D01*
X547346Y1277009D01*
X548194Y1279055D01*
X548483Y1281250D01*
X548194Y1283445D01*
X547346Y1285491D01*
X545998Y1287248D01*
X544241Y1288596D01*
X542195Y1289444D01*
X540000Y1289733D01*
D02*
G37*
G36*
X200000D02*
X197805Y1289444D01*
X195759Y1288596D01*
X194002Y1287248D01*
X192654Y1285491D01*
X191807Y1283445D01*
X191517Y1281250D01*
X191807Y1279055D01*
X192654Y1277009D01*
X194002Y1275252D01*
X195759Y1273904D01*
X197805Y1273056D01*
X200000Y1272767D01*
X202195Y1273056D01*
X204241Y1273904D01*
X205998Y1275252D01*
X207346Y1277009D01*
X208193Y1279055D01*
X208483Y1281250D01*
X208193Y1283445D01*
X207346Y1285491D01*
X205998Y1287248D01*
X204241Y1288596D01*
X202195Y1289444D01*
X200000Y1289733D01*
D02*
G37*
G36*
X180000D02*
X177805Y1289444D01*
X175759Y1288596D01*
X174002Y1287248D01*
X172654Y1285491D01*
X171807Y1283445D01*
X171517Y1281250D01*
X171807Y1279055D01*
X172654Y1277009D01*
X174002Y1275252D01*
X175759Y1273904D01*
X177805Y1273056D01*
X180000Y1272767D01*
X182195Y1273056D01*
X184241Y1273904D01*
X185998Y1275252D01*
X187346Y1277009D01*
X188193Y1279055D01*
X188483Y1281250D01*
X188193Y1283445D01*
X187346Y1285491D01*
X185998Y1287248D01*
X184241Y1288596D01*
X182195Y1289444D01*
X180000Y1289733D01*
D02*
G37*
G36*
X380000D02*
X377805Y1289444D01*
X375759Y1288596D01*
X374002Y1287248D01*
X372654Y1285491D01*
X371806Y1283445D01*
X371517Y1281250D01*
X371806Y1279055D01*
X372654Y1277009D01*
X374002Y1275252D01*
X375759Y1273904D01*
X377805Y1273056D01*
X380000Y1272767D01*
X382196Y1273056D01*
X384241Y1273904D01*
X385998Y1275252D01*
X387346Y1277009D01*
X388194Y1279055D01*
X388483Y1281250D01*
X388194Y1283445D01*
X387346Y1285491D01*
X385998Y1287248D01*
X384241Y1288596D01*
X382196Y1289444D01*
X380000Y1289733D01*
D02*
G37*
G36*
X360000D02*
X357804Y1289444D01*
X355759Y1288596D01*
X354002Y1287248D01*
X352654Y1285491D01*
X351806Y1283445D01*
X351517Y1281250D01*
X351806Y1279055D01*
X352654Y1277009D01*
X354002Y1275252D01*
X355759Y1273904D01*
X357804Y1273056D01*
X360000Y1272767D01*
X362195Y1273056D01*
X364241Y1273904D01*
X365998Y1275252D01*
X367346Y1277009D01*
X368194Y1279055D01*
X368483Y1281250D01*
X368194Y1283445D01*
X367346Y1285491D01*
X365998Y1287248D01*
X364241Y1288596D01*
X362195Y1289444D01*
X360000Y1289733D01*
D02*
G37*
G36*
X304300Y1321230D02*
X300966Y1320791D01*
X297860Y1319505D01*
X295192Y1317458D01*
X293145Y1314790D01*
X291859Y1311684D01*
X291420Y1308350D01*
X291859Y1305016D01*
X293145Y1301910D01*
X295192Y1299242D01*
X297860Y1297195D01*
X300966Y1295909D01*
X304300Y1295470D01*
X307634Y1295909D01*
X310740Y1297195D01*
X313408Y1299242D01*
X315455Y1301910D01*
X316741Y1305016D01*
X317180Y1308350D01*
X316741Y1311684D01*
X315455Y1314790D01*
X313408Y1317458D01*
X310740Y1319505D01*
X307634Y1320791D01*
X304300Y1321230D01*
D02*
G37*
G36*
X255700D02*
X252366Y1320791D01*
X249260Y1319505D01*
X246592Y1317458D01*
X244545Y1314790D01*
X243259Y1311684D01*
X242820Y1308350D01*
X243259Y1305016D01*
X244545Y1301910D01*
X246592Y1299242D01*
X249260Y1297195D01*
X252366Y1295909D01*
X255700Y1295470D01*
X259034Y1295909D01*
X262140Y1297195D01*
X264808Y1299242D01*
X266855Y1301910D01*
X268141Y1305016D01*
X268580Y1308350D01*
X268141Y1311684D01*
X266855Y1314790D01*
X264808Y1317458D01*
X262140Y1319505D01*
X259034Y1320791D01*
X255700Y1321230D01*
D02*
G37*
G36*
X484300D02*
X480966Y1320791D01*
X477860Y1319505D01*
X475192Y1317458D01*
X473145Y1314790D01*
X471859Y1311684D01*
X471420Y1308350D01*
X471859Y1305016D01*
X473145Y1301910D01*
X475192Y1299242D01*
X477860Y1297195D01*
X480966Y1295909D01*
X484300Y1295470D01*
X487634Y1295909D01*
X490740Y1297195D01*
X493408Y1299242D01*
X495455Y1301910D01*
X496741Y1305016D01*
X497180Y1308350D01*
X496741Y1311684D01*
X495455Y1314790D01*
X493408Y1317458D01*
X490740Y1319505D01*
X487634Y1320791D01*
X484300Y1321230D01*
D02*
G37*
G36*
X435700D02*
X432366Y1320791D01*
X429260Y1319505D01*
X426592Y1317458D01*
X424545Y1314790D01*
X423259Y1311684D01*
X422820Y1308350D01*
X423259Y1305016D01*
X424545Y1301910D01*
X426592Y1299242D01*
X429260Y1297195D01*
X432366Y1295909D01*
X435700Y1295470D01*
X439034Y1295909D01*
X442140Y1297195D01*
X444808Y1299242D01*
X446855Y1301910D01*
X448141Y1305016D01*
X448580Y1308350D01*
X448141Y1311684D01*
X446855Y1314790D01*
X444808Y1317458D01*
X442140Y1319505D01*
X439034Y1320791D01*
X435700Y1321230D01*
D02*
G37*
G36*
X124300D02*
X120966Y1320791D01*
X117860Y1319505D01*
X115192Y1317458D01*
X113145Y1314790D01*
X111859Y1311684D01*
X111420Y1308350D01*
X111859Y1305016D01*
X113145Y1301910D01*
X115192Y1299242D01*
X117860Y1297195D01*
X120966Y1295909D01*
X124300Y1295470D01*
X127634Y1295909D01*
X130740Y1297195D01*
X133408Y1299242D01*
X135455Y1301910D01*
X136741Y1305016D01*
X137180Y1308350D01*
X136741Y1311684D01*
X135455Y1314790D01*
X133408Y1317458D01*
X130740Y1319505D01*
X127634Y1320791D01*
X124300Y1321230D01*
D02*
G37*
G36*
X336270Y1290846D02*
Y1282520D01*
X344596D01*
X344431Y1283777D01*
X343455Y1286132D01*
X341904Y1288154D01*
X339882Y1289706D01*
X337527Y1290681D01*
X336270Y1290846D01*
D02*
G37*
G36*
X333730D02*
X332473Y1290681D01*
X330118Y1289706D01*
X328096Y1288154D01*
X326544Y1286132D01*
X325569Y1283777D01*
X325404Y1282520D01*
X333730D01*
Y1290846D01*
D02*
G37*
G36*
X516270D02*
Y1282520D01*
X524596D01*
X524431Y1283777D01*
X523455Y1286132D01*
X521904Y1288154D01*
X519882Y1289706D01*
X517527Y1290681D01*
X516270Y1290846D01*
D02*
G37*
G36*
X513730D02*
X512473Y1290681D01*
X510118Y1289706D01*
X508096Y1288154D01*
X506544Y1286132D01*
X505569Y1283777D01*
X505404Y1282520D01*
X513730D01*
Y1290846D01*
D02*
G37*
G36*
X942950Y990150D02*
X940530Y989831D01*
X938275Y988897D01*
X936339Y987411D01*
X934853Y985475D01*
X933919Y983220D01*
X933600Y980800D01*
X933919Y978380D01*
X934853Y976125D01*
X936339Y974189D01*
X938275Y972703D01*
X940530Y971769D01*
X942950Y971450D01*
X945370Y971769D01*
X947625Y972703D01*
X949561Y974189D01*
X951047Y976125D01*
X951981Y978380D01*
X952300Y980800D01*
X951981Y983220D01*
X951047Y985475D01*
X949561Y987411D01*
X947625Y988897D01*
X945370Y989831D01*
X942950Y990150D01*
D02*
G37*
G36*
X89000Y986833D02*
X81000D01*
X79102Y986583D01*
X77334Y985850D01*
X75815Y984685D01*
X74650Y983166D01*
X73917Y981398D01*
X73667Y979500D01*
X73917Y977602D01*
X74650Y975834D01*
X75815Y974315D01*
X77334Y973150D01*
X79102Y972417D01*
X81000Y972167D01*
X89000D01*
X90898Y972417D01*
X92666Y973150D01*
X94185Y974315D01*
X95350Y975834D01*
X96083Y977602D01*
X96333Y979500D01*
X96083Y981398D01*
X95350Y983166D01*
X94185Y984685D01*
X92666Y985850D01*
X90898Y986583D01*
X89000Y986833D01*
D02*
G37*
G36*
X500127Y998730D02*
X491270D01*
Y985041D01*
X492621Y985218D01*
X495063Y986230D01*
X497161Y987839D01*
X498770Y989937D01*
X499782Y992379D01*
X500127Y995000D01*
Y998730D01*
D02*
G37*
G36*
X880250Y1131367D02*
X877308Y1130980D01*
X874566Y1129844D01*
X872212Y1128038D01*
X870406Y1125684D01*
X869270Y1122942D01*
X868883Y1120000D01*
Y1030000D01*
Y847806D01*
X868222Y846944D01*
X866834Y843595D01*
X866361Y840000D01*
X866834Y836405D01*
X868222Y833056D01*
X870429Y830179D01*
X873306Y827972D01*
X876655Y826584D01*
X880250Y826111D01*
X883845Y826584D01*
X887194Y827972D01*
X890071Y830179D01*
X892278Y833056D01*
X893140Y835137D01*
X894410Y834884D01*
Y751323D01*
X859677Y716590D01*
X500250D01*
X499259Y716393D01*
X498419Y715831D01*
X425177Y642590D01*
X422607D01*
Y643750D01*
X422262Y646366D01*
X421253Y648803D01*
X419646Y650896D01*
X417553Y652503D01*
X415116Y653512D01*
X412500Y653857D01*
X409884Y653512D01*
X407447Y652503D01*
X405354Y650896D01*
X403748Y648803D01*
X402738Y646366D01*
X402394Y643750D01*
Y636250D01*
X402738Y633634D01*
X403748Y631197D01*
X405354Y629104D01*
X407447Y627497D01*
X409884Y626488D01*
X412500Y626143D01*
X415116Y626488D01*
X417553Y627497D01*
X419646Y629104D01*
X421253Y631197D01*
X422262Y633634D01*
X422607Y636250D01*
Y637410D01*
X426250D01*
X427241Y637607D01*
X428081Y638169D01*
X501323Y711410D01*
X503996D01*
X504381Y710140D01*
X503919Y709831D01*
X410669Y616581D01*
X410107Y615741D01*
X409910Y614750D01*
Y543516D01*
X409884Y543512D01*
X407447Y542503D01*
X405354Y540896D01*
X403748Y538803D01*
X402738Y536366D01*
X402394Y533750D01*
Y526250D01*
X402738Y523634D01*
X403748Y521197D01*
X405354Y519104D01*
X407447Y517497D01*
X409884Y516488D01*
X412500Y516143D01*
X415116Y516488D01*
X417553Y517497D01*
X419646Y519104D01*
X421253Y521197D01*
X422262Y523634D01*
X422607Y526250D01*
Y533750D01*
X422262Y536366D01*
X421253Y538803D01*
X419646Y540896D01*
X417553Y542503D01*
X415116Y543512D01*
X415090Y543516D01*
Y613677D01*
X506823Y705410D01*
X915000D01*
X915991Y705607D01*
X916831Y706169D01*
X931831Y721169D01*
X932393Y722009D01*
X932590Y723000D01*
Y724744D01*
X933860Y724827D01*
X933919Y724380D01*
X934853Y722125D01*
X936339Y720189D01*
X938275Y718703D01*
X940530Y717769D01*
X942950Y717450D01*
X945370Y717769D01*
X947625Y718703D01*
X949561Y720189D01*
X951047Y722125D01*
X951981Y724380D01*
X952300Y726800D01*
X951981Y729220D01*
X951047Y731475D01*
X949561Y733411D01*
X947625Y734897D01*
X945370Y735831D01*
X942950Y736150D01*
X940530Y735831D01*
X938275Y734897D01*
X936339Y733411D01*
X934853Y731475D01*
X933919Y729220D01*
X933860Y728773D01*
X932590Y728856D01*
Y750144D01*
X933860Y750228D01*
X933919Y749780D01*
X934853Y747525D01*
X936339Y745589D01*
X938275Y744103D01*
X940530Y743169D01*
X942950Y742850D01*
X945370Y743169D01*
X947625Y744103D01*
X949561Y745589D01*
X951047Y747525D01*
X951981Y749780D01*
X952300Y752200D01*
X951981Y754620D01*
X951047Y756875D01*
X949561Y758811D01*
X947625Y760297D01*
X945370Y761231D01*
X942950Y761550D01*
X940530Y761231D01*
X938275Y760297D01*
X936339Y758811D01*
X934853Y756875D01*
X933919Y754620D01*
X933860Y754173D01*
X932590Y754256D01*
Y775544D01*
X933860Y775628D01*
X933919Y775180D01*
X934853Y772925D01*
X936339Y770989D01*
X938275Y769503D01*
X940530Y768569D01*
X942950Y768250D01*
X945370Y768569D01*
X947625Y769503D01*
X949561Y770989D01*
X951047Y772925D01*
X951981Y775180D01*
X952300Y777600D01*
X951981Y780020D01*
X951047Y782275D01*
X949561Y784212D01*
X947625Y785697D01*
X945370Y786631D01*
X942950Y786950D01*
X940530Y786631D01*
X938275Y785697D01*
X936339Y784212D01*
X934853Y782275D01*
X933919Y780020D01*
X933860Y779573D01*
X932590Y779656D01*
Y800944D01*
X933860Y801028D01*
X933919Y800580D01*
X934853Y798325D01*
X936339Y796389D01*
X938275Y794903D01*
X940530Y793969D01*
X942950Y793650D01*
X945370Y793969D01*
X947625Y794903D01*
X949561Y796389D01*
X951047Y798325D01*
X951981Y800580D01*
X952300Y803000D01*
X951981Y805420D01*
X951047Y807675D01*
X949561Y809612D01*
X947625Y811097D01*
X945370Y812031D01*
X942950Y812350D01*
X940530Y812031D01*
X938275Y811097D01*
X936339Y809612D01*
X934853Y807675D01*
X933919Y805420D01*
X933860Y804973D01*
X932590Y805056D01*
Y826344D01*
X933860Y826428D01*
X933919Y825980D01*
X934853Y823725D01*
X936339Y821789D01*
X938275Y820303D01*
X940530Y819369D01*
X942950Y819050D01*
X945370Y819369D01*
X947625Y820303D01*
X949561Y821789D01*
X951047Y823725D01*
X951981Y825980D01*
X952300Y828400D01*
X951981Y830820D01*
X951047Y833075D01*
X949561Y835012D01*
X947625Y836497D01*
X945370Y837431D01*
X942950Y837750D01*
X940530Y837431D01*
X938275Y836497D01*
X936339Y835012D01*
X934853Y833075D01*
X933919Y830820D01*
X933860Y830373D01*
X932590Y830456D01*
Y851744D01*
X933860Y851827D01*
X933919Y851380D01*
X934853Y849125D01*
X936339Y847189D01*
X938275Y845703D01*
X940530Y844769D01*
X942950Y844450D01*
X945370Y844769D01*
X947625Y845703D01*
X949561Y847189D01*
X951047Y849125D01*
X951981Y851380D01*
X952300Y853800D01*
X951981Y856220D01*
X951047Y858475D01*
X949561Y860412D01*
X947625Y861897D01*
X945370Y862831D01*
X942950Y863150D01*
X940530Y862831D01*
X938275Y861897D01*
X936339Y860412D01*
X934853Y858475D01*
X933919Y856220D01*
X933860Y855773D01*
X932590Y855856D01*
Y877144D01*
X933860Y877227D01*
X933919Y876780D01*
X934853Y874525D01*
X936339Y872589D01*
X938275Y871103D01*
X940530Y870169D01*
X942950Y869850D01*
X945370Y870169D01*
X947625Y871103D01*
X949561Y872589D01*
X951047Y874525D01*
X951981Y876780D01*
X952300Y879200D01*
X951981Y881620D01*
X951047Y883875D01*
X949561Y885811D01*
X947625Y887297D01*
X945370Y888231D01*
X942950Y888550D01*
X940530Y888231D01*
X938275Y887297D01*
X936339Y885811D01*
X934853Y883875D01*
X933919Y881620D01*
X933860Y881173D01*
X932590Y881256D01*
Y902544D01*
X933860Y902627D01*
X933919Y902180D01*
X934853Y899925D01*
X936339Y897989D01*
X938275Y896503D01*
X940530Y895569D01*
X942950Y895250D01*
X945370Y895569D01*
X947625Y896503D01*
X949561Y897989D01*
X951047Y899925D01*
X951981Y902180D01*
X952300Y904600D01*
X951981Y907020D01*
X951047Y909275D01*
X949561Y911211D01*
X947625Y912697D01*
X945370Y913631D01*
X942950Y913950D01*
X940530Y913631D01*
X938275Y912697D01*
X936339Y911211D01*
X934853Y909275D01*
X933919Y907020D01*
X933860Y906573D01*
X932590Y906656D01*
Y927944D01*
X933860Y928027D01*
X933919Y927580D01*
X934853Y925325D01*
X936339Y923389D01*
X938275Y921903D01*
X940530Y920969D01*
X942950Y920650D01*
X945370Y920969D01*
X947625Y921903D01*
X949561Y923389D01*
X951047Y925325D01*
X951981Y927580D01*
X952300Y930000D01*
X951981Y932420D01*
X951047Y934675D01*
X949561Y936611D01*
X947625Y938097D01*
X945370Y939031D01*
X942950Y939350D01*
X940530Y939031D01*
X938275Y938097D01*
X936339Y936611D01*
X934853Y934675D01*
X933919Y932420D01*
X933860Y931973D01*
X932590Y932056D01*
Y953344D01*
X933860Y953428D01*
X933919Y952980D01*
X934853Y950725D01*
X936339Y948789D01*
X938275Y947303D01*
X940530Y946369D01*
X942950Y946050D01*
X945370Y946369D01*
X947625Y947303D01*
X949561Y948789D01*
X951047Y950725D01*
X951981Y952980D01*
X952300Y955400D01*
X951981Y957820D01*
X951047Y960075D01*
X949561Y962011D01*
X947625Y963497D01*
X945370Y964431D01*
X942950Y964750D01*
X940530Y964431D01*
X938275Y963497D01*
X936339Y962011D01*
X934853Y960075D01*
X933919Y957820D01*
X933860Y957373D01*
X932590Y957456D01*
Y968350D01*
X932393Y969341D01*
X931831Y970181D01*
X925718Y976295D01*
X926581Y978380D01*
X926900Y980800D01*
X926581Y983220D01*
X925647Y985475D01*
X924161Y987411D01*
X922225Y988897D01*
X919970Y989831D01*
X917550Y990150D01*
X915130Y989831D01*
X912875Y988897D01*
X910939Y987411D01*
X909453Y985475D01*
X908519Y983220D01*
X908200Y980800D01*
X908519Y978380D01*
X909453Y976125D01*
X910939Y974189D01*
X912875Y972703D01*
X915130Y971769D01*
X917550Y971450D01*
X919970Y971769D01*
X922055Y972632D01*
X927410Y967277D01*
Y961950D01*
X926140Y961519D01*
X925067Y962917D01*
X922866Y964607D01*
X920302Y965669D01*
X918820Y965864D01*
Y955400D01*
Y944936D01*
X920302Y945131D01*
X922866Y946193D01*
X925067Y947883D01*
X926140Y949281D01*
X927410Y948850D01*
Y933738D01*
X926140Y933485D01*
X925647Y934675D01*
X924161Y936611D01*
X922225Y938097D01*
X919970Y939031D01*
X917550Y939350D01*
X915130Y939031D01*
X912875Y938097D01*
X910939Y936611D01*
X909453Y934675D01*
X908519Y932420D01*
X908200Y930000D01*
X908519Y927580D01*
X909382Y925495D01*
X895169Y911281D01*
X894607Y910441D01*
X894410Y909450D01*
Y845116D01*
X893140Y844863D01*
X892278Y846944D01*
X891617Y847806D01*
Y1030000D01*
Y1120000D01*
X891230Y1122942D01*
X890094Y1125684D01*
X888288Y1128038D01*
X885934Y1129844D01*
X883192Y1130980D01*
X880250Y1131367D01*
D02*
G37*
G36*
X89000Y966833D02*
X81000D01*
X79102Y966583D01*
X77334Y965850D01*
X75815Y964685D01*
X74650Y963166D01*
X73917Y961398D01*
X73667Y959500D01*
X73917Y957602D01*
X74650Y955834D01*
X75815Y954315D01*
X77334Y953150D01*
X79102Y952417D01*
X81000Y952167D01*
X89000D01*
X90898Y952417D01*
X92666Y953150D01*
X94185Y954315D01*
X95350Y955834D01*
X96083Y957602D01*
X96333Y959500D01*
X96083Y961398D01*
X95350Y963166D01*
X94185Y964685D01*
X92666Y965850D01*
X90898Y966583D01*
X89000Y966833D01*
D02*
G37*
G36*
X916280Y965864D02*
X914799Y965669D01*
X912234Y964607D01*
X910033Y962917D01*
X908343Y960715D01*
X907281Y958151D01*
X907086Y956670D01*
X916280D01*
Y965864D01*
D02*
G37*
G36*
X170000Y1013846D02*
X167711Y1013544D01*
X165577Y1012661D01*
X163745Y1011255D01*
X162339Y1009423D01*
X161456Y1007290D01*
X161154Y1005000D01*
Y995000D01*
X161456Y992711D01*
X162339Y990577D01*
X163745Y988745D01*
X165577Y987339D01*
X167711Y986456D01*
X170000Y986154D01*
X172289Y986456D01*
X174423Y987339D01*
X176255Y988745D01*
X177661Y990577D01*
X178544Y992711D01*
X178846Y995000D01*
Y1005000D01*
X178544Y1007290D01*
X177661Y1009423D01*
X176255Y1011255D01*
X174423Y1012661D01*
X172289Y1013544D01*
X170000Y1013846D01*
D02*
G37*
G36*
X928014Y1004930D02*
X918820D01*
Y995736D01*
X920302Y995931D01*
X922866Y996993D01*
X925067Y998683D01*
X926757Y1000885D01*
X927819Y1003449D01*
X928014Y1004930D01*
D02*
G37*
G36*
X942950Y1015550D02*
X940530Y1015231D01*
X938275Y1014297D01*
X936339Y1012812D01*
X934853Y1010875D01*
X933919Y1008620D01*
X933600Y1006200D01*
X933919Y1003780D01*
X934853Y1001525D01*
X936339Y999589D01*
X938275Y998103D01*
X940530Y997169D01*
X942950Y996850D01*
X945370Y997169D01*
X947625Y998103D01*
X949561Y999589D01*
X951047Y1001525D01*
X951981Y1003780D01*
X952300Y1006200D01*
X951981Y1008620D01*
X951047Y1010875D01*
X949561Y1012812D01*
X947625Y1014297D01*
X945370Y1015231D01*
X942950Y1015550D01*
D02*
G37*
G36*
X371270Y1014959D02*
Y1001270D01*
X380127D01*
Y1005000D01*
X379782Y1007621D01*
X378770Y1010063D01*
X377161Y1012161D01*
X375063Y1013770D01*
X372621Y1014782D01*
X371270Y1014959D01*
D02*
G37*
G36*
X260000Y1013846D02*
X257711Y1013544D01*
X255577Y1012661D01*
X253745Y1011255D01*
X252339Y1009423D01*
X251456Y1007290D01*
X251154Y1005000D01*
Y995000D01*
X251456Y992711D01*
X252339Y990577D01*
X253745Y988745D01*
X255577Y987339D01*
X257711Y986456D01*
X260000Y986154D01*
X262289Y986456D01*
X264423Y987339D01*
X266255Y988745D01*
X267661Y990577D01*
X268544Y992711D01*
X268846Y995000D01*
Y1005000D01*
X268544Y1007290D01*
X267661Y1009423D01*
X266255Y1011255D01*
X264423Y1012661D01*
X262289Y1013544D01*
X260000Y1013846D01*
D02*
G37*
G36*
X89000Y1006833D02*
X81000D01*
X79102Y1006583D01*
X77334Y1005850D01*
X75815Y1004685D01*
X74650Y1003166D01*
X73917Y1001398D01*
X73667Y999500D01*
X73917Y997602D01*
X74650Y995834D01*
X75815Y994315D01*
X77334Y993150D01*
X79102Y992417D01*
X81000Y992167D01*
X89000D01*
X90898Y992417D01*
X92666Y993150D01*
X94185Y994315D01*
X95350Y995834D01*
X96083Y997602D01*
X96333Y999500D01*
X96083Y1001398D01*
X95350Y1003166D01*
X94185Y1004685D01*
X92666Y1005850D01*
X90898Y1006583D01*
X89000Y1006833D01*
D02*
G37*
G36*
X916280Y1004930D02*
X907086D01*
X907281Y1003449D01*
X908343Y1000885D01*
X910033Y998683D01*
X912234Y996993D01*
X914799Y995931D01*
X916280Y995736D01*
Y1004930D01*
D02*
G37*
G36*
Y954130D02*
X907086D01*
X907281Y952649D01*
X908343Y950085D01*
X910033Y947883D01*
X912234Y946193D01*
X914799Y945131D01*
X916280Y944936D01*
Y954130D01*
D02*
G37*
G36*
X83730Y918230D02*
X72554D01*
X72680Y917271D01*
X73540Y915193D01*
X74909Y913409D01*
X76693Y912040D01*
X78771Y911180D01*
X81000Y910886D01*
X83730D01*
Y918230D01*
D02*
G37*
G36*
X97446D02*
X86270D01*
Y910886D01*
X89000D01*
X91229Y911180D01*
X93307Y912040D01*
X95091Y913409D01*
X96460Y915193D01*
X97320Y917271D01*
X97446Y918230D01*
D02*
G37*
G36*
X83730Y928114D02*
X81000D01*
X78771Y927820D01*
X76693Y926960D01*
X74909Y925591D01*
X73540Y923807D01*
X72680Y921729D01*
X72554Y920770D01*
X83730D01*
Y928114D01*
D02*
G37*
G36*
X146878Y933580D02*
X144589Y933278D01*
X142455Y932395D01*
X140623Y930989D01*
X139217Y929157D01*
X138334Y927023D01*
X138032Y924734D01*
Y914734D01*
X138334Y912445D01*
X139217Y910311D01*
X140623Y908479D01*
X142455Y907073D01*
X144589Y906190D01*
X146878Y905888D01*
X149167Y906190D01*
X151301Y907073D01*
X153133Y908479D01*
X154539Y910311D01*
X155422Y912445D01*
X155724Y914734D01*
Y924734D01*
X155422Y927023D01*
X154539Y929157D01*
X153133Y930989D01*
X151301Y932395D01*
X149167Y933278D01*
X146878Y933580D01*
D02*
G37*
G36*
X270000Y933846D02*
X267711Y933544D01*
X265577Y932661D01*
X263745Y931255D01*
X262339Y929423D01*
X261456Y927289D01*
X261154Y925000D01*
Y915000D01*
X261456Y912710D01*
X262339Y910577D01*
X263745Y908745D01*
X265577Y907339D01*
X267711Y906456D01*
X270000Y906154D01*
X272289Y906456D01*
X274423Y907339D01*
X276255Y908745D01*
X277661Y910577D01*
X278544Y912710D01*
X278846Y915000D01*
Y925000D01*
X278544Y927289D01*
X277661Y929423D01*
X276255Y931255D01*
X274423Y932661D01*
X272289Y933544D01*
X270000Y933846D01*
D02*
G37*
G36*
X718877Y924480D02*
X710020D01*
Y910791D01*
X711371Y910968D01*
X713813Y911980D01*
X715911Y913589D01*
X717520Y915687D01*
X718532Y918129D01*
X718877Y920750D01*
Y924480D01*
D02*
G37*
G36*
X89000Y928114D02*
X86270D01*
Y920770D01*
X97446D01*
X97320Y921729D01*
X96460Y923807D01*
X95091Y925591D01*
X93307Y926960D01*
X91229Y927820D01*
X89000Y928114D01*
D02*
G37*
G36*
X97446Y938230D02*
X86270D01*
Y930886D01*
X89000D01*
X91229Y931180D01*
X93307Y932040D01*
X95091Y933409D01*
X96460Y935193D01*
X97320Y937271D01*
X97446Y938230D01*
D02*
G37*
G36*
X83730Y948114D02*
X81000D01*
X78771Y947820D01*
X76693Y946960D01*
X74909Y945591D01*
X73540Y943807D01*
X72680Y941729D01*
X72554Y940770D01*
X83730D01*
Y948114D01*
D02*
G37*
G36*
X89000D02*
X86270D01*
Y940770D01*
X97446D01*
X97320Y941729D01*
X96460Y943807D01*
X95091Y945591D01*
X93307Y946960D01*
X91229Y947820D01*
X89000Y948114D01*
D02*
G37*
G36*
X188148Y934693D02*
Y921004D01*
X197005D01*
Y924734D01*
X196660Y927355D01*
X195648Y929797D01*
X194039Y931895D01*
X191941Y933504D01*
X189499Y934516D01*
X188148Y934693D01*
D02*
G37*
G36*
X710020Y940709D02*
Y927020D01*
X718877D01*
Y930750D01*
X718532Y933371D01*
X717520Y935813D01*
X715911Y937911D01*
X713813Y939520D01*
X711371Y940532D01*
X710020Y940709D01*
D02*
G37*
G36*
X83730Y938230D02*
X72554D01*
X72680Y937271D01*
X73540Y935193D01*
X74909Y933409D01*
X76693Y932040D01*
X78771Y931180D01*
X81000Y930886D01*
X83730D01*
Y938230D01*
D02*
G37*
G36*
X942950Y1066350D02*
X940530Y1066031D01*
X938275Y1065097D01*
X936339Y1063612D01*
X934853Y1061675D01*
X933919Y1059420D01*
X933600Y1057000D01*
X933919Y1054580D01*
X934853Y1052325D01*
X936339Y1050389D01*
X938275Y1048903D01*
X940530Y1047969D01*
X942950Y1047650D01*
X945370Y1047969D01*
X947625Y1048903D01*
X949561Y1050389D01*
X951047Y1052325D01*
X951981Y1054580D01*
X952300Y1057000D01*
X951981Y1059420D01*
X951047Y1061675D01*
X949561Y1063612D01*
X947625Y1065097D01*
X945370Y1066031D01*
X942950Y1066350D01*
D02*
G37*
G36*
X928014Y1055730D02*
X918820D01*
Y1046536D01*
X920302Y1046731D01*
X922866Y1047793D01*
X925067Y1049483D01*
X926757Y1051685D01*
X927819Y1054249D01*
X928014Y1055730D01*
D02*
G37*
G36*
X916280Y1067464D02*
X914799Y1067269D01*
X912234Y1066207D01*
X910033Y1064517D01*
X908343Y1062316D01*
X907281Y1059752D01*
X907086Y1058270D01*
X916280D01*
Y1067464D01*
D02*
G37*
G36*
X89000Y1066833D02*
X81000D01*
X79102Y1066583D01*
X77334Y1065850D01*
X75815Y1064685D01*
X74650Y1063166D01*
X73917Y1061398D01*
X73667Y1059500D01*
X73917Y1057602D01*
X74650Y1055834D01*
X75815Y1054315D01*
X77334Y1053150D01*
X79102Y1052417D01*
X81000Y1052167D01*
X89000D01*
X90898Y1052417D01*
X92666Y1053150D01*
X94185Y1054315D01*
X95350Y1055834D01*
X96083Y1057602D01*
X96333Y1059500D01*
X96083Y1061398D01*
X95350Y1063166D01*
X94185Y1064685D01*
X92666Y1065850D01*
X90898Y1066583D01*
X89000Y1066833D01*
D02*
G37*
G36*
Y1046833D02*
X81000D01*
X79102Y1046583D01*
X77334Y1045850D01*
X75815Y1044685D01*
X74650Y1043166D01*
X73917Y1041398D01*
X73667Y1039500D01*
X73917Y1037602D01*
X74650Y1035834D01*
X75815Y1034315D01*
X77334Y1033150D01*
X79102Y1032417D01*
X81000Y1032167D01*
X89000D01*
X90898Y1032417D01*
X92666Y1033150D01*
X94185Y1034315D01*
X95350Y1035834D01*
X96083Y1037602D01*
X96333Y1039500D01*
X96083Y1041398D01*
X95350Y1043166D01*
X94185Y1044685D01*
X92666Y1045850D01*
X90898Y1046583D01*
X89000Y1046833D01*
D02*
G37*
G36*
X942950Y1040950D02*
X940530Y1040631D01*
X938275Y1039697D01*
X936339Y1038212D01*
X934853Y1036275D01*
X933919Y1034020D01*
X933600Y1031600D01*
X933919Y1029180D01*
X934853Y1026925D01*
X936339Y1024989D01*
X938275Y1023503D01*
X940530Y1022569D01*
X942950Y1022250D01*
X945370Y1022569D01*
X947625Y1023503D01*
X949561Y1024989D01*
X951047Y1026925D01*
X951981Y1029180D01*
X952300Y1031600D01*
X951981Y1034020D01*
X951047Y1036275D01*
X949561Y1038212D01*
X947625Y1039697D01*
X945370Y1040631D01*
X942950Y1040950D01*
D02*
G37*
G36*
X439730Y1077376D02*
X439229Y1077277D01*
X437727Y1076273D01*
X436723Y1074771D01*
X436624Y1074270D01*
X439730D01*
Y1077376D01*
D02*
G37*
G36*
X916280Y1055730D02*
X907086D01*
X907281Y1054249D01*
X908343Y1051685D01*
X910033Y1049483D01*
X912234Y1047793D01*
X914799Y1046731D01*
X916280Y1046536D01*
Y1055730D01*
D02*
G37*
G36*
X918820Y1067464D02*
Y1058270D01*
X928014D01*
X927819Y1059752D01*
X926757Y1062316D01*
X925067Y1064517D01*
X922866Y1066207D01*
X920302Y1067269D01*
X918820Y1067464D01*
D02*
G37*
G36*
X461980Y1071730D02*
X458874D01*
X458973Y1071229D01*
X459977Y1069727D01*
X461479Y1068723D01*
X461980Y1068624D01*
Y1071730D01*
D02*
G37*
G36*
X928014Y1081130D02*
X918820D01*
Y1071936D01*
X920302Y1072131D01*
X922866Y1073193D01*
X925067Y1074883D01*
X926757Y1077085D01*
X927819Y1079649D01*
X928014Y1081130D01*
D02*
G37*
G36*
X467626Y1071730D02*
X464520D01*
Y1068624D01*
X465021Y1068723D01*
X466523Y1069727D01*
X467527Y1071229D01*
X467626Y1071730D01*
D02*
G37*
G36*
X916280Y1081130D02*
X907086D01*
X907281Y1079649D01*
X908343Y1077085D01*
X910033Y1074883D01*
X912234Y1073193D01*
X914799Y1072131D01*
X916280Y1071936D01*
Y1081130D01*
D02*
G37*
G36*
X942950Y1091750D02*
X940530Y1091431D01*
X938275Y1090497D01*
X936339Y1089012D01*
X934853Y1087075D01*
X933919Y1084820D01*
X933600Y1082400D01*
X933919Y1079980D01*
X934853Y1077725D01*
X936339Y1075789D01*
X938275Y1074303D01*
X940530Y1073369D01*
X942950Y1073050D01*
X945370Y1073369D01*
X947625Y1074303D01*
X949561Y1075789D01*
X951047Y1077725D01*
X951981Y1079980D01*
X952300Y1082400D01*
X951981Y1084820D01*
X951047Y1087075D01*
X949561Y1089012D01*
X947625Y1090497D01*
X945370Y1091431D01*
X942950Y1091750D01*
D02*
G37*
G36*
X439730Y1071730D02*
X436624D01*
X436723Y1071229D01*
X437727Y1069727D01*
X439229Y1068723D01*
X439730Y1068624D01*
Y1071730D01*
D02*
G37*
G36*
X89000Y1086833D02*
X81000D01*
X79102Y1086583D01*
X77334Y1085850D01*
X75815Y1084685D01*
X74650Y1083166D01*
X73917Y1081398D01*
X73667Y1079500D01*
X73917Y1077602D01*
X74650Y1075834D01*
X75815Y1074315D01*
X77334Y1073150D01*
X79102Y1072417D01*
X81000Y1072167D01*
X89000D01*
X90898Y1072417D01*
X92666Y1073150D01*
X94185Y1074315D01*
X95350Y1075834D01*
X96083Y1077602D01*
X96333Y1079500D01*
X96083Y1081398D01*
X95350Y1083166D01*
X94185Y1084685D01*
X92666Y1085850D01*
X90898Y1086583D01*
X89000Y1086833D01*
D02*
G37*
G36*
X445376Y1071730D02*
X442270D01*
Y1068624D01*
X442771Y1068723D01*
X444273Y1069727D01*
X445277Y1071229D01*
X445376Y1071730D01*
D02*
G37*
G36*
X344000Y1079893D02*
X341553Y1079406D01*
X339480Y1078020D01*
X332230Y1070770D01*
X330844Y1068696D01*
X330357Y1066250D01*
Y1027000D01*
X330844Y1024554D01*
X332230Y1022480D01*
X334304Y1021094D01*
X336750Y1020607D01*
X339196Y1021094D01*
X341270Y1022480D01*
X342656Y1024554D01*
X343143Y1027000D01*
Y1063602D01*
X348520Y1068980D01*
X349906Y1071054D01*
X350393Y1073500D01*
X349906Y1075946D01*
X348520Y1078020D01*
X346446Y1079406D01*
X344000Y1079893D01*
D02*
G37*
G36*
X442270Y1077376D02*
Y1074270D01*
X445376D01*
X445277Y1074771D01*
X444273Y1076273D01*
X442771Y1077277D01*
X442270Y1077376D01*
D02*
G37*
G36*
X89000Y1026833D02*
X81000D01*
X79102Y1026583D01*
X77334Y1025850D01*
X75815Y1024685D01*
X74650Y1023166D01*
X73917Y1021398D01*
X73667Y1019500D01*
X73917Y1017602D01*
X74650Y1015834D01*
X75815Y1014315D01*
X77334Y1013150D01*
X79102Y1012417D01*
X81000Y1012167D01*
X89000D01*
X90898Y1012417D01*
X92666Y1013150D01*
X94185Y1014315D01*
X95350Y1015834D01*
X96083Y1017602D01*
X96333Y1019500D01*
X96083Y1021398D01*
X95350Y1023166D01*
X94185Y1024685D01*
X92666Y1025850D01*
X90898Y1026583D01*
X89000Y1026833D01*
D02*
G37*
G36*
X916280Y1016664D02*
X914799Y1016469D01*
X912234Y1015407D01*
X910033Y1013717D01*
X908343Y1011516D01*
X907281Y1008951D01*
X907086Y1007470D01*
X916280D01*
Y1016664D01*
D02*
G37*
G36*
X918820D02*
Y1007470D01*
X928014D01*
X927819Y1008951D01*
X926757Y1011516D01*
X925067Y1013717D01*
X922866Y1015407D01*
X920302Y1016469D01*
X918820Y1016664D01*
D02*
G37*
G36*
X917550Y1040950D02*
X915130Y1040631D01*
X912875Y1039697D01*
X910939Y1038212D01*
X909453Y1036275D01*
X908519Y1034020D01*
X908200Y1031600D01*
X908519Y1029180D01*
X909453Y1026925D01*
X910939Y1024989D01*
X912875Y1023503D01*
X915130Y1022569D01*
X917550Y1022250D01*
X919970Y1022569D01*
X922225Y1023503D01*
X924161Y1024989D01*
X925647Y1026925D01*
X926581Y1029180D01*
X926900Y1031600D01*
X926581Y1034020D01*
X925647Y1036275D01*
X924161Y1038212D01*
X922225Y1039697D01*
X919970Y1040631D01*
X917550Y1040950D01*
D02*
G37*
%LPD*%
G36*
X927410Y926262D02*
Y911150D01*
X926140Y910719D01*
X925067Y912117D01*
X922866Y913807D01*
X920302Y914869D01*
X918820Y915064D01*
Y904600D01*
Y894136D01*
X920302Y894331D01*
X922866Y895393D01*
X925067Y897083D01*
X926140Y898481D01*
X927410Y898050D01*
Y882938D01*
X926140Y882685D01*
X925647Y883875D01*
X924161Y885811D01*
X922225Y887297D01*
X919970Y888231D01*
X917550Y888550D01*
X915130Y888231D01*
X912875Y887297D01*
X910939Y885811D01*
X909453Y883875D01*
X908519Y881620D01*
X908200Y879200D01*
X908519Y876780D01*
X909453Y874525D01*
X910939Y872589D01*
X912875Y871103D01*
X915130Y870169D01*
X917550Y869850D01*
X919970Y870169D01*
X922225Y871103D01*
X924161Y872589D01*
X925647Y874525D01*
X926140Y875715D01*
X927410Y875462D01*
Y860350D01*
X926140Y859919D01*
X925067Y861317D01*
X922866Y863007D01*
X920302Y864069D01*
X918820Y864264D01*
Y853800D01*
Y843336D01*
X920302Y843531D01*
X922866Y844593D01*
X925067Y846283D01*
X926140Y847681D01*
X927410Y847250D01*
Y832138D01*
X926140Y831885D01*
X925647Y833075D01*
X924161Y835012D01*
X922225Y836497D01*
X919970Y837431D01*
X917550Y837750D01*
X915130Y837431D01*
X912875Y836497D01*
X910939Y835012D01*
X909453Y833075D01*
X908519Y830820D01*
X908200Y828400D01*
X908519Y825980D01*
X909453Y823725D01*
X910939Y821789D01*
X912875Y820303D01*
X915130Y819369D01*
X917550Y819050D01*
X919970Y819369D01*
X922225Y820303D01*
X924161Y821789D01*
X925647Y823725D01*
X926140Y824915D01*
X927410Y824662D01*
Y809550D01*
X926140Y809119D01*
X925067Y810517D01*
X922866Y812207D01*
X920302Y813269D01*
X918820Y813464D01*
Y803000D01*
Y792536D01*
X920302Y792731D01*
X922866Y793793D01*
X925067Y795483D01*
X926140Y796881D01*
X927410Y796450D01*
Y784150D01*
X926140Y783719D01*
X925067Y785117D01*
X922866Y786807D01*
X920302Y787869D01*
X918820Y788064D01*
Y777600D01*
Y767136D01*
X920302Y767331D01*
X922866Y768393D01*
X925067Y770083D01*
X926140Y771481D01*
X927410Y771050D01*
Y755938D01*
X926140Y755685D01*
X925647Y756875D01*
X924161Y758811D01*
X922225Y760297D01*
X919970Y761231D01*
X917550Y761550D01*
X915130Y761231D01*
X912875Y760297D01*
X910939Y758811D01*
X909453Y756875D01*
X908519Y754620D01*
X908200Y752200D01*
X908519Y749780D01*
X909453Y747525D01*
X910939Y745589D01*
X912875Y744103D01*
X915130Y743169D01*
X917550Y742850D01*
X919970Y743169D01*
X922225Y744103D01*
X924161Y745589D01*
X925647Y747525D01*
X926140Y748715D01*
X927410Y748462D01*
Y730538D01*
X926140Y730285D01*
X925647Y731475D01*
X924161Y733411D01*
X922225Y734897D01*
X919970Y735831D01*
X917550Y736150D01*
X915130Y735831D01*
X912875Y734897D01*
X910939Y733411D01*
X909453Y731475D01*
X908519Y729220D01*
X908200Y726800D01*
X908519Y724380D01*
X909453Y722125D01*
X910939Y720189D01*
X912875Y718703D01*
X915130Y717769D01*
X917550Y717450D01*
X919210Y717669D01*
X919803Y716466D01*
X913927Y710590D01*
X862504D01*
X862119Y711860D01*
X862581Y712169D01*
X898831Y748419D01*
X899393Y749259D01*
X899590Y750250D01*
Y908377D01*
X913045Y921832D01*
X915130Y920969D01*
X917550Y920650D01*
X919970Y920969D01*
X922225Y921903D01*
X924161Y923389D01*
X925647Y925325D01*
X926140Y926515D01*
X927410Y926262D01*
D02*
G37*
G36*
X417410Y780452D02*
Y743420D01*
X415577Y742661D01*
X413745Y741255D01*
X412339Y739423D01*
X411456Y737289D01*
X411154Y735000D01*
Y725000D01*
X411456Y722710D01*
X412339Y720577D01*
X413745Y718745D01*
X414899Y717860D01*
X414468Y716590D01*
X405532D01*
X405101Y717860D01*
X406255Y718745D01*
X407661Y720577D01*
X408544Y722710D01*
X408846Y725000D01*
Y735000D01*
X408544Y737289D01*
X407661Y739423D01*
X406255Y741255D01*
X404423Y742661D01*
X402590Y743420D01*
Y767427D01*
X416140Y780978D01*
X417410Y780452D01*
D02*
G37*
G36*
X940530Y406369D02*
X942950Y406050D01*
X945370Y406369D01*
X945439Y406397D01*
X946158Y405320D01*
X943967Y403130D01*
X938584D01*
X937593Y402933D01*
X936753Y402371D01*
X927618Y393236D01*
X926120Y393534D01*
X925647Y394675D01*
X924161Y396611D01*
X922225Y398097D01*
X919970Y399031D01*
X917550Y399350D01*
X915130Y399031D01*
X912875Y398097D01*
X910939Y396611D01*
X910352Y395847D01*
X908875Y395822D01*
X908779Y395883D01*
X903926Y400737D01*
X904412Y401910D01*
X932050D01*
X933041Y402107D01*
X933881Y402669D01*
X938445Y407232D01*
X940530Y406369D01*
D02*
G37*
G36*
X629609Y953212D02*
X629259Y953143D01*
X628419Y952581D01*
X558177Y882340D01*
X511250D01*
X510259Y882143D01*
X509419Y881581D01*
X398169Y770331D01*
X397607Y769491D01*
X397410Y768500D01*
Y743420D01*
X395577Y742661D01*
X393745Y741255D01*
X392339Y739423D01*
X391456Y737289D01*
X391154Y735000D01*
Y725000D01*
X391456Y722710D01*
X392339Y720577D01*
X393745Y718745D01*
X394899Y717860D01*
X394468Y716590D01*
X385532D01*
X385101Y717860D01*
X386255Y718745D01*
X387660Y720577D01*
X388544Y722710D01*
X388846Y725000D01*
Y735000D01*
X388544Y737289D01*
X387660Y739423D01*
X386255Y741255D01*
X384423Y742661D01*
X382289Y743544D01*
X380000Y743846D01*
X377710Y743544D01*
X376145Y742896D01*
X346020Y773020D01*
X343946Y774406D01*
X341500Y774893D01*
X279843D01*
X279357Y776066D01*
X299298Y796008D01*
X300684Y798082D01*
X301171Y800528D01*
X301171Y800528D01*
Y822899D01*
X301571Y823207D01*
X303098Y825196D01*
X304058Y827514D01*
X304385Y830000D01*
X304058Y832486D01*
X303098Y834804D01*
X301571Y836793D01*
X299582Y838320D01*
X297264Y839280D01*
X296393Y839395D01*
Y908925D01*
X297661Y910577D01*
X298544Y912710D01*
X298719Y914038D01*
X300000D01*
X300218Y912379D01*
X301230Y909937D01*
X302839Y907839D01*
X304937Y906230D01*
X307379Y905218D01*
X308730Y905041D01*
Y920000D01*
Y934959D01*
X307379Y934782D01*
X304937Y933770D01*
X302839Y932161D01*
X301230Y930063D01*
X300218Y927621D01*
X300000Y925962D01*
X298719D01*
X298544Y927289D01*
X297661Y929423D01*
X296393Y931075D01*
Y936961D01*
X295906Y939408D01*
X294520Y941482D01*
X289568Y946434D01*
X290054Y947607D01*
X380352D01*
X390230Y937730D01*
X393571Y934388D01*
X392852Y933311D01*
X392289Y933544D01*
X390000Y933846D01*
X387711Y933544D01*
X385577Y932661D01*
X383745Y931255D01*
X382339Y929423D01*
X381456Y927289D01*
X381154Y925000D01*
Y915000D01*
X381456Y912710D01*
X382339Y910577D01*
X383745Y908745D01*
X385577Y907339D01*
X387711Y906456D01*
X390000Y906154D01*
X392289Y906456D01*
X394423Y907339D01*
X396255Y908745D01*
X397660Y910577D01*
X398544Y912710D01*
X398846Y915000D01*
Y925000D01*
X398544Y927289D01*
X398311Y927852D01*
X399388Y928571D01*
X401364Y926595D01*
X401154Y925000D01*
Y915000D01*
X401456Y912710D01*
X402339Y910577D01*
X403745Y908745D01*
X405577Y907339D01*
X407711Y906456D01*
X410000Y906154D01*
X412289Y906456D01*
X414423Y907339D01*
X416255Y908745D01*
X417661Y910577D01*
X418544Y912710D01*
X418719Y914038D01*
X420000D01*
X420218Y912379D01*
X421230Y909937D01*
X422839Y907839D01*
X424937Y906230D01*
X427379Y905218D01*
X428730Y905041D01*
Y920000D01*
X430000D01*
Y921270D01*
X440127D01*
Y925000D01*
X439782Y927621D01*
X438770Y930063D01*
X437161Y932161D01*
X435063Y933770D01*
X433090Y934587D01*
X433343Y935857D01*
X523102D01*
X523607Y935352D01*
Y931075D01*
X522339Y929423D01*
X521456Y927289D01*
X521154Y925000D01*
Y915000D01*
X521456Y912710D01*
X522339Y910577D01*
X523745Y908745D01*
X525577Y907339D01*
X527711Y906456D01*
X530000Y906154D01*
X532289Y906456D01*
X534423Y907339D01*
X536255Y908745D01*
X537661Y910577D01*
X538544Y912710D01*
X538719Y914038D01*
X540000D01*
X540219Y912379D01*
X541230Y909937D01*
X542839Y907839D01*
X544937Y906230D01*
X547379Y905218D01*
X548730Y905041D01*
Y920000D01*
Y934959D01*
X547379Y934782D01*
X544937Y933770D01*
X542839Y932161D01*
X541230Y930063D01*
X540219Y927621D01*
X540000Y925962D01*
X538719D01*
X538544Y927289D01*
X537661Y929423D01*
X536393Y931075D01*
Y938000D01*
X535906Y940446D01*
X534520Y942520D01*
X530270Y946770D01*
X528196Y948156D01*
X525750Y948643D01*
X397398D01*
X392784Y953257D01*
X392795Y953357D01*
X393355Y954482D01*
X629484D01*
X629609Y953212D01*
D02*
G37*
G36*
X936646Y447648D02*
X936339Y447411D01*
X934853Y445475D01*
X933919Y443220D01*
X933600Y440800D01*
X933919Y438380D01*
X934853Y436125D01*
X936339Y434189D01*
X938275Y432703D01*
X940530Y431769D01*
X942950Y431450D01*
X945370Y431769D01*
X947455Y432632D01*
X956910Y423177D01*
Y416073D01*
X953030Y412192D01*
X951953Y412912D01*
X951981Y412980D01*
X952300Y415400D01*
X951981Y417820D01*
X951047Y420075D01*
X949561Y422011D01*
X947625Y423497D01*
X945370Y424431D01*
X942950Y424750D01*
X940530Y424431D01*
X938275Y423497D01*
X936339Y422011D01*
X934853Y420075D01*
X933919Y417820D01*
X933600Y415400D01*
X933919Y412980D01*
X934782Y410895D01*
X930977Y407090D01*
X926040D01*
X925433Y408360D01*
X926757Y410085D01*
X927819Y412649D01*
X928014Y414130D01*
X907086D01*
X907281Y412649D01*
X908343Y410085D01*
X909667Y408360D01*
X909060Y407090D01*
X894500D01*
X893509Y406893D01*
X892669Y406331D01*
X868169Y381831D01*
X867607Y380991D01*
X866340Y381128D01*
Y409427D01*
X905763Y448850D01*
X910838D01*
X911246Y447648D01*
X910939Y447411D01*
X909453Y445475D01*
X908519Y443220D01*
X908200Y440800D01*
X908519Y438380D01*
X909453Y436125D01*
X910939Y434189D01*
X912875Y432703D01*
X915130Y431769D01*
X917550Y431450D01*
X919970Y431769D01*
X922225Y432703D01*
X924161Y434189D01*
X925647Y436125D01*
X926581Y438380D01*
X926900Y440800D01*
X926581Y443220D01*
X925647Y445475D01*
X924161Y447411D01*
X923854Y447648D01*
X924262Y448850D01*
X936238D01*
X936646Y447648D01*
D02*
G37*
G36*
X936529Y345958D02*
X936339Y345811D01*
X934853Y343875D01*
X933919Y341620D01*
X933600Y339200D01*
X933919Y336780D01*
X934853Y334525D01*
X936339Y332589D01*
X938275Y331103D01*
X940530Y330169D01*
X942950Y329850D01*
X945370Y330169D01*
X947455Y331032D01*
X954160Y324327D01*
Y308823D01*
X947177Y301840D01*
X936312D01*
X935826Y303013D01*
X938445Y305632D01*
X940530Y304769D01*
X942950Y304450D01*
X945370Y304769D01*
X947625Y305703D01*
X949561Y307189D01*
X951047Y309125D01*
X951981Y311380D01*
X952300Y313800D01*
X951981Y316220D01*
X951047Y318475D01*
X949561Y320411D01*
X947625Y321897D01*
X945370Y322831D01*
X942950Y323150D01*
X940530Y322831D01*
X938275Y321897D01*
X936339Y320411D01*
X934853Y318475D01*
X933919Y316220D01*
X933600Y313800D01*
X933919Y311380D01*
X934782Y309295D01*
X931327Y305840D01*
X926328D01*
X925702Y307110D01*
X926757Y308485D01*
X927819Y311049D01*
X928014Y312530D01*
X907086D01*
X907281Y311049D01*
X908343Y308485D01*
X909398Y307110D01*
X908772Y305840D01*
X902000D01*
X901009Y305643D01*
X900169Y305081D01*
X890610Y295522D01*
X889340Y296048D01*
Y337427D01*
X899073Y347160D01*
X910721D01*
X911129Y345958D01*
X910939Y345811D01*
X909453Y343875D01*
X908519Y341620D01*
X908200Y339200D01*
X908519Y336780D01*
X909453Y334525D01*
X910939Y332589D01*
X912875Y331103D01*
X915130Y330169D01*
X917550Y329850D01*
X919970Y330169D01*
X922225Y331103D01*
X924161Y332589D01*
X925647Y334525D01*
X926581Y336780D01*
X926900Y339200D01*
X926581Y341620D01*
X925647Y343875D01*
X924161Y345811D01*
X923971Y345958D01*
X924379Y347160D01*
X936121D01*
X936529Y345958D01*
D02*
G37*
G36*
X904378Y392960D02*
X904275Y391707D01*
X903150Y391106D01*
X902521Y391527D01*
X902020Y391626D01*
Y387250D01*
Y382874D01*
X902521Y382973D01*
X904023Y383977D01*
X905332Y383650D01*
X911353Y377629D01*
X912193Y377067D01*
X913184Y376870D01*
X921916D01*
X922907Y377067D01*
X923747Y377629D01*
X929921Y383803D01*
X930483Y384643D01*
X930680Y385634D01*
Y388973D01*
X932490Y390784D01*
X933629Y390222D01*
X933600Y390000D01*
X933919Y387580D01*
X934853Y385325D01*
X936339Y383389D01*
X938275Y381903D01*
X940530Y380969D01*
X942950Y380650D01*
X945370Y380969D01*
X947455Y381832D01*
X953660Y375627D01*
Y362922D01*
X953526Y362753D01*
X953324Y362648D01*
X952151Y363469D01*
X952300Y364600D01*
X951981Y367020D01*
X951047Y369275D01*
X949561Y371211D01*
X947625Y372697D01*
X945370Y373631D01*
X942950Y373950D01*
X940530Y373631D01*
X938275Y372697D01*
X936339Y371211D01*
X934853Y369275D01*
X933919Y367020D01*
X933600Y364600D01*
X933919Y362180D01*
X934782Y360095D01*
X931027Y356340D01*
X926098D01*
X925472Y357610D01*
X926757Y359285D01*
X927819Y361849D01*
X928014Y363330D01*
X907086D01*
X907281Y361849D01*
X908343Y359285D01*
X909629Y357610D01*
X909002Y356340D01*
X892750D01*
X891759Y356143D01*
X890919Y355581D01*
X879360Y344022D01*
X878603Y344183D01*
X878090Y344502D01*
Y374427D01*
X900500Y396838D01*
X904378Y392960D01*
D02*
G37*
G36*
X767719Y949110D02*
X767193Y947840D01*
X718516D01*
X717837Y949110D01*
X718080Y949474D01*
X718334Y950750D01*
X718080Y952026D01*
X717357Y953108D01*
X717201Y953212D01*
X717586Y954482D01*
X762347D01*
X767719Y949110D01*
D02*
G37*
%LPC*%
G36*
X429525Y839525D02*
X410475D01*
Y820475D01*
X429525D01*
Y839525D01*
D02*
G37*
G36*
X320127Y918730D02*
X311270D01*
Y905041D01*
X312621Y905218D01*
X315063Y906230D01*
X317161Y907839D01*
X318770Y909937D01*
X319782Y912379D01*
X320127Y915000D01*
Y918730D01*
D02*
G37*
G36*
X440127D02*
X431270D01*
Y905041D01*
X432621Y905218D01*
X435063Y906230D01*
X437161Y907839D01*
X438770Y909937D01*
X439782Y912379D01*
X440127Y915000D01*
Y918730D01*
D02*
G37*
G36*
X510000Y933846D02*
X507711Y933544D01*
X505577Y932661D01*
X503745Y931255D01*
X502339Y929423D01*
X501456Y927289D01*
X501154Y925000D01*
Y915000D01*
X501456Y912710D01*
X502339Y910577D01*
X503745Y908745D01*
X505577Y907339D01*
X507711Y906456D01*
X510000Y906154D01*
X512289Y906456D01*
X514423Y907339D01*
X516255Y908745D01*
X517661Y910577D01*
X518544Y912710D01*
X518846Y915000D01*
Y925000D01*
X518544Y927289D01*
X517661Y929423D01*
X516255Y931255D01*
X514423Y932661D01*
X512289Y933544D01*
X510000Y933846D01*
D02*
G37*
G36*
X916280Y852530D02*
X907086D01*
X907281Y851049D01*
X908343Y848485D01*
X910033Y846283D01*
X912234Y844593D01*
X914799Y843531D01*
X916280Y843336D01*
Y852530D01*
D02*
G37*
G36*
Y864264D02*
X914799Y864069D01*
X912234Y863007D01*
X910033Y861317D01*
X908343Y859116D01*
X907281Y856552D01*
X907086Y855070D01*
X916280D01*
Y864264D01*
D02*
G37*
G36*
Y903330D02*
X907086D01*
X907281Y901849D01*
X908343Y899285D01*
X910033Y897083D01*
X912234Y895393D01*
X914799Y894331D01*
X916280Y894136D01*
Y903330D01*
D02*
G37*
G36*
X560127Y918730D02*
X551270D01*
Y905041D01*
X552621Y905218D01*
X555063Y906230D01*
X557161Y907839D01*
X558770Y909937D01*
X559782Y912379D01*
X560127Y915000D01*
Y918730D01*
D02*
G37*
G36*
X916280Y915064D02*
X914799Y914869D01*
X912234Y913807D01*
X910033Y912117D01*
X908343Y909915D01*
X907281Y907352D01*
X907086Y905870D01*
X916280D01*
Y915064D01*
D02*
G37*
G36*
X918820Y324264D02*
Y315070D01*
X928014D01*
X927819Y316551D01*
X926757Y319116D01*
X925067Y321317D01*
X922866Y323007D01*
X920302Y324069D01*
X918820Y324264D01*
D02*
G37*
G36*
Y425864D02*
Y416670D01*
X928014D01*
X927819Y418152D01*
X926757Y420715D01*
X925067Y422917D01*
X922866Y424607D01*
X920302Y425669D01*
X918820Y425864D01*
D02*
G37*
G36*
X916280Y776330D02*
X907086D01*
X907281Y774849D01*
X908343Y772285D01*
X910033Y770083D01*
X912234Y768393D01*
X914799Y767331D01*
X916280Y767136D01*
Y776330D01*
D02*
G37*
G36*
Y324264D02*
X914799Y324069D01*
X912235Y323007D01*
X910033Y321317D01*
X908343Y319116D01*
X907281Y316551D01*
X907086Y315070D01*
X916280D01*
Y324264D01*
D02*
G37*
G36*
Y425864D02*
X914799Y425669D01*
X912235Y424607D01*
X910033Y422917D01*
X908343Y420715D01*
X907281Y418152D01*
X907086Y416670D01*
X916280D01*
Y425864D01*
D02*
G37*
G36*
X899480Y385980D02*
X896374D01*
X896473Y385479D01*
X897477Y383977D01*
X898979Y382973D01*
X899480Y382874D01*
Y385980D01*
D02*
G37*
G36*
Y391626D02*
X898979Y391527D01*
X897477Y390523D01*
X896473Y389021D01*
X896374Y388520D01*
X899480D01*
Y391626D01*
D02*
G37*
G36*
X916280Y375064D02*
X914799Y374869D01*
X912235Y373807D01*
X910033Y372117D01*
X908343Y369916D01*
X907281Y367351D01*
X907086Y365870D01*
X916280D01*
Y375064D01*
D02*
G37*
G36*
X918820D02*
Y365870D01*
X928014D01*
X927819Y367351D01*
X926757Y369916D01*
X925067Y372117D01*
X922866Y373807D01*
X920302Y374869D01*
X918820Y375064D01*
D02*
G37*
G36*
X344816Y839607D02*
X342329Y839280D01*
X340012Y838320D01*
X338023Y836793D01*
X336496Y834804D01*
X335536Y832486D01*
X335209Y830000D01*
X335536Y827514D01*
X336496Y825196D01*
X338023Y823207D01*
X340012Y821680D01*
X342329Y820720D01*
X344816Y820393D01*
X347303Y820720D01*
X349620Y821680D01*
X351609Y823207D01*
X353136Y825196D01*
X354096Y827514D01*
X354423Y830000D01*
X354096Y832486D01*
X353136Y834804D01*
X351609Y836793D01*
X349620Y838320D01*
X347303Y839280D01*
X344816Y839607D01*
D02*
G37*
G36*
X319924D02*
X317437Y839280D01*
X315120Y838320D01*
X313131Y836793D01*
X311604Y834804D01*
X310644Y832486D01*
X310317Y830000D01*
X310644Y827514D01*
X311604Y825196D01*
X313131Y823207D01*
X315120Y821680D01*
X317437Y820720D01*
X319924Y820393D01*
X322411Y820720D01*
X324728Y821680D01*
X326717Y823207D01*
X328244Y825196D01*
X329204Y827514D01*
X329531Y830000D01*
X329204Y832486D01*
X328244Y834804D01*
X326717Y836793D01*
X324728Y838320D01*
X322411Y839280D01*
X319924Y839607D01*
D02*
G37*
G36*
X394854D02*
X392368Y839280D01*
X390050Y838320D01*
X388061Y836793D01*
X386534Y834804D01*
X385574Y832486D01*
X385247Y830000D01*
X385574Y827514D01*
X386534Y825196D01*
X388061Y823207D01*
X390050Y821680D01*
X392368Y820720D01*
X394854Y820393D01*
X397341Y820720D01*
X399658Y821680D01*
X401647Y823207D01*
X403174Y825196D01*
X404134Y827514D01*
X404461Y830000D01*
X404134Y832486D01*
X403174Y834804D01*
X401647Y836793D01*
X399658Y838320D01*
X397341Y839280D01*
X394854Y839607D01*
D02*
G37*
G36*
X369962D02*
X367476Y839280D01*
X365158Y838320D01*
X363169Y836793D01*
X361642Y834804D01*
X360682Y832486D01*
X360355Y830000D01*
X360682Y827514D01*
X361642Y825196D01*
X363169Y823207D01*
X365158Y821680D01*
X367476Y820720D01*
X369962Y820393D01*
X372449Y820720D01*
X374766Y821680D01*
X376755Y823207D01*
X378282Y825196D01*
X379242Y827514D01*
X379569Y830000D01*
X379242Y832486D01*
X378282Y834804D01*
X376755Y836793D01*
X374766Y838320D01*
X372449Y839280D01*
X369962Y839607D01*
D02*
G37*
G36*
X311270Y934959D02*
Y921270D01*
X320127D01*
Y925000D01*
X319782Y927621D01*
X318770Y930063D01*
X317161Y932161D01*
X315063Y933770D01*
X312621Y934782D01*
X311270Y934959D01*
D02*
G37*
G36*
X916280Y801730D02*
X907086D01*
X907281Y800249D01*
X908343Y797685D01*
X910033Y795483D01*
X912234Y793793D01*
X914799Y792731D01*
X916280Y792536D01*
Y801730D01*
D02*
G37*
G36*
Y788064D02*
X914799Y787869D01*
X912234Y786807D01*
X910033Y785117D01*
X908343Y782915D01*
X907281Y780351D01*
X907086Y778870D01*
X916280D01*
Y788064D01*
D02*
G37*
G36*
X551270Y934959D02*
Y921270D01*
X560127D01*
Y925000D01*
X559782Y927621D01*
X558770Y930063D01*
X557161Y932161D01*
X555063Y933770D01*
X552621Y934782D01*
X551270Y934959D01*
D02*
G37*
G36*
X916280Y813464D02*
X914799Y813269D01*
X912234Y812207D01*
X910033Y810517D01*
X908343Y808316D01*
X907281Y805751D01*
X907086Y804270D01*
X916280D01*
Y813464D01*
D02*
G37*
%LPD*%
D22*
X488000Y666500D02*
X904250D01*
X473000Y651500D02*
X488000Y666500D01*
X900750Y381400D02*
X917550Y364600D01*
X900750Y381400D02*
Y387250D01*
X441000Y1073000D02*
X463250D01*
X518290Y171040D02*
X521750Y174500D01*
X518290Y170620D02*
Y171040D01*
X515630Y167960D02*
X518290Y170620D01*
X515210Y167960D02*
X515630D01*
X513750Y166500D02*
X515210Y167960D01*
X513525Y184759D02*
X514009D01*
X519000Y189750D01*
X513525Y178759D02*
X514009D01*
X520000Y184750D01*
X521750Y174500D02*
X748000D01*
X849540Y315540D02*
X851250Y317250D01*
X849370Y315540D02*
X849540D01*
X846710Y312880D02*
X849370Y315540D01*
X846710Y312710D02*
Y312880D01*
X832000Y298000D02*
X846710Y312710D01*
X849540Y321790D02*
X851250Y323500D01*
X849370Y321790D02*
X849540D01*
X846710Y319130D02*
X849370Y321790D01*
X846710Y318960D02*
Y319130D01*
X827500Y299750D02*
X846710Y318960D01*
X836750Y296500D02*
X851250Y311000D01*
X827500Y144000D02*
Y299750D01*
X946940Y451440D02*
X956750Y461250D01*
X904690Y451440D02*
X946940D01*
X863750Y410500D02*
X904690Y451440D01*
X932000Y455250D02*
X942950Y466200D01*
X898250Y455250D02*
X932000D01*
X857500Y414500D02*
X898250Y455250D01*
X928090Y390046D02*
X938584Y400540D01*
X907010Y385634D02*
Y393990D01*
X900500Y400500D02*
X907010Y393990D01*
X928090Y385634D02*
Y390046D01*
X921916Y379460D02*
X928090Y385634D01*
X913184Y379460D02*
X921916D01*
X907010Y385634D02*
X913184Y379460D01*
X945040Y400540D02*
X959500Y415000D01*
X938584Y400540D02*
X945040D01*
X960000Y528250D02*
X961250D01*
X945850Y542400D02*
X960000Y528250D01*
X897000Y909450D02*
X917550Y930000D01*
X897000Y750250D02*
Y909450D01*
X930000Y723000D02*
Y968350D01*
X840250Y870000D02*
Y1230000D01*
X774446Y959612D02*
X784860D01*
X776980Y964770D02*
X783520D01*
X773690Y949790D02*
X774631D01*
X770870D02*
X771810D01*
X774715Y949706D02*
X788162D01*
X774631Y949790D02*
X774715Y949706D01*
X763419Y957072D02*
X770786Y949706D01*
X392928Y957072D02*
X763419D01*
X771810Y949790D02*
X773690D01*
X770786Y949706D02*
X770870Y949790D01*
X772350Y954976D02*
X787677D01*
X771906Y954532D02*
X772350Y954976D01*
X405250Y1212250D02*
Y1281250D01*
X641750Y1281500D02*
X653000Y1270250D01*
X585250Y1281500D02*
X641750D01*
X500250Y714000D02*
X860750D01*
X426250Y640000D02*
X500250Y714000D01*
X412500Y640000D02*
X426250D01*
X505750Y708000D02*
X915000D01*
X412500Y614750D02*
X505750Y708000D01*
X412500Y530000D02*
Y614750D01*
X917550Y980800D02*
X930000Y968350D01*
X915000Y708000D02*
X930000Y723000D01*
X860750Y714000D02*
X897000Y750250D01*
X947500Y517000D02*
X963750Y500750D01*
X942950Y517000D02*
X947500D01*
X841000Y136500D02*
Y294250D01*
X851250Y304500D01*
X802000Y97500D02*
X841000Y136500D01*
X218750Y97500D02*
X802000D01*
X175000Y141250D02*
X218750Y97500D01*
X175000Y141250D02*
Y157000D01*
X942950Y542400D02*
X945850D01*
X832000Y141750D02*
Y298000D01*
X836750Y139750D02*
Y296500D01*
X799000Y102000D02*
X836750Y139750D01*
X221500Y102000D02*
X799000D01*
X180750Y142750D02*
X221500Y102000D01*
X180750Y142750D02*
Y157000D01*
X798500Y108250D02*
X832000Y141750D01*
X222750Y108250D02*
X798500D01*
X186500Y144500D02*
X222750Y108250D01*
X186500Y144500D02*
Y157000D01*
X796875Y113375D02*
X827500Y144000D01*
X224875Y113375D02*
X796875D01*
X192250Y146000D02*
X224875Y113375D01*
X192250Y146000D02*
Y157000D01*
X794250Y117750D02*
X823000Y146500D01*
X227500Y117750D02*
X794250D01*
X198000Y147250D02*
X227500Y117750D01*
X198000Y147250D02*
Y157000D01*
X235750Y131250D02*
X789000D01*
X232250Y127000D02*
X791000D01*
X230000Y122250D02*
X792500D01*
X203500Y148750D02*
X230000Y122250D01*
X792500D02*
X818250Y148000D01*
X209000Y150250D02*
X232250Y127000D01*
X791000D02*
X812750Y148750D01*
X214500Y152500D02*
X235750Y131250D01*
X789000D02*
X807250Y149500D01*
X912500Y479000D02*
X931000D01*
X214500Y152500D02*
Y157000D01*
X209000Y150250D02*
Y157000D01*
X203500Y148750D02*
Y157000D01*
X812750Y463000D02*
X917550Y567800D01*
X812750Y148750D02*
Y463000D01*
X857500Y87000D02*
Y414500D01*
X856000Y85500D02*
X857500Y87000D01*
X158500Y85500D02*
X856000D01*
X143500Y100500D02*
X158500Y85500D01*
X860250Y80500D02*
X863750Y84000D01*
X155000Y80500D02*
X860250D01*
X137750Y97750D02*
X155000Y80500D01*
X942950Y491600D02*
X956750Y477800D01*
Y461250D02*
Y477800D01*
X863750Y84000D02*
Y410500D01*
X143500Y100500D02*
Y157250D01*
X139000Y51750D02*
X881250D01*
X102500Y88250D02*
X139000Y51750D01*
X102500Y88250D02*
Y157000D01*
X137750Y97750D02*
Y157250D01*
X897000Y67500D02*
Y289000D01*
X881250Y51750D02*
X897000Y67500D01*
Y289000D02*
X907250Y299250D01*
X956750Y307750D02*
Y325400D01*
X948250Y299250D02*
X956750Y307750D01*
X907250Y299250D02*
X948250D01*
X942950Y339200D02*
X956750Y325400D01*
X892000Y293250D02*
X902000Y303250D01*
X932400D01*
X942950Y313800D01*
X892000Y70500D02*
Y293250D01*
X878000Y56500D02*
X892000Y70500D01*
X141750Y56500D02*
X878000D01*
X108500Y89750D02*
X141750Y56500D01*
X876000Y61250D02*
X886750Y72000D01*
X144500Y61250D02*
X876000D01*
X114500Y91250D02*
X144500Y61250D01*
X942950Y390000D02*
X956250Y376700D01*
Y361250D02*
Y376700D01*
X944750Y349750D02*
X956250Y361250D01*
X898000Y349750D02*
X944750D01*
X886750Y338500D02*
X898000Y349750D01*
X886750Y72000D02*
Y338500D01*
X881000Y342000D02*
X892750Y353750D01*
X932100D01*
X942950Y364600D01*
X881000Y74000D02*
Y342000D01*
X873250Y66250D02*
X881000Y74000D01*
X146750Y66250D02*
X873250D01*
X875500Y77000D02*
Y375500D01*
X869500Y71000D02*
X875500Y77000D01*
X149750Y71000D02*
X869500D01*
X870000Y80530D02*
Y380000D01*
X865220Y75750D02*
X870000Y80530D01*
X152500Y75750D02*
X865220D01*
X132000Y96250D02*
X152500Y75750D01*
X132000Y96250D02*
Y157250D01*
X126250Y94500D02*
X149750Y71000D01*
X126250Y94500D02*
Y157250D01*
X120500Y92500D02*
X146750Y66250D01*
X120500Y92500D02*
Y157250D01*
X114500Y91250D02*
Y157000D01*
X108500Y89750D02*
Y157000D01*
X875500Y375500D02*
X900500Y400500D01*
X959500Y415000D02*
Y424250D01*
X942950Y440800D02*
X959500Y424250D01*
X932050Y404500D02*
X942950Y415400D01*
X894500Y404500D02*
X932050D01*
X870000Y380000D02*
X894500Y404500D01*
X85000Y979500D02*
X87112D01*
X350000Y1000000D02*
X392928Y957072D01*
X622046Y962660D02*
X763778D01*
X581152Y1003554D02*
X622046Y962660D01*
X589788Y1003554D02*
Y1003554D01*
X763778Y962660D02*
X771906Y954532D01*
X625348Y967994D02*
X766064D01*
X589788Y1003554D02*
X625348Y967994D01*
X628478Y973500D02*
X768250D01*
X598170Y1003808D02*
X628478Y973500D01*
X766064Y967994D02*
X774446Y959612D01*
X470000Y1000000D02*
X486254Y1016254D01*
X610108D01*
X642620Y983742D01*
X772668D01*
X781050Y975360D01*
X777750Y970000D02*
X782250D01*
X768250Y973500D02*
X776980Y964770D01*
X769000Y978750D02*
X777750Y970000D01*
X632250Y978750D02*
X769000D01*
X607250Y1003750D02*
X632250Y978750D01*
X474000Y1170250D02*
Y1198750D01*
X840250Y1230000D02*
X850250Y1240000D01*
X653000Y1270250D02*
X665250D01*
X400000Y730000D02*
Y768500D01*
X511250Y879750D01*
X559250D01*
X630250Y950750D01*
X715000D01*
X420000Y730000D02*
Y781000D01*
X513000Y874000D01*
X562500D01*
X633750Y945250D01*
X772750D01*
X519000Y189750D02*
X740000D01*
X771500Y221250D01*
X798000D01*
X520000Y184750D02*
X742000D01*
X513750Y172500D02*
X521000Y179750D01*
X744750D01*
X742000Y184750D02*
X772500Y215250D01*
X798000D01*
X744750Y179750D02*
X774250Y209250D01*
X798000D01*
X776750Y203250D02*
X798000D01*
X748000Y174500D02*
X776750Y203250D01*
X903250Y209250D02*
Y218000D01*
X909000Y223750D01*
X929100D01*
X942950Y237600D01*
X818250Y392300D02*
X917550Y491600D01*
X823000Y389500D02*
X912500Y479000D01*
X818250Y148000D02*
Y392300D01*
X823000Y146500D02*
Y389500D01*
X807250Y482900D02*
X917550Y593200D01*
X807250Y149500D02*
Y482900D01*
X270000Y730000D02*
X290750Y709250D01*
X477250D01*
X495000Y727000D01*
X567000D01*
X290000Y730000D02*
X306000Y714000D01*
X471750D01*
X494750Y737000D01*
X566250D01*
X486000Y672000D02*
X903500D01*
X478250Y664250D02*
X486000Y672000D01*
X489250Y660500D02*
X905000D01*
X486500Y657750D02*
X489250Y660500D01*
X486000Y657750D02*
X486500D01*
X496750Y648750D02*
X906500D01*
X429500Y581500D02*
X496750Y648750D01*
X429500Y519750D02*
Y581500D01*
X399000Y489250D02*
X429500Y519750D01*
X363000Y489250D02*
X399000D01*
X340000Y466250D02*
X363000Y489250D01*
X340000Y440000D02*
Y466250D01*
X490750Y654750D02*
X905500D01*
X421250Y585250D02*
X490750Y654750D01*
X421250Y565000D02*
Y565250D01*
Y585250D01*
X405250Y1212250D02*
X421500Y1196000D01*
Y1182500D02*
Y1196000D01*
Y1182500D02*
X442750Y1161250D01*
X451750D01*
X474000Y1198750D02*
X494250Y1219000D01*
X70250Y1420000D02*
X970250D01*
X1020250Y1370000D01*
Y70000D02*
Y1370000D01*
X970250Y20000D02*
X1020250Y70000D01*
X70250Y20000D02*
X970250D01*
X20250Y70000D02*
X70250Y20000D01*
X20250Y70000D02*
Y1370000D01*
X70250Y1420000D01*
Y1420000D01*
D23*
X880250Y840000D02*
Y1030000D01*
X688750Y852000D02*
Y925750D01*
X880250Y1030000D02*
Y1120000D01*
X273500Y1176500D02*
X450000Y1000000D01*
X267250Y1176500D02*
X273500D01*
D24*
X833000Y862750D02*
X840250Y870000D01*
X759500Y862750D02*
X833000D01*
X731000Y891250D02*
X759500Y862750D01*
X800250Y900000D02*
X810250Y910000D01*
Y1260000D01*
X699750Y891500D02*
X700000Y891250D01*
X731000D01*
X810250Y1260000D02*
Y1320000D01*
D26*
X312500Y640000D02*
Y652250D01*
X250000Y714750D02*
X312500Y652250D01*
X250000Y714750D02*
Y730000D01*
X227500Y752500D02*
X250000Y730000D01*
X160000Y752500D02*
X227500D01*
X312500Y530000D02*
Y640000D01*
X160000Y572500D02*
X310250D01*
X263000Y392500D02*
X280000Y375500D01*
X160000Y392500D02*
X263000D01*
X160000Y212500D02*
X274500D01*
X280000Y218000D01*
Y240000D01*
X430000D02*
Y350000D01*
X280000Y240000D02*
Y350000D01*
X430000D02*
Y363250D01*
X417750Y375500D02*
X430000Y363250D01*
X280000Y375500D02*
X417750D01*
X280000Y350000D02*
Y375500D01*
X320000Y415500D01*
Y440000D01*
X312500Y447500D02*
X320000Y440000D01*
X312500Y447500D02*
Y530000D01*
X250000Y730000D02*
Y755750D01*
X294778Y800528D02*
Y830000D01*
X290000Y834778D02*
X294778Y830000D01*
X290000Y834778D02*
Y920000D01*
X394750Y942250D02*
X410000Y927000D01*
X383000Y954000D02*
X394750Y942250D01*
X530000Y920000D02*
Y938000D01*
X525750Y942250D02*
X530000Y938000D01*
X394750Y942250D02*
X525750D01*
X290000Y920000D02*
Y936961D01*
X272961Y954000D02*
X290000Y936961D01*
X181500Y954000D02*
X272961D01*
X166878Y939378D02*
X181500Y954000D01*
X166878Y919734D02*
Y939378D01*
X150000Y985500D02*
Y1000000D01*
Y985500D02*
X181500Y954000D01*
X240000Y986961D02*
Y1000000D01*
Y986961D02*
X272961Y954000D01*
X330000Y976250D02*
Y1000000D01*
Y976250D02*
X352250Y954000D01*
X272961D02*
X352250D01*
X383000D01*
X336750Y1027000D02*
Y1066250D01*
X344000Y1073500D01*
X341500Y768500D02*
X380000Y730000D01*
X262750Y768500D02*
X341500D01*
X250000Y755750D02*
X262750Y768500D01*
X294778Y800528D01*
D27*
X420000Y830000D02*
D03*
D28*
X394854D02*
D03*
X369962D02*
D03*
X344816D02*
D03*
X319924D02*
D03*
X294778D02*
D03*
X269886D02*
D03*
D29*
X380000Y730000D02*
D03*
X440000D02*
D03*
X420000D02*
D03*
X400000D02*
D03*
X250000D02*
D03*
X310000D02*
D03*
X290000D02*
D03*
X270000D02*
D03*
X170000Y1000000D02*
D03*
X150000D02*
D03*
X260000D02*
D03*
X240000D02*
D03*
X450000Y350000D02*
D03*
X430000D02*
D03*
X410000D02*
D03*
X300000D02*
D03*
X280000D02*
D03*
X260000D02*
D03*
X450000Y240000D02*
D03*
X430000D02*
D03*
X410000D02*
D03*
X300000D02*
D03*
X280000D02*
D03*
X260000D02*
D03*
X146878Y919734D02*
D03*
X166878D02*
D03*
X186878D02*
D03*
X370000Y1000000D02*
D03*
X350000D02*
D03*
X330000D02*
D03*
X490000D02*
D03*
X470000D02*
D03*
X450000D02*
D03*
X550000Y920000D02*
D03*
X530000D02*
D03*
X510000D02*
D03*
X430000D02*
D03*
X410000D02*
D03*
X390000D02*
D03*
X270000D02*
D03*
X290000D02*
D03*
X310000D02*
D03*
X320000Y440000D02*
D03*
X380000D02*
D03*
X360000D02*
D03*
X340000D02*
D03*
X267250Y1176500D02*
D03*
X247250D02*
D03*
X167250D02*
D03*
X147250D02*
D03*
X708750Y852000D02*
D03*
X688750D02*
D03*
X668750D02*
D03*
X708750Y925750D02*
D03*
X688750D02*
D03*
X668750D02*
D03*
D30*
X412500Y640000D02*
D03*
X387500D02*
D03*
X362500D02*
D03*
X312500D02*
D03*
X287500D02*
D03*
X337500D02*
D03*
X412500Y530000D02*
D03*
X387500D02*
D03*
X362500D02*
D03*
X312500D02*
D03*
X287500D02*
D03*
X337500D02*
D03*
X677500Y1380000D02*
D03*
X702500D02*
D03*
X877500D02*
D03*
X902500D02*
D03*
X777500D02*
D03*
X802500D02*
D03*
D31*
X85000Y1119500D02*
D03*
Y1099500D02*
D03*
Y1079500D02*
D03*
Y1059500D02*
D03*
Y1019500D02*
D03*
Y999500D02*
D03*
Y919500D02*
D03*
Y939500D02*
D03*
Y959500D02*
D03*
Y899500D02*
D03*
Y979500D02*
D03*
Y1039500D02*
D03*
D32*
X585000Y1281250D02*
D03*
X405000D02*
D03*
X225000D02*
D03*
D33*
X560000D02*
D03*
X540000D02*
D03*
X515000D02*
D03*
X380000D02*
D03*
X360000D02*
D03*
X335000D02*
D03*
X200000D02*
D03*
X180000D02*
D03*
X155000D02*
D03*
D34*
X615700Y1308350D02*
D03*
X484300D02*
D03*
X435700D02*
D03*
X304300D02*
D03*
X255700D02*
D03*
X124300D02*
D03*
D35*
X160000Y467500D02*
D03*
Y417500D02*
D03*
Y392500D02*
D03*
Y442500D02*
D03*
Y287500D02*
D03*
Y237500D02*
D03*
Y212500D02*
D03*
Y262500D02*
D03*
Y647500D02*
D03*
Y597500D02*
D03*
Y572500D02*
D03*
Y622500D02*
D03*
Y827500D02*
D03*
Y777500D02*
D03*
Y752500D02*
D03*
Y802500D02*
D03*
D36*
X90000Y833500D02*
D03*
X70000D02*
D03*
Y653500D02*
D03*
X90000D02*
D03*
X70000Y473500D02*
D03*
X90000D02*
D03*
X70000Y293500D02*
D03*
X90000D02*
D03*
D37*
X80000Y795000D02*
D03*
Y745000D02*
D03*
Y565000D02*
D03*
Y615000D02*
D03*
Y385000D02*
D03*
Y435000D02*
D03*
Y205000D02*
D03*
Y255000D02*
D03*
D38*
X970250Y1370000D02*
D03*
X70250D02*
D03*
Y70000D02*
D03*
X970250D02*
D03*
D39*
X783250Y1220000D02*
D03*
X707250D02*
D03*
X942950Y593200D02*
D03*
X917550D02*
D03*
Y567800D02*
D03*
Y542400D02*
D03*
Y517000D02*
D03*
Y491600D02*
D03*
Y466200D02*
D03*
Y440800D02*
D03*
Y415400D02*
D03*
X942950D02*
D03*
Y440800D02*
D03*
Y466200D02*
D03*
Y491600D02*
D03*
Y517000D02*
D03*
Y542400D02*
D03*
Y567800D02*
D03*
Y364600D02*
D03*
Y339200D02*
D03*
Y313800D02*
D03*
Y288400D02*
D03*
Y263000D02*
D03*
Y237600D02*
D03*
Y212200D02*
D03*
X917550D02*
D03*
Y237600D02*
D03*
Y263000D02*
D03*
Y288400D02*
D03*
Y313800D02*
D03*
Y339200D02*
D03*
Y364600D02*
D03*
Y390000D02*
D03*
X942950D02*
D03*
X917550Y186800D02*
D03*
X942950D02*
D03*
Y1133200D02*
D03*
X917550D02*
D03*
Y1107800D02*
D03*
Y1082400D02*
D03*
Y1057000D02*
D03*
Y1031600D02*
D03*
Y1006200D02*
D03*
Y980800D02*
D03*
Y955400D02*
D03*
X942950D02*
D03*
Y980800D02*
D03*
Y1006200D02*
D03*
Y1031600D02*
D03*
Y1057000D02*
D03*
Y1082400D02*
D03*
Y1107800D02*
D03*
Y904600D02*
D03*
Y879200D02*
D03*
Y853800D02*
D03*
Y828400D02*
D03*
Y803000D02*
D03*
Y777600D02*
D03*
Y752200D02*
D03*
X917550D02*
D03*
Y777600D02*
D03*
Y803000D02*
D03*
Y828400D02*
D03*
Y853800D02*
D03*
Y879200D02*
D03*
Y904600D02*
D03*
Y930000D02*
D03*
X942950D02*
D03*
X917550Y726800D02*
D03*
X942950D02*
D03*
D40*
X555250Y150000D02*
D03*
X605250D02*
D03*
D41*
X57250Y1198000D02*
D03*
Y1258000D02*
D03*
Y1238000D02*
D03*
Y1218000D02*
D03*
D42*
X789300Y157300D02*
D03*
D43*
X751200D02*
D03*
D44*
X900750Y387250D02*
D03*
X463250Y1073000D02*
D03*
X441000D02*
D03*
X406250Y1164000D02*
D03*
X513525Y184759D02*
D03*
Y178759D02*
D03*
X851250Y311000D02*
D03*
X961250Y528250D02*
D03*
X784860Y959612D02*
D03*
X783520Y964770D02*
D03*
X787677Y954976D02*
D03*
X963750Y500750D02*
D03*
X851250Y304500D02*
D03*
Y317250D02*
D03*
Y323500D02*
D03*
X931000Y479000D02*
D03*
X214500Y157000D02*
D03*
X209000D02*
D03*
X203500D02*
D03*
X198000D02*
D03*
X192250D02*
D03*
X186500D02*
D03*
X180750D02*
D03*
X175000D02*
D03*
X143500Y157250D02*
D03*
X137750D02*
D03*
X132000D02*
D03*
X126250D02*
D03*
X120500D02*
D03*
X114500Y157000D02*
D03*
X108500D02*
D03*
X102500D02*
D03*
X788162Y949706D02*
D03*
X581152Y1003554D02*
D03*
X589788D02*
D03*
X598170Y1003808D02*
D03*
X781050Y975360D02*
D03*
X782250Y970000D02*
D03*
X607250Y1003750D02*
D03*
X715000Y950750D02*
D03*
X772750Y945250D02*
D03*
X513750Y172500D02*
D03*
Y166500D02*
D03*
X798000Y221250D02*
D03*
Y215250D02*
D03*
Y209250D02*
D03*
Y203250D02*
D03*
X903250Y209250D02*
D03*
X567000Y727000D02*
D03*
X566250Y737000D02*
D03*
X903500Y672000D02*
D03*
X904250Y666500D02*
D03*
X905000Y660500D02*
D03*
X478250Y664250D02*
D03*
X486000Y657750D02*
D03*
X473000Y651500D02*
D03*
X905500Y654750D02*
D03*
X906500Y648750D02*
D03*
X421250Y565250D02*
D03*
X451750Y1161250D02*
D03*
D45*
X474000Y1170250D02*
D03*
X810250Y1260000D02*
D03*
X850250Y1240000D02*
D03*
X665250Y1270250D02*
D03*
X336750Y1027000D02*
D03*
X344000Y1073500D02*
D03*
X494250Y1219000D02*
D03*
D46*
X840250Y870000D02*
D03*
X880250Y840000D02*
D03*
X800250Y900000D02*
D03*
X810250Y1320000D02*
D03*
D47*
X880250Y1120000D02*
D03*
D48*
Y1030000D02*
D03*
M02*
