M48
;Layer_Color=6321
;FILE_FORMAT=4:4
METRIC,LZ
;TYPE=PLATED
T1F00S00C0.2000
T2F00S00C0.5000
T3F00S00C0.7000
T4F00S00C0.7112
T5F00S00C0.8000
T6F00S00C0.9000
T7F00S00C0.9200
T8F00S00C1.0000
T9F00S00C1.1176
T10F00S00C1.3716
T11F00S00C1.5000
T12F00S00C1.8000
;TYPE=NON_PLATED
T13F00S00C2.3000
T14F00S00C3.3000
%
T01
X00798Y0020325
Y0020925
Y0021525
Y0022125
X0090325Y0020925
X00513525Y00184759
Y00178759
X0051375Y001725
Y001665
X002145Y00157
X00209
X002035
X00198
X0019225
X001865
X0018075
X00175
X001435Y0015725
X0013775
X00132
X0012625
X001205
X001145Y00157
X001085
X001025
X0042125Y0056525
X00473Y006515
X00486Y0065775
X009055Y0065475
X009065Y0064875
X0096125Y0052825
X0096375Y0050075
X00931Y00479
X0090075Y0038725
X0085125Y003235
Y0031725
Y00311
Y003045
X00905Y006605
X0090425Y006665
X009035Y00672
X00788162Y00949706
X00787677Y00954976
X0078486Y00959612
X0078352Y0096477
X0078225Y0097
X0078105Y0097536
X0077275Y0094525
X00715Y0095075
X0060725Y0100375
X0059817Y01003808
X00589788Y01003554
X00581152
X0056625Y00737
X00567Y00727
X0047825Y0066425
X0046325Y01073
X00441
X0045175Y0116125
X0040625Y01164
T02
X0033675Y01027
X00344Y010735
X00474Y0117025
X0049425Y01219
X0066525Y0127025
X0081025Y0126
X0085025Y0124
T03
X0026Y0024
X0028
X003
X0041
X0043
X0045
Y0035
X0043
X0041
X003
X0028
X0026
X0066875Y00852
X0068875
X0070875
Y0092575
X0068875
X0066875
X0055Y0092
X0053
X0051
X0043
X0041
X0039
X0031
X0029
X0027
X00186878Y00919734
X0024Y01
X0026
X0033
X0035
X0037
X0045
X0047
X0049
X0017
X0015
X00085Y009995
Y010195
Y010395
Y009795
Y009595
Y009395
Y009195
Y008995
X00146878Y00919734
X00166878
X00085Y010595
Y010795
Y010995
Y011195
X0014725Y011765
X0016725
X0024725
X0026725
T04
X0088025Y0103
T05
X0060525Y0015
X0055525
X0009Y002935
X0007
Y004735
X0009
Y006535
X0007
Y008335
X0009
X0070725Y0122
X0078325
T06
X0016Y002125
Y002375
Y002625
Y002875
Y003925
Y004175
Y004425
Y004675
Y005725
Y005975
Y006225
Y006475
X002875Y0064
X003125
X003375
X003625
X003875
X004125
Y0053
X003875
X003625
X003375
X003125
X002875
X0016Y007525
Y007775
Y008025
Y008275
T07
X00155Y0128125
X0018
X002
X00225
X00335
X0036
X0038
X00405
X00515
X0054
X0056
X00585
T08
X0091755Y001868
Y002122
X0094295
Y002376
X0091755
X0094295Y001868
X0038Y0044
X0036
X0034
X0032
X0091755Y004408
Y004662
Y004916
Y00517
Y005424
Y005678
Y005932
X0094295
Y005678
Y005424
Y00517
Y004916
Y004662
Y004408
Y004154
X0091755
Y0039
Y003646
X0094295
Y003392
Y003138
Y002884
Y00263
X0091755
Y002884
Y003138
Y003392
X0094295Y0039
Y007268
Y007522
Y007776
Y00803
Y008284
Y008538
Y008792
Y009046
X0091755
Y008792
Y008538
Y008284
Y00803
Y007776
Y007522
Y007268
Y0093
Y009554
Y009808
Y010062
Y010316
X0094295
Y010062
Y009808
Y009554
Y0093
X0044Y0073
X0042
X004
X0038
X0031
X0029
X0027
X0025
X0005725Y01198
Y01218
Y01238
Y01258
X006775Y0138
X007025
X007775
X008025
X008775
X009025
X0091755Y011332
X0094295
Y011078
X0091755
Y010824
Y01057
X0094295
Y010824
X0088025Y0112
T09
X00269886Y0083
X00294778
X00319924
X00344816
X00369962
X00394854
X0042
T10
X007512Y001573
X007893
T11
X0080025Y009
X0084025Y0087
X0088025Y0084
X0081025Y0132
T12
X0008Y00205
Y00255
Y00385
Y00435
Y00565
Y00615
Y00745
Y00795
T13
X001243Y0130835
X002557
X003043
X004357
X004843
X006157
T14
X0097025Y0007
X0007025
Y0137
X0097025
M30
