G04 Layer_Physical_Order=2*
G04 Layer_Color=12500520*
%FSLAX44Y44*%
%MOMM*%
G71*
G01*
G75*
%ADD22C,0.2540*%
%ADD23C,1.0000*%
%ADD24C,2.0000*%
%ADD25C,3.0000*%
%ADD27C,1.6000*%
%ADD28R,2.0320X2.0320*%
%ADD29C,2.0320*%
%ADD30O,2.5000X1.7500*%
%ADD31O,1.7500X2.5000*%
%ADD32O,2.5000X1.5000*%
%ADD33O,1.5000X2.5000*%
%ADD34O,1.5000X2.0000*%
%ADD35C,5.0000*%
%ADD36C,1.5000*%
%ADD37C,3.0000*%
%ADD38C,2.3000*%
%ADD39C,1.4280*%
%ADD40R,1.4280X1.4280*%
%ADD41O,2.0000X1.2000*%
%ADD42C,1.6510*%
%ADD43R,1.6510X1.6510*%
%ADD44C,1.0000*%
%ADD45C,0.4000*%
%ADD46C,1.2700*%
%ADD47C,2.5000*%
%ADD48C,2.0000*%
G36*
X1020250Y1370000D02*
Y70000D01*
X970250Y20000D01*
X70250D01*
X20250Y70000D01*
Y1370000D01*
X70250Y1420000D01*
X970250D01*
X1020250Y1370000D01*
D02*
G37*
%LPC*%
G36*
X917550Y601370D02*
X915435Y601091D01*
X913465Y600275D01*
X911773Y598977D01*
X910475Y597285D01*
X909659Y595315D01*
X909380Y593200D01*
X909659Y591086D01*
X910475Y589115D01*
X910863Y588610D01*
X806201Y483949D01*
X805767Y482900D01*
X805767Y482900D01*
Y150114D01*
X788386Y132733D01*
X236364D01*
X215983Y153114D01*
Y155465D01*
X216014Y155486D01*
X216478Y156181D01*
X216641Y157000D01*
X216478Y157819D01*
X216014Y158514D01*
X215319Y158978D01*
X214500Y159141D01*
X213681Y158978D01*
X212986Y158514D01*
X212522Y157819D01*
X212359Y157000D01*
X212522Y156181D01*
X212986Y155486D01*
X213017Y155465D01*
Y152500D01*
X213017Y152500D01*
X213451Y151451D01*
X234701Y130201D01*
X235750Y129767D01*
X235750Y129767D01*
X789000D01*
X789000Y129767D01*
X790049Y130201D01*
X808299Y148451D01*
X808733Y149500D01*
Y482286D01*
X912960Y586512D01*
X913465Y586125D01*
X915435Y585308D01*
X917550Y585030D01*
X919665Y585308D01*
X921635Y586125D01*
X923327Y587423D01*
X924625Y589115D01*
X925442Y591086D01*
X925720Y593200D01*
X925442Y595315D01*
X924625Y597285D01*
X923327Y598977D01*
X921635Y600275D01*
X919665Y601091D01*
X917550Y601370D01*
D02*
G37*
G36*
X942950Y575970D02*
X940835Y575691D01*
X938865Y574875D01*
X937173Y573577D01*
X935875Y571885D01*
X935059Y569915D01*
X934780Y567800D01*
X935059Y565686D01*
X935875Y563715D01*
X937173Y562023D01*
X938865Y560725D01*
X940835Y559908D01*
X942950Y559630D01*
X945065Y559908D01*
X947035Y560725D01*
X948727Y562023D01*
X950025Y563715D01*
X950842Y565686D01*
X951120Y567800D01*
X950842Y569915D01*
X950025Y571885D01*
X948727Y573577D01*
X947035Y574875D01*
X945065Y575691D01*
X942950Y575970D01*
D02*
G37*
G36*
Y601370D02*
X940835Y601091D01*
X938865Y600275D01*
X937173Y598977D01*
X935875Y597285D01*
X935059Y595315D01*
X934780Y593200D01*
X935059Y591086D01*
X935875Y589115D01*
X937173Y587423D01*
X938865Y586125D01*
X940835Y585308D01*
X942950Y585030D01*
X945065Y585308D01*
X947035Y586125D01*
X948727Y587423D01*
X950025Y589115D01*
X950842Y591086D01*
X951120Y593200D01*
X950842Y595315D01*
X950025Y597285D01*
X948727Y598977D01*
X947035Y600275D01*
X945065Y601091D01*
X942950Y601370D01*
D02*
G37*
G36*
X78730Y613730D02*
X62500D01*
X62714Y611562D01*
X63717Y608255D01*
X65346Y605208D01*
X67537Y602537D01*
X70208Y600345D01*
X73255Y598717D01*
X76561Y597714D01*
X78730Y597500D01*
Y613730D01*
D02*
G37*
G36*
X163750Y606426D02*
X156250D01*
X153940Y606122D01*
X151787Y605230D01*
X149938Y603812D01*
X148519Y601963D01*
X147628Y599810D01*
X147324Y597500D01*
X147628Y595190D01*
X148519Y593037D01*
X149938Y591188D01*
X151787Y589770D01*
X153940Y588878D01*
X156250Y588574D01*
X163750D01*
X166060Y588878D01*
X168213Y589770D01*
X170062Y591188D01*
X171481Y593037D01*
X172372Y595190D01*
X172676Y597500D01*
X172372Y599810D01*
X171481Y601963D01*
X170062Y603812D01*
X168213Y605230D01*
X166060Y606122D01*
X163750Y606426D01*
D02*
G37*
G36*
X916280Y552864D02*
X914799Y552669D01*
X912235Y551607D01*
X910033Y549917D01*
X908343Y547715D01*
X907281Y545151D01*
X907086Y543670D01*
X916280D01*
Y552864D01*
D02*
G37*
G36*
X928014Y541130D02*
X918820D01*
Y531936D01*
X920302Y532131D01*
X922866Y533193D01*
X925067Y534883D01*
X926757Y537085D01*
X927819Y539649D01*
X928014Y541130D01*
D02*
G37*
G36*
X918820Y552864D02*
Y543670D01*
X928014D01*
X927819Y545151D01*
X926757Y547715D01*
X925067Y549917D01*
X922866Y551607D01*
X920302Y552669D01*
X918820Y552864D01*
D02*
G37*
G36*
X917550Y575970D02*
X915435Y575691D01*
X913465Y574875D01*
X911773Y573577D01*
X910475Y571885D01*
X909659Y569915D01*
X909380Y567800D01*
X909659Y565686D01*
X910475Y563715D01*
X910863Y563210D01*
X811701Y464049D01*
X811267Y463000D01*
X811267Y463000D01*
Y149364D01*
X790386Y128483D01*
X232864D01*
X210483Y150864D01*
Y155465D01*
X210514Y155486D01*
X210978Y156181D01*
X211141Y157000D01*
X210978Y157819D01*
X210514Y158514D01*
X209819Y158978D01*
X209000Y159141D01*
X208181Y158978D01*
X207486Y158514D01*
X207022Y157819D01*
X206859Y157000D01*
X207022Y156181D01*
X207486Y155486D01*
X207517Y155465D01*
Y150250D01*
X207517Y150250D01*
X207951Y149201D01*
X231201Y125951D01*
X232250Y125517D01*
X232250Y125517D01*
X791000D01*
X791000Y125517D01*
X792049Y125951D01*
X813799Y147702D01*
X814233Y148750D01*
X814233Y148750D01*
Y462386D01*
X912960Y561113D01*
X913465Y560725D01*
X915435Y559908D01*
X917550Y559630D01*
X919665Y559908D01*
X921635Y560725D01*
X923327Y562023D01*
X924625Y563715D01*
X925442Y565686D01*
X925720Y567800D01*
X925442Y569915D01*
X924625Y571885D01*
X923327Y573577D01*
X921635Y574875D01*
X919665Y575691D01*
X917550Y575970D01*
D02*
G37*
G36*
X80000Y580173D02*
X77040Y579882D01*
X74194Y579018D01*
X71570Y577616D01*
X69271Y575729D01*
X67384Y573430D01*
X65982Y570807D01*
X65118Y567960D01*
X64827Y565000D01*
X65118Y562040D01*
X65982Y559193D01*
X67384Y556570D01*
X69271Y554271D01*
X71570Y552384D01*
X74194Y550982D01*
X77040Y550118D01*
X80000Y549827D01*
X82960Y550118D01*
X85807Y550982D01*
X88430Y552384D01*
X90729Y554271D01*
X92616Y556570D01*
X94018Y559193D01*
X94881Y562040D01*
X95173Y565000D01*
X94881Y567960D01*
X94018Y570807D01*
X92616Y573430D01*
X90729Y575729D01*
X88430Y577616D01*
X85807Y579018D01*
X82960Y579882D01*
X80000Y580173D01*
D02*
G37*
G36*
X337500Y652676D02*
X335190Y652372D01*
X333037Y651480D01*
X331188Y650062D01*
X329770Y648213D01*
X328878Y646060D01*
X328574Y643750D01*
Y636250D01*
X328878Y633940D01*
X329770Y631787D01*
X331188Y629938D01*
X333037Y628520D01*
X335190Y627628D01*
X337500Y627324D01*
X339810Y627628D01*
X341963Y628520D01*
X343812Y629938D01*
X345230Y631787D01*
X346122Y633940D01*
X346426Y636250D01*
Y643750D01*
X346122Y646060D01*
X345230Y648213D01*
X343812Y650062D01*
X341963Y651480D01*
X339810Y652372D01*
X337500Y652676D01*
D02*
G37*
G36*
X298887Y638730D02*
X288770D01*
Y625030D01*
X290447Y625251D01*
X293194Y626388D01*
X295552Y628198D01*
X297362Y630556D01*
X298499Y633303D01*
X298887Y636250D01*
Y638730D01*
D02*
G37*
G36*
X362500Y652676D02*
X360190Y652372D01*
X358037Y651480D01*
X356188Y650062D01*
X354770Y648213D01*
X353878Y646060D01*
X353574Y643750D01*
Y636250D01*
X353878Y633940D01*
X354770Y631787D01*
X356188Y629938D01*
X358037Y628520D01*
X360190Y627628D01*
X362500Y627324D01*
X364810Y627628D01*
X366963Y628520D01*
X368812Y629938D01*
X370230Y631787D01*
X371122Y633940D01*
X371426Y636250D01*
Y643750D01*
X371122Y646060D01*
X370230Y648213D01*
X368812Y650062D01*
X366963Y651480D01*
X364810Y652372D01*
X362500Y652676D01*
D02*
G37*
G36*
X158730Y646230D02*
X145030D01*
X145251Y644553D01*
X146388Y641806D01*
X148198Y639448D01*
X150556Y637638D01*
X153303Y636501D01*
X156250Y636113D01*
X158730D01*
Y646230D01*
D02*
G37*
G36*
X387500Y652676D02*
X385190Y652372D01*
X383037Y651480D01*
X381188Y650062D01*
X379770Y648213D01*
X378878Y646060D01*
X378574Y643750D01*
Y636250D01*
X378878Y633940D01*
X379770Y631787D01*
X381188Y629938D01*
X383037Y628520D01*
X385190Y627628D01*
X387500Y627324D01*
X389810Y627628D01*
X391963Y628520D01*
X393812Y629938D01*
X395230Y631787D01*
X396122Y633940D01*
X396426Y636250D01*
Y643750D01*
X396122Y646060D01*
X395230Y648213D01*
X393812Y650062D01*
X391963Y651480D01*
X389810Y652372D01*
X387500Y652676D01*
D02*
G37*
G36*
X163750Y631426D02*
X156250D01*
X153940Y631122D01*
X151787Y630230D01*
X149938Y628812D01*
X148519Y626963D01*
X147628Y624810D01*
X147324Y622500D01*
X147628Y620190D01*
X148519Y618037D01*
X149938Y616188D01*
X151787Y614770D01*
X153940Y613878D01*
X156250Y613574D01*
X163750D01*
X166060Y613878D01*
X168213Y614770D01*
X170062Y616188D01*
X171481Y618037D01*
X172372Y620190D01*
X172676Y622500D01*
X172372Y624810D01*
X171481Y626963D01*
X170062Y628812D01*
X168213Y630230D01*
X166060Y631122D01*
X163750Y631426D01*
D02*
G37*
G36*
X97500Y613730D02*
X81270D01*
Y597500D01*
X83438Y597714D01*
X86745Y598717D01*
X89792Y600345D01*
X92463Y602537D01*
X94655Y605208D01*
X96283Y608255D01*
X97286Y611562D01*
X97500Y613730D01*
D02*
G37*
G36*
X78730Y632500D02*
X76561Y632286D01*
X73255Y631283D01*
X70208Y629655D01*
X67537Y627463D01*
X65346Y624792D01*
X63717Y621745D01*
X62714Y618438D01*
X62500Y616270D01*
X78730D01*
Y632500D01*
D02*
G37*
G36*
X286230Y638730D02*
X276113D01*
Y636250D01*
X276501Y633303D01*
X277638Y630556D01*
X279448Y628198D01*
X281806Y626388D01*
X284553Y625251D01*
X286230Y625030D01*
Y638730D01*
D02*
G37*
G36*
X81270Y632500D02*
Y616270D01*
X97500D01*
X97286Y618438D01*
X96283Y621745D01*
X94655Y624792D01*
X92463Y627463D01*
X89792Y629655D01*
X86745Y631283D01*
X83438Y632286D01*
X81270Y632500D01*
D02*
G37*
G36*
X916280Y541130D02*
X907086D01*
X907281Y539649D01*
X908343Y537085D01*
X910033Y534883D01*
X912235Y533193D01*
X914799Y532131D01*
X916280Y531936D01*
Y541130D01*
D02*
G37*
G36*
X917550Y499770D02*
X915435Y499492D01*
X913465Y498675D01*
X911773Y497377D01*
X910475Y495685D01*
X909659Y493715D01*
X909380Y491600D01*
X909659Y489486D01*
X910475Y487515D01*
X910863Y487010D01*
X817201Y393349D01*
X816767Y392300D01*
X816767Y392300D01*
Y148614D01*
X791886Y123733D01*
X230614D01*
X204983Y149364D01*
Y155465D01*
X205014Y155486D01*
X205478Y156181D01*
X205641Y157000D01*
X205478Y157819D01*
X205014Y158514D01*
X204319Y158978D01*
X203500Y159141D01*
X202681Y158978D01*
X201986Y158514D01*
X201522Y157819D01*
X201359Y157000D01*
X201522Y156181D01*
X201986Y155486D01*
X202017Y155465D01*
Y148750D01*
X202017Y148750D01*
X202451Y147701D01*
X228951Y121201D01*
X230000Y120767D01*
X230000Y120767D01*
X792500D01*
X792500Y120767D01*
X793549Y121201D01*
X819299Y146951D01*
X819733Y148000D01*
X819733Y148000D01*
Y391686D01*
X912960Y484912D01*
X913465Y484525D01*
X915435Y483708D01*
X917550Y483430D01*
X919665Y483708D01*
X921635Y484525D01*
X923327Y485823D01*
X924625Y487515D01*
X925442Y489486D01*
X925720Y491600D01*
X925442Y493715D01*
X924625Y495685D01*
X923327Y497377D01*
X921635Y498675D01*
X919665Y499492D01*
X917550Y499770D01*
D02*
G37*
G36*
X931000Y481141D02*
X930181Y480978D01*
X929486Y480514D01*
X929465Y480483D01*
X912500D01*
X912500Y480483D01*
X911451Y480049D01*
X821951Y390549D01*
X821517Y389500D01*
X821517Y389500D01*
Y147114D01*
X793636Y119233D01*
X228114D01*
X199483Y147864D01*
Y155465D01*
X199514Y155486D01*
X199978Y156181D01*
X200141Y157000D01*
X199978Y157819D01*
X199514Y158514D01*
X198819Y158978D01*
X198000Y159141D01*
X197181Y158978D01*
X196486Y158514D01*
X196022Y157819D01*
X195859Y157000D01*
X196022Y156181D01*
X196486Y155486D01*
X196517Y155465D01*
Y147250D01*
X196517Y147250D01*
X196951Y146201D01*
X226451Y116701D01*
X226451Y116701D01*
X227500Y116267D01*
X794250D01*
X794250Y116267D01*
X795299Y116701D01*
X824048Y145451D01*
X824049Y145451D01*
X824483Y146500D01*
X824483Y146500D01*
Y388886D01*
X906867Y471270D01*
X907944Y470550D01*
X907281Y468951D01*
X907086Y467470D01*
X928014D01*
X927819Y468951D01*
X926757Y471516D01*
X925067Y473717D01*
X922866Y475407D01*
X920836Y476247D01*
X921089Y477517D01*
X929465D01*
X929486Y477486D01*
X930181Y477022D01*
X931000Y476859D01*
X931819Y477022D01*
X932514Y477486D01*
X932978Y478181D01*
X933141Y479000D01*
X932978Y479819D01*
X932514Y480514D01*
X931819Y480978D01*
X931000Y481141D01*
D02*
G37*
G36*
X942950Y525170D02*
X940835Y524892D01*
X938865Y524075D01*
X937173Y522777D01*
X935875Y521085D01*
X935059Y519115D01*
X934780Y517000D01*
X935059Y514885D01*
X935875Y512915D01*
X937173Y511223D01*
X938865Y509925D01*
X940835Y509109D01*
X942950Y508830D01*
X945065Y509109D01*
X947035Y509925D01*
X948727Y511223D01*
X949206Y511847D01*
X950473Y511930D01*
X961616Y500787D01*
X961609Y500750D01*
X961772Y499931D01*
X962236Y499236D01*
X962931Y498772D01*
X963750Y498609D01*
X964569Y498772D01*
X965264Y499236D01*
X965728Y499931D01*
X965891Y500750D01*
X965728Y501569D01*
X965264Y502264D01*
X964569Y502728D01*
X963750Y502891D01*
X963713Y502884D01*
X950943Y515654D01*
X951120Y517000D01*
X950842Y519115D01*
X950025Y521085D01*
X948727Y522777D01*
X947035Y524075D01*
X945065Y524892D01*
X942950Y525170D01*
D02*
G37*
G36*
X928014Y515730D02*
X918820D01*
Y506536D01*
X920302Y506731D01*
X922866Y507793D01*
X925067Y509483D01*
X926757Y511685D01*
X927819Y514249D01*
X928014Y515730D01*
D02*
G37*
G36*
X916280D02*
X907086D01*
X907281Y514249D01*
X908343Y511685D01*
X910033Y509483D01*
X912235Y507793D01*
X914799Y506731D01*
X916280Y506536D01*
Y515730D01*
D02*
G37*
G36*
X70000Y481166D02*
X68016Y480904D01*
X66167Y480139D01*
X64580Y478920D01*
X63361Y477333D01*
X62596Y475484D01*
X62334Y473500D01*
X62596Y471516D01*
X63361Y469667D01*
X64580Y468080D01*
X66167Y466861D01*
X68016Y466096D01*
X70000Y465834D01*
X71984Y466096D01*
X73833Y466861D01*
X75420Y468080D01*
X76639Y469667D01*
X77404Y471516D01*
X77666Y473500D01*
X77404Y475484D01*
X76639Y477333D01*
X75420Y478920D01*
X73833Y480139D01*
X71984Y480904D01*
X70000Y481166D01*
D02*
G37*
G36*
X942950Y499770D02*
X940835Y499492D01*
X938865Y498675D01*
X937173Y497377D01*
X935875Y495685D01*
X935059Y493715D01*
X934780Y491600D01*
X935059Y489486D01*
X935875Y487515D01*
X937173Y485823D01*
X938865Y484525D01*
X940835Y483708D01*
X942950Y483430D01*
X945065Y483708D01*
X947035Y484525D01*
X947540Y484912D01*
X955267Y477186D01*
Y461864D01*
X946636Y453233D01*
X933322D01*
X933069Y454503D01*
X933549Y454701D01*
X938360Y459512D01*
X938865Y459125D01*
X940835Y458308D01*
X942950Y458030D01*
X945065Y458308D01*
X947035Y459125D01*
X948727Y460423D01*
X950025Y462115D01*
X950842Y464086D01*
X951120Y466200D01*
X950842Y468315D01*
X950025Y470285D01*
X948727Y471977D01*
X947035Y473275D01*
X945065Y474091D01*
X942950Y474370D01*
X940835Y474091D01*
X938865Y473275D01*
X937173Y471977D01*
X935875Y470285D01*
X935059Y468315D01*
X934780Y466200D01*
X935059Y464086D01*
X935875Y462115D01*
X936263Y461610D01*
X931886Y457233D01*
X925153D01*
X924745Y458436D01*
X925067Y458683D01*
X926757Y460885D01*
X927819Y463449D01*
X928014Y464930D01*
X907086D01*
X907281Y463449D01*
X908343Y460885D01*
X910033Y458683D01*
X910355Y458436D01*
X909947Y457233D01*
X898750D01*
X898750Y457233D01*
X897701Y456799D01*
X856451Y415549D01*
X856017Y414500D01*
X856017Y414500D01*
Y87614D01*
X855386Y86983D01*
X159114D01*
X144983Y101114D01*
Y155715D01*
X145014Y155736D01*
X145478Y156431D01*
X145641Y157250D01*
X145478Y158069D01*
X145014Y158764D01*
X144319Y159228D01*
X143500Y159391D01*
X142681Y159228D01*
X141986Y158764D01*
X141522Y158069D01*
X141359Y157250D01*
X141522Y156431D01*
X141986Y155736D01*
X142017Y155715D01*
Y100500D01*
X142017Y100500D01*
X142451Y99451D01*
X157451Y84452D01*
X157451Y84451D01*
X158500Y84017D01*
X856000D01*
X856000Y84017D01*
X857049Y84451D01*
X858549Y85951D01*
X858549Y85951D01*
X858983Y87000D01*
Y413886D01*
X899364Y454267D01*
X904178D01*
X904431Y452997D01*
X903951Y452799D01*
X862701Y411549D01*
X862267Y410500D01*
X862267Y410500D01*
Y84614D01*
X859636Y81983D01*
X155614D01*
X139233Y98364D01*
Y155715D01*
X139264Y155736D01*
X139728Y156431D01*
X139891Y157250D01*
X139728Y158069D01*
X139264Y158764D01*
X138569Y159228D01*
X137750Y159391D01*
X136931Y159228D01*
X136236Y158764D01*
X135772Y158069D01*
X135609Y157250D01*
X135772Y156431D01*
X136236Y155736D01*
X136267Y155715D01*
Y97750D01*
X136267Y97750D01*
X136701Y96701D01*
X153951Y79451D01*
X153951Y79451D01*
X155000Y79017D01*
X155000Y79017D01*
X860250D01*
X860250Y79017D01*
X861299Y79451D01*
X864799Y82951D01*
X865233Y84000D01*
X865233Y84000D01*
Y409886D01*
X905614Y450267D01*
X947250D01*
X947250Y450267D01*
X948299Y450701D01*
X957798Y460201D01*
X957799Y460201D01*
X958233Y461250D01*
Y477800D01*
X958233Y477800D01*
X957799Y478849D01*
X957798Y478849D01*
X949638Y487010D01*
X950025Y487515D01*
X950842Y489486D01*
X951120Y491600D01*
X950842Y493715D01*
X950025Y495685D01*
X948727Y497377D01*
X947035Y498675D01*
X945065Y499492D01*
X942950Y499770D01*
D02*
G37*
G36*
X90000Y481166D02*
X88016Y480904D01*
X86167Y480139D01*
X84580Y478920D01*
X83361Y477333D01*
X82596Y475484D01*
X82334Y473500D01*
X82596Y471516D01*
X83361Y469667D01*
X84580Y468080D01*
X86167Y466861D01*
X88016Y466096D01*
X90000Y465834D01*
X91984Y466096D01*
X93833Y466861D01*
X95420Y468080D01*
X96639Y469667D01*
X97404Y471516D01*
X97666Y473500D01*
X97404Y475484D01*
X96639Y477333D01*
X95420Y478920D01*
X93833Y480139D01*
X91984Y480904D01*
X90000Y481166D01*
D02*
G37*
G36*
X163750Y478887D02*
X161270D01*
Y468770D01*
X174970D01*
X174749Y470447D01*
X173612Y473194D01*
X171802Y475552D01*
X169444Y477362D01*
X166697Y478499D01*
X163750Y478887D01*
D02*
G37*
G36*
X158730D02*
X156250D01*
X153303Y478499D01*
X150556Y477362D01*
X148198Y475552D01*
X146388Y473194D01*
X145251Y470447D01*
X145030Y468770D01*
X158730D01*
Y478887D01*
D02*
G37*
G36*
X918820Y527464D02*
Y518270D01*
X928014D01*
X927819Y519752D01*
X926757Y522315D01*
X925067Y524517D01*
X922866Y526207D01*
X920302Y527269D01*
X918820Y527464D01*
D02*
G37*
G36*
X916280D02*
X914799Y527269D01*
X912235Y526207D01*
X910033Y524517D01*
X908343Y522315D01*
X907281Y519752D01*
X907086Y518270D01*
X916280D01*
Y527464D01*
D02*
G37*
G36*
X942950Y550570D02*
X940835Y550291D01*
X938865Y549475D01*
X937173Y548177D01*
X935875Y546485D01*
X935059Y544515D01*
X934780Y542400D01*
X935059Y540285D01*
X935875Y538315D01*
X937173Y536623D01*
X938865Y535325D01*
X940835Y534509D01*
X942950Y534230D01*
X945065Y534509D01*
X947035Y535325D01*
X948727Y536623D01*
X949480Y536672D01*
X957116Y529037D01*
X957109Y529000D01*
X957272Y528181D01*
X957736Y527486D01*
X958431Y527022D01*
X959250Y526859D01*
X960069Y527022D01*
X960764Y527486D01*
X961228Y528181D01*
X961391Y529000D01*
X961228Y529819D01*
X960764Y530514D01*
X960069Y530978D01*
X959250Y531141D01*
X959213Y531134D01*
X950613Y539734D01*
X950842Y540285D01*
X951120Y542400D01*
X950842Y544515D01*
X950025Y546485D01*
X948727Y548177D01*
X947035Y549475D01*
X945065Y550291D01*
X942950Y550570D01*
D02*
G37*
G36*
X288770Y544970D02*
Y531270D01*
X298887D01*
Y533750D01*
X298499Y536697D01*
X297362Y539444D01*
X295552Y541802D01*
X293194Y543612D01*
X290447Y544749D01*
X288770Y544970D01*
D02*
G37*
G36*
X286230D02*
X284553Y544749D01*
X281806Y543612D01*
X279448Y541802D01*
X277638Y539444D01*
X276501Y536697D01*
X276113Y533750D01*
Y531270D01*
X286230D01*
Y544970D01*
D02*
G37*
G36*
X298887Y528730D02*
X288770D01*
Y515030D01*
X290447Y515251D01*
X293194Y516388D01*
X295552Y518198D01*
X297362Y520556D01*
X298499Y523303D01*
X298887Y526250D01*
Y528730D01*
D02*
G37*
G36*
X286230D02*
X276113D01*
Y526250D01*
X276501Y523303D01*
X277638Y520556D01*
X279448Y518198D01*
X281806Y516388D01*
X284553Y515251D01*
X286230Y515030D01*
Y528730D01*
D02*
G37*
G36*
X337500Y542676D02*
X335190Y542372D01*
X333037Y541480D01*
X331188Y540062D01*
X329770Y538213D01*
X328878Y536060D01*
X328574Y533750D01*
Y526250D01*
X328878Y523940D01*
X329770Y521787D01*
X331188Y519938D01*
X333037Y518520D01*
X335190Y517628D01*
X337500Y517324D01*
X339810Y517628D01*
X341963Y518520D01*
X343812Y519938D01*
X345230Y521787D01*
X346122Y523940D01*
X346426Y526250D01*
Y533750D01*
X346122Y536060D01*
X345230Y538213D01*
X343812Y540062D01*
X341963Y541480D01*
X339810Y542372D01*
X337500Y542676D01*
D02*
G37*
G36*
X387500D02*
X385190Y542372D01*
X383037Y541480D01*
X381188Y540062D01*
X379770Y538213D01*
X378878Y536060D01*
X378574Y533750D01*
Y526250D01*
X378878Y523940D01*
X379770Y521787D01*
X381188Y519938D01*
X383037Y518520D01*
X385190Y517628D01*
X387500Y517324D01*
X389810Y517628D01*
X391963Y518520D01*
X393812Y519938D01*
X395230Y521787D01*
X396122Y523940D01*
X396426Y526250D01*
Y533750D01*
X396122Y536060D01*
X395230Y538213D01*
X393812Y540062D01*
X391963Y541480D01*
X389810Y542372D01*
X387500Y542676D01*
D02*
G37*
G36*
X362500D02*
X360190Y542372D01*
X358037Y541480D01*
X356188Y540062D01*
X354770Y538213D01*
X353878Y536060D01*
X353574Y533750D01*
Y526250D01*
X353878Y523940D01*
X354770Y521787D01*
X356188Y519938D01*
X358037Y518520D01*
X360190Y517628D01*
X362500Y517324D01*
X364810Y517628D01*
X366963Y518520D01*
X368812Y519938D01*
X370230Y521787D01*
X371122Y523940D01*
X371426Y526250D01*
Y533750D01*
X371122Y536060D01*
X370230Y538213D01*
X368812Y540062D01*
X366963Y541480D01*
X364810Y542372D01*
X362500Y542676D01*
D02*
G37*
G36*
X174970Y646230D02*
X161270D01*
Y636113D01*
X163750D01*
X166697Y636501D01*
X169444Y637638D01*
X171802Y639448D01*
X173612Y641806D01*
X174749Y644553D01*
X174970Y646230D01*
D02*
G37*
G36*
X916280Y801730D02*
X907086D01*
X907281Y800249D01*
X908343Y797685D01*
X910033Y795483D01*
X912234Y793793D01*
X914799Y792731D01*
X916280Y792536D01*
Y801730D01*
D02*
G37*
G36*
Y788064D02*
X914799Y787869D01*
X912234Y786807D01*
X910033Y785117D01*
X908343Y782915D01*
X907281Y780351D01*
X907086Y778870D01*
X916280D01*
Y788064D01*
D02*
G37*
G36*
X163750Y811426D02*
X156250D01*
X153940Y811122D01*
X151787Y810230D01*
X149938Y808812D01*
X148519Y806963D01*
X147628Y804810D01*
X147324Y802500D01*
X147628Y800190D01*
X148519Y798037D01*
X149938Y796188D01*
X151787Y794770D01*
X153940Y793878D01*
X156250Y793574D01*
X163750D01*
X166060Y793878D01*
X168213Y794770D01*
X170062Y796188D01*
X171481Y798037D01*
X172372Y800190D01*
X172676Y802500D01*
X172372Y804810D01*
X171481Y806963D01*
X170062Y808812D01*
X168213Y810230D01*
X166060Y811122D01*
X163750Y811426D01*
D02*
G37*
G36*
X78730Y812500D02*
X76561Y812286D01*
X73255Y811283D01*
X70208Y809654D01*
X67537Y807463D01*
X65346Y804792D01*
X63717Y801745D01*
X62714Y798438D01*
X62500Y796270D01*
X78730D01*
Y812500D01*
D02*
G37*
G36*
X942950Y811170D02*
X940835Y810891D01*
X938865Y810075D01*
X937173Y808777D01*
X935875Y807085D01*
X935059Y805115D01*
X934780Y803000D01*
X935059Y800885D01*
X935875Y798915D01*
X937173Y797223D01*
X938865Y795925D01*
X940835Y795108D01*
X942950Y794830D01*
X945065Y795108D01*
X947035Y795925D01*
X948727Y797223D01*
X950025Y798915D01*
X950842Y800885D01*
X951120Y803000D01*
X950842Y805115D01*
X950025Y807085D01*
X948727Y808777D01*
X947035Y810075D01*
X945065Y810891D01*
X942950Y811170D01*
D02*
G37*
G36*
X163750Y786426D02*
X156250D01*
X153940Y786122D01*
X151787Y785230D01*
X149938Y783812D01*
X148519Y781963D01*
X147628Y779810D01*
X147324Y777500D01*
X147628Y775190D01*
X148519Y773037D01*
X149938Y771188D01*
X151787Y769770D01*
X153940Y768878D01*
X156250Y768574D01*
X163750D01*
X166060Y768878D01*
X168213Y769770D01*
X170062Y771188D01*
X171481Y773037D01*
X172372Y775190D01*
X172676Y777500D01*
X172372Y779810D01*
X171481Y781963D01*
X170062Y783812D01*
X168213Y785230D01*
X166060Y786122D01*
X163750Y786426D01*
D02*
G37*
G36*
X916280Y776330D02*
X907086D01*
X907281Y774849D01*
X908343Y772285D01*
X910033Y770083D01*
X912234Y768393D01*
X914799Y767331D01*
X916280Y767136D01*
Y776330D01*
D02*
G37*
G36*
X942950Y785770D02*
X940835Y785491D01*
X938865Y784675D01*
X937173Y783377D01*
X935875Y781685D01*
X935059Y779715D01*
X934780Y777600D01*
X935059Y775486D01*
X935875Y773515D01*
X937173Y771823D01*
X938865Y770525D01*
X940835Y769708D01*
X942950Y769430D01*
X945065Y769708D01*
X947035Y770525D01*
X948727Y771823D01*
X950025Y773515D01*
X950842Y775486D01*
X951120Y777600D01*
X950842Y779715D01*
X950025Y781685D01*
X948727Y783377D01*
X947035Y784675D01*
X945065Y785491D01*
X942950Y785770D01*
D02*
G37*
G36*
X97500Y793730D02*
X81270D01*
Y777500D01*
X83438Y777714D01*
X86745Y778717D01*
X89792Y780346D01*
X92463Y782537D01*
X94655Y785208D01*
X96283Y788255D01*
X97286Y791562D01*
X97500Y793730D01*
D02*
G37*
G36*
X78730D02*
X62500D01*
X62714Y791562D01*
X63717Y788255D01*
X65346Y785208D01*
X67537Y782537D01*
X70208Y780346D01*
X73255Y778717D01*
X76561Y777714D01*
X78730Y777500D01*
Y793730D01*
D02*
G37*
G36*
X917550Y836570D02*
X915435Y836292D01*
X913465Y835475D01*
X911773Y834177D01*
X910475Y832485D01*
X909659Y830515D01*
X909380Y828400D01*
X909659Y826285D01*
X910475Y824315D01*
X911773Y822623D01*
X913465Y821325D01*
X915435Y820508D01*
X917550Y820230D01*
X919665Y820508D01*
X921635Y821325D01*
X923327Y822623D01*
X924625Y824315D01*
X925442Y826285D01*
X925720Y828400D01*
X925442Y830515D01*
X924625Y832485D01*
X923327Y834177D01*
X921635Y835475D01*
X919665Y836292D01*
X917550Y836570D01*
D02*
G37*
G36*
X280607Y828730D02*
X271156D01*
Y819279D01*
X272704Y819483D01*
X275330Y820571D01*
X277585Y822301D01*
X279315Y824556D01*
X280403Y827182D01*
X280607Y828730D01*
D02*
G37*
G36*
X942950Y836570D02*
X940835Y836292D01*
X938865Y835475D01*
X937173Y834177D01*
X935875Y832485D01*
X935059Y830515D01*
X934780Y828400D01*
X935059Y826285D01*
X935875Y824315D01*
X937173Y822623D01*
X938865Y821325D01*
X940835Y820508D01*
X942950Y820230D01*
X945065Y820508D01*
X947035Y821325D01*
X948727Y822623D01*
X950025Y824315D01*
X950842Y826285D01*
X951120Y828400D01*
X950842Y830515D01*
X950025Y832485D01*
X948727Y834177D01*
X947035Y835475D01*
X945065Y836292D01*
X942950Y836570D01*
D02*
G37*
G36*
X344816Y838427D02*
X342635Y838140D01*
X340602Y837298D01*
X338857Y835959D01*
X337518Y834213D01*
X336676Y832181D01*
X336389Y830000D01*
X336676Y827819D01*
X337518Y825787D01*
X338857Y824041D01*
X340602Y822702D01*
X342635Y821860D01*
X344816Y821573D01*
X346997Y821860D01*
X349030Y822702D01*
X350775Y824041D01*
X352114Y825787D01*
X352956Y827819D01*
X353243Y830000D01*
X352956Y832181D01*
X352114Y834213D01*
X350775Y835959D01*
X349030Y837298D01*
X346997Y838140D01*
X344816Y838427D01*
D02*
G37*
G36*
X319924D02*
X317743Y838140D01*
X315710Y837298D01*
X313965Y835959D01*
X312626Y834213D01*
X311784Y832181D01*
X311497Y830000D01*
X311784Y827819D01*
X312626Y825787D01*
X313965Y824041D01*
X315710Y822702D01*
X317743Y821860D01*
X319924Y821573D01*
X322105Y821860D01*
X324138Y822702D01*
X325883Y824041D01*
X327222Y825787D01*
X328064Y827819D01*
X328351Y830000D01*
X328064Y832181D01*
X327222Y834213D01*
X325883Y835959D01*
X324138Y837298D01*
X322105Y838140D01*
X319924Y838427D01*
D02*
G37*
G36*
X916280Y813464D02*
X914799Y813269D01*
X912234Y812207D01*
X910033Y810517D01*
X908343Y808316D01*
X907281Y805751D01*
X907086Y804270D01*
X916280D01*
Y813464D01*
D02*
G37*
G36*
X81270Y812500D02*
Y796270D01*
X97500D01*
X97286Y798438D01*
X96283Y801745D01*
X94655Y804792D01*
X92463Y807463D01*
X89792Y809654D01*
X86745Y811283D01*
X83438Y812286D01*
X81270Y812500D01*
D02*
G37*
G36*
X158730Y826230D02*
X145030D01*
X145251Y824553D01*
X146388Y821806D01*
X148198Y819448D01*
X150556Y817638D01*
X153303Y816501D01*
X156250Y816113D01*
X158730D01*
Y826230D01*
D02*
G37*
G36*
X268616Y828730D02*
X259165D01*
X259369Y827182D01*
X260457Y824556D01*
X262187Y822301D01*
X264442Y820571D01*
X267068Y819483D01*
X268616Y819279D01*
Y828730D01*
D02*
G37*
G36*
X174970Y826230D02*
X161270D01*
Y816113D01*
X163750D01*
X166697Y816501D01*
X169444Y817638D01*
X171802Y819448D01*
X173612Y821806D01*
X174749Y824553D01*
X174970Y826230D01*
D02*
G37*
G36*
X942950Y760370D02*
X940835Y760091D01*
X938865Y759275D01*
X937173Y757977D01*
X935875Y756285D01*
X935059Y754315D01*
X934780Y752200D01*
X935059Y750086D01*
X935875Y748115D01*
X937173Y746423D01*
X938865Y745125D01*
X940835Y744308D01*
X942950Y744030D01*
X945065Y744308D01*
X947035Y745125D01*
X948727Y746423D01*
X950025Y748115D01*
X950842Y750086D01*
X951120Y752200D01*
X950842Y754315D01*
X950025Y756285D01*
X948727Y757977D01*
X947035Y759275D01*
X945065Y760091D01*
X942950Y760370D01*
D02*
G37*
G36*
X906500Y650891D02*
X905681Y650728D01*
X904986Y650264D01*
X904965Y650233D01*
X496750D01*
X496750Y650233D01*
X495701Y649799D01*
X495701Y649799D01*
X428451Y582549D01*
X428017Y581500D01*
X428017Y581500D01*
Y520364D01*
X398386Y490733D01*
X363000D01*
X361951Y490299D01*
X361951Y490299D01*
X338951Y467299D01*
X338517Y466250D01*
X338517Y466250D01*
Y452470D01*
X338016Y452404D01*
X336167Y451639D01*
X334580Y450420D01*
X333361Y448833D01*
X332596Y446984D01*
X332334Y445000D01*
Y435000D01*
X332596Y433016D01*
X333361Y431167D01*
X334580Y429580D01*
X336167Y428361D01*
X338016Y427596D01*
X340000Y427334D01*
X341984Y427596D01*
X343833Y428361D01*
X345420Y429580D01*
X346639Y431167D01*
X347404Y433016D01*
X347666Y435000D01*
Y445000D01*
X347404Y446984D01*
X346639Y448833D01*
X345420Y450420D01*
X343833Y451639D01*
X341984Y452404D01*
X341483Y452470D01*
Y465636D01*
X363614Y487767D01*
X399000D01*
X399000Y487767D01*
X400049Y488201D01*
X430549Y518701D01*
X430549Y518701D01*
X430983Y519750D01*
Y580886D01*
X497364Y647267D01*
X904965D01*
X904986Y647236D01*
X905681Y646772D01*
X906500Y646609D01*
X907319Y646772D01*
X908014Y647236D01*
X908478Y647931D01*
X908641Y648750D01*
X908478Y649569D01*
X908014Y650264D01*
X907319Y650728D01*
X906500Y650891D01*
D02*
G37*
G36*
X163750Y658887D02*
X161270D01*
Y648770D01*
X174970D01*
X174749Y650447D01*
X173612Y653194D01*
X171802Y655552D01*
X169444Y657362D01*
X166697Y658499D01*
X163750Y658887D01*
D02*
G37*
G36*
X905500Y656891D02*
X904681Y656728D01*
X903986Y656264D01*
X903965Y656233D01*
X490750D01*
X489701Y655799D01*
X489701Y655798D01*
X420201Y586299D01*
X419767Y585250D01*
X419767Y585250D01*
Y566785D01*
X419736Y566764D01*
X419272Y566069D01*
X419109Y565250D01*
X419272Y564431D01*
X419736Y563736D01*
X420431Y563272D01*
X421250Y563109D01*
X422069Y563272D01*
X422764Y563736D01*
X423228Y564431D01*
X423391Y565250D01*
X423228Y566069D01*
X422764Y566764D01*
X422733Y566785D01*
Y584636D01*
X491364Y653267D01*
X903965D01*
X903986Y653236D01*
X904681Y652772D01*
X905500Y652609D01*
X906319Y652772D01*
X907014Y653236D01*
X907478Y653931D01*
X907641Y654750D01*
X907478Y655569D01*
X907014Y656264D01*
X906319Y656728D01*
X905500Y656891D01*
D02*
G37*
G36*
X903500Y674141D02*
X902681Y673978D01*
X901986Y673514D01*
X901965Y673483D01*
X486000D01*
X486000Y673483D01*
X484951Y673049D01*
X478287Y666384D01*
X478250Y666391D01*
X477431Y666228D01*
X476736Y665764D01*
X476272Y665069D01*
X476109Y664250D01*
X476272Y663431D01*
X476736Y662736D01*
X477431Y662272D01*
X478250Y662109D01*
X479069Y662272D01*
X479764Y662736D01*
X480228Y663431D01*
X480391Y664250D01*
X480384Y664287D01*
X486614Y670517D01*
X901965D01*
X901986Y670486D01*
X902681Y670022D01*
X903500Y669859D01*
X904319Y670022D01*
X905014Y670486D01*
X905478Y671181D01*
X905641Y672000D01*
X905478Y672819D01*
X905014Y673514D01*
X904319Y673978D01*
X903500Y674141D01*
D02*
G37*
G36*
X904250Y668641D02*
X903431Y668478D01*
X902736Y668014D01*
X902715Y667983D01*
X488500D01*
X488500Y667983D01*
X487451Y667549D01*
X487451Y667549D01*
X473454Y653551D01*
X473000Y653641D01*
X472181Y653478D01*
X471486Y653014D01*
X471022Y652319D01*
X470859Y651500D01*
X471022Y650681D01*
X471486Y649986D01*
X472181Y649522D01*
X473000Y649359D01*
X473819Y649522D01*
X474514Y649986D01*
X474978Y650681D01*
X475028Y650931D01*
X482742Y658645D01*
X483912Y658019D01*
X483859Y657750D01*
X484022Y656931D01*
X484486Y656236D01*
X485181Y655772D01*
X486000Y655609D01*
X486819Y655772D01*
X487514Y656236D01*
X487978Y656931D01*
X488028Y657181D01*
X489864Y659017D01*
X903465D01*
X903486Y658986D01*
X904181Y658522D01*
X905000Y658359D01*
X905819Y658522D01*
X906514Y658986D01*
X906978Y659681D01*
X907141Y660500D01*
X906978Y661319D01*
X906514Y662014D01*
X905819Y662478D01*
X905000Y662641D01*
X904181Y662478D01*
X903486Y662014D01*
X903465Y661983D01*
X489250D01*
X489250Y661983D01*
X488201Y661549D01*
X486872Y660219D01*
X486196Y660303D01*
X485737Y661640D01*
X489114Y665017D01*
X902715D01*
X902736Y664986D01*
X903431Y664522D01*
X904250Y664359D01*
X905069Y664522D01*
X905764Y664986D01*
X906228Y665681D01*
X906391Y666500D01*
X906228Y667319D01*
X905764Y668014D01*
X905069Y668478D01*
X904250Y668641D01*
D02*
G37*
G36*
X288770Y654970D02*
Y641270D01*
X298887D01*
Y643750D01*
X298499Y646697D01*
X297362Y649444D01*
X295552Y651802D01*
X293194Y653612D01*
X290447Y654749D01*
X288770Y654970D01*
D02*
G37*
G36*
X286230D02*
X284553Y654749D01*
X281806Y653612D01*
X279448Y651802D01*
X277638Y649444D01*
X276501Y646697D01*
X276113Y643750D01*
Y641270D01*
X286230D01*
Y654970D01*
D02*
G37*
G36*
X70000Y661166D02*
X68016Y660904D01*
X66167Y660139D01*
X64580Y658920D01*
X63361Y657333D01*
X62596Y655484D01*
X62334Y653500D01*
X62596Y651516D01*
X63361Y649667D01*
X64580Y648080D01*
X66167Y646861D01*
X68016Y646096D01*
X70000Y645834D01*
X71984Y646096D01*
X73833Y646861D01*
X75420Y648080D01*
X76639Y649667D01*
X77404Y651516D01*
X77666Y653500D01*
X77404Y655484D01*
X76639Y657333D01*
X75420Y658920D01*
X73833Y660139D01*
X71984Y660904D01*
X70000Y661166D01*
D02*
G37*
G36*
X158730Y658887D02*
X156250D01*
X153303Y658499D01*
X150556Y657362D01*
X148198Y655552D01*
X146388Y653194D01*
X145251Y650447D01*
X145030Y648770D01*
X158730D01*
Y658887D01*
D02*
G37*
G36*
X90000Y661166D02*
X88016Y660904D01*
X86167Y660139D01*
X84580Y658920D01*
X83361Y657333D01*
X82596Y655484D01*
X82334Y653500D01*
X82596Y651516D01*
X83361Y649667D01*
X84580Y648080D01*
X86167Y646861D01*
X88016Y646096D01*
X90000Y645834D01*
X91984Y646096D01*
X93833Y646861D01*
X95420Y648080D01*
X96639Y649667D01*
X97404Y651516D01*
X97666Y653500D01*
X97404Y655484D01*
X96639Y657333D01*
X95420Y658920D01*
X93833Y660139D01*
X91984Y660904D01*
X90000Y661166D01*
D02*
G37*
G36*
X438730Y744959D02*
X437379Y744782D01*
X434937Y743770D01*
X432839Y742161D01*
X431230Y740063D01*
X430218Y737621D01*
X429873Y735000D01*
Y731270D01*
X438730D01*
Y744959D01*
D02*
G37*
G36*
X311270D02*
Y731270D01*
X320127D01*
Y735000D01*
X319782Y737621D01*
X318770Y740063D01*
X317161Y742161D01*
X315063Y743770D01*
X312621Y744782D01*
X311270Y744959D01*
D02*
G37*
G36*
X441270D02*
Y731270D01*
X450127D01*
Y735000D01*
X449782Y737621D01*
X448770Y740063D01*
X447161Y742161D01*
X445063Y743770D01*
X442621Y744782D01*
X441270Y744959D01*
D02*
G37*
G36*
X917550Y760370D02*
X915435Y760091D01*
X913465Y759275D01*
X911773Y757977D01*
X910475Y756285D01*
X909659Y754315D01*
X909380Y752200D01*
X909659Y750086D01*
X910475Y748115D01*
X911773Y746423D01*
X913465Y745125D01*
X915435Y744308D01*
X917550Y744030D01*
X919665Y744308D01*
X921635Y745125D01*
X923327Y746423D01*
X924625Y748115D01*
X925442Y750086D01*
X925720Y752200D01*
X925442Y754315D01*
X924625Y756285D01*
X923327Y757977D01*
X921635Y759275D01*
X919665Y760091D01*
X917550Y760370D01*
D02*
G37*
G36*
X290000Y742666D02*
X288016Y742404D01*
X286167Y741639D01*
X284580Y740420D01*
X283361Y738833D01*
X282596Y736984D01*
X282334Y735000D01*
Y725000D01*
X282596Y723016D01*
X283361Y721167D01*
X284580Y719580D01*
X286167Y718361D01*
X288016Y717596D01*
X290000Y717334D01*
X291984Y717596D01*
X293833Y718361D01*
X295420Y719580D01*
X295901Y720206D01*
X297586Y720316D01*
X304951Y712952D01*
X304951Y712951D01*
X306000Y712517D01*
X306000Y712517D01*
X471750D01*
X471750Y712517D01*
X472799Y712951D01*
X495364Y735517D01*
X564715D01*
X564736Y735486D01*
X565431Y735022D01*
X566250Y734859D01*
X567069Y735022D01*
X567764Y735486D01*
X568228Y736181D01*
X568391Y737000D01*
X568228Y737819D01*
X567764Y738514D01*
X567069Y738978D01*
X566250Y739141D01*
X565431Y738978D01*
X564736Y738514D01*
X564715Y738483D01*
X494750D01*
X493701Y738049D01*
X493701Y738048D01*
X471136Y715483D01*
X446176D01*
X445745Y716753D01*
X447161Y717839D01*
X448770Y719937D01*
X449782Y722379D01*
X450127Y725000D01*
Y728730D01*
X429873D01*
Y725000D01*
X430218Y722379D01*
X431230Y719937D01*
X432839Y717839D01*
X434255Y716753D01*
X433824Y715483D01*
X316176D01*
X315745Y716753D01*
X317161Y717839D01*
X318770Y719937D01*
X319782Y722379D01*
X320127Y725000D01*
Y728730D01*
X299873D01*
Y725000D01*
X300022Y723871D01*
X298819Y723278D01*
X297600Y724498D01*
X297666Y725000D01*
Y735000D01*
X297404Y736984D01*
X296639Y738833D01*
X295420Y740420D01*
X293833Y741639D01*
X291984Y742404D01*
X290000Y742666D01*
D02*
G37*
G36*
X942950Y734970D02*
X940835Y734691D01*
X938865Y733875D01*
X937173Y732577D01*
X935875Y730885D01*
X935059Y728915D01*
X934780Y726800D01*
X935059Y724686D01*
X935875Y722715D01*
X937173Y721023D01*
X938865Y719725D01*
X940835Y718908D01*
X942950Y718630D01*
X945065Y718908D01*
X947035Y719725D01*
X948727Y721023D01*
X950025Y722715D01*
X950842Y724686D01*
X951120Y726800D01*
X950842Y728915D01*
X950025Y730885D01*
X948727Y732577D01*
X947035Y733875D01*
X945065Y734691D01*
X942950Y734970D01*
D02*
G37*
G36*
X917550D02*
X915435Y734691D01*
X913465Y733875D01*
X911773Y732577D01*
X910475Y730885D01*
X909659Y728915D01*
X909380Y726800D01*
X909659Y724686D01*
X910475Y722715D01*
X911773Y721023D01*
X913465Y719725D01*
X915435Y718908D01*
X917550Y718630D01*
X919665Y718908D01*
X921635Y719725D01*
X923327Y721023D01*
X924625Y722715D01*
X925442Y724686D01*
X925720Y726800D01*
X925442Y728915D01*
X924625Y730885D01*
X923327Y732577D01*
X921635Y733875D01*
X919665Y734691D01*
X917550Y734970D01*
D02*
G37*
G36*
X270000Y742666D02*
X268016Y742404D01*
X266167Y741639D01*
X264580Y740420D01*
X263361Y738833D01*
X262596Y736984D01*
X262334Y735000D01*
Y725000D01*
X262596Y723016D01*
X263361Y721167D01*
X264580Y719580D01*
X266167Y718361D01*
X268016Y717596D01*
X270000Y717334D01*
X271984Y717596D01*
X273833Y718361D01*
X275420Y719580D01*
X275901Y720206D01*
X277586Y720316D01*
X289701Y708201D01*
X290750Y707767D01*
X290750Y707767D01*
X477250D01*
X477250Y707767D01*
X478299Y708201D01*
X495614Y725517D01*
X565465D01*
X565486Y725486D01*
X566181Y725022D01*
X567000Y724859D01*
X567819Y725022D01*
X568514Y725486D01*
X568978Y726181D01*
X569141Y727000D01*
X568978Y727819D01*
X568514Y728514D01*
X567819Y728978D01*
X567000Y729141D01*
X566181Y728978D01*
X565486Y728514D01*
X565465Y728483D01*
X495000D01*
X493951Y728049D01*
X493951Y728048D01*
X476636Y710733D01*
X291364D01*
X277599Y724498D01*
X277666Y725000D01*
Y735000D01*
X277404Y736984D01*
X276639Y738833D01*
X275420Y740420D01*
X273833Y741639D01*
X271984Y742404D01*
X270000Y742666D01*
D02*
G37*
G36*
X308730Y744959D02*
X307379Y744782D01*
X304937Y743770D01*
X302839Y742161D01*
X301230Y740063D01*
X300218Y737621D01*
X299873Y735000D01*
Y731270D01*
X308730D01*
Y744959D01*
D02*
G37*
G36*
X80000Y760173D02*
X77040Y759882D01*
X74194Y759018D01*
X71570Y757616D01*
X69271Y755729D01*
X67384Y753430D01*
X65982Y750807D01*
X65118Y747960D01*
X64827Y745000D01*
X65118Y742040D01*
X65982Y739193D01*
X67384Y736570D01*
X69271Y734271D01*
X71570Y732384D01*
X74194Y730982D01*
X77040Y730118D01*
X80000Y729827D01*
X82960Y730118D01*
X85807Y730982D01*
X88430Y732384D01*
X90729Y734271D01*
X92616Y736570D01*
X94018Y739193D01*
X94881Y742040D01*
X95173Y745000D01*
X94881Y747960D01*
X94018Y750807D01*
X92616Y753430D01*
X90729Y755729D01*
X88430Y757616D01*
X85807Y759018D01*
X82960Y759882D01*
X80000Y760173D01*
D02*
G37*
G36*
X942950Y245770D02*
X940835Y245492D01*
X938865Y244675D01*
X937173Y243377D01*
X935875Y241685D01*
X935059Y239715D01*
X934780Y237600D01*
X935059Y235485D01*
X935875Y233515D01*
X936263Y233010D01*
X928486Y225233D01*
X909000D01*
X907951Y224799D01*
X907951Y224799D01*
X902201Y219049D01*
X901767Y218000D01*
X901767Y218000D01*
Y210785D01*
X901736Y210764D01*
X901272Y210069D01*
X901109Y209250D01*
X901272Y208431D01*
X901736Y207736D01*
X902431Y207272D01*
X903250Y207109D01*
X904069Y207272D01*
X904764Y207736D01*
X905228Y208431D01*
X905391Y209250D01*
X905228Y210069D01*
X904764Y210764D01*
X904733Y210785D01*
Y217386D01*
X909614Y222267D01*
X929100D01*
X929100Y222267D01*
X930149Y222701D01*
X938360Y230912D01*
X938865Y230525D01*
X940835Y229708D01*
X942950Y229430D01*
X945065Y229708D01*
X947035Y230525D01*
X948727Y231823D01*
X950025Y233515D01*
X950842Y235485D01*
X951120Y237600D01*
X950842Y239715D01*
X950025Y241685D01*
X948727Y243377D01*
X947035Y244675D01*
X945065Y245492D01*
X942950Y245770D01*
D02*
G37*
G36*
X163750Y246426D02*
X156250D01*
X153940Y246122D01*
X151787Y245231D01*
X149938Y243812D01*
X148519Y241963D01*
X147628Y239810D01*
X147324Y237500D01*
X147628Y235190D01*
X148519Y233037D01*
X149938Y231188D01*
X151787Y229769D01*
X153940Y228878D01*
X156250Y228574D01*
X163750D01*
X166060Y228878D01*
X168213Y229769D01*
X170062Y231188D01*
X171481Y233037D01*
X172372Y235190D01*
X172676Y237500D01*
X172372Y239810D01*
X171481Y241963D01*
X170062Y243812D01*
X168213Y245231D01*
X166060Y246122D01*
X163750Y246426D01*
D02*
G37*
G36*
X78730Y253730D02*
X62500D01*
X62714Y251562D01*
X63717Y248255D01*
X65346Y245208D01*
X67537Y242537D01*
X70208Y240345D01*
X73255Y238717D01*
X76561Y237714D01*
X78730Y237500D01*
Y253730D01*
D02*
G37*
G36*
X916280Y248064D02*
X914799Y247869D01*
X912235Y246807D01*
X910033Y245117D01*
X908343Y242915D01*
X907281Y240352D01*
X907086Y238870D01*
X916280D01*
Y248064D01*
D02*
G37*
G36*
X97500Y253730D02*
X81270D01*
Y237500D01*
X83438Y237714D01*
X86745Y238717D01*
X89792Y240345D01*
X92463Y242537D01*
X94655Y245208D01*
X96283Y248255D01*
X97286Y251562D01*
X97500Y253730D01*
D02*
G37*
G36*
X916280Y236330D02*
X907086D01*
X907281Y234849D01*
X908343Y232285D01*
X910033Y230083D01*
X912235Y228393D01*
X914799Y227331D01*
X916280Y227136D01*
Y236330D01*
D02*
G37*
G36*
X460127Y238730D02*
X451270D01*
Y225041D01*
X452621Y225218D01*
X455063Y226230D01*
X457161Y227839D01*
X458770Y229937D01*
X459782Y232379D01*
X460127Y235000D01*
Y238730D01*
D02*
G37*
G36*
X928014Y236330D02*
X918820D01*
Y227136D01*
X920302Y227331D01*
X922866Y228393D01*
X925067Y230083D01*
X926757Y232285D01*
X927819Y234849D01*
X928014Y236330D01*
D02*
G37*
G36*
X410000Y252666D02*
X408016Y252404D01*
X406167Y251639D01*
X404580Y250420D01*
X403361Y248833D01*
X402596Y246984D01*
X402334Y245000D01*
Y235000D01*
X402596Y233016D01*
X403361Y231167D01*
X404580Y229580D01*
X406167Y228361D01*
X408016Y227596D01*
X410000Y227334D01*
X411984Y227596D01*
X413833Y228361D01*
X415420Y229580D01*
X416639Y231167D01*
X417404Y233016D01*
X417666Y235000D01*
Y245000D01*
X417404Y246984D01*
X416639Y248833D01*
X415420Y250420D01*
X413833Y251639D01*
X411984Y252404D01*
X410000Y252666D01*
D02*
G37*
G36*
X260000D02*
X258016Y252404D01*
X256167Y251639D01*
X254580Y250420D01*
X253361Y248833D01*
X252596Y246984D01*
X252334Y245000D01*
Y235000D01*
X252596Y233016D01*
X253361Y231167D01*
X254580Y229580D01*
X256167Y228361D01*
X258016Y227596D01*
X260000Y227334D01*
X261984Y227596D01*
X263833Y228361D01*
X265420Y229580D01*
X266639Y231167D01*
X267404Y233016D01*
X267666Y235000D01*
Y245000D01*
X267404Y246984D01*
X266639Y248833D01*
X265420Y250420D01*
X263833Y251639D01*
X261984Y252404D01*
X260000Y252666D01*
D02*
G37*
G36*
X928014Y261730D02*
X918820D01*
Y252536D01*
X920302Y252731D01*
X922866Y253793D01*
X925067Y255483D01*
X926757Y257685D01*
X927819Y260249D01*
X928014Y261730D01*
D02*
G37*
G36*
X916280D02*
X907086D01*
X907281Y260249D01*
X908343Y257685D01*
X910033Y255483D01*
X912235Y253793D01*
X914799Y252731D01*
X916280Y252536D01*
Y261730D01*
D02*
G37*
G36*
X163750Y271426D02*
X156250D01*
X153940Y271122D01*
X151787Y270231D01*
X149938Y268812D01*
X148519Y266963D01*
X147628Y264810D01*
X147324Y262500D01*
X147628Y260190D01*
X148519Y258037D01*
X149938Y256188D01*
X151787Y254769D01*
X153940Y253878D01*
X156250Y253574D01*
X163750D01*
X166060Y253878D01*
X168213Y254769D01*
X170062Y256188D01*
X171481Y258037D01*
X172372Y260190D01*
X172676Y262500D01*
X172372Y264810D01*
X171481Y266963D01*
X170062Y268812D01*
X168213Y270231D01*
X166060Y271122D01*
X163750Y271426D01*
D02*
G37*
G36*
X78730Y272500D02*
X76561Y272286D01*
X73255Y271283D01*
X70208Y269655D01*
X67537Y267463D01*
X65346Y264792D01*
X63717Y261745D01*
X62714Y258438D01*
X62500Y256270D01*
X78730D01*
Y272500D01*
D02*
G37*
G36*
X942950Y271170D02*
X940835Y270891D01*
X938865Y270075D01*
X937173Y268777D01*
X935875Y267085D01*
X935059Y265115D01*
X934780Y263000D01*
X935059Y260886D01*
X935875Y258915D01*
X937173Y257223D01*
X938865Y255925D01*
X940835Y255109D01*
X942950Y254830D01*
X945065Y255109D01*
X947035Y255925D01*
X948727Y257223D01*
X950025Y258915D01*
X950842Y260886D01*
X951120Y263000D01*
X950842Y265115D01*
X950025Y267085D01*
X948727Y268777D01*
X947035Y270075D01*
X945065Y270891D01*
X942950Y271170D01*
D02*
G37*
G36*
X298730Y254959D02*
X297379Y254782D01*
X294937Y253770D01*
X292839Y252161D01*
X291230Y250063D01*
X290218Y247621D01*
X289873Y245000D01*
Y241270D01*
X298730D01*
Y254959D01*
D02*
G37*
G36*
X918820Y248064D02*
Y238870D01*
X928014D01*
X927819Y240352D01*
X926757Y242915D01*
X925067Y245117D01*
X922866Y246807D01*
X920302Y247869D01*
X918820Y248064D01*
D02*
G37*
G36*
X301270Y254959D02*
Y241270D01*
X310127D01*
Y245000D01*
X309782Y247621D01*
X308770Y250063D01*
X307161Y252161D01*
X305063Y253770D01*
X302621Y254782D01*
X301270Y254959D01*
D02*
G37*
G36*
X451270D02*
Y241270D01*
X460127D01*
Y245000D01*
X459782Y247621D01*
X458770Y250063D01*
X457161Y252161D01*
X455063Y253770D01*
X452621Y254782D01*
X451270Y254959D01*
D02*
G37*
G36*
X448730D02*
X447379Y254782D01*
X444937Y253770D01*
X442839Y252161D01*
X441230Y250063D01*
X440218Y247621D01*
X439873Y245000D01*
Y241270D01*
X448730D01*
Y254959D01*
D02*
G37*
G36*
Y238730D02*
X439873D01*
Y235000D01*
X440218Y232379D01*
X441230Y229937D01*
X442839Y227839D01*
X444937Y226230D01*
X447379Y225218D01*
X448730Y225041D01*
Y238730D01*
D02*
G37*
G36*
X801942Y156030D02*
X790570D01*
Y144658D01*
X792615Y144927D01*
X795705Y146207D01*
X798358Y148242D01*
X800393Y150895D01*
X801673Y153985D01*
X801942Y156030D01*
D02*
G37*
G36*
X788030D02*
X776658D01*
X776927Y153985D01*
X778207Y150895D01*
X780242Y148242D01*
X782895Y146207D01*
X785985Y144927D01*
X788030Y144658D01*
Y156030D01*
D02*
G37*
G36*
X761460Y167560D02*
X740940D01*
Y147040D01*
X761460D01*
Y167560D01*
D02*
G37*
G36*
X606520Y162460D02*
Y151270D01*
X615377D01*
Y152500D01*
X615032Y155121D01*
X614020Y157563D01*
X612411Y159661D01*
X610313Y161270D01*
X607871Y162282D01*
X606520Y162460D01*
D02*
G37*
G36*
X603980D02*
X602629Y162282D01*
X600187Y161270D01*
X598089Y159661D01*
X596480Y157563D01*
X595468Y155121D01*
X595123Y152500D01*
Y151270D01*
X603980D01*
Y162460D01*
D02*
G37*
G36*
X970250Y95222D02*
X965330Y94737D01*
X960598Y93302D01*
X956238Y90971D01*
X952416Y87834D01*
X949279Y84012D01*
X946948Y79652D01*
X945513Y74921D01*
X945029Y70000D01*
X945513Y65080D01*
X946948Y60348D01*
X949279Y55988D01*
X952416Y52166D01*
X956238Y49029D01*
X960598Y46698D01*
X965330Y45263D01*
X970250Y44779D01*
X975171Y45263D01*
X979902Y46698D01*
X984262Y49029D01*
X988084Y52166D01*
X991221Y55988D01*
X993552Y60348D01*
X994987Y65080D01*
X995471Y70000D01*
X994987Y74921D01*
X993552Y79652D01*
X991221Y84012D01*
X988084Y87834D01*
X984262Y90971D01*
X979902Y93302D01*
X975171Y94737D01*
X970250Y95222D01*
D02*
G37*
G36*
X70250D02*
X65330Y94737D01*
X60598Y93302D01*
X56238Y90971D01*
X52416Y87834D01*
X49279Y84012D01*
X46948Y79652D01*
X45513Y74921D01*
X45029Y70000D01*
X45513Y65080D01*
X46948Y60348D01*
X49279Y55988D01*
X52416Y52166D01*
X56238Y49029D01*
X60598Y46698D01*
X65330Y45263D01*
X70250Y44779D01*
X75170Y45263D01*
X79902Y46698D01*
X84262Y49029D01*
X88084Y52166D01*
X91221Y55988D01*
X93552Y60348D01*
X94987Y65080D01*
X95471Y70000D01*
X94987Y74921D01*
X93552Y79652D01*
X91221Y84012D01*
X88084Y87834D01*
X84262Y90971D01*
X79902Y93302D01*
X75170Y94737D01*
X70250Y95222D01*
D02*
G37*
G36*
X603980Y148730D02*
X595123D01*
Y147500D01*
X595468Y144879D01*
X596480Y142437D01*
X598089Y140339D01*
X600187Y138730D01*
X602629Y137718D01*
X603980Y137541D01*
Y148730D01*
D02*
G37*
G36*
X555250Y160166D02*
X553266Y159904D01*
X551417Y159139D01*
X549830Y157920D01*
X548611Y156333D01*
X547846Y154484D01*
X547584Y152500D01*
Y147500D01*
X547846Y145516D01*
X548611Y143667D01*
X549830Y142080D01*
X551417Y140861D01*
X553266Y140096D01*
X555250Y139834D01*
X557234Y140096D01*
X559083Y140861D01*
X560670Y142080D01*
X561889Y143667D01*
X562654Y145516D01*
X562916Y147500D01*
Y152500D01*
X562654Y154484D01*
X561889Y156333D01*
X560670Y157920D01*
X559083Y159139D01*
X557234Y159904D01*
X555250Y160166D01*
D02*
G37*
G36*
X615377Y148730D02*
X606520D01*
Y137541D01*
X607871Y137718D01*
X610313Y138730D01*
X612411Y140339D01*
X614020Y142437D01*
X615032Y144879D01*
X615377Y147500D01*
Y148730D01*
D02*
G37*
G36*
X942950Y220370D02*
X940835Y220091D01*
X938865Y219275D01*
X937173Y217977D01*
X935875Y216285D01*
X935059Y214315D01*
X934780Y212200D01*
X935059Y210086D01*
X935875Y208115D01*
X937173Y206423D01*
X938865Y205125D01*
X940835Y204308D01*
X942950Y204030D01*
X945065Y204308D01*
X947035Y205125D01*
X948727Y206423D01*
X950025Y208115D01*
X950842Y210086D01*
X951120Y212200D01*
X950842Y214315D01*
X950025Y216285D01*
X948727Y217977D01*
X947035Y219275D01*
X945065Y220091D01*
X942950Y220370D01*
D02*
G37*
G36*
X917550D02*
X915435Y220091D01*
X913465Y219275D01*
X911773Y217977D01*
X910475Y216285D01*
X909659Y214315D01*
X909380Y212200D01*
X909659Y210086D01*
X910475Y208115D01*
X911773Y206423D01*
X913465Y205125D01*
X915435Y204308D01*
X917550Y204030D01*
X919665Y204308D01*
X921635Y205125D01*
X923327Y206423D01*
X924625Y208115D01*
X925442Y210086D01*
X925720Y212200D01*
X925442Y214315D01*
X924625Y216285D01*
X923327Y217977D01*
X921635Y219275D01*
X919665Y220091D01*
X917550Y220370D01*
D02*
G37*
G36*
X798000Y223391D02*
X797181Y223228D01*
X796486Y222764D01*
X796465Y222733D01*
X771500D01*
X770451Y222299D01*
X770451Y222299D01*
X739386Y191233D01*
X519000D01*
X519000Y191233D01*
X517951Y190799D01*
X517951Y190798D01*
X513787Y186634D01*
X513750Y186641D01*
X512931Y186478D01*
X512236Y186014D01*
X511772Y185319D01*
X511609Y184500D01*
X511772Y183681D01*
X512236Y182986D01*
X512931Y182522D01*
X513130Y182482D01*
X513641Y181141D01*
X513275Y180547D01*
X512931Y180478D01*
X512236Y180014D01*
X511772Y179319D01*
X511609Y178500D01*
X511772Y177681D01*
X512236Y176986D01*
X512931Y176522D01*
X513130Y176482D01*
X513641Y175141D01*
X513275Y174547D01*
X512931Y174478D01*
X512236Y174014D01*
X511772Y173319D01*
X511609Y172500D01*
X511772Y171681D01*
X512236Y170986D01*
X512931Y170522D01*
X513130Y170482D01*
X513641Y169141D01*
X513275Y168547D01*
X512931Y168478D01*
X512236Y168014D01*
X511772Y167319D01*
X511609Y166500D01*
X511772Y165681D01*
X512236Y164986D01*
X512931Y164522D01*
X513750Y164359D01*
X514569Y164522D01*
X515264Y164986D01*
X515728Y165681D01*
X515891Y166500D01*
X515884Y166537D01*
X522364Y173017D01*
X748000D01*
X748000Y173017D01*
X749049Y173451D01*
X777364Y201767D01*
X796465D01*
X796486Y201736D01*
X797181Y201272D01*
X798000Y201109D01*
X798819Y201272D01*
X799514Y201736D01*
X799978Y202431D01*
X800141Y203250D01*
X799978Y204069D01*
X799514Y204764D01*
X798819Y205228D01*
X798000Y205391D01*
X797181Y205228D01*
X796486Y204764D01*
X796465Y204733D01*
X776750D01*
X775701Y204299D01*
X775701Y204298D01*
X747386Y175983D01*
X521750D01*
X520701Y175549D01*
X518170Y173017D01*
X516811Y173454D01*
X516810Y173463D01*
X521614Y178267D01*
X744750D01*
X744750Y178267D01*
X745799Y178701D01*
X774864Y207767D01*
X796465D01*
X796486Y207736D01*
X797181Y207272D01*
X798000Y207109D01*
X798819Y207272D01*
X799514Y207736D01*
X799978Y208431D01*
X800141Y209250D01*
X799978Y210069D01*
X799514Y210764D01*
X798819Y211228D01*
X798000Y211391D01*
X797181Y211228D01*
X796486Y210764D01*
X796465Y210733D01*
X774250D01*
X774250Y210733D01*
X773201Y210299D01*
X773201Y210299D01*
X744136Y181233D01*
X521000D01*
X519951Y180799D01*
X519951Y180798D01*
X518170Y179017D01*
X516811Y179454D01*
X516810Y179463D01*
X520614Y183267D01*
X742000D01*
X742000Y183267D01*
X743049Y183701D01*
X773114Y213767D01*
X796465D01*
X796486Y213736D01*
X797181Y213272D01*
X798000Y213109D01*
X798819Y213272D01*
X799514Y213736D01*
X799978Y214431D01*
X800141Y215250D01*
X799978Y216069D01*
X799514Y216764D01*
X798819Y217228D01*
X798000Y217391D01*
X797181Y217228D01*
X796486Y216764D01*
X796465Y216733D01*
X772500D01*
X771451Y216299D01*
X771451Y216299D01*
X741386Y186233D01*
X520000D01*
X520000Y186233D01*
X518951Y185799D01*
X518951Y185798D01*
X518170Y185017D01*
X516811Y185454D01*
X516810Y185463D01*
X519614Y188267D01*
X740000D01*
X740000Y188267D01*
X741049Y188701D01*
X772114Y219767D01*
X796465D01*
X796486Y219736D01*
X797181Y219272D01*
X798000Y219109D01*
X798819Y219272D01*
X799514Y219736D01*
X799978Y220431D01*
X800141Y221250D01*
X799978Y222069D01*
X799514Y222764D01*
X798819Y223228D01*
X798000Y223391D01*
D02*
G37*
G36*
X310127Y238730D02*
X301270D01*
Y225041D01*
X302621Y225218D01*
X305063Y226230D01*
X307161Y227839D01*
X308770Y229937D01*
X309782Y232379D01*
X310127Y235000D01*
Y238730D01*
D02*
G37*
G36*
X298730D02*
X289873D01*
Y235000D01*
X290218Y232379D01*
X291230Y229937D01*
X292839Y227839D01*
X294937Y226230D01*
X297379Y225218D01*
X298730Y225041D01*
Y238730D01*
D02*
G37*
G36*
X790570Y169942D02*
Y158570D01*
X801942D01*
X801673Y160615D01*
X800393Y163705D01*
X798358Y166358D01*
X795705Y168393D01*
X792615Y169673D01*
X790570Y169942D01*
D02*
G37*
G36*
X788030D02*
X785985Y169673D01*
X782895Y168393D01*
X780242Y166358D01*
X778207Y163705D01*
X776927Y160615D01*
X776658Y158570D01*
X788030D01*
Y169942D01*
D02*
G37*
G36*
X917550Y194970D02*
X915435Y194692D01*
X913465Y193875D01*
X911773Y192577D01*
X910475Y190885D01*
X909659Y188915D01*
X909380Y186800D01*
X909659Y184685D01*
X910475Y182715D01*
X911773Y181023D01*
X913465Y179725D01*
X915435Y178909D01*
X917550Y178630D01*
X919665Y178909D01*
X921635Y179725D01*
X923327Y181023D01*
X924625Y182715D01*
X925442Y184685D01*
X925720Y186800D01*
X925442Y188915D01*
X924625Y190885D01*
X923327Y192577D01*
X921635Y193875D01*
X919665Y194692D01*
X917550Y194970D01*
D02*
G37*
G36*
X80000Y220173D02*
X77040Y219881D01*
X74194Y219018D01*
X71570Y217616D01*
X69271Y215729D01*
X67384Y213430D01*
X65982Y210807D01*
X65118Y207960D01*
X64827Y205000D01*
X65118Y202040D01*
X65982Y199193D01*
X67384Y196570D01*
X69271Y194271D01*
X71570Y192384D01*
X74194Y190982D01*
X77040Y190119D01*
X80000Y189827D01*
X82960Y190119D01*
X85807Y190982D01*
X88430Y192384D01*
X90729Y194271D01*
X92616Y196570D01*
X94018Y199193D01*
X94881Y202040D01*
X95173Y205000D01*
X94881Y207960D01*
X94018Y210807D01*
X92616Y213430D01*
X90729Y215729D01*
X88430Y217616D01*
X85807Y219018D01*
X82960Y219881D01*
X80000Y220173D01*
D02*
G37*
G36*
X942950Y194970D02*
X940835Y194692D01*
X938865Y193875D01*
X937173Y192577D01*
X935875Y190885D01*
X935059Y188915D01*
X934780Y186800D01*
X935059Y184685D01*
X935875Y182715D01*
X937173Y181023D01*
X938865Y179725D01*
X940835Y178909D01*
X942950Y178630D01*
X945065Y178909D01*
X947035Y179725D01*
X948727Y181023D01*
X950025Y182715D01*
X950842Y184685D01*
X951120Y186800D01*
X950842Y188915D01*
X950025Y190885D01*
X948727Y192577D01*
X947035Y193875D01*
X945065Y194692D01*
X942950Y194970D01*
D02*
G37*
G36*
X81270Y272500D02*
Y256270D01*
X97500D01*
X97286Y258438D01*
X96283Y261745D01*
X94655Y264792D01*
X92463Y267463D01*
X89792Y269655D01*
X86745Y271283D01*
X83438Y272286D01*
X81270Y272500D01*
D02*
G37*
G36*
X918820Y425864D02*
Y416670D01*
X928014D01*
X927819Y418152D01*
X926757Y420715D01*
X925067Y422917D01*
X922866Y424607D01*
X920302Y425669D01*
X918820Y425864D01*
D02*
G37*
G36*
X916280D02*
X914799Y425669D01*
X912235Y424607D01*
X910033Y422917D01*
X908343Y420715D01*
X907281Y418152D01*
X907086Y416670D01*
X916280D01*
Y425864D01*
D02*
G37*
G36*
X78730Y433730D02*
X62500D01*
X62714Y431562D01*
X63717Y428255D01*
X65346Y425208D01*
X67537Y422537D01*
X70208Y420345D01*
X73255Y418717D01*
X76561Y417714D01*
X78730Y417500D01*
Y433730D01*
D02*
G37*
G36*
X378730Y438730D02*
X369873D01*
Y435000D01*
X370219Y432379D01*
X371230Y429937D01*
X372839Y427839D01*
X374937Y426230D01*
X377379Y425218D01*
X378730Y425041D01*
Y438730D01*
D02*
G37*
G36*
X97500Y433730D02*
X81270D01*
Y417500D01*
X83438Y417714D01*
X86745Y418717D01*
X89792Y420345D01*
X92463Y422537D01*
X94655Y425208D01*
X96283Y428255D01*
X97286Y431562D01*
X97500Y433730D01*
D02*
G37*
G36*
X918820Y375064D02*
Y365870D01*
X928014D01*
X927819Y367351D01*
X926757Y369916D01*
X925067Y372117D01*
X922866Y373807D01*
X920302Y374869D01*
X918820Y375064D01*
D02*
G37*
G36*
X916280D02*
X914799Y374869D01*
X912235Y373807D01*
X910033Y372117D01*
X908343Y369916D01*
X907281Y367351D01*
X907086Y365870D01*
X916280D01*
Y375064D01*
D02*
G37*
G36*
X80000Y400173D02*
X77040Y399882D01*
X74194Y399018D01*
X71570Y397616D01*
X69271Y395729D01*
X67384Y393430D01*
X65982Y390807D01*
X65118Y387960D01*
X64827Y385000D01*
X65118Y382040D01*
X65982Y379193D01*
X67384Y376570D01*
X69271Y374271D01*
X71570Y372384D01*
X74194Y370982D01*
X77040Y370118D01*
X80000Y369827D01*
X82960Y370118D01*
X85807Y370982D01*
X88430Y372384D01*
X90729Y374271D01*
X92616Y376570D01*
X94018Y379193D01*
X94881Y382040D01*
X95173Y385000D01*
X94881Y387960D01*
X94018Y390807D01*
X92616Y393430D01*
X90729Y395729D01*
X88430Y397616D01*
X85807Y399018D01*
X82960Y399882D01*
X80000Y400173D01*
D02*
G37*
G36*
X163750Y426426D02*
X156250D01*
X153940Y426122D01*
X151787Y425230D01*
X149938Y423812D01*
X148519Y421963D01*
X147628Y419810D01*
X147324Y417500D01*
X147628Y415190D01*
X148519Y413037D01*
X149938Y411188D01*
X151787Y409770D01*
X153940Y408878D01*
X156250Y408574D01*
X163750D01*
X166060Y408878D01*
X168213Y409770D01*
X170062Y411188D01*
X171481Y413037D01*
X172372Y415190D01*
X172676Y417500D01*
X172372Y419810D01*
X171481Y421963D01*
X170062Y423812D01*
X168213Y425230D01*
X166060Y426122D01*
X163750Y426426D01*
D02*
G37*
G36*
X942950Y448970D02*
X940835Y448691D01*
X938865Y447875D01*
X937173Y446577D01*
X935875Y444885D01*
X935059Y442915D01*
X934780Y440800D01*
X935059Y438685D01*
X935875Y436715D01*
X937173Y435023D01*
X938865Y433725D01*
X940835Y432909D01*
X942950Y432630D01*
X945065Y432909D01*
X947035Y433725D01*
X947540Y434113D01*
X958017Y423636D01*
Y415614D01*
X944386Y401983D01*
X932872D01*
X932619Y403253D01*
X933099Y403451D01*
X938360Y408713D01*
X938865Y408325D01*
X940835Y407509D01*
X942950Y407230D01*
X945065Y407509D01*
X947035Y408325D01*
X948727Y409623D01*
X950025Y411315D01*
X950842Y413285D01*
X951120Y415400D01*
X950842Y417515D01*
X950025Y419485D01*
X948727Y421177D01*
X947035Y422475D01*
X945065Y423292D01*
X942950Y423570D01*
X940835Y423292D01*
X938865Y422475D01*
X937173Y421177D01*
X935875Y419485D01*
X935059Y417515D01*
X934780Y415400D01*
X935059Y413285D01*
X935875Y411315D01*
X936263Y410810D01*
X931436Y405983D01*
X924677D01*
X924246Y407253D01*
X925067Y407883D01*
X926757Y410085D01*
X927819Y412649D01*
X928014Y414130D01*
X907086D01*
X907281Y412649D01*
X908343Y410085D01*
X910033Y407883D01*
X910854Y407253D01*
X910423Y405983D01*
X894500D01*
X893451Y405549D01*
X893451Y405549D01*
X868951Y381049D01*
X868517Y380000D01*
X868517Y380000D01*
Y81144D01*
X864606Y77233D01*
X153114D01*
X133483Y96864D01*
Y155715D01*
X133514Y155736D01*
X133978Y156431D01*
X134141Y157250D01*
X133978Y158069D01*
X133514Y158764D01*
X132819Y159228D01*
X132000Y159391D01*
X131181Y159228D01*
X130486Y158764D01*
X130022Y158069D01*
X129859Y157250D01*
X130022Y156431D01*
X130486Y155736D01*
X130517Y155715D01*
Y96250D01*
X130517Y96250D01*
X130951Y95202D01*
X151451Y74701D01*
X151451Y74701D01*
X152500Y74267D01*
X152500Y74267D01*
X865220D01*
X865220Y74267D01*
X866268Y74701D01*
X871049Y79481D01*
X871049Y79481D01*
X871483Y80530D01*
X871483Y80530D01*
Y379386D01*
X895114Y403017D01*
X899678D01*
X899931Y401747D01*
X899452Y401549D01*
X874451Y376549D01*
X874017Y375500D01*
X874017Y375500D01*
Y77614D01*
X868886Y72483D01*
X150364D01*
X127733Y95114D01*
Y155715D01*
X127764Y155736D01*
X128228Y156431D01*
X128391Y157250D01*
X128228Y158069D01*
X127764Y158764D01*
X127069Y159228D01*
X126250Y159391D01*
X125431Y159228D01*
X124736Y158764D01*
X124272Y158069D01*
X124109Y157250D01*
X124272Y156431D01*
X124736Y155736D01*
X124767Y155715D01*
Y94500D01*
X124767Y94500D01*
X125201Y93451D01*
X148701Y69952D01*
X148701Y69951D01*
X149750Y69517D01*
X869500D01*
X869500Y69517D01*
X870549Y69951D01*
X876548Y75951D01*
X876549Y75951D01*
X876983Y77000D01*
X876983Y77000D01*
Y374886D01*
X901114Y399017D01*
X914834D01*
X915087Y397747D01*
X913465Y397075D01*
X911773Y395777D01*
X910475Y394085D01*
X909659Y392115D01*
X909380Y390000D01*
X909659Y387886D01*
X910475Y385915D01*
X911773Y384223D01*
X913465Y382925D01*
X915435Y382108D01*
X917550Y381830D01*
X919665Y382108D01*
X921635Y382925D01*
X923327Y384223D01*
X924625Y385915D01*
X925442Y387886D01*
X925720Y390000D01*
X925442Y392115D01*
X924625Y394085D01*
X923327Y395777D01*
X921635Y397075D01*
X920013Y397747D01*
X920266Y399017D01*
X940234D01*
X940487Y397747D01*
X938865Y397075D01*
X937173Y395777D01*
X935875Y394085D01*
X935059Y392115D01*
X934780Y390000D01*
X935059Y387886D01*
X935875Y385915D01*
X937173Y384223D01*
X938865Y382925D01*
X940835Y382108D01*
X942950Y381830D01*
X945065Y382108D01*
X947035Y382925D01*
X947540Y383312D01*
X954767Y376086D01*
Y361864D01*
X944136Y351233D01*
X932922D01*
X932669Y352503D01*
X933149Y352701D01*
X938360Y357912D01*
X938865Y357525D01*
X940835Y356708D01*
X942950Y356430D01*
X945065Y356708D01*
X947035Y357525D01*
X948727Y358823D01*
X950025Y360515D01*
X950842Y362486D01*
X951120Y364600D01*
X950842Y366715D01*
X950025Y368685D01*
X948727Y370377D01*
X947035Y371675D01*
X945065Y372491D01*
X942950Y372770D01*
X940835Y372491D01*
X938865Y371675D01*
X937173Y370377D01*
X935875Y368685D01*
X935059Y366715D01*
X934780Y364600D01*
X935059Y362486D01*
X935875Y360515D01*
X936263Y360010D01*
X931486Y355233D01*
X924743D01*
X924311Y356503D01*
X925067Y357083D01*
X926757Y359285D01*
X927819Y361849D01*
X928014Y363330D01*
X907086D01*
X907281Y361849D01*
X908343Y359285D01*
X910033Y357083D01*
X910789Y356503D01*
X910358Y355233D01*
X892750D01*
X892750Y355233D01*
X891701Y354799D01*
X891701Y354799D01*
X879951Y343049D01*
X879517Y342000D01*
X879517Y342000D01*
Y74614D01*
X872636Y67733D01*
X147364D01*
X121983Y93114D01*
Y155715D01*
X122014Y155736D01*
X122478Y156431D01*
X122641Y157250D01*
X122478Y158069D01*
X122014Y158764D01*
X121319Y159228D01*
X120500Y159391D01*
X119681Y159228D01*
X118986Y158764D01*
X118522Y158069D01*
X118359Y157250D01*
X118522Y156431D01*
X118986Y155736D01*
X119017Y155715D01*
Y92500D01*
X119017Y92500D01*
X119451Y91452D01*
X145701Y65202D01*
X145701Y65201D01*
X146750Y64767D01*
X873250D01*
X873250Y64767D01*
X874299Y65201D01*
X882048Y72951D01*
X882049Y72951D01*
X882483Y74000D01*
X882483Y74000D01*
Y341386D01*
X893364Y352267D01*
X897178D01*
X897431Y350997D01*
X896951Y350799D01*
X885701Y339548D01*
X885267Y338500D01*
X885267Y338500D01*
Y72614D01*
X875386Y62733D01*
X145114D01*
X115983Y91864D01*
Y155465D01*
X116014Y155486D01*
X116478Y156181D01*
X116641Y157000D01*
X116478Y157819D01*
X116014Y158514D01*
X115319Y158978D01*
X114500Y159141D01*
X113681Y158978D01*
X112986Y158514D01*
X112522Y157819D01*
X112359Y157000D01*
X112522Y156181D01*
X112986Y155486D01*
X113017Y155465D01*
Y91250D01*
X113017Y91250D01*
X113451Y90201D01*
X143451Y60201D01*
X144500Y59767D01*
X144500Y59767D01*
X876000D01*
X876000Y59767D01*
X877049Y60201D01*
X887798Y70951D01*
X887799Y70951D01*
X888233Y72000D01*
X888233Y72000D01*
Y337886D01*
X898614Y348267D01*
X915125D01*
X915435Y347091D01*
X913465Y346275D01*
X911773Y344977D01*
X910475Y343285D01*
X909659Y341315D01*
X909380Y339200D01*
X909659Y337085D01*
X910475Y335115D01*
X911773Y333423D01*
X913465Y332125D01*
X915435Y331309D01*
X917550Y331030D01*
X919665Y331309D01*
X921635Y332125D01*
X923327Y333423D01*
X924625Y335115D01*
X925442Y337085D01*
X925720Y339200D01*
X925442Y341315D01*
X924625Y343285D01*
X923327Y344977D01*
X921635Y346275D01*
X919665Y347091D01*
X919975Y348267D01*
X940525D01*
X940835Y347091D01*
X938865Y346275D01*
X937173Y344977D01*
X935875Y343285D01*
X935059Y341315D01*
X934780Y339200D01*
X935059Y337085D01*
X935875Y335115D01*
X937173Y333423D01*
X938865Y332125D01*
X940835Y331309D01*
X942950Y331030D01*
X945065Y331309D01*
X947035Y332125D01*
X947540Y332513D01*
X955267Y324786D01*
Y308364D01*
X947636Y300733D01*
X933222D01*
X932969Y302003D01*
X933449Y302201D01*
X938360Y307113D01*
X938865Y306725D01*
X940835Y305909D01*
X942950Y305630D01*
X945065Y305909D01*
X947035Y306725D01*
X948727Y308023D01*
X950025Y309715D01*
X950842Y311686D01*
X951120Y313800D01*
X950842Y315915D01*
X950025Y317885D01*
X948727Y319577D01*
X947035Y320875D01*
X945065Y321692D01*
X942950Y321970D01*
X940835Y321692D01*
X938865Y320875D01*
X937173Y319577D01*
X935875Y317885D01*
X935059Y315915D01*
X934780Y313800D01*
X935059Y311686D01*
X935875Y309715D01*
X936263Y309210D01*
X931786Y304733D01*
X925023D01*
X924615Y305935D01*
X925067Y306283D01*
X926757Y308485D01*
X927819Y311049D01*
X928014Y312530D01*
X907086D01*
X907281Y311049D01*
X908343Y308485D01*
X910033Y306283D01*
X910486Y305935D01*
X910077Y304733D01*
X902000D01*
X900951Y304299D01*
X900951Y304298D01*
X890951Y294298D01*
X890517Y293250D01*
X890517Y293250D01*
Y71114D01*
X877386Y57983D01*
X142364D01*
X109983Y90364D01*
Y155465D01*
X110014Y155486D01*
X110478Y156181D01*
X110641Y157000D01*
X110478Y157819D01*
X110014Y158514D01*
X109319Y158978D01*
X108500Y159141D01*
X107681Y158978D01*
X106986Y158514D01*
X106522Y157819D01*
X106359Y157000D01*
X106522Y156181D01*
X106986Y155486D01*
X107017Y155465D01*
Y89750D01*
X107017Y89750D01*
X107451Y88701D01*
X140701Y55451D01*
X140701Y55451D01*
X141750Y55017D01*
X878000D01*
X878000Y55017D01*
X879048Y55451D01*
X893049Y69451D01*
X893483Y70500D01*
X893483Y70500D01*
Y292636D01*
X902614Y301767D01*
X906428D01*
X906681Y300497D01*
X906201Y300299D01*
X895951Y290049D01*
X895517Y289000D01*
X895517Y289000D01*
Y68114D01*
X880636Y53233D01*
X139614D01*
X103983Y88864D01*
Y155465D01*
X104014Y155486D01*
X104478Y156181D01*
X104641Y157000D01*
X104478Y157819D01*
X104014Y158514D01*
X103319Y158978D01*
X102500Y159141D01*
X101681Y158978D01*
X100986Y158514D01*
X100522Y157819D01*
X100359Y157000D01*
X100522Y156181D01*
X100986Y155486D01*
X101017Y155465D01*
Y88250D01*
X101017Y88250D01*
X101451Y87201D01*
X137951Y50701D01*
X137951Y50701D01*
X139000Y50267D01*
X881250D01*
X881250Y50267D01*
X882299Y50701D01*
X898048Y66451D01*
X898049Y66451D01*
X898483Y67500D01*
X898483Y67500D01*
Y288386D01*
X907864Y297767D01*
X916914D01*
X916995Y296525D01*
X916996Y296508D01*
X916997Y296498D01*
X916997Y296497D01*
X916870Y296480D01*
X916870D01*
X915435Y296292D01*
X913465Y295475D01*
X911773Y294177D01*
X910475Y292485D01*
X909659Y290515D01*
X909380Y288400D01*
X909659Y286285D01*
X910475Y284315D01*
X911773Y282623D01*
X913465Y281325D01*
X915435Y280508D01*
X917550Y280230D01*
X919665Y280508D01*
X921635Y281325D01*
X923327Y282623D01*
X924625Y284315D01*
X925442Y286285D01*
X925720Y288400D01*
X925442Y290515D01*
X924625Y292485D01*
X923327Y294177D01*
X921635Y295475D01*
X919665Y296292D01*
X918231Y296480D01*
X918231D01*
X918103Y296497D01*
X918103Y296498D01*
X918104Y296508D01*
X918105Y296525D01*
X918186Y297767D01*
X942314D01*
X942395Y296525D01*
X942396Y296508D01*
X942397Y296498D01*
X942397Y296497D01*
X942270Y296480D01*
X942270D01*
X940835Y296292D01*
X938865Y295475D01*
X937173Y294177D01*
X935875Y292485D01*
X935059Y290515D01*
X934780Y288400D01*
X935059Y286285D01*
X935875Y284315D01*
X937173Y282623D01*
X938865Y281325D01*
X940835Y280508D01*
X942950Y280230D01*
X945065Y280508D01*
X947035Y281325D01*
X948727Y282623D01*
X950025Y284315D01*
X950842Y286285D01*
X951120Y288400D01*
X950842Y290515D01*
X950025Y292485D01*
X948727Y294177D01*
X947035Y295475D01*
X945065Y296292D01*
X943631Y296480D01*
X943631D01*
X943503Y296497D01*
X943503Y296498D01*
X943504Y296508D01*
X943505Y296525D01*
X943586Y297767D01*
X948250D01*
X948250Y297767D01*
X949299Y298201D01*
X957799Y306701D01*
X958233Y307750D01*
X958233Y307750D01*
Y325400D01*
X958233Y325400D01*
X957799Y326449D01*
X957798Y326449D01*
X949638Y334610D01*
X950025Y335115D01*
X950842Y337085D01*
X951120Y339200D01*
X950842Y341315D01*
X950025Y343285D01*
X948727Y344977D01*
X947035Y346275D01*
X945065Y347091D01*
X945048Y347094D01*
X945048Y347094D01*
X945019Y348378D01*
X945799Y348701D01*
X957299Y360201D01*
X957299Y360201D01*
X957733Y361250D01*
X957733Y361250D01*
Y376700D01*
X957733Y376700D01*
X957299Y377749D01*
X949638Y385410D01*
X950025Y385915D01*
X950842Y387886D01*
X951120Y390000D01*
X950842Y392115D01*
X950025Y394085D01*
X948727Y395777D01*
X947035Y397075D01*
X945207Y397833D01*
X945169Y398048D01*
X945150Y398409D01*
X945269Y399128D01*
X946049Y399451D01*
X960548Y413951D01*
X960549Y413951D01*
X960983Y415000D01*
Y424250D01*
X960983Y424250D01*
X960549Y425299D01*
X960548Y425299D01*
X949638Y436210D01*
X950025Y436715D01*
X950842Y438685D01*
X951120Y440800D01*
X950842Y442915D01*
X950025Y444885D01*
X948727Y446577D01*
X947035Y447875D01*
X945065Y448691D01*
X942950Y448970D01*
D02*
G37*
G36*
X378730Y454959D02*
X377379Y454782D01*
X374937Y453770D01*
X372839Y452161D01*
X371230Y450063D01*
X370219Y447621D01*
X369873Y445000D01*
Y441270D01*
X378730D01*
Y454959D01*
D02*
G37*
G36*
X81270Y452500D02*
Y436270D01*
X97500D01*
X97286Y438438D01*
X96283Y441745D01*
X94655Y444792D01*
X92463Y447463D01*
X89792Y449655D01*
X86745Y451283D01*
X83438Y452286D01*
X81270Y452500D01*
D02*
G37*
G36*
X381270Y454959D02*
Y441270D01*
X390127D01*
Y445000D01*
X389782Y447621D01*
X388770Y450063D01*
X387161Y452161D01*
X385063Y453770D01*
X382621Y454782D01*
X381270Y454959D01*
D02*
G37*
G36*
X174970Y466230D02*
X161270D01*
Y456113D01*
X163750D01*
X166697Y456501D01*
X169444Y457638D01*
X171802Y459448D01*
X173612Y461806D01*
X174749Y464553D01*
X174970Y466230D01*
D02*
G37*
G36*
X158730D02*
X145030D01*
X145251Y464553D01*
X146388Y461806D01*
X148198Y459448D01*
X150556Y457638D01*
X153303Y456501D01*
X156250Y456113D01*
X158730D01*
Y466230D01*
D02*
G37*
G36*
X360000Y452666D02*
X358016Y452404D01*
X356167Y451639D01*
X354580Y450420D01*
X353361Y448833D01*
X352596Y446984D01*
X352334Y445000D01*
Y435000D01*
X352596Y433016D01*
X353361Y431167D01*
X354580Y429580D01*
X356167Y428361D01*
X358016Y427596D01*
X360000Y427334D01*
X361984Y427596D01*
X363833Y428361D01*
X365420Y429580D01*
X366639Y431167D01*
X367404Y433016D01*
X367666Y435000D01*
Y445000D01*
X367404Y446984D01*
X366639Y448833D01*
X365420Y450420D01*
X363833Y451639D01*
X361984Y452404D01*
X360000Y452666D01*
D02*
G37*
G36*
X390127Y438730D02*
X381270D01*
Y425041D01*
X382621Y425218D01*
X385063Y426230D01*
X387161Y427839D01*
X388770Y429937D01*
X389782Y432379D01*
X390127Y435000D01*
Y438730D01*
D02*
G37*
G36*
X917550Y448970D02*
X915435Y448691D01*
X913465Y447875D01*
X911773Y446577D01*
X910475Y444885D01*
X909659Y442915D01*
X909380Y440800D01*
X909659Y438685D01*
X910475Y436715D01*
X911773Y435023D01*
X913465Y433725D01*
X915435Y432909D01*
X917550Y432630D01*
X919665Y432909D01*
X921635Y433725D01*
X923327Y435023D01*
X924625Y436715D01*
X925442Y438685D01*
X925720Y440800D01*
X925442Y442915D01*
X924625Y444885D01*
X923327Y446577D01*
X921635Y447875D01*
X919665Y448691D01*
X917550Y448970D01*
D02*
G37*
G36*
X78730Y452500D02*
X76561Y452286D01*
X73255Y451283D01*
X70208Y449655D01*
X67537Y447463D01*
X65346Y444792D01*
X63717Y441745D01*
X62714Y438438D01*
X62500Y436270D01*
X78730D01*
Y452500D01*
D02*
G37*
G36*
X163750Y451426D02*
X156250D01*
X153940Y451122D01*
X151787Y450230D01*
X149938Y448812D01*
X148519Y446963D01*
X147628Y444810D01*
X147324Y442500D01*
X147628Y440190D01*
X148519Y438037D01*
X149938Y436188D01*
X151787Y434770D01*
X153940Y433878D01*
X156250Y433574D01*
X163750D01*
X166060Y433878D01*
X168213Y434770D01*
X170062Y436188D01*
X171481Y438037D01*
X172372Y440190D01*
X172676Y442500D01*
X172372Y444810D01*
X171481Y446963D01*
X170062Y448812D01*
X168213Y450230D01*
X166060Y451122D01*
X163750Y451426D01*
D02*
G37*
G36*
X451270Y364959D02*
Y351270D01*
X460127D01*
Y355000D01*
X459782Y357621D01*
X458770Y360063D01*
X457161Y362161D01*
X455063Y363770D01*
X452621Y364782D01*
X451270Y364959D01*
D02*
G37*
G36*
X158730Y298887D02*
X156250D01*
X153303Y298499D01*
X150556Y297362D01*
X148198Y295552D01*
X146388Y293194D01*
X145251Y290447D01*
X145030Y288770D01*
X158730D01*
Y298887D01*
D02*
G37*
G36*
X90000Y301166D02*
X88016Y300904D01*
X86167Y300139D01*
X84580Y298920D01*
X83361Y297333D01*
X82596Y295484D01*
X82334Y293500D01*
X82596Y291516D01*
X83361Y289667D01*
X84580Y288080D01*
X86167Y286861D01*
X88016Y286096D01*
X90000Y285834D01*
X91984Y286096D01*
X93833Y286861D01*
X95420Y288080D01*
X96639Y289667D01*
X97404Y291516D01*
X97666Y293500D01*
X97404Y295484D01*
X96639Y297333D01*
X95420Y298920D01*
X93833Y300139D01*
X91984Y300904D01*
X90000Y301166D01*
D02*
G37*
G36*
X163750Y298887D02*
X161270D01*
Y288770D01*
X174970D01*
X174749Y290447D01*
X173612Y293194D01*
X171802Y295552D01*
X169444Y297362D01*
X166697Y298499D01*
X163750Y298887D01*
D02*
G37*
G36*
X918820Y324264D02*
Y315070D01*
X928014D01*
X927819Y316551D01*
X926757Y319116D01*
X925067Y321317D01*
X922866Y323007D01*
X920302Y324069D01*
X918820Y324264D01*
D02*
G37*
G36*
X916280D02*
X914799Y324069D01*
X912235Y323007D01*
X910033Y321317D01*
X908343Y319116D01*
X907281Y316551D01*
X907086Y315070D01*
X916280D01*
Y324264D01*
D02*
G37*
G36*
X918820Y273464D02*
Y264270D01*
X928014D01*
X927819Y265751D01*
X926757Y268316D01*
X925067Y270517D01*
X922866Y272207D01*
X920302Y273269D01*
X918820Y273464D01*
D02*
G37*
G36*
X916280D02*
X914799Y273269D01*
X912235Y272207D01*
X910033Y270517D01*
X908343Y268316D01*
X907281Y265751D01*
X907086Y264270D01*
X916280D01*
Y273464D01*
D02*
G37*
G36*
X158730Y286230D02*
X145030D01*
X145251Y284553D01*
X146388Y281806D01*
X148198Y279448D01*
X150556Y277638D01*
X153303Y276501D01*
X156250Y276113D01*
X158730D01*
Y286230D01*
D02*
G37*
G36*
X70000Y301166D02*
X68016Y300904D01*
X66167Y300139D01*
X64580Y298920D01*
X63361Y297333D01*
X62596Y295484D01*
X62334Y293500D01*
X62596Y291516D01*
X63361Y289667D01*
X64580Y288080D01*
X66167Y286861D01*
X68016Y286096D01*
X70000Y285834D01*
X71984Y286096D01*
X73833Y286861D01*
X75420Y288080D01*
X76639Y289667D01*
X77404Y291516D01*
X77666Y293500D01*
X77404Y295484D01*
X76639Y297333D01*
X75420Y298920D01*
X73833Y300139D01*
X71984Y300904D01*
X70000Y301166D01*
D02*
G37*
G36*
X174970Y286230D02*
X161270D01*
Y276113D01*
X163750D01*
X166697Y276501D01*
X169444Y277638D01*
X171802Y279448D01*
X173612Y281806D01*
X174749Y284553D01*
X174970Y286230D01*
D02*
G37*
G36*
X410000Y362666D02*
X408016Y362404D01*
X406167Y361639D01*
X404580Y360420D01*
X403361Y358833D01*
X402596Y356984D01*
X402334Y355000D01*
Y345000D01*
X402596Y343016D01*
X403361Y341167D01*
X404580Y339580D01*
X406167Y338361D01*
X408016Y337596D01*
X410000Y337334D01*
X411984Y337596D01*
X413833Y338361D01*
X415420Y339580D01*
X416639Y341167D01*
X417404Y343016D01*
X417666Y345000D01*
Y355000D01*
X417404Y356984D01*
X416639Y358833D01*
X415420Y360420D01*
X413833Y361639D01*
X411984Y362404D01*
X410000Y362666D01*
D02*
G37*
G36*
X260000D02*
X258016Y362404D01*
X256167Y361639D01*
X254580Y360420D01*
X253361Y358833D01*
X252596Y356984D01*
X252334Y355000D01*
Y345000D01*
X252596Y343016D01*
X253361Y341167D01*
X254580Y339580D01*
X256167Y338361D01*
X258016Y337596D01*
X260000Y337334D01*
X261984Y337596D01*
X263833Y338361D01*
X265420Y339580D01*
X266639Y341167D01*
X267404Y343016D01*
X267666Y345000D01*
Y355000D01*
X267404Y356984D01*
X266639Y358833D01*
X265420Y360420D01*
X263833Y361639D01*
X261984Y362404D01*
X260000Y362666D01*
D02*
G37*
G36*
X298730Y364959D02*
X297379Y364782D01*
X294937Y363770D01*
X292839Y362161D01*
X291230Y360063D01*
X290218Y357621D01*
X289873Y355000D01*
Y351270D01*
X298730D01*
Y364959D01*
D02*
G37*
G36*
X448730D02*
X447379Y364782D01*
X444937Y363770D01*
X442839Y362161D01*
X441230Y360063D01*
X440218Y357621D01*
X439873Y355000D01*
Y351270D01*
X448730D01*
Y364959D01*
D02*
G37*
G36*
X301270D02*
Y351270D01*
X310127D01*
Y355000D01*
X309782Y357621D01*
X308770Y360063D01*
X307161Y362161D01*
X305063Y363770D01*
X302621Y364782D01*
X301270Y364959D01*
D02*
G37*
G36*
X298730Y348730D02*
X289873D01*
Y345000D01*
X290218Y342379D01*
X291230Y339937D01*
X292839Y337839D01*
X294937Y336230D01*
X297379Y335218D01*
X298730Y335041D01*
Y348730D01*
D02*
G37*
G36*
X851250Y325641D02*
X850431Y325478D01*
X849736Y325014D01*
X849272Y324319D01*
X849109Y323500D01*
X849116Y323463D01*
X826451Y300798D01*
X826017Y299750D01*
X826017Y299750D01*
Y144614D01*
X796261Y114858D01*
X225489D01*
X193733Y146614D01*
Y155465D01*
X193764Y155486D01*
X194228Y156181D01*
X194391Y157000D01*
X194228Y157819D01*
X193764Y158514D01*
X193069Y158978D01*
X192250Y159141D01*
X191431Y158978D01*
X190736Y158514D01*
X190272Y157819D01*
X190109Y157000D01*
X190272Y156181D01*
X190736Y155486D01*
X190767Y155465D01*
Y146000D01*
X190767Y146000D01*
X191201Y144951D01*
X223826Y112326D01*
X223827Y112326D01*
X224875Y111892D01*
X796875D01*
X796875Y111892D01*
X797924Y112326D01*
X828549Y142951D01*
X828549Y142951D01*
X828983Y144000D01*
Y299136D01*
X847010Y317162D01*
X848360Y316716D01*
X848393Y316490D01*
X830951Y299049D01*
X830517Y298000D01*
X830517Y298000D01*
Y142364D01*
X797886Y109733D01*
X223364D01*
X187983Y145114D01*
Y155465D01*
X188014Y155486D01*
X188478Y156181D01*
X188641Y157000D01*
X188478Y157819D01*
X188014Y158514D01*
X187319Y158978D01*
X186500Y159141D01*
X185681Y158978D01*
X184986Y158514D01*
X184522Y157819D01*
X184359Y157000D01*
X184522Y156181D01*
X184986Y155486D01*
X185017Y155465D01*
Y144500D01*
X185017Y144500D01*
X185451Y143451D01*
X221701Y107201D01*
X222750Y106767D01*
X798500D01*
X798500Y106767D01*
X799548Y107201D01*
X833048Y140701D01*
X833049Y140701D01*
X833483Y141750D01*
X833483Y141750D01*
Y297386D01*
X847010Y310912D01*
X848360Y310466D01*
X848393Y310240D01*
X835701Y297549D01*
X835267Y296500D01*
X835267Y296500D01*
Y140364D01*
X798386Y103483D01*
X222114D01*
X182233Y143364D01*
Y155465D01*
X182264Y155486D01*
X182728Y156181D01*
X182891Y157000D01*
X182728Y157819D01*
X182264Y158514D01*
X181569Y158978D01*
X180750Y159141D01*
X179931Y158978D01*
X179236Y158514D01*
X178772Y157819D01*
X178609Y157000D01*
X178772Y156181D01*
X179236Y155486D01*
X179267Y155465D01*
Y142750D01*
X179267Y142750D01*
X179701Y141701D01*
X220451Y100951D01*
X220451Y100951D01*
X221500Y100517D01*
X799000D01*
X799000Y100517D01*
X800049Y100951D01*
X837798Y138701D01*
X837799Y138701D01*
X838233Y139750D01*
Y295886D01*
X847404Y305056D01*
X848676Y304532D01*
X848677Y304025D01*
X839951Y295299D01*
X839517Y294250D01*
X839517Y294250D01*
Y137114D01*
X801386Y98983D01*
X219364D01*
X176483Y141864D01*
Y155465D01*
X176514Y155486D01*
X176978Y156181D01*
X177141Y157000D01*
X176978Y157819D01*
X176514Y158514D01*
X175819Y158978D01*
X175000Y159141D01*
X174181Y158978D01*
X173486Y158514D01*
X173022Y157819D01*
X172859Y157000D01*
X173022Y156181D01*
X173486Y155486D01*
X173517Y155465D01*
Y141250D01*
X173517Y141250D01*
X173951Y140201D01*
X217701Y96451D01*
X218750Y96017D01*
X218750Y96017D01*
X802000D01*
X802000Y96017D01*
X803049Y96451D01*
X842048Y135451D01*
X842049Y135451D01*
X842483Y136500D01*
Y293636D01*
X851213Y302366D01*
X851250Y302359D01*
X852069Y302522D01*
X852764Y302986D01*
X853228Y303681D01*
X853391Y304500D01*
X853228Y305319D01*
X852764Y306014D01*
X852069Y306478D01*
X851250Y306641D01*
X850669Y306525D01*
X850089Y307210D01*
X849920Y307573D01*
X851213Y308866D01*
X851250Y308859D01*
X852069Y309022D01*
X852764Y309486D01*
X853228Y310181D01*
X853391Y311000D01*
X853228Y311819D01*
X852764Y312514D01*
X852069Y312978D01*
X851250Y313141D01*
X850981Y313088D01*
X850355Y314258D01*
X851213Y315116D01*
X851250Y315109D01*
X852069Y315272D01*
X852764Y315736D01*
X853228Y316431D01*
X853391Y317250D01*
X853228Y318069D01*
X852764Y318764D01*
X852069Y319228D01*
X851250Y319391D01*
X850981Y319338D01*
X850355Y320508D01*
X851213Y321366D01*
X851250Y321359D01*
X852069Y321522D01*
X852764Y321986D01*
X853228Y322681D01*
X853391Y323500D01*
X853228Y324319D01*
X852764Y325014D01*
X852069Y325478D01*
X851250Y325641D01*
D02*
G37*
G36*
X310127Y348730D02*
X301270D01*
Y335041D01*
X302621Y335218D01*
X305063Y336230D01*
X307161Y337839D01*
X308770Y339937D01*
X309782Y342379D01*
X310127Y345000D01*
Y348730D01*
D02*
G37*
G36*
X460127D02*
X451270D01*
Y335041D01*
X452621Y335218D01*
X455063Y336230D01*
X457161Y337839D01*
X458770Y339937D01*
X459782Y342379D01*
X460127Y345000D01*
Y348730D01*
D02*
G37*
G36*
X448730D02*
X439873D01*
Y345000D01*
X440218Y342379D01*
X441230Y339937D01*
X442839Y337839D01*
X444937Y336230D01*
X447379Y335218D01*
X448730Y335041D01*
Y348730D01*
D02*
G37*
G36*
X167250Y1189166D02*
X165266Y1188904D01*
X163417Y1188139D01*
X161830Y1186920D01*
X160611Y1185333D01*
X159846Y1183484D01*
X159585Y1181500D01*
Y1171500D01*
X159846Y1169516D01*
X160611Y1167667D01*
X161830Y1166080D01*
X163417Y1164861D01*
X165266Y1164096D01*
X167250Y1163834D01*
X169234Y1164096D01*
X171083Y1164861D01*
X172670Y1166080D01*
X173889Y1167667D01*
X174654Y1169516D01*
X174916Y1171500D01*
Y1181500D01*
X174654Y1183484D01*
X173889Y1185333D01*
X172670Y1186920D01*
X171083Y1188139D01*
X169234Y1188904D01*
X167250Y1189166D01*
D02*
G37*
G36*
X147250D02*
X145266Y1188904D01*
X143417Y1188139D01*
X141830Y1186920D01*
X140611Y1185333D01*
X139846Y1183484D01*
X139585Y1181500D01*
Y1171500D01*
X139846Y1169516D01*
X140611Y1167667D01*
X141830Y1166080D01*
X143417Y1164861D01*
X145266Y1164096D01*
X147250Y1163834D01*
X149234Y1164096D01*
X151083Y1164861D01*
X152670Y1166080D01*
X153889Y1167667D01*
X154654Y1169516D01*
X154916Y1171500D01*
Y1181500D01*
X154654Y1183484D01*
X153889Y1185333D01*
X152670Y1186920D01*
X151083Y1188139D01*
X149234Y1188904D01*
X147250Y1189166D01*
D02*
G37*
G36*
X247250D02*
X245266Y1188904D01*
X243417Y1188139D01*
X241830Y1186920D01*
X240611Y1185333D01*
X239846Y1183484D01*
X239585Y1181500D01*
Y1171500D01*
X239846Y1169516D01*
X240611Y1167667D01*
X241830Y1166080D01*
X243417Y1164861D01*
X245266Y1164096D01*
X247250Y1163834D01*
X249234Y1164096D01*
X251083Y1164861D01*
X252670Y1166080D01*
X253889Y1167667D01*
X254654Y1169516D01*
X254916Y1171500D01*
Y1181500D01*
X254654Y1183484D01*
X253889Y1185333D01*
X252670Y1186920D01*
X251083Y1188139D01*
X249234Y1188904D01*
X247250Y1189166D01*
D02*
G37*
G36*
X62250Y1225666D02*
X52250D01*
X50266Y1225404D01*
X48417Y1224639D01*
X46830Y1223420D01*
X45611Y1221833D01*
X44846Y1219984D01*
X44584Y1218000D01*
X44846Y1216016D01*
X45611Y1214167D01*
X46830Y1212580D01*
X48417Y1211361D01*
X50266Y1210596D01*
X52250Y1210334D01*
X62250D01*
X64234Y1210596D01*
X66083Y1211361D01*
X67670Y1212580D01*
X68889Y1214167D01*
X69654Y1216016D01*
X69916Y1218000D01*
X69654Y1219984D01*
X68889Y1221833D01*
X67670Y1223420D01*
X66083Y1224639D01*
X64234Y1225404D01*
X62250Y1225666D01*
D02*
G37*
G36*
Y1205666D02*
X52250D01*
X50266Y1205404D01*
X48417Y1204639D01*
X46830Y1203420D01*
X45611Y1201833D01*
X44846Y1199984D01*
X44584Y1198000D01*
X44846Y1196016D01*
X45611Y1194167D01*
X46830Y1192580D01*
X48417Y1191361D01*
X50266Y1190596D01*
X52250Y1190334D01*
X62250D01*
X64234Y1190596D01*
X66083Y1191361D01*
X67670Y1192580D01*
X68889Y1194167D01*
X69654Y1196016D01*
X69916Y1198000D01*
X69654Y1199984D01*
X68889Y1201833D01*
X67670Y1203420D01*
X66083Y1204639D01*
X64234Y1205404D01*
X62250Y1205666D01*
D02*
G37*
G36*
X89000Y1128114D02*
X86270D01*
Y1120770D01*
X97446D01*
X97320Y1121729D01*
X96460Y1123807D01*
X95091Y1125591D01*
X93307Y1126960D01*
X91229Y1127820D01*
X89000Y1128114D01*
D02*
G37*
G36*
X83730D02*
X81000D01*
X78771Y1127820D01*
X76693Y1126960D01*
X74909Y1125591D01*
X73540Y1123807D01*
X72680Y1121729D01*
X72554Y1120770D01*
X83730D01*
Y1128114D01*
D02*
G37*
G36*
X917550Y1141370D02*
X915435Y1141092D01*
X913465Y1140275D01*
X911773Y1138977D01*
X910475Y1137285D01*
X909659Y1135315D01*
X909380Y1133200D01*
X909659Y1131086D01*
X910475Y1129115D01*
X911773Y1127423D01*
X913465Y1126125D01*
X915435Y1125309D01*
X917550Y1125030D01*
X919665Y1125309D01*
X921635Y1126125D01*
X923327Y1127423D01*
X924625Y1129115D01*
X925442Y1131086D01*
X925720Y1133200D01*
X925442Y1135315D01*
X924625Y1137285D01*
X923327Y1138977D01*
X921635Y1140275D01*
X919665Y1141092D01*
X917550Y1141370D01*
D02*
G37*
G36*
X412240Y1288490D02*
X397760D01*
Y1274010D01*
X403767D01*
Y1212250D01*
X403767Y1212250D01*
X404202Y1211201D01*
X420017Y1195386D01*
Y1182500D01*
X420017Y1182500D01*
X420451Y1181451D01*
X441701Y1160201D01*
X441702Y1160201D01*
X442750Y1159767D01*
X450215D01*
X450236Y1159736D01*
X450931Y1159272D01*
X451750Y1159109D01*
X452569Y1159272D01*
X453264Y1159736D01*
X453728Y1160431D01*
X453891Y1161250D01*
X453728Y1162069D01*
X453264Y1162764D01*
X452569Y1163228D01*
X451750Y1163391D01*
X450931Y1163228D01*
X450236Y1162764D01*
X450215Y1162733D01*
X443364D01*
X422983Y1183114D01*
Y1196000D01*
X422983Y1196000D01*
X422549Y1197049D01*
X422548Y1197049D01*
X406733Y1212864D01*
Y1274010D01*
X412240D01*
Y1288490D01*
D02*
G37*
G36*
X942950Y1141370D02*
X940835Y1141092D01*
X938865Y1140275D01*
X937173Y1138977D01*
X935875Y1137285D01*
X935059Y1135315D01*
X934780Y1133200D01*
X935059Y1131086D01*
X935875Y1129115D01*
X937173Y1127423D01*
X938865Y1126125D01*
X940835Y1125309D01*
X942950Y1125030D01*
X945065Y1125309D01*
X947035Y1126125D01*
X948727Y1127423D01*
X950025Y1129115D01*
X950842Y1131086D01*
X951120Y1133200D01*
X950842Y1135315D01*
X950025Y1137285D01*
X948727Y1138977D01*
X947035Y1140275D01*
X945065Y1141092D01*
X942950Y1141370D01*
D02*
G37*
G36*
X72209Y1256730D02*
X58520D01*
Y1247873D01*
X62250D01*
X64871Y1248219D01*
X67313Y1249230D01*
X69411Y1250839D01*
X71020Y1252937D01*
X72032Y1255379D01*
X72209Y1256730D01*
D02*
G37*
G36*
X55980D02*
X42291D01*
X42468Y1255379D01*
X43480Y1252937D01*
X45089Y1250839D01*
X47187Y1249230D01*
X49629Y1248219D01*
X52250Y1247873D01*
X55980D01*
Y1256730D01*
D02*
G37*
G36*
Y1268127D02*
X52250D01*
X49629Y1267782D01*
X47187Y1266770D01*
X45089Y1265161D01*
X43480Y1263063D01*
X42468Y1260621D01*
X42291Y1259270D01*
X55980D01*
Y1268127D01*
D02*
G37*
G36*
X592240Y1288490D02*
X577760D01*
Y1274010D01*
X592240D01*
Y1280017D01*
X641136D01*
X651951Y1269202D01*
X651951Y1269201D01*
X653000Y1268767D01*
X653000Y1268767D01*
X660345D01*
X660446Y1268260D01*
X661573Y1266573D01*
X663260Y1265446D01*
X665250Y1265050D01*
X667240Y1265446D01*
X668927Y1266573D01*
X670054Y1268260D01*
X670450Y1270250D01*
X670054Y1272240D01*
X668927Y1273927D01*
X667240Y1275054D01*
X665250Y1275450D01*
X663260Y1275054D01*
X661573Y1273927D01*
X660446Y1272240D01*
X660345Y1271733D01*
X653614D01*
X642798Y1282549D01*
X641750Y1282983D01*
X641750Y1282983D01*
X592240D01*
Y1288490D01*
D02*
G37*
G36*
X62250Y1268127D02*
X58520D01*
Y1259270D01*
X72209D01*
X72032Y1260621D01*
X71020Y1263063D01*
X69411Y1265161D01*
X67313Y1266770D01*
X64871Y1267782D01*
X62250Y1268127D01*
D02*
G37*
G36*
X783250Y1228170D02*
X781135Y1227891D01*
X779165Y1227075D01*
X777473Y1225777D01*
X776175Y1224085D01*
X775359Y1222114D01*
X775080Y1220000D01*
X775359Y1217886D01*
X776175Y1215915D01*
X777473Y1214223D01*
X779165Y1212925D01*
X781135Y1212109D01*
X783250Y1211830D01*
X785365Y1212109D01*
X787335Y1212925D01*
X789027Y1214223D01*
X790325Y1215915D01*
X791142Y1217886D01*
X791420Y1220000D01*
X791142Y1222114D01*
X790325Y1224085D01*
X789027Y1225777D01*
X787335Y1227075D01*
X785365Y1227891D01*
X783250Y1228170D01*
D02*
G37*
G36*
X707250D02*
X705135Y1227891D01*
X703165Y1227075D01*
X701473Y1225777D01*
X700175Y1224085D01*
X699359Y1222114D01*
X699080Y1220000D01*
X699359Y1217886D01*
X700175Y1215915D01*
X701473Y1214223D01*
X703165Y1212925D01*
X705135Y1212109D01*
X707250Y1211830D01*
X709364Y1212109D01*
X711335Y1212925D01*
X713027Y1214223D01*
X714325Y1215915D01*
X715142Y1217886D01*
X715420Y1220000D01*
X715142Y1222114D01*
X714325Y1224085D01*
X713027Y1225777D01*
X711335Y1227075D01*
X709364Y1227891D01*
X707250Y1228170D01*
D02*
G37*
G36*
X494250Y1224200D02*
X492260Y1223804D01*
X490573Y1222677D01*
X489446Y1220990D01*
X489050Y1219000D01*
X489446Y1217010D01*
X489733Y1216580D01*
X472952Y1199799D01*
X472517Y1198750D01*
X472517Y1198750D01*
Y1175155D01*
X472010Y1175054D01*
X470323Y1173927D01*
X469196Y1172240D01*
X468800Y1170250D01*
X469196Y1168260D01*
X470323Y1166573D01*
X472010Y1165446D01*
X474000Y1165050D01*
X475990Y1165446D01*
X477677Y1166573D01*
X478804Y1168260D01*
X479200Y1170250D01*
X478804Y1172240D01*
X477677Y1173927D01*
X475990Y1175054D01*
X475483Y1175155D01*
Y1198136D01*
X491830Y1214483D01*
X492260Y1214196D01*
X494250Y1213800D01*
X496240Y1214196D01*
X497927Y1215323D01*
X499054Y1217010D01*
X499450Y1219000D01*
X499054Y1220990D01*
X497927Y1222677D01*
X496240Y1223804D01*
X494250Y1224200D01*
D02*
G37*
G36*
X810250Y1335173D02*
X807290Y1334881D01*
X804444Y1334018D01*
X801820Y1332616D01*
X799521Y1330729D01*
X797634Y1328430D01*
X796232Y1325806D01*
X795368Y1322960D01*
X795077Y1320000D01*
Y1260000D01*
Y916285D01*
X789521Y910729D01*
X787634Y908430D01*
X786232Y905807D01*
X785368Y902960D01*
X785077Y900000D01*
X785368Y897040D01*
X786232Y894194D01*
X787634Y891570D01*
X789521Y889271D01*
X791820Y887384D01*
X793768Y886343D01*
X793450Y885073D01*
X758635D01*
X741729Y901979D01*
X739430Y903866D01*
X736806Y905268D01*
X733960Y906132D01*
X731000Y906423D01*
X702288D01*
X699750Y906673D01*
X698937Y907410D01*
Y915046D01*
X700207Y915391D01*
X701589Y913589D01*
X703687Y911980D01*
X706129Y910968D01*
X707480Y910791D01*
Y925750D01*
Y940709D01*
X706129Y940532D01*
X703687Y939520D01*
X701589Y937911D01*
X699980Y935813D01*
X698969Y933371D01*
X698705Y931370D01*
X698300Y931182D01*
X697387Y931086D01*
X696161Y932683D01*
X696154Y932734D01*
X695389Y934583D01*
X694170Y936170D01*
X692583Y937389D01*
X690734Y938154D01*
X688750Y938416D01*
X686766Y938154D01*
X684917Y937389D01*
X683330Y936170D01*
X682111Y934583D01*
X681346Y932734D01*
X681339Y932683D01*
X679928Y930844D01*
X678910Y928387D01*
X678563Y925750D01*
Y852000D01*
X678910Y849363D01*
X679928Y846906D01*
X681339Y845067D01*
X681346Y845016D01*
X682111Y843167D01*
X683330Y841580D01*
X684917Y840361D01*
X686766Y839596D01*
X688750Y839334D01*
X690734Y839596D01*
X692583Y840361D01*
X694170Y841580D01*
X695389Y843167D01*
X696154Y845016D01*
X696161Y845067D01*
X697387Y846664D01*
X698300Y846568D01*
X698705Y846380D01*
X698969Y844379D01*
X699980Y841937D01*
X701589Y839839D01*
X703687Y838230D01*
X706129Y837218D01*
X707480Y837041D01*
Y852000D01*
Y866959D01*
X706129Y866782D01*
X703687Y865770D01*
X701589Y864161D01*
X700207Y862359D01*
X698937Y862704D01*
Y875236D01*
X699878Y876089D01*
X700000Y876077D01*
X724715D01*
X741621Y859171D01*
X743920Y857284D01*
X746544Y855882D01*
X749390Y855018D01*
X752350Y854727D01*
X840150D01*
X843110Y855018D01*
X845956Y855882D01*
X848580Y857284D01*
X850879Y859171D01*
X850979Y859271D01*
X852866Y861570D01*
X854268Y864194D01*
X855132Y867040D01*
X855423Y870000D01*
X855132Y872960D01*
X854268Y875807D01*
X852866Y878430D01*
X850979Y880729D01*
X848680Y882616D01*
X846057Y884018D01*
X843210Y884882D01*
X841733Y885027D01*
Y1229386D01*
X847830Y1235483D01*
X848260Y1235196D01*
X850250Y1234800D01*
X852240Y1235196D01*
X853927Y1236323D01*
X855054Y1238010D01*
X855450Y1240000D01*
X855054Y1241990D01*
X853927Y1243677D01*
X852240Y1244804D01*
X850250Y1245200D01*
X848260Y1244804D01*
X846573Y1243677D01*
X845446Y1241990D01*
X845050Y1240000D01*
X845446Y1238010D01*
X845733Y1237580D01*
X839201Y1231049D01*
X838767Y1230000D01*
X838767Y1230000D01*
Y885073D01*
X807050D01*
X806732Y886343D01*
X808680Y887384D01*
X810979Y889271D01*
X820979Y899271D01*
X822866Y901570D01*
X824268Y904194D01*
X825132Y907040D01*
X825423Y910000D01*
Y1260000D01*
Y1320000D01*
X825132Y1322960D01*
X824268Y1325806D01*
X822866Y1328430D01*
X820979Y1330729D01*
X818680Y1332616D01*
X816057Y1334018D01*
X813210Y1334881D01*
X810250Y1335173D01*
D02*
G37*
G36*
X62250Y1245666D02*
X52250D01*
X50266Y1245404D01*
X48417Y1244639D01*
X46830Y1243420D01*
X45611Y1241833D01*
X44846Y1239984D01*
X44584Y1238000D01*
X44846Y1236016D01*
X45611Y1234167D01*
X46830Y1232580D01*
X48417Y1231361D01*
X50266Y1230596D01*
X52250Y1230334D01*
X62250D01*
X64234Y1230596D01*
X66083Y1231361D01*
X67670Y1232580D01*
X68889Y1234167D01*
X69654Y1236016D01*
X69916Y1238000D01*
X69654Y1239984D01*
X68889Y1241833D01*
X67670Y1243420D01*
X66083Y1244639D01*
X64234Y1245404D01*
X62250Y1245666D01*
D02*
G37*
G36*
X97446Y1118230D02*
X86270D01*
Y1110886D01*
X89000D01*
X91229Y1111180D01*
X93307Y1112040D01*
X95091Y1113409D01*
X96460Y1115193D01*
X97320Y1117271D01*
X97446Y1118230D01*
D02*
G37*
G36*
X942950Y1065170D02*
X940835Y1064892D01*
X938865Y1064075D01*
X937173Y1062777D01*
X935875Y1061085D01*
X935059Y1059115D01*
X934780Y1057000D01*
X935059Y1054885D01*
X935875Y1052915D01*
X937173Y1051223D01*
X938865Y1049925D01*
X940835Y1049109D01*
X942950Y1048830D01*
X945065Y1049109D01*
X947035Y1049925D01*
X948727Y1051223D01*
X950025Y1052915D01*
X950842Y1054885D01*
X951120Y1057000D01*
X950842Y1059115D01*
X950025Y1061085D01*
X948727Y1062777D01*
X947035Y1064075D01*
X945065Y1064892D01*
X942950Y1065170D01*
D02*
G37*
G36*
X928014Y1055730D02*
X918820D01*
Y1046536D01*
X920302Y1046731D01*
X922866Y1047793D01*
X925067Y1049483D01*
X926757Y1051685D01*
X927819Y1054249D01*
X928014Y1055730D01*
D02*
G37*
G36*
X89000Y1065720D02*
X81000D01*
X78620Y1065246D01*
X76602Y1063898D01*
X75254Y1061880D01*
X74781Y1059500D01*
X75254Y1057120D01*
X76602Y1055102D01*
X78620Y1053754D01*
X81000Y1053280D01*
X89000D01*
X91380Y1053754D01*
X93398Y1055102D01*
X94746Y1057120D01*
X95219Y1059500D01*
X94746Y1061880D01*
X93398Y1063898D01*
X91380Y1065246D01*
X89000Y1065720D01*
D02*
G37*
G36*
X918820Y1067464D02*
Y1058270D01*
X928014D01*
X927819Y1059752D01*
X926757Y1062316D01*
X925067Y1064517D01*
X922866Y1066207D01*
X920302Y1067269D01*
X918820Y1067464D01*
D02*
G37*
G36*
X916280D02*
X914799Y1067269D01*
X912234Y1066207D01*
X910033Y1064517D01*
X908343Y1062316D01*
X907281Y1059752D01*
X907086Y1058270D01*
X916280D01*
Y1067464D01*
D02*
G37*
G36*
X917550Y1039770D02*
X915435Y1039492D01*
X913465Y1038675D01*
X911773Y1037377D01*
X910475Y1035685D01*
X909659Y1033715D01*
X909380Y1031600D01*
X909659Y1029485D01*
X910475Y1027515D01*
X911773Y1025823D01*
X913465Y1024525D01*
X915435Y1023708D01*
X917550Y1023430D01*
X919665Y1023708D01*
X921635Y1024525D01*
X923327Y1025823D01*
X924625Y1027515D01*
X925442Y1029485D01*
X925720Y1031600D01*
X925442Y1033715D01*
X924625Y1035685D01*
X923327Y1037377D01*
X921635Y1038675D01*
X919665Y1039492D01*
X917550Y1039770D01*
D02*
G37*
G36*
X344000Y1078700D02*
X342010Y1078304D01*
X340323Y1077177D01*
X340323Y1077177D01*
X333073Y1069927D01*
X331946Y1068240D01*
X331550Y1066250D01*
X331550Y1066250D01*
Y1027000D01*
X331946Y1025010D01*
X333073Y1023323D01*
X334760Y1022196D01*
X336750Y1021800D01*
X338740Y1022196D01*
X340427Y1023323D01*
X341554Y1025010D01*
X341950Y1027000D01*
Y1064096D01*
X347677Y1069823D01*
X347677Y1069823D01*
X348804Y1071510D01*
X349200Y1073500D01*
X348804Y1075490D01*
X347677Y1077177D01*
X345990Y1078304D01*
X344000Y1078700D01*
D02*
G37*
G36*
X942950Y1039770D02*
X940835Y1039492D01*
X938865Y1038675D01*
X937173Y1037377D01*
X935875Y1035685D01*
X935059Y1033715D01*
X934780Y1031600D01*
X935059Y1029485D01*
X935875Y1027515D01*
X937173Y1025823D01*
X938865Y1024525D01*
X940835Y1023708D01*
X942950Y1023430D01*
X945065Y1023708D01*
X947035Y1024525D01*
X948727Y1025823D01*
X950025Y1027515D01*
X950842Y1029485D01*
X951120Y1031600D01*
X950842Y1033715D01*
X950025Y1035685D01*
X948727Y1037377D01*
X947035Y1038675D01*
X945065Y1039492D01*
X942950Y1039770D01*
D02*
G37*
G36*
X916280Y1055730D02*
X907086D01*
X907281Y1054249D01*
X908343Y1051685D01*
X910033Y1049483D01*
X912234Y1047793D01*
X914799Y1046731D01*
X916280Y1046536D01*
Y1055730D01*
D02*
G37*
G36*
X89000Y1045720D02*
X81000D01*
X78620Y1045246D01*
X76602Y1043898D01*
X75254Y1041880D01*
X74781Y1039500D01*
X75254Y1037120D01*
X76602Y1035102D01*
X78620Y1033754D01*
X81000Y1033280D01*
X89000D01*
X91380Y1033754D01*
X93398Y1035102D01*
X94746Y1037120D01*
X95219Y1039500D01*
X94746Y1041880D01*
X93398Y1043898D01*
X91380Y1045246D01*
X89000Y1045720D01*
D02*
G37*
G36*
Y1105720D02*
X81000D01*
X78620Y1105246D01*
X76602Y1103898D01*
X75254Y1101880D01*
X74781Y1099500D01*
X75254Y1097120D01*
X76602Y1095102D01*
X78620Y1093754D01*
X81000Y1093280D01*
X89000D01*
X91380Y1093754D01*
X93398Y1095102D01*
X94746Y1097120D01*
X95219Y1099500D01*
X94746Y1101880D01*
X93398Y1103898D01*
X91380Y1105246D01*
X89000Y1105720D01*
D02*
G37*
G36*
X918820Y1092864D02*
Y1083670D01*
X928014D01*
X927819Y1085152D01*
X926757Y1087716D01*
X925067Y1089917D01*
X922866Y1091607D01*
X920302Y1092669D01*
X918820Y1092864D01*
D02*
G37*
G36*
X917550Y1115970D02*
X915435Y1115692D01*
X913465Y1114875D01*
X911773Y1113577D01*
X910475Y1111885D01*
X909659Y1109915D01*
X909380Y1107800D01*
X909659Y1105686D01*
X910475Y1103715D01*
X911773Y1102023D01*
X913465Y1100725D01*
X915435Y1099909D01*
X917550Y1099630D01*
X919665Y1099909D01*
X921635Y1100725D01*
X923327Y1102023D01*
X924625Y1103715D01*
X925442Y1105686D01*
X925720Y1107800D01*
X925442Y1109915D01*
X924625Y1111885D01*
X923327Y1113577D01*
X921635Y1114875D01*
X919665Y1115692D01*
X917550Y1115970D01*
D02*
G37*
G36*
X83730Y1118230D02*
X72554D01*
X72680Y1117271D01*
X73540Y1115193D01*
X74909Y1113409D01*
X76693Y1112040D01*
X78771Y1111180D01*
X81000Y1110886D01*
X83730D01*
Y1118230D01*
D02*
G37*
G36*
X942950Y1115970D02*
X940835Y1115692D01*
X938865Y1114875D01*
X937173Y1113577D01*
X935875Y1111885D01*
X935059Y1109915D01*
X934780Y1107800D01*
X935059Y1105686D01*
X935875Y1103715D01*
X937173Y1102023D01*
X938865Y1100725D01*
X940835Y1099909D01*
X942950Y1099630D01*
X945065Y1099909D01*
X947035Y1100725D01*
X948727Y1102023D01*
X950025Y1103715D01*
X950842Y1105686D01*
X951120Y1107800D01*
X950842Y1109915D01*
X950025Y1111885D01*
X948727Y1113577D01*
X947035Y1114875D01*
X945065Y1115692D01*
X942950Y1115970D01*
D02*
G37*
G36*
X928014Y1081130D02*
X918820D01*
Y1071936D01*
X920302Y1072131D01*
X922866Y1073193D01*
X925067Y1074883D01*
X926757Y1077085D01*
X927819Y1079649D01*
X928014Y1081130D01*
D02*
G37*
G36*
X916280D02*
X907086D01*
X907281Y1079649D01*
X908343Y1077085D01*
X910033Y1074883D01*
X912234Y1073193D01*
X914799Y1072131D01*
X916280Y1071936D01*
Y1081130D01*
D02*
G37*
G36*
X89000Y1085720D02*
X81000D01*
X78620Y1085246D01*
X76602Y1083898D01*
X75254Y1081880D01*
X74781Y1079500D01*
X75254Y1077120D01*
X76602Y1075102D01*
X78620Y1073754D01*
X81000Y1073280D01*
X89000D01*
X91380Y1073754D01*
X93398Y1075102D01*
X94746Y1077120D01*
X95219Y1079500D01*
X94746Y1081880D01*
X93398Y1083898D01*
X91380Y1085246D01*
X89000Y1085720D01*
D02*
G37*
G36*
X916280Y1092864D02*
X914799Y1092669D01*
X912234Y1091607D01*
X910033Y1089917D01*
X908343Y1087716D01*
X907281Y1085152D01*
X907086Y1083670D01*
X916280D01*
Y1092864D01*
D02*
G37*
G36*
X942950Y1090570D02*
X940835Y1090292D01*
X938865Y1089475D01*
X937173Y1088177D01*
X935875Y1086485D01*
X935059Y1084515D01*
X934780Y1082400D01*
X935059Y1080285D01*
X935875Y1078315D01*
X937173Y1076623D01*
X938865Y1075325D01*
X940835Y1074509D01*
X942950Y1074230D01*
X945065Y1074509D01*
X947035Y1075325D01*
X948727Y1076623D01*
X950025Y1078315D01*
X950842Y1080285D01*
X951120Y1082400D01*
X950842Y1084515D01*
X950025Y1086485D01*
X948727Y1088177D01*
X947035Y1089475D01*
X945065Y1090292D01*
X942950Y1090570D01*
D02*
G37*
G36*
X153730Y1279980D02*
X145404D01*
X145569Y1278723D01*
X146545Y1276368D01*
X148096Y1274346D01*
X150118Y1272795D01*
X152473Y1271819D01*
X153730Y1271654D01*
Y1279980D01*
D02*
G37*
G36*
X713887Y1378730D02*
X703770D01*
Y1365030D01*
X705447Y1365251D01*
X708194Y1366388D01*
X710552Y1368198D01*
X712362Y1370556D01*
X713499Y1373303D01*
X713887Y1376250D01*
Y1378730D01*
D02*
G37*
G36*
X701230D02*
X691113D01*
Y1376250D01*
X691501Y1373303D01*
X692638Y1370556D01*
X694448Y1368198D01*
X696806Y1366388D01*
X699553Y1365251D01*
X701230Y1365030D01*
Y1378730D01*
D02*
G37*
G36*
X801230D02*
X791113D01*
Y1376250D01*
X791501Y1373303D01*
X792638Y1370556D01*
X794448Y1368198D01*
X796806Y1366388D01*
X799553Y1365251D01*
X801230Y1365030D01*
Y1378730D01*
D02*
G37*
G36*
X901230D02*
X891113D01*
Y1376250D01*
X891501Y1373303D01*
X892638Y1370556D01*
X894448Y1368198D01*
X896806Y1366388D01*
X899553Y1365251D01*
X901230Y1365030D01*
Y1378730D01*
D02*
G37*
G36*
X813887D02*
X803770D01*
Y1365030D01*
X805447Y1365251D01*
X808194Y1366388D01*
X810552Y1368198D01*
X812362Y1370556D01*
X813499Y1373303D01*
X813887Y1376250D01*
Y1378730D01*
D02*
G37*
G36*
X484300Y1320050D02*
X481272Y1319651D01*
X478450Y1318483D01*
X476027Y1316623D01*
X474167Y1314200D01*
X472999Y1311378D01*
X472600Y1308350D01*
X472999Y1305322D01*
X474167Y1302500D01*
X476027Y1300077D01*
X478450Y1298217D01*
X481272Y1297049D01*
X484300Y1296650D01*
X487328Y1297049D01*
X490150Y1298217D01*
X492573Y1300077D01*
X494433Y1302500D01*
X495601Y1305322D01*
X496000Y1308350D01*
X495601Y1311378D01*
X494433Y1314200D01*
X492573Y1316623D01*
X490150Y1318483D01*
X487328Y1319651D01*
X484300Y1320050D01*
D02*
G37*
G36*
X435700D02*
X432672Y1319651D01*
X429850Y1318483D01*
X427427Y1316623D01*
X425567Y1314200D01*
X424399Y1311378D01*
X424000Y1308350D01*
X424399Y1305322D01*
X425567Y1302500D01*
X427427Y1300077D01*
X429850Y1298217D01*
X432672Y1297049D01*
X435700Y1296650D01*
X438728Y1297049D01*
X441550Y1298217D01*
X443973Y1300077D01*
X445833Y1302500D01*
X447001Y1305322D01*
X447400Y1308350D01*
X447001Y1311378D01*
X445833Y1314200D01*
X443973Y1316623D01*
X441550Y1318483D01*
X438728Y1319651D01*
X435700Y1320050D01*
D02*
G37*
G36*
X615700D02*
X612672Y1319651D01*
X609850Y1318483D01*
X607427Y1316623D01*
X605567Y1314200D01*
X604399Y1311378D01*
X604000Y1308350D01*
X604399Y1305322D01*
X605567Y1302500D01*
X607427Y1300077D01*
X609850Y1298217D01*
X612672Y1297049D01*
X615700Y1296650D01*
X618728Y1297049D01*
X621550Y1298217D01*
X623973Y1300077D01*
X625833Y1302500D01*
X627001Y1305322D01*
X627400Y1308350D01*
X627001Y1311378D01*
X625833Y1314200D01*
X623973Y1316623D01*
X621550Y1318483D01*
X618728Y1319651D01*
X615700Y1320050D01*
D02*
G37*
G36*
X970250Y1395222D02*
X965330Y1394737D01*
X960598Y1393302D01*
X956238Y1390971D01*
X952416Y1387834D01*
X949279Y1384012D01*
X946948Y1379652D01*
X945513Y1374921D01*
X945029Y1370000D01*
X945513Y1365080D01*
X946948Y1360348D01*
X949279Y1355988D01*
X952416Y1352166D01*
X956238Y1349029D01*
X960598Y1346698D01*
X965330Y1345263D01*
X970250Y1344779D01*
X975171Y1345263D01*
X979902Y1346698D01*
X984262Y1349029D01*
X988084Y1352166D01*
X991221Y1355988D01*
X993552Y1360348D01*
X994987Y1365080D01*
X995471Y1370000D01*
X994987Y1374921D01*
X993552Y1379652D01*
X991221Y1384012D01*
X988084Y1387834D01*
X984262Y1390971D01*
X979902Y1393302D01*
X975171Y1394737D01*
X970250Y1395222D01*
D02*
G37*
G36*
X70250D02*
X65330Y1394737D01*
X60598Y1393302D01*
X56238Y1390971D01*
X52416Y1387834D01*
X49279Y1384012D01*
X46948Y1379652D01*
X45513Y1374921D01*
X45029Y1370000D01*
X45513Y1365080D01*
X46948Y1360348D01*
X49279Y1355988D01*
X52416Y1352166D01*
X56238Y1349029D01*
X60598Y1346698D01*
X65330Y1345263D01*
X70250Y1344779D01*
X75170Y1345263D01*
X79902Y1346698D01*
X84262Y1349029D01*
X88084Y1352166D01*
X91221Y1355988D01*
X93552Y1360348D01*
X94987Y1365080D01*
X95471Y1370000D01*
X94987Y1374921D01*
X93552Y1379652D01*
X91221Y1384012D01*
X88084Y1387834D01*
X84262Y1390971D01*
X79902Y1393302D01*
X75170Y1394737D01*
X70250Y1395222D01*
D02*
G37*
G36*
X801230Y1394970D02*
X799553Y1394749D01*
X796806Y1393612D01*
X794448Y1391802D01*
X792638Y1389444D01*
X791501Y1386697D01*
X791113Y1383750D01*
Y1381270D01*
X801230D01*
Y1394970D01*
D02*
G37*
G36*
X703770D02*
Y1381270D01*
X713887D01*
Y1383750D01*
X713499Y1386697D01*
X712362Y1389444D01*
X710552Y1391802D01*
X708194Y1393612D01*
X705447Y1394749D01*
X703770Y1394970D01*
D02*
G37*
G36*
X803770D02*
Y1381270D01*
X813887D01*
Y1383750D01*
X813499Y1386697D01*
X812362Y1389444D01*
X810552Y1391802D01*
X808194Y1393612D01*
X805447Y1394749D01*
X803770Y1394970D01*
D02*
G37*
G36*
X903770D02*
Y1381270D01*
X913887D01*
Y1383750D01*
X913499Y1386697D01*
X912362Y1389444D01*
X910552Y1391802D01*
X908194Y1393612D01*
X905447Y1394749D01*
X903770Y1394970D01*
D02*
G37*
G36*
X901230D02*
X899553Y1394749D01*
X896806Y1393612D01*
X894448Y1391802D01*
X892638Y1389444D01*
X891501Y1386697D01*
X891113Y1383750D01*
Y1381270D01*
X901230D01*
Y1394970D01*
D02*
G37*
G36*
X677500Y1392676D02*
X675190Y1392372D01*
X673037Y1391481D01*
X671188Y1390062D01*
X669770Y1388213D01*
X668878Y1386060D01*
X668574Y1383750D01*
Y1376250D01*
X668878Y1373940D01*
X669770Y1371787D01*
X671188Y1369938D01*
X673037Y1368519D01*
X675190Y1367628D01*
X677500Y1367324D01*
X679810Y1367628D01*
X681963Y1368519D01*
X683812Y1369938D01*
X685230Y1371787D01*
X686122Y1373940D01*
X686426Y1376250D01*
Y1383750D01*
X686122Y1386060D01*
X685230Y1388213D01*
X683812Y1390062D01*
X681963Y1391481D01*
X679810Y1392372D01*
X677500Y1392676D01*
D02*
G37*
G36*
X913887Y1378730D02*
X903770D01*
Y1365030D01*
X905447Y1365251D01*
X908194Y1366388D01*
X910552Y1368198D01*
X912362Y1370556D01*
X913499Y1373303D01*
X913887Y1376250D01*
Y1378730D01*
D02*
G37*
G36*
X777500Y1392676D02*
X775190Y1392372D01*
X773037Y1391481D01*
X771188Y1390062D01*
X769770Y1388213D01*
X768878Y1386060D01*
X768574Y1383750D01*
Y1376250D01*
X768878Y1373940D01*
X769770Y1371787D01*
X771188Y1369938D01*
X773037Y1368519D01*
X775190Y1367628D01*
X777500Y1367324D01*
X779810Y1367628D01*
X781963Y1368519D01*
X783812Y1369938D01*
X785230Y1371787D01*
X786122Y1373940D01*
X786426Y1376250D01*
Y1383750D01*
X786122Y1386060D01*
X785230Y1388213D01*
X783812Y1390062D01*
X781963Y1391481D01*
X779810Y1392372D01*
X777500Y1392676D01*
D02*
G37*
G36*
X701230Y1394970D02*
X699553Y1394749D01*
X696806Y1393612D01*
X694448Y1391802D01*
X692638Y1389444D01*
X691501Y1386697D01*
X691113Y1383750D01*
Y1381270D01*
X701230D01*
Y1394970D01*
D02*
G37*
G36*
X877500Y1392676D02*
X875190Y1392372D01*
X873037Y1391481D01*
X871188Y1390062D01*
X869770Y1388213D01*
X868878Y1386060D01*
X868574Y1383750D01*
Y1376250D01*
X868878Y1373940D01*
X869770Y1371787D01*
X871188Y1369938D01*
X873037Y1368519D01*
X875190Y1367628D01*
X877500Y1367324D01*
X879810Y1367628D01*
X881963Y1368519D01*
X883812Y1369938D01*
X885230Y1371787D01*
X886122Y1373940D01*
X886426Y1376250D01*
Y1383750D01*
X886122Y1386060D01*
X885230Y1388213D01*
X883812Y1390062D01*
X881963Y1391481D01*
X879810Y1392372D01*
X877500Y1392676D01*
D02*
G37*
G36*
X304300Y1320050D02*
X301272Y1319651D01*
X298450Y1318483D01*
X296027Y1316623D01*
X294167Y1314200D01*
X292999Y1311378D01*
X292600Y1308350D01*
X292999Y1305322D01*
X294167Y1302500D01*
X296027Y1300077D01*
X298450Y1298217D01*
X301272Y1297049D01*
X304300Y1296650D01*
X307328Y1297049D01*
X310150Y1298217D01*
X312573Y1300077D01*
X314433Y1302500D01*
X315601Y1305322D01*
X316000Y1308350D01*
X315601Y1311378D01*
X314433Y1314200D01*
X312573Y1316623D01*
X310150Y1318483D01*
X307328Y1319651D01*
X304300Y1320050D01*
D02*
G37*
G36*
X200000Y1288553D02*
X198110Y1288304D01*
X196349Y1287574D01*
X194836Y1286414D01*
X193676Y1284901D01*
X192946Y1283140D01*
X192698Y1281250D01*
X192946Y1279360D01*
X193676Y1277599D01*
X194836Y1276086D01*
X196349Y1274926D01*
X198110Y1274196D01*
X200000Y1273948D01*
X201890Y1274196D01*
X203651Y1274926D01*
X205164Y1276086D01*
X206324Y1277599D01*
X207054Y1279360D01*
X207302Y1281250D01*
X207054Y1283140D01*
X206324Y1284901D01*
X205164Y1286414D01*
X203651Y1287574D01*
X201890Y1288304D01*
X200000Y1288553D01*
D02*
G37*
G36*
X180000D02*
X178110Y1288304D01*
X176349Y1287574D01*
X174836Y1286414D01*
X173676Y1284901D01*
X172946Y1283140D01*
X172698Y1281250D01*
X172946Y1279360D01*
X173676Y1277599D01*
X174836Y1276086D01*
X176349Y1274926D01*
X178110Y1274196D01*
X180000Y1273948D01*
X181890Y1274196D01*
X183651Y1274926D01*
X185164Y1276086D01*
X186324Y1277599D01*
X187054Y1279360D01*
X187302Y1281250D01*
X187054Y1283140D01*
X186324Y1284901D01*
X185164Y1286414D01*
X183651Y1287574D01*
X181890Y1288304D01*
X180000Y1288553D01*
D02*
G37*
G36*
X360000D02*
X358110Y1288304D01*
X356349Y1287574D01*
X354836Y1286414D01*
X353676Y1284901D01*
X352946Y1283140D01*
X352697Y1281250D01*
X352946Y1279360D01*
X353676Y1277599D01*
X354836Y1276086D01*
X356349Y1274926D01*
X358110Y1274196D01*
X360000Y1273948D01*
X361890Y1274196D01*
X363651Y1274926D01*
X365164Y1276086D01*
X366324Y1277599D01*
X367054Y1279360D01*
X367303Y1281250D01*
X367054Y1283140D01*
X366324Y1284901D01*
X365164Y1286414D01*
X363651Y1287574D01*
X361890Y1288304D01*
X360000Y1288553D01*
D02*
G37*
G36*
X540000D02*
X538110Y1288304D01*
X536349Y1287574D01*
X534836Y1286414D01*
X533676Y1284901D01*
X532946Y1283140D01*
X532697Y1281250D01*
X532946Y1279360D01*
X533676Y1277599D01*
X534836Y1276086D01*
X536349Y1274926D01*
X538110Y1274196D01*
X540000Y1273948D01*
X541890Y1274196D01*
X543651Y1274926D01*
X545164Y1276086D01*
X546324Y1277599D01*
X547054Y1279360D01*
X547303Y1281250D01*
X547054Y1283140D01*
X546324Y1284901D01*
X545164Y1286414D01*
X543651Y1287574D01*
X541890Y1288304D01*
X540000Y1288553D01*
D02*
G37*
G36*
X380000D02*
X378110Y1288304D01*
X376349Y1287574D01*
X374836Y1286414D01*
X373676Y1284901D01*
X372946Y1283140D01*
X372697Y1281250D01*
X372946Y1279360D01*
X373676Y1277599D01*
X374836Y1276086D01*
X376349Y1274926D01*
X378110Y1274196D01*
X380000Y1273948D01*
X381890Y1274196D01*
X383651Y1274926D01*
X385164Y1276086D01*
X386324Y1277599D01*
X387054Y1279360D01*
X387303Y1281250D01*
X387054Y1283140D01*
X386324Y1284901D01*
X385164Y1286414D01*
X383651Y1287574D01*
X381890Y1288304D01*
X380000Y1288553D01*
D02*
G37*
G36*
X333730Y1279980D02*
X325404D01*
X325569Y1278723D01*
X326544Y1276368D01*
X328096Y1274346D01*
X330118Y1272795D01*
X332473Y1271819D01*
X333730Y1271654D01*
Y1279980D01*
D02*
G37*
G36*
X164596D02*
X156270D01*
Y1271654D01*
X157527Y1271819D01*
X159882Y1272795D01*
X161904Y1274346D01*
X163456Y1276368D01*
X164431Y1278723D01*
X164596Y1279980D01*
D02*
G37*
G36*
X344596D02*
X336270D01*
Y1271654D01*
X337527Y1271819D01*
X339882Y1272795D01*
X341904Y1274346D01*
X343455Y1276368D01*
X344431Y1278723D01*
X344596Y1279980D01*
D02*
G37*
G36*
X524596D02*
X516270D01*
Y1271654D01*
X517527Y1271819D01*
X519882Y1272795D01*
X521904Y1274346D01*
X523455Y1276368D01*
X524431Y1278723D01*
X524596Y1279980D01*
D02*
G37*
G36*
X513730D02*
X505404D01*
X505569Y1278723D01*
X506544Y1276368D01*
X508096Y1274346D01*
X510118Y1272795D01*
X512473Y1271819D01*
X513730Y1271654D01*
Y1279980D01*
D02*
G37*
G36*
Y1290846D02*
X512473Y1290681D01*
X510118Y1289706D01*
X508096Y1288154D01*
X506544Y1286132D01*
X505569Y1283777D01*
X505404Y1282520D01*
X513730D01*
Y1290846D01*
D02*
G37*
G36*
X336270D02*
Y1282520D01*
X344596D01*
X344431Y1283777D01*
X343455Y1286132D01*
X341904Y1288154D01*
X339882Y1289706D01*
X337527Y1290681D01*
X336270Y1290846D01*
D02*
G37*
G36*
X516270D02*
Y1282520D01*
X524596D01*
X524431Y1283777D01*
X523455Y1286132D01*
X521904Y1288154D01*
X519882Y1289706D01*
X517527Y1290681D01*
X516270Y1290846D01*
D02*
G37*
G36*
X255700Y1320050D02*
X252672Y1319651D01*
X249850Y1318483D01*
X247427Y1316623D01*
X245567Y1314200D01*
X244399Y1311378D01*
X244000Y1308350D01*
X244399Y1305322D01*
X245567Y1302500D01*
X247427Y1300077D01*
X249850Y1298217D01*
X252672Y1297049D01*
X255700Y1296650D01*
X258728Y1297049D01*
X261550Y1298217D01*
X263973Y1300077D01*
X265833Y1302500D01*
X267001Y1305322D01*
X267400Y1308350D01*
X267001Y1311378D01*
X265833Y1314200D01*
X263973Y1316623D01*
X261550Y1318483D01*
X258728Y1319651D01*
X255700Y1320050D01*
D02*
G37*
G36*
X124300D02*
X121272Y1319651D01*
X118450Y1318483D01*
X116027Y1316623D01*
X114167Y1314200D01*
X112999Y1311378D01*
X112600Y1308350D01*
X112999Y1305322D01*
X114167Y1302500D01*
X116027Y1300077D01*
X118450Y1298217D01*
X121272Y1297049D01*
X124300Y1296650D01*
X127328Y1297049D01*
X130150Y1298217D01*
X132573Y1300077D01*
X134433Y1302500D01*
X135601Y1305322D01*
X136000Y1308350D01*
X135601Y1311378D01*
X134433Y1314200D01*
X132573Y1316623D01*
X130150Y1318483D01*
X127328Y1319651D01*
X124300Y1320050D01*
D02*
G37*
G36*
X232240Y1288490D02*
X217760D01*
Y1274010D01*
X232240D01*
Y1288490D01*
D02*
G37*
G36*
X560000Y1288553D02*
X558110Y1288304D01*
X556349Y1287574D01*
X554836Y1286414D01*
X553676Y1284901D01*
X552946Y1283140D01*
X552697Y1281250D01*
X552946Y1279360D01*
X553676Y1277599D01*
X554836Y1276086D01*
X556349Y1274926D01*
X558110Y1274196D01*
X560000Y1273948D01*
X561890Y1274196D01*
X563651Y1274926D01*
X565164Y1276086D01*
X566324Y1277599D01*
X567054Y1279360D01*
X567303Y1281250D01*
X567054Y1283140D01*
X566324Y1284901D01*
X565164Y1286414D01*
X563651Y1287574D01*
X561890Y1288304D01*
X560000Y1288553D01*
D02*
G37*
G36*
X153730Y1290846D02*
X152473Y1290681D01*
X150118Y1289706D01*
X148096Y1288154D01*
X146545Y1286132D01*
X145569Y1283777D01*
X145404Y1282520D01*
X153730D01*
Y1290846D01*
D02*
G37*
G36*
X333730D02*
X332473Y1290681D01*
X330118Y1289706D01*
X328096Y1288154D01*
X326544Y1286132D01*
X325569Y1283777D01*
X325404Y1282520D01*
X333730D01*
Y1290846D01*
D02*
G37*
G36*
X156270D02*
Y1282520D01*
X164596D01*
X164431Y1283777D01*
X163456Y1286132D01*
X161904Y1288154D01*
X159882Y1289706D01*
X157527Y1290681D01*
X156270Y1290846D01*
D02*
G37*
G36*
X610108Y1017737D02*
X610108Y1017737D01*
X486254D01*
X486254Y1017737D01*
X485205Y1017303D01*
X477587Y1009684D01*
X475901Y1009794D01*
X475420Y1010420D01*
X473833Y1011639D01*
X471984Y1012404D01*
X470000Y1012666D01*
X468016Y1012404D01*
X466167Y1011639D01*
X464580Y1010420D01*
X463361Y1008833D01*
X462596Y1006984D01*
X462334Y1005000D01*
Y995000D01*
X462596Y993016D01*
X463361Y991167D01*
X464580Y989580D01*
X466167Y988361D01*
X468016Y987596D01*
X470000Y987334D01*
X471984Y987596D01*
X473833Y988361D01*
X475420Y989580D01*
X476639Y991167D01*
X477404Y993016D01*
X477666Y995000D01*
Y1005000D01*
X477599Y1005502D01*
X478819Y1006722D01*
X480022Y1006129D01*
X479873Y1005000D01*
Y1001270D01*
X500127D01*
Y1005000D01*
X499782Y1007621D01*
X498770Y1010063D01*
X497161Y1012161D01*
X495414Y1013501D01*
X495845Y1014771D01*
X609494D01*
X641571Y982693D01*
X641571Y982693D01*
X642620Y982259D01*
X772054D01*
X778916Y975397D01*
X778909Y975360D01*
X779072Y974541D01*
X779536Y973846D01*
X780231Y973382D01*
X781050Y973219D01*
X781869Y973382D01*
X782564Y973846D01*
X783028Y974541D01*
X783191Y975360D01*
X783028Y976179D01*
X782564Y976874D01*
X781869Y977338D01*
X781050Y977501D01*
X781013Y977494D01*
X773717Y984791D01*
X772668Y985225D01*
X772668Y985225D01*
X643234D01*
X611157Y1017303D01*
X610108Y1017737D01*
D02*
G37*
G36*
X320127Y918730D02*
X311270D01*
Y905041D01*
X312621Y905218D01*
X315063Y906230D01*
X317161Y907839D01*
X318770Y909937D01*
X319782Y912379D01*
X320127Y915000D01*
Y918730D01*
D02*
G37*
G36*
X308730D02*
X299873D01*
Y915000D01*
X300218Y912379D01*
X301230Y909937D01*
X302839Y907839D01*
X304937Y906230D01*
X307379Y905218D01*
X308730Y905041D01*
Y918730D01*
D02*
G37*
G36*
X428730D02*
X419873D01*
Y915000D01*
X420218Y912379D01*
X421230Y909937D01*
X422839Y907839D01*
X424937Y906230D01*
X427379Y905218D01*
X428730Y905041D01*
Y918730D01*
D02*
G37*
G36*
X548730D02*
X539873D01*
Y915000D01*
X540219Y912379D01*
X541230Y909937D01*
X542839Y907839D01*
X544937Y906230D01*
X547379Y905218D01*
X548730Y905041D01*
Y918730D01*
D02*
G37*
G36*
X440127D02*
X431270D01*
Y905041D01*
X432621Y905218D01*
X435063Y906230D01*
X437161Y907839D01*
X438770Y909937D01*
X439782Y912379D01*
X440127Y915000D01*
Y918730D01*
D02*
G37*
G36*
X83730Y908114D02*
X81000D01*
X78771Y907820D01*
X76693Y906960D01*
X74909Y905591D01*
X73540Y903807D01*
X72680Y901729D01*
X72554Y900770D01*
X83730D01*
Y908114D01*
D02*
G37*
G36*
X942950Y912770D02*
X940835Y912492D01*
X938865Y911675D01*
X937173Y910377D01*
X935875Y908685D01*
X935059Y906715D01*
X934780Y904600D01*
X935059Y902486D01*
X935875Y900515D01*
X937173Y898823D01*
X938865Y897525D01*
X940835Y896709D01*
X942950Y896430D01*
X945065Y896709D01*
X947035Y897525D01*
X948727Y898823D01*
X950025Y900515D01*
X950842Y902486D01*
X951120Y904600D01*
X950842Y906715D01*
X950025Y908685D01*
X948727Y910377D01*
X947035Y911675D01*
X945065Y912492D01*
X942950Y912770D01*
D02*
G37*
G36*
X89000Y908114D02*
X86270D01*
Y900770D01*
X97446D01*
X97320Y901729D01*
X96460Y903807D01*
X95091Y905591D01*
X93307Y906960D01*
X91229Y907820D01*
X89000Y908114D01*
D02*
G37*
G36*
X197005Y918464D02*
X188148D01*
Y904775D01*
X189499Y904952D01*
X191941Y905964D01*
X194039Y907573D01*
X195648Y909671D01*
X196660Y912113D01*
X197005Y914734D01*
Y918464D01*
D02*
G37*
G36*
X185608D02*
X176751D01*
Y914734D01*
X177096Y912113D01*
X178108Y909671D01*
X179717Y907573D01*
X181815Y905964D01*
X184257Y904952D01*
X185608Y904775D01*
Y918464D01*
D02*
G37*
G36*
X718877Y924480D02*
X710020D01*
Y910791D01*
X711371Y910968D01*
X713813Y911980D01*
X715911Y913589D01*
X717520Y915687D01*
X718532Y918129D01*
X718877Y920750D01*
Y924480D01*
D02*
G37*
G36*
X510000Y932666D02*
X508016Y932404D01*
X506167Y931639D01*
X504580Y930420D01*
X503361Y928833D01*
X502596Y926984D01*
X502334Y925000D01*
Y915000D01*
X502596Y913016D01*
X503361Y911167D01*
X504580Y909580D01*
X506167Y908361D01*
X508016Y907596D01*
X510000Y907334D01*
X511984Y907596D01*
X513833Y908361D01*
X515420Y909580D01*
X516639Y911167D01*
X517404Y913016D01*
X517666Y915000D01*
Y925000D01*
X517404Y926984D01*
X516639Y928833D01*
X515420Y930420D01*
X513833Y931639D01*
X511984Y932404D01*
X510000Y932666D01*
D02*
G37*
G36*
X83730Y918230D02*
X72554D01*
X72680Y917271D01*
X73540Y915193D01*
X74909Y913409D01*
X76693Y912040D01*
X78771Y911180D01*
X81000Y910886D01*
X83730D01*
Y918230D01*
D02*
G37*
G36*
X668750Y938416D02*
X666766Y938154D01*
X664917Y937389D01*
X663330Y936170D01*
X662111Y934583D01*
X661346Y932734D01*
X661084Y930750D01*
Y920750D01*
X661346Y918766D01*
X662111Y916917D01*
X663330Y915330D01*
X664917Y914111D01*
X666766Y913346D01*
X668750Y913084D01*
X670734Y913346D01*
X672583Y914111D01*
X674170Y915330D01*
X675389Y916917D01*
X676154Y918766D01*
X676416Y920750D01*
Y930750D01*
X676154Y932734D01*
X675389Y934583D01*
X674170Y936170D01*
X672583Y937389D01*
X670734Y938154D01*
X668750Y938416D01*
D02*
G37*
G36*
X97446Y918230D02*
X86270D01*
Y910886D01*
X89000D01*
X91229Y911180D01*
X93307Y912040D01*
X95091Y913409D01*
X96460Y915193D01*
X97320Y917271D01*
X97446Y918230D01*
D02*
G37*
G36*
X916280Y915064D02*
X914799Y914869D01*
X912234Y913807D01*
X910033Y912117D01*
X908343Y909915D01*
X907281Y907352D01*
X907086Y905870D01*
X916280D01*
Y915064D01*
D02*
G37*
G36*
X560127Y918730D02*
X551270D01*
Y905041D01*
X552621Y905218D01*
X555063Y906230D01*
X557161Y907839D01*
X558770Y909937D01*
X559782Y912379D01*
X560127Y915000D01*
Y918730D01*
D02*
G37*
G36*
X146878Y932400D02*
X144894Y932138D01*
X143045Y931373D01*
X141458Y930154D01*
X140239Y928567D01*
X139474Y926718D01*
X139212Y924734D01*
Y914734D01*
X139474Y912750D01*
X140239Y910901D01*
X141458Y909314D01*
X143045Y908095D01*
X144894Y907330D01*
X146878Y907068D01*
X148862Y907330D01*
X150711Y908095D01*
X152298Y909314D01*
X153517Y910901D01*
X154282Y912750D01*
X154544Y914734D01*
Y924734D01*
X154282Y926718D01*
X153517Y928567D01*
X152298Y930154D01*
X150711Y931373D01*
X148862Y932138D01*
X146878Y932400D01*
D02*
G37*
G36*
X390000Y932666D02*
X388016Y932404D01*
X386167Y931639D01*
X384580Y930420D01*
X383361Y928833D01*
X382596Y926984D01*
X382334Y925000D01*
Y915000D01*
X382596Y913016D01*
X383361Y911167D01*
X384580Y909580D01*
X386167Y908361D01*
X388016Y907596D01*
X390000Y907334D01*
X391984Y907596D01*
X393833Y908361D01*
X395420Y909580D01*
X396639Y911167D01*
X397404Y913016D01*
X397665Y915000D01*
Y925000D01*
X397404Y926984D01*
X396639Y928833D01*
X395420Y930420D01*
X393833Y931639D01*
X391984Y932404D01*
X390000Y932666D01*
D02*
G37*
G36*
X270000D02*
X268016Y932404D01*
X266167Y931639D01*
X264580Y930420D01*
X263361Y928833D01*
X262596Y926984D01*
X262334Y925000D01*
Y915000D01*
X262596Y913016D01*
X263361Y911167D01*
X264580Y909580D01*
X266167Y908361D01*
X268016Y907596D01*
X270000Y907334D01*
X271984Y907596D01*
X273833Y908361D01*
X275420Y909580D01*
X276639Y911167D01*
X277404Y913016D01*
X277666Y915000D01*
Y925000D01*
X277404Y926984D01*
X276639Y928833D01*
X275420Y930420D01*
X273833Y931639D01*
X271984Y932404D01*
X270000Y932666D01*
D02*
G37*
G36*
X916280Y903330D02*
X907086D01*
X907281Y901849D01*
X908343Y899285D01*
X910033Y897083D01*
X912234Y895393D01*
X914799Y894331D01*
X916280Y894136D01*
Y903330D01*
D02*
G37*
G36*
X158730Y838887D02*
X156250D01*
X153303Y838499D01*
X150556Y837362D01*
X148198Y835552D01*
X146388Y833194D01*
X145251Y830447D01*
X145030Y828770D01*
X158730D01*
Y838887D01*
D02*
G37*
G36*
X880250Y1130187D02*
X877613Y1129840D01*
X875156Y1128822D01*
X873047Y1127203D01*
X871428Y1125094D01*
X870410Y1122637D01*
X870063Y1120000D01*
Y1030000D01*
Y847422D01*
X869244Y846354D01*
X867974Y843289D01*
X867541Y840000D01*
X867974Y836711D01*
X869244Y833646D01*
X871264Y831014D01*
X873896Y828994D01*
X876961Y827724D01*
X880250Y827291D01*
X883539Y827724D01*
X886604Y828994D01*
X889237Y831014D01*
X891256Y833646D01*
X892526Y836711D01*
X892959Y840000D01*
X892526Y843289D01*
X891256Y846354D01*
X890437Y847422D01*
Y1030000D01*
Y1120000D01*
X890090Y1122637D01*
X889072Y1125094D01*
X887453Y1127203D01*
X885344Y1128822D01*
X882887Y1129840D01*
X880250Y1130187D01*
D02*
G37*
G36*
X163750Y838887D02*
X161270D01*
Y828770D01*
X174970D01*
X174749Y830447D01*
X173612Y833194D01*
X171802Y835552D01*
X169444Y837362D01*
X166697Y838499D01*
X163750Y838887D01*
D02*
G37*
G36*
X271156Y840721D02*
Y831270D01*
X280607D01*
X280403Y832818D01*
X279315Y835444D01*
X277585Y837699D01*
X275330Y839429D01*
X272704Y840517D01*
X271156Y840721D01*
D02*
G37*
G36*
X268616D02*
X267068Y840517D01*
X264442Y839429D01*
X262187Y837699D01*
X260457Y835444D01*
X259369Y832818D01*
X259165Y831270D01*
X268616D01*
Y840721D01*
D02*
G37*
G36*
X394854Y838427D02*
X392673Y838140D01*
X390640Y837298D01*
X388895Y835959D01*
X387556Y834213D01*
X386714Y832181D01*
X386427Y830000D01*
X386714Y827819D01*
X387556Y825787D01*
X388895Y824041D01*
X390640Y822702D01*
X392673Y821860D01*
X394854Y821573D01*
X397035Y821860D01*
X399068Y822702D01*
X400813Y824041D01*
X402152Y825787D01*
X402994Y827819D01*
X403281Y830000D01*
X402994Y832181D01*
X402152Y834213D01*
X400813Y835959D01*
X399068Y837298D01*
X397035Y838140D01*
X394854Y838427D01*
D02*
G37*
G36*
X369962D02*
X367781Y838140D01*
X365748Y837298D01*
X364003Y835959D01*
X362664Y834213D01*
X361822Y832181D01*
X361535Y830000D01*
X361822Y827819D01*
X362664Y825787D01*
X364003Y824041D01*
X365748Y822702D01*
X367781Y821860D01*
X369962Y821573D01*
X372143Y821860D01*
X374176Y822702D01*
X375921Y824041D01*
X377260Y825787D01*
X378102Y827819D01*
X378389Y830000D01*
X378102Y832181D01*
X377260Y834213D01*
X375921Y835959D01*
X374176Y837298D01*
X372143Y838140D01*
X369962Y838427D01*
D02*
G37*
G36*
X428355Y838355D02*
X411645D01*
Y821645D01*
X428355D01*
Y838355D01*
D02*
G37*
G36*
X90000Y841166D02*
X88016Y840904D01*
X86167Y840139D01*
X84580Y838920D01*
X83361Y837333D01*
X82596Y835484D01*
X82334Y833500D01*
X82596Y831516D01*
X83361Y829667D01*
X84580Y828080D01*
X86167Y826861D01*
X88016Y826096D01*
X90000Y825834D01*
X91984Y826096D01*
X93833Y826861D01*
X95420Y828080D01*
X96639Y829667D01*
X97404Y831516D01*
X97666Y833500D01*
X97404Y835484D01*
X96639Y837333D01*
X95420Y838920D01*
X93833Y840139D01*
X91984Y840904D01*
X90000Y841166D01*
D02*
G37*
G36*
X70000D02*
X68016Y840904D01*
X66167Y840139D01*
X64580Y838920D01*
X63361Y837333D01*
X62596Y835484D01*
X62334Y833500D01*
X62596Y831516D01*
X63361Y829667D01*
X64580Y828080D01*
X66167Y826861D01*
X68016Y826096D01*
X70000Y825834D01*
X71984Y826096D01*
X73833Y826861D01*
X75420Y828080D01*
X76639Y829667D01*
X77404Y831516D01*
X77666Y833500D01*
X77404Y835484D01*
X76639Y837333D01*
X75420Y838920D01*
X73833Y840139D01*
X71984Y840904D01*
X70000Y841166D01*
D02*
G37*
G36*
X917550Y887370D02*
X915435Y887092D01*
X913465Y886275D01*
X911773Y884977D01*
X910475Y883285D01*
X909659Y881315D01*
X909380Y879200D01*
X909659Y877085D01*
X910475Y875115D01*
X911773Y873423D01*
X913465Y872125D01*
X915435Y871309D01*
X917550Y871030D01*
X919665Y871309D01*
X921635Y872125D01*
X923327Y873423D01*
X924625Y875115D01*
X925442Y877085D01*
X925720Y879200D01*
X925442Y881315D01*
X924625Y883285D01*
X923327Y884977D01*
X921635Y886275D01*
X919665Y887092D01*
X917550Y887370D01*
D02*
G37*
G36*
X916280Y864264D02*
X914799Y864069D01*
X912234Y863007D01*
X910033Y861317D01*
X908343Y859116D01*
X907281Y856552D01*
X907086Y855070D01*
X916280D01*
Y864264D01*
D02*
G37*
G36*
X942950Y887370D02*
X940835Y887092D01*
X938865Y886275D01*
X937173Y884977D01*
X935875Y883285D01*
X935059Y881315D01*
X934780Y879200D01*
X935059Y877085D01*
X935875Y875115D01*
X937173Y873423D01*
X938865Y872125D01*
X940835Y871309D01*
X942950Y871030D01*
X945065Y871309D01*
X947035Y872125D01*
X948727Y873423D01*
X950025Y875115D01*
X950842Y877085D01*
X951120Y879200D01*
X950842Y881315D01*
X950025Y883285D01*
X948727Y884977D01*
X947035Y886275D01*
X945065Y887092D01*
X942950Y887370D01*
D02*
G37*
G36*
X97446Y898230D02*
X86270D01*
Y890886D01*
X89000D01*
X91229Y891180D01*
X93307Y892040D01*
X95091Y893409D01*
X96460Y895193D01*
X97320Y897271D01*
X97446Y898230D01*
D02*
G37*
G36*
X83730D02*
X72554D01*
X72680Y897271D01*
X73540Y895193D01*
X74909Y893409D01*
X76693Y892040D01*
X78771Y891180D01*
X81000Y890886D01*
X83730D01*
Y898230D01*
D02*
G37*
G36*
X668750Y864666D02*
X666766Y864404D01*
X664917Y863639D01*
X663330Y862420D01*
X662111Y860833D01*
X661346Y858984D01*
X661084Y857000D01*
Y847000D01*
X661346Y845016D01*
X662111Y843167D01*
X663330Y841580D01*
X664917Y840361D01*
X666766Y839596D01*
X668750Y839334D01*
X670734Y839596D01*
X672583Y840361D01*
X674170Y841580D01*
X675389Y843167D01*
X676154Y845016D01*
X676416Y847000D01*
Y857000D01*
X676154Y858984D01*
X675389Y860833D01*
X674170Y862420D01*
X672583Y863639D01*
X670734Y864404D01*
X668750Y864666D01*
D02*
G37*
G36*
X718877Y850730D02*
X710020D01*
Y837041D01*
X711371Y837218D01*
X713813Y838230D01*
X715911Y839839D01*
X717520Y841937D01*
X718532Y844379D01*
X718877Y847000D01*
Y850730D01*
D02*
G37*
G36*
X916280Y852530D02*
X907086D01*
X907281Y851049D01*
X908343Y848485D01*
X910033Y846283D01*
X912234Y844593D01*
X914799Y843531D01*
X916280Y843336D01*
Y852530D01*
D02*
G37*
G36*
X710020Y866959D02*
Y853270D01*
X718877D01*
Y857000D01*
X718532Y859621D01*
X717520Y862063D01*
X715911Y864161D01*
X713813Y865770D01*
X711371Y866782D01*
X710020Y866959D01*
D02*
G37*
G36*
X942950Y861970D02*
X940835Y861692D01*
X938865Y860875D01*
X937173Y859577D01*
X935875Y857885D01*
X935059Y855915D01*
X934780Y853800D01*
X935059Y851685D01*
X935875Y849715D01*
X937173Y848023D01*
X938865Y846725D01*
X940835Y845909D01*
X942950Y845630D01*
X945065Y845909D01*
X947035Y846725D01*
X948727Y848023D01*
X950025Y849715D01*
X950842Y851685D01*
X951120Y853800D01*
X950842Y855915D01*
X950025Y857885D01*
X948727Y859577D01*
X947035Y860875D01*
X945065Y861692D01*
X942950Y861970D01*
D02*
G37*
G36*
X83730Y928114D02*
X81000D01*
X78771Y927820D01*
X76693Y926960D01*
X74909Y925591D01*
X73540Y923807D01*
X72680Y921729D01*
X72554Y920770D01*
X83730D01*
Y928114D01*
D02*
G37*
G36*
X488730Y998730D02*
X479873D01*
Y995000D01*
X480218Y992379D01*
X481230Y989937D01*
X482839Y987839D01*
X484937Y986230D01*
X487379Y985218D01*
X488730Y985041D01*
Y998730D01*
D02*
G37*
G36*
X380127D02*
X371270D01*
Y985041D01*
X372621Y985218D01*
X375063Y986230D01*
X377161Y987839D01*
X378770Y989937D01*
X379782Y992379D01*
X380127Y995000D01*
Y998730D01*
D02*
G37*
G36*
X500127D02*
X491270D01*
Y985041D01*
X492621Y985218D01*
X495063Y986230D01*
X497161Y987839D01*
X498770Y989937D01*
X499782Y992379D01*
X500127Y995000D01*
Y998730D01*
D02*
G37*
G36*
X260000Y1012666D02*
X258016Y1012404D01*
X256167Y1011639D01*
X254580Y1010420D01*
X253361Y1008833D01*
X252596Y1006984D01*
X252334Y1005000D01*
Y995000D01*
X252596Y993016D01*
X253361Y991167D01*
X254580Y989580D01*
X256167Y988361D01*
X258016Y987596D01*
X260000Y987334D01*
X261984Y987596D01*
X263833Y988361D01*
X265420Y989580D01*
X266639Y991167D01*
X267404Y993016D01*
X267666Y995000D01*
Y1005000D01*
X267404Y1006984D01*
X266639Y1008833D01*
X265420Y1010420D01*
X263833Y1011639D01*
X261984Y1012404D01*
X260000Y1012666D01*
D02*
G37*
G36*
X170000D02*
X168016Y1012404D01*
X166167Y1011639D01*
X164580Y1010420D01*
X163361Y1008833D01*
X162596Y1006984D01*
X162334Y1005000D01*
Y995000D01*
X162596Y993016D01*
X163361Y991167D01*
X164580Y989580D01*
X166167Y988361D01*
X168016Y987596D01*
X170000Y987334D01*
X171984Y987596D01*
X173833Y988361D01*
X175420Y989580D01*
X176639Y991167D01*
X177404Y993016D01*
X177666Y995000D01*
Y1005000D01*
X177404Y1006984D01*
X176639Y1008833D01*
X175420Y1010420D01*
X173833Y1011639D01*
X171984Y1012404D01*
X170000Y1012666D01*
D02*
G37*
G36*
X330000D02*
X328016Y1012404D01*
X326167Y1011639D01*
X324580Y1010420D01*
X323361Y1008833D01*
X322596Y1006984D01*
X322334Y1005000D01*
Y995000D01*
X322596Y993016D01*
X323361Y991167D01*
X324580Y989580D01*
X324800Y989410D01*
Y976250D01*
X324800Y976250D01*
X325196Y974260D01*
X326323Y972573D01*
X338523Y960373D01*
X338037Y959200D01*
X275115D01*
X245925Y988390D01*
X245420Y989580D01*
X246639Y991167D01*
X247404Y993016D01*
X247666Y995000D01*
Y1005000D01*
X247404Y1006984D01*
X246639Y1008833D01*
X245420Y1010420D01*
X243833Y1011639D01*
X241984Y1012404D01*
X240000Y1012666D01*
X238016Y1012404D01*
X236167Y1011639D01*
X234580Y1010420D01*
X233361Y1008833D01*
X232596Y1006984D01*
X232334Y1005000D01*
Y995000D01*
X232596Y993016D01*
X233361Y991167D01*
X234580Y989580D01*
X234800Y989410D01*
Y986961D01*
X234800Y986961D01*
X235196Y984971D01*
X236323Y983284D01*
X259234Y960373D01*
X258748Y959200D01*
X183654D01*
X155200Y987654D01*
Y989410D01*
X155420Y989580D01*
X156639Y991167D01*
X157404Y993016D01*
X157666Y995000D01*
Y1005000D01*
X157404Y1006984D01*
X156639Y1008833D01*
X155420Y1010420D01*
X153833Y1011639D01*
X151984Y1012404D01*
X150000Y1012666D01*
X148016Y1012404D01*
X146167Y1011639D01*
X144580Y1010420D01*
X143361Y1008833D01*
X142596Y1006984D01*
X142334Y1005000D01*
Y995000D01*
X142596Y993016D01*
X143361Y991167D01*
X144580Y989580D01*
X144800Y989410D01*
Y985500D01*
X144800Y985500D01*
X145196Y983510D01*
X146323Y981823D01*
X174146Y954000D01*
X163201Y943055D01*
X162074Y941368D01*
X161678Y939378D01*
X161678Y939378D01*
Y930324D01*
X161458Y930154D01*
X160239Y928567D01*
X159474Y926718D01*
X159212Y924734D01*
Y914734D01*
X159474Y912750D01*
X160239Y910901D01*
X161458Y909314D01*
X163045Y908095D01*
X164894Y907330D01*
X166878Y907068D01*
X168862Y907330D01*
X170711Y908095D01*
X172298Y909314D01*
X173517Y910901D01*
X174282Y912750D01*
X174544Y914734D01*
Y924734D01*
X174282Y926718D01*
X173517Y928567D01*
X172298Y930154D01*
X172078Y930324D01*
Y937224D01*
X183654Y948800D01*
X270807D01*
X284800Y934807D01*
Y930590D01*
X284580Y930420D01*
X283361Y928833D01*
X282596Y926984D01*
X282334Y925000D01*
Y915000D01*
X282596Y913016D01*
X283361Y911167D01*
X284580Y909580D01*
X284800Y909410D01*
Y834778D01*
X284800Y834778D01*
X285196Y832788D01*
X286323Y831101D01*
X286476Y830948D01*
X286351Y830000D01*
X286638Y827819D01*
X287480Y825787D01*
X288819Y824041D01*
X289578Y823459D01*
Y802682D01*
X259073Y772177D01*
X259073Y772177D01*
X246323Y759427D01*
X245196Y757740D01*
X244800Y755750D01*
X244800Y755750D01*
Y744213D01*
X243627Y743727D01*
X231177Y756177D01*
X229490Y757304D01*
X227500Y757700D01*
X227500Y757700D01*
X170915D01*
X170062Y758812D01*
X168213Y760230D01*
X166060Y761122D01*
X163750Y761426D01*
X156250D01*
X153940Y761122D01*
X151787Y760230D01*
X149938Y758812D01*
X148519Y756963D01*
X147628Y754810D01*
X147324Y752500D01*
X147628Y750190D01*
X148519Y748037D01*
X149938Y746188D01*
X151787Y744770D01*
X153940Y743878D01*
X156250Y743574D01*
X163750D01*
X166060Y743878D01*
X168213Y744770D01*
X170062Y746188D01*
X170915Y747300D01*
X225346D01*
X242334Y730312D01*
Y725000D01*
X242596Y723016D01*
X243361Y721167D01*
X244580Y719580D01*
X244800Y719410D01*
Y714750D01*
X244800Y714750D01*
X245196Y712760D01*
X246323Y711073D01*
X306259Y651138D01*
X306188Y650062D01*
X304769Y648213D01*
X303878Y646060D01*
X303574Y643750D01*
Y636250D01*
X303878Y633940D01*
X304769Y631787D01*
X306188Y629938D01*
X307300Y629085D01*
Y577700D01*
X170915D01*
X170062Y578812D01*
X168213Y580230D01*
X166060Y581122D01*
X163750Y581426D01*
X156250D01*
X153940Y581122D01*
X151787Y580230D01*
X149938Y578812D01*
X148519Y576963D01*
X147628Y574810D01*
X147324Y572500D01*
X147628Y570190D01*
X148519Y568037D01*
X149938Y566188D01*
X151787Y564770D01*
X153940Y563878D01*
X156250Y563574D01*
X163750D01*
X166060Y563878D01*
X168213Y564770D01*
X170062Y566188D01*
X170915Y567300D01*
X307300D01*
Y540915D01*
X306188Y540062D01*
X304769Y538213D01*
X303878Y536060D01*
X303574Y533750D01*
Y526250D01*
X303878Y523940D01*
X304769Y521787D01*
X306188Y519938D01*
X307300Y519085D01*
Y447500D01*
X307300Y447500D01*
X307696Y445510D01*
X308823Y443823D01*
X312334Y440312D01*
Y435000D01*
X312596Y433016D01*
X313361Y431167D01*
X314580Y429580D01*
X314800Y429410D01*
Y417654D01*
X280635Y383489D01*
X279365D01*
X266677Y396177D01*
X264990Y397304D01*
X263000Y397700D01*
X263000Y397700D01*
X170915D01*
X170062Y398812D01*
X168213Y400230D01*
X166060Y401122D01*
X163750Y401426D01*
X156250D01*
X153940Y401122D01*
X151787Y400230D01*
X149938Y398812D01*
X148519Y396963D01*
X147628Y394810D01*
X147324Y392500D01*
X147628Y390190D01*
X148519Y388037D01*
X149938Y386188D01*
X151787Y384770D01*
X153940Y383878D01*
X156250Y383574D01*
X163750D01*
X166060Y383878D01*
X168213Y384770D01*
X170062Y386188D01*
X170915Y387300D01*
X260846D01*
X274800Y373346D01*
Y360590D01*
X274580Y360420D01*
X273361Y358833D01*
X272596Y356984D01*
X272334Y355000D01*
Y345000D01*
X272596Y343016D01*
X273361Y341167D01*
X274580Y339580D01*
X274800Y339410D01*
Y250590D01*
X274580Y250420D01*
X273361Y248833D01*
X272596Y246984D01*
X272334Y245000D01*
Y235000D01*
X272596Y233016D01*
X273361Y231167D01*
X274580Y229580D01*
X274800Y229410D01*
Y220154D01*
X272346Y217700D01*
X170915D01*
X170062Y218812D01*
X168213Y220231D01*
X166060Y221122D01*
X163750Y221426D01*
X156250D01*
X153940Y221122D01*
X151787Y220231D01*
X149938Y218812D01*
X148519Y216963D01*
X147628Y214810D01*
X147324Y212500D01*
X147628Y210190D01*
X148519Y208037D01*
X149938Y206188D01*
X151787Y204769D01*
X153940Y203878D01*
X156250Y203574D01*
X163750D01*
X166060Y203878D01*
X168213Y204769D01*
X170062Y206188D01*
X170915Y207300D01*
X274500D01*
X274500Y207300D01*
X276490Y207696D01*
X278177Y208823D01*
X283677Y214323D01*
X283677Y214323D01*
X284240Y215167D01*
X284804Y216010D01*
X285200Y218000D01*
X285200Y218000D01*
Y229410D01*
X285420Y229580D01*
X286639Y231167D01*
X287404Y233016D01*
X287666Y235000D01*
Y245000D01*
X287404Y246984D01*
X286639Y248833D01*
X285420Y250420D01*
X285200Y250590D01*
Y339410D01*
X285420Y339580D01*
X286639Y341167D01*
X287404Y343016D01*
X287666Y345000D01*
Y355000D01*
X287404Y356984D01*
X286639Y358833D01*
X285420Y360420D01*
X285200Y360590D01*
Y370300D01*
X415596D01*
X424242Y361655D01*
X424580Y360420D01*
X423361Y358833D01*
X422596Y356984D01*
X422334Y355000D01*
Y345000D01*
X422596Y343016D01*
X423361Y341167D01*
X424580Y339580D01*
X424800Y339410D01*
Y250590D01*
X424580Y250420D01*
X423361Y248833D01*
X422596Y246984D01*
X422334Y245000D01*
Y235000D01*
X422596Y233016D01*
X423361Y231167D01*
X424580Y229580D01*
X426167Y228361D01*
X428016Y227596D01*
X430000Y227334D01*
X431984Y227596D01*
X433833Y228361D01*
X435420Y229580D01*
X436639Y231167D01*
X437404Y233016D01*
X437666Y235000D01*
Y245000D01*
X437404Y246984D01*
X436639Y248833D01*
X435420Y250420D01*
X435200Y250590D01*
Y339410D01*
X435420Y339580D01*
X436639Y341167D01*
X437404Y343016D01*
X437666Y345000D01*
Y355000D01*
X437404Y356984D01*
X436639Y358833D01*
X435420Y360420D01*
X435200Y360590D01*
Y363250D01*
X435200Y363250D01*
X434804Y365240D01*
X434240Y366083D01*
X433677Y366927D01*
X433677Y366927D01*
X421427Y379177D01*
X419740Y380304D01*
X417750Y380700D01*
X417750Y380700D01*
X294213D01*
X293727Y381873D01*
X323677Y411823D01*
X323677Y411823D01*
X324240Y412667D01*
X324804Y413510D01*
X325200Y415500D01*
X325200Y415500D01*
Y429410D01*
X325420Y429580D01*
X326639Y431167D01*
X327404Y433016D01*
X327666Y435000D01*
Y445000D01*
X327404Y446984D01*
X326639Y448833D01*
X325420Y450420D01*
X323833Y451639D01*
X321984Y452404D01*
X320000Y452666D01*
X318970Y452530D01*
X317700Y453577D01*
Y519085D01*
X318812Y519938D01*
X320230Y521787D01*
X321122Y523940D01*
X321426Y526250D01*
Y533750D01*
X321122Y536060D01*
X320230Y538213D01*
X318812Y540062D01*
X317700Y540915D01*
Y629085D01*
X318812Y629938D01*
X320230Y631787D01*
X321122Y633940D01*
X321426Y636250D01*
Y643750D01*
X321122Y646060D01*
X320230Y648213D01*
X318812Y650062D01*
X317700Y650915D01*
Y652250D01*
X317700Y652250D01*
X317304Y654240D01*
X316740Y655083D01*
X316177Y655927D01*
X316177Y655927D01*
X255200Y716904D01*
Y719410D01*
X255420Y719580D01*
X256639Y721167D01*
X257404Y723016D01*
X257666Y725000D01*
Y735000D01*
X257404Y736984D01*
X256639Y738833D01*
X255420Y740420D01*
X255200Y740590D01*
Y753596D01*
X264904Y763300D01*
X339346D01*
X372334Y730312D01*
Y725000D01*
X372596Y723016D01*
X373361Y721167D01*
X374580Y719580D01*
X376167Y718361D01*
X378016Y717596D01*
X380000Y717334D01*
X381984Y717596D01*
X383833Y718361D01*
X385420Y719580D01*
X386638Y721167D01*
X387404Y723016D01*
X387665Y725000D01*
Y735000D01*
X387404Y736984D01*
X386638Y738833D01*
X385420Y740420D01*
X383833Y741639D01*
X381984Y742404D01*
X380000Y742666D01*
X378016Y742404D01*
X376167Y741639D01*
X375911Y741442D01*
X345177Y772177D01*
X343490Y773304D01*
X341500Y773700D01*
X341500Y773700D01*
X276963D01*
X276477Y774873D01*
X298455Y796851D01*
X298455Y796851D01*
X299018Y797695D01*
X299582Y798538D01*
X299978Y800528D01*
X299978Y800528D01*
Y823459D01*
X300737Y824041D01*
X302076Y825787D01*
X302918Y827819D01*
X303205Y830000D01*
X302918Y832181D01*
X302076Y834213D01*
X300737Y835959D01*
X298992Y837298D01*
X296959Y838140D01*
X295200Y838372D01*
Y909410D01*
X295420Y909580D01*
X296639Y911167D01*
X297404Y913016D01*
X297666Y915000D01*
Y925000D01*
X297404Y926984D01*
X296639Y928833D01*
X295420Y930420D01*
X295200Y930590D01*
Y936961D01*
X294804Y938951D01*
X294353Y939627D01*
X293677Y940638D01*
X293677Y940638D01*
X286688Y947627D01*
X287174Y948800D01*
X380846D01*
X391073Y938573D01*
X391073Y938573D01*
X402615Y927031D01*
X402596Y926984D01*
X402334Y925000D01*
Y915000D01*
X402596Y913016D01*
X403361Y911167D01*
X404580Y909580D01*
X406167Y908361D01*
X408016Y907596D01*
X410000Y907334D01*
X411984Y907596D01*
X413833Y908361D01*
X415420Y909580D01*
X416639Y911167D01*
X417404Y913016D01*
X417666Y915000D01*
Y925000D01*
X417404Y926984D01*
X416639Y928833D01*
X415420Y930420D01*
X413833Y931639D01*
X411984Y932404D01*
X411944Y932410D01*
X408477Y935877D01*
X408963Y937050D01*
X523596D01*
X524800Y935846D01*
Y930590D01*
X524580Y930420D01*
X523361Y928833D01*
X522596Y926984D01*
X522334Y925000D01*
Y915000D01*
X522596Y913016D01*
X523361Y911167D01*
X524580Y909580D01*
X526167Y908361D01*
X528016Y907596D01*
X530000Y907334D01*
X531984Y907596D01*
X533833Y908361D01*
X535420Y909580D01*
X536639Y911167D01*
X537404Y913016D01*
X537666Y915000D01*
Y925000D01*
X537404Y926984D01*
X536639Y928833D01*
X535420Y930420D01*
X535200Y930590D01*
Y938000D01*
X534804Y939990D01*
X533677Y941677D01*
X533677Y941677D01*
X529427Y945927D01*
X527740Y947054D01*
X525750Y947450D01*
X525750Y947450D01*
X396904D01*
X386677Y957677D01*
X384990Y958804D01*
X383000Y959200D01*
X383000Y959200D01*
X354404D01*
X335200Y978404D01*
Y989410D01*
X335420Y989580D01*
X336639Y991167D01*
X337404Y993016D01*
X337666Y995000D01*
Y1005000D01*
X337404Y1006984D01*
X336639Y1008833D01*
X335420Y1010420D01*
X333833Y1011639D01*
X331984Y1012404D01*
X330000Y1012666D01*
D02*
G37*
G36*
X916280Y965864D02*
X914799Y965669D01*
X912234Y964607D01*
X910033Y962917D01*
X908343Y960715D01*
X907281Y958151D01*
X907086Y956670D01*
X916280D01*
Y965864D01*
D02*
G37*
G36*
X917550Y988970D02*
X915435Y988691D01*
X913465Y987875D01*
X911773Y986577D01*
X910475Y984885D01*
X909659Y982915D01*
X909380Y980800D01*
X909659Y978686D01*
X910475Y976715D01*
X911773Y975023D01*
X913465Y973725D01*
X915435Y972908D01*
X917550Y972630D01*
X919665Y972908D01*
X921635Y973725D01*
X922140Y974113D01*
X928517Y967736D01*
Y959784D01*
X927247Y959532D01*
X926757Y960715D01*
X925067Y962917D01*
X922866Y964607D01*
X920302Y965669D01*
X918820Y965864D01*
Y955400D01*
Y944936D01*
X920302Y945131D01*
X922866Y946193D01*
X925067Y947883D01*
X926757Y950085D01*
X927247Y951268D01*
X928517Y951016D01*
Y908984D01*
X927247Y908732D01*
X926757Y909915D01*
X925067Y912117D01*
X922866Y913807D01*
X920302Y914869D01*
X918820Y915064D01*
Y904600D01*
Y894136D01*
X920302Y894331D01*
X922866Y895393D01*
X925067Y897083D01*
X926757Y899285D01*
X927247Y900469D01*
X928517Y900216D01*
Y858184D01*
X927247Y857932D01*
X926757Y859116D01*
X925067Y861317D01*
X922866Y863007D01*
X920302Y864069D01*
X918820Y864264D01*
Y853800D01*
Y843336D01*
X920302Y843531D01*
X922866Y844593D01*
X925067Y846283D01*
X926757Y848485D01*
X927247Y849669D01*
X928517Y849416D01*
Y807384D01*
X927247Y807132D01*
X926757Y808316D01*
X925067Y810517D01*
X922866Y812207D01*
X920302Y813269D01*
X918820Y813464D01*
Y803000D01*
Y792536D01*
X920302Y792731D01*
X922866Y793793D01*
X925067Y795483D01*
X926757Y797685D01*
X927247Y798868D01*
X928517Y798616D01*
Y781984D01*
X927247Y781732D01*
X926757Y782915D01*
X925067Y785117D01*
X922866Y786807D01*
X920302Y787869D01*
X918820Y788064D01*
Y777600D01*
Y767136D01*
X920302Y767331D01*
X922866Y768393D01*
X925067Y770083D01*
X926757Y772285D01*
X927247Y773468D01*
X928517Y773216D01*
Y723614D01*
X914386Y709483D01*
X505750D01*
X505750Y709483D01*
X504701Y709049D01*
X504701Y709048D01*
X411451Y615799D01*
X411017Y614750D01*
X411017Y614750D01*
Y542481D01*
X410190Y542372D01*
X408037Y541480D01*
X406188Y540062D01*
X404770Y538213D01*
X403878Y536060D01*
X403574Y533750D01*
Y526250D01*
X403878Y523940D01*
X404770Y521787D01*
X406188Y519938D01*
X408037Y518520D01*
X410190Y517628D01*
X412500Y517324D01*
X414810Y517628D01*
X416963Y518520D01*
X418812Y519938D01*
X420230Y521787D01*
X421122Y523940D01*
X421426Y526250D01*
Y533750D01*
X421122Y536060D01*
X420230Y538213D01*
X418812Y540062D01*
X416963Y541480D01*
X414810Y542372D01*
X413983Y542481D01*
Y614136D01*
X506364Y706517D01*
X915000D01*
X915000Y706517D01*
X916049Y706951D01*
X931049Y721951D01*
X931049Y721951D01*
X931483Y723000D01*
Y968350D01*
X931049Y969399D01*
X931049Y969399D01*
X924238Y976210D01*
X924625Y976715D01*
X925442Y978686D01*
X925720Y980800D01*
X925442Y982915D01*
X924625Y984885D01*
X923327Y986577D01*
X921635Y987875D01*
X919665Y988691D01*
X917550Y988970D01*
D02*
G37*
G36*
X89000Y985720D02*
X81000D01*
X78620Y985246D01*
X76602Y983898D01*
X75254Y981880D01*
X74781Y979500D01*
X75254Y977120D01*
X76602Y975102D01*
X78620Y973754D01*
X81000Y973280D01*
X89000D01*
X91380Y973754D01*
X93398Y975102D01*
X94746Y977120D01*
X95219Y979500D01*
X94746Y981880D01*
X93398Y983898D01*
X91380Y985246D01*
X89000Y985720D01*
D02*
G37*
G36*
X942950Y988970D02*
X940835Y988691D01*
X938865Y987875D01*
X937173Y986577D01*
X935875Y984885D01*
X935059Y982915D01*
X934780Y980800D01*
X935059Y978686D01*
X935875Y976715D01*
X937173Y975023D01*
X938865Y973725D01*
X940835Y972908D01*
X942950Y972630D01*
X945065Y972908D01*
X947035Y973725D01*
X948727Y975023D01*
X950025Y976715D01*
X950842Y978686D01*
X951120Y980800D01*
X950842Y982915D01*
X950025Y984885D01*
X948727Y986577D01*
X947035Y987875D01*
X945065Y988691D01*
X942950Y988970D01*
D02*
G37*
G36*
X371270Y1014959D02*
Y1001270D01*
X380127D01*
Y1005000D01*
X379782Y1007621D01*
X378770Y1010063D01*
X377161Y1012161D01*
X375063Y1013770D01*
X372621Y1014782D01*
X371270Y1014959D01*
D02*
G37*
G36*
X368730D02*
X367379Y1014782D01*
X364937Y1013770D01*
X362839Y1012161D01*
X361230Y1010063D01*
X360219Y1007621D01*
X359873Y1005000D01*
Y1001270D01*
X368730D01*
Y1014959D01*
D02*
G37*
G36*
X916280Y1016664D02*
X914799Y1016469D01*
X912234Y1015407D01*
X910033Y1013717D01*
X908343Y1011516D01*
X907281Y1008951D01*
X907086Y1007470D01*
X916280D01*
Y1016664D01*
D02*
G37*
G36*
X89000Y1025720D02*
X81000D01*
X78620Y1025246D01*
X76602Y1023898D01*
X75254Y1021880D01*
X74781Y1019500D01*
X75254Y1017120D01*
X76602Y1015102D01*
X78620Y1013754D01*
X81000Y1013280D01*
X89000D01*
X91380Y1013754D01*
X93398Y1015102D01*
X94746Y1017120D01*
X95219Y1019500D01*
X94746Y1021880D01*
X93398Y1023898D01*
X91380Y1025246D01*
X89000Y1025720D01*
D02*
G37*
G36*
X918820Y1016664D02*
Y1007470D01*
X928014D01*
X927819Y1008951D01*
X926757Y1011516D01*
X925067Y1013717D01*
X922866Y1015407D01*
X920302Y1016469D01*
X918820Y1016664D01*
D02*
G37*
G36*
X89000Y1005720D02*
X81000D01*
X78620Y1005246D01*
X76602Y1003898D01*
X75254Y1001880D01*
X74781Y999500D01*
X75254Y997120D01*
X76602Y995102D01*
X78620Y993754D01*
X81000Y993280D01*
X89000D01*
X91380Y993754D01*
X93398Y995102D01*
X94746Y997120D01*
X95219Y999500D01*
X94746Y1001880D01*
X93398Y1003898D01*
X91380Y1005246D01*
X89000Y1005720D01*
D02*
G37*
G36*
X267250Y1189166D02*
X265266Y1188904D01*
X263417Y1188139D01*
X261830Y1186920D01*
X260611Y1185333D01*
X259846Y1183484D01*
X259839Y1183433D01*
X258428Y1181594D01*
X257410Y1179137D01*
X257063Y1176500D01*
X257410Y1173863D01*
X258428Y1171406D01*
X259839Y1169567D01*
X259846Y1169516D01*
X260611Y1167667D01*
X261830Y1166080D01*
X263417Y1164861D01*
X265266Y1164096D01*
X267250Y1163834D01*
X269234Y1164096D01*
X270835Y1164759D01*
X442609Y992984D01*
X443361Y991167D01*
X444580Y989580D01*
X446167Y988361D01*
X448016Y987596D01*
X450000Y987334D01*
X451984Y987596D01*
X453833Y988361D01*
X455420Y989580D01*
X456639Y991167D01*
X457404Y993016D01*
X457411Y993067D01*
X458822Y994906D01*
X459840Y997363D01*
X460187Y1000000D01*
X459840Y1002637D01*
X458822Y1005094D01*
X457411Y1006933D01*
X457404Y1006984D01*
X456639Y1008833D01*
X455420Y1010420D01*
X453833Y1011639D01*
X452015Y1012391D01*
X280703Y1183703D01*
X278594Y1185322D01*
X276137Y1186340D01*
X273500Y1186687D01*
X273500Y1186687D01*
X272849D01*
X272670Y1186920D01*
X271083Y1188139D01*
X269234Y1188904D01*
X267250Y1189166D01*
D02*
G37*
G36*
X916280Y1004930D02*
X907086D01*
X907281Y1003449D01*
X908343Y1000885D01*
X910033Y998683D01*
X912234Y996993D01*
X914799Y995931D01*
X916280Y995736D01*
Y1004930D01*
D02*
G37*
G36*
X942950Y1014370D02*
X940835Y1014091D01*
X938865Y1013275D01*
X937173Y1011977D01*
X935875Y1010285D01*
X935059Y1008315D01*
X934780Y1006200D01*
X935059Y1004085D01*
X935875Y1002115D01*
X937173Y1000423D01*
X938865Y999125D01*
X940835Y998308D01*
X942950Y998030D01*
X945065Y998308D01*
X947035Y999125D01*
X948727Y1000423D01*
X950025Y1002115D01*
X950842Y1004085D01*
X951120Y1006200D01*
X950842Y1008315D01*
X950025Y1010285D01*
X948727Y1011977D01*
X947035Y1013275D01*
X945065Y1014091D01*
X942950Y1014370D01*
D02*
G37*
G36*
X928014Y1004930D02*
X918820D01*
Y995736D01*
X920302Y995931D01*
X922866Y996993D01*
X925067Y998683D01*
X926757Y1000885D01*
X927819Y1003449D01*
X928014Y1004930D01*
D02*
G37*
G36*
X89000Y965720D02*
X81000D01*
X78620Y965246D01*
X76602Y963898D01*
X75254Y961880D01*
X74781Y959500D01*
X75254Y957120D01*
X76602Y955102D01*
X78620Y953754D01*
X81000Y953280D01*
X89000D01*
X91380Y953754D01*
X93398Y955102D01*
X94746Y957120D01*
X95219Y959500D01*
X94746Y961880D01*
X93398Y963898D01*
X91380Y965246D01*
X89000Y965720D01*
D02*
G37*
G36*
X431270Y934959D02*
Y921270D01*
X440127D01*
Y925000D01*
X439782Y927621D01*
X438770Y930063D01*
X437161Y932161D01*
X435063Y933770D01*
X432621Y934782D01*
X431270Y934959D01*
D02*
G37*
G36*
X428730D02*
X427379Y934782D01*
X424937Y933770D01*
X422839Y932161D01*
X421230Y930063D01*
X420218Y927621D01*
X419873Y925000D01*
Y921270D01*
X428730D01*
Y934959D01*
D02*
G37*
G36*
X548730D02*
X547379Y934782D01*
X544937Y933770D01*
X542839Y932161D01*
X541230Y930063D01*
X540219Y927621D01*
X539873Y925000D01*
Y921270D01*
X548730D01*
Y934959D01*
D02*
G37*
G36*
X917550Y938170D02*
X915435Y937891D01*
X913465Y937075D01*
X911773Y935777D01*
X910475Y934085D01*
X909659Y932115D01*
X909380Y930000D01*
X909659Y927886D01*
X910475Y925915D01*
X910863Y925410D01*
X895951Y910499D01*
X895517Y909450D01*
X895517Y909450D01*
Y750864D01*
X860136Y715483D01*
X500250D01*
X500250Y715483D01*
X499201Y715049D01*
X425636Y641483D01*
X421426D01*
Y643750D01*
X421122Y646060D01*
X420230Y648213D01*
X418812Y650062D01*
X416963Y651480D01*
X414810Y652372D01*
X412500Y652676D01*
X410190Y652372D01*
X408037Y651480D01*
X406188Y650062D01*
X404770Y648213D01*
X403878Y646060D01*
X403574Y643750D01*
Y636250D01*
X403878Y633940D01*
X404770Y631787D01*
X406188Y629938D01*
X408037Y628520D01*
X410190Y627628D01*
X412500Y627324D01*
X414810Y627628D01*
X416963Y628520D01*
X418812Y629938D01*
X420230Y631787D01*
X421122Y633940D01*
X421426Y636250D01*
Y638517D01*
X426250D01*
X426250Y638517D01*
X427299Y638951D01*
X500864Y712517D01*
X860750D01*
X860750Y712517D01*
X861799Y712951D01*
X898048Y749201D01*
X898049Y749201D01*
X898483Y750250D01*
X898483Y750250D01*
Y908836D01*
X912960Y923313D01*
X913465Y922925D01*
X915435Y922109D01*
X917550Y921830D01*
X919665Y922109D01*
X921635Y922925D01*
X923327Y924223D01*
X924625Y925915D01*
X925442Y927886D01*
X925720Y930000D01*
X925442Y932115D01*
X924625Y934085D01*
X923327Y935777D01*
X921635Y937075D01*
X919665Y937891D01*
X917550Y938170D01*
D02*
G37*
G36*
X551270Y934959D02*
Y921270D01*
X560127D01*
Y925000D01*
X559782Y927621D01*
X558770Y930063D01*
X557161Y932161D01*
X555063Y933770D01*
X552621Y934782D01*
X551270Y934959D01*
D02*
G37*
G36*
X185608Y934693D02*
X184257Y934516D01*
X181815Y933504D01*
X179717Y931895D01*
X178108Y929797D01*
X177096Y927355D01*
X176751Y924734D01*
Y921004D01*
X185608D01*
Y934693D01*
D02*
G37*
G36*
X89000Y928114D02*
X86270D01*
Y920770D01*
X97446D01*
X97320Y921729D01*
X96460Y923807D01*
X95091Y925591D01*
X93307Y926960D01*
X91229Y927820D01*
X89000Y928114D01*
D02*
G37*
G36*
X188148Y934693D02*
Y921004D01*
X197005D01*
Y924734D01*
X196660Y927355D01*
X195648Y929797D01*
X194039Y931895D01*
X191941Y933504D01*
X189499Y934516D01*
X188148Y934693D01*
D02*
G37*
G36*
X311270Y934959D02*
Y921270D01*
X320127D01*
Y925000D01*
X319782Y927621D01*
X318770Y930063D01*
X317161Y932161D01*
X315063Y933770D01*
X312621Y934782D01*
X311270Y934959D01*
D02*
G37*
G36*
X308730D02*
X307379Y934782D01*
X304937Y933770D01*
X302839Y932161D01*
X301230Y930063D01*
X300218Y927621D01*
X299873Y925000D01*
Y921270D01*
X308730D01*
Y934959D01*
D02*
G37*
G36*
X916280Y954130D02*
X907086D01*
X907281Y952649D01*
X908343Y950085D01*
X910033Y947883D01*
X912234Y946193D01*
X914799Y945131D01*
X916280Y944936D01*
Y954130D01*
D02*
G37*
G36*
X89000Y948114D02*
X86270D01*
Y940770D01*
X97446D01*
X97320Y941729D01*
X96460Y943807D01*
X95091Y945591D01*
X93307Y946960D01*
X91229Y947820D01*
X89000Y948114D01*
D02*
G37*
G36*
X942950Y963570D02*
X940835Y963291D01*
X938865Y962475D01*
X937173Y961177D01*
X935875Y959485D01*
X935059Y957515D01*
X934780Y955400D01*
X935059Y953286D01*
X935875Y951315D01*
X937173Y949623D01*
X938865Y948325D01*
X940835Y947508D01*
X942950Y947230D01*
X945065Y947508D01*
X947035Y948325D01*
X948727Y949623D01*
X950025Y951315D01*
X950842Y953286D01*
X951120Y955400D01*
X950842Y957515D01*
X950025Y959485D01*
X948727Y961177D01*
X947035Y962475D01*
X945065Y963291D01*
X942950Y963570D01*
D02*
G37*
G36*
X715000Y952891D02*
X714181Y952728D01*
X713486Y952264D01*
X713465Y952233D01*
X630250D01*
X630250Y952233D01*
X629201Y951799D01*
X629201Y951798D01*
X558636Y881233D01*
X511250D01*
X510201Y880799D01*
X398951Y769548D01*
X398517Y768500D01*
X398517Y768500D01*
Y742470D01*
X398016Y742404D01*
X396167Y741639D01*
X394580Y740420D01*
X393361Y738833D01*
X392596Y736984D01*
X392334Y735000D01*
Y725000D01*
X392596Y723016D01*
X393361Y721167D01*
X394580Y719580D01*
X396167Y718361D01*
X398016Y717596D01*
X400000Y717334D01*
X401984Y717596D01*
X403833Y718361D01*
X405420Y719580D01*
X406639Y721167D01*
X407404Y723016D01*
X407666Y725000D01*
Y735000D01*
X407404Y736984D01*
X406639Y738833D01*
X405420Y740420D01*
X403833Y741639D01*
X401984Y742404D01*
X401483Y742470D01*
Y767886D01*
X511864Y878267D01*
X559250D01*
X559250Y878267D01*
X560299Y878701D01*
X630864Y949267D01*
X713465D01*
X713486Y949236D01*
X714181Y948772D01*
X715000Y948609D01*
X715819Y948772D01*
X716514Y949236D01*
X716978Y949931D01*
X717141Y950750D01*
X716978Y951569D01*
X716514Y952264D01*
X715819Y952728D01*
X715000Y952891D01*
D02*
G37*
G36*
X350000Y1012666D02*
X348016Y1012404D01*
X346167Y1011639D01*
X344580Y1010420D01*
X343361Y1008833D01*
X342596Y1006984D01*
X342334Y1005000D01*
Y995000D01*
X342596Y993016D01*
X343361Y991167D01*
X344580Y989580D01*
X346167Y988361D01*
X348016Y987596D01*
X350000Y987334D01*
X351984Y987596D01*
X353833Y988361D01*
X355420Y989580D01*
X355901Y990206D01*
X357587Y990316D01*
X391879Y956023D01*
X391879Y956023D01*
X392928Y955589D01*
X392928Y955589D01*
X761640D01*
X768571Y948657D01*
X769620Y948223D01*
X769620Y948223D01*
X769783D01*
X770422Y946953D01*
X770259Y946733D01*
X633750D01*
X633750Y946733D01*
X632701Y946299D01*
X561886Y875483D01*
X513000D01*
X513000Y875483D01*
X511951Y875049D01*
X511951Y875049D01*
X418951Y782049D01*
X418517Y781000D01*
X418517Y781000D01*
Y742470D01*
X418016Y742404D01*
X416167Y741639D01*
X414580Y740420D01*
X413361Y738833D01*
X412596Y736984D01*
X412334Y735000D01*
Y725000D01*
X412596Y723016D01*
X413361Y721167D01*
X414580Y719580D01*
X416167Y718361D01*
X418016Y717596D01*
X420000Y717334D01*
X421984Y717596D01*
X423833Y718361D01*
X425420Y719580D01*
X426639Y721167D01*
X427404Y723016D01*
X427666Y725000D01*
Y735000D01*
X427404Y736984D01*
X426639Y738833D01*
X425420Y740420D01*
X423833Y741639D01*
X421984Y742404D01*
X421483Y742470D01*
Y780386D01*
X513614Y872517D01*
X562500D01*
X562500Y872517D01*
X563549Y872951D01*
X634364Y943767D01*
X771215D01*
X771236Y943736D01*
X771931Y943272D01*
X772750Y943109D01*
X773569Y943272D01*
X774264Y943736D01*
X774728Y944431D01*
X774891Y945250D01*
X774728Y946069D01*
X774264Y946764D01*
X773981Y946953D01*
X774366Y948223D01*
X786627D01*
X786648Y948192D01*
X787343Y947728D01*
X788162Y947565D01*
X788981Y947728D01*
X789676Y948192D01*
X790140Y948887D01*
X790303Y949706D01*
X790140Y950525D01*
X789676Y951220D01*
X788981Y951684D01*
X788566Y951767D01*
X788216Y952823D01*
X788170Y953045D01*
X788616Y953713D01*
X788779Y954532D01*
X788616Y955351D01*
X788152Y956046D01*
X787785Y956291D01*
X787457Y956510D01*
X786638Y956673D01*
X786638Y956673D01*
X786638D01*
X786040Y957706D01*
X786030Y957731D01*
X785991Y957824D01*
X785990Y957827D01*
X785987Y957835D01*
X785985Y957838D01*
X785998Y957846D01*
X786195Y957978D01*
D01*
X786374Y958098D01*
X786838Y958793D01*
X787001Y959612D01*
X786838Y960431D01*
X786374Y961126D01*
X786089Y961316D01*
X785679Y961590D01*
X785332Y961698D01*
X784954Y961815D01*
X784647Y962957D01*
X784825Y963094D01*
X785034Y963256D01*
X785430Y963848D01*
X785498Y963951D01*
X785661Y964770D01*
X785498Y965589D01*
X785034Y966284D01*
X784947Y966342D01*
X784339Y966748D01*
X784056Y966805D01*
X783875Y966841D01*
X783162Y967794D01*
X783152Y967818D01*
X783096Y967956D01*
X783096Y967956D01*
X783340Y968203D01*
X783452Y968278D01*
X783452D01*
X783764Y968486D01*
X784228Y969181D01*
X784391Y970000D01*
X784228Y970819D01*
X783764Y971514D01*
X783069Y971978D01*
X782250Y972141D01*
X781431Y971978D01*
X780736Y971514D01*
X780715Y971483D01*
X778364D01*
X770049Y979799D01*
X769000Y980233D01*
X769000Y980233D01*
X632864D01*
X609384Y1003713D01*
X609391Y1003750D01*
X609228Y1004569D01*
X608764Y1005264D01*
X608069Y1005728D01*
X607250Y1005891D01*
X606431Y1005728D01*
X605736Y1005264D01*
X605272Y1004569D01*
X605109Y1003750D01*
X605272Y1002931D01*
X605736Y1002236D01*
X606431Y1001772D01*
X607250Y1001609D01*
X607287Y1001616D01*
X631201Y977701D01*
X631201Y977701D01*
X632250Y977267D01*
X632250Y977267D01*
X768386D01*
X776701Y968951D01*
X777750Y968517D01*
X777750Y968517D01*
X780715D01*
X780736Y968486D01*
X780823Y968428D01*
X781407Y968037D01*
X781432Y968019D01*
X781881Y966961D01*
X781876Y966638D01*
X781542Y966253D01*
X777594D01*
X769299Y974549D01*
X768250Y974983D01*
X768250Y974983D01*
X629092D01*
X600304Y1003771D01*
X600311Y1003808D01*
X600148Y1004627D01*
X599684Y1005322D01*
X598989Y1005786D01*
X598170Y1005949D01*
X597351Y1005786D01*
X596656Y1005322D01*
X596192Y1004627D01*
X596029Y1003808D01*
X596192Y1002989D01*
X596656Y1002294D01*
X597351Y1001830D01*
X598170Y1001667D01*
X598207Y1001674D01*
X627429Y972451D01*
X627429Y972451D01*
X628478Y972017D01*
X767636D01*
X775931Y963722D01*
X775931Y963721D01*
X776980Y963287D01*
X776980Y963287D01*
X781985D01*
X782006Y963256D01*
X782291Y963066D01*
X782511Y962918D01*
X782792Y962120D01*
X782881Y961461D01*
X782535Y961095D01*
X775060D01*
X767113Y969043D01*
X766064Y969477D01*
X766064Y969477D01*
X625962D01*
X591922Y1003517D01*
X591929Y1003554D01*
X591766Y1004373D01*
X591302Y1005068D01*
X590607Y1005532D01*
X589788Y1005695D01*
X588969Y1005532D01*
X588274Y1005068D01*
X587810Y1004373D01*
X587647Y1003554D01*
X587810Y1002735D01*
X588274Y1002040D01*
X588969Y1001576D01*
X589788Y1001413D01*
X589825Y1001420D01*
X624299Y966945D01*
X624299Y966945D01*
X625348Y966511D01*
X625348Y966511D01*
X765450D01*
X773397Y958564D01*
X773397Y958563D01*
X774446Y958129D01*
X783325D01*
X783346Y958098D01*
X783713Y957853D01*
X783885Y957738D01*
X784088Y957463D01*
X784425Y956263D01*
X784259Y956015D01*
X772520D01*
X764827Y963709D01*
X763778Y964143D01*
X763778Y964143D01*
X622660D01*
X583286Y1003517D01*
X583293Y1003554D01*
X583130Y1004373D01*
X582666Y1005068D01*
X581971Y1005532D01*
X581152Y1005695D01*
X580333Y1005532D01*
X579638Y1005068D01*
X579174Y1004373D01*
X579011Y1003554D01*
X579174Y1002735D01*
X579638Y1002040D01*
X580333Y1001576D01*
X581152Y1001413D01*
X581189Y1001420D01*
X620997Y961611D01*
X620997Y961611D01*
X622046Y961177D01*
X622046Y961177D01*
X763164D01*
X770857Y953484D01*
X770857Y953483D01*
X771906Y953049D01*
X785103D01*
X785124Y953018D01*
X785819Y952554D01*
X785765Y951270D01*
X785731Y951189D01*
X770234D01*
X763303Y958121D01*
X762254Y958555D01*
X762254Y958555D01*
X393542D01*
X368278Y983819D01*
X368730Y984736D01*
Y998730D01*
X359873D01*
Y995000D01*
X360022Y993871D01*
X358819Y993278D01*
X357599Y994498D01*
X357666Y995000D01*
Y1005000D01*
X357404Y1006984D01*
X356639Y1008833D01*
X355420Y1010420D01*
X353833Y1011639D01*
X351984Y1012404D01*
X350000Y1012666D01*
D02*
G37*
G36*
X710020Y940709D02*
Y927020D01*
X718877D01*
Y930750D01*
X718532Y933371D01*
X717520Y935813D01*
X715911Y937911D01*
X713813Y939520D01*
X711371Y940532D01*
X710020Y940709D01*
D02*
G37*
G36*
X942950Y938170D02*
X940835Y937891D01*
X938865Y937075D01*
X937173Y935777D01*
X935875Y934085D01*
X935059Y932115D01*
X934780Y930000D01*
X935059Y927886D01*
X935875Y925915D01*
X937173Y924223D01*
X938865Y922925D01*
X940835Y922109D01*
X942950Y921830D01*
X945065Y922109D01*
X947035Y922925D01*
X948727Y924223D01*
X950025Y925915D01*
X950842Y927886D01*
X951120Y930000D01*
X950842Y932115D01*
X950025Y934085D01*
X948727Y935777D01*
X947035Y937075D01*
X945065Y937891D01*
X942950Y938170D01*
D02*
G37*
G36*
X83730Y938230D02*
X72554D01*
X72680Y937271D01*
X73540Y935193D01*
X74909Y933409D01*
X76693Y932040D01*
X78771Y931180D01*
X81000Y930886D01*
X83730D01*
Y938230D01*
D02*
G37*
G36*
Y948114D02*
X81000D01*
X78771Y947820D01*
X76693Y946960D01*
X74909Y945591D01*
X73540Y943807D01*
X72680Y941729D01*
X72554Y940770D01*
X83730D01*
Y948114D01*
D02*
G37*
G36*
X97446Y938230D02*
X86270D01*
Y930886D01*
X89000D01*
X91229Y931180D01*
X93307Y932040D01*
X95091Y933409D01*
X96460Y935193D01*
X97320Y937271D01*
X97446Y938230D01*
D02*
G37*
%LPD*%
D22*
X474000Y1198750D02*
X494250Y1219000D01*
X442750Y1161250D02*
X451750D01*
X421500Y1182500D02*
X442750Y1161250D01*
X421500Y1182500D02*
Y1196000D01*
X405250Y1212250D02*
X421500Y1196000D01*
X421250Y565250D02*
Y585250D01*
Y565000D02*
Y565250D01*
Y585250D02*
X490750Y654750D01*
X905500D01*
X340000Y440000D02*
Y466250D01*
X363000Y489250D01*
X399000D01*
X429500Y519750D01*
Y581500D01*
X496750Y648750D01*
X906500D01*
X473500Y651500D02*
X488500Y666500D01*
X473000Y651500D02*
X473500D01*
X486000Y657750D02*
X486500D01*
X489250Y660500D01*
X488500Y666500D02*
X904250D01*
X489250Y660500D02*
X905000D01*
X478250Y664250D02*
X486000Y672000D01*
X903500D01*
X494750Y737000D02*
X566250D01*
X471750Y714000D02*
X494750Y737000D01*
X306000Y714000D02*
X471750D01*
X290000Y730000D02*
X306000Y714000D01*
X495000Y727000D02*
X567000D01*
X477250Y709250D02*
X495000Y727000D01*
X290750Y709250D02*
X477250D01*
X270000Y730000D02*
X290750Y709250D01*
X807250Y149500D02*
Y482900D01*
X917550Y593200D01*
X823000Y146500D02*
Y389500D01*
X818250Y148000D02*
Y392300D01*
X823000Y389500D02*
X912500Y479000D01*
X818250Y392300D02*
X917550Y491600D01*
X929100Y223750D02*
X942950Y237600D01*
X909000Y223750D02*
X929100D01*
X903250Y218000D02*
X909000Y223750D01*
X903250Y209250D02*
Y218000D01*
X748000Y174500D02*
X776750Y203250D01*
X798000D01*
X774250Y209250D02*
X798000D01*
X744750Y179750D02*
X774250Y209250D01*
X772500Y215250D02*
X798000D01*
X742000Y184750D02*
X772500Y215250D01*
X521750Y174500D02*
X748000D01*
X513750Y166500D02*
X521750Y174500D01*
X521000Y179750D02*
X744750D01*
X513750Y172500D02*
X521000Y179750D01*
X520000Y184750D02*
X742000D01*
X513750Y178500D02*
X520000Y184750D01*
X771500Y221250D02*
X798000D01*
X740000Y189750D02*
X771500Y221250D01*
X519000Y189750D02*
X740000D01*
X513750Y184500D02*
X519000Y189750D01*
X633750Y945250D02*
X772750D01*
X562500Y874000D02*
X633750Y945250D01*
X513000Y874000D02*
X562500D01*
X420000Y781000D02*
X513000Y874000D01*
X420000Y730000D02*
Y781000D01*
X630250Y950750D02*
X715000D01*
X559250Y879750D02*
X630250Y950750D01*
X392928Y957072D02*
X762254D01*
X769620Y949706D01*
X511250Y879750D02*
X559250D01*
X400000Y768500D02*
X511250Y879750D01*
X400000Y730000D02*
Y768500D01*
X653000Y1270250D02*
X665250D01*
X840250Y1230000D02*
X850250Y1240000D01*
X840250Y870000D02*
Y1230000D01*
X474000Y1170250D02*
Y1198750D01*
X607250Y1003750D02*
X632250Y978750D01*
X769000D01*
X777750Y970000D01*
X768250Y973500D02*
X776980Y964770D01*
X783520D01*
X777750Y970000D02*
X782250D01*
X772668Y983742D02*
X781050Y975360D01*
X642620Y983742D02*
X772668D01*
X610108Y1016254D02*
X642620Y983742D01*
X486254Y1016254D02*
X610108D01*
X470000Y1000000D02*
X486254Y1016254D01*
X774446Y959612D02*
X784860D01*
X766064Y967994D02*
X774446Y959612D01*
X598170Y1003808D02*
X628478Y973500D01*
X768250D01*
X589788Y1003554D02*
X625348Y967994D01*
X766064D01*
X771906Y954532D02*
X786638D01*
X763778Y962660D02*
X771906Y954532D01*
X589788Y1003554D02*
Y1003554D01*
X581152D02*
X622046Y962660D01*
X763778D01*
X769620Y949706D02*
X788162D01*
X350000Y1000000D02*
X392928Y957072D01*
X85000Y979500D02*
X87112D01*
X870000Y380000D02*
X894500Y404500D01*
X932050D01*
X942950Y415400D01*
Y440800D02*
X959500Y424250D01*
Y415000D02*
Y424250D01*
X945000Y400500D02*
X959500Y415000D01*
X900500Y400500D02*
X945000D01*
X875500Y375500D02*
X900500Y400500D01*
X108500Y89750D02*
Y157000D01*
X114500Y91250D02*
Y157000D01*
X120500Y92500D02*
Y157250D01*
Y92500D02*
X146750Y66250D01*
X126250Y94500D02*
Y157250D01*
Y94500D02*
X149750Y71000D01*
X132000Y96250D02*
Y157250D01*
Y96250D02*
X152500Y75750D01*
X865220D01*
X870000Y80530D01*
Y380000D01*
X149750Y71000D02*
X869500D01*
X875500Y77000D01*
Y375500D01*
X146750Y66250D02*
X873250D01*
X881000Y74000D01*
Y342000D01*
X932100Y353750D02*
X942950Y364600D01*
X892750Y353750D02*
X932100D01*
X881000Y342000D02*
X892750Y353750D01*
X886750Y72000D02*
Y338500D01*
X898000Y349750D01*
X944750D01*
X956250Y361250D01*
Y376700D01*
X942950Y390000D02*
X956250Y376700D01*
X114500Y91250D02*
X144500Y61250D01*
X876000D01*
X886750Y72000D01*
X108500Y89750D02*
X141750Y56500D01*
X878000D01*
X892000Y70500D01*
Y293250D01*
X932400Y303250D02*
X942950Y313800D01*
X902000Y303250D02*
X932400D01*
X892000Y293250D02*
X902000Y303250D01*
X942950Y339200D02*
X956750Y325400D01*
X907250Y299250D02*
X948250D01*
X956750Y307750D01*
Y325400D01*
X897000Y289000D02*
X907250Y299250D01*
X881250Y51750D02*
X897000Y67500D01*
Y289000D01*
X137750Y97750D02*
Y157250D01*
X102500Y88250D02*
Y157000D01*
Y88250D02*
X139000Y51750D01*
X881250D01*
X143500Y100500D02*
Y157250D01*
X857500Y414500D02*
X898750Y455750D01*
X932500D01*
X942950Y466200D01*
X863750Y84000D02*
Y410500D01*
X905000Y451750D01*
X947250D01*
X956750Y461250D01*
Y477800D01*
X942950Y491600D02*
X956750Y477800D01*
X137750Y97750D02*
X155000Y80500D01*
X860250D01*
X863750Y84000D01*
X143500Y100500D02*
X158500Y85500D01*
X856000D01*
X857500Y87000D01*
Y414500D01*
X812750Y148750D02*
Y463000D01*
X917550Y567800D01*
X203500Y148750D02*
Y157000D01*
X209000Y150250D02*
Y157000D01*
X214500Y152500D02*
Y157000D01*
X912500Y479000D02*
X931000D01*
X789000Y131250D02*
X807250Y149500D01*
X214500Y152500D02*
X235750Y131250D01*
X791000Y127000D02*
X812750Y148750D01*
X209000Y150250D02*
X232250Y127000D01*
X792500Y122250D02*
X818250Y148000D01*
X203500Y148750D02*
X230000Y122250D01*
X792500D01*
X232250Y127000D02*
X791000D01*
X235750Y131250D02*
X789000D01*
X198000Y147250D02*
Y157000D01*
Y147250D02*
X227500Y117750D01*
X794250D01*
X823000Y146500D01*
X192250Y146000D02*
Y157000D01*
Y146000D02*
X224875Y113375D01*
X796875D01*
X827500Y144000D01*
Y299750D01*
X186500Y144500D02*
Y157000D01*
Y144500D02*
X222750Y108250D01*
X798500D01*
X832000Y141750D01*
X180750Y142750D02*
Y157000D01*
Y142750D02*
X221500Y102000D01*
X799000D01*
X836750Y139750D01*
Y296500D01*
X851250Y311000D01*
X832000Y298000D02*
X851250Y317250D01*
X832000Y141750D02*
Y298000D01*
X827500Y299750D02*
X851250Y323500D01*
X942950Y542400D02*
X945850D01*
X959250Y529000D01*
X175000Y141250D02*
Y157000D01*
Y141250D02*
X218750Y97500D01*
X802000D01*
X841000Y136500D01*
Y294250D02*
X851250Y304500D01*
X841000Y136500D02*
Y294250D01*
X942950Y517000D02*
X947500D01*
X963750Y500750D01*
X860750Y714000D02*
X897000Y750250D01*
Y909450D01*
X917550Y930000D01*
X915000Y708000D02*
X930000Y723000D01*
Y968350D01*
X917550Y980800D02*
X930000Y968350D01*
X412500Y530000D02*
Y614750D01*
X505750Y708000D01*
X915000D01*
X412500Y640000D02*
X426250D01*
X500250Y714000D01*
X860750D01*
X585250Y1281500D02*
X641750D01*
X653000Y1270250D01*
X405250Y1212250D02*
Y1281250D01*
X70250Y1420000D02*
Y1420000D01*
X20250Y1370000D02*
X70250Y1420000D01*
X20250Y70000D02*
Y1370000D01*
Y70000D02*
X70250Y20000D01*
X970250D01*
X1020250Y70000D01*
Y1370000D01*
X970250Y1420000D02*
X1020250Y1370000D01*
X70250Y1420000D02*
X970250D01*
D23*
X262750Y768500D02*
X294778Y800528D01*
X250000Y755750D02*
X262750Y768500D01*
X341500D01*
X380000Y730000D01*
X336750Y1066250D02*
X344000Y1073500D01*
X336750Y1027000D02*
Y1066250D01*
X352250Y954000D02*
X383000D01*
X272961D02*
X352250D01*
X330000Y976250D02*
X352250Y954000D01*
X330000Y976250D02*
Y1000000D01*
X240000Y986961D02*
X272961Y954000D01*
X240000Y986961D02*
Y1000000D01*
X150000Y985500D02*
X181500Y954000D01*
X150000Y985500D02*
Y1000000D01*
X166878Y919734D02*
Y939378D01*
X181500Y954000D01*
X272961D01*
X290000Y936961D01*
Y920000D02*
Y936961D01*
X394750Y942250D02*
X525750D01*
X530000Y938000D01*
Y920000D02*
Y938000D01*
X383000Y954000D02*
X394750Y942250D01*
X410000Y927000D01*
X290000Y834778D02*
Y920000D01*
Y834778D02*
X294778Y830000D01*
Y800528D02*
Y830000D01*
X250000Y730000D02*
Y755750D01*
X312500Y447500D02*
Y530000D01*
Y447500D02*
X320000Y440000D01*
Y415500D02*
Y440000D01*
X280000Y375500D02*
X320000Y415500D01*
X280000Y350000D02*
Y375500D01*
X417750D01*
X430000Y363250D01*
Y350000D02*
Y363250D01*
X280000Y240000D02*
Y350000D01*
X430000Y240000D02*
Y350000D01*
X280000Y218000D02*
Y240000D01*
X274500Y212500D02*
X280000Y218000D01*
X160000Y212500D02*
X274500D01*
X160000Y392500D02*
X263000D01*
X280000Y375500D01*
X160000Y572500D02*
X310250D01*
X312500Y530000D02*
Y640000D01*
X160000Y752500D02*
X227500D01*
X250000Y730000D01*
Y714750D02*
Y730000D01*
Y714750D02*
X312500Y652250D01*
Y640000D02*
Y652250D01*
D24*
X267250Y1176500D02*
X273500D01*
X450000Y1000000D01*
X880250Y1030000D02*
Y1120000D01*
Y840000D02*
Y1030000D01*
X688750Y852000D02*
Y925750D01*
D25*
X810250Y1260000D02*
Y1320000D01*
X840150Y869900D02*
X840250Y870000D01*
X752350Y869900D02*
X840150D01*
X731000Y891250D02*
X752350Y869900D01*
X700000Y891250D02*
X731000D01*
X699750Y891500D02*
X700000Y891250D01*
X800250Y900000D02*
X810250Y910000D01*
Y1260000D01*
D27*
X942950Y726800D02*
D03*
X917550D02*
D03*
X942950Y930000D02*
D03*
X917550D02*
D03*
Y904600D02*
D03*
Y879200D02*
D03*
Y853800D02*
D03*
Y828400D02*
D03*
Y803000D02*
D03*
Y777600D02*
D03*
Y752200D02*
D03*
X942950D02*
D03*
Y777600D02*
D03*
Y803000D02*
D03*
Y828400D02*
D03*
Y853800D02*
D03*
Y879200D02*
D03*
Y904600D02*
D03*
Y1107800D02*
D03*
Y1082400D02*
D03*
Y1057000D02*
D03*
Y1031600D02*
D03*
Y1006200D02*
D03*
Y980800D02*
D03*
Y955400D02*
D03*
X917550D02*
D03*
Y980800D02*
D03*
Y1006200D02*
D03*
Y1031600D02*
D03*
Y1057000D02*
D03*
Y1082400D02*
D03*
Y1107800D02*
D03*
Y1133200D02*
D03*
X942950D02*
D03*
Y186800D02*
D03*
X917550D02*
D03*
X942950Y390000D02*
D03*
X917550D02*
D03*
Y364600D02*
D03*
Y339200D02*
D03*
Y313800D02*
D03*
Y288400D02*
D03*
Y263000D02*
D03*
Y237600D02*
D03*
Y212200D02*
D03*
X942950D02*
D03*
Y237600D02*
D03*
Y263000D02*
D03*
Y288400D02*
D03*
Y313800D02*
D03*
Y339200D02*
D03*
Y364600D02*
D03*
Y567800D02*
D03*
Y542400D02*
D03*
Y517000D02*
D03*
Y491600D02*
D03*
Y466200D02*
D03*
Y440800D02*
D03*
Y415400D02*
D03*
X917550D02*
D03*
Y440800D02*
D03*
Y466200D02*
D03*
Y491600D02*
D03*
Y517000D02*
D03*
Y542400D02*
D03*
Y567800D02*
D03*
Y593200D02*
D03*
X942950D02*
D03*
X707250Y1220000D02*
D03*
X783250D02*
D03*
D28*
X751200Y157300D02*
D03*
D29*
X789300D02*
D03*
D30*
X160000Y802500D02*
D03*
Y752500D02*
D03*
Y777500D02*
D03*
Y827500D02*
D03*
Y622500D02*
D03*
Y572500D02*
D03*
Y597500D02*
D03*
Y647500D02*
D03*
Y262500D02*
D03*
Y212500D02*
D03*
Y237500D02*
D03*
Y287500D02*
D03*
Y442500D02*
D03*
Y392500D02*
D03*
Y417500D02*
D03*
Y467500D02*
D03*
D31*
X802500Y1380000D02*
D03*
X777500D02*
D03*
X902500D02*
D03*
X877500D02*
D03*
X702500D02*
D03*
X677500D02*
D03*
X337500Y530000D02*
D03*
X287500D02*
D03*
X312500D02*
D03*
X362500D02*
D03*
X387500D02*
D03*
X412500D02*
D03*
X337500Y640000D02*
D03*
X287500D02*
D03*
X312500D02*
D03*
X362500D02*
D03*
X387500D02*
D03*
X412500D02*
D03*
D32*
X57250Y1218000D02*
D03*
Y1238000D02*
D03*
Y1258000D02*
D03*
Y1198000D02*
D03*
D33*
X668750Y925750D02*
D03*
X688750D02*
D03*
X708750D02*
D03*
X668750Y852000D02*
D03*
X688750D02*
D03*
X708750D02*
D03*
X147250Y1176500D02*
D03*
X167250D02*
D03*
X247250D02*
D03*
X267250D02*
D03*
X340000Y440000D02*
D03*
X360000D02*
D03*
X380000D02*
D03*
X320000D02*
D03*
X310000Y920000D02*
D03*
X290000D02*
D03*
X270000D02*
D03*
X390000D02*
D03*
X410000D02*
D03*
X430000D02*
D03*
X510000D02*
D03*
X530000D02*
D03*
X550000D02*
D03*
X450000Y1000000D02*
D03*
X470000D02*
D03*
X490000D02*
D03*
X330000D02*
D03*
X350000D02*
D03*
X370000D02*
D03*
X186878Y919734D02*
D03*
X166878D02*
D03*
X146878D02*
D03*
X260000Y240000D02*
D03*
X280000D02*
D03*
X300000D02*
D03*
X410000D02*
D03*
X430000D02*
D03*
X450000D02*
D03*
X260000Y350000D02*
D03*
X280000D02*
D03*
X300000D02*
D03*
X410000D02*
D03*
X430000D02*
D03*
X450000D02*
D03*
X240000Y1000000D02*
D03*
X260000D02*
D03*
X150000D02*
D03*
X170000D02*
D03*
X270000Y730000D02*
D03*
X290000D02*
D03*
X310000D02*
D03*
X250000D02*
D03*
X400000D02*
D03*
X420000D02*
D03*
X440000D02*
D03*
X380000D02*
D03*
D34*
X605250Y150000D02*
D03*
X555250D02*
D03*
D35*
X970250Y70000D02*
D03*
X70250D02*
D03*
Y1370000D02*
D03*
X970250D02*
D03*
D36*
X90000Y293500D02*
D03*
X70000D02*
D03*
X90000Y473500D02*
D03*
X70000D02*
D03*
X90000Y653500D02*
D03*
X70000D02*
D03*
Y833500D02*
D03*
X90000D02*
D03*
D37*
X80000Y255000D02*
D03*
Y205000D02*
D03*
Y435000D02*
D03*
Y385000D02*
D03*
Y615000D02*
D03*
Y565000D02*
D03*
Y745000D02*
D03*
Y795000D02*
D03*
D38*
X124300Y1308350D02*
D03*
X255700D02*
D03*
X304300D02*
D03*
X435700D02*
D03*
X484300D02*
D03*
X615700D02*
D03*
D39*
X155000Y1281250D02*
D03*
X180000D02*
D03*
X200000D02*
D03*
X335000D02*
D03*
X360000D02*
D03*
X380000D02*
D03*
X515000D02*
D03*
X540000D02*
D03*
X560000D02*
D03*
D40*
X225000D02*
D03*
X405000D02*
D03*
X585000D02*
D03*
D41*
X85000Y1039500D02*
D03*
Y979500D02*
D03*
Y899500D02*
D03*
Y959500D02*
D03*
Y939500D02*
D03*
Y919500D02*
D03*
Y999500D02*
D03*
Y1019500D02*
D03*
Y1059500D02*
D03*
Y1079500D02*
D03*
Y1099500D02*
D03*
Y1119500D02*
D03*
D42*
X269886Y830000D02*
D03*
X294778D02*
D03*
X319924D02*
D03*
X344816D02*
D03*
X369962D02*
D03*
X394854D02*
D03*
D43*
X420000D02*
D03*
D44*
X494250Y1219000D02*
D03*
X344000Y1073500D02*
D03*
X336750Y1027000D02*
D03*
X665250Y1270250D02*
D03*
X850250Y1240000D02*
D03*
X810250Y1260000D02*
D03*
X474000Y1170250D02*
D03*
D45*
X451750Y1161250D02*
D03*
X421250Y565250D02*
D03*
X906500Y648750D02*
D03*
X905500Y654750D02*
D03*
X473000Y651500D02*
D03*
X486000Y657750D02*
D03*
X478250Y664250D02*
D03*
X905000Y660500D02*
D03*
X904250Y666500D02*
D03*
X903500Y672000D02*
D03*
X566250Y737000D02*
D03*
X567000Y727000D02*
D03*
X903250Y209250D02*
D03*
X798000Y203250D02*
D03*
Y209250D02*
D03*
Y215250D02*
D03*
Y221250D02*
D03*
X513750Y166500D02*
D03*
Y172500D02*
D03*
Y178500D02*
D03*
Y184500D02*
D03*
X772750Y945250D02*
D03*
X715000Y950750D02*
D03*
X607250Y1003750D02*
D03*
X783520Y964770D02*
D03*
X786638Y954532D02*
D03*
X784860Y959612D02*
D03*
X782250Y970000D02*
D03*
X781050Y975360D02*
D03*
X598170Y1003808D02*
D03*
X589788Y1003554D02*
D03*
X581152D02*
D03*
X788162Y949706D02*
D03*
X102500Y157000D02*
D03*
X108500D02*
D03*
X114500D02*
D03*
X120500Y157250D02*
D03*
X126250D02*
D03*
X132000D02*
D03*
X137750D02*
D03*
X143500D02*
D03*
X175000Y157000D02*
D03*
X180750D02*
D03*
X186500D02*
D03*
X192250D02*
D03*
X198000D02*
D03*
X203500D02*
D03*
X209000D02*
D03*
X214500D02*
D03*
X931000Y479000D02*
D03*
X851250Y323500D02*
D03*
Y311000D02*
D03*
Y317250D02*
D03*
X959250Y529000D02*
D03*
X851250Y304500D02*
D03*
X963750Y500750D02*
D03*
D46*
X880250Y1030000D02*
D03*
D47*
X810250Y1320000D02*
D03*
X800250Y900000D02*
D03*
X880250Y840000D02*
D03*
X840250Y870000D02*
D03*
D48*
X880250Y1120000D02*
D03*
M02*
