<svg width="49.99999906mm" height="49.99999906mm" viewBox="0 0 19685039 19685039"  version="1.1" xmlns="http://www.w3.org/2000/svg" xmlns:xlink="http://www.w3.org/1999/xlink">
<desc>
Origin 3937008 3937008 Bound 3937007 3937007 19685039 19685039
</desc>
<g fill-rule="evenodd" fill="rgb(27, 144, 179)" stroke="black" stroke-width="1" transform="translate(0, 19685039) scale(1, -1) translate(-3937007, -3937007)">
<path id="N" d="M 15879134.00 21009595.00 L 11776772.00 21009595.00 A 397100.93 397100.93 0 1 0 11776772.00 21803791.00 L 15879134.00 21803791.00 A 397102.15 397102.15 0 1 0 15879134.00 21009595.00  zM 11776773.40 21406687.55 m -262249.45 0 a 262249.45 262249.45 0 1 1 524498.90 0a 262249.45 262249.45 0 1 1 -524498.90 0M 15879135.40 21406687.55 m -262249.45 0 a 262249.45 262249.45 0 1 1 524498.90 0a 262249.45 262249.45 0 1 1 -524498.90 0"/>
<path id="N" d="M 19957480.00 5759843.00 L 19642520.00 5759843.00 L 19642520.00 5853402.00 L 19371753.00 5853402.00 L 18899136.00 5380785.00 L 18877165.00 5371684.33 L 18877165.00 5268504.00 L 18522835.00 5268504.00 L 18522835.00 5583464.00 L 18877165.00 5583464.00 L 18877165.00 5539610.00 L 19300077.00 5962522.00 L 19345276.00 5981244.00 L 19642520.00 5981244.00 L 19642520.00 6074803.00 L 19957480.00 6074803.00 L 19957480.00 5759843.00  z"/>
<path id="N" d="M 21787484.00 18553626.00 L 22918586.00 17422524.00 A 397102.15 397102.15 0 0 0 23034893.00 17141725.40 L 23034894.00 14173228.00 A 397115.61 397115.61 0 0 0 22918586.00 13892437.00 L 21891626.65 12865477.65 L 21890260.00 12855097.00 A 397102.15 397102.15 0 0 0 21506693.00 12560776.00 L 19576771.00 12560776.00 L 19576771.00 11437008.00 L 18763921.00 11437008.00 L 18763921.00 6075590.00 L 18877165.00 6075590.00 L 18877165.00 5760630.00 L 18522835.00 5760630.00 L 18522835.00 6075590.00 L 18636079.00 6075590.00 L 18636079.00 11437008.00 L 15836615.00 11437008.00 L 15836615.00 15728346.00 L 19576771.00 15728346.00 L 19576771.00 13354972.00 L 21257957.00 13354972.00 L 22240697.00 14337712.00 L 22240697.00 16977249.00 L 21225902.00 17992044.00 A 397102.15 397102.15 0 1 0 21787484.00 18553626.00  zM 21506694.40 18272829.55 m -262249.45 0 a 262249.45 262249.45 0 1 1 524498.90 0a 262249.45 262249.45 0 1 1 -524498.90 0M 21506694.40 12957868.55 m -262249.45 0 a 262249.45 262249.45 0 1 1 524498.90 0a 262249.45 262249.45 0 1 1 -524498.90 0"/>
<path id="N" d="M 6152369.02 12957885.76 m -388308.55 0 a 388308.55 388308.55 0 1 1 776617.11 0a 388308.55 388308.55 0 1 1 -776617.11 0M 6152363.40 12957868.55 m -262249.45 0 a 262249.45 262249.45 0 1 1 524498.90 0a 262249.45 262249.45 0 1 1 -524498.90 0"/>
<path id="N" d="M 6152369.02 18272846.76 m -388308.55 0 a 388308.55 388308.55 0 1 1 776617.11 0a 388308.55 388308.55 0 1 1 -776617.11 0M 6152363.40 18272829.55 m -262249.45 0 a 262249.45 262249.45 0 1 1 524498.90 0a 262249.45 262249.45 0 1 1 -524498.90 0"/>
<path id="N" d="M 7857304.00 8415355.00 L 7857304.00 8120079.00 A 347448.28 347448.28 0 1 0 7162382.00 8120079.00 L 7162382.00 8415355.00 A 347448.28 347448.28 0 1 0 7857304.00 8415355.00  zM 7509843.36 8267717.47 m -200706.53 0 a 200706.53 200706.53 0 1 1 401413.05 0a 200706.53 200706.53 0 1 1 -401413.05 0"/>
<path id="N" d="M 10197638.00 14726161.00 L 9902362.00 14726161.00 A 347440.95 347440.95 0 1 0 9902362.00 15421083.00 L 10197638.00 15421083.00 A 347476.91 347476.91 0 0 0 10197638.00 14726161.00  zM 10050000.44 15073620.65 m -180637.35 0 a 180637.35 180637.35 0 1 1 361274.69 0a 180637.35 180637.35 0 1 1 -361274.69 0"/>
<path id="N" d="M 10197638.00 15710413.00 L 9902362.00 15710413.00 L 9812432.00 15722252.00 L 9797217.62 15728554.17 L 9461994.00 15393330.02 L 9461994.00 14088953.99 L 10745829.08 12805118.00 L 11003937.00 12805118.00 L 11003937.00 12490158.00 L 10649607.00 12490158.00 L 10649607.00 12748265.90 L 9369605.00 14028267.00 L 9353754.00 14066538.41 L 9353753.00 15415748.00 L 9369605.00 15454017.00 L 9696900.66 15781312.15 L 9656670.00 15812182.00 A 347476.91 347476.91 0 0 0 9902362.00 16405335.00 L 10197638.00 16405335.00 A 347476.91 347476.91 0 1 0 10197638.00 15710413.00  zM 10050000.44 16057872.65 m -180637.35 0 a 180637.35 180637.35 0 1 1 361274.69 0a 180637.35 180637.35 0 1 1 -361274.69 0"/>
<path id="N" d="M 18438605.00 20847222.00 L 15340416.00 17749033.00 A 791242.22 791242.22 0 0 0 14780945.00 17517293.00 L 14285306.00 17517293.00 L 14285306.00 16968504.00 A 791217.28 791217.28 0 1 0 12702884.00 16968504.00 L 12702884.00 18308504.00 A 791217.28 791217.28 0 0 0 13494095.00 19099715.00 L 14453214.00 19099715.00 L 17319663.00 21966164.00 A 791242.22 791242.22 0 0 0 18438605.00 20847222.00  zM 13494096.32 16968498.17 m -317723.83 0 a 317723.83 317723.83 0 1 1 635447.65 0a 317723.83 317723.83 0 1 1 -635447.65 0M 13494096.32 18308498.17 m -317723.83 0 a 317723.83 317723.83 0 1 1 635447.65 0a 317723.83 317723.83 0 1 1 -635447.65 0M 17879135.40 21406687.55 m -262249.45 0 a 262249.45 262249.45 0 1 1 524498.90 0a 262249.45 262249.45 0 1 1 -524498.90 0"/>
<path id="N" d="M 18195070.41 18310896.00 L 18503937.00 18310896.00 A 791217.28 791217.28 0 0 0 18503937.00 16728474.00 L 18154114.82 16728474.00 L 18135079.00 16665721.00 A 791232.26 791232.26 0 0 0 16612884.00 16968504.00 L 16612884.00 18308504.00 A 791217.28 791217.28 0 0 0 18195070.41 18310896.00  zM 17404096.32 16968498.17 m -317723.83 0 a 317723.83 317723.83 0 1 1 635447.65 0a 317723.83 317723.83 0 1 1 -635447.65 0M 17404096.32 18308498.17 m -317723.83 0 a 317723.83 317723.83 0 1 1 635447.65 0a 317723.83 317723.83 0 1 1 -635447.65 0"/>
<path id="N" d="M 15304527.00 13978077.00 L 15340527.16 13891164.78 L 15380233.00 13858579.00 A 593415.38 593415.38 0 0 0 15380233.00 13019373.00 L 15009843.00 12648983.00 L 15009843.00 12316929.00 L 14677789.00 12316929.00 L 14523934.00 12163074.00 A 593415.38 593415.38 0 0 0 13610930.00 12252997.00 L 13576757.36 12316929.00 L 13198819.00 12316929.00 L 13198819.00 12528557.00 L 12727930.02 12528557.00 L 12009136.00 11809762.00 L 11970864.59 11793911.00 L 11374875.00 11793910.00 L 11336605.29 11809763.71 L 11044976.05 12101392.00 L 11003937.00 12101392.00 L 11003937.00 11998032.00 L 10649607.00 11998032.00 L 10649607.00 12101392.00 L 10216535.00 12101392.00 L 10216535.00 11998032.00 L 9958427.23 11998032.00 L 9555986.00 11595590.00 L 9517714.59 11579739.00 L 9409448.00 11579739.00 L 9409448.00 11377954.00 L 8700788.00 11377954.00 L 8700788.00 11889764.00 L 9409448.00 11889764.00 L 9409448.00 11687979.00 L 9495299.03 11687979.00 L 9862205.00 12054884.27 L 9862205.00 12312992.00 L 10216535.00 12312992.00 L 10216535.00 12209632.00 L 10649607.00 12209632.00 L 10649607.00 12312992.00 L 11003937.00 12312992.00 L 11003937.00 12209632.00 L 11067394.00 12209633.00 L 11105663.00 12193781.00 L 11397292.05 11902151.00 L 11948449.02 11902151.00 L 12667244.00 12620946.00 L 12705513.00 12636797.00 L 13198819.00 12636797.00 L 13198819.00 12848425.00 L 13576757.36 12848425.00 L 13610930.00 12912357.00 L 13684728.00 13002280.00 L 14541027.00 13858579.00 L 14580732.84 13891164.78 L 14616733.00 13978077.00 A 397086.64 397086.64 0 0 0 15304527.00 13978077.00  z"/>
<path id="N" d="M 10443330.00 16796434.00 L 10403099.40 16765564.19 L 10865041.00 16303623.00 L 10880892.00 16265354.00 L 10880892.00 13457456.98 L 11533230.15 12805118.00 L 11695115.00 12805118.00 L 11776589.00 12886592.00 L 11776589.00 13208662.00 L 11673229.00 13208662.00 L 11673229.00 13562992.00 L 11988189.00 13562992.00 L 11988189.00 13208662.00 L 11884829.00 13208662.00 L 11884829.00 12864174.00 L 11868978.00 12825905.00 L 11791338.00 12748265.00 L 11791338.00 12490158.00 L 11437008.00 12490158.00 L 11437008.00 12748265.82 L 10788503.00 13396770.00 L 10772652.00 13435041.41 L 10772652.00 16242936.98 L 10302782.26 16712806.12 L 10287568.00 16706504.00 L 10197638.00 16694665.00 L 9902362.00 16694665.00 A 347440.95 347440.95 0 1 0 9902362.00 17389587.00 L 10197638.00 17389587.00 A 347476.91 347476.91 0 0 0 10443330.00 16796434.00  zM 10050000.44 17042124.65 m -180637.35 0 a 180637.35 180637.35 0 1 1 361274.69 0a 180637.35 180637.35 0 1 1 -361274.69 0"/>
<path id="N" d="M 12608268.00 15014750.00 L 13726378.00 15014751.00 L 13764647.00 14998899.00 L 13915120.60 14848425.00 L 15009843.00 14848425.00 L 15009843.00 14316929.00 L 14158451.00 14316929.00 L 14158452.00 13710630.00 L 14142600.00 13672361.00 L 14014647.00 13544408.00 L 13976375.59 13528557.00 L 13772618.77 13528557.00 L 13768106.00 13505870.00 A 200709.51 200709.51 0 1 0 13768106.00 13659484.00 L 13772618.77 13636797.00 L 13953960.00 13636797.00 L 14050211.00 13733048.00 L 14050211.00 14316929.00 L 13198819.00 14316929.00 L 13198819.00 14848425.00 L 13762045.20 14848425.00 L 13703960.04 14906510.00 L 12608268.00 14906510.00 L 12608268.00 14783465.00 L 12293308.00 14783465.00 L 12293308.00 15137795.00 L 12608268.00 15137795.00 L 12608268.00 15014750.00  z"/>
<path id="N" d="M 9131925.00 13397248.00 L 9106594.42 13392209.39 L 9109238.00 13385827.00 L 9109238.00 13031496.00 L 9409448.00 13031496.00 L 9409448.00 12829711.00 L 9911417.00 12829712.00 L 9949686.00 12813860.00 L 9958428.00 12805118.00 L 10216535.00 12805118.00 L 10216535.00 12490158.00 L 9862205.00 12490158.00 L 9862205.00 12721471.00 L 9409448.00 12721471.00 L 9409448.00 12519686.00 L 8700788.00 12519686.00 L 8700788.00 13031496.00 L 9000998.00 13031496.00 L 9000998.00 13385827.00 L 9003641.58 13392209.39 L 8978311.00 13397248.00 A 200709.51 200709.51 0 1 0 9131925.00 13397248.00  z"/>
<path id="N" d="M 12116142.00 14879687.35 L 12181576.00 14814254.00 L 12197427.00 14775985.00 L 12197427.00 14350394.00 L 12362205.00 14350394.00 L 12362205.00 13996064.00 L 12047245.00 13996064.00 L 12047245.00 14350394.00 L 12089187.00 14350394.00 L 12089187.00 14753567.91 L 12059289.75 14783465.00 L 11801182.00 14783465.00 L 11801182.00 15137795.00 L 12116142.00 15137795.00 L 12116142.00 14879687.35  z"/>
<path id="N" d="M 23622046.00 21653542.00 L 23622046.00 5905510.00 L 21653542.00 3937007.00 L 17716534.00 3937007.00 L 17716533.00 7970662.00 L 17702300.00 8260374.00 A 3941751.17 3941751.17 0 0 1 15969448.00 11151464.00 L 15784286.78 11262445.10 L 15744458.84 11291166.51 L 15757144.82 11337006.01 L 18537829.00 11337008.00 L 18537829.00 6175590.00 L 18422835.00 6175590.00 L 18422835.00 5168504.00 L 18977165.00 5168504.00 L 18977165.00 5319868.00 L 19412449.00 5755152.00 L 19542520.00 5755152.00 L 19542520.00 5659843.00 L 20057480.00 5659843.00 L 20057480.00 6174803.00 L 19542520.00 6174803.00 L 19542520.00 6079494.00 L 19345276.00 6079494.00 L 19283216.00 6067149.00 L 19230604.00 6031995.00 L 19023359.40 5824750.40 L 18977165.00 5843884.75 L 18977165.00 6175590.00 L 18862171.00 6175590.00 L 18862171.00 11337008.00 L 19676771.00 11337008.00 L 19676771.00 12459913.00 L 21506693.00 12459913.00 A 497975.40 497975.40 0 0 1 21937940.00 12708893.00 L 21980546.57 12811755.68 L 22989907.00 13821116.00 A 497964.81 497964.81 0 0 1 23135756.00 14173235.60 L 23135757.00 17141733.00 A 497962.69 497962.69 0 0 1 22989902.70 17493848.30 L 21858805.00 18624947.00 A 497982.79 497982.79 0 0 1 21154581.00 17920723.00 L 22139834.00 16935470.87 L 22139834.00 14379490.13 L 21216178.05 13455835.00 L 19676771.00 13455835.00 L 19676771.00 15828346.00 L 15736615.00 15828346.00 L 15736613.02 11349313.09 L 15700510.99 11319836.68 L 15657049.94 11338707.74 L 15637656.00 11350332.00 A 3941718.50 3941718.50 0 0 1 9856752.00 8260374.00 L 9842519.00 7970662.00 L 9842518.00 3937007.00 L 5905510.00 3937007.00 L 3937007.00 5905510.00 L 3937007.00 21653542.00 L 5905510.00 23622046.00 L 21653542.00 23622046.00 L 23622046.00 21653542.00  zM 5905512.59 5905502.52 m -753242.48 0 a 753242.48 753242.48 0 1 1 1506484.95 0a 753242.48 753242.48 0 1 1 -1506484.95 0M 8146634.00 8217717.00 L 8045772.00 8217717.00 L 8045772.00 8120079.00 A 448308.07 448308.07 0 0 1 8378060.00 7687032.00 L 8444095.00 7678338.50 L 8444095.00 7779200.34 L 8404165.00 7784457.00 A 347462.74 347462.74 0 0 0 8146634.00 8120079.00 L 8146634.00 8217717.00  zM 7061520.00 8415355.00 L 7061520.00 8120079.00 A 448308.07 448308.07 0 0 1 7958166.00 8120079.00 L 7958166.00 8415355.00 A 448308.07 448308.07 0 1 1 7061520.00 8415355.00  zM 8444095.00 8857095.50 L 8378060.00 8848402.00 A 448333.00 448333.00 0 0 1 8045772.00 8415355.00 L 8045772.00 8317717.00 L 8146634.00 8317717.00 L 8146634.00 8415355.00 A 347448.28 347448.28 0 0 0 8404165.00 8750977.00 L 8444095.00 8756233.66 L 8444095.00 8857095.50  zM 8942418.00 8217717.00 L 8841556.00 8217717.00 L 8841556.00 8120079.00 A 347448.28 347448.28 0 0 0 8584025.00 7784457.00 L 8544095.00 7779200.34 L 8544095.00 7678338.50 L 8610130.00 7687032.00 A 448333.00 448333.00 0 0 1 8942418.00 8120079.00 L 8942418.00 8217717.00  zM 8494095.36 8267717.47 m -200706.53 0 a 200706.53 200706.53 0 1 1 401413.05 0a 200706.53 200706.53 0 1 1 -401413.05 0M 8544095.00 8857095.50 L 8544095.00 8756233.66 L 8584025.00 8750977.00 A 347462.74 347462.74 0 0 0 8841556.00 8415355.00 L 8841556.00 8317717.00 L 8942418.00 8317717.00 L 8942418.00 8415355.00 A 448308.07 448308.07 0 0 1 8610130.00 8848402.00 L 8544095.00 8857095.50  zM 5770622.76 10907874.00 L 5669759.81 10907874.00 L 5679846.00 10831264.00 A 489175.01 489175.01 0 0 1 6025752.00 10485358.00 L 6102362.00 10475271.81 L 6102362.00 10576134.76 L 6051857.00 10582784.00 A 388308.55 388308.55 0 0 0 5777272.00 10857369.00 L 5770622.76 10907874.00  zM 6152363.40 10957868.55 m -262249.45 0 a 262249.45 262249.45 0 1 1 524498.90 0a 262249.45 262249.45 0 1 1 -524498.90 0M 6102362.00 11440476.19 L 6025752.00 11430390.00 A 489175.01 489175.01 0 0 1 5679846.00 11084484.00 L 5669759.81 11007874.00 L 5770622.76 11007874.00 L 5777272.00 11058379.00 A 388308.55 388308.55 0 0 0 6051857.00 11332964.00 L 6102362.00 11339613.24 L 6102362.00 11440476.19  zM 6152366.02 12957858.52 m -489200.48 0 a 489200.48 489200.48 0 1 1 978400.97 0a 489200.48 489200.48 0 1 1 -978400.97 0M 6634964.19 10907874.00 L 6534101.24 10907874.00 L 6527452.00 10857369.00 A 388308.55 388308.55 0 0 0 6252867.00 10582784.00 L 6202362.00 10576134.76 L 6202362.00 10475271.81 L 6278972.00 10485358.00 A 489175.01 489175.01 0 0 1 6624878.00 10831264.00 L 6634964.19 10907874.00  zM 6202362.00 11440476.19 L 6202362.00 11339613.24 L 6252867.00 11332964.00 A 388308.55 388308.55 0 0 0 6527452.00 11058379.00 L 6534101.24 11007874.00 L 6634964.19 11007874.00 L 6624878.00 11084484.00 A 489175.01 489175.01 0 0 1 6278972.00 11430390.00 L 6202362.00 11440476.19  zM 12421261.00 13335827.00 L 12321261.00 13335827.00 L 12321261.00 13108662.00 L 12528741.00 13108662.00 L 12528741.00 13208662.00 L 12421261.00 13208662.00 L 12421261.00 13335827.00  zM 19642520.00 5276771.00 L 19542520.00 5276771.00 L 19542520.00 5069291.00 L 19750000.00 5069291.00 L 19750000.00 5169291.00 L 19642520.00 5169291.00 L 19642520.00 5276771.00  zM 19750000.00 5584251.00 L 19542520.00 5584251.00 L 19542520.00 5376771.00 L 19642520.00 5376771.00 L 19642520.00 5484251.00 L 19750000.00 5484251.00 L 19750000.00 5584251.00  zM 20057480.00 5276771.00 L 19957480.00 5276771.00 L 19957480.00 5169291.00 L 19850000.00 5169291.00 L 19850000.00 5069291.00 L 20057480.00 5069291.00 L 20057480.00 5276771.00  zM 20057480.00 5584251.00 L 19850000.00 5584251.00 L 19850000.00 5484251.00 L 19957480.00 5484251.00 L 19957480.00 5376771.00 L 20057480.00 5376771.00 L 20057480.00 5584251.00  zM 12836221.00 13335827.00 L 12736221.00 13335827.00 L 12736221.00 13208662.00 L 12628741.00 13208662.00 L 12628741.00 13108662.00 L 12836221.00 13108662.00 L 12836221.00 13335827.00  zM 12528741.00 13662992.00 L 12321261.00 13662992.00 L 12321261.00 13435827.00 L 12421261.00 13435827.00 L 12421261.00 13562992.00 L 12528741.00 13562992.00 L 12528741.00 13662992.00  zM 12836221.00 13662992.00 L 12628741.00 13662992.00 L 12628741.00 13562992.00 L 12736221.00 13562992.00 L 12736221.00 13435827.00 L 12836221.00 13435827.00 L 12836221.00 13662992.00  zM 21653543.59 5905502.52 m -753242.48 0 a 753242.48 753242.48 0 1 1 1506484.95 0a 753242.48 753242.48 0 1 1 -1506484.95 0M 21124953.76 10907874.00 L 21024090.81 10907874.00 L 21034177.00 10831264.00 A 489160.84 489160.84 0 0 1 21380083.00 10485358.00 L 21456693.00 10475271.81 L 21456693.00 10576134.76 L 21406188.00 10582784.00 A 388308.55 388308.55 0 0 0 21131603.00 10857369.00 L 21124953.76 10907874.00  zM 21989295.19 10907874.00 L 21888432.24 10907874.00 L 21881783.00 10857369.00 A 388308.55 388308.55 0 0 0 21607198.00 10582784.00 L 21556693.00 10576134.76 L 21556693.00 10475271.81 L 21633303.00 10485358.00 A 489175.01 489175.01 0 0 1 21979209.00 10831264.00 L 21989295.19 10907874.00  zM 21456693.00 11440476.19 L 21380083.00 11430390.00 A 489175.01 489175.01 0 0 1 21034177.00 11084484.00 L 21024090.81 11007874.00 L 21124953.76 11007874.00 L 21131603.00 11058379.00 A 388308.55 388308.55 0 0 0 21406188.00 11332964.00 L 21456693.00 11339613.24 L 21456693.00 11440476.19  zM 21506694.40 10957868.55 m -262249.45 0 a 262249.45 262249.45 0 1 1 524498.90 0a 262249.45 262249.45 0 1 1 -524498.90 0M 21556693.00 11440476.19 L 21556693.00 11339613.24 L 21607198.00 11332964.00 A 388308.55 388308.55 0 0 0 21881783.00 11058379.00 L 21888432.24 11007874.00 L 21989295.19 11007874.00 L 21979209.00 11084484.00 A 489160.84 489160.84 0 0 1 21633303.00 11430390.00 L 21556693.00 11440476.19  zM 5770622.76 16222835.00 L 5669759.81 16222835.00 L 5679846.00 16146225.00 A 489175.01 489175.01 0 0 1 6025752.00 15800319.00 L 6102362.00 15790232.81 L 6102362.00 15891095.76 L 6051857.00 15897745.00 A 388308.55 388308.55 0 0 0 5777272.00 16172330.00 L 5770622.76 16222835.00  zM 6152363.40 16272829.55 m -262249.45 0 a 262249.45 262249.45 0 1 1 524498.90 0a 262249.45 262249.45 0 1 1 -524498.90 0M 6102362.00 16755437.19 L 6025752.00 16745351.00 A 489160.84 489160.84 0 0 1 5679846.00 16399445.00 L 5669759.81 16322835.00 L 5770622.76 16322835.00 L 5777272.00 16373340.00 A 388308.55 388308.55 0 0 0 6051857.00 16647925.00 L 6102362.00 16654574.24 L 6102362.00 16755437.19  zM 6152366.99 18272812.18 m -489207.82 0 a 489207.82 489207.82 0 1 1 978415.64 0a 489207.82 489207.82 0 1 1 -978415.64 0M 6634964.19 16222835.00 L 6534101.24 16222835.00 L 6527452.00 16172330.00 A 388308.55 388308.55 0 0 0 6252867.00 15897745.00 L 6202362.00 15891095.76 L 6202362.00 15790232.81 L 6278972.00 15800319.00 A 489160.84 489160.84 0 0 1 6624878.00 16146225.00 L 6634964.19 16222835.00  zM 6202362.00 16755437.19 L 6202362.00 16654574.24 L 6252867.00 16647925.00 A 388308.55 388308.55 0 0 0 6527452.00 16373340.00 L 6534101.24 16322835.00 L 6634964.19 16322835.00 L 6624878.00 16399445.00 A 489175.01 489175.01 0 0 1 6278972.00 16745351.00 L 6202362.00 16755437.19  zM 9561483.34 17976378.00 L 9460621.50 17976378.00 L 9469315.00 17910343.00 A 448318.82 448318.82 0 0 1 9902362.00 17578055.00 L 10000000.00 17578055.00 L 10000000.00 17678917.00 L 9902362.00 17678917.00 A 347440.95 347440.95 0 0 0 9566740.00 17936448.00 L 9561483.34 17976378.00  zM 5905512.59 21653533.52 m -753242.48 0 a 753242.48 753242.48 0 1 1 1506484.95 0a 753242.48 753242.48 0 1 1 -1506484.95 0M 9395032.76 21356693.00 L 9294169.81 21356693.00 L 9304256.00 21280083.00 A 489160.84 489160.84 0 0 1 9650162.00 20934177.00 L 9726772.00 20924090.81 L 9726772.00 21024953.76 L 9676267.00 21031603.00 A 388308.55 388308.55 0 0 0 9401682.00 21306188.00 L 9395032.76 21356693.00  zM 9726772.00 21889295.19 L 9650162.00 21879209.00 A 489175.01 489175.01 0 0 1 9304256.00 21533303.00 L 9294169.81 21456693.00 L 9395032.76 21456693.00 L 9401682.00 21507198.00 A 388308.55 388308.55 0 0 0 9676267.00 21781783.00 L 9726772.00 21788432.24 L 9726772.00 21889295.19  zM 10000000.00 18474701.00 L 9902362.00 18474701.00 A 448315.41 448315.41 0 0 1 9469315.00 18142413.00 L 9460621.50 18076378.00 L 9561483.34 18076378.00 L 9566740.00 18116308.00 A 347476.91 347476.91 0 0 0 9902362.00 18373839.00 L 10000000.00 18373839.00 L 10000000.00 18474701.00  zM 10259374.19 21356693.00 L 10158511.24 21356693.00 L 10151862.00 21306188.00 A 388308.55 388308.55 0 0 0 9877277.00 21031603.00 L 9826772.00 21024953.76 L 9826772.00 20924090.81 L 9903382.00 20934177.00 A 489175.01 489175.01 0 0 1 10249288.00 21280083.00 L 10259374.19 21356693.00  zM 9776773.40 21406687.55 m -262249.45 0 a 262249.45 262249.45 0 1 1 524498.90 0a 262249.45 262249.45 0 1 1 -524498.90 0M 10050000.44 18026376.65 m -180637.35 0 a 180637.35 180637.35 0 1 1 361274.69 0a 180637.35 180637.35 0 1 1 -361274.69 0M 10639378.50 17976378.00 L 10538516.66 17976378.00 L 10533260.00 17936448.00 A 347476.91 347476.91 0 0 0 10197638.00 17678917.00 L 10100000.00 17678917.00 L 10100000.00 17578055.00 L 10197638.00 17578055.00 A 448315.41 448315.41 0 0 1 10630685.00 17910343.00 L 10639378.50 17976378.00  zM 10197638.00 17490449.00 L 9902362.00 17490449.00 A 448315.41 448315.41 0 1 1 9902362.00 16593803.00 L 10197638.00 16593803.00 L 10272216.34 16603621.23 L 10342904.88 16532932.61 L 10313673.00 16490921.00 L 10197638.00 16506197.00 L 9902362.00 16506197.00 A 448315.41 448315.41 0 0 1 9514103.00 15833712.00 L 9555543.81 15779705.81 L 9299730.00 15523892.00 L 9266577.00 15474275.00 L 9254935.00 15415748.00 L 9254935.00 14066536.00 L 9266577.00 14008009.00 L 9299730.00 13958392.00 L 10303003.57 12955118.43 L 10282292.72 12905118.00 L 9987559.06 12905118.00 L 9969944.00 12916888.00 L 9911417.00 12928530.00 L 9509448.00 12928530.00 L 9509448.00 13131496.00 L 9208057.00 13131496.00 L 9208057.00 13325859.77 L 9266834.00 13370961.00 A 299421.33 299421.33 0 1 1 8902179.00 13325859.77 L 8902179.00 13131496.00 L 8600788.00 13131496.00 L 8600788.00 12419686.00 L 9509448.00 12419686.00 L 9509448.00 12622652.00 L 9762205.00 12622652.00 L 9762205.00 12094635.00 L 9555642.40 11888072.40 L 9509448.00 11907206.75 L 9509448.00 11989764.00 L 8600788.00 11989764.00 L 8600788.00 11277954.00 L 9509448.00 11277954.00 L 9509448.00 11480920.00 L 9517717.00 11480920.00 L 9576244.00 11492562.00 L 9625861.00 11525715.00 L 9998178.00 11898032.00 L 10316535.00 11898032.00 L 10316535.00 12002573.00 L 10549607.00 12002573.00 L 10549607.00 11898032.00 L 11103935.82 11898029.88 L 11139293.06 11867324.94 L 11266731.00 11739887.00 L 11316348.00 11706734.00 L 11374875.00 11695092.00 L 11970867.00 11695092.00 L 12029394.00 11706734.00 L 12079011.00 11739887.00 L 12768862.00 12429738.00 L 13098819.00 12429738.00 L 13098819.00 12216929.00 L 13516820.51 12216929.00 L 13527381.00 12197172.00 A 693846.88 693846.88 0 0 1 14594987.00 12092021.00 L 14719894.85 12216929.00 L 15109843.00 12216929.00 L 15109843.00 12606877.60 L 15451286.00 12948321.00 A 693876.02 693876.02 0 0 1 15451286.00 13929632.00 L 15423328.96 13952575.92 L 15391877.00 14028508.00 L 15312742.00 14131640.00 L 15209610.00 14210775.00 L 15109843.00 14252099.66 L 15109843.00 14948425.00 L 13954871.00 14948425.00 L 13834522.00 15068774.00 L 13784905.00 15101927.00 L 13726378.00 15113569.00 L 12708268.00 15113569.00 L 12708268.00 15237795.00 L 11701182.00 15237795.00 L 11701182.00 14683465.00 L 11990368.00 14683465.00 L 11990368.00 14450394.00 L 11947245.00 14450394.00 L 11947245.00 13896064.00 L 12462205.00 13896064.00 L 12462205.00 14450394.00 L 12296246.00 14450394.00 L 12296246.00 14683465.00 L 12708268.00 14683465.00 L 12708268.00 14807691.00 L 13098819.00 14807691.00 L 13098819.00 14216929.00 L 13951392.00 14216929.00 L 13951392.00 13773979.00 L 13913029.00 13735616.00 L 13839494.23 13735616.00 L 13794393.00 13794393.00 A 299421.33 299421.33 0 1 1 13839494.23 13429738.00 L 13904751.62 13429738.00 L 13923885.95 13383543.59 L 13613675.00 13073333.00 L 13527381.00 12968182.00 L 13516820.51 12948425.00 L 13098819.00 12948425.00 L 13098819.00 12735616.00 L 12705513.00 12735616.00 L 12646986.00 12723974.00 L 12597369.00 12690821.00 L 11941338.43 12034790.43 L 11891338.00 12055501.28 L 11891338.00 12105512.00 L 11791338.00 12105512.00 L 11791338.00 11998032.00 L 11437008.00 11998032.00 L 11437008.00 12312992.00 L 11791338.00 12312992.00 L 11791338.00 12205512.00 L 11891338.00 12205512.00 L 11891338.00 12708515.00 L 11938853.00 12756030.00 L 11972006.00 12805647.00 L 11983648.00 12864174.00 L 11983648.00 13108662.00 L 12088189.00 13108662.00 L 12088189.00 13662992.00 L 11573229.00 13662992.00 L 11573229.00 13108662.00 L 11677770.00 13108662.00 L 11677770.00 12927523.00 L 11655365.00 12905118.00 L 11572981.00 12905118.00 L 10979711.00 13498388.00 L 10979711.00 16265354.00 L 10968069.00 16323882.00 L 10934916.00 16373499.00 L 10544456.41 16763958.09 L 10585897.00 16817964.00 A 448315.41 448315.41 0 0 1 10197638.00 17490449.00  zM 16512400.00 18308504.00 L 16512400.00 16968504.00 A 891718.94 891718.94 0 0 1 18228133.32 16627990.00 L 18503937.00 16627990.00 A 891718.94 891718.94 0 1 1 18503937.00 18411380.00 L 18285657.40 18411380.00 L 18278656.00 18482465.00 A 891663.74 891663.74 0 0 1 16512400.00 18308504.00  zM 10197638.00 18474701.00 L 10100000.00 18474701.00 L 10100000.00 18373839.00 L 10197638.00 18373839.00 A 347440.95 347440.95 0 0 0 10533260.00 18116308.00 L 10538516.66 18076378.00 L 10639378.50 18076378.00 L 10630685.00 18142413.00 A 448318.82 448318.82 0 0 1 10197638.00 18474701.00  zM 9826772.00 21889295.19 L 9826772.00 21788432.24 L 9877277.00 21781783.00 A 388308.55 388308.55 0 0 0 10151862.00 21507198.00 L 10158511.24 21456693.00 L 10259374.19 21456693.00 L 10249288.00 21533303.00 A 489160.84 489160.84 0 0 1 9903382.00 21879209.00 L 9826772.00 21889295.19  zM 17248610.00 22037217.00 L 16361245.17 21149852.17 L 16318856.92 21178174.95 L 16360127.00 21277811.00 A 497951.52 497951.52 0 0 1 15879134.00 21904654.00 L 11776772.00 21904654.00 A 497968.06 497968.06 0 0 1 11776772.00 20908732.00 L 15879134.00 20908732.00 L 16008016.00 20925700.00 L 16107652.63 20966970.66 L 16135975.47 20924582.47 L 14411592.00 19200199.00 L 13494095.00 19200199.00 A 891718.94 891718.94 0 0 1 12602400.00 18308504.00 L 12602400.00 16968504.00 A 891718.94 891718.94 0 0 1 14385790.00 16968504.00 L 14385790.00 17416809.00 L 14780945.00 17416808.00 A 891744.96 891744.96 0 0 1 15411469.00 17677980.00 L 18509658.00 20776169.00 A 891735.35 891735.35 0 0 1 17248610.00 22037217.00  zM 21124953.76 16222835.00 L 21024090.81 16222835.00 L 21034177.00 16146225.00 A 489160.84 489160.84 0 0 1 21380083.00 15800319.00 L 21456693.00 15790232.81 L 21456693.00 15891095.76 L 21406188.00 15897745.00 A 388308.55 388308.55 0 0 0 21131603.00 16172330.00 L 21124953.76 16222835.00  zM 21506694.40 16272829.55 m -262249.45 0 a 262249.45 262249.45 0 1 1 524498.90 0a 262249.45 262249.45 0 1 1 -524498.90 0M 21989295.19 16222835.00 L 21888432.24 16222835.00 L 21881783.00 16172330.00 A 388308.55 388308.55 0 0 0 21607198.00 15897745.00 L 21556693.00 15891095.76 L 21556693.00 15790232.81 L 21633303.00 15800319.00 A 489160.84 489160.84 0 0 1 21979209.00 16146225.00 L 21989295.19 16222835.00  zM 21456693.00 16755437.19 L 21380083.00 16745351.00 A 489160.84 489160.84 0 0 1 21034177.00 16399445.00 L 21024090.81 16322835.00 L 21124953.76 16322835.00 L 21131603.00 16373340.00 A 388308.55 388308.55 0 0 0 21406188.00 16647925.00 L 21456693.00 16654574.24 L 21456693.00 16755437.19  zM 21556693.00 16755437.19 L 21556693.00 16654574.24 L 21607198.00 16647925.00 A 388308.55 388308.55 0 0 0 21881783.00 16373340.00 L 21888432.24 16322835.00 L 21989295.19 16322835.00 L 21979209.00 16399445.00 A 489160.84 489160.84 0 0 1 21633303.00 16745351.00 L 21556693.00 16755437.19  zM 21653543.59 21653533.52 m -753242.48 0 a 753242.48 753242.48 0 1 1 1506484.95 0a 753242.48 753242.48 0 1 1 -1506484.95 0"/>
<path id="N" d="M 10673833.00 14931098.60 L 10673833.00 13435039.00 L 10685475.00 13376512.00 L 10718628.00 13326895.00 L 11090404.57 12955118.43 L 11069693.72 12905118.00 L 10785580.00 12905118.00 L 9560813.00 14129885.00 L 9560813.00 14712413.65 L 9610813.47 14737071.01 L 9678200.00 14685363.00 L 9786327.00 14640575.00 L 9902362.00 14625299.00 L 10197638.00 14625299.00 A 448315.41 448315.41 0 0 1 10585897.00 14849460.00 L 10623832.75 14941044.33 L 10673833.00 14931098.60  z"/>
</g>
</svg>
