<svg width="49.99999906mm" height="49.99999906mm" viewBox="0 0 19685039 19685039"  version="1.1" xmlns="http://www.w3.org/2000/svg" xmlns:xlink="http://www.w3.org/1999/xlink">
<desc>
Origin 3937008 3937008 Bound 3937007 3937007 19685039 19685039
</desc>
<g fill-rule="evenodd" fill="rgb(192, 212, 212)" stroke="black" stroke-width="1" transform="translate(0, 19685039) scale(1, -1) translate(-3937007, -3937007)">
<path id="N" d="M 11015184.00 19021085.00 L 11027665.00 18990952.00 L 11027665.00 14109040.00 L 11015184.00 14078907.00 L 10985051.00 14066426.00 L 8721243.00 14066426.00 L 8691110.00 14078907.00 L 8678629.00 14109040.00 L 8678629.00 18990952.00 L 8691110.00 19021085.00 L 8721243.00 19033566.00 L 10985051.00 19033566.00 L 11015184.00 19021085.00  zM 10942437.00 18948338.00 L 8763857.00 18948338.00 L 8763857.00 14151654.00 L 10942437.00 14151654.00 L 10942437.00 18948338.00  z"/>
<path id="N" d="M 8858268.00 6441943.00 L 8070866.00 6441943.00 A 54118.70 54118.70 0 0 0 8070866.00 6550183.00 L 8858268.00 6550183.00 A 54121.84 54121.84 0 0 0 8858268.00 6441943.00  z"/>
<path id="N" d="M 11471443.00 18503937.00 L 11471443.00 17716536.00 A 54118.70 54118.70 0 0 0 11363203.00 17716536.00 L 11363203.00 18503937.00 A 54118.70 54118.70 0 0 0 11471443.00 18503937.00  z"/>
</g>
</svg>
