<svg width="49.99999906mm" height="49.99999906mm" viewBox="0 0 19685039 19685039"  version="1.1" xmlns="http://www.w3.org/2000/svg" xmlns:xlink="http://www.w3.org/1999/xlink">
<desc>
Origin 3937008 3937008 Bound 3937007 3937007 19685039 19685039
</desc>
<g fill-rule="evenodd" fill="rgb(40, 190, 190)" stroke="black" stroke-width="1" transform="translate(0, 19685039) scale(1, -1) translate(-3937007, -3937007)">
<path id="N" d="M 15879141.02 21406704.76 m -388308.55 0 a 388308.55 388308.55 0 1 1 776617.11 0a 388308.55 388308.55 0 1 1 -776617.11 0M 15879135.40 21406687.55 m -262249.45 0 a 262249.45 262249.45 0 1 1 524498.90 0a 262249.45 262249.45 0 1 1 -524498.90 0"/>
<path id="N" d="M 11776779.02 21406704.76 m -388308.55 0 a 388308.55 388308.55 0 1 1 776617.11 0a 388308.55 388308.55 0 1 1 -776617.11 0M 11776773.40 21406687.55 m -262249.45 0 a 262249.45 262249.45 0 1 1 524498.90 0a 262249.45 262249.45 0 1 1 -524498.90 0"/>
<path id="N" d="M 6433153.00 18553626.00 L 9516058.04 15470720.00 L 10050000.00 15470720.00 L 10152777.00 15457189.00 L 10248549.00 15417519.00 L 10253485.92 15413730.80 L 10287568.00 15409244.00 A 347476.91 347476.91 0 0 0 10287568.00 14738000.00 L 10253485.92 14733513.20 L 10248549.00 14729725.00 L 10152777.00 14690055.00 L 10050000.00 14676524.00 L 9351575.00 14676524.00 A 397100.93 397100.93 0 0 0 9070780.70 14792835.30 L 6152362.04 17711253.04 L 5334106.00 16892997.00 L 5334106.00 14337712.00 L 6316846.00 13354972.00 L 6953544.00 13354972.00 A 397100.93 397100.93 0 0 0 7234335.00 13238665.00 L 7792016.71 12680563.00 L 17016535.00 12680563.00 L 17119312.00 12667032.00 L 17212415.30 12628467.41 L 17225290.00 12637070.00 A 254896.24 254896.24 0 0 0 17420380.00 12166080.00 L 17391687.10 12160372.60 L 17360432.00 12084916.00 L 17342808.89 12061948.93 L 17420380.00 12046519.00 A 254898.03 254898.03 0 1 0 17067937.00 11811024.00 L 17084709.05 11895342.38 L 17016535.00 11886367.00 L 16972195.27 11886367.00 L 16987182.00 11811024.00 A 254898.66 254898.66 0 0 0 16477386.00 11811024.00 L 16492372.73 11886367.00 L 16381643.27 11886367.00 L 16396630.00 11811024.00 A 254898.66 254898.66 0 0 0 15886834.00 11811024.00 L 15901820.73 11886367.00 L 7906941.00 11886367.00 L 7906941.00 8267717.00 L 7893410.00 8164940.00 L 7853740.00 8069168.00 L 7849951.80 8064231.08 L 7845465.00 8030149.00 A 347462.74 347462.74 0 0 0 7174221.00 8030149.00 L 7169734.20 8064231.08 L 7165946.00 8069168.00 L 7126276.00 8164940.00 L 7112745.00 8267717.00 L 7112745.00 12237091.79 L 6789060.21 12560776.00 L 6152362.00 12560776.00 A 397100.93 397100.93 0 0 0 5871571.00 12677083.00 L 4656217.00 13892437.00 A 397102.15 397102.15 0 0 0 4539910.00 14173228.00 L 4539910.00 17057481.00 A 397100.93 397100.93 0 0 0 4656217.00 17338272.00 L 5871571.00 18553626.00 A 397102.15 397102.15 0 0 0 6433153.00 18553626.00  zM 7509843.36 8267717.47 m -200706.53 0 a 200706.53 200706.53 0 1 1 401413.05 0a 200706.53 200706.53 0 1 1 -401413.05 0M 6152363.40 12957868.55 m -262249.45 0 a 262249.45 262249.45 0 1 1 524498.90 0a 262249.45 262249.45 0 1 1 -524498.90 0M 6152363.40 18272829.55 m -262249.45 0 a 262249.45 262249.45 0 1 1 524498.90 0a 262249.45 262249.45 0 1 1 -524498.90 0M 10050000.44 15073620.65 m -180637.35 0 a 180637.35 180637.35 0 1 1 361274.69 0a 180637.35 180637.35 0 1 1 -361274.69 0"/>
<path id="N" d="M 21506700.02 12957885.76 m -388308.55 0 a 388308.55 388308.55 0 1 1 776617.11 0a 388308.55 388308.55 0 1 1 -776617.11 0M 21506694.40 12957868.55 m -262249.45 0 a 262249.45 262249.45 0 1 1 524498.90 0a 262249.45 262249.45 0 1 1 -524498.90 0"/>
<path id="N" d="M 21506700.02 18272846.76 m -388308.55 0 a 388308.55 388308.55 0 1 1 776617.11 0a 388308.55 388308.55 0 1 1 -776617.11 0M 21506694.40 18272829.55 m -262249.45 0 a 262249.45 262249.45 0 1 1 524498.90 0a 262249.45 262249.45 0 1 1 -524498.90 0"/>
<path id="N" d="M 17322834.88 14763779.88 m -254898.03 0 a 254898.03 254898.03 0 1 1 509796.06 0a 254898.03 254898.03 0 1 1 -509796.06 0"/>
<path id="N" d="M 16141731.88 14763779.88 m -254898.03 0 a 254898.03 254898.03 0 1 1 509796.06 0a 254898.03 254898.03 0 1 1 -509796.06 0"/>
<path id="N" d="M 16732283.88 14173227.88 m -254898.03 0 a 254898.03 254898.03 0 1 1 509796.06 0a 254898.03 254898.03 0 1 1 -509796.06 0"/>
<path id="N" d="M 16732283.88 12992125.88 m -254898.03 0 a 254898.03 254898.03 0 1 1 509796.06 0a 254898.03 254898.03 0 1 1 -509796.06 0"/>
<path id="N" d="M 16141731.88 12992125.88 m -254898.03 0 a 254898.03 254898.03 0 1 1 509796.06 0a 254898.03 254898.03 0 1 1 -509796.06 0"/>
<path id="N" d="M 16141731.88 14173227.88 m -254898.03 0 a 254898.03 254898.03 0 1 1 509796.06 0a 254898.03 254898.03 0 1 1 -509796.06 0"/>
<path id="N" d="M 16732283.88 13582676.88 m -254898.03 0 a 254898.03 254898.03 0 1 1 509796.06 0a 254898.03 254898.03 0 1 1 -509796.06 0"/>
<path id="N" d="M 17322834.88 14173227.88 m -254898.03 0 a 254898.03 254898.03 0 1 1 509796.06 0a 254898.03 254898.03 0 1 1 -509796.06 0"/>
<path id="N" d="M 16732283.88 15354330.88 m -254898.03 0 a 254898.03 254898.03 0 1 1 509796.06 0a 254898.03 254898.03 0 1 1 -509796.06 0"/>
<path id="N" d="M 17322834.88 15354330.88 m -254898.03 0 a 254898.03 254898.03 0 1 1 509796.06 0a 254898.03 254898.03 0 1 1 -509796.06 0"/>
<path id="N" d="M 16732283.88 14763779.88 m -254898.03 0 a 254898.03 254898.03 0 1 1 509796.06 0a 254898.03 254898.03 0 1 1 -509796.06 0"/>
<path id="N" d="M 16141731.88 13582676.88 m -254898.03 0 a 254898.03 254898.03 0 1 1 509796.06 0a 254898.03 254898.03 0 1 1 -509796.06 0"/>
<path id="N" d="M 17322834.88 12992125.88 m -254898.03 0 a 254898.03 254898.03 0 1 1 509796.06 0a 254898.03 254898.03 0 1 1 -509796.06 0"/>
<path id="N" d="M 16141731.88 15354330.88 m -254898.03 0 a 254898.03 254898.03 0 1 1 509796.06 0a 254898.03 254898.03 0 1 1 -509796.06 0"/>
<path id="N" d="M 10197638.00 15710413.00 L 9902362.00 15710413.00 A 347440.95 347440.95 0 1 0 9902362.00 16405335.00 L 10197638.00 16405335.00 A 347476.91 347476.91 0 1 0 10197638.00 15710413.00  zM 10050000.44 16057872.65 m -180637.35 0 a 180637.35 180637.35 0 1 1 361274.69 0a 180637.35 180637.35 0 1 1 -361274.69 0"/>
<path id="N" d="M 13494094.48 16968503.61 m -479099.43 0 a 479099.43 479099.43 0 1 1 958198.86 0a 479099.43 479099.43 0 1 1 -958198.86 0M 13494096.32 16968498.17 m -317723.83 0 a 317723.83 317723.83 0 1 1 635447.65 0a 317723.83 317723.83 0 1 1 -635447.65 0"/>
<path id="N" d="M 17879141.02 21406704.76 m -388308.55 0 a 388308.55 388308.55 0 1 1 776617.11 0a 388308.55 388308.55 0 1 1 -776617.11 0M 17879135.40 21406687.55 m -262249.45 0 a 262249.45 262249.45 0 1 1 524498.90 0a 262249.45 262249.45 0 1 1 -524498.90 0"/>
<path id="N" d="M 13494094.48 18308503.61 m -479099.43 0 a 479099.43 479099.43 0 1 1 958198.86 0a 479099.43 479099.43 0 1 1 -958198.86 0M 13494096.32 18308498.17 m -317723.83 0 a 317723.83 317723.83 0 1 1 635447.65 0a 317723.83 317723.83 0 1 1 -635447.65 0"/>
<path id="N" d="M 19063408.00 16960215.00 L 18035456.00 15932262.00 A 791242.22 791242.22 0 0 0 17475985.00 15700522.00 L 15998336.00 15700522.00 L 15795541.00 15497727.00 L 15795541.00 14088090.00 A 791217.28 791217.28 0 1 0 14213119.00 14088090.00 L 14213119.00 15825458.00 A 791227.24 791227.24 0 0 0 14444859.00 16384929.00 L 15111134.00 17051204.00 A 791242.22 791242.22 0 0 0 15670605.00 17282944.00 L 17046648.68 17282944.00 L 17065321.00 17307278.00 L 17164546.00 17383416.00 L 17280095.00 17431278.00 L 17299088.99 17433778.62 L 17944467.00 18079156.00 A 791223.82 791223.82 0 0 0 19063408.00 16960215.00  zM 17404096.32 16968498.17 m -317723.83 0 a 317723.83 317723.83 0 1 1 635447.65 0a 317723.83 317723.83 0 1 1 -635447.65 0"/>
<path id="N" d="M 17404094.48 18308503.61 m -479099.43 0 a 479099.43 479099.43 0 1 1 958198.86 0a 479099.43 479099.43 0 1 1 -958198.86 0M 17404096.32 18308498.17 m -317723.83 0 a 317723.83 317723.83 0 1 1 635447.65 0a 317723.83 317723.83 0 1 1 -635447.65 0"/>
<path id="N" d="M 10197638.00 16694665.00 L 9902362.00 16694665.00 A 347440.95 347440.95 0 1 0 9902362.00 17389587.00 L 10197638.00 17389587.00 A 347476.91 347476.91 0 0 0 10197638.00 16694665.00  zM 10050000.44 17042124.65 m -180637.35 0 a 180637.35 180637.35 0 1 1 361274.69 0a 180637.35 180637.35 0 1 1 -361274.69 0"/>
<path id="N" d="M 13397248.00 13505870.00 L 13392735.23 13528557.00 L 9245059.77 13528557.00 L 9240547.00 13505870.00 A 200709.51 200709.51 0 1 0 9240547.00 13659484.00 L 9245059.77 13636797.00 L 13392735.23 13636797.00 L 13397248.00 13659484.00 A 200709.51 200709.51 0 1 0 13397248.00 13505870.00  z"/>
<path id="N" d="M 23622046.00 21653542.00 L 23622046.00 5905510.00 L 21653542.00 3937007.00 L 17716534.00 3937007.00 L 17716533.00 7970662.00 L 17702300.00 8260374.00 A 3941751.17 3941751.17 0 0 1 14923757.00 11646038.00 L 14566589.45 11735503.84 L 14572756.39 11785504.00 L 15792071.82 11785504.00 L 15800741.00 11719656.00 A 353027.42 353027.42 0 0 1 16391355.00 11561401.00 L 16412007.66 11588316.35 L 16462008.34 11588316.35 L 16482661.00 11561401.00 A 353027.42 353027.42 0 0 1 16981907.00 11561401.00 L 17002559.16 11588315.70 L 17052559.84 11588315.70 L 17073212.00 11561401.00 A 353027.42 353027.42 0 0 1 17572458.00 12060647.00 L 17545543.30 12081299.16 L 17545543.30 12131299.84 L 17572458.00 12151952.00 A 353027.42 353027.42 0 0 1 17572458.00 12651198.00 L 17545543.30 12671850.16 L 17545543.30 12721850.84 L 17572458.00 12742503.00 A 353027.42 353027.42 0 0 1 17073212.00 13241749.00 L 17052559.84 13214834.30 L 17002559.16 13214834.30 L 16981907.00 13241749.00 L 16954992.30 13262401.16 L 16954992.30 13312401.84 L 16981907.00 13333054.00 A 353027.42 353027.42 0 0 1 16981907.00 13832300.00 L 16954992.30 13852952.16 L 16954992.30 13902952.84 L 16981907.00 13923605.00 L 17002559.16 13950519.70 L 17052559.84 13950519.70 L 17073212.00 13923605.00 A 353027.42 353027.42 0 0 1 17572458.00 14422851.00 L 17545542.65 14443503.66 L 17545542.65 14493504.34 L 17572458.00 14514157.00 A 353027.42 353027.42 0 0 1 17572458.00 15013403.00 L 17545543.30 15034055.16 L 17545543.30 15084055.84 L 17572458.00 15104708.00 A 353027.42 353027.42 0 0 1 17628559.00 15530841.00 L 17604316.28 15562435.05 L 17627068.65 15614918.60 L 17649946.00 15617172.00 A 891663.74 891663.74 0 0 1 18106509.00 15861209.00 L 19134461.00 16889162.00 A 891716.95 891716.95 0 0 1 18162700.00 18343504.00 L 18029740.29 18272434.95 L 17983364.59 18303244.68 L 17984057.00 18308504.00 A 579973.27 579973.27 0 1 1 17253990.00 17748304.00 L 17383717.96 17731224.73 L 17403859.68 17680655.14 L 17250436.50 17527232.11 L 17114114.00 17470766.00 L 17000293.26 17383428.00 L 15670605.00 17383428.00 A 891718.94 891718.94 0 0 1 15040076.42 17122251.42 L 14373806.00 16455982.00 A 891735.35 891735.35 0 0 1 14112635.00 15825447.85 L 14112635.00 14088090.00 A 891718.94 891718.94 0 0 1 15634854.00 13457566.00 L 15740061.21 13585762.76 L 15760250.40 13584481.92 L 15790367.58 13570101.77 L 15800741.00 13491309.00 L 15836008.00 13406167.00 L 15892109.00 13333054.00 L 15919023.70 13312401.84 L 15919023.70 13262401.16 L 15892109.00 13241749.00 A 353027.42 353027.42 0 0 1 15800741.00 12900758.00 L 15829459.07 12831426.51 L 15804869.26 12781426.00 L 7834215.05 12781426.00 L 7305656.00 13309986.00 A 497968.61 497968.61 0 0 1 6953536.40 13455835.00 L 6358625.00 13455835.00 L 5434969.00 14379491.00 L 5434969.00 16851218.00 L 6152362.06 17568611.06 L 8999463.00 14721510.00 A 497958.23 497958.23 0 0 1 9351575.00 14575661.00 L 10050000.00 14575661.00 L 10178882.00 14592629.00 L 10285764.01 14636900.78 L 10313673.00 14640575.00 A 448318.82 448318.82 0 0 1 10313673.00 15506669.00 L 10285764.01 15510343.22 L 10178882.00 15554615.00 L 10141390.84 15559550.91 L 10144668.09 15609551.00 L 10197638.00 15609551.00 A 448315.41 448315.41 0 0 1 10197638.00 16506197.00 L 9902362.00 16506197.00 A 448315.41 448315.41 0 0 1 9786327.00 15624827.00 L 9810967.43 15621583.09 L 9807690.31 15571583.00 L 9557837.05 15571583.00 L 6504474.00 18624947.00 A 497978.99 497978.99 0 0 1 5800250.00 18624947.00 L 4584896.00 17409593.00 A 497954.44 497954.44 0 0 1 4439047.00 17057473.40 L 4439046.00 14173228.00 A 497982.73 497982.73 0 0 1 4584896.00 13821116.00 L 5800250.00 12605762.00 A 497968.61 497968.61 0 0 1 6152362.00 12459913.00 L 6747281.26 12459913.00 L 7011882.00 12195312.74 L 7011882.00 8267717.00 L 7028850.00 8138835.00 L 7073121.96 8031951.68 L 7076796.00 8004044.00 A 448333.00 448333.00 0 0 1 7942890.00 8004044.00 L 7946564.04 8031951.68 L 7990836.00 8138835.00 L 7995771.91 8176326.16 L 8045772.00 8173048.91 L 8045772.00 8120079.00 A 448308.07 448308.07 0 0 1 8378060.00 7687032.00 L 8444095.00 7678338.50 L 8444095.00 7779200.34 L 8404165.00 7784457.00 A 347462.74 347462.74 0 0 0 8146634.00 8120079.00 L 8146634.00 8415355.00 A 347448.28 347448.28 0 0 0 8404165.00 8750977.00 L 8444095.00 8756233.66 L 8444095.00 8857095.50 L 8378060.00 8848402.00 A 448333.00 448333.00 0 0 1 8061048.00 8531390.00 L 8057804.09 8506749.57 L 8007804.00 8510026.69 L 8007804.00 11785504.00 L 12986295.61 11785504.00 L 12992462.55 11735503.84 L 12635295.00 11646038.00 A 3941718.50 3941718.50 0 0 1 9856752.00 8260374.00 L 9842519.00 7970662.00 L 9842518.00 3937007.00 L 5905510.00 3937007.00 L 3937007.00 5905510.00 L 3937007.00 21653542.00 L 5905510.00 23622046.00 L 21653542.00 23622046.00 L 23622046.00 21653542.00  zM 5905512.59 5905502.52 m -753242.48 0 a 753242.48 753242.48 0 1 1 1506484.95 0a 753242.48 753242.48 0 1 1 -1506484.95 0M 8494095.36 8267717.47 m -200706.53 0 a 200706.53 200706.53 0 1 1 401413.05 0a 200706.53 200706.53 0 1 1 -401413.05 0M 8942418.00 8217717.00 L 8841556.00 8217717.00 L 8841556.00 8120079.00 A 347448.28 347448.28 0 0 0 8584025.00 7784457.00 L 8544095.00 7779200.34 L 8544095.00 7678338.50 L 8610130.00 7687032.00 A 448333.00 448333.00 0 0 1 8942418.00 8120079.00 L 8942418.00 8217717.00  zM 5770622.76 10907874.00 L 5669759.81 10907874.00 L 5679846.00 10831264.00 A 489175.01 489175.01 0 0 1 6025752.00 10485358.00 L 6102362.00 10475271.81 L 6102362.00 10576134.76 L 6051857.00 10582784.00 A 388308.55 388308.55 0 0 0 5777272.00 10857369.00 L 5770622.76 10907874.00  zM 6634964.19 10907874.00 L 6534101.24 10907874.00 L 6527452.00 10857369.00 A 388308.55 388308.55 0 0 0 6252867.00 10582784.00 L 6202362.00 10576134.76 L 6202362.00 10475271.81 L 6278972.00 10485358.00 A 489175.01 489175.01 0 0 1 6624878.00 10831264.00 L 6634964.19 10907874.00  zM 8544095.00 8857095.50 L 8544095.00 8756233.66 L 8584025.00 8750977.00 A 347462.74 347462.74 0 0 0 8841556.00 8415355.00 L 8841556.00 8317717.00 L 8942418.00 8317717.00 L 8942418.00 8415355.00 A 448308.07 448308.07 0 0 1 8610130.00 8848402.00 L 8544095.00 8857095.50  zM 6152363.40 10957868.55 m -262249.45 0 a 262249.45 262249.45 0 1 1 524498.90 0a 262249.45 262249.45 0 1 1 -524498.90 0M 6102362.00 11440476.19 L 6025752.00 11430390.00 A 489175.01 489175.01 0 0 1 5679846.00 11084484.00 L 5669759.81 11007874.00 L 5770622.76 11007874.00 L 5777272.00 11058379.00 A 388308.55 388308.55 0 0 0 6051857.00 11332964.00 L 6102362.00 11339613.24 L 6102362.00 11440476.19  zM 6202362.00 11440476.19 L 6202362.00 11339613.24 L 6252867.00 11332964.00 A 388308.55 388308.55 0 0 0 6527452.00 11058379.00 L 6534101.24 11007874.00 L 6634964.19 11007874.00 L 6624878.00 11084484.00 A 489175.01 489175.01 0 0 1 6278972.00 11430390.00 L 6202362.00 11440476.19  zM 5770622.76 16222835.00 L 5669759.81 16222835.00 L 5679846.00 16146225.00 A 489175.01 489175.01 0 0 1 6025752.00 15800319.00 L 6102362.00 15790232.81 L 6102362.00 15891095.76 L 6051857.00 15897745.00 A 388308.55 388308.55 0 0 0 5777272.00 16172330.00 L 5770622.76 16222835.00  zM 6152363.40 16272829.55 m -262249.45 0 a 262249.45 262249.45 0 1 1 524498.90 0a 262249.45 262249.45 0 1 1 -524498.90 0M 6634964.19 16222835.00 L 6534101.24 16222835.00 L 6527452.00 16172330.00 A 388308.55 388308.55 0 0 0 6252867.00 15897745.00 L 6202362.00 15891095.76 L 6202362.00 15790232.81 L 6278972.00 15800319.00 A 489160.84 489160.84 0 0 1 6624878.00 16146225.00 L 6634964.19 16222835.00  zM 13325859.77 13735616.00 L 9311935.23 13735616.00 L 9266834.00 13794393.00 A 299421.33 299421.33 0 1 1 9311935.23 13429738.00 L 13325859.77 13429738.00 L 13370961.00 13370961.00 A 299421.33 299421.33 0 1 1 13325859.77 13735616.00  zM 21456693.00 11440476.19 L 21380083.00 11430390.00 A 489175.01 489175.01 0 0 1 21034177.00 11084484.00 L 21024090.81 11007874.00 L 21124953.76 11007874.00 L 21131603.00 11058379.00 A 388308.55 388308.55 0 0 0 21406188.00 11332964.00 L 21456693.00 11339613.24 L 21456693.00 11440476.19  zM 21124953.76 16222835.00 L 21024090.81 16222835.00 L 21034177.00 16146225.00 A 489160.84 489160.84 0 0 1 21380083.00 15800319.00 L 21456693.00 15790232.81 L 21456693.00 15891095.76 L 21406188.00 15897745.00 A 388308.55 388308.55 0 0 0 21131603.00 16172330.00 L 21124953.76 16222835.00  zM 21124953.76 10907874.00 L 21024090.81 10907874.00 L 21034177.00 10831264.00 A 489160.84 489160.84 0 0 1 21380083.00 10485358.00 L 21456693.00 10475271.81 L 21456693.00 10576134.76 L 21406188.00 10582784.00 A 388308.55 388308.55 0 0 0 21131603.00 10857369.00 L 21124953.76 10907874.00  zM 21506694.40 10957868.55 m -262249.45 0 a 262249.45 262249.45 0 1 1 524498.90 0a 262249.45 262249.45 0 1 1 -524498.90 0M 21506697.02 12957858.52 m -489200.48 0 a 489200.48 489200.48 0 1 1 978400.97 0a 489200.48 489200.48 0 1 1 -978400.97 0M 21653543.59 5905502.52 m -753242.48 0 a 753242.48 753242.48 0 1 1 1506484.95 0a 753242.48 753242.48 0 1 1 -1506484.95 0M 21989295.19 10907874.00 L 21888432.24 10907874.00 L 21881783.00 10857369.00 A 388308.55 388308.55 0 0 0 21607198.00 10582784.00 L 21556693.00 10576134.76 L 21556693.00 10475271.81 L 21633303.00 10485358.00 A 489175.01 489175.01 0 0 1 21979209.00 10831264.00 L 21989295.19 10907874.00  zM 21556693.00 11440476.19 L 21556693.00 11339613.24 L 21607198.00 11332964.00 A 388308.55 388308.55 0 0 0 21881783.00 11058379.00 L 21888432.24 11007874.00 L 21989295.19 11007874.00 L 21979209.00 11084484.00 A 489160.84 489160.84 0 0 1 21633303.00 11430390.00 L 21556693.00 11440476.19  zM 21506694.40 16272829.55 m -262249.45 0 a 262249.45 262249.45 0 1 1 524498.90 0a 262249.45 262249.45 0 1 1 -524498.90 0M 21989295.19 16222835.00 L 21888432.24 16222835.00 L 21881783.00 16172330.00 A 388308.55 388308.55 0 0 0 21607198.00 15897745.00 L 21556693.00 15891095.76 L 21556693.00 15790232.81 L 21633303.00 15800319.00 A 489160.84 489160.84 0 0 1 21979209.00 16146225.00 L 21989295.19 16222835.00  zM 6102362.00 16755437.19 L 6025752.00 16745351.00 A 489160.84 489160.84 0 0 1 5679846.00 16399445.00 L 5669759.81 16322835.00 L 5770622.76 16322835.00 L 5777272.00 16373340.00 A 388308.55 388308.55 0 0 0 6051857.00 16647925.00 L 6102362.00 16654574.24 L 6102362.00 16755437.19  zM 6202362.00 16755437.19 L 6202362.00 16654574.24 L 6252867.00 16647925.00 A 388308.55 388308.55 0 0 0 6527452.00 16373340.00 L 6534101.24 16322835.00 L 6634964.19 16322835.00 L 6624878.00 16399445.00 A 489175.01 489175.01 0 0 1 6278972.00 16745351.00 L 6202362.00 16755437.19  zM 9561483.34 17976378.00 L 9460621.50 17976378.00 L 9469315.00 17910343.00 A 448318.82 448318.82 0 0 1 9902362.00 17578055.00 L 10000000.00 17578055.00 L 10000000.00 17678917.00 L 9902362.00 17678917.00 A 347440.95 347440.95 0 0 0 9566740.00 17936448.00 L 9561483.34 17976378.00  zM 10197638.00 17490449.00 L 9902362.00 17490449.00 A 448315.41 448315.41 0 1 1 9902362.00 16593803.00 L 10197638.00 16593803.00 A 448315.41 448315.41 0 0 1 10197638.00 17490449.00  zM 10050000.44 18026376.65 m -180637.35 0 a 180637.35 180637.35 0 1 1 361274.69 0a 180637.35 180637.35 0 1 1 -361274.69 0M 10000000.00 18474701.00 L 9902362.00 18474701.00 A 448315.41 448315.41 0 0 1 9469315.00 18142413.00 L 9460621.50 18076378.00 L 9561483.34 18076378.00 L 9566740.00 18116308.00 A 347476.91 347476.91 0 0 0 9902362.00 18373839.00 L 10000000.00 18373839.00 L 10000000.00 18474701.00  zM 5905512.59 21653533.52 m -753242.48 0 a 753242.48 753242.48 0 1 1 1506484.95 0a 753242.48 753242.48 0 1 1 -1506484.95 0M 9395032.76 21356693.00 L 9294169.81 21356693.00 L 9304256.00 21280083.00 A 489160.84 489160.84 0 0 1 9650162.00 20934177.00 L 9726772.00 20924090.81 L 9726772.00 21024953.76 L 9676267.00 21031603.00 A 388308.55 388308.55 0 0 0 9401682.00 21306188.00 L 9395032.76 21356693.00  zM 9726772.00 21889295.19 L 9650162.00 21879209.00 A 489175.01 489175.01 0 0 1 9304256.00 21533303.00 L 9294169.81 21456693.00 L 9395032.76 21456693.00 L 9401682.00 21507198.00 A 388308.55 388308.55 0 0 0 9676267.00 21781783.00 L 9726772.00 21788432.24 L 9726772.00 21889295.19  zM 9776773.40 21406687.55 m -262249.45 0 a 262249.45 262249.45 0 1 1 524498.90 0a 262249.45 262249.45 0 1 1 -524498.90 0M 10259374.19 21356693.00 L 10158511.24 21356693.00 L 10151862.00 21306188.00 A 388308.55 388308.55 0 0 0 9877277.00 21031603.00 L 9826772.00 21024953.76 L 9826772.00 20924090.81 L 9903382.00 20934177.00 A 489175.01 489175.01 0 0 1 10249288.00 21280083.00 L 10259374.19 21356693.00  zM 9826772.00 21889295.19 L 9826772.00 21788432.24 L 9877277.00 21781783.00 A 388308.55 388308.55 0 0 0 10151862.00 21507198.00 L 10158511.24 21456693.00 L 10259374.19 21456693.00 L 10249288.00 21533303.00 A 489160.84 489160.84 0 0 1 9903382.00 21879209.00 L 9826772.00 21889295.19  zM 10639378.50 17976378.00 L 10538516.66 17976378.00 L 10533260.00 17936448.00 A 347476.91 347476.91 0 0 0 10197638.00 17678917.00 L 10100000.00 17678917.00 L 10100000.00 17578055.00 L 10197638.00 17578055.00 A 448315.41 448315.41 0 0 1 10630685.00 17910343.00 L 10639378.50 17976378.00  zM 10197638.00 18474701.00 L 10100000.00 18474701.00 L 10100000.00 18373839.00 L 10197638.00 18373839.00 A 347440.95 347440.95 0 0 0 10533260.00 18116308.00 L 10538516.66 18076378.00 L 10639378.50 18076378.00 L 10630685.00 18142413.00 A 448318.82 448318.82 0 0 1 10197638.00 18474701.00  zM 11776776.02 21406677.52 m -489200.48 0 a 489200.48 489200.48 0 1 1 978400.97 0a 489200.48 489200.48 0 1 1 -978400.97 0M 13494097.72 16968492.73 m -579973.27 0 a 579973.27 579973.27 0 1 1 1159946.55 0a 579973.27 579973.27 0 1 1 -1159946.55 0M 13494097.72 18308492.73 m -579973.27 0 a 579973.27 579973.27 0 1 1 1159946.55 0a 579973.27 579973.27 0 1 1 -1159946.55 0M 15879138.02 21406677.52 m -489200.48 0 a 489200.48 489200.48 0 1 1 978400.97 0a 489200.48 489200.48 0 1 1 -978400.97 0M 21456693.00 16755437.19 L 21380083.00 16745351.00 A 489160.84 489160.84 0 0 1 21034177.00 16399445.00 L 21024090.81 16322835.00 L 21124953.76 16322835.00 L 21131603.00 16373340.00 A 388308.55 388308.55 0 0 0 21406188.00 16647925.00 L 21456693.00 16654574.24 L 21456693.00 16755437.19  zM 21556693.00 16755437.19 L 21556693.00 16654574.24 L 21607198.00 16647925.00 A 388308.55 388308.55 0 0 0 21881783.00 16373340.00 L 21888432.24 16322835.00 L 21989295.19 16322835.00 L 21979209.00 16399445.00 A 489160.84 489160.84 0 0 1 21633303.00 16745351.00 L 21556693.00 16755437.19  zM 21506697.99 18272812.18 m -489207.82 0 a 489207.82 489207.82 0 1 1 978415.64 0a 489207.82 489207.82 0 1 1 -978415.64 0M 17879138.02 21406677.52 m -489200.48 0 a 489200.48 489200.48 0 1 1 978400.97 0a 489200.48 489200.48 0 1 1 -978400.97 0M 21653543.59 21653533.52 m -753242.48 0 a 753242.48 753242.48 0 1 1 1506484.95 0a 753242.48 753242.48 0 1 1 -1506484.95 0"/>
</g>
</svg>
