<svg width="49.99999906mm" height="49.99999906mm" viewBox="0 0 19685039 19685039"  version="1.1" xmlns="http://www.w3.org/2000/svg" xmlns:xlink="http://www.w3.org/1999/xlink">
<desc>
Origin 3937008 3937008 Bound 3937007 3937007 19685039 19685039
</desc>
<g fill-rule="evenodd" fill="rgb(174, 78, 0)" stroke="black" stroke-width="1" transform="translate(0, 19685039) scale(1, -1) translate(-3937007, -3937007)">
<path id="N" d="M 11776780.92 21406711.91 m -428646.84 0 a 428646.84 428646.84 0 1 1 857293.67 0a 428646.84 428646.84 0 1 1 -857293.67 0M 11776773.40 21406687.55 m -262249.45 0 a 262249.45 262249.45 0 1 1 524498.90 0a 262249.45 262249.45 0 1 1 -524498.90 0"/>
<path id="N" d="M 15879142.92 21406711.91 m -428646.84 0 a 428646.84 428646.84 0 1 1 857293.67 0a 428646.84 428646.84 0 1 1 -857293.67 0M 15879135.40 21406687.55 m -262249.45 0 a 262249.45 262249.45 0 1 1 524498.90 0a 262249.45 262249.45 0 1 1 -524498.90 0"/>
<path id="N" d="M 21506694.58 18272841.20 m -428661.01 0 a 428661.01 428661.01 0 1 1 857322.02 0a 428661.01 428661.01 0 1 1 -857322.02 0M 21506694.40 18272829.55 m -262249.45 0 a 262249.45 262249.45 0 1 1 524498.90 0a 262249.45 262249.45 0 1 1 -524498.90 0"/>
<path id="N" d="M 21506701.92 12957892.91 m -428646.84 0 a 428646.84 428646.84 0 1 1 857293.67 0a 428646.84 428646.84 0 1 1 -857293.67 0M 21506694.40 12957868.55 m -262249.45 0 a 262249.45 262249.45 0 1 1 524498.90 0a 262249.45 262249.45 0 1 1 -524498.90 0"/>
<path id="N" d="M 6152363.58 18272841.20 m -428661.01 0 a 428661.01 428661.01 0 1 1 857322.02 0a 428661.01 428661.01 0 1 1 -857322.02 0M 6152363.40 18272829.55 m -262249.45 0 a 262249.45 262249.45 0 1 1 524498.90 0a 262249.45 262249.45 0 1 1 -524498.90 0"/>
<path id="N" d="M 6152370.92 12957892.91 m -428646.84 0 a 428646.84 428646.84 0 1 1 857293.67 0a 428646.84 428646.84 0 1 1 -857293.67 0M 6152363.40 12957868.55 m -262249.45 0 a 262249.45 262249.45 0 1 1 524498.90 0a 262249.45 262249.45 0 1 1 -524498.90 0"/>
<path id="N" d="M 7897649.00 8415355.00 L 7897649.00 8120079.00 A 387800.22 387800.22 0 0 0 7122037.00 8120079.00 L 7122037.00 8415355.00 A 387800.22 387800.22 0 0 0 7897649.00 8415355.00  zM 7509843.36 8267717.47 m -200706.53 0 a 200706.53 200706.53 0 1 1 401413.05 0a 200706.53 200706.53 0 1 1 -401413.05 0"/>
<path id="N" d="M 10197638.00 14685816.00 L 9902362.00 14685816.00 A 387800.22 387800.22 0 1 0 9902362.00 15461428.00 L 10197638.00 15461428.00 A 387801.02 387801.02 0 0 0 10197638.00 14685816.00  zM 10050000.44 15073620.65 m -180637.35 0 a 180637.35 180637.35 0 1 1 361274.69 0a 180637.35 180637.35 0 1 1 -361274.69 0"/>
<path id="N" d="M 10197638.00 15670068.00 L 9902362.00 15670068.00 A 387800.22 387800.22 0 1 0 9902362.00 16445680.00 L 10197638.00 16445680.00 A 387801.02 387801.02 0 0 0 10197638.00 15670068.00  zM 10050000.44 16057872.65 m -180637.35 0 a 180637.35 180637.35 0 1 1 361274.69 0a 180637.35 180637.35 0 1 1 -361274.69 0"/>
<path id="N" d="M 13494105.08 18308522.11 m -519423.54 0 a 519423.54 519423.54 0 1 1 1038847.08 0a 519423.54 519423.54 0 1 1 -1038847.08 0M 13494096.32 18308498.17 m -317723.83 0 a 317723.83 317723.83 0 1 1 635447.65 0a 317723.83 317723.83 0 1 1 -635447.65 0"/>
<path id="N" d="M 17879142.92 21406711.91 m -428646.84 0 a 428646.84 428646.84 0 1 1 857293.67 0a 428646.84 428646.84 0 1 1 -857293.67 0M 17879135.40 21406687.55 m -262249.45 0 a 262249.45 262249.45 0 1 1 524498.90 0a 262249.45 262249.45 0 1 1 -524498.90 0"/>
<path id="N" d="M 13494105.08 16968522.11 m -519423.54 0 a 519423.54 519423.54 0 1 1 1038847.08 0a 519423.54 519423.54 0 1 1 -1038847.08 0M 13494096.32 16968498.17 m -317723.83 0 a 317723.83 317723.83 0 1 1 635447.65 0a 317723.83 317723.83 0 1 1 -635447.65 0"/>
<path id="N" d="M 17404105.08 16968522.11 m -519423.54 0 a 519423.54 519423.54 0 1 1 1038847.08 0a 519423.54 519423.54 0 1 1 -1038847.08 0M 17404096.32 16968498.17 m -317723.83 0 a 317723.83 317723.83 0 1 1 635447.65 0a 317723.83 317723.83 0 1 1 -635447.65 0"/>
<path id="N" d="M 17404105.08 18308522.11 m -519423.54 0 a 519423.54 519423.54 0 1 1 1038847.08 0a 519423.54 519423.54 0 1 1 -1038847.08 0M 17404096.32 18308498.17 m -317723.83 0 a 317723.83 317723.83 0 1 1 635447.65 0a 317723.83 317723.83 0 1 1 -635447.65 0"/>
<path id="N" d="M 10197638.00 16654320.00 L 9902362.00 16654320.00 A 387800.22 387800.22 0 0 0 9902362.00 17429932.00 L 10197638.00 17429932.00 A 387801.02 387801.02 0 0 0 10197638.00 16654320.00  zM 10050000.44 17042124.65 m -180637.35 0 a 180637.35 180637.35 0 1 1 361274.69 0a 180637.35 180637.35 0 1 1 -361274.69 0"/>
<path id="N" d="M 9776780.92 21406711.91 m -428646.84 0 a 428646.84 428646.84 0 1 1 857293.67 0a 428646.84 428646.84 0 1 1 -857293.67 0M 9776773.40 21406687.55 m -262249.45 0 a 262249.45 262249.45 0 1 1 524498.90 0a 262249.45 262249.45 0 1 1 -524498.90 0"/>
<path id="N" d="M 6152370.92 10957892.91 m -428646.84 0 a 428646.84 428646.84 0 1 1 857293.67 0a 428646.84 428646.84 0 1 1 -857293.67 0M 6152363.40 10957868.55 m -262249.45 0 a 262249.45 262249.45 0 1 1 524498.90 0a 262249.45 262249.45 0 1 1 -524498.90 0"/>
<path id="N" d="M 21506701.92 10957892.91 m -428646.84 0 a 428646.84 428646.84 0 1 1 857293.67 0a 428646.84 428646.84 0 1 1 -857293.67 0M 21506694.40 10957868.55 m -262249.45 0 a 262249.45 262249.45 0 1 1 524498.90 0a 262249.45 262249.45 0 1 1 -524498.90 0"/>
<path id="N" d="M 21506694.58 16272841.20 m -428661.01 0 a 428661.01 428661.01 0 1 1 857322.02 0a 428661.01 428661.01 0 1 1 -857322.02 0M 21506694.40 16272829.55 m -262249.45 0 a 262249.45 262249.45 0 1 1 524498.90 0a 262249.45 262249.45 0 1 1 -524498.90 0"/>
<path id="N" d="M 6152363.58 16272841.20 m -428661.01 0 a 428661.01 428661.01 0 1 1 857322.02 0a 428661.01 428661.01 0 1 1 -857322.02 0M 6152363.40 16272829.55 m -262249.45 0 a 262249.45 262249.45 0 1 1 524498.90 0a 262249.45 262249.45 0 1 1 -524498.90 0"/>
<path id="N" d="M 8881901.00 8415355.00 L 8881901.00 8120079.00 A 387800.22 387800.22 0 0 0 8106289.00 8120079.00 L 8106289.00 8415355.00 A 387800.22 387800.22 0 0 0 8881901.00 8415355.00  zM 8494095.36 8267717.47 m -200706.53 0 a 200706.53 200706.53 0 1 1 401413.05 0a 200706.53 200706.53 0 1 1 -401413.05 0"/>
<path id="N" d="M 10197638.00 17638572.00 L 9902362.00 17638572.00 A 387800.22 387800.22 0 1 0 9902362.00 18414184.00 L 10197638.00 18414184.00 A 387801.02 387801.02 0 0 0 10197638.00 17638572.00  zM 10050000.44 18026376.65 m -180637.35 0 a 180637.35 180637.35 0 1 1 361274.69 0a 180637.35 180637.35 0 1 1 -361274.69 0"/>
</g>
</svg>
