<svg width="49.99999906mm" height="49.99999906mm" viewBox="0 0 19685039 19685039"  version="1.1" xmlns="http://www.w3.org/2000/svg" xmlns:xlink="http://www.w3.org/1999/xlink">
<desc>
Origin 3937008 3937008 Bound 3937007 3937007 19685039 19685039
</desc>
<g fill-rule="evenodd" fill="rgb(207, 224, 229)" stroke="black" stroke-width="1" transform="translate(0, 19685039) scale(1, -1) translate(-3937007, -3937007)">
<path id="N" d="M 18619402.00 18983811.00 L 18625743.00 18968504.00 L 18625743.00 16312992.00 L 18619402.00 16297685.00 L 18604095.00 16291344.00 L 17919997.50 16291344.00 L 17915479.00 16277669.00 L 17902583.00 16251045.00 A 194937.01 194937.01 0 0 0 17832695.00 16187397.00 L 17796087.00 16174501.00 L 17761559.00 16167429.00 A 257051.48 257051.48 0 0 0 17645079.00 16179909.00 L 17612631.00 16196965.00 L 17579351.00 16223173.00 L 17566039.00 16201957.00 L 17543991.00 16157861.00 L 17509047.00 16173669.00 L 17526935.00 16211525.00 L 17555223.00 16256037.00 L 17553559.00 16259781.00 L 17541579.06 16291344.00 L 12297245.00 16291344.00 L 12281938.00 16297685.00 L 12275597.00 16312992.00 L 12275597.00 18968504.00 L 12281938.00 18983811.00 L 12297245.00 18990152.00 L 18604095.00 18990152.00 L 18619402.00 18983811.00  zM 18582447.00 18946856.00 L 12318893.00 18946856.00 L 12318893.00 16334640.00 L 17533024.68 16334640.00 L 17532343.00 16350469.00 L 17535671.00 16381253.00 L 17545655.00 16419941.00 L 17557719.00 16444901.00 L 17571447.00 16463621.00 L 17597655.00 16489829.00 L 17628023.00 16510213.00 L 17665047.00 16523525.00 L 17699575.00 16530597.00 L 17730359.00 16532677.00 L 17780695.00 16527269.00 L 17816055.00 16517285.00 L 17845591.00 16503141.00 L 17877623.00 16478597.00 L 17900087.00 16452389.00 L 17912567.00 16428261.00 L 17925463.00 16385829.00 L 17928791.00 16358373.00 L 17928341.38 16334640.00 L 18582447.00 16334640.00 L 18582447.00 18946856.00  zM 17871980.50 16291344.00 L 17626540.50 16291344.00 L 17608471.00 16262277.00 L 17620119.00 16252293.00 L 17646743.00 16236069.00 L 17677111.00 16224837.00 L 17715799.00 16218181.00 L 17742839.00 16218181.00 L 17784855.00 16224421.00 L 17812311.00 16233989.00 L 17831863.00 16245637.00 L 17858071.00 16269349.00 L 17870551.00 16288485.00 L 17871980.50 16291344.00  zM 17730359.00 16480261.00 L 17696663.00 16477349.00 L 17660055.00 16468197.00 L 17631767.00 16455301.00 L 17611799.00 16439493.00 L 17591831.00 16411205.00 L 17581847.00 16387909.00 L 17576023.00 16359205.00 L 17576545.63 16334640.00 L 17603562.13 16334640.00 L 17607639.00 16347557.00 L 17644553.75 16334640.00 L 17884695.00 16334661.00 L 17885527.00 16349637.00 L 17882199.00 16375013.00 L 17872631.00 16404549.00 L 17859319.00 16427845.00 L 17846007.00 16443237.00 L 17830199.00 16454469.00 A 193017.54 193017.54 0 0 1 17730359.00 16480261.00  z"/>
<path id="N" d="M 11880133.00 15790022.00 A 106617.08 106617.08 0 0 0 11942117.00 15743014.00 L 11952933.00 15714726.00 L 11955013.00 15696006.00 L 11951685.00 15673958.00 L 11940869.00 15649830.00 L 11925893.00 15633606.00 L 11902181.00 15618214.00 L 11929637.00 15606566.00 L 11947109.00 15594086.00 L 11957509.00 15580774.00 L 11967493.00 15559558.00 L 11972901.00 15537094.00 L 11973317.00 15515462.00 L 11967077.00 15487590.00 L 11953765.00 15459302.00 L 11936293.00 15438086.00 L 11922149.00 15427686.00 L 11890533.00 15411878.00 L 11854757.00 15404390.00 L 11831461.00 15404806.00 L 11794437.00 15413542.00 L 11773637.00 15423942.00 L 11757413.00 15436838.00 A 131453.89 131453.89 0 0 0 11722469.00 15512134.00 L 11769477.00 15517958.00 L 11771973.00 15508390.00 L 11784037.00 15476774.00 A 63008.74 63008.74 0 0 1 11824805.00 15445990.00 L 11847685.00 15443078.00 L 11873061.00 15448486.00 L 11887205.00 15455558.00 L 11903013.00 15468454.00 L 11916741.00 15490086.00 L 11922981.00 15510886.00 L 11923813.00 15522950.00 L 11921317.00 15541670.00 L 11914661.00 15559142.00 L 11901349.00 15577030.00 L 11887621.00 15587014.00 L 11870565.00 15594086.00 L 11848517.00 15597414.00 L 11815237.00 15592422.00 L 11821061.00 15633606.00 L 11836037.00 15633190.00 L 11863493.00 15639430.00 L 11882629.00 15648582.00 L 11890117.00 15655238.00 A 59008.66 59008.66 0 0 1 11843525.00 15757158.00 L 11827301.00 15755078.00 L 11804837.00 15745510.00 L 11791109.00 15732614.00 L 11779877.00 15710566.00 L 11774053.00 15688102.00 L 11727045.00 15696838.00 L 11729957.00 15708070.00 L 11743269.00 15740934.00 L 11760741.00 15764646.00 L 11778213.00 15777958.00 L 11804421.00 15789606.00 L 11833957.00 15795430.00 L 11880133.00 15790022.00  z"/>
<path id="N" d="M 11081780.00 13762723.00 L 11108404.00 13749827.00 A 194937.01 194937.01 0 0 0 11172052.00 13679939.00 L 11184948.00 13643331.00 L 11192020.00 13608803.00 A 257051.48 257051.48 0 0 0 11179540.00 13492323.00 L 11162484.00 13459875.00 L 11136276.00 13426595.00 L 11157492.00 13413283.00 L 11201588.00 13391235.00 L 11185780.00 13356291.00 L 11147924.00 13374179.00 L 11103412.00 13402467.00 L 11069300.00 13389155.00 L 11028116.00 13380419.00 L 11009396.00 13379587.00 L 10978196.00 13382915.00 L 10939508.00 13392899.00 L 10914548.00 13404963.00 L 10895828.00 13418691.00 L 10869620.00 13444899.00 L 10849236.00 13475267.00 L 10835924.00 13512291.00 L 10828852.00 13546819.00 L 10826772.00 13578435.00 L 10832180.00 13627939.00 L 10842164.00 13663299.00 L 10856308.00 13692835.00 L 10880852.00 13724867.00 L 10907060.00 13747331.00 L 10931188.00 13759811.00 L 10973620.00 13772707.00 L 11001076.00 13776035.00 L 11042260.00 13773123.00 L 11081780.00 13762723.00  zM 11008148.00 13732771.00 L 10984436.00 13729443.00 L 10954900.00 13719875.00 L 10931604.00 13706563.00 L 10916212.00 13693251.00 L 10904980.00 13677443.00 A 193017.54 193017.54 0 0 1 10879188.00 13576771.00 L 10883764.00 13535171.00 L 10894996.00 13497731.00 L 10909556.00 13470691.00 L 10926612.00 13453635.00 L 10955732.00 13435331.00 L 10980692.00 13426595.00 L 11010644.00 13422851.00 L 11035188.00 13425347.00 L 11062228.00 13432835.00 L 11046836.00 13441571.00 L 11011892.00 13454883.00 L 11024372.00 13491907.00 L 11035188.00 13488163.00 L 11073460.00 13471107.00 L 11097172.00 13455715.00 L 11107156.00 13467363.00 L 11123380.00 13493987.00 L 11134612.00 13524355.00 L 11141268.00 13563043.00 L 11141268.00 13590083.00 L 11135028.00 13632099.00 L 11125460.00 13659555.00 L 11113812.00 13679107.00 L 11090100.00 13705315.00 L 11067636.00 13719459.00 L 11037684.00 13729859.00 L 11008148.00 13732771.00  z"/>
<path id="N" d="M 8686711.00 11211988.00 L 8719159.00 11201588.00 L 8744119.00 11186612.00 A 168144.99 168144.99 0 0 0 8797367.00 11105492.00 L 8747447.00 11094260.00 L 8746199.00 11098004.00 L 8732055.00 11127124.00 L 8717495.00 11147092.00 L 8701271.00 11159572.00 L 8670903.00 11171220.00 L 8651767.00 11174132.00 L 8623895.00 11172468.00 L 8594359.00 11164980.00 L 8576055.00 11156244.00 L 8560247.00 11143764.00 L 8540279.00 11119636.00 L 8528215.00 11093844.00 L 8518647.00 11049332.00 L 8517399.00 11009396.00 L 8522807.00 10964884.00 A 127615.51 127615.51 0 0 1 8564823.00 10889172.00 L 8580631.00 10878772.00 L 8615575.00 10866708.00 L 8640535.00 10863796.00 L 8665495.00 10866708.00 L 8689207.00 10874196.00 L 8712919.00 10888340.00 L 8725815.00 10902484.00 L 8742455.00 10929524.00 L 8753271.00 10961556.00 L 8804023.00 10947828.00 L 8790711.00 10913300.00 L 8772823.00 10881684.00 L 8753687.00 10859636.00 L 8734967.00 10845492.00 L 8703351.00 10830932.00 L 8676311.00 10823444.00 L 8644695.00 10820532.00 L 8608919.00 10823860.00 L 8567319.00 10833844.00 L 8543191.00 10845908.00 L 8521559.00 10864212.00 L 8497431.00 10894164.00 L 8484119.00 10919124.00 L 8476631.00 10942836.00 L 8467895.00 10982356.00 L 8464567.00 11022292.00 L 8468727.00 11065140.00 L 8477047.00 11100084.00 L 8487863.00 11126708.00 L 8504087.00 11151668.00 L 8530711.00 11179124.00 L 8552759.00 11194516.00 L 8586455.00 11207828.00 L 8626807.00 11216564.00 L 8686711.00 11211988.00  z"/>
<path id="N" d="M 9026583.00 11199508.00 L 9046551.00 11185364.00 L 9065271.00 11163316.00 L 9077751.00 11139188.00 L 9088983.00 11105908.00 L 9094807.00 11069716.00 L 9097719.00 11015220.00 L 9094391.00 10959892.00 L 9086071.00 10914964.00 L 9077751.00 10892916.00 L 9060279.00 10862548.00 L 9046967.00 10847572.00 L 9031159.00 10835924.00 A 114724.22 114724.22 0 0 0 8947543.00 10823860.00 L 8919671.00 10833428.00 L 8898455.00 10847156.00 L 8885143.00 10860468.00 L 8876823.00 10874612.00 L 8863095.00 10907892.00 L 8853527.00 10946164.00 L 8848119.00 10996500.00 L 8849367.00 11055156.00 L 8856855.00 11108820.00 L 8863095.00 11129620.00 L 8877655.00 11159572.00 L 8893463.00 11180372.00 L 8908023.00 11192852.00 A 119574.25 119574.25 0 0 0 9026583.00 11199508.00  zM 8945047.00 11166228.00 A 62502.36 62502.36 0 0 1 8908023.00 11115892.00 L 8899703.00 11075956.00 L 8896375.00 11033108.00 L 8896791.00 10993172.00 L 8901367.00 10943668.00 L 8907607.00 10913300.00 L 8918007.00 10890004.00 L 8932983.00 10874612.00 L 8950455.00 10864212.00 L 8966679.00 10859636.00 L 8984151.00 10860884.00 A 71431.95 71431.95 0 0 1 9032407.00 10900404.00 L 9042391.00 10934932.00 L 9048631.00 10983604.00 L 9048631.00 11038932.00 L 9044055.00 11088436.00 L 9034487.00 11127540.00 L 9026999.00 11141684.00 L 9012023.00 11157492.00 L 8989559.00 11169972.00 L 8966679.00 11172468.00 L 8945047.00 11166228.00  z"/>
<path id="N" d="M 10979695.00 11593209.00 L 10999663.00 11579065.00 L 11018383.00 11557017.00 L 11030863.00 11532889.00 L 11042095.00 11499609.00 L 11047919.00 11463417.00 L 11050831.00 11408921.00 L 11047503.00 11353593.00 L 11039183.00 11308665.00 L 11030863.00 11286617.00 L 11013391.00 11256249.00 L 11000079.00 11241273.00 L 10984271.00 11229625.00 A 114724.22 114724.22 0 0 0 10900655.00 11217561.00 L 10872783.00 11227129.00 L 10851567.00 11240857.00 L 10838255.00 11254169.00 L 10829935.00 11268313.00 L 10816207.00 11301593.00 L 10806639.00 11339865.00 L 10801231.00 11390201.00 L 10802479.00 11448857.00 L 10809967.00 11502521.00 L 10816207.00 11523321.00 L 10830767.00 11553273.00 L 10846575.00 11574073.00 L 10861135.00 11586553.00 A 119574.25 119574.25 0 0 0 10979695.00 11593209.00  zM 10898159.00 11559929.00 A 62502.36 62502.36 0 0 1 10861135.00 11509593.00 L 10852815.00 11469657.00 L 10849487.00 11426809.00 L 10849903.00 11386873.00 L 10854479.00 11337369.00 L 10860719.00 11307001.00 L 10871119.00 11283705.00 L 10886095.00 11268313.00 L 10903567.00 11257913.00 L 10919791.00 11253337.00 L 10937263.00 11254585.00 A 71431.95 71431.95 0 0 1 10985519.00 11294105.00 L 10995503.00 11328633.00 L 11001743.00 11377305.00 L 11001743.00 11432633.00 L 10997167.00 11482137.00 L 10987599.00 11521241.00 L 10980111.00 11535385.00 L 10965135.00 11551193.00 L 10942671.00 11563673.00 L 10919791.00 11566169.00 L 10898159.00 11559929.00  z"/>
<path id="N" d="M 20087456.00 6884783.00 L 20107424.00 6870639.00 L 20126144.00 6848591.00 L 20138624.00 6824463.00 L 20149856.00 6791183.00 L 20155680.00 6754991.00 L 20158592.00 6700495.00 L 20155264.00 6645167.00 L 20146944.00 6600239.00 L 20138624.00 6578191.00 L 20121152.00 6547823.00 L 20107840.00 6532847.00 L 20092032.00 6521199.00 A 114724.22 114724.22 0 0 0 20008416.00 6509135.00 L 19980544.00 6518703.00 L 19959328.00 6532431.00 L 19946016.00 6545743.00 L 19937696.00 6559887.00 L 19923968.00 6593167.00 L 19914400.00 6631439.00 L 19908992.00 6681775.00 L 19910240.00 6740431.00 L 19917728.00 6794095.00 L 19923968.00 6814895.00 L 19938528.00 6844847.00 L 19954336.00 6865647.00 L 19968896.00 6878127.00 A 119574.25 119574.25 0 0 0 20087456.00 6884783.00  zM 20005920.00 6851503.00 A 62502.36 62502.36 0 0 1 19968896.00 6801167.00 L 19960576.00 6761231.00 L 19957248.00 6718383.00 L 19957664.00 6678447.00 L 19962240.00 6628943.00 L 19968480.00 6598575.00 L 19978880.00 6575279.00 L 19993856.00 6559887.00 L 20011328.00 6549487.00 L 20027552.00 6544911.00 L 20045024.00 6546159.00 A 71431.95 71431.95 0 0 1 20093280.00 6585679.00 L 20103264.00 6620207.00 L 20109504.00 6668879.00 L 20109504.00 6724207.00 L 20104928.00 6773711.00 L 20095360.00 6812815.00 L 20087872.00 6826959.00 L 20072896.00 6842767.00 L 20050432.00 6855247.00 L 20027552.00 6857743.00 L 20005920.00 6851503.00  z"/>
<path id="N" d="M 17766967.00 16114181.00 L 17820631.00 16106693.00 L 17841431.00 16100453.00 L 17871383.00 16085893.00 L 17896759.00 16065509.00 L 17908407.00 16049701.00 L 17920471.00 16019749.00 L 17923799.00 15991045.00 L 17920887.00 15964421.00 L 17911319.00 15936965.00 L 17897175.00 15916997.00 L 17875127.00 15898277.00 L 17850999.00 15885797.00 L 17816471.00 15874149.00 L 17774039.00 15867909.00 L 17716631.00 15865829.00 L 17671703.00 15869157.00 L 17626775.00 15877477.00 L 17604727.00 15885797.00 L 17574359.00 15903269.00 L 17559383.00 15916581.00 L 17547735.00 15932389.00 A 114800.98 114800.98 0 0 0 17535671.00 16016005.00 L 17545239.00 16043877.00 L 17558967.00 16065093.00 L 17572279.00 16078405.00 L 17600567.00 16093381.00 L 17643831.00 16107109.00 L 17690007.00 16114181.00 L 17766967.00 16114181.00  zM 17704983.00 16066757.00 L 17655479.00 16062181.00 L 17625111.00 16055941.00 L 17601815.00 16045541.00 L 17586423.00 16030565.00 L 17576023.00 16013093.00 L 17571447.00 15996869.00 L 17572695.00 15979397.00 A 71431.95 71431.95 0 0 1 17612215.00 15931141.00 L 17646743.00 15921157.00 L 17695415.00 15914917.00 L 17750743.00 15914917.00 L 17800247.00 15919493.00 L 17839351.00 15929061.00 L 17858487.00 15940293.00 L 17874711.00 15959429.00 L 17883447.00 15979813.00 L 17884279.00 15996869.00 L 17878039.00 16018501.00 L 17870135.00 16031397.00 L 17856823.00 16043877.00 L 17841015.00 16050949.00 L 17810231.00 16060101.00 L 17774871.00 16065509.00 L 17704983.00 16066757.00  z"/>
<path id="N" d="M 10159429.00 11604025.00 L 10193541.00 11595705.00 A 97017.73 97017.73 0 0 0 10247205.00 11548697.00 L 10257605.00 11522489.00 L 10260517.00 11497945.00 L 10258021.00 11477561.00 L 10250533.00 11452601.00 L 10233477.00 11424313.00 L 10206437.00 11393113.00 L 10094533.00 11293273.00 L 10071653.00 11265817.00 L 10260933.00 11265817.00 L 10260933.00 11220473.00 L 10006757.00 11221305.00 L 10008837.00 11241273.00 L 10016325.00 11262489.00 L 10035461.00 11294937.00 L 10058757.00 11320729.00 L 10125733.00 11379801.00 L 10173573.00 11424729.00 L 10195205.00 11451353.00 L 10208933.00 11480057.00 L 10212261.00 11501273.00 L 10207269.00 11523737.00 A 59751.25 59751.25 0 0 1 10169829.00 11560345.00 L 10150693.00 11565753.00 L 10135717.00 11566585.00 L 10119493.00 11564089.00 L 10101605.00 11557849.00 L 10088293.00 11549529.00 L 10075813.00 11534553.00 L 10067077.00 11513337.00 L 10063749.00 11489625.00 L 10015493.00 11495449.00 L 10016741.00 11503353.00 L 10024229.00 11531641.00 L 10037541.00 11559097.00 L 10053349.00 11577401.00 L 10076229.00 11591545.00 L 10103685.00 11601113.00 L 10130309.00 11605273.00 L 10159429.00 11604025.00  z"/>
<path id="N" d="M 18657025.00 4714261.00 L 18691137.00 4705941.00 A 97017.73 97017.73 0 0 0 18744801.00 4658933.00 L 18755201.00 4632725.00 L 18758113.00 4608181.00 L 18755617.00 4587797.00 L 18748129.00 4562837.00 L 18731073.00 4534549.00 L 18704033.00 4503349.00 L 18592129.00 4403509.00 L 18569249.00 4376053.00 L 18758529.00 4376053.00 L 18758529.00 4330709.00 L 18504353.00 4331541.00 L 18506433.00 4351509.00 L 18513921.00 4372725.00 L 18533057.00 4405173.00 L 18556353.00 4430965.00 L 18623329.00 4490037.00 L 18671169.00 4534965.00 L 18692801.00 4561589.00 L 18706529.00 4590293.00 L 18709857.00 4611509.00 L 18704865.00 4633973.00 A 59751.25 59751.25 0 0 1 18667425.00 4670581.00 L 18648289.00 4675989.00 L 18633313.00 4676821.00 L 18617089.00 4674325.00 L 18599201.00 4668085.00 L 18585889.00 4659765.00 L 18573409.00 4644789.00 L 18564673.00 4623573.00 L 18561345.00 4599861.00 L 18513089.00 4605685.00 L 18514337.00 4613589.00 L 18521825.00 4641877.00 L 18535137.00 4669333.00 L 18550945.00 4687637.00 L 18573825.00 4701781.00 L 18601281.00 4711349.00 L 18627905.00 4715509.00 L 18657025.00 4714261.00  z"/>
<path id="N" d="M 10644815.00 11601945.00 L 10681007.00 11594041.00 L 10703471.00 11580729.00 L 10717615.00 11566585.00 L 10727599.00 11550361.00 L 10737583.00 11522073.00 L 10740079.00 11499193.00 L 10736751.00 11475481.00 L 10725935.00 11447193.00 L 10713455.00 11430553.00 L 10698063.00 11418489.00 L 10667695.00 11403929.00 L 10632335.00 11394777.00 L 10648143.00 11386041.00 L 10666031.00 11372313.00 L 10696815.00 11335705.00 L 10770863.00 11220473.00 L 10707215.00 11220473.00 L 10655631.00 11302009.00 L 10619023.00 11354009.00 L 10602799.00 11371481.00 L 10586991.00 11382713.00 L 10567023.00 11389785.00 L 10483823.00 11391033.00 L 10483823.00 11220473.00 L 10433071.00 11220473.00 L 10433071.00 11604441.00 L 10644815.00 11601945.00  zM 10483823.00 11562009.00 L 10483823.00 11435129.00 L 10598639.00 11435129.00 L 10630671.00 11438041.00 L 10650639.00 11443449.00 L 10668111.00 11454681.00 L 10678927.00 11467993.00 L 10685999.00 11486297.00 L 10687247.00 11506265.00 L 10679343.00 11529977.00 L 10666863.00 11544953.00 L 10648143.00 11554937.00 L 10620271.00 11561177.00 L 10483823.00 11562009.00  z"/>
<path id="N" d="M 11566469.00 15792102.00 L 11602661.00 15784198.00 L 11625125.00 15770886.00 L 11639269.00 15756742.00 L 11649253.00 15740518.00 L 11659237.00 15712230.00 L 11661733.00 15689350.00 L 11658405.00 15665638.00 L 11647589.00 15637350.00 L 11635109.00 15620710.00 L 11619717.00 15608646.00 L 11589349.00 15594086.00 L 11553989.00 15584934.00 L 11569797.00 15576198.00 L 11587685.00 15562470.00 L 11618469.00 15525862.00 L 11692517.00 15410630.00 L 11628869.00 15410630.00 L 11577285.00 15492166.00 L 11540677.00 15544166.00 L 11524453.00 15561638.00 L 11508645.00 15572870.00 L 11488677.00 15579942.00 L 11405477.00 15581190.00 L 11405477.00 15410630.00 L 11354725.00 15410630.00 L 11354725.00 15794598.00 L 11566469.00 15792102.00  zM 11405477.00 15752166.00 L 11405477.00 15625286.00 L 11520293.00 15625286.00 L 11552325.00 15628198.00 L 11572293.00 15633606.00 L 11589765.00 15644838.00 L 11600581.00 15658150.00 L 11607653.00 15676454.00 L 11608901.00 15696422.00 L 11600997.00 15720134.00 L 11588517.00 15735110.00 L 11569797.00 15745094.00 L 11541925.00 15751334.00 L 11405477.00 15752166.00  z"/>
<path id="N" d="M 10308032.00 12896615.00 L 10317393.00 12874016.00 L 10317393.00 11929134.00 L 10308032.00 11906535.00 L 10285433.00 11897174.00 L 10216535.00 11897174.00 L 10193936.00 11906535.00 L 10184575.00 11929134.00 L 10193936.00 11951733.00 L 10216535.00 11961094.00 L 10253473.00 11961094.00 L 10253473.00 12369615.00 L 9825267.00 12369615.00 L 9825267.00 11961094.00 L 9862205.00 11961094.00 L 9884804.00 11951733.00 L 9894165.00 11929134.00 L 9884804.00 11906535.00 L 9862205.00 11897174.00 L 9793307.00 11897174.00 L 9770708.00 11906535.00 L 9761347.00 11929134.00 L 9761347.00 12874016.00 L 9770708.00 12896615.00 L 9793307.00 12905976.00 L 9862205.00 12905976.00 L 9884804.00 12896615.00 L 9894165.00 12874016.00 L 9884804.00 12851417.00 L 9862205.00 12842056.00 L 9825267.00 12842056.00 L 9825267.00 12433535.00 L 10253473.00 12433535.00 L 10253473.00 12842056.00 L 10216535.00 12842056.00 L 10193936.00 12851417.00 L 10184575.00 12874016.00 L 10193936.00 12896615.00 L 10216535.00 12905976.00 L 10285433.00 12905976.00 L 10308032.00 12896615.00  z"/>
<path id="N" d="M 11095434.00 12896615.00 L 11104795.00 12874016.00 L 11104795.00 11929134.00 L 11095434.00 11906535.00 L 11072835.00 11897174.00 L 11003937.00 11897174.00 L 10981338.00 11906535.00 L 10971977.00 11929134.00 L 10981338.00 11951733.00 L 11003937.00 11961094.00 L 11040875.00 11961094.00 L 11040875.00 12369615.00 L 10612669.00 12369615.00 L 10612669.00 11961094.00 L 10649607.00 11961094.00 L 10672206.00 11951733.00 L 10681567.00 11929134.00 L 10672206.00 11906535.00 L 10649607.00 11897174.00 L 10580709.00 11897174.00 L 10558110.00 11906535.00 L 10548749.00 11929134.00 L 10548749.00 12874016.00 L 10558110.00 12896615.00 L 10580709.00 12905976.00 L 10649607.00 12905976.00 L 10672206.00 12896615.00 L 10681567.00 12874016.00 L 10672206.00 12851417.00 L 10649607.00 12842056.00 L 10612669.00 12842056.00 L 10612669.00 12433535.00 L 11040875.00 12433535.00 L 11040875.00 12842056.00 L 11003937.00 12842056.00 L 10981338.00 12851417.00 L 10971977.00 12874016.00 L 10981338.00 12896615.00 L 11003937.00 12905976.00 L 11072835.00 12905976.00 L 11095434.00 12896615.00  z"/>
<path id="N" d="M 12699765.00 15229292.00 L 12709126.00 15206693.00 L 12709126.00 15137795.00 L 12699765.00 15115196.00 L 12677166.00 15105835.00 L 12654567.00 15115196.00 L 12645206.00 15137795.00 L 12645206.00 15174733.00 L 12236685.00 15174733.00 L 12236685.00 14746527.00 L 12645206.00 14746527.00 L 12645206.00 14783465.00 L 12654567.00 14806064.00 L 12677166.00 14815425.00 L 12699765.00 14806064.00 L 12709126.00 14783465.00 L 12709126.00 14714567.00 L 12699765.00 14691968.00 L 12677166.00 14682607.00 L 11732284.00 14682607.00 L 11709685.00 14691968.00 L 11700324.00 14714567.00 L 11700324.00 14783465.00 L 11709685.00 14806064.00 L 11732284.00 14815425.00 L 11754883.00 14806064.00 L 11764244.00 14783465.00 L 11764244.00 14746527.00 L 12172765.00 14746527.00 L 12172765.00 15174733.00 L 11764244.00 15174733.00 L 11764244.00 15137795.00 L 11754883.00 15115196.00 L 11732284.00 15105835.00 L 11709685.00 15115196.00 L 11700324.00 15137795.00 L 11700324.00 15206693.00 L 11709685.00 15229292.00 L 11732284.00 15238653.00 L 12677166.00 15238653.00 L 12699765.00 15229292.00  z"/>
<path id="N" d="M 9520630.00 13162363.00 L 9529991.00 13139764.00 L 9529991.00 11269686.00 L 9520630.00 11247087.00 L 9498031.00 11237726.00 L 9399606.00 11237726.00 L 9377007.00 11247087.00 L 9367646.00 11269686.00 L 9377007.00 11292285.00 L 9399606.00 11301646.00 L 9466071.00 11301646.00 L 9466071.00 12172765.00 L 8644165.00 12172765.00 L 8644165.00 11301646.00 L 8710630.00 11301646.00 L 8733229.00 11292285.00 L 8742590.00 11269686.00 L 8733229.00 11247087.00 L 8710630.00 11237726.00 L 8612205.00 11237726.00 L 8589606.00 11247087.00 L 8580245.00 11269686.00 L 8580245.00 13139764.00 L 8589606.00 13162363.00 L 8612205.00 13171724.00 L 8710630.00 13171724.00 L 8733229.00 13162363.00 L 8742590.00 13139764.00 L 8733229.00 13117165.00 L 8710630.00 13107804.00 L 8644165.00 13107804.00 L 8644165.00 12236685.00 L 9466071.00 12236685.00 L 9466071.00 13107804.00 L 9399606.00 13107804.00 L 9377007.00 13117165.00 L 9367646.00 13139764.00 L 9377007.00 13162363.00 L 9399606.00 13171724.00 L 9498031.00 13171724.00 L 9520630.00 13162363.00  z"/>
<path id="N" d="M 11882835.00 12896615.00 L 11892196.00 12874016.00 L 11892196.00 11929134.00 L 11882835.00 11906535.00 L 11860236.00 11897174.00 L 11791338.00 11897174.00 L 11768739.00 11906535.00 L 11759378.00 11929134.00 L 11768739.00 11951733.00 L 11791338.00 11961094.00 L 11828276.00 11961094.00 L 11828276.00 12369615.00 L 11400070.00 12369615.00 L 11400070.00 11961094.00 L 11437008.00 11961094.00 L 11459607.00 11951733.00 L 11468968.00 11929134.00 L 11459607.00 11906535.00 L 11437008.00 11897174.00 L 11368110.00 11897174.00 L 11345511.00 11906535.00 L 11336150.00 11929134.00 L 11336150.00 12874016.00 L 11345511.00 12896615.00 L 11368110.00 12905976.00 L 11437008.00 12905976.00 L 11459607.00 12896615.00 L 11468968.00 12874016.00 L 11459607.00 12851417.00 L 11437008.00 12842056.00 L 11400070.00 12842056.00 L 11400070.00 12433535.00 L 11828276.00 12433535.00 L 11828276.00 12842056.00 L 11791338.00 12842056.00 L 11768739.00 12851417.00 L 11759378.00 12874016.00 L 11768739.00 12896615.00 L 11791338.00 12905976.00 L 11860236.00 12905976.00 L 11882835.00 12896615.00  z"/>
<path id="N" d="M 18681744.00 6803519.00 L 18717936.00 6795615.00 L 18740400.00 6782303.00 L 18754544.00 6768159.00 L 18764528.00 6751935.00 L 18774512.00 6723647.00 L 18777008.00 6700767.00 L 18773680.00 6677055.00 L 18762864.00 6648767.00 L 18750384.00 6632127.00 L 18734992.00 6620063.00 L 18704624.00 6605503.00 L 18669264.00 6596351.00 L 18685072.00 6587615.00 L 18702960.00 6573887.00 L 18733744.00 6537279.00 L 18807792.00 6422047.00 L 18744144.00 6422047.00 L 18692560.00 6503583.00 L 18655952.00 6555583.00 L 18639728.00 6573055.00 L 18623920.00 6584287.00 L 18603952.00 6591359.00 L 18520752.00 6592607.00 L 18520752.00 6422047.00 L 18470000.00 6422047.00 L 18470000.00 6806015.00 L 18681744.00 6803519.00  zM 18520752.00 6763583.00 L 18520752.00 6636703.00 L 18635568.00 6636703.00 L 18667600.00 6639615.00 L 18687568.00 6645023.00 L 18705040.00 6656255.00 L 18715856.00 6669567.00 L 18722928.00 6687871.00 L 18724176.00 6707839.00 L 18716272.00 6731551.00 L 18703792.00 6746527.00 L 18685072.00 6756511.00 L 18657200.00 6762751.00 L 18520752.00 6763583.00  z"/>
<path id="N" d="M 9857413.00 11601945.00 L 9893605.00 11594041.00 L 9916069.00 11580729.00 L 9930213.00 11566585.00 L 9940197.00 11550361.00 L 9950181.00 11522073.00 L 9952677.00 11499193.00 L 9949349.00 11475481.00 L 9938533.00 11447193.00 L 9926053.00 11430553.00 L 9910661.00 11418489.00 L 9880293.00 11403929.00 L 9844933.00 11394777.00 L 9860741.00 11386041.00 L 9878629.00 11372313.00 L 9909413.00 11335705.00 L 9983461.00 11220473.00 L 9919813.00 11220473.00 L 9868229.00 11302009.00 L 9831621.00 11354009.00 L 9815397.00 11371481.00 L 9799589.00 11382713.00 L 9779621.00 11389785.00 L 9696421.00 11391033.00 L 9696421.00 11220473.00 L 9645669.00 11220473.00 L 9645669.00 11604441.00 L 9857413.00 11601945.00  zM 9696421.00 11562009.00 L 9696421.00 11435129.00 L 9811237.00 11435129.00 L 9843269.00 11438041.00 L 9863237.00 11443449.00 L 9880709.00 11454681.00 L 9891525.00 11467993.00 L 9898597.00 11486297.00 L 9899845.00 11506265.00 L 9891941.00 11529977.00 L 9879461.00 11544953.00 L 9860741.00 11554937.00 L 9832869.00 11561177.00 L 9696421.00 11562009.00  z"/>
<path id="N" d="M 18968662.00 6167087.00 L 18978023.00 6144488.00 L 18978023.00 5199606.00 L 18968662.00 5177007.00 L 18946063.00 5167646.00 L 18877165.00 5167646.00 L 18854566.00 5177007.00 L 18845205.00 5199606.00 L 18854566.00 5222205.00 L 18877165.00 5231566.00 L 18914103.00 5231566.00 L 18914103.00 5640087.00 L 18485897.00 5640087.00 L 18485897.00 5231566.00 L 18522835.00 5231566.00 L 18545434.00 5222205.00 L 18554795.00 5199606.00 L 18545434.00 5177007.00 L 18522835.00 5167646.00 L 18453937.00 5167646.00 L 18431338.00 5177007.00 L 18421977.00 5199606.00 L 18421977.00 6144488.00 L 18431338.00 6167087.00 L 18453937.00 6176448.00 L 18522835.00 6176448.00 L 18545434.00 6167087.00 L 18554795.00 6144488.00 L 18545434.00 6121889.00 L 18522835.00 6112528.00 L 18485897.00 6112528.00 L 18485897.00 5704007.00 L 18914103.00 5704007.00 L 18914103.00 6112528.00 L 18877165.00 6112528.00 L 18854566.00 6121889.00 L 18845205.00 6144488.00 L 18854566.00 6167087.00 L 18877165.00 6176448.00 L 18946063.00 6176448.00 L 18968662.00 6167087.00  z"/>
<path id="N" d="M 11432217.00 11601945.00 L 11468409.00 11594041.00 L 11490873.00 11580729.00 L 11505017.00 11566585.00 L 11515001.00 11550361.00 L 11524985.00 11522073.00 L 11527481.00 11499193.00 L 11524153.00 11475481.00 L 11513337.00 11447193.00 L 11500857.00 11430553.00 L 11485465.00 11418489.00 L 11455097.00 11403929.00 L 11419737.00 11394777.00 L 11435545.00 11386041.00 L 11453433.00 11372313.00 L 11484217.00 11335705.00 L 11558265.00 11220473.00 L 11494617.00 11220473.00 L 11443033.00 11302009.00 L 11406425.00 11354009.00 L 11390201.00 11371481.00 L 11374393.00 11382713.00 L 11354425.00 11389785.00 L 11271225.00 11391033.00 L 11271225.00 11220473.00 L 11220473.00 11220473.00 L 11220473.00 11604441.00 L 11432217.00 11601945.00  zM 11271225.00 11562009.00 L 11271225.00 11435129.00 L 11386041.00 11435129.00 L 11418073.00 11438041.00 L 11438041.00 11443449.00 L 11455513.00 11454681.00 L 11466329.00 11467993.00 L 11473401.00 11486297.00 L 11474649.00 11506265.00 L 11466745.00 11529977.00 L 11454265.00 11544953.00 L 11435545.00 11554937.00 L 11407673.00 11561177.00 L 11271225.00 11562009.00  z"/>
<path id="N" d="M 19719712.00 6893519.00 L 19748832.00 6887695.00 L 19777952.00 6875631.00 L 19796672.00 6862735.00 A 175207.51 175207.51 0 0 0 19845760.00 6786191.00 L 19854912.00 6741679.00 L 19857408.00 6705487.00 L 19854912.00 6667631.00 L 19847008.00 6627695.00 L 19831616.00 6590255.00 L 19814976.00 6564879.00 L 19792928.00 6542831.00 L 19772960.00 6530351.00 L 19739680.00 6518287.00 L 19702656.00 6512879.00 L 19540000.00 6512047.00 L 19540000.00 6896015.00 L 19719712.00 6893519.00  zM 19590752.00 6850671.00 L 19590752.00 6557391.00 L 19678944.00 6557391.00 L 19703904.00 6559055.00 L 19733024.00 6564463.00 L 19750080.00 6571951.00 L 19767552.00 6584847.00 L 19781280.00 6603983.00 L 19794592.00 6632687.00 L 19802496.00 6670127.00 L 19804992.00 6712559.00 L 19800000.00 6755823.00 L 19791680.00 6785775.00 L 19785024.00 6799087.00 L 19764640.00 6824047.00 L 19747168.00 6837775.00 L 19728032.00 6845263.00 L 19693920.00 6849839.00 L 19590752.00 6850671.00  z"/>
<path id="N" d="M 19910810.00 5708284.00 L 19913491.00 5706011.00 L 19919442.00 5694448.00 L 19919732.00 5690945.00 L 19915764.00 5678561.00 L 19841403.07 5574456.00 L 19888583.00 5574456.00 L 19903649.00 5568215.00 L 19909890.00 5553149.00 L 19903649.00 5538083.00 L 19888583.00 5531842.00 L 19711417.00 5531842.00 L 19696351.00 5538083.00 L 19690110.00 5553149.00 L 19696351.00 5568215.00 L 19711417.00 5574456.00 L 19758596.64 5574456.00 L 19684237.00 5678561.00 L 19680268.00 5690945.00 L 19680558.00 5694448.00 L 19686509.00 5706011.00 L 19689191.00 5708283.00 L 19701575.00 5712252.00 L 19898425.00 5712252.00 L 19910810.00 5708284.00  zM 19857021.64 5669638.00 L 19742978.07 5669638.00 L 19800000.35 5589807.04 L 19857021.64 5669638.00  z"/>
<path id="N" d="M 20098190.00 6244646.00 L 20107551.00 6222047.00 L 20107551.00 5022047.00 L 20098190.00 4999448.00 L 20075591.00 4990087.00 L 19900000.00 4990087.00 L 19877401.00 4999448.00 L 19868040.00 5022047.00 L 19868040.00 5072047.00 L 19877401.00 5094646.00 L 19900000.00 5104007.00 L 20043631.00 5104007.00 L 20043631.00 5590087.00 L 19937795.00 5590087.00 L 19915196.00 5599448.00 L 19905835.00 5622047.00 L 19915196.00 5644646.00 L 19937795.00 5654007.00 L 20043631.00 5654007.00 L 20043631.00 6190087.00 L 20000000.00 6190087.00 L 19977401.00 6199448.00 L 19968040.00 6222047.00 L 19977401.00 6244646.00 L 20000000.00 6254007.00 L 20075591.00 6254007.00 L 20098190.00 6244646.00  z"/>
<path id="N" d="M 19622599.00 6244646.00 L 19631960.00 6222047.00 L 19622599.00 6199448.00 L 19600000.00 6190087.00 L 19556369.00 6190087.00 L 19556369.00 5654007.00 L 19662205.00 5654007.00 L 19684804.00 5644646.00 L 19694165.00 5622047.00 L 19684804.00 5599448.00 L 19662205.00 5590087.00 L 19556369.00 5590087.00 L 19556369.00 5104007.00 L 19700000.00 5104007.00 L 19722599.00 5094646.00 L 19731960.00 5072047.00 L 19731960.00 5022047.00 L 19722599.00 4999448.00 L 19700000.00 4990087.00 L 19524409.00 4990087.00 L 19501810.00 4999448.00 L 19492449.00 5022047.00 L 19492449.00 6222047.00 L 19501810.00 6244646.00 L 19524409.00 6254007.00 L 19600000.00 6254007.00 L 19622599.00 6244646.00  z"/>
<path id="N" d="M 23131796.00 14228489.00 L 23144477.00 14197874.00 L 23144477.00 12007874.00 L 23622047.00 12007874.00 L 23622047.00 9721654.00 L 23144477.00 9721654.00 L 23131796.00 9691039.00 L 23101181.00 9678358.00 L 19906693.00 9678358.00 L 19876078.00 9691039.00 L 19863397.00 9721654.00 L 19863397.00 14197874.00 L 19876078.00 14228489.00 L 19906693.00 14241170.00 L 23101181.00 14241170.00 L 23131796.00 14228489.00  zM 23057885.00 14154578.00 L 19949989.00 14154578.00 L 19949989.00 9764950.00 L 23057885.00 9764950.00 L 23057885.00 14154578.00  z"/>
<path id="N" d="M 16929134.00 23049989.00 L 19119134.00 23049989.00 L 19149749.00 23037308.00 L 19162430.00 23006693.00 L 19162430.00 19812205.00 L 19149749.00 19781590.00 L 19119134.00 19768909.00 L 14642914.00 19768909.00 L 14612299.00 19781590.00 L 14599618.00 19812205.00 L 14599618.00 23006693.00 L 14612299.00 23037308.00 L 14642914.00 23049989.00 L 14642914.00 23622047.00 L 16929134.00 23622047.00 L 16929134.00 23049989.00  zM 19075838.00 22963397.00 L 14686210.00 22963397.00 L 14686210.00 19855501.00 L 19075838.00 19855501.00 L 19075838.00 22963397.00  z"/>
<path id="N" d="M 23131796.00 19543450.00 L 23144477.00 19512835.00 L 23144477.00 17322835.00 L 23622047.00 17322835.00 L 23622047.00 15036615.00 L 23144477.00 15036615.00 L 23131796.00 15006000.00 L 23101181.00 14993319.00 L 19906693.00 14993319.00 L 19876078.00 15006000.00 L 19863397.00 15036615.00 L 19863397.00 19512835.00 L 19876078.00 19543450.00 L 19906693.00 19556131.00 L 23101181.00 19556131.00 L 23131796.00 19543450.00  zM 23057885.00 19469539.00 L 19949989.00 19469539.00 L 19949989.00 15079911.00 L 23057885.00 15079911.00 L 23057885.00 19469539.00  z"/>
<path id="N" d="M 10826772.00 23049989.00 L 13016772.00 23049989.00 L 13047387.00 23037308.00 L 13060068.00 23006693.00 L 13060068.00 19812205.00 L 13047387.00 19781590.00 L 13016772.00 19768909.00 L 8540552.00 19768909.00 L 8509937.00 19781590.00 L 8497256.00 19812205.00 L 8497256.00 23006693.00 L 8509937.00 23037308.00 L 8540552.00 23049989.00 L 8540552.00 23622047.00 L 10826772.00 23622047.00 L 10826772.00 23049989.00  zM 12973476.00 22963397.00 L 8583848.00 22963397.00 L 8583848.00 19855501.00 L 12973476.00 19855501.00 L 12973476.00 22963397.00  z"/>
<path id="N" d="M 7777465.00 14228489.00 L 7790146.00 14197874.00 L 7790146.00 9721654.00 L 7777465.00 9691039.00 L 7746850.00 9678358.00 L 4552362.00 9678358.00 L 4521747.00 9691039.00 L 4509066.00 9721654.00 L 3937008.00 9721654.00 L 3937008.00 11811024.00 L 4509066.00 11811024.00 L 4509066.00 14197874.00 L 4521747.00 14228489.00 L 4552362.00 14241170.00 L 7746850.00 14241170.00 L 7777465.00 14228489.00  zM 7703554.00 14154578.00 L 4595658.00 14154578.00 L 4595658.00 9764950.00 L 7703554.00 9764950.00 L 7703554.00 14154578.00  z"/>
<path id="N" d="M 7777465.00 19543450.00 L 7790146.00 19512835.00 L 7790146.00 15036615.00 L 7777465.00 15006000.00 L 7746850.00 14993319.00 L 4552362.00 14993319.00 L 4521747.00 15006000.00 L 4509066.00 15036615.00 L 3937008.00 15036615.00 L 3937008.00 17125984.00 L 4509066.00 17125984.00 L 4509066.00 19512835.00 L 4521747.00 19543450.00 L 4552362.00 19556131.00 L 7746850.00 19556131.00 L 7777465.00 19543450.00  zM 7703554.00 19469539.00 L 4595658.00 19469539.00 L 4595658.00 15079911.00 L 7703554.00 15079911.00 L 7703554.00 19469539.00  z"/>
<path id="N" d="M 9488802.00 9232901.00 L 9501283.00 9202768.00 L 9501283.00 6938960.00 L 9488802.00 6908827.00 L 9458669.00 6896346.00 L 6545261.00 6896346.00 L 6515128.00 6908827.00 L 6502647.00 6938960.00 L 6502647.00 9202768.00 L 6515128.00 9232901.00 L 6545261.00 9245382.00 L 9458669.00 9245382.00 L 9488802.00 9232901.00  zM 9416055.00 9160154.00 L 6587875.00 9160154.00 L 6587875.00 6981574.00 L 9416055.00 6981574.00 L 9416055.00 9160154.00  z"/>
<path id="N" d="M 15802152.00 12322834.00 L 15802152.00 11439740.60 L 15809819.40 11432073.00 L 16929134.00 11432073.00 A 54118.70 54118.70 0 0 0 16929134.00 11323833.00 L 15787402.00 11323832.00 L 15749132.29 11339685.71 L 15709763.00 11379054.00 L 15693912.00 11417325.41 L 15693912.00 12322834.00 A 54118.70 54118.70 0 0 0 15802152.00 12322834.00  z"/>
<path id="N" d="M 12810143.00 13950143.00 L 12822824.00 13919528.00 L 12822824.00 13641733.00 L 12810143.00 13611118.00 L 12779528.00 13598437.00 L 11624725.00 13598437.00 L 11594110.00 13611118.00 L 11581429.00 13641733.00 L 11581429.00 13919528.00 L 11594110.00 13950143.00 L 11624725.00 13962824.00 L 12779528.00 13962824.00 L 12810143.00 13950143.00  zM 12736232.00 13876232.00 L 11668021.00 13876232.00 L 11668021.00 13685029.00 L 12736232.00 13685029.00 L 12736232.00 13876232.00  z"/>
<path id="N" d="M 19035760.00 6557247.00 L 19087760.00 6557247.00 L 19087760.00 6513983.00 L 19035760.00 6513983.00 L 19035760.00 6422047.00 L 18988752.00 6422047.00 L 18988752.00 6513983.00 L 18821520.00 6513983.00 L 18821520.00 6557247.00 L 18997072.00 6806015.00 L 19035760.00 6806015.00 L 19035760.00 6557247.00  zM 18988752.00 6730303.00 L 18867696.00 6557247.00 L 18988752.00 6557247.00 L 18988752.00 6730303.00  z"/>
<path id="N" d="M 19007297.00 4465909.00 L 19059297.00 4465909.00 L 19059297.00 4422645.00 L 19007297.00 4422645.00 L 19007297.00 4330709.00 L 18960289.00 4330709.00 L 18960289.00 4422645.00 L 18793057.00 4422645.00 L 18793057.00 4465909.00 L 18968609.00 4714677.00 L 19007297.00 4714677.00 L 19007297.00 4465909.00  zM 18960289.00 4638965.00 L 18839233.00 4465909.00 L 18960289.00 4465909.00 L 18960289.00 4638965.00  z"/>
<path id="N" d="M 16889764.00 15733281.00 L 15802152.00 15733281.00 L 15802152.00 14881890.00 A 54118.70 54118.70 0 0 0 15693912.00 14881890.00 L 15693912.00 15787401.00 L 15709763.00 15825670.00 L 15748032.00 15841521.00 L 16889764.00 15841521.00 A 54121.84 54121.84 0 0 0 16889764.00 15733281.00  z"/>
<path id="N" d="M 11765433.00 11220473.00 L 11718425.00 11220473.00 L 11717593.00 11519577.00 L 11706361.00 11510425.00 L 11666425.00 11483801.00 L 11623993.00 11463833.00 L 11624409.00 11509593.00 L 11630649.00 11512505.00 L 11669753.00 11536217.00 L 11693049.00 11554105.00 L 11716345.00 11578233.00 L 11735065.00 11605689.00 L 11765433.00 11605689.00 L 11765433.00 11220473.00  z"/>
<path id="N" d="M 11420820.00 13385827.00 L 11373812.00 13385827.00 L 11372980.00 13684931.00 L 11361748.00 13675779.00 L 11321812.00 13649155.00 L 11279380.00 13629187.00 L 11279796.00 13674947.00 L 11286036.00 13677859.00 L 11325140.00 13701571.00 L 11348436.00 13719459.00 L 11371732.00 13743587.00 L 11390452.00 13771043.00 L 11420820.00 13771043.00 L 11420820.00 13385827.00  z"/>
<path id="N" d="M 19288513.00 4330709.00 L 19236097.00 4330709.00 L 19087169.00 4714677.00 L 19142497.00 4714677.00 L 19242337.00 4435125.00 L 19262305.00 4372725.00 L 19268129.00 4392277.00 L 19386689.00 4714677.00 L 19438273.00 4714677.00 L 19288513.00 4330709.00  z"/>
</g>
</svg>
