**ABCDEFGHIJKLMNOPQRSTUVWXYZabcdefghijklmnopqrstuvwxyz**************************
**PARASOLID !"#$%&'()*+,-./:;<=>?@[\]^_`{|}~0123456789**************************
**PART1;
MC=x86;
MC_MODEL=Intel64 Family 6 Model 158 Stepping 10, GenuineIntel;
MC_ID=unknown;
OS=Windows_NT;
OS_RELEASE=unknown;
FRU=CAD Exchanger 3.6.1 (cadexchanger.com);
APPL=unknown;
SITE=unknown;
USER=unknown;
FORMAT=text;
GUISE=transmit;
KEY=BZ_ZK-1205S_Buzzer;
FILE=BZ_ZK-1205S_Buzzer.x_t;
DATE=Wed Jul 28 02:48:23 2021;
**PART2;
SCH=SCH_1200000_12006;
USFLD_SIZE=0;
**PART3;
**END_OF_HEADER*****************************************************************
T51 : TRANSMIT FILE created by modeller version 120000017 SCH_1200000_120060 74
 3 1 3 0 2 47 96 12 2 26 0 3 0 0 0 0 1000 1e-008 0 0 0 1 0 1 1 36 7 13 11 33 12
 10 70 3 0 2 0 0 4 1 20 0 4 4 1 T74 20 4 1 0 5 0 0 0 0 0 0 0 0 0 0 0 0 0 0 0 0 0
 0 0 81 1 5 7 30 6 0 0 39 0 32 14 6 5 5 1e-008 37 0 8 36 7 +0 0 37 0 34 51 7 6 0
 6 38 0 0 +-0.003799906019998885 6.620609972998181e-008 -0.003 0 0 1 0.0003 -4.3
7113882867379e-008 -0.9999999999999991 0 15 8 8 0 9 6 0 17 9 0 8 15 25 10 14 12
 0 25 -18 10 9 0 14 0 16 11 ?2 29 11 10 0 10 17 0 -0.003799906006885469 0.000300
0662060997297 -0.003 16 12 11 0 ?14 0 18 13 0 0 2 31 13 12 0 12 19 0 0 +-0.00379
9906019998885 6.620609972998181e-008 -0.003 0 0 -1 4.37113882867379e-008 0.99999
99999999991 0 0.0003 17 14 0 41 14 14 10 9 12 0 9 +17 15 0 8 26 9 16 25 18 0 26
 +18 16 13 0 15 10 0 17 ?2 29 17 14 0 16 0 11 -0.003799906006885469 0.0003000662
060997297 0.001 16 18 15 0 ?15 12 27 19 0 0 2 134 19 16 0 18 28 13 0 +20 24 136
 20 1 2 3 2 1 FFF1 21 22 23 45 6 21 -0.003799906006885469 0.0003000662060997297
 -0.003 -0.003799906006885469 0.0003000662060997297 0.001 127 2 22 2 2 128 2 23
 0 4 135 24 1 0 17 25 0 8 9 26 10 15 18 0 0 -17 26 0 8 25 15 16 29 27 0 29 +16 2
7 17 0 ?26 18 0 28 0 0 2 31 28 18 0 27 0 19 0 +-0.003799906019998885 6.620609972
998181e-008 0.001 0 0 -1 4.37113882867379e-008 0.9999999999999991 0 0.0003 17 29
 0 46 29 29 16 26 27 0 0 -80 1 30 0 31 8001 0 0 0 0 3 5 0 0 FFFFTFTFFFFFFF2 79 1
5 31 SDL/TYSA_COLOUR83 3 32 1 0.8078431487083435 0.4980392158031464 19 33 1 0 2
 35 0 34 V13 34 2 0 2 0 0 0 0 33 6 19 35 3 0 2 0 33 36 S13 36 4 0 2 0 6 0 0 35 0
 14 37 19 39 1e-008 42 6 41 36 38 +0 0 42 6 34 50 38 20 0 37 43 7 0 +9.398000111
104921e-008 6.603999645449222e-008 -0.003 0 -0 -1 4.37113882867379e-008 0.999999
9999999991 0 81 1 39 21 30 37 0 0 44 5 40 83 3 40 1 0.8078431487083435 0.4980392
158031464 15 41 22 0 14 37 0 14 42 23 44 1e-008 0 37 46 36 43 -0 0 0 37 34 50 43
 24 0 42 0 38 0 +9.398000111104921e-008 6.603999645449222e-008 0.001 0 -0 -1 4.3
7113882867379e-008 0.9999999999999991 0 81 1 44 25 30 42 0 0 0 39 45 83 3 45 1 0
.8078431487083435 0.4980392158031464 15 46 26 0 29 42 0 12 47 30 0 48 0 0 0 0 10
00 1e-008 0 0 0 1 0 1 1 70 52 58 56 67 57 55 70 48 0 47 0 0 4 1 20 0 49 49 1 T74
 20 49 1 0 50 0 0 0 0 0 0 0 0 0 0 0 0 0 0 0 0 0 0 0 81 1 50 7 30 51 0 0 73 0 66
 14 51 5 50 1e-008 71 0 53 70 52 -0 0 71 0 68 50 52 6 0 51 72 0 0 +9.39800011110
4921e-008 6.603999645449222e-008 0.001 0 -0 -1 4.37113882867379e-008 0.999999999
9999991 0 15 53 8 0 54 51 0 17 54 0 53 62 62 55 59 57 0 65 -18 55 9 0 54 0 60 56
 ?47 29 56 10 0 55 61 0 0.003800093993114524 0.0003000658738931774 0.001 16 57 1
1 0 ?59 0 63 58 0 0 47 31 58 12 0 57 64 0 0 +0.003800093980001107 6.587389317760
651e-008 0.001 0 0 -1 4.37113882867379e-008 0.9999999999999991 0 0.0003 17 59 0
 75 90 65 60 54 57 0 82 +18 60 13 0 59 55 77 61 ?47 29 61 14 0 60 78 56 0.003800
093966887691 -0.0002999341261068221 0.001000000000000002 17 62 0 53 54 54 60 65
 63 0 0 -16 63 15 0 ?65 57 79 64 0 0 47 31 64 16 0 63 80 58 0 +0.003800093980001
107 6.587389317760651e-008 0.001 0 0 -1 4.37113882867379e-008 0.9999999999999991
 0 0.0003 17 65 0 75 59 82 55 62 63 0 0 +83 3 66 1 0.8078431487083435 0.49803921
58031464 19 67 1 0 47 69 0 68 V13 68 2 0 47 0 0 0 0 67 51 19 69 3 0 47 0 67 70 S
13 70 4 0 47 0 51 0 0 69 0 14 71 17 73 1e-008 91 51 75 70 72 +0 0 91 51 68 51 72
 18 0 71 92 52 0 +0.003800093980001107 6.587389317760651e-008 -0.011848528137423
85 0 0 1 0.0003 -4.37113882867379e-008 -0.9999999999999991 0 81 1 73 19 30 71 0
 0 93 50 74 83 3 74 1 0.8078431487083435 0.4980392158031464 15 75 20 0 76 71 0 1
7 76 0 75 82 90 77 81 79 0 81 +18 77 21 0 76 60 0 78 ?47 29 78 22 0 77 0 61 0.00
3800093966887691 -0.0002999341261068221 -0.0055 16 79 23 0 ?76 63 83 80 0 0 47 3
1 80 24 0 79 84 64 0 +0.003800093980001107 6.587389317760651e-008 -0.0055 0 0 1
 -4.37113882867379e-008 -0.9999999999999991 0 0.0003 17 81 0 95 81 81 77 76 79 0
 90 -17 82 0 75 65 76 60 90 83 0 62 +16 83 25 0 ?82 79 0 84 0 0 47 134 84 26 0 8
3 0 80 0 +85 89 136 85 1 2 3 2 1 FFF1 86 87 88 45 6 86 0.003800093966887691 -0.0
002999341261068221 -0.0055 0.003800093966887691 -0.0002999341261068221 0.0010000
00000000002 127 2 87 2 2 128 2 88 6.348528137423854 12.84852813742386 135 89 1 0
 17 90 0 75 76 59 77 82 83 0 0 -14 91 27 93 1e-008 0 71 95 70 92 -0 0 0 71 68 50
 92 28 0 91 0 72 0 +9.398000111104921e-008 6.603999645449222e-008 -0.0055 0 0 1
 -4.37113882867379e-008 -0.9999999999999991 0 81 1 93 29 30 91 0 0 0 73 94 83 3
 94 1 0.8078431487083435 0.4980392158031464 15 95 30 0 81 91 0 12 96 213 0 97 0
 0 0 0 1000 1e-008 0 0 0 1 0 1 1 131 101 107 105 128 106 104 70 97 0 96 0 0 4 1
 20 0 98 98 1 T74 20 98 1 0 99 0 0 0 0 0 0 0 0 0 0 0 0 0 0 0 0 0 0 0 81 1 99 7 3
0 100 0 0 134 0 127 14 100 5 99 1e-008 132 0 102 131 101 -0 0 132 0 129 50 101 6
 0 100 133 0 0 +9.398000111104921e-008 6.603999645449222e-008 0 0 0 1 -4.3711388
2867379e-008 -0.9999999999999991 0 15 102 8 0 103 100 0 17 103 0 102 111 123 104
 108 106 0 116 -18 104 9 0 103 0 109 105 ?96 29 105 10 0 104 110 0 0.00507120462
7413758 0.001358865805119371 0 16 106 11 0 ?108 0 114 107 0 0 96 31 107 12 0 106
 115 0 0 +9.398000111104921e-008 6.603999645449222e-008 0 0 0 -1 4.3711388286737
9e-008 0.9999999999999991 0 0.00525 17 108 0 165 178 174 109 103 106 0 181 +18 1
09 13 0 108 104 112 110 ?96 29 110 14 0 109 113 105 0.00507120450862367 -0.00135
8734168457102 0 17 111 0 102 117 103 112 116 114 0 213 -18 112 15 0 122 109 118
 113 ?96 29 113 16 0 112 119 110 0.005795649005615565 0.00155298005727979 0 16 1
14 17 0 ?116 106 120 115 0 0 96 30 115 18 0 114 121 107 0 +0.005071204627413758
 0.001358865805119371 0 -0.9659258376024087 -0.2588190028805557 0 17 116 0 417 1
77 213 104 111 114 0 174 +17 117 0 102 123 111 118 122 120 0 126 -18 118 19 0 11
7 112 138 119 ?96 29 119 20 0 118 139 113 0.005795648869855466 -0.00155284848395
0468 0 16 120 21 0 ?122 114 124 121 0 0 96 31 121 22 0 120 125 115 0 +9.39800011
1104921e-008 6.603999645449222e-008 0 0 0 1 -4.37113882867379e-008 -0.9999999999
999991 0 0.006000000000000001 17 122 0 207 208 281 112 117 120 0 111 +17 123 0 1
02 103 117 109 126 124 0 0 -16 124 23 0 ?126 120 140 125 0 0 96 30 125 24 0 124
 141 121 0 +0.00507120450862367 -0.001358734168457102 0 0.9659258149757254 -0.25
88190873244877 0 17 126 0 412 284 181 118 123 124 0 281 +83 3 127 0.101960785686
9698 0.1019607856869698 0.1019607856869698 19 128 1 0 96 130 0 129 V13 129 2 0 9
6 0 0 0 0 128 100 19 130 3 0 96 0 128 131 S13 131 4 0 96 0 100 0 0 130 0 14 132
 25 134 1e-008 161 100 136 131 133 -0 0 161 100 129 50 133 26 0 132 162 101 0 +9
.398000111104921e-008 6.603999645449222e-008 0 0 0 1 -4.37113882867379e-008 -0.9
999999999999991 0 81 1 134 27 30 132 0 0 163 99 135 83 3 135 0.1019607856869698
 0.1019607856869698 0.1019607856869698 15 136 28 0 137 132 0 17 137 0 136 145 15
7 138 142 140 0 0 -18 138 29 0 195 118 143 139 ?96 29 139 30 0 138 144 119 -0.00
1358706228452462 -0.005071044488626099 0 16 140 31 0 ?142 124 148 141 0 0 96 31
 141 32 0 140 149 125 0 +9.398000111104921e-008 6.603999645449222e-008 0 0 0 -1
 4.37113882867379e-008 0.9999999999999991 0 0.00525 17 142 0 186 199 195 143 137
 140 0 0 +18 143 33 0 157 138 146 144 ?96 29 144 34 0 143 147 139 -0.00371221678
3498504 -0.003712244398962672 0 17 145 0 136 151 137 146 150 148 0 274 -18 146 3
5 0 156 143 152 147 ?96 29 147 36 0 146 153 144 -0.001552820543945828 -0.0057954
88849857895 0 16 148 37 0 ?150 140 154 149 0 0 96 30 149 38 0 148 155 141 0 +-0.
001358706228452462 -0.005071044488626099 0 0.25881908732449 0.9659258149757248 0
 17 150 0 407 198 274 138 145 148 0 137 +17 151 0 136 157 145 152 156 154 0 265
 -18 152 39 0 160 146 167 153 ?96 29 153 40 0 152 168 147 -0.004242546892569879
 -0.00424257446167112 0 16 154 41 0 ?156 148 158 155 0 0 96 31 155 42 0 154 159
 149 0 +9.398000111104921e-008 6.603999645449222e-008 0 0 0 1 -4.37113882867379e
-008 -0.9999999999999991 0 0.006000000000000001 17 156 0 207 269 265 146 151 154
 0 145 +17 157 0 136 137 151 143 160 158 0 202 -16 158 43 0 ?160 154 169 159 0 0
 96 30 159 44 0 158 170 155 0 +-0.003712216783498504 -0.003712244398962672 0 -0.
7071068120951655 -0.7071067502779284 0 17 160 0 402 268 202 152 157 158 0 151 +1
4 161 45 163 1e-008 182 132 165 131 162 -0 0 182 132 129 51 162 46 0 161 183 133
 0 +9.398000111104921e-008 6.603999645449222e-008 0.001 0 0 -1 0.00525 4.3711388
2867379e-008 0.9999999999999991 0 81 1 163 47 30 161 0 0 184 134 164 83 3 164 0.
1019607856869698 0.1019607856869698 0.1019607856869698 15 165 48 0 166 161 0 17
 166 0 165 174 178 167 171 169 0 177 -18 167 49 0 166 152 172 168 ?96 29 168 50
 0 167 173 153 0.005071204627413758 0.001358865805119371 0.001 16 169 51 0 ?171
 158 175 170 0 0 96 31 170 52 0 169 176 159 0 +9.398000111104921e-008 6.60399964
5449222e-008 0.001 0 0 -1 4.37113882867379e-008 0.9999999999999991 0 0.00525 17
 171 0 368 377 373 172 166 169 0 380 +18 172 53 0 178 167 188 173 ?96 29 173 54
 0 172 189 168 0.00507120450862367 -0.001358734168457102 0.001000000000000001 17
 174 0 165 108 166 104 177 175 0 0 +16 175 55 0 ?174 169 179 176 0 0 96 30 176 5
6 0 175 180 170 0 +0.005071204627413758 0.001358865805119371 0.00969141746567480
9 0 0 -1 17 177 0 417 376 116 167 174 175 0 373 -17 178 0 165 166 108 172 181 17
9 0 171 -16 179 57 0 ?181 175 190 180 0 0 96 30 180 58 0 179 191 176 0 +0.005071
20450862367 -0.001358734168457102 0.009691417465674819 0 0 -1 17 181 0 412 126 3
80 109 178 179 0 123 +14 182 59 184 1e-008 203 161 186 131 183 -0 0 203 161 129
 51 183 60 0 182 204 162 0 +9.398000111104921e-008 6.603999645449222e-008 0.001
 0 0 -1 0.00525 4.37113882867379e-008 0.9999999999999991 0 81 1 184 61 30 182 0
 0 205 163 185 83 3 185 0.1019607856869698 0.1019607856869698 0.1019607856869698
 15 186 62 0 187 182 0 17 187 0 186 195 199 188 192 190 0 381 -18 188 63 0 198 1
72 193 189 ?96 29 189 64 0 188 194 173 -0.001358706228452462 -0.0050710444886261
01 0.001 16 190 65 0 ?192 179 196 191 0 0 96 31 191 66 0 190 197 180 0 +9.398000
111104921e-008 6.603999645449222e-008 0.001 0 0 -1 4.37113882867379e-008 0.99999
99999999991 0 0.00525 17 192 0 368 385 381 193 187 190 0 199 +18 193 67 0 192 18
8 209 194 ?96 29 194 68 0 193 210 189 -0.003712216783498504 -0.00371224439896267
2 0.001000000000000001 17 195 0 186 142 187 138 198 196 0 150 +16 196 69 0 ?195
 190 200 197 0 0 96 30 197 70 0 196 201 191 0 +-0.001358706228452462 -0.00507104
4488626099 0.009691417465674819 0 0 -1 17 198 0 407 384 150 188 195 196 0 187 -1
7 199 0 186 187 142 193 202 200 0 388 -16 200 71 0 ?202 196 211 201 0 0 96 30 20
1 72 0 200 212 197 0 +-0.003712216783498504 -0.003712244398962672 0.009788260509
637149 0 0 -1 17 202 0 402 160 388 143 199 200 0 142 +14 203 73 205 1e-008 285 1
82 207 131 204 +0 0 285 182 129 51 204 74 0 203 286 183 0 +9.398000111104921e-00
8 6.603999645449222e-008 0.0095 0 0 -1 0.006000000000000001 4.37113882867379e-00
8 0.9999999999999991 0 81 1 205 75 30 203 0 0 287 184 206 83 3 206 0.10196078568
69698 0.1019607856869698 0.1019607856869698 15 207 76 0 122 203 0 17 208 0 207 2
14 122 209 213 211 0 376 -18 209 77 0 219 193 215 210 ?96 29 210 78 0 209 216 19
4 0.005795649005615564 0.00155298005727979 0.001000000000000001 16 211 79 0 ?213
 200 217 212 0 0 96 30 212 80 0 211 218 201 0 +0.005795649005615565 0.0015529800
5727979 0.009691417465674809 0 0 -1 17 213 0 417 116 376 112 208 211 0 0 +17 214
 0 207 220 208 215 219 217 0 246 +18 215 81 0 214 209 221 216 ?96 29 216 82 0 21
5 222 210 -0.001552820037282241 0.005795621065610904 0.001000000000000001 16 217
 83 0 ?214 211 223 218 0 0 96 31 218 84 0 217 224 212 0 +9.398000111104921e-008
 6.603999645449222e-008 0.001000000000000001 -0 0 1 4.37113882867379e-008 0.9999
999999999991 0 0.006000000000000001 17 219 0 368 373 369 209 214 217 0 208 -17 2
20 0 207 231 214 221 230 223 0 236 -18 221 85 0 237 215 232 222 ?96 29 222 86 0
 221 233 216 -0.001552820037282244 0.005795621065610902 0.0095 16 223 87 0 ?230
 217 234 224 0 0 96 134 224 88 0 223 235 218 0 +225 229 136 225 1 2 3 2 1 FFF1 2
26 227 228 45 6 226 -0.001552820037282249 0.005795621065610901 0.0095 -0.0015528
20037282249 0.005795621065610901 0.001 127 2 227 2 2 128 2 228 0 8.5 135 229 1 0
 17 230 0 207 241 237 215 220 223 0 369 +17 231 0 207 237 220 232 236 234 0 0 -1
8 232 89 0 240 221 242 233 ?96 29 233 90 0 232 243 222 9.371773278059399e-008 -0
.005999933960003541 0.0095 16 234 91 0 ?236 223 238 235 0 0 96 31 235 92 0 234 2
39 224 0 +9.398000111104921e-008 6.603999645449222e-008 0.0095 0 0 1 -4.37113882
867379e-008 -0.9999999999999991 0 0.006000000000000001 17 236 0 296 240 240 221
 231 234 0 0 +17 237 0 207 230 231 221 240 238 0 220 -16 238 93 0 ?240 234 244 2
39 0 0 96 31 239 94 0 238 245 235 0 +9.398000111104921e-008 6.603999645449222e-0
08 0.0095 0 0 1 -4.37113882867379e-008 -0.9999999999999991 0 0.00600000000000000
1 17 240 0 296 236 236 232 237 238 0 231 +17 241 0 207 247 230 242 246 244 0 252
 +18 242 95 0 241 232 248 243 ?96 29 243 96 0 242 249 233 -0.001552820037282241
 0.005795621065610904 0 16 244 97 0 ?241 238 250 245 0 0 96 30 245 98 0 244 251
 239 0 +-0.001552820037282241 0.005795621065610904 0.009691417465674809 0 0 -1 1
7 246 0 422 372 307 215 241 244 0 230 -17 247 0 207 253 241 248 252 250 0 314 +1
8 248 99 0 258 242 254 249 ?96 29 249 100 0 248 255 243 -0.00424254652166645 0.0
04242706912567457 0 16 250 101 0 ?247 244 256 251 0 0 96 31 251 102 0 250 257 24
5 0 +9.398000111104921e-008 6.603999645449222e-008 0 0 0 1 -4.37113882867379e-00
8 -0.9999999999999991 0 0.006000000000000001 17 252 0 301 302 314 242 247 250 0
 307 -17 253 0 207 259 247 254 258 256 0 264 -18 254 103 0 253 248 260 255 ?96 2
9 255 104 0 254 261 249 -0.00424254652166645 0.004242706912567457 0.001000000000
000001 16 256 105 0 ?258 250 262 257 0 0 96 30 257 106 0 256 263 251 0 +-0.00424
254652166645 0.004242706912567457 0.009788260509637149 0 0 -1 17 258 0 397 317 3
92 248 253 256 0 247 +17 259 0 207 265 253 260 264 262 0 268 +18 260 107 0 259 2
54 270 261 ?96 29 261 108 0 260 271 255 -0.004242546892569879 -0.004242574461671
12 0.001000000000000001 16 262 109 0 ?259 256 266 263 0 0 96 31 263 110 0 262 26
7 257 0 +9.398000111104921e-008 6.603999645449222e-008 0.001000000000000001 -0 0
 1 4.37113882867379e-008 0.9999999999999991 0 0.006000000000000001 17 264 0 368
 389 385 254 259 262 0 392 -17 265 0 207 156 259 152 268 266 0 0 +16 266 111 0 ?
265 262 272 267 0 0 96 30 267 112 0 266 273 263 0 +-0.004242546892569879 -0.0042
4257446167112 0.009788260509637149 0 0 -1 17 268 0 402 388 160 260 265 266 0 385
 -17 269 0 207 275 156 270 274 272 0 280 -18 270 113 0 269 260 276 271 ?96 29 27
1 114 0 270 277 261 -0.001552820543945828 -0.005795488849857896 0.00100000000000
0001 16 272 115 0 ?274 266 278 273 0 0 96 30 273 116 0 272 279 267 0 +-0.0015528
20543945828 -0.005795488849857895 0.009691417465674819 0 0 -1 17 274 0 407 150 3
84 146 269 272 0 0 +17 275 0 207 281 269 276 280 278 0 377 +18 276 117 0 284 270
 291 277 ?96 29 277 118 0 276 292 271 0.005795648869855466 -0.001552848483950468
 0.001000000000000004 16 278 119 0 ?275 272 282 279 0 0 96 31 279 120 0 278 283
 273 0 +9.398000111104921e-008 6.603999645449222e-008 0.001000000000000001 -0 0
 1 4.37113882867379e-008 0.9999999999999991 0 0.006000000000000001 17 280 0 368
 381 377 270 275 278 0 384 -17 281 0 207 122 275 118 284 282 0 0 +16 282 121 0 ?
281 278 293 283 0 0 96 30 283 122 0 282 294 279 0 +0.005795648869855466 -0.00155
2848483950468 0.009691417465674819 0 0 -1 17 284 0 412 380 126 276 281 282 0 275
 -14 285 123 287 1e-008 297 203 289 131 286 +0 0 297 203 129 50 286 124 0 285 29
8 204 0 +9.398000111104921e-008 6.603999645449222e-008 0.0095 0 0 1 -4.371138828
67379e-008 -0.9999999999999991 0 81 1 287 125 30 285 0 0 299 205 288 83 3 288 0.
1019607856869698 0.1019607856869698 0.1019607856869698 15 289 126 0 290 285 296
 17 290 0 289 290 290 291 295 293 0 323 -18 291 127 0 295 276 303 292 ?96 29 292
 128 0 291 304 277 9.392317630611723e-008 -0.001299933960003544 0.0095 16 293 12
9 0 ?295 282 305 294 0 0 96 31 294 130 0 293 306 283 0 +9.398000111104921e-008 6
.603999645449222e-008 0.0095 0 0 1 -4.37113882867379e-008 -0.9999999999999991 0
 0.0013 17 295 0 322 331 323 291 290 293 0 290 +15 296 131 0 236 285 0 14 297 13
2 299 1e-008 318 285 301 131 298 -0 0 318 285 129 50 298 133 0 297 319 286 0 +9.
398000111104921e-008 6.603999645449222e-008 0 0 0 1 -4.37113882867379e-008 -0.99
99999999999991 0 81 1 299 134 30 297 0 0 320 287 300 83 3 300 0.1019607856869698
 0.1019607856869698 0.1019607856869698 15 301 135 0 252 297 0 17 302 0 301 308 2
52 303 307 305 0 313 -18 303 136 0 302 291 309 304 ?96 29 304 137 0 303 310 292
 -0.001358705785121823 0.005071176687409097 0 16 305 138 0 ?307 293 311 306 0 0
 96 30 306 139 0 305 312 294 0 +-0.001358705785121823 0.005071176687409097 0 -0.
258819002880558 0.9659258376024082 0 17 307 0 422 246 353 242 302 305 0 0 +17 30
8 0 301 314 302 309 313 311 0 317 -18 309 140 0 308 303 332 310 ?96 29 310 141 0
 309 333 304 -0.003712216458958003 0.003712376803496083 0 16 311 142 0 ?313 305
 315 312 0 0 96 31 312 143 0 311 316 306 0 +9.398000111104921e-008 6.60399964544
9222e-008 0 0 0 -1 4.37113882867379e-008 0.9999999999999991 0 0.00525 17 313 0 3
47 348 360 303 308 311 0 353 +17 314 0 301 252 308 248 317 315 0 0 -16 315 144 0
 ?317 311 324 316 0 0 96 30 316 145 0 315 325 312 0 +-0.003712216458958003 0.003
712376803496083 0 0.7071067502779267 -0.7071068120951671 0 17 317 0 397 363 258
 309 314 315 0 360 +14 318 146 320 1e-008 338 297 322 131 319 -0 0 338 297 129 5
1 319 147 0 318 339 298 0 +9.398000111104921e-008 6.603999645449222e-008 0.00650
0000000000001 0 0 1 0.0013 -4.37113882867379e-008 -0.9999999999999991 0 81 1 320
 148 30 318 0 0 340 299 321 83 3 321 0.1019607856869698 0.1019607856869698 0.101
9607856869698 15 322 149 0 323 318 0 17 323 0 322 295 334 291 331 324 0 0 +16 32
4 150 0 ?323 315 335 325 0 0 96 134 325 151 0 324 336 316 0 +326 330 136 326 1 2
 3 2 1 FFF1 327 328 329 45 6 327 9.392317630627645e-008 -0.001299933960003544 0.
0065 9.392317630627645e-008 -0.001299933960003544 0.0095 127 2 328 2 2 128 2 329
 0 3 135 330 1 0 17 331 0 322 334 295 332 323 324 0 0 -18 332 152 0 337 309 349
 333 ?96 29 333 153 0 332 350 310 9.392317630611723e-008 -0.001299933960003544 0
.0065 17 334 0 322 323 331 332 337 335 0 331 -16 335 154 0 ?337 324 351 336 0 0
 96 31 336 155 0 335 352 325 0 +9.398000111104921e-008 6.603999645449222e-008 0.
006500000000000001 0 0 1 -4.37113882867379e-008 -0.9999999999999991 0 0.0013 17
 337 0 342 337 337 332 334 335 0 334 +14 338 156 340 1e-008 343 318 342 131 339
 +0 0 343 318 129 50 339 157 0 338 344 319 0 +9.398000111104921e-008 6.603999645
449222e-008 0.006500000000000001 0 0 1 -4.37113882867379e-008 -0.999999999999999
1 0 81 1 340 158 30 338 0 0 345 320 341 83 3 341 0.6901960968971252 0.6117647290
229797 0.529411792755127 15 342 159 0 337 338 0 14 343 160 345 1e-008 364 338 34
7 131 344 -0 0 364 338 129 51 344 161 0 343 365 339 0 +9.398000111104921e-008 6.
603999645449222e-008 0.001 0 0 -1 0.00525 4.37113882867379e-008 0.99999999999999
91 0 81 1 345 162 30 343 0 0 366 340 346 83 3 346 0.1019607856869698 0.101960785
6869698 0.1019607856869698 15 347 163 0 313 343 0 17 348 0 347 354 313 349 353 3
51 0 359 -18 349 164 0 348 332 355 350 ?96 29 350 165 0 349 356 333 -0.001358705
785121823 0.005071176687409097 0.001000000000000001 16 351 166 0 ?353 335 357 35
2 0 0 96 30 352 167 0 351 358 336 0 +-0.001358705785121823 0.005071176687409097
 0.009691417465674809 0 0 -1 17 353 0 422 307 372 303 348 351 0 0 +17 354 0 347
 360 348 355 359 357 0 363 -18 355 168 0 354 349 0 356 ?96 29 356 169 0 355 0 35
0 -0.003712216458958004 0.003712376803496084 0.001 16 357 170 0 ?359 351 361 358
 0 0 96 31 358 171 0 357 362 352 0 +9.398000111104921e-008 6.603999645449222e-00
8 0.001 0 0 -1 4.37113882867379e-008 0.9999999999999991 0 0.00525 17 359 0 368 3
69 389 349 354 357 0 372 +17 360 0 347 313 354 309 363 361 0 0 +16 361 172 0 ?36
0 357 370 362 0 0 96 30 362 173 0 361 371 358 0 +-0.003712216458958003 0.0037123
76803496083 0.009788260509637149 0 0 -1 17 363 0 397 392 317 355 360 361 0 389 -
14 364 174 366 1e-008 393 343 368 131 365 +0 0 393 343 129 50 365 175 0 364 394
 344 0 +9.398000111104921e-008 6.603999645449222e-008 0.001 0 -0 -1 4.3711388286
7379e-008 0.9999999999999991 0 81 1 366 176 30 364 0 0 395 345 367 83 3 367 0.10
19607856869698 0.1019607856869698 0.1019607856869698 15 368 177 0 359 364 0 17 3
69 0 368 219 359 215 372 370 0 0 -16 370 178 0 ?372 361 374 371 0 0 96 30 371 17
9 0 370 375 362 0 +-0.001358705785121823 0.005071176687409097 0.0010000000000000
01 0.258819002880558 -0.9659258376024082 0 17 372 0 422 353 246 349 369 370 0 0
 +17 373 0 368 171 219 167 376 374 0 0 -16 374 180 0 ?376 370 378 375 0 0 96 30
 375 181 0 374 379 371 0 +0.005071204627413758 0.001358865805119371 0.0010000000
00000001 0.9659258376024088 0.2588190028805557 0 17 376 0 417 213 177 209 373 37
4 0 0 +17 377 0 368 280 171 276 380 378 0 0 -16 378 182 0 ?380 374 382 379 0 0 9
6 30 379 183 0 378 383 375 0 +0.00507120450862367 -0.001358734168457102 0.001000
000000000001 -0.9659258149757254 0.2588190873244877 0 17 380 0 412 181 284 172 3
77 378 0 0 +17 381 0 368 192 280 188 384 382 0 0 -16 382 184 0 ?384 378 386 383
 0 0 96 30 383 185 0 382 387 379 0 +-0.001358706228452462 -0.005071044488626099
 0.001000000000000001 -0.2588190873244899 -0.9659258149757248 0 17 384 0 407 274
 198 270 381 382 0 0 +17 385 0 368 264 192 260 388 386 0 0 -16 386 186 0 ?388 38
2 390 387 0 0 96 30 387 187 0 386 391 383 0 +-0.003712216783498504 -0.0037122443
98962672 0.001000000000000001 0.7071068120951655 0.7071067502779284 0 17 388 0 4
02 202 268 193 385 386 0 0 +17 389 0 368 359 264 355 392 390 0 0 -16 390 188 0 ?
392 386 0 391 0 0 96 30 391 189 0 390 0 387 0 +-0.003712216458958003 0.003712376
803496083 0.001000000000000001 -0.7071067502779267 0.7071068120951671 0 17 392 0
 397 258 363 254 389 390 0 0 +14 393 190 395 1e-008 398 364 397 131 394 -0 0 398
 364 129 50 394 191 0 393 399 365 0 +-0.003712216458958003 0.003712376803496083
 0.009788260509637149 0.7071068120951671 0.7071067502779267 0 -0.707106750277926
7 0.7071068120951671 0 81 1 395 192 30 393 0 0 400 366 396 83 3 396 0.1019607856
869698 0.1019607856869698 0.1019607856869698 15 397 193 0 392 393 0 14 398 194 4
00 1e-008 403 393 402 131 399 -0 0 403 393 129 50 399 195 0 398 404 394 0 +-0.00
3712216783498505 -0.003712244398962672 0.009788260509637149 0.7071067502779284 -
0.7071068120951655 0 0.7071068120951655 0.7071067502779284 0 81 1 400 196 30 398
 0 0 405 395 401 83 3 401 0.1019607856869698 0.1019607856869698 0.10196078568696
98 15 402 197 0 388 398 0 14 403 198 405 1e-008 408 398 407 131 404 -0 0 408 398
 129 50 404 199 0 403 409 399 0 +-0.001358706228452462 -0.005071044488626099 0.0
09691417465674819 -0.9659258149757248 0.25881908732449 0 -0.25881908732449 -0.96
59258149757248 0 81 1 405 200 30 403 0 0 410 400 406 83 3 406 0.1019607856869698
 0.1019607856869698 0.1019607856869698 15 407 201 0 384 403 0 14 408 202 410 1e-
008 413 403 412 131 409 -0 0 413 403 129 50 409 203 0 408 414 404 0 +0.005071204
50862367 -0.001358734168457102 0.009691417465674819 0.2588190873244877 0.9659258
149757254 0 -0.9659258149757254 0.2588190873244877 0 81 1 410 204 30 408 0 0 415
 405 411 83 3 411 0.1019607856869698 0.1019607856869698 0.1019607856869698 15 41
2 205 0 380 408 0 14 413 206 415 1e-008 418 408 417 131 414 -0 0 418 408 129 50
 414 207 0 413 419 409 0 +0.005071204627413758 0.001358865805119371 0.0096914174
65674809 0.2588190028805557 -0.9659258376024088 0 0.9659258376024088 0.258819002
8805557 0 81 1 415 208 30 413 0 0 420 410 416 83 3 416 0.1019607856869698 0.1019
607856869698 0.1019607856869698 15 417 209 0 376 413 0 14 418 210 420 1e-008 0 4
13 422 131 419 -0 0 0 413 129 50 419 211 0 418 0 414 0 +-0.001358705785121823 0.
005071176687409097 0.009691417465674809 -0.9659258376024082 -0.258819002880558 0
 0.258819002880558 -0.9659258376024081 0 81 1 420 212 30 418 0 0 0 415 421 83 3
 421 0.1019607856869698 0.1019607856869698 0.1019607856869698 15 422 213 0 372 4
18 0 1 0 
