**ABCDEFGHIJKLMNOPQRSTUVWXYZabcdefghijklmnopqrstuvwxyz**************************
**PARASOLID !"#$%&'()*+,-./:;<=>?@[\]^_`{|}~0123456789**************************
**PART1;
MC=x86;
MC_MODEL=Intel64 Family 6 Model 158 Stepping 10, GenuineIntel;
MC_ID=unknown;
OS=Windows_NT;
OS_RELEASE=unknown;
FRU=CAD Exchanger 3.6.1 (cadexchanger.com);
APPL=unknown;
SITE=unknown;
USER=unknown;
FORMAT=text;
GUISE=transmit;
KEY=CAP_1206_3216_-_1.8MM_Capacitor;
FILE=CAP_1206_3216_-_1.8MM_Capacitor.x_t;
DATE=Wed Jul 28 02:48:22 2021;
**PART2;
SCH=SCH_1200000_12006;
USFLD_SIZE=0;
**PART3;
**END_OF_HEADER*****************************************************************
T51 : TRANSMIT FILE created by modeller version 120000017 SCH_1200000_120060 12
 1 486 0 2 0 0 0 0 1000 1e-008 0 0 0 1 0 1 1 38 6 12 10 35 11 9 70 2 0 1 0 0 4 1
 20 0 3 3 1 T74 20 3 1 0 4 0 0 0 0 0 0 0 0 0 0 0 0 0 0 0 0 0 0 0 81 1 4 7 32 5 0
 0 41 0 34 14 5 5 4 1e-008 39 0 7 38 6 -0 0 39 0 36 50 6 6 0 5 40 0 0 +0.0011000
81416378523 -0.0007799211454775787 0.001779999965905116 -1.748455532455127e-007
 0.9999999999999838 4.371138828673856e-008 -0.9999999999999848 -1.74845553245512
9e-007 -4.308362012985397e-024 15 7 8 0 8 5 0 17 8 0 7 16 28 9 13 11 0 21 +18 9
 9 0 8 0 14 10 ?1 29 10 10 0 9 15 0 -0.001099918583621458 -0.0007799214540799803
 3.999996590511721e-005 16 11 11 0 ?8 0 19 12 0 0 1 30 12 12 0 11 20 0 0 +-0.001
099918583621444 -0.0007799215301377959 0.001779999965905116 -7.642741863815873e-
015 4.371138828673789e-008 -0.9999999999999991 17 13 0 130 143 139 14 8 11 0 146
 -18 14 13 0 13 9 17 15 ?1 29 15 14 0 14 18 10 -0.001099918583621444 -0.00077992
1529263568 0.001759999965905116 17 16 0 7 22 8 17 21 19 0 27 +18 17 15 0 16 14 2
3 18 ?1 29 18 16 0 17 24 15 0.00110008141637851 -0.0007799210694197632 3.9999965
90511721e-005 16 19 17 0 ?16 11 25 20 0 0 1 30 20 18 0 19 26 12 0 +0.00110008141
637851 -0.0007799210694197632 3.999996590511721e-005 0.9999999999999848 1.748455
532455129e-007 4.308362012985397e-024 17 21 0 506 142 408 9 16 19 0 139 -17 22 0
 7 28 16 23 27 25 0 31 -18 23 19 0 22 17 45 24 ?1 29 24 20 0 23 46 18 0.00110008
1416378523 -0.0007799211446033509 0.001759999965905116 16 25 21 0 ?27 19 29 26 0
 0 1 30 26 22 0 25 30 20 0 +0.001100081416378523 -0.0007799211454775787 0.001779
999965905116 -7.642741863815873e-015 4.371138828673789e-008 -0.9999999999999991
 17 27 0 400 405 401 17 22 25 0 408 +17 28 0 7 8 22 14 31 29 0 0 +16 29 23 0 ?28
 25 47 30 0 0 1 30 30 24 0 29 48 26 0 +-0.001099918583621444 -0.0007799215292635
68 0.001759999965905116 -0.9999999999999848 -1.748455532455129e-007 -4.308362012
985397e-024 17 31 0 511 404 146 23 28 29 0 401 -80 1 32 0 33 8001 0 0 0 0 3 5 0
 0 FFFFTFTFFFFFFF2 79 15 33 SDL/TYSA_COLOUR83 3 34 1 1 1 19 35 1 0 1 37 0 36 V13
 36 2 0 1 0 0 0 0 35 5 19 37 3 0 1 0 35 38 S13 38 4 0 1 0 5 0 0 37 0 14 39 25 41
 1e-008 68 5 43 38 40 -0 0 68 5 36 50 40 26 0 39 69 6 0 +0.00110008114361946 0.0
007800788545223959 0.001780000034094881 1.748455531962308e-007 -0.99999999999998
38 -4.371138828673856e-008 0.9999999999999848 1.74845553196231e-007 2.1541810064
92698e-024 81 1 41 27 32 39 0 0 70 4 42 83 3 42 1 1 1 15 43 28 0 44 39 0 17 44 0
 43 52 64 45 49 47 0 409 +18 45 29 0 44 23 50 46 ?1 29 46 30 0 45 51 24 0.001100
081143619447 0.0007800789305802115 4.000003409488293e-005 16 47 31 0 ?44 29 55 4
8 0 0 1 30 48 32 0 47 56 30 0 +0.00110008114361946 0.0007800788545223959 0.00178
0000034094881 -7.642741863815873e-015 4.371138828673789e-008 -0.9999999999999991
 17 49 0 400 413 409 50 44 47 0 416 -18 50 33 0 64 45 53 51 ?1 29 51 34 0 50 54
 46 0.00110008114361946 0.0007800788553966237 0.001760000034094881 17 52 0 43 58
 44 53 57 55 0 0 +18 53 35 0 138 50 59 54 ?1 29 54 36 0 53 60 51 -0.001099918856
38052 0.0007800785459199946 4.000003409488293e-005 16 55 37 0 ?52 47 61 56 0 0 1
 30 56 38 0 55 62 48 0 +0.001100081143619447 0.0007800789305802115 4.00000340948
8293e-005 -0.9999999999999848 -1.74845553196231e-007 -2.154181006492698e-024 17
 57 0 496 412 138 45 52 55 0 0 -17 58 0 43 64 52 59 63 61 0 67 -18 59 39 0 131 5
3 74 60 ?1 29 60 40 0 59 75 54 -0.001099918856380507 0.0007800784707364068 0.001
760000034094881 16 61 41 0 ?63 55 65 62 0 0 1 30 62 42 0 61 66 56 0 +-0.00109991
8856380507 0.000780078469862179 0.001780000034094881 -7.642741863815873e-015 4.3
71138828673789e-008 -0.9999999999999991 17 63 0 130 135 131 53 58 61 0 52 +17 64
 0 43 44 58 50 67 65 0 49 +16 65 43 0 ?64 61 76 66 0 0 1 30 66 44 0 65 77 62 0 +
0.00110008114361946 0.0007800788553966237 0.001760000034094881 0.999999999999984
8 1.74845553196231e-007 2.154181006492698e-024 17 67 0 501 134 416 59 64 65 0 0
 -14 68 45 70 1e-008 97 39 72 38 69 +0 0 97 39 36 50 69 46 0 68 98 40 0 +8.12799
9900803647e-008 7.866219229995863e-008 0.001779999999999999 7.642741863815873e-0
15 -4.371138828673789e-008 0.9999999999999991 1.748455531469489e-007 -0.99999999
99999838 -4.371138828673856e-008 81 1 70 47 32 68 0 0 99 41 71 83 3 71 1 1 1 15
 72 48 0 73 68 0 17 73 0 72 81 93 74 78 76 0 413 +18 74 49 0 86 59 79 75 ?1 29 7
5 50 0 74 80 60 0.001100081147116371 0.0007600788545223961 0.001780000033220654
 16 76 51 0 ?73 65 84 77 0 0 1 30 77 52 0 76 85 66 0 +0.001100081416378523 -0.00
07799211454775787 0.001779999965905116 -1.748455531469489e-007 0.999999999999983
8 4.371138828673856e-008 17 78 0 400 401 413 79 73 76 0 404 -18 79 53 0 78 74 82
 80 ?1 29 80 54 0 79 83 75 0.001100081412881612 -0.0007599211454775789 0.0017799
99966779343 17 81 0 72 87 73 82 86 84 0 92 +18 82 55 0 134 79 88 83 ?1 29 83 56
 0 82 89 80 -0.001099918852883596 0.0007600784698621788 0.001780000033220654 16
 84 57 0 ?81 76 90 85 0 0 1 30 85 58 0 84 91 77 0 +-0.001099918852883596 0.00076
00784698621792 0.001780000033220654 -0.9999999999999848 -1.74845553196231e-007 -
2.154181006492698e-024 17 86 0 501 416 134 74 81 84 0 73 -17 87 0 72 93 81 88 92
 90 0 96 +18 88 59 0 143 82 103 89 ?1 29 89 60 0 88 104 83 -0.001099918587118355
 -0.000759921530137796 0.001779999966779343 16 90 61 0 ?87 84 94 91 0 0 1 30 91
 62 0 90 95 85 0 +-0.001099918583621444 -0.0007799215301377959 0.001779999965905
116 1.748455531469489e-007 -0.9999999999999838 -4.371138828673856e-008 17 92 0 1
30 131 143 82 87 90 0 0 -17 93 0 72 73 87 79 96 94 0 0 +16 94 63 0 ?93 90 105 95
 0 0 1 30 95 64 0 94 106 91 0 +0.001100081412881612 -0.0007599211454775789 0.001
779999966779343 0.9999999999999848 1.748455532455129e-007 4.308362012985397e-024
 17 96 0 511 146 404 88 93 94 0 0 -14 97 65 99 1e-008 126 68 101 38 98 -0 0 126
 68 36 50 98 66 0 97 127 69 0 +8.127999899458526e-008 7.873912434334328e-008 1.9
99999999999999e-005 7.642741863815873e-015 -4.371138828673789e-008 0.99999999999
99991 1.748455531469489e-007 -0.9999999999999838 -4.371138828673856e-008 81 1 99
 67 32 97 0 0 128 70 100 83 3 100 1 1 1 15 101 68 0 102 97 0 17 102 0 101 110 12
2 103 107 105 0 0 -18 103 69 0 115 88 108 104 ?1 29 104 70 0 103 109 89 -0.00109
991885288361 0.0007600785467942222 2.000003322065508e-005 16 105 71 0 ?107 94 11
3 106 0 0 1 30 106 72 0 105 114 95 0 +-0.001099918583621458 -0.00077992145320575
25 1.999996590511712e-005 1.748455531469489e-007 -0.9999999999999838 -4.37113882
8673856e-008 17 107 0 130 139 135 108 102 105 0 0 +18 108 73 0 122 103 111 109 ?
1 29 109 74 0 108 112 104 -0.001099918587118369 -0.0007599214532057525 1.9999966
77934489e-005 17 110 0 101 116 102 111 115 113 0 121 +18 111 75 0 110 108 117 11
2 ?1 29 112 76 0 111 118 109 0.001100081147116358 0.0007600789314544395 2.000003
322065508e-005 16 113 77 0 ?110 105 119 114 0 0 1 30 114 78 0 113 120 106 0 +8.1
14711637415611e-008 0.0007600787391243312 2.000003322065508e-005 0.9999999999999
848 1.74845553196231e-007 2.154181006492698e-024 17 115 0 496 138 412 103 110 11
3 0 135 -17 116 0 101 122 110 117 121 119 0 125 -18 117 79 0 116 111 149 118 ?1
 29 118 80 0 117 150 112 0.001100081412881599 -0.0007599210685455355 1.999996677
934489e-005 16 119 81 0 ?121 113 123 120 0 0 1 30 120 82 0 119 124 114 0 +0.0011
0008141637851 -0.0007799210685455353 1.999996590511712e-005 -1.748455531469489e-
007 0.9999999999999838 4.371138828673856e-008 17 121 0 400 409 405 111 116 119 0
 412 +17 122 0 101 102 116 108 125 123 0 142 +16 123 83 0 ?122 119 132 124 0 0 1
 30 124 84 0 123 133 120 0 +8.141288161505183e-008 -0.000759921260875644 1.99999
6677934489e-005 -0.9999999999999848 -1.748455532455129e-007 -4.308362012985397e-
024 17 125 0 506 408 142 117 122 123 0 405 -14 126 85 128 1e-008 196 97 130 38 1
27 -0 0 196 97 36 50 127 86 0 126 197 98 0 +-0.001099918580124533 -0.00079992153
10120238 0.001799999965030888 -0.9999999999999848 -1.748455531469491e-007 0 1.74
8455531469489e-007 -0.9999999999999838 -4.371138828673856e-008 81 1 128 87 32 12
6 0 0 198 99 129 83 3 129 0.8274509906768799 0.8392156958580017 0.82745099067687
99 15 130 88 0 92 126 147 17 131 0 130 63 92 59 134 132 0 58 +16 132 89 0 ?131 1
23 136 133 0 0 1 31 133 90 0 132 137 124 0 +-0.001099918852883596 0.000760078470
736407 0.001760000033220654 -0.9999999999999848 -1.748455531469491e-007 -1.57772
1810442024e-030 1.748455531469489e-007 -0.9999999999999838 -4.371138828673856e-0
08 2.000000000000005e-005 17 134 0 501 86 67 82 131 132 0 81 -17 135 0 130 107 6
3 103 138 136 0 102 +16 136 91 0 ?135 132 140 137 0 0 1 31 137 92 0 136 141 133
 0 +-0.00109991885288361 0.0007600785459199948 4.000003322065517e-005 -0.9999999
999999848 -1.748455531469491e-007 -1.577721810442024e-030 1.748455531469489e-007
 -0.9999999999999838 -4.371138828673856e-008 2.000000000000005e-005 17 138 0 496
 57 115 53 135 136 0 63 -17 139 0 130 13 107 9 142 140 0 0 +16 140 93 0 ?139 136
 144 141 0 0 1 31 141 94 0 140 145 137 0 +-0.001099918587118369 -0.0007599214540
799804 3.999996677934498e-005 -0.9999999999999848 -1.748455531469491e-007 -1.577
721810442024e-030 1.748455531469489e-007 -0.9999999999999838 -4.371138828673856e
-008 2.000000000000005e-005 17 142 0 506 125 21 108 139 140 0 107 -17 143 0 130
 92 13 88 146 144 0 87 +16 144 95 0 ?143 140 151 145 0 0 1 31 145 96 0 144 152 1
41 0 +-0.001099918587118355 -0.0007599215292635682 0.001759999966779343 -0.99999
99999999848 -1.748455531469491e-007 -1.577721810442024e-030 1.748455531469489e-0
07 -0.9999999999999838 -4.371138828673856e-008 2.000000000000005e-005 17 146 0 5
11 31 96 14 143 144 0 28 -15 147 97 0 148 126 0 17 148 0 147 156 192 149 153 151
 0 301 +18 149 98 0 148 117 154 150 ?1 29 150 99 0 149 155 118 -0.00109991885113
5154 0.0007500785476684501 3.27835412150539e-011 16 151 100 0 ?148 144 159 152 0
 0 1 30 152 101 0 151 160 145 0 +-0.001099918580124547 -0.0007999214523315249 -3
.496911062939087e-011 -1.748455531469489e-007 0.9999999999999838 4.3711388286738
56e-008 17 153 0 292 305 301 154 148 151 0 308 -18 154 102 0 192 149 157 155 ?1
 29 155 103 0 154 158 150 -0.001099918588866824 -0.0007499214523315255 -3.278354
121505393e-011 17 156 0 147 162 148 157 161 159 0 206 +18 157 104 0 156 154 163
 158 ?1 29 158 105 0 157 164 155 -0.001099918859877431 0.0008000785454828799 5.0
0000349691105e-005 16 159 106 0 ?156 151 165 160 0 0 1 31 160 107 0 159 166 152
 0 +-0.001099918851135154 0.0007500785454828807 5.000003278354109e-005 0.9999999
999999848 1.748455531469491e-007 1.577721810442024e-030 1.748455531469489e-007 -
0.9999999999999838 -4.371138733806166e-008 5.000000000000002e-005 17 161 0 592 3
04 206 149 156 159 0 0 -17 162 0 147 168 156 163 167 165 0 213 -18 163 108 0 162
 157 169 164 ?1 29 164 109 0 163 170 158 -0.001099918859877418 0.000800078471173
5198 0.001750000034969109 16 165 110 0 ?167 159 171 166 0 0 1 30 166 111 0 165 1
72 160 0 +-0.001099918859877418 0.0008000784689879503 0.001800000034969109 -7.64
2741863815873e-015 4.371138828673789e-008 -0.9999999999999991 17 167 0 200 201 2
13 157 162 165 0 0 +17 168 0 147 174 162 169 173 171 0 277 +18 169 112 0 179 163
 175 170 ?1 29 170 113 0 169 176 164 -0.00109991885113514 0.0007500784689879513
 0.00180000003278354 16 171 114 0 ?168 165 177 172 0 0 1 31 172 115 0 171 178 16
6 0 +-0.001099918851135141 0.0007500784711735206 0.00175000003278354 0.999999999
9999848 1.748455531469491e-007 1.577721810442024e-030 1.748455531469489e-007 -0.
9999999999999838 -4.371138828673856e-008 5.000000000000002e-005 17 173 0 565 216
 277 163 168 171 0 0 -17 174 0 147 180 168 175 179 177 0 185 -18 175 116 0 284 1
69 181 176 ?1 29 176 117 0 175 182 170 -0.001099918588866811 -0.0007499215310120
245 0.001799999967216457 16 177 118 0 ?179 171 183 178 0 0 1 30 178 119 0 177 18
4 172 0 +-0.001099918580124533 -0.0007999215310120238 0.001799999965030888 -1.74
8455531469489e-007 0.9999999999999838 4.371138828673856e-008 17 179 0 271 272 28
4 169 174 177 0 168 +17 180 0 147 186 174 181 185 183 0 266 +18 181 120 0 191 17
5 187 182 ?1 29 182 121 0 181 188 176 -0.001099918580124534 -0.00079992152882645
44 0.001749999965030888 16 183 122 0 ?180 177 189 184 0 0 1 31 184 123 0 183 190
 178 0 +-0.001099918588866811 -0.000749921528826455 0.001749999967216457 0.99999
99999999848 1.748455531469491e-007 1.577721810442024e-030 1.748455531469489e-007
 -0.9999999999999838 -4.371138828673856e-008 5.000000000000002e-005 17 185 0 516
 287 266 175 180 183 0 0 -17 186 0 147 192 180 187 191 189 0 195 +18 187 124 0 1
86 181 202 188 ?1 29 188 125 0 187 203 182 -0.001099918580124546 -0.000799921454
5170943 4.999996503088925e-005 16 189 126 0 ?186 183 193 190 0 0 1 30 190 127 0
 189 194 184 0 +-0.001099918580124533 -0.0007999215310120238 0.00179999996503088
8 -7.642741863815873e-015 4.371138828673789e-008 -0.9999999999999991 17 191 0 25
0 263 259 181 186 189 0 180 -17 192 0 147 148 186 154 195 193 0 153 +16 193 128
 0 ?192 189 204 194 0 0 1 31 194 129 0 193 205 190 0 +-0.001099918588866824 -0.0
007499214545170949 4.999996721645866e-005 0.9999999999999848 1.748455531469491e-
007 1.577721810442024e-030 1.748455531469489e-007 -0.9999999999999838 -4.3711388
28673856e-008 5.000000000000002e-005 17 195 0 538 262 308 187 192 193 0 259 -14
 196 130 198 1e-008 217 126 200 38 197 -0 0 217 126 36 50 197 131 0 196 218 127
 0 +-0.00159991885987741 0.0008000783815651737 0.001800000034969109 1.7484555314
69489e-007 -0.9999999999999838 -4.371138828673856e-008 0.9999999999999848 1.7484
55531469491e-007 0 81 1 198 132 32 196 0 0 219 128 199 83 3 199 0.82745099067687
99 0.8392156958580017 0.8274509906768799 15 200 133 0 167 196 0 17 201 0 200 207
 167 202 206 204 0 212 +18 202 134 0 201 187 208 203 ?1 29 203 135 0 202 209 188
 -0.001549918859877424 0.0008000784668023809 5.00000349691105e-005 16 204 136 0
 ?201 193 210 205 0 0 1 30 205 137 0 204 211 194 0 +-0.001599918859877423 0.0008
000784580601033 5.00000349691105e-005 -0.9999999999999848 -1.748455531469491e-00
7 0 17 206 0 592 161 593 157 201 204 0 167 -17 207 0 200 213 201 208 212 210 0 2
16 +18 208 138 0 207 202 223 209 ?1 29 209 139 0 208 224 203 -0.0015499188598774
12 0.0008000783924930208 0.001750000034969109 16 210 140 0 ?207 204 214 211 0 0
 1 30 211 141 0 210 215 205 0 +-0.001549918859877411 0.0008000783903074515 0.001
800000034969109 7.642741863815873e-015 -4.371138828673789e-008 0.999999999999999
1 17 212 0 619 614 605 202 207 210 0 611 -17 213 0 200 167 207 163 216 214 0 173
 +16 214 142 0 ?213 210 225 215 0 0 1 30 215 143 0 214 226 211 0 +-0.00159991885
987741 0.0008000783837507432 0.001750000034969109 0.9999999999999848 1.748455531
469491e-007 0 17 216 0 565 566 173 208 213 214 0 569 -14 217 144 219 1e-008 246
 196 221 38 218 -0 0 246 196 36 50 218 145 0 217 247 197 0 +-0.00159991858012452
5 -0.0007999216184348004 0.001799999965030888 0.9999999999999848 1.7484555314694
91e-007 0 -1.748455531469489e-007 0.9999999999999838 4.371138828673856e-008 81 1
 219 146 32 217 0 0 248 198 220 83 3 220 0.8274509906768799 0.8392156958580017 0
.8274509906768799 15 221 147 0 222 217 0 17 222 0 221 230 242 223 227 225 0 575
 +18 223 148 0 235 208 228 224 ?1 29 224 149 0 223 229 209 -0.001599918851135133
 0.0007500783837507441 0.00175000003278354 16 225 150 0 ?222 214 233 226 0 0 1 3
0 226 151 0 225 234 215 0 +-0.001599918580124526 -0.000799921616249231 0.0017499
99965030888 -1.748455531469489e-007 0.9999999999999838 4.371138828673856e-008 17
 227 0 574 551 575 228 222 225 0 530 -18 228 152 0 242 223 231 229 ?1 29 229 153
 0 228 232 224 -0.001599918588866803 -0.0007499216162492316 0.001749999967216457
 17 230 0 221 236 222 231 235 233 0 241 +18 231 154 0 230 228 237 232 ?1 29 232
 155 0 231 238 229 -0.001599918851135146 0.0007500784580601042 5.000003278354109
e-005 16 233 156 0 ?230 225 239 234 0 0 1 30 234 157 0 233 240 226 0 +-0.0015999
18851135132 0.0007500783815651747 0.00180000003278354 -7.642741863815873e-015 4.
371138828673789e-008 -0.9999999999999991 17 235 0 619 605 614 223 230 233 0 222
 -17 236 0 221 242 230 237 241 239 0 245 +18 237 158 0 236 231 252 238 ?1 29 238
 159 0 237 253 232 -0.001599918588866816 -0.0007499215419398715 4.99999672164586
6e-005 16 239 160 0 ?236 233 243 240 0 0 1 30 240 161 0 239 244 234 0 +-0.001599
918580124538 -0.0007999215419398709 4.999996503088925e-005 1.748455531469489e-00
7 -0.9999999999999838 -4.371138828673856e-008 17 241 0 583 584 560 231 236 239 0
 587 -17 242 0 221 222 236 228 245 243 0 227 +16 243 162 0 ?242 239 254 244 0 0
 1 30 244 163 0 243 255 240 0 +-0.001599918588866803 -0.000749921618434801 0.001
799999967216457 7.642741863815873e-015 -4.371138828673789e-008 0.999999999999999
1 17 245 0 525 526 530 237 242 243 0 560 -14 246 164 248 1e-008 267 217 250 38 2
47 -0 0 267 217 36 50 247 165 0 246 268 218 0 +-0.001599918580124525 -0.00079992
16184348004 0.001799999965030888 -1.748455531469489e-007 0.9999999999999838 4.37
1138828673856e-008 -0.9999999999999848 -1.748455531469491e-007 0 81 1 248 166 32
 246 0 0 269 219 249 83 3 249 0.8274509906768799 0.8392156958580017 0.8274509906
768799 15 250 167 0 251 246 0 17 251 0 250 259 263 252 256 254 0 262 +18 252 168
 0 251 237 257 253 ?1 29 253 169 0 252 258 238 -0.00154991858012454 -0.000799921
5331975932 4.999996503088925e-005 16 254 170 0 ?251 243 260 255 0 0 1 30 255 171
 0 254 261 244 0 +-0.001549918580124526 -0.0007999216096925227 0.001799999965030
888 -7.642741863815873e-015 4.371138828673789e-008 -0.9999999999999991 17 256 0
 525 530 526 257 251 254 0 263 -18 257 172 0 256 252 273 258 ?1 29 258 173 0 257
 274 253 -0.001549918580124527 -0.0007999216075069533 0.001749999965030888 17 25
9 0 250 191 251 187 262 260 0 0 +16 260 174 0 ?259 254 264 261 0 0 1 30 261 175
 0 260 265 255 0 +-0.001099918580124546 -0.0007999214545170943 4.999996503088925
e-005 0.9999999999999848 1.748455531469491e-007 0 17 262 0 538 539 195 252 259 2
60 0 526 -17 263 0 250 251 191 257 266 264 0 517 +16 264 176 0 ?263 260 275 265
 0 0 1 30 265 177 0 264 276 261 0 +-0.001599918580124526 -0.000799921616249231 0
.001749999965030888 -0.9999999999999848 -1.748455531469491e-007 0 17 266 0 516 1
85 517 181 263 264 0 0 -14 267 178 269 1e-008 288 246 271 38 268 -0 0 288 246 36
 50 268 179 0 267 289 247 0 +8.127999900818933e-008 7.86613180721929e-008 0.0017
99999999999998 -7.642741863815873e-015 4.371138828673789e-008 -0.999999999999999
1 -1.748455531469489e-007 0.9999999999999838 4.371138828673856e-008 81 1 269 180
 32 267 0 0 290 248 270 83 3 270 0.8274509906768799 0.8392156958580017 0.8274509
906768799 15 271 181 0 179 267 0 17 272 0 271 278 179 273 277 275 0 0 +18 273 18
2 0 283 257 279 274 ?1 29 274 183 0 273 280 258 -0.001549918851135134 0.00075007
83903074523 0.00180000003278354 16 275 184 0 ?272 264 281 276 0 0 1 30 276 185 0
 275 282 265 0 +8.114886484332911e-008 0.0007500786613180597 0.00180000003278354
 -0.9999999999999848 -1.748455531469491e-007 0 17 277 0 565 173 566 169 272 275
 0 0 -17 278 0 271 284 272 279 283 281 0 287 +18 279 186 0 278 273 294 280 ?1 29
 280 187 0 279 295 274 -0.001549918588866804 -0.0007499216096925233 0.0017999999
67216457 16 281 188 0 ?278 275 285 282 0 0 1 30 282 189 0 281 286 276 0 +-0.0015
49918720000969 7.839030746481512e-008 0.001799999999999998 1.748455531469489e-00
7 -0.9999999999999838 -4.371138828673856e-008 17 283 0 574 575 551 273 278 281 0
 566 -17 284 0 271 179 278 175 287 285 0 174 +16 285 190 0 ?284 281 296 286 0 0
 1 30 286 191 0 285 297 282 0 +8.141113317304954e-008 -0.0007499213386819159 0.0
01799999967216457 0.9999999999999848 1.748455531469491e-007 0 17 287 0 516 517 1
85 279 284 285 0 520 -14 288 192 290 1e-008 309 267 292 38 289 +0 0 309 267 36 5
0 289 193 0 288 310 268 0 +8.127999899443239e-008 7.873999857110904e-008 0 -7.64
2741863815873e-015 4.371138828673789e-008 -0.9999999999999991 -1.748455531469489
e-007 0.9999999999999838 4.371138828673856e-008 81 1 290 194 32 288 0 0 311 269
 291 83 3 291 0.8274509906768799 0.8392156958580017 0.8274509906768799 15 292 19
5 0 293 288 0 17 293 0 292 301 305 294 298 296 0 584 +18 294 196 0 304 279 299 2
95 ?1 29 295 197 0 294 300 280 -0.001549918851135147 0.0007500784689879512 3.278
35412150539e-011 16 296 198 0 ?293 285 302 297 0 0 1 30 297 199 0 296 303 286 0
 +-0.001549918859877425 0.0008000784689879503 3.496911062939083e-011 -1.74845553
1469489e-007 0.9999999999999838 4.371138828673856e-008 17 298 0 583 560 584 299
 293 296 0 305 -18 299 200 0 298 294 315 300 ?1 29 300 201 0 299 316 295 -0.0015
49918588866818 -0.0007499215310120245 -3.278354121505393e-011 17 301 0 292 153 2
93 149 304 302 0 161 +16 302 202 0 ?301 296 306 303 0 0 1 30 303 203 0 302 307 2
97 0 +-0.001099918851135154 0.00075007854766845 3.27835412150539e-011 0.99999999
99999848 1.748455531469491e-007 0 17 304 0 592 593 161 294 301 302 0 293 -17 305
 0 292 293 153 299 308 306 0 557 +16 306 204 0 ?305 302 317 307 0 0 1 30 307 205
 0 306 318 303 0 +-0.001599918588866816 -0.0007499215397543021 -3.27835412150539
3e-011 -0.9999999999999848 -1.748455531469491e-007 -0 17 308 0 538 195 539 154 3
05 306 0 0 -14 309 206 311 1e-008 338 288 313 38 310 -0 0 338 288 36 50 310 207
 0 309 339 289 0 +0.001600081419875427 -0.0007999210589290292 0.0017999999650308
88 -1.748455535806298e-007 0.9999999999999838 4.371138828673856e-008 -0.99999999
99999848 -1.748455535806299e-007 -1.895679285713575e-023 81 1 311 208 32 309 0 0
 340 290 312 83 3 312 0.8274509906768799 0.8392156958580017 0.8274509906768799 1
5 313 209 0 314 309 0 17 314 0 313 322 334 315 319 317 0 430 +18 315 210 0 327 2
99 320 316 ?1 29 316 211 0 315 321 300 0.001100081419875422 -0.00079992106985687
65 4.999996503088925e-005 16 317 212 0 ?314 306 325 318 0 0 1 30 318 213 0 317 3
26 307 0 +0.001100081419875435 -0.000799921146351806 0.001799999965030888 -7.642
741863815873e-015 4.371138828673789e-008 -0.9999999999999991 17 319 0 417 434 43
0 320 314 317 0 439 -18 320 214 0 334 315 323 321 ?1 29 321 215 0 320 324 316 0.
001100081419875434 -0.0007999211441662364 0.001749999965030888 17 322 0 313 328
 314 323 327 325 0 333 +18 323 216 0 322 320 329 324 ?1 29 324 217 0 323 330 321
 0.001550081419875414 -0.0007999209911763773 4.999996503088925e-005 16 325 218 0
 ?322 317 331 326 0 0 1 30 326 219 0 325 332 318 0 +0.001600081419875413 -0.0007
999209824340998 4.999996503088925e-005 0.9999999999999848 1.748455535806299e-007
 1.895679285713575e-023 17 327 0 700 433 701 315 322 325 0 314 -17 328 0 313 334
 322 329 333 331 0 337 +18 329 220 0 328 323 344 330 ?1 29 330 221 0 329 345 324
 0.001550081419875427 -0.0007999210654857374 0.001749999965030888 16 331 222 0 ?
328 325 335 332 0 0 1 30 332 223 0 331 336 326 0 +0.001550081419875428 -0.000799
9210676713068 0.001799999965030888 7.642741863815873e-015 -4.371138828673789e-00
8 0.9999999999999991 17 333 0 727 722 713 323 328 331 0 719 -17 334 0 313 314 32
8 320 337 335 0 319 +16 335 224 0 ?334 331 346 336 0 0 1 30 336 225 0 335 347 33
2 0 +0.001600081419875426 -0.0007999210567434597 0.001749999965030888 -0.9999999
999999848 -1.748455535806299e-007 -1.895679285713575e-023 17 337 0 673 674 439 3
29 334 335 0 713 -14 338 226 340 1e-008 367 309 342 38 339 -0 0 367 309 36 50 33
9 227 0 338 368 310 0 +0.001600081419875427 -0.0007999210589290292 0.00179999996
5030888 -0.9999999999999848 -1.748455536890502e-007 -2.369599107141969e-023 1.74
84555368905e-007 -0.9999999999999838 -4.371138828673856e-008 81 1 340 228 32 338
 0 0 369 311 341 83 3 341 0.8274509906768799 0.8392156958580017 0.82745099067687
99 15 342 229 0 343 338 0 17 343 0 342 351 363 344 348 346 0 356 +18 344 230 0 3
43 329 349 345 ?1 29 345 231 0 344 350 330 0.001600081411133149 -0.0007499210567
434606 0.001749999967216457 16 346 232 0 ?343 335 354 347 0 0 1 30 347 233 0 346
 355 336 0 +0.001600081419875426 -0.0007999210567434597 0.001749999965030888 1.7
484555368905e-007 -0.9999999999999838 -4.371138828673856e-008 17 348 0 682 659 6
83 349 343 346 0 363 -18 349 234 0 348 344 352 350 ?1 29 350 235 0 349 353 345 0
.001600081148864818 0.0007500789432565152 0.00175000003278354 17 351 0 342 357 3
43 352 356 354 0 362 +18 352 236 0 351 349 358 353 ?1 29 353 237 0 352 359 350 0
.001600081411133136 -0.0007499209824341006 4.999996721645866e-005 16 354 238 0 ?
351 346 360 355 0 0 1 30 355 239 0 354 361 347 0 +0.001600081411133149 -0.000749
92105892903 0.001799999967216457 -7.642741863815873e-015 4.371138828673789e-008
 -0.9999999999999991 17 356 0 727 713 722 344 351 354 0 683 -17 357 0 342 363 35
1 358 362 360 0 366 +18 358 240 0 357 352 373 359 ?1 29 359 241 0 358 374 353 0.
001600081148864805 0.0007500790175658752 5.000003278354109e-005 16 360 242 0 ?35
7 354 364 361 0 0 1 30 361 243 0 360 365 355 0 +0.001600081140122528 0.000800079
0175658743 5.00000349691105e-005 -1.7484555368905e-007 0.9999999999999838 4.3711
38828673856e-008 17 362 0 691 692 668 352 357 360 0 695 -17 363 0 342 343 357 34
9 366 364 0 656 +16 364 244 0 ?363 360 375 365 0 0 1 30 365 245 0 364 376 361 0
 +0.001600081148864819 0.0007500789410709456 0.00180000003278354 7.6427418638158
73e-015 -4.371138828673789e-008 0.9999999999999991 17 366 0 633 634 638 358 363
 364 0 668 -14 367 246 369 1e-008 396 338 371 38 368 -0 0 396 338 36 50 368 247
 0 367 397 339 0 +0.001600081140122541 0.0008000789410709448 0.00180000003496910
9 1.748455535806298e-007 -0.9999999999999838 -4.371138828673856e-008 0.999999999
9999848 1.748455535806299e-007 1.895679285713575e-023 81 1 369 248 32 367 0 0 39
8 340 370 83 3 370 0.8274509906768799 0.8392156958580017 0.8274509906768799 15 3
71 249 0 372 367 0 17 372 0 371 380 392 373 377 375 0 385 +18 373 250 0 372 358
 378 374 ?1 29 374 251 0 373 379 359 0.001550081140122529 0.0008000790088235967
 5.00000349691105e-005 16 375 252 0 ?372 364 383 376 0 0 1 30 376 253 0 375 384
 365 0 +0.001550081140122542 0.0008000789323286673 0.001800000034969109 -7.64274
1863815873e-015 4.371138828673789e-008 -0.9999999999999991 17 377 0 633 638 634
 378 372 375 0 392 -18 378 254 0 377 373 381 379 ?1 29 379 255 0 378 382 374 0.0
01550081140122542 0.0008000789345142366 0.001750000034969109 17 380 0 371 386 37
2 381 385 383 0 391 +18 381 256 0 380 378 387 382 ?1 29 382 257 0 381 388 379 0.
001100081140122536 0.0008000789301430976 5.00000349691105e-005 16 383 258 0 ?380
 375 389 384 0 0 1 30 384 259 0 383 390 376 0 +0.001100081140122536 0.0008000789
301430976 5.00000349691105e-005 -0.9999999999999848 -1.748455535806299e-007 -1.8
95679285713575e-023 17 385 0 646 647 423 373 380 383 0 650 -17 386 0 371 392 380
 387 391 389 0 395 -18 387 260 0 386 381 419 388 ?1 29 388 261 0 387 420 382 0.0
01100081140122549 0.0008000788558337376 0.001750000034969109 16 389 262 0 ?391 3
83 393 390 0 0 1 30 390 263 0 389 394 384 0 +0.001100081140122549 0.000800078853
6481681 0.001800000034969109 -7.642741863815873e-015 4.371138828673789e-008 -0.9
999999999999991 17 391 0 417 418 446 381 386 389 0 423 +17 392 0 371 372 386 378
 395 393 0 625 +16 393 264 0 ?392 389 402 394 0 0 1 30 394 265 0 393 403 390 0 +
0.001600081140122541 0.0008000789432565143 0.001750000034969109 0.99999999999998
48 1.748455535806299e-007 1.895679285713575e-023 17 395 0 624 449 625 387 392 39
3 0 446 -14 396 266 398 1e-008 450 367 400 38 397 -0 0 450 367 36 50 397 267 0 3
96 451 368 0 +0.001100081419875435 -0.000799921146351806 0.001799999965030888 0.
9999999999999848 1.748455536890502e-007 2.369599107141969e-023 -1.7484555368905e
-007 0.9999999999999838 4.371138828673856e-008 81 1 398 268 32 396 0 0 452 369 3
99 83 3 399 0.8274509906768799 0.8392156958580017 0.8274509906768799 15 400 269
 0 78 396 417 17 401 0 400 27 78 23 404 402 0 0 +16 402 270 0 ?401 393 406 403 0
 0 1 31 403 271 0 402 407 394 0 +0.001100081412881613 -0.0007599211446033511 0.0
01759999966779343 0.9999999999999848 1.748455536890502e-007 2.369599319764601e-0
23 -1.7484555368905e-007 0.9999999999999838 4.371138828673856e-008 2.00000000000
0005e-005 17 404 0 511 96 31 79 401 402 0 93 -17 405 0 400 121 27 117 408 406 0
 0 +16 406 272 0 ?405 402 410 407 0 0 1 31 407 273 0 406 411 403 0 +0.0011000814
12881599 -0.0007599210694197632 3.999996677934498e-005 0.9999999999999848 1.7484
55536890502e-007 2.369599319764601e-023 -1.7484555368905e-007 0.9999999999999838
 4.371138828673856e-008 2.000000000000005e-005 17 408 0 506 21 125 17 405 406 0
 0 -17 409 0 400 49 121 45 412 410 0 57 +16 410 274 0 ?409 406 414 411 0 0 1 31
 411 275 0 410 415 407 0 +0.001100081147116358 0.0007600789305802118 4.000003322
065517e-005 0.9999999999999848 1.748455536890502e-007 2.369599319764601e-023 -1.
7484555368905e-007 0.9999999999999838 4.371138828673856e-008 2.000000000000005e-
005 17 412 0 496 115 57 111 409 410 0 0 -17 413 0 400 78 49 74 416 414 0 0 +16 4
14 276 0 ?413 410 421 415 0 0 1 31 415 277 0 414 422 411 0 +0.001100081147116371
 0.0007600788553966241 0.001760000033220654 0.9999999999999848 1.748455536890502
e-007 2.369599319764601e-023 -1.7484555368905e-007 0.9999999999999838 4.37113882
8673856e-008 2.000000000000005e-005 17 416 0 501 67 86 50 413 414 0 0 -15 417 27
8 0 391 396 0 17 418 0 417 424 391 419 423 421 0 481 +18 419 279 0 429 387 425 4
20 ?1 29 420 280 0 419 426 388 0.001100081148864813 0.0007500789323286679 3.2783
54121505394e-011 16 421 281 0 ?418 414 427 422 0 0 1 31 422 282 0 421 428 415 0
 +0.001100081148864813 0.0007500789301430982 5.000003278354109e-005 -0.999999999
9999848 -1.748455536890502e-007 -2.369599319764601e-023 -1.7484555368905e-007 0.
9999999999999838 4.371138828673856e-008 5.000000000000002e-005 17 423 0 646 385
 481 381 418 421 0 0 -17 424 0 417 430 418 425 429 427 0 433 +18 425 283 0 488 4
19 435 426 ?1 29 426 284 0 425 436 420 0.001100081411133143 -0.00074992106767130
79 -3.27835412150539e-011 16 427 285 0 ?424 421 431 428 0 0 1 30 428 286 0 427 4
32 422 0 +0.001100081419875421 -0.000799921067671307 -3.496911062939083e-011 1.7
484555368905e-007 -0.9999999999999838 -4.371138828673856e-008 17 429 0 475 476 4
88 419 424 427 0 418 -17 430 0 417 319 424 315 433 431 0 0 +16 431 287 0 ?430 42
7 437 432 0 0 1 31 432 288 0 431 438 428 0 +0.001100081411133144 -0.000749921069
8568774 4.999996721645866e-005 -0.9999999999999848 -1.748455536890502e-007 -2.36
9599319764601e-023 -1.7484555368905e-007 0.9999999999999838 4.371138828673856e-0
08 5.000000000000002e-005 17 433 0 700 491 327 425 430 431 0 0 -17 434 0 417 440
 319 435 439 437 0 445 +18 435 289 0 470 425 441 436 ?1 29 436 290 0 435 442 426
 0.001100081411133157 -0.0007499211463518068 0.001799999967216457 16 437 291 0 ?
434 431 443 438 0 0 1 31 438 292 0 437 444 432 0 +0.001100081411133157 -0.000749
9211441662374 0.001749999967216457 -0.9999999999999848 -1.748455536890502e-007 -
2.369599319764601e-023 -1.7484555368905e-007 0.9999999999999838 4.37113882867385
6e-008 5.000000000000002e-005 17 439 0 673 337 470 320 434 437 0 0 -17 440 0 417
 446 434 441 445 443 0 0 -18 441 293 0 449 435 456 442 ?1 29 442 294 0 441 457 4
36 0.001100081148864827 0.0007500788536481688 0.00180000003278354 16 443 295 0 ?
445 437 447 444 0 0 1 30 444 296 0 443 448 438 0 +0.001100081419875435 -0.000799
921146351806 0.001799999965030888 1.7484555368905e-007 -0.9999999999999838 -4.37
1138828673856e-008 17 445 0 454 467 463 435 440 443 0 0 +17 446 0 417 391 440 38
7 449 447 0 0 +16 447 297 0 ?446 443 458 448 0 0 1 31 448 298 0 447 459 444 0 +0
.001100081148864826 0.0007500788558337382 0.00175000003278354 -0.999999999999984
8 -1.748455536890502e-007 -2.369599319764601e-023 -1.7484555368905e-007 0.999999
9999999838 4.371138828673856e-008 5.000000000000002e-005 17 449 0 624 466 395 44
1 446 447 0 463 -14 450 299 452 1e-008 471 396 454 38 451 -0 0 471 396 36 50 451
 300 0 450 472 397 0 +8.127999900818933e-008 7.86613180721929e-008 0.00179999999
9999998 -7.642741863815873e-015 4.371138828673789e-008 -0.9999999999999991 -1.74
8455531469489e-007 0.9999999999999838 4.371138828673856e-008 81 1 452 301 32 450
 0 0 473 398 453 83 3 453 0.8274509906768799 0.8392156958580017 0.82745099067687
99 15 454 302 0 455 450 0 17 455 0 454 463 467 456 460 458 0 659 +18 456 303 0 4
55 441 461 457 ?1 29 457 304 0 456 462 442 0.00155008114886482 0.000750078932328
6681 0.00180000003278354 16 458 305 0 ?455 447 464 459 0 0 1 30 459 306 0 458 46
5 448 0 +0.001550081279998985 7.893232868041093e-008 0.001799999999999998 -1.748
4555368905e-007 0.9999999999999838 4.371138828673856e-008 17 460 0 682 683 659 4
61 455 458 0 686 -18 461 307 0 460 456 477 462 ?1 29 462 308 0 461 478 457 0.001
55008141113315 -0.0007499210676713077 0.001799999967216457 17 463 0 454 445 455
 441 466 464 0 440 +16 464 309 0 ?463 458 468 465 0 0 1 30 465 310 0 464 469 459
 0 +8.114886484300385e-008 0.00075007866131806 0.00180000003278354 -0.9999999999
999848 -1.748455535806299e-007 -1.895679285713575e-023 17 466 0 624 625 449 456
 463 464 0 628 -17 467 0 454 455 445 461 470 468 0 674 +16 468 311 0 ?467 464 47
9 469 0 0 1 30 469 312 0 468 480 465 0 +8.14111331733748e-008 -0.000749921338681
9156 0.001799999967216457 0.9999999999999848 1.748455535806299e-007 1.8956792857
13575e-023 17 470 0 673 439 674 435 467 468 0 434 -14 471 313 473 1e-008 492 450
 475 38 472 +0 0 492 450 36 50 472 314 0 471 493 451 0 +8.127999899443239e-008 7
.873999857110904e-008 0 -7.642741863815873e-015 4.371138828673789e-008 -0.999999
9999999991 -1.748455531469489e-007 0.9999999999999838 4.371138828673856e-008 81
 1 473 315 32 471 0 0 494 452 474 83 3 474 0.8274509906768799 0.8392156958580017
 0.8274509906768799 15 475 316 0 429 471 0 17 476 0 475 482 429 477 481 479 0 48
7 +18 477 317 0 647 461 483 478 ?1 29 478 318 0 477 484 462 0.001550081148864806
 0.000750079011009167 3.278354121505395e-011 16 479 319 0 ?476 468 485 480 0 0 1
 30 480 320 0 479 486 469 0 +0.001600081148864805 0.0007500790197514447 3.278354
121505395e-011 0.9999999999999848 1.748455535806299e-007 1.895679285713575e-023
 17 481 0 646 423 647 419 476 479 0 0 -17 482 0 475 488 476 483 487 485 0 0 +18
 483 321 0 491 477 0 484 ?1 29 484 322 0 483 0 478 0.001550081411133136 -0.00074
99209889908087 -3.278354121505389e-011 16 485 323 0 ?482 479 489 486 0 0 1 30 48
6 324 0 485 490 480 0 +0.001550081419875414 -0.0007999209889908078 -3.4969110629
39082e-011 1.7484555368905e-007 -0.9999999999999838 -4.371138828673856e-008 17 4
87 0 691 668 692 477 482 485 0 0 -17 488 0 475 429 482 425 491 489 0 424 +16 489
 325 0 ?488 485 518 490 0 0 1 30 490 326 0 489 519 486 0 +0.001100081411133143 -
0.0007499210676713079 -3.27835412150539e-011 -0.9999999999999848 -1.748455535806
299e-007 -1.895679285713575e-023 17 491 0 700 701 433 483 488 489 0 692 -14 492
 327 494 1e-008 497 471 496 38 493 +0 0 497 471 36 51 493 328 0 492 498 472 0 +0
.001100081147116358 0.0007600789305802118 4.000003322065517e-005 -0.999999999999
9848 -1.74845553196231e-007 -2.154181006492698e-024 2.000000000000005e-005 1.748
455531962308e-007 -0.9999999999999838 -4.371138828673856e-008 81 1 494 329 32 49
2 0 0 499 473 495 83 3 495 1 1 1 15 496 330 0 412 492 0 14 497 331 499 1e-008 50
2 492 501 38 498 +0 0 502 492 36 51 498 332 0 497 503 493 0 +8.114711638745449e-
008 0.0007600786630665155 0.001760000033220654 0.9999999999999848 1.748455531962
31e-007 2.154181006492698e-024 2.000000000000005e-005 -1.748455531962308e-007 0.
9999999999999838 4.371138828673856e-008 81 1 499 333 32 497 0 0 504 494 500 83 3
 500 1 1 1 15 501 334 0 416 497 0 14 502 335 504 1e-008 507 497 506 38 503 +0 0
 507 497 36 51 503 336 0 502 508 498 0 +0.001100081412881599 -0.0007599210694197
632 3.999996677934498e-005 0.9999999999999848 1.748455532455129e-007 4.308362012
985397e-024 2.000000000000005e-005 -1.748455532455127e-007 0.9999999999999838 4.
371138828673856e-008 81 1 504 337 32 502 0 0 509 499 505 83 3 505 1 1 1 15 506 3
38 0 142 502 0 14 507 339 509 1e-008 512 502 511 38 508 +0 0 512 502 36 51 508 3
40 0 507 513 503 0 +8.141288162835021e-008 -0.0007599213369334596 0.001759999966
779343 -0.9999999999999848 -1.748455532455129e-007 -4.308362012985397e-024 2.000
000000000005e-005 1.748455532455127e-007 -0.9999999999999838 -4.371138828673856e
-008 81 1 509 341 32 507 0 0 514 504 510 83 3 510 1 1 1 15 511 342 0 146 507 0 1
4 512 343 514 1e-008 521 507 516 38 513 +0 0 521 507 36 51 513 344 0 512 522 508
 0 +8.141113317266741e-008 -0.0007499213364963465 0.001749999967216457 0.9999999
999999848 1.748455531469491e-007 0 5.000000000000002e-005 -1.748455531469489e-00
7 0.9999999999999838 4.371138828673856e-008 81 1 514 345 32 512 0 0 523 509 515
 83 3 515 0.8274509906768799 0.8392156958580017 0.8274509906768799 15 516 346 0
 185 512 0 17 517 0 516 266 287 257 520 518 0 533 -16 518 347 0 ?520 489 527 519
 0 0 1 31 519 348 0 518 528 490 0 +-0.001549918588866804 -0.0007499216075069539
 0.001749999967216457 -0.9999999999999848 -1.748455531469491e-007 -1.57772181044
2024e-030 1.748455531469489e-007 -0.9999999999999838 -4.371138828673856e-008 5.0
00000000000002e-005 17 520 0 547 548 533 279 517 518 0 551 +14 521 349 523 1e-00
8 534 512 525 38 522 +0 0 534 512 36 51 522 350 0 521 535 513 0 +-0.001549918588
866804 -0.0007499216096925233 0.001799999967216457 -7.642741863815873e-015 4.371
138828673789e-008 -0.9999999999999991 5.000000000000002e-005 -1.748455531469489e
-007 0.9999999999999838 4.371138828673856e-008 81 1 523 351 32 521 0 0 536 514 5
24 83 3 524 0.8274509906768799 0.8392156958580017 0.8274509906768799 15 525 352
 0 526 521 0 17 526 0 525 256 245 252 529 527 0 542 -16 527 353 0 ?529 518 531 5
28 0 0 1 31 528 354 0 527 532 519 0 +-0.001549918588866817 -0.000749921533197593
8 4.999996721645866e-005 -7.642741863815873e-015 4.37113882867379e-008 -0.999999
9999999991 -1.748455531469489e-007 0.9999999999999838 4.371138828673856e-008 5.0
00000000000002e-005 17 529 0 556 557 542 237 526 527 0 0 +17 530 0 525 245 256 2
28 533 531 0 548 -16 531 355 0 ?533 527 540 532 0 0 1 31 532 356 0 531 541 528 0
 +-0.001549918588866804 -0.0007499216075069539 0.001749999967216457 7.6427418638
15873e-015 -4.37113882867379e-008 0.9999999999999991 1.748455531469489e-007 -0.9
999999999999838 -4.371138828673856e-008 5.000000000000002e-005 17 533 0 547 520
 548 257 530 531 0 0 +14 534 357 536 1e-008 543 521 538 38 535 +0 0 543 521 36 5
1 535 358 0 534 544 522 0 +-0.001599918588866816 -0.0007499215419398715 4.999996
721645866e-005 -0.9999999999999848 -1.748455531469491e-007 0 5.000000000000002e-
005 1.748455531469489e-007 -0.9999999999999838 -4.371138828673856e-008 81 1 536
 359 32 534 0 0 545 523 537 83 3 537 0.8274509906768799 0.8392156958580017 0.827
4509906768799 15 538 360 0 195 534 0 17 539 0 538 308 262 299 542 540 0 0 -16 54
0 361 0 ?542 531 549 541 0 0 1 31 541 362 0 540 550 532 0 +-0.001549918588866817
 -0.0007499215331975938 4.999996721645875e-005 -0.9999999999999848 -1.7484555314
69491e-007 -1.577721810442024e-030 1.748455531469489e-007 -0.9999999999999838 -4
.371138828673856e-008 5.000000000000002e-005 17 542 0 556 529 557 252 539 540 0
 0 +14 543 363 545 1e-008 552 534 547 38 544 +0 0 552 534 36 53 544 364 0 543 55
3 535 0 +-0.001549918588866804 -0.0007499216075069539 0.001749999967216457 5e-00
5 7.642741863815873e-015 -4.371138828673789e-008 0.9999999999999991 0.9999999999
999848 1.748455531469491e-007 0 81 1 545 365 32 543 0 0 554 536 546 83 3 546 0.8
274509906768799 0.8392156958580017 0.8274509906768799 15 547 366 0 533 543 0 17
 548 0 547 533 520 228 551 549 0 0 -16 549 367 0 ?551 540 558 550 0 0 1 31 550 3
68 0 549 559 541 0 +-0.001549918588866804 -0.0007499216075069539 0.0017499999672
16457 -1.748455531469489e-007 0.9999999999999839 4.371138828673856e-008 0.999999
9999999848 1.748455531469491e-007 0 4.999999999999991e-005 17 551 0 574 283 227
 279 548 549 0 0 +14 552 369 554 1e-008 561 543 556 38 553 +0 0 561 543 36 53 55
3 370 0 552 562 544 0 +-0.001549918588866817 -0.0007499215331975938 4.9999967216
45875e-005 5e-005 7.642741863815873e-015 -4.371138828673789e-008 0.9999999999999
991 0.9999999999999848 1.748455531469491e-007 0 81 1 554 371 32 552 0 0 563 545
 555 83 3 555 0.8274509906768799 0.8392156958580017 0.8274509906768799 15 556 37
2 0 542 552 0 17 557 0 556 542 529 299 560 558 0 539 -16 558 373 0 ?560 549 567
 559 0 0 1 31 559 374 0 558 568 550 0 +-0.001549918588866817 -0.0007499215331975
938 4.999996721645866e-005 -1.748455531469489e-007 0.9999999999999839 4.37113882
8673856e-008 0.9999999999999848 1.748455531469491e-007 0 4.999999999999991e-005
 17 560 0 583 241 298 237 557 558 0 529 +14 561 375 563 1e-008 570 552 565 38 56
2 +0 0 570 552 36 51 562 376 0 561 571 553 0 +8.114886484294698e-008 0.000750078
663503629 0.00175000003278354 -0.9999999999999848 -1.748455531469491e-007 0 5.00
0000000000002e-005 1.748455531469489e-007 -0.9999999999999838 -4.371138828673856
e-008 81 1 563 377 32 561 0 0 572 554 564 83 3 564 0.8274509906768799 0.83921569
58580017 0.8274509906768799 15 565 378 0 173 561 0 17 566 0 565 277 216 273 569
 567 0 578 -16 567 379 0 ?569 558 576 568 0 0 1 31 568 380 0 567 577 559 0 +-0.0
01549918851135134 0.0007500783924930216 0.00175000003278354 -0.9999999999999848
 -1.748455531469491e-007 -1.577721810442024e-030 1.748455531469489e-007 -0.99999
99999999838 -4.371138828673856e-008 5.000000000000002e-005 17 569 0 601 602 578
 208 566 567 0 605 +14 570 381 572 1e-008 579 561 574 38 571 +0 0 579 561 36 51
 571 382 0 570 580 562 0 +-0.001549918720000969 7.839249303422947e-008 0.0017499
99999999999 1.748455531469489e-007 -0.9999999999999838 -4.371138828673856e-008 4
.999999999999991e-005 0.9999999999999848 1.748455531469491e-007 0 81 1 572 383 3
2 570 0 0 581 563 573 83 3 573 0.8274509906768799 0.8392156958580017 0.827450990
6768799 15 574 384 0 551 570 0 17 575 0 574 227 283 223 578 576 0 602 -16 576 38
5 0 ?578 567 585 577 0 0 1 31 577 386 0 576 586 568 0 +-0.001549918851135134 0.0
007500783924930218 0.00175000003278354 -1.748455531469489e-007 0.999999999999983
9 4.371139045514291e-008 7.642742242951729e-015 -4.371139045514223e-008 0.999999
9999999991 4.999999999999991e-005 17 578 0 601 569 602 273 575 576 0 272 +14 579
 387 581 1e-008 588 570 583 38 580 +0 0 588 570 36 51 580 388 0 579 589 571 0 +-
0.00154991858012454 -0.0007999215331975932 4.999996503088925e-005 -1.74845553146
9489e-007 0.9999999999999838 4.371138828673856e-008 4.999999999999991e-005 -0.99
99999999999848 -1.748455531469491e-007 0 81 1 581 389 32 579 0 0 590 572 582 83
 3 582 0.8274509906768799 0.8392156958580017 0.8274509906768799 15 583 390 0 560
 579 0 17 584 0 583 298 241 294 587 585 0 596 -16 585 391 0 ?587 576 594 586 0 0
 1 31 586 392 0 585 595 577 0 +-0.001549918851135147 0.0007500784668023817 5.000
003278354118e-005 -1.748455509785446e-007 0.9999999999999839 4.371138828673856e-
008 -0.9999999999999848 -1.748455509785447e-007 9.478396428567891e-023 4.9999999
99999991e-005 17 587 0 610 611 596 231 584 585 0 614 +14 588 393 590 1e-008 597
 579 592 38 589 +0 0 597 579 36 51 589 394 0 588 598 580 0 +-0.00159991885113514
6 0.0007500784580601041 5.000003278354109e-005 0.9999999999999848 1.748455531469
491e-007 0 5.000000000000002e-005 -1.748455531469489e-007 0.9999999999999838 4.3
71138828673856e-008 81 1 590 395 32 588 0 0 599 581 591 83 3 591 0.8274509906768
799 0.8392156958580017 0.8274509906768799 15 592 396 0 161 588 0 17 593 0 592 20
6 304 202 596 594 0 0 -16 594 397 0 ?596 585 603 595 0 0 1 31 595 398 0 594 604
 586 0 +-0.001549918851135147 0.0007500784668023817 5.000003278354109e-005 -0.99
99999999999848 -1.748455531469491e-007 -1.577721810442024e-030 1.748455531469489
e-007 -0.9999999999999838 -4.371138828673856e-008 5.000000000000002e-005 17 596
 0 610 587 611 294 593 594 0 0 +14 597 399 599 1e-008 606 588 601 38 598 +0 0 60
6 588 36 53 598 400 0 597 607 589 0 +-0.001549918851135134 0.0007500783924930216
 0.00175000003278354 5e-005 7.642741863815873e-015 -4.371138828673789e-008 0.999
9999999999991 0.9999999999999848 1.748455531469491e-007 0 81 1 599 401 32 597 0
 0 608 590 600 83 3 600 0.8274509906768799 0.8392156958580017 0.8274509906768799
 15 601 402 0 578 597 0 17 602 0 601 578 569 223 605 603 0 0 -16 603 403 0 ?605
 594 612 604 0 0 1 31 604 404 0 603 613 595 0 +-0.001549918851135134 0.000750078
3924930216 0.00175000003278354 -7.642741863815873e-015 4.37113882867379e-008 -0.
9999999999999991 1.748455531469489e-007 -0.9999999999999838 -4.371138828673856e-
008 5.000000000000002e-005 17 605 0 619 212 235 208 602 603 0 0 +14 606 405 608
 1e-008 615 597 610 38 607 +0 0 615 597 36 53 607 406 0 606 616 598 0 +-0.001549
918851135147 0.0007500784668023817 5.000003278354118e-005 5e-005 7.6427418638158
73e-015 -4.371138828673789e-008 0.9999999999999991 0.9999999999999848 1.74845553
1469491e-007 0 81 1 608 407 32 606 0 0 617 599 609 83 3 609 0.8274509906768799 0
.8392156958580017 0.8274509906768799 15 610 408 0 596 606 0 17 611 0 610 596 587
 202 614 612 0 593 -16 612 409 0 ?614 603 626 613 0 0 1 31 613 410 0 612 627 604
 0 +-0.001549918851135147 0.0007500784668023819 5.000003278354109e-005 7.6427418
63815873e-015 -4.37113882867379e-008 0.9999999999999991 -1.748455531469489e-007
 0.9999999999999838 4.371138828673856e-008 5.000000000000002e-005 17 614 0 619 2
35 212 231 611 612 0 0 +14 615 411 617 1e-008 620 606 619 38 616 +0 0 620 606 36
 51 616 412 0 615 621 607 0 +-0.001549918851135134 0.0007500783903074524 0.00180
000003278354 -7.642741863815873e-015 4.371138828673789e-008 -0.9999999999999991
 5.000000000000002e-005 -1.748455531469489e-007 0.9999999999999838 4.37113882867
3856e-008 81 1 617 413 32 615 0 0 622 608 618 83 3 618 0.8274509906768799 0.8392
156958580017 0.8274509906768799 15 619 414 0 605 615 0 14 620 415 622 1e-008 629
 615 624 38 621 +0 0 629 615 36 51 621 416 0 620 630 616 0 +8.114886484262172e-0
08 0.0007500786635036294 0.00175000003278354 -0.9999999999999848 -1.748455535806
299e-007 -1.895679285713575e-023 5.000000000000002e-005 1.748455535806298e-007 -
0.9999999999999838 -4.371138828673856e-008 81 1 622 417 32 620 0 0 631 617 623 8
3 3 623 0.8274509906768799 0.8392156958580017 0.8274509906768799 15 624 418 0 44
9 620 0 17 625 0 624 395 466 378 628 626 0 641 -16 626 419 0 ?628 612 635 627 0
 0 1 31 627 420 0 626 636 613 0 +0.001550081148864819 0.0007500789345142375 0.00
175000003278354 0.9999999999999848 1.748455531469491e-007 1.577721810442024e-030
 -1.748455531469489e-007 0.9999999999999838 4.371138828673856e-008 5.00000000000
0002e-005 17 628 0 655 656 641 456 625 626 0 0 +14 629 421 631 1e-008 642 620 63
3 38 630 +0 0 642 620 36 51 630 422 0 629 643 621 0 +0.00155008114886482 0.00075
00789323286681 0.00180000003278354 -7.642741863815873e-015 4.371138828673789e-00
8 -0.9999999999999991 5.000000000000002e-005 -1.748455531469489e-007 0.999999999
9999838 4.371138828673856e-008 81 1 631 423 32 629 0 0 644 622 632 83 3 632 0.82
74509906768799 0.8392156958580017 0.8274509906768799 15 633 424 0 634 629 0 17 6
34 0 633 377 366 373 637 635 0 0 -16 635 425 0 ?637 626 639 636 0 0 1 31 636 426
 0 635 640 627 0 +0.001550081148864806 0.0007500790088235976 5.000003278354109e-
005 -7.642741863815873e-015 4.37113882867379e-008 -0.9999999999999991 -1.7484555
31469489e-007 0.9999999999999838 4.371138828673856e-008 5.000000000000002e-005 1
7 637 0 664 665 650 358 634 635 0 0 +17 638 0 633 366 377 349 641 639 0 0 -16 63
9 427 0 ?641 635 648 640 0 0 1 31 640 428 0 639 649 636 0 +0.001550081148864819
 0.0007500789345142375 0.00175000003278354 7.642741863815873e-015 -4.37113882867
379e-008 0.9999999999999991 1.748455531469489e-007 -0.9999999999999838 -4.371138
828673856e-008 5.000000000000002e-005 17 641 0 655 628 656 378 638 639 0 0 +14 6
42 429 644 1e-008 651 629 646 38 643 +0 0 651 629 36 51 643 430 0 642 652 630 0
 +0.001600081148864805 0.0007500790175658752 5.000003278354109e-005 0.9999999999
999848 1.748455535806299e-007 1.895679285713575e-023 5.000000000000002e-005 -1.7
48455535806298e-007 0.9999999999999838 4.371138828673856e-008 81 1 644 431 32 64
2 0 0 653 631 645 83 3 645 0.8274509906768799 0.8392156958580017 0.8274509906768
799 15 646 432 0 423 642 0 17 647 0 646 481 385 477 650 648 0 665 -16 648 433 0
 ?650 639 657 649 0 0 1 31 649 434 0 648 658 640 0 +0.001550081148864806 0.00075
00790088235976 5.000003278354118e-005 0.9999999999999848 1.748455531469491e-007
 1.577721810442024e-030 -1.748455531469489e-007 0.9999999999999838 4.37113882867
3856e-008 5.000000000000002e-005 17 650 0 664 637 665 373 647 648 0 634 +14 651
 435 653 1e-008 660 642 655 38 652 +0 0 660 642 36 53 652 436 0 651 661 643 0 +0
.001550081148864819 0.0007500789345142375 0.00175000003278354 5e-005 7.642741863
815873e-015 -4.371138828673789e-008 0.9999999999999991 0.9999999999999848 1.7484
55531469491e-007 0 81 1 653 437 32 651 0 0 662 644 654 83 3 654 0.82745099067687
99 0.8392156958580017 0.8274509906768799 15 655 438 0 641 651 0 17 656 0 655 641
 628 349 659 657 0 638 -16 657 439 0 ?659 648 666 658 0 0 1 31 658 440 0 657 667
 649 0 +0.001550081148864819 0.0007500789345142375 0.00175000003278354 1.7484555
31469489e-007 -0.9999999999999839 -4.371138828673856e-008 -0.9999999999999848 -1
.748455531469491e-007 0 4.999999999999991e-005 17 659 0 682 460 348 456 656 657
 0 466 +14 660 441 662 1e-008 669 651 664 38 661 +0 0 669 651 36 53 661 442 0 66
0 670 652 0 +0.001550081148864806 0.0007500790088235976 5.000003278354118e-005 5
e-005 7.642741863815873e-015 -4.371138828673789e-008 0.9999999999999991 0.999999
9999999848 1.748455531469491e-007 0 81 1 662 443 32 660 0 0 671 653 663 83 3 663
 0.8274509906768799 0.8392156958580017 0.8274509906768799 15 664 444 0 650 660 0
 17 665 0 664 650 637 477 668 666 0 476 -16 666 445 0 ?668 657 675 667 0 0 1 31
 667 446 0 666 676 658 0 +0.001550081148864806 0.0007500790088235976 5.000003278
354109e-005 1.748455531469489e-007 -0.9999999999999839 -4.371138828673856e-008 -
0.9999999999999848 -1.748455531469491e-007 0 4.999999999999991e-005 17 668 0 691
 362 487 358 665 666 0 637 +14 669 447 671 1e-008 678 660 673 38 670 +0 0 678 66
0 36 51 670 448 0 669 679 661 0 +8.141113317299267e-008 -0.0007499213364963462 0
.001749999967216457 0.9999999999999848 1.748455535806299e-007 1.895679285713575e
-023 5.000000000000002e-005 -1.748455535806298e-007 0.9999999999999838 4.3711388
28673856e-008 81 1 671 449 32 669 0 0 680 662 672 83 3 672 0.8274509906768799 0.
8392156958580017 0.8274509906768799 15 673 450 0 439 669 0 17 674 0 673 470 337
 461 677 675 0 0 -16 675 451 0 ?677 666 684 676 0 0 1 31 676 452 0 675 685 667 0
 +0.00155008141113315 -0.0007499210654857382 0.001749999967216457 0.999999999999
9848 1.748455531469491e-007 1.577721810442024e-030 -1.748455531469489e-007 0.999
9999999999838 4.371138828673856e-008 5.000000000000002e-005 17 677 0 709 710 686
 329 674 675 0 0 +14 678 453 680 1e-008 687 669 682 38 679 +0 0 687 669 36 51 67
9 454 0 678 688 670 0 +0.001550081279998985 7.893451424982526e-008 0.00174999999
9999999 -1.7484555368905e-007 0.9999999999999838 4.371138828673856e-008 4.999999
999999991e-005 -0.9999999999999848 -1.748455536890502e-007 -2.369599107141969e-0
23 81 1 680 455 32 678 0 0 689 671 681 83 3 681 0.8274509906768799 0.83921569585
80017 0.8274509906768799 15 682 456 0 659 678 0 17 683 0 682 348 460 344 686 684
 0 710 -16 684 457 0 ?686 675 693 685 0 0 1 31 685 458 0 684 694 676 0 +0.001550
08141113315 -0.0007499210654857382 0.001749999967216457 1.748455531469489e-007 -
0.9999999999999839 -4.371138828673856e-008 0.9999999999999848 1.748455531469491e
-007 0 4.999999999999991e-005 17 686 0 709 677 710 461 683 684 0 467 +14 687 459
 689 1e-008 696 678 691 38 688 +0 0 696 678 36 51 688 460 0 687 697 679 0 +0.001
550081419875414 -0.0007999209911763773 4.999996503088925e-005 1.7484555368905e-0
07 -0.9999999999999838 -4.371138828673856e-008 4.999999999999991e-005 0.99999999
99999848 1.748455536890502e-007 2.369599107141969e-023 81 1 689 461 32 687 0 0 6
98 680 690 83 3 690 0.8274509906768799 0.8392156958580017 0.8274509906768799 15
 691 462 0 668 687 0 17 692 0 691 487 362 483 695 693 0 704 -16 693 463 0 ?695 6
84 702 694 0 0 1 31 694 464 0 693 703 685 0 +0.001550081411133137 -0.00074992099
11763781 4.999996721645875e-005 1.748455531469489e-007 -0.9999999999999839 -4.37
1138828673856e-008 0.9999999999999848 1.748455531469491e-007 0 4.999999999999991
e-005 17 695 0 718 719 704 352 692 693 0 722 +14 696 465 698 1e-008 705 687 700
 38 697 +0 0 705 687 36 51 697 466 0 696 706 688 0 +0.001600081411133136 -0.0007
499209824341006 4.999996721645866e-005 -0.9999999999999848 -1.748455535806299e-0
07 -1.895679285713575e-023 5.000000000000002e-005 1.748455535806298e-007 -0.9999
999999999838 -4.371138828673856e-008 81 1 698 467 32 696 0 0 707 689 699 83 3 69
9 0.8274509906768799 0.8392156958580017 0.8274509906768799 15 700 468 0 433 696
 0 17 701 0 700 327 491 323 704 702 0 0 -16 702 469 0 ?704 693 711 703 0 0 1 31
 703 470 0 702 712 694 0 +0.001550081411133137 -0.0007499209911763781 4.99999672
1645866e-005 0.9999999999999848 1.748455531469491e-007 1.577721810442024e-030 -1
.748455531469489e-007 0.9999999999999838 4.371138828673856e-008 5.00000000000000
2e-005 17 704 0 718 695 719 483 701 702 0 482 +14 705 471 707 1e-008 714 696 709
 38 706 +0 0 714 696 36 53 706 472 0 705 715 697 0 +0.00155008141113315 -0.00074
99210654857382 0.001749999967216457 5e-005 7.642741863815873e-015 -4.37113882867
3789e-008 0.9999999999999991 0.9999999999999848 1.748455531469491e-007 0 81 1 70
7 473 32 705 0 0 716 698 708 83 3 708 0.8274509906768799 0.8392156958580017 0.82
74509906768799 15 709 474 0 686 705 0 17 710 0 709 686 677 344 713 711 0 0 -16 7
11 475 0 ?713 702 720 712 0 0 1 31 712 476 0 711 721 703 0 +0.00155008141113315
 -0.0007499210654857382 0.001749999967216457 -7.642741863815873e-015 4.371138828
67379e-008 -0.9999999999999991 1.748455531469489e-007 -0.9999999999999838 -4.371
138828673856e-008 5.000000000000002e-005 17 713 0 727 333 356 329 710 711 0 677
 +14 714 477 716 1e-008 723 705 718 38 715 +0 0 723 705 36 53 715 478 0 714 724
 706 0 +0.001550081411133137 -0.0007499209911763781 4.999996721645875e-005 5e-00
5 7.642741863815873e-015 -4.371138828673789e-008 0.9999999999999991 0.9999999999
999848 1.748455531469491e-007 0 81 1 716 479 32 714 0 0 725 707 717 83 3 717 0.8
274509906768799 0.8392156958580017 0.8274509906768799 15 718 480 0 704 714 0 17
 719 0 718 704 695 323 722 720 0 701 -16 720 481 0 ?722 711 0 721 0 0 1 31 721 4
82 0 720 0 712 0 +0.001550081411133137 -0.0007499209911763781 4.999996721645866e
-005 7.642741863815873e-015 -4.37113882867379e-008 0.9999999999999991 -1.7484555
31469489e-007 0.9999999999999838 4.371138828673856e-008 5.000000000000002e-005 1
7 722 0 727 356 333 352 719 720 0 0 +14 723 483 725 1e-008 0 714 727 38 724 +0 0
 0 714 36 51 724 484 0 723 0 715 0 +0.00155008141113315 -0.0007499210676713077 0
.001799999967216457 -7.642741863815873e-015 4.371138828673789e-008 -0.9999999999
999991 5.000000000000002e-005 -1.748455531469489e-007 0.9999999999999838 4.37113
8828673856e-008 81 1 725 485 32 723 0 0 0 716 726 83 3 726 0.8274509906768799 0.
8392156958580017 0.8274509906768799 15 727 486 0 713 723 0 1 0 
