<svg width="99.99999812mm" height="139.9999994mm" viewBox="0 0 39370078 55118110"  version="1.1" xmlns="http://www.w3.org/2000/svg" xmlns:xlink="http://www.w3.org/1999/xlink">
<desc>
Origin 86614173 52165354 Bound 87411417 52952756 39370078 55118110
</desc>
<g fill-rule="evenodd" fill="rgb(0, 93, 124)" stroke="black" stroke-width="1" transform="translate(0, 55118110) scale(1, -1) translate(-87411417, -52952756)">
<path id="N" d="M 90157480.61 77893699.35 m -338168.19 0 a 338168.19 338168.19 0 1 1 676336.37 0a 338168.19 338168.19 0 1 1 -676336.37 0M 90157478.59 77893701.48 m -160563.52 0 a 160563.52 160563.52 0 1 1 321127.04 0a 160563.52 160563.52 0 1 1 -321127.04 0"/>
<path id="N" d="M 123738194.89 68519698.25 m -358010.18 0 a 358010.18 358010.18 0 1 1 716020.37 0a 358010.18 358010.18 0 1 1 -716020.37 0M 123738190.36 68519686.47 m -200706.53 0 a 200706.53 200706.53 0 1 1 401413.05 0a 200706.53 200706.53 0 1 1 -401413.05 0"/>
<path id="N" d="M 97582262.00 88582677.00 L 97582262.00 88188975.00 A 338174.95 338174.95 0 0 0 96905926.00 88188975.00 L 96905926.00 88582677.00 A 338174.95 338174.95 0 0 0 97582262.00 88582677.00  zM 97244096.38 88385820.09 m -140500.91 0 a 140500.91 140500.91 0 1 1 281001.82 0a 140500.91 140500.91 0 1 1 -281001.82 0"/>
<path id="N" d="M 90118111.00 89662341.00 L 89803149.00 89662341.00 A 278589.51 278589.51 0 0 0 89803149.00 90219547.00 L 90118111.00 90219547.00 A 278618.66 278618.66 0 0 0 90118111.00 89662341.00  zM 89960632.38 89940938.09 m -140500.91 0 a 140500.91 140500.91 0 1 1 281001.82 0a 140500.91 140500.91 0 1 1 -281001.82 0"/>
<path id="N" d="M 103487774.00 81102362.00 L 103487774.00 80708660.00 A 338174.95 338174.95 0 0 0 102811438.00 80708660.00 L 102811438.00 81102362.00 A 338174.95 338174.95 0 0 0 103487774.00 81102362.00  zM 103149606.36 80905511.47 m -200706.53 0 a 200706.53 200706.53 0 1 1 401413.05 0a 200706.53 200706.53 0 1 1 -401413.05 0"/>
<path id="N" d="M 122738187.56 86779528.54 m -358024.36 0 a 358024.36 358024.36 0 1 1 716048.72 0a 358024.36 358024.36 0 1 1 -716048.72 0M 122738190.36 86779529.47 m -200706.53 0 a 200706.53 200706.53 0 1 1 401413.05 0a 200706.53 200706.53 0 1 1 -401413.05 0"/>
<path id="N" d="M 123738187.56 83779528.54 m -358024.36 0 a 358024.36 358024.36 0 1 1 716048.72 0a 358024.36 358024.36 0 1 1 -716048.72 0M 123738190.36 83779529.47 m -200706.53 0 a 200706.53 200706.53 0 1 1 401413.05 0a 200706.53 200706.53 0 1 1 -401413.05 0"/>
<path id="N" d="M 123738187.56 91779528.54 m -358024.36 0 a 358024.36 358024.36 0 1 1 716048.72 0a 358024.36 358024.36 0 1 1 -716048.72 0M 123738190.36 91779529.47 m -200706.53 0 a 200706.53 200706.53 0 1 1 401413.05 0a 200706.53 200706.53 0 1 1 -401413.05 0"/>
<path id="N" d="M 103094073.00 61811024.00 L 103094073.00 61417322.00 A 338174.95 338174.95 0 1 0 102417737.00 61417322.00 L 102417737.00 61811024.00 A 338174.95 338174.95 0 1 0 103094073.00 61811024.00  zM 102755907.38 61614167.09 m -140500.91 0 a 140500.91 140500.91 0 1 1 281001.82 0a 140500.91 140500.91 0 1 1 -281001.82 0"/>
<path id="N" d="M 123738194.89 62519698.25 m -358010.18 0 a 358010.18 358010.18 0 1 1 716020.37 0a 358010.18 358010.18 0 1 1 -716020.37 0M 123738190.36 62519686.47 m -200706.53 0 a 200706.53 200706.53 0 1 1 401413.05 0a 200706.53 200706.53 0 1 1 -401413.05 0"/>
<path id="N" d="M 90118111.00 92024547.00 L 89803149.00 92024547.00 A 278589.51 278589.51 0 0 0 89803149.00 92581753.00 L 90118111.00 92581753.00 A 278618.66 278618.66 0 0 0 90118111.00 92024547.00  zM 89960632.38 92303144.09 m -140500.91 0 a 140500.91 140500.91 0 1 1 281001.82 0a 140500.91 140500.91 0 1 1 -281001.82 0"/>
<path id="N" d="M 100189602.69 84842516.52 m -368153.59 0 a 368153.59 368153.59 0 1 1 736307.17 0a 368153.59 368153.59 0 1 1 -736307.17 0M 100189607.18 84842516.74 m -224312.26 0 a 224312.26 224312.26 0 1 1 448624.51 0a 224312.26 224312.26 0 1 1 -448624.51 0"/>
<path id="N" d="M 89064961.00 99779942.00 L 88671259.00 99779942.00 A 338174.95 338174.95 0 1 0 88671259.00 100456278.00 L 89064961.00 100456278.00 A 338168.19 338168.19 0 1 0 89064961.00 99779942.00  zM 88868110.36 100118110.47 m -200706.53 0 a 200706.53 200706.53 0 1 1 401413.05 0a 200706.53 200706.53 0 1 1 -401413.05 0"/>
<path id="N" d="M 123738187.56 82779528.54 m -358024.36 0 a 358024.36 358024.36 0 1 1 716048.72 0a 358024.36 358024.36 0 1 1 -716048.72 0M 123738190.36 82779529.47 m -200706.53 0 a 200706.53 200706.53 0 1 1 401413.05 0a 200706.53 200706.53 0 1 1 -401413.05 0"/>
<path id="N" d="M 93061024.00 60143690.00 L 92765748.00 60143690.00 A 387800.22 387800.22 0 0 0 92765748.00 60919302.00 L 93061024.00 60919302.00 A 387801.02 387801.02 0 0 0 93061024.00 60143690.00  zM 92913386.44 60531494.65 m -180637.35 0 a 180637.35 180637.35 0 1 1 361274.69 0a 180637.35 180637.35 0 1 1 -361274.69 0"/>
<path id="N" d="M 103094073.00 88582677.00 L 103094073.00 88188975.00 A 338174.95 338174.95 0 1 0 102417737.00 88188975.00 L 102417737.00 88582677.00 A 338174.95 338174.95 0 1 0 103094073.00 88582677.00  zM 102755907.38 88385820.09 m -140500.91 0 a 140500.91 140500.91 0 1 1 281001.82 0a 140500.91 140500.91 0 1 1 -281001.82 0"/>
<path id="N" d="M 92857853.00 91732284.00 L 92857853.00 91338582.00 A 338174.95 338174.95 0 0 0 92181517.00 91338582.00 L 92181517.00 91732284.00 A 338174.95 338174.95 0 0 0 92857853.00 91732284.00  zM 92519687.38 91535427.09 m -140500.91 0 a 140500.91 140500.91 0 1 1 281001.82 0a 140500.91 140500.91 0 1 1 -281001.82 0"/>
<path id="N" d="M 97975963.00 66141733.00 L 97975963.00 65748031.00 A 338174.95 338174.95 0 1 0 97299627.00 65748031.00 L 97299627.00 66141733.00 A 338174.95 338174.95 0 1 0 97975963.00 66141733.00  zM 97637797.38 65944876.09 m -140500.91 0 a 140500.91 140500.91 0 1 1 281001.82 0a 140500.91 140500.91 0 1 1 -281001.82 0"/>
<path id="N" d="M 98369664.00 88582677.00 L 98369664.00 88188975.00 A 338174.95 338174.95 0 1 0 97693328.00 88188975.00 L 97693328.00 88582677.00 A 338174.95 338174.95 0 1 0 98369664.00 88582677.00  zM 98031498.38 88385820.09 m -140500.91 0 a 140500.91 140500.91 0 1 1 281001.82 0a 140500.91 140500.91 0 1 1 -281001.82 0"/>
<path id="N" d="M 97975963.00 61811024.00 L 97975963.00 61417322.00 A 338174.95 338174.95 0 1 0 97299627.00 61417322.00 L 97299627.00 61811024.00 A 338174.95 338174.95 0 1 0 97975963.00 61811024.00  zM 97637797.38 61614167.09 m -140500.91 0 a 140500.91 140500.91 0 1 1 281001.82 0a 140500.91 140500.91 0 1 1 -281001.82 0"/>
<path id="N" d="M 107818483.00 88582677.00 L 107818483.00 88188975.00 A 338174.95 338174.95 0 0 0 107142147.00 88188975.00 L 107142147.00 88582677.00 A 338174.95 338174.95 0 0 0 107818483.00 88582677.00  zM 107480317.38 88385820.09 m -140500.91 0 a 140500.91 140500.91 0 1 1 281001.82 0a 140500.91 140500.91 0 1 1 -281001.82 0"/>
<path id="N" d="M 103881475.00 61811024.00 L 103881475.00 61417322.00 A 338174.95 338174.95 0 0 0 103205139.00 61417322.00 L 103205139.00 61811024.00 A 338174.95 338174.95 0 0 0 103881475.00 61811024.00  zM 103543309.38 61614167.09 m -140500.91 0 a 140500.91 140500.91 0 1 1 281001.82 0a 140500.91 140500.91 0 1 1 -281001.82 0"/>
<path id="N" d="M 93061024.00 81403532.00 L 92765748.00 81403532.00 A 387800.22 387800.22 0 0 0 92765748.00 82179144.00 L 93061024.00 82179144.00 A 387801.02 387801.02 0 0 0 93061024.00 81403532.00  zM 92913386.44 81791336.65 m -180637.35 0 a 180637.35 180637.35 0 1 1 361274.69 0a 180637.35 180637.35 0 1 1 -361274.69 0"/>
<path id="N" d="M 96794860.00 81102362.00 L 96794860.00 80708660.00 A 338174.95 338174.95 0 0 0 96118524.00 80708660.00 L 96118524.00 81102362.00 A 338174.95 338174.95 0 0 0 96794860.00 81102362.00  zM 96456692.36 80905511.47 m -200706.53 0 a 200706.53 200706.53 0 1 1 401413.05 0a 200706.53 200706.53 0 1 1 -401413.05 0"/>
<path id="N" d="M 93061024.00 74316918.00 L 92765748.00 74316918.00 A 387800.22 387800.22 0 1 0 92765748.00 75092530.00 L 93061024.00 75092530.00 A 387801.02 387801.02 0 0 0 93061024.00 74316918.00  zM 92913386.44 74704722.65 m -180637.35 0 a 180637.35 180637.35 0 1 1 361274.69 0a 180637.35 180637.35 0 1 1 -361274.69 0"/>
<path id="N" d="M 99305129.00 73179134.00 L 99305129.00 72883858.00 A 387800.22 387800.22 0 0 0 98529517.00 72883858.00 L 98529517.00 73179134.00 A 387800.22 387800.22 0 0 0 99305129.00 73179134.00  zM 98917323.44 73031494.65 m -180637.35 0 a 180637.35 180637.35 0 1 1 361274.69 0a 180637.35 180637.35 0 1 1 -361274.69 0"/>
<path id="N" d="M 93061024.00 67230304.00 L 92765748.00 67230304.00 A 387800.22 387800.22 0 1 0 92765748.00 68005916.00 L 93061024.00 68005916.00 A 387801.02 387801.02 0 0 0 93061024.00 67230304.00  zM 92913386.44 67618108.65 m -180637.35 0 a 180637.35 180637.35 0 1 1 361274.69 0a 180637.35 180637.35 0 1 1 -361274.69 0"/>
<path id="N" d="M 103881475.00 66141733.00 L 103881475.00 65748031.00 A 338174.95 338174.95 0 0 0 103205139.00 65748031.00 L 103205139.00 66141733.00 A 338174.95 338174.95 0 0 0 103881475.00 66141733.00  zM 103543309.38 65944876.09 m -140500.91 0 a 140500.91 140500.91 0 1 1 281001.82 0a 140500.91 140500.91 0 1 1 -281001.82 0"/>
<path id="N" d="M 99550766.00 69685040.00 L 99550766.00 69291338.00 A 338174.95 338174.95 0 0 0 98874430.00 69291338.00 L 98874430.00 69685040.00 A 338174.95 338174.95 0 0 0 99550766.00 69685040.00  zM 99212598.36 69488189.47 m -200706.53 0 a 200706.53 200706.53 0 1 1 401413.05 0a 200706.53 200706.53 0 1 1 -401413.05 0"/>
<path id="N" d="M 99305129.00 77509842.00 L 99305129.00 77214566.00 A 387800.22 387800.22 0 0 0 98529517.00 77214566.00 L 98529517.00 77509842.00 A 387800.22 387800.22 0 0 0 99305129.00 77509842.00  zM 98917323.44 77362202.65 m -180637.35 0 a 180637.35 180637.35 0 1 1 361274.69 0a 180637.35 180637.35 0 1 1 -361274.69 0"/>
<path id="N" d="M 101912970.00 81102362.00 L 101912970.00 80708660.00 A 338174.95 338174.95 0 0 0 101236634.00 80708660.00 L 101236634.00 81102362.00 A 338174.95 338174.95 0 0 0 101912970.00 81102362.00  zM 101574802.36 80905511.47 m -200706.53 0 a 200706.53 200706.53 0 1 1 401413.05 0a 200706.53 200706.53 0 1 1 -401413.05 0"/>
<path id="N" d="M 99944467.00 91732284.00 L 99944467.00 91338582.00 A 338174.95 338174.95 0 0 0 99268131.00 91338582.00 L 99268131.00 91732284.00 A 338174.95 338174.95 0 0 0 99944467.00 91732284.00  zM 99606301.38 91535427.09 m -140500.91 0 a 140500.91 140500.91 0 1 1 281001.82 0a 140500.91 140500.91 0 1 1 -281001.82 0"/>
<path id="N" d="M 93522341.00 88572205.00 L 93522341.00 88178503.00 A 338174.95 338174.95 0 0 0 92846005.00 88178503.00 L 92846005.00 88572205.00 A 338174.95 338174.95 0 0 0 93522341.00 88572205.00  zM 93184175.38 88375348.09 m -140500.91 0 a 140500.91 140500.91 0 1 1 281001.82 0a 140500.91 140500.91 0 1 1 -281001.82 0"/>
<path id="N" d="M 96401160.00 91732284.00 L 96401160.00 91338582.00 A 338174.95 338174.95 0 0 0 95724824.00 91338582.00 L 95724824.00 91732284.00 A 338174.95 338174.95 0 0 0 96401160.00 91732284.00  zM 96062994.38 91535427.09 m -140500.91 0 a 140500.91 140500.91 0 1 1 281001.82 0a 140500.91 140500.91 0 1 1 -281001.82 0"/>
<path id="N" d="M 98219602.69 84842516.52 m -368153.59 0 a 368153.59 368153.59 0 1 1 736307.17 0a 368153.59 368153.59 0 1 1 -736307.17 0M 98219607.18 84842516.74 m -224312.26 0 a 224312.26 224312.26 0 1 1 448624.51 0a 224312.26 224312.26 0 1 1 -448624.51 0"/>
<path id="N" d="M 117450792.89 100196863.25 m -358010.18 0 a 358010.18 358010.18 0 1 1 716020.37 0a 358010.18 358010.18 0 1 1 -716020.37 0M 117450786.59 100196852.48 m -160563.52 0 a 160563.52 160563.52 0 1 1 321127.04 0a 160563.52 160563.52 0 1 1 -321127.04 0"/>
<path id="N" d="M 102880157.00 102287166.00 L 102237953.00 102287166.00 L 102237953.00 102929370.00 L 102880157.00 102929370.00 L 102880157.00 102287166.00  zM 102559057.11 102608264.19 m -184653.81 0 a 184653.81 184653.81 0 1 1 369307.62 0a 184653.81 184653.81 0 1 1 -369307.62 0"/>
<path id="N" d="M 109966771.00 102287166.00 L 109324567.00 102287166.00 L 109324567.00 102929370.00 L 109966771.00 102929370.00 L 109966771.00 102287166.00  zM 109645671.11 102608264.19 m -184653.81 0 a 184653.81 184653.81 0 1 1 369307.62 0a 184653.81 184653.81 0 1 1 -369307.62 0"/>
<path id="N" d="M 95793543.00 102287166.00 L 95151339.00 102287166.00 L 95151339.00 102929370.00 L 95793543.00 102929370.00 L 95793543.00 102287166.00  zM 95472443.11 102608264.19 m -184653.81 0 a 184653.81 184653.81 0 1 1 369307.62 0a 184653.81 184653.81 0 1 1 -369307.62 0"/>
<path id="N" d="M 89763774.32 76377944.85 m -633610.47 0 a 633610.47 633610.47 0 1 1 1267220.94 0a 633610.47 633610.47 0 1 1 -1267220.94 0M 89763780.70 76377945.23 m -357393.77 0 a 357393.77 357393.77 0 1 1 714787.55 0a 357393.77 357393.77 0 1 1 -714787.55 0"/>
<path id="N" d="M 89763774.32 62204716.85 m -633610.47 0 a 633610.47 633610.47 0 1 1 1267220.94 0a 633610.47 633610.47 0 1 1 -1267220.94 0M 89763780.70 62204717.23 m -357393.77 0 a 357393.77 357393.77 0 1 1 714787.55 0a 357393.77 357393.77 0 1 1 -714787.55 0"/>
<path id="N" d="M 89763774.32 69291330.85 m -633610.47 0 a 633610.47 633610.47 0 1 1 1267220.94 0a 633610.47 633610.47 0 1 1 -1267220.94 0M 89763780.70 69291331.23 m -357393.77 0 a 357393.77 357393.77 0 1 1 714787.55 0a 357393.77 357393.77 0 1 1 -714787.55 0"/>
<path id="N" d="M 89763774.32 83464559.85 m -633610.47 0 a 633610.47 633610.47 0 1 1 1267220.94 0a 633610.47 633610.47 0 1 1 -1267220.94 0M 89763779.73 83464567.56 m -357386.44 0 a 357386.44 357386.44 0 1 1 714772.87 0a 357386.44 357386.44 0 1 1 -714772.87 0"/>
<path id="N" d="M 117688973.69 58358262.49 m -443804.13 0 a 443804.13 443804.13 0 1 1 887608.25 0a 443804.13 443804.13 0 1 1 -887608.25 0M 117688974.80 58358275.26 m -272323.74 0 a 272323.74 272323.74 0 1 1 544647.48 0a 272323.74 272323.74 0 1 1 -544647.48 0"/>
<path id="N" d="M 114659459.00 106643701.00 L 114659459.00 106348425.00 A 387800.22 387800.22 0 0 0 113883847.00 106348425.00 L 113883847.00 106643701.00 A 387800.22 387800.22 0 0 0 114659459.00 106643701.00  zM 114271653.36 106496063.47 m -200706.53 0 a 200706.53 200706.53 0 1 1 401413.05 0a 200706.53 200706.53 0 1 1 -401413.05 0"/>
<path id="N" d="M 93061024.00 84356288.00 L 92765748.00 84356288.00 A 387800.22 387800.22 0 0 0 92765748.00 85131900.00 L 93061024.00 85131900.00 A 387801.02 387801.02 0 0 0 93061024.00 84356288.00  zM 92913386.44 84744092.65 m -180637.35 0 a 180637.35 180637.35 0 1 1 361274.69 0a 180637.35 180637.35 0 1 1 -361274.69 0"/>
<path id="N" d="M 93061024.00 70183060.00 L 92765748.00 70183060.00 A 387800.22 387800.22 0 0 0 92765748.00 70958672.00 L 93061024.00 70958672.00 A 387801.02 387801.02 0 0 0 93061024.00 70183060.00  zM 92913386.44 70570864.65 m -180637.35 0 a 180637.35 180637.35 0 1 1 361274.69 0a 180637.35 180637.35 0 1 1 -361274.69 0"/>
<path id="N" d="M 118596467.00 106643701.00 L 118596467.00 106348425.00 A 387800.22 387800.22 0 0 0 117820855.00 106348425.00 L 117820855.00 106643701.00 A 387800.22 387800.22 0 0 0 118596467.00 106643701.00  zM 118208661.36 106496063.47 m -200706.53 0 a 200706.53 200706.53 0 1 1 401413.05 0a 200706.53 200706.53 0 1 1 -401413.05 0"/>
<path id="N" d="M 93061024.00 63096446.00 L 92765748.00 63096446.00 A 387800.22 387800.22 0 0 0 92765748.00 63872058.00 L 93061024.00 63872058.00 A 387801.02 387801.02 0 0 0 93061024.00 63096446.00  zM 92913386.44 63484250.65 m -180637.35 0 a 180637.35 180637.35 0 1 1 361274.69 0a 180637.35 180637.35 0 1 1 -361274.69 0"/>
<path id="N" d="M 122533475.00 106643701.00 L 122533475.00 106348425.00 A 387800.22 387800.22 0 1 0 121757863.00 106348425.00 L 121757863.00 106643701.00 A 387800.22 387800.22 0 1 0 122533475.00 106643701.00  zM 122145669.36 106496063.47 m -200706.53 0 a 200706.53 200706.53 0 1 1 401413.05 0a 200706.53 200706.53 0 1 1 -401413.05 0"/>
<path id="N" d="M 93061024.00 77269674.00 L 92765748.00 77269674.00 A 387800.22 387800.22 0 0 0 92765748.00 78045286.00 L 93061024.00 78045286.00 A 387801.02 387801.02 0 0 0 93061024.00 77269674.00  zM 92913386.44 77657478.65 m -180637.35 0 a 180637.35 180637.35 0 1 1 361274.69 0a 180637.35 180637.35 0 1 1 -361274.69 0"/>
<path id="N" d="M 98320877.00 73179134.00 L 98320877.00 72883858.00 A 387800.22 387800.22 0 0 0 97545265.00 72883858.00 L 97545265.00 73179134.00 A 387800.22 387800.22 0 0 0 98320877.00 73179134.00  zM 97933071.44 73031494.65 m -180637.35 0 a 180637.35 180637.35 0 1 1 361274.69 0a 180637.35 180637.35 0 1 1 -361274.69 0"/>
<path id="N" d="M 98320877.00 77509842.00 L 98320877.00 77214566.00 A 387800.22 387800.22 0 0 0 97545265.00 77214566.00 L 97545265.00 77509842.00 A 387800.22 387800.22 0 0 0 98320877.00 77509842.00  zM 97933071.44 77362202.65 m -180637.35 0 a 180637.35 180637.35 0 1 1 361274.69 0a 180637.35 180637.35 0 1 1 -361274.69 0"/>
<path id="N" d="M 104275176.00 81102362.00 L 104275176.00 80708660.00 A 338174.95 338174.95 0 0 0 103598840.00 80708660.00 L 103598840.00 81102362.00 A 338174.95 338174.95 0 1 0 104275176.00 81102362.00  zM 103937008.36 80905511.47 m -200706.53 0 a 200706.53 200706.53 0 1 1 401413.05 0a 200706.53 200706.53 0 1 1 -401413.05 0"/>
<path id="N" d="M 114855885.00 88809055.00 L 114855885.00 88415353.00 A 338174.95 338174.95 0 1 0 114179549.00 88415353.00 L 114179549.00 88809055.00 A 338174.95 338174.95 0 1 0 114855885.00 88809055.00  zM 114517719.38 88612198.09 m -140500.91 0 a 140500.91 140500.91 0 1 1 281001.82 0a 140500.91 140500.91 0 1 1 -281001.82 0"/>
<path id="N" d="M 101912972.00 69685040.00 L 101912972.00 69291338.00 A 338174.95 338174.95 0 1 0 101236636.00 69291338.00 L 101236636.00 69685040.00 A 338174.95 338174.95 0 1 0 101912972.00 69685040.00  zM 101574804.36 69488189.47 m -200706.53 0 a 200706.53 200706.53 0 1 1 401413.05 0a 200706.53 200706.53 0 1 1 -401413.05 0"/>
<path id="N" d="M 99157066.00 88582677.00 L 99157066.00 88188975.00 A 338174.95 338174.95 0 1 0 98480730.00 88188975.00 L 98480730.00 88582677.00 A 338174.95 338174.95 0 1 0 99157066.00 88582677.00  zM 98818900.38 88385820.09 m -140500.91 0 a 140500.91 140500.91 0 1 1 281001.82 0a 140500.91 140500.91 0 1 1 -281001.82 0"/>
<path id="N" d="M 98763365.00 66141733.00 L 98763365.00 65748031.00 A 338174.95 338174.95 0 0 0 98087029.00 65748031.00 L 98087029.00 66141733.00 A 338174.95 338174.95 0 0 0 98763365.00 66141733.00  zM 98425199.38 65944876.09 m -140500.91 0 a 140500.91 140500.91 0 1 1 281001.82 0a 140500.91 140500.91 0 1 1 -281001.82 0"/>
<path id="N" d="M 101519271.00 91732284.00 L 101519271.00 91338582.00 A 338174.95 338174.95 0 0 0 100842935.00 91338582.00 L 100842935.00 91732284.00 A 338174.95 338174.95 0 0 0 101519271.00 91732284.00  zM 101181105.38 91535427.09 m -140500.91 0 a 140500.91 140500.91 0 1 1 281001.82 0a 140500.91 140500.91 0 1 1 -281001.82 0"/>
<path id="N" d="M 106243680.00 91732284.00 L 106243680.00 91338582.00 A 338174.95 338174.95 0 0 0 105567344.00 91338582.00 L 105567344.00 91732284.00 A 338174.95 338174.95 0 0 0 106243680.00 91732284.00  zM 105905514.38 91535427.09 m -140500.91 0 a 140500.91 140500.91 0 1 1 281001.82 0a 140500.91 140500.91 0 1 1 -281001.82 0"/>
<path id="N" d="M 98763365.00 61811024.00 L 98763365.00 61417322.00 A 338174.95 338174.95 0 0 0 98087029.00 61417322.00 L 98087029.00 61811024.00 A 338174.95 338174.95 0 0 0 98763365.00 61811024.00  zM 98425199.38 61614167.09 m -140500.91 0 a 140500.91 140500.91 0 1 1 281001.82 0a 140500.91 140500.91 0 1 1 -281001.82 0"/>
<path id="N" d="M 94309743.00 88572205.00 L 94309743.00 88178503.00 A 338174.95 338174.95 0 0 0 93633407.00 88178503.00 L 93633407.00 88572205.00 A 338174.95 338174.95 0 0 0 94309743.00 88572205.00  zM 93971577.38 88375348.09 m -140500.91 0 a 140500.91 140500.91 0 1 1 281001.82 0a 140500.91 140500.91 0 1 1 -281001.82 0"/>
<path id="N" d="M 99157066.00 81102362.00 L 99157066.00 80708660.00 A 338174.95 338174.95 0 0 0 98480730.00 80708660.00 L 98480730.00 81102362.00 A 338174.95 338174.95 0 0 0 99157066.00 81102362.00  zM 98818898.36 80905511.47 m -200706.53 0 a 200706.53 200706.53 0 1 1 401413.05 0a 200706.53 200706.53 0 1 1 -401413.05 0"/>
<path id="N" d="M 104668877.00 61811024.00 L 104668877.00 61417322.00 A 338174.95 338174.95 0 1 0 103992541.00 61417322.00 L 103992541.00 61811024.00 A 338174.95 338174.95 0 1 0 104668877.00 61811024.00  zM 104330711.38 61614167.09 m -140500.91 0 a 140500.91 140500.91 0 1 1 281001.82 0a 140500.91 140500.91 0 1 1 -281001.82 0"/>
<path id="N" d="M 89064961.00 101354746.00 L 88671259.00 101354746.00 A 338174.95 338174.95 0 0 0 88671259.00 102031082.00 L 89064961.00 102031082.00 A 338168.19 338168.19 0 0 0 89064961.00 101354746.00  zM 88868110.36 101692914.47 m -200706.53 0 a 200706.53 200706.53 0 1 1 401413.05 0a 200706.53 200706.53 0 1 1 -401413.05 0"/>
<path id="N" d="M 114855885.00 85905512.00 L 114855885.00 85511810.00 A 338174.95 338174.95 0 1 0 114179549.00 85511810.00 L 114179549.00 85905512.00 A 338174.95 338174.95 0 1 0 114855885.00 85905512.00  zM 114517719.38 85708655.09 m -140500.91 0 a 140500.91 140500.91 0 1 1 281001.82 0a 140500.91 140500.91 0 1 1 -281001.82 0"/>
<path id="N" d="M 103881475.00 88582677.00 L 103881475.00 88188975.00 A 338174.95 338174.95 0 0 0 103205139.00 88188975.00 L 103205139.00 88582677.00 A 338174.95 338174.95 0 0 0 103881475.00 88582677.00  zM 103543309.38 88385820.09 m -140500.91 0 a 140500.91 140500.91 0 1 1 281001.82 0a 140500.91 140500.91 0 1 1 -281001.82 0"/>
<path id="N" d="M 90118111.00 88874939.00 L 89803149.00 88874939.00 A 278589.51 278589.51 0 0 0 89803149.00 89432145.00 L 90118111.00 89432145.00 A 278618.66 278618.66 0 0 0 90118111.00 88874939.00  zM 89960632.38 89153536.09 m -140500.91 0 a 140500.91 140500.91 0 1 1 281001.82 0a 140500.91 140500.91 0 1 1 -281001.82 0"/>
<path id="N" d="M 90118111.00 95961555.00 L 89803149.00 95961555.00 A 278589.51 278589.51 0 0 0 89803149.00 96518761.00 L 90118111.00 96518761.00 A 278618.66 278618.66 0 0 0 90118111.00 95961555.00  zM 89960632.38 96240152.09 m -140500.91 0 a 140500.91 140500.91 0 1 1 281001.82 0a 140500.91 140500.91 0 1 1 -281001.82 0"/>
<path id="N" d="M 90118111.00 88087537.00 L 89803149.00 88087537.00 A 278589.51 278589.51 0 0 0 89803149.00 88644743.00 L 90118111.00 88644743.00 A 278618.66 278618.66 0 0 0 90118111.00 88087537.00  zM 89960632.38 88366134.09 m -140500.91 0 a 140500.91 140500.91 0 1 1 281001.82 0a 140500.91 140500.91 0 1 1 -281001.82 0"/>
<path id="N" d="M 90118111.00 87300135.00 L 89803149.00 87300135.00 A 278589.51 278589.51 0 0 0 89803149.00 87857341.00 L 90118111.00 87857341.00 A 278618.66 278618.66 0 0 0 90118111.00 87300135.00  zM 89960632.38 87578732.09 m -140500.91 0 a 140500.91 140500.91 0 1 1 281001.82 0a 140500.91 140500.91 0 1 1 -281001.82 0"/>
<path id="N" d="M 110781082.00 58169293.00 L 110781082.00 57972441.00 A 338174.95 338174.95 0 0 0 110104746.00 57972441.00 L 110104746.00 58169293.00 A 338174.95 338174.95 0 0 0 110781082.00 58169293.00  zM 110442912.59 58070868.48 m -160563.52 0 a 160563.52 160563.52 0 1 1 321127.04 0a 160563.52 160563.52 0 1 1 -321127.04 0"/>
<path id="N" d="M 108605885.00 88582677.00 L 108605885.00 88188975.00 A 338174.95 338174.95 0 1 0 107929549.00 88188975.00 L 107929549.00 88582677.00 A 338174.95 338174.95 0 1 0 108605885.00 88582677.00  zM 108267719.38 88385820.09 m -140500.91 0 a 140500.91 140500.91 0 1 1 281001.82 0a 140500.91 140500.91 0 1 1 -281001.82 0"/>
<path id="N" d="M 104668877.00 66141733.00 L 104668877.00 65748031.00 A 338174.95 338174.95 0 1 0 103992541.00 65748031.00 L 103992541.00 66141733.00 A 338174.95 338174.95 0 1 0 104668877.00 66141733.00  zM 104330711.38 65944876.09 m -140500.91 0 a 140500.91 140500.91 0 1 1 281001.82 0a 140500.91 140500.91 0 1 1 -281001.82 0"/>
<path id="N" d="M 122738187.56 93779528.54 m -358024.36 0 a 358024.36 358024.36 0 1 1 716048.72 0a 358024.36 358024.36 0 1 1 -716048.72 0M 122738190.36 93779529.47 m -200706.53 0 a 200706.53 200706.53 0 1 1 401413.05 0a 200706.53 200706.53 0 1 1 -401413.05 0"/>
<path id="N" d="M 122738187.56 94779528.54 m -358024.36 0 a 358024.36 358024.36 0 1 1 716048.72 0a 358024.36 358024.36 0 1 1 -716048.72 0M 122738190.36 94779529.47 m -200706.53 0 a 200706.53 200706.53 0 1 1 401413.05 0a 200706.53 200706.53 0 1 1 -401413.05 0"/>
<path id="N" d="M 122738194.89 73519698.25 m -358010.18 0 a 358010.18 358010.18 0 1 1 716020.37 0a 358010.18 358010.18 0 1 1 -716020.37 0M 122738190.36 73519686.47 m -200706.53 0 a 200706.53 200706.53 0 1 1 401413.05 0a 200706.53 200706.53 0 1 1 -401413.05 0"/>
<path id="N" d="M 122738194.89 68519698.25 m -358010.18 0 a 358010.18 358010.18 0 1 1 716020.37 0a 358010.18 358010.18 0 1 1 -716020.37 0M 122738190.36 68519686.47 m -200706.53 0 a 200706.53 200706.53 0 1 1 401413.05 0a 200706.53 200706.53 0 1 1 -401413.05 0"/>
<path id="N" d="M 122738187.56 83779528.54 m -358024.36 0 a 358024.36 358024.36 0 1 1 716048.72 0a 358024.36 358024.36 0 1 1 -716048.72 0M 122738190.36 83779529.47 m -200706.53 0 a 200706.53 200706.53 0 1 1 401413.05 0a 200706.53 200706.53 0 1 1 -401413.05 0"/>
<path id="N" d="M 122738187.56 82779528.54 m -358024.36 0 a 358024.36 358024.36 0 1 1 716048.72 0a 358024.36 358024.36 0 1 1 -716048.72 0M 122738190.36 82779529.47 m -200706.53 0 a 200706.53 200706.53 0 1 1 401413.05 0a 200706.53 200706.53 0 1 1 -401413.05 0"/>
<path id="N" d="M 122738194.89 62519698.25 m -358010.18 0 a 358010.18 358010.18 0 1 1 716020.37 0a 358010.18 358010.18 0 1 1 -716020.37 0M 122738190.36 62519686.47 m -200706.53 0 a 200706.53 200706.53 0 1 1 401413.05 0a 200706.53 200706.53 0 1 1 -401413.05 0"/>
<path id="N" d="M 122738194.89 66519698.25 m -358010.18 0 a 358010.18 358010.18 0 1 1 716020.37 0a 358010.18 358010.18 0 1 1 -716020.37 0M 122738190.36 66519686.47 m -200706.53 0 a 200706.53 200706.53 0 1 1 401413.05 0a 200706.53 200706.53 0 1 1 -401413.05 0"/>
<path id="N" d="M 122738194.89 70519698.25 m -358010.18 0 a 358010.18 358010.18 0 1 1 716020.37 0a 358010.18 358010.18 0 1 1 -716020.37 0M 122738190.36 70519686.47 m -200706.53 0 a 200706.53 200706.53 0 1 1 401413.05 0a 200706.53 200706.53 0 1 1 -401413.05 0"/>
<path id="N" d="M 122738194.89 72519698.25 m -358010.18 0 a 358010.18 358010.18 0 1 1 716020.37 0a 358010.18 358010.18 0 1 1 -716020.37 0M 122738190.36 72519686.47 m -200706.53 0 a 200706.53 200706.53 0 1 1 401413.05 0a 200706.53 200706.53 0 1 1 -401413.05 0"/>
<path id="N" d="M 122738194.89 64519698.25 m -358010.18 0 a 358010.18 358010.18 0 1 1 716020.37 0a 358010.18 358010.18 0 1 1 -716020.37 0M 122738190.36 64519686.47 m -200706.53 0 a 200706.53 200706.53 0 1 1 401413.05 0a 200706.53 200706.53 0 1 1 -401413.05 0"/>
<path id="N" d="M 122738194.89 61519698.25 m -358010.18 0 a 358010.18 358010.18 0 1 1 716020.37 0a 358010.18 358010.18 0 1 1 -716020.37 0M 122738190.36 61519686.47 m -200706.53 0 a 200706.53 200706.53 0 1 1 401413.05 0a 200706.53 200706.53 0 1 1 -401413.05 0"/>
<path id="N" d="M 122738187.56 85779528.54 m -358024.36 0 a 358024.36 358024.36 0 1 1 716048.72 0a 358024.36 358024.36 0 1 1 -716048.72 0M 122738190.36 85779529.47 m -200706.53 0 a 200706.53 200706.53 0 1 1 401413.05 0a 200706.53 200706.53 0 1 1 -401413.05 0"/>
<path id="N" d="M 122738187.56 91779528.54 m -358024.36 0 a 358024.36 358024.36 0 1 1 716048.72 0a 358024.36 358024.36 0 1 1 -716048.72 0M 122738190.36 91779529.47 m -200706.53 0 a 200706.53 200706.53 0 1 1 401413.05 0a 200706.53 200706.53 0 1 1 -401413.05 0"/>
<path id="N" d="M 97239602.69 84842516.52 m -368153.59 0 a 368153.59 368153.59 0 1 1 736307.17 0a 368153.59 368153.59 0 1 1 -736307.17 0M 97239607.18 84842516.74 m -224312.26 0 a 224312.26 224312.26 0 1 1 448624.51 0a 224312.26 224312.26 0 1 1 -448624.51 0"/>
<path id="N" d="M 99803149.31 102608266.80 m -323873.92 0 a 323873.92 323873.92 0 1 1 647747.84 0a 323873.92 323873.92 0 1 1 -647747.84 0M 99803151.11 102608264.19 m -184653.81 0 a 184653.81 184653.81 0 1 1 369307.62 0a 184653.81 184653.81 0 1 1 -369307.62 0"/>
<path id="N" d="M 106889763.31 102608266.80 m -323873.92 0 a 323873.92 323873.92 0 1 1 647747.84 0a 323873.92 323873.92 0 1 1 -647747.84 0M 106889765.11 102608264.19 m -184653.81 0 a 184653.81 184653.81 0 1 1 369307.62 0a 184653.81 184653.81 0 1 1 -369307.62 0"/>
<path id="N" d="M 92716535.31 102608266.80 m -323873.92 0 a 323873.92 323873.92 0 1 1 647747.84 0a 323873.92 323873.92 0 1 1 -647747.84 0M 92716537.11 102608264.19 m -184653.81 0 a 184653.81 184653.81 0 1 1 369307.62 0a 184653.81 184653.81 0 1 1 -369307.62 0"/>
<path id="N" d="M 122738187.56 89779528.54 m -358024.36 0 a 358024.36 358024.36 0 1 1 716048.72 0a 358024.36 358024.36 0 1 1 -716048.72 0M 122738190.36 89779529.47 m -200706.53 0 a 200706.53 200706.53 0 1 1 401413.05 0a 200706.53 200706.53 0 1 1 -401413.05 0"/>
<path id="N" d="M 122738187.56 87779528.54 m -358024.36 0 a 358024.36 358024.36 0 1 1 716048.72 0a 358024.36 358024.36 0 1 1 -716048.72 0M 122738190.36 87779529.47 m -200706.53 0 a 200706.53 200706.53 0 1 1 401413.05 0a 200706.53 200706.53 0 1 1 -401413.05 0"/>
<path id="N" d="M 90118111.00 94386752.00 L 89803149.00 94386752.00 A 278596.85 278596.85 0 0 0 89803149.00 94943958.00 L 90118111.00 94943958.00 A 278604.48 278604.48 0 0 0 90118111.00 94386752.00  zM 89960632.38 94665349.09 m -140500.91 0 a 140500.91 140500.91 0 1 1 281001.82 0a 140500.91 140500.91 0 1 1 -281001.82 0"/>
<path id="N" d="M 102306671.00 88582677.00 L 102306671.00 88188975.00 A 338174.95 338174.95 0 0 0 101630335.00 88188975.00 L 101630335.00 88582677.00 A 338174.95 338174.95 0 0 0 102306671.00 88582677.00  zM 101968505.38 88385820.09 m -140500.91 0 a 140500.91 140500.91 0 1 1 281001.82 0a 140500.91 140500.91 0 1 1 -281001.82 0"/>
<path id="N" d="M 90118111.00 92811949.00 L 89803149.00 92811949.00 A 278589.51 278589.51 0 0 0 89803149.00 93369155.00 L 90118111.00 93369155.00 A 278618.66 278618.66 0 0 0 90118111.00 92811949.00  zM 89960632.38 93090546.09 m -140500.91 0 a 140500.91 140500.91 0 1 1 281001.82 0a 140500.91 140500.91 0 1 1 -281001.82 0"/>
<path id="N" d="M 101179602.69 84842516.52 m -368153.59 0 a 368153.59 368153.59 0 1 1 736307.17 0a 368153.59 368153.59 0 1 1 -736307.17 0M 101179607.18 84842516.74 m -224312.26 0 a 224312.26 224312.26 0 1 1 448624.51 0a 224312.26 224312.26 0 1 1 -448624.51 0"/>
<path id="N" d="M 104668876.00 91732284.00 L 104668876.00 91338582.00 A 338174.95 338174.95 0 0 0 103992540.00 91338582.00 L 103992540.00 91732284.00 A 338174.95 338174.95 0 0 0 104668876.00 91732284.00  zM 104330710.38 91535427.09 m -140500.91 0 a 140500.91 140500.91 0 1 1 281001.82 0a 140500.91 140500.91 0 1 1 -281001.82 0"/>
<path id="N" d="M 121549223.00 106643701.00 L 121549223.00 106348425.00 A 387800.22 387800.22 0 0 0 120773611.00 106348425.00 L 120773611.00 106643701.00 A 387800.22 387800.22 0 0 0 121549223.00 106643701.00  zM 121161417.36 106496063.47 m -200706.53 0 a 200706.53 200706.53 0 1 1 401413.05 0a 200706.53 200706.53 0 1 1 -401413.05 0"/>
<path id="N" d="M 117612215.00 106643701.00 L 117612215.00 106348425.00 A 387800.22 387800.22 0 0 0 116836603.00 106348425.00 L 116836603.00 106643701.00 A 387800.22 387800.22 0 0 0 117612215.00 106643701.00  zM 117224409.36 106496063.47 m -200706.53 0 a 200706.53 200706.53 0 1 1 401413.05 0a 200706.53 200706.53 0 1 1 -401413.05 0"/>
<path id="N" d="M 93536988.00 98681103.00 L 93536988.00 98287401.00 A 338174.95 338174.95 0 0 0 92860652.00 98287401.00 L 92860652.00 98681103.00 A 338174.95 338174.95 0 0 0 93536988.00 98681103.00  zM 93198822.38 98484246.09 m -140500.91 0 a 140500.91 140500.91 0 1 1 281001.82 0a 140500.91 140500.91 0 1 1 -281001.82 0"/>
<path id="N" d="M 97473996.00 98681103.00 L 97473996.00 98287401.00 A 338174.95 338174.95 0 0 0 96797660.00 98287401.00 L 96797660.00 98681103.00 A 338174.95 338174.95 0 0 0 97473996.00 98681103.00  zM 97135830.38 98484246.09 m -140500.91 0 a 140500.91 140500.91 0 1 1 281001.82 0a 140500.91 140500.91 0 1 1 -281001.82 0"/>
<path id="N" d="M 113675207.00 106643701.00 L 113675207.00 106348425.00 A 387800.22 387800.22 0 1 0 112899595.00 106348425.00 L 112899595.00 106643701.00 A 387800.22 387800.22 0 1 0 113675207.00 106643701.00  zM 113287401.36 106496063.47 m -200706.53 0 a 200706.53 200706.53 0 1 1 401413.05 0a 200706.53 200706.53 0 1 1 -401413.05 0"/>
<path id="N" d="M 122738187.56 80779528.54 m -358024.36 0 a 358024.36 358024.36 0 1 1 716048.72 0a 358024.36 358024.36 0 1 1 -716048.72 0M 122738190.36 80779529.47 m -200706.53 0 a 200706.53 200706.53 0 1 1 401413.05 0a 200706.53 200706.53 0 1 1 -401413.05 0"/>
<path id="N" d="M 113281081.00 85905512.00 L 113281081.00 85511810.00 A 338174.95 338174.95 0 1 0 112604745.00 85511810.00 L 112604745.00 85905512.00 A 338174.95 338174.95 0 1 0 113281081.00 85905512.00  zM 112942915.38 85708655.09 m -140500.91 0 a 140500.91 140500.91 0 1 1 281001.82 0a 140500.91 140500.91 0 1 1 -281001.82 0"/>
<path id="N" d="M 113281081.00 88809055.00 L 113281081.00 88415353.00 A 338174.95 338174.95 0 1 0 112604745.00 88415353.00 L 112604745.00 88809055.00 A 338174.95 338174.95 0 1 0 113281081.00 88809055.00  zM 112942915.38 88612198.09 m -140500.91 0 a 140500.91 140500.91 0 1 1 281001.82 0a 140500.91 140500.91 0 1 1 -281001.82 0"/>
<path id="N" d="M 93061024.00 75301170.00 L 92765748.00 75301170.00 A 387800.22 387800.22 0 1 0 92765748.00 76076782.00 L 93061024.00 76076782.00 A 387801.02 387801.02 0 0 0 93061024.00 75301170.00  zM 92913386.44 75688974.65 m -180637.35 0 a 180637.35 180637.35 0 1 1 361274.69 0a 180637.35 180637.35 0 1 1 -361274.69 0"/>
<path id="N" d="M 122738194.89 69519698.25 m -358010.18 0 a 358010.18 358010.18 0 1 1 716020.37 0a 358010.18 358010.18 0 1 1 -716020.37 0M 122738190.36 69519686.47 m -200706.53 0 a 200706.53 200706.53 0 1 1 401413.05 0a 200706.53 200706.53 0 1 1 -401413.05 0"/>
<path id="N" d="M 93700787.31 102608266.80 m -323873.92 0 a 323873.92 323873.92 0 1 1 647747.84 0a 323873.92 323873.92 0 1 1 -647747.84 0M 93700789.11 102608264.19 m -184653.81 0 a 184653.81 184653.81 0 1 1 369307.62 0a 184653.81 184653.81 0 1 1 -369307.62 0"/>
<path id="N" d="M 100338168.00 69685040.00 L 100338168.00 69291338.00 A 338174.95 338174.95 0 0 0 99661832.00 69291338.00 L 99661832.00 69685040.00 A 338174.95 338174.95 0 0 0 100338168.00 69685040.00  zM 100000000.36 69488189.47 m -200706.53 0 a 200706.53 200706.53 0 1 1 401413.05 0a 200706.53 200706.53 0 1 1 -401413.05 0"/>
<path id="N" d="M 122738187.56 96779528.54 m -358024.36 0 a 358024.36 358024.36 0 1 1 716048.72 0a 358024.36 358024.36 0 1 1 -716048.72 0M 122738190.36 96779529.47 m -200706.53 0 a 200706.53 200706.53 0 1 1 401413.05 0a 200706.53 200706.53 0 1 1 -401413.05 0"/>
<path id="N" d="M 101574803.31 102608266.80 m -323873.92 0 a 323873.92 323873.92 0 1 1 647747.84 0a 323873.92 323873.92 0 1 1 -647747.84 0M 101574805.11 102608264.19 m -184653.81 0 a 184653.81 184653.81 0 1 1 369307.62 0a 184653.81 184653.81 0 1 1 -369307.62 0"/>
<path id="N" d="M 100289381.00 73179134.00 L 100289381.00 72883858.00 A 387800.22 387800.22 0 0 0 99513769.00 72883858.00 L 99513769.00 73179134.00 A 387800.22 387800.22 0 0 0 100289381.00 73179134.00  zM 99901575.44 73031494.65 m -180637.35 0 a 180637.35 180637.35 0 1 1 361274.69 0a 180637.35 180637.35 0 1 1 -361274.69 0"/>
<path id="N" d="M 100289381.00 77509842.00 L 100289381.00 77214566.00 A 387800.22 387800.22 0 0 0 99513769.00 77214566.00 L 99513769.00 77509842.00 A 387800.22 387800.22 0 0 0 100289381.00 77509842.00  zM 99901575.44 77362202.65 m -180637.35 0 a 180637.35 180637.35 0 1 1 361274.69 0a 180637.35 180637.35 0 1 1 -361274.69 0"/>
<path id="N" d="M 123738187.56 93779528.54 m -358024.36 0 a 358024.36 358024.36 0 1 1 716048.72 0a 358024.36 358024.36 0 1 1 -716048.72 0M 123738190.36 93779529.47 m -200706.53 0 a 200706.53 200706.53 0 1 1 401413.05 0a 200706.53 200706.53 0 1 1 -401413.05 0"/>
<path id="N" d="M 89370078.61 63720471.35 m -338168.19 0 a 338168.19 338168.19 0 1 1 676336.37 0a 338168.19 338168.19 0 1 1 -676336.37 0M 89370076.59 63720473.48 m -160563.52 0 a 160563.52 160563.52 0 1 1 321127.04 0a 160563.52 160563.52 0 1 1 -321127.04 0"/>
<path id="N" d="M 123738194.89 65519698.25 m -358010.18 0 a 358010.18 358010.18 0 1 1 716020.37 0a 358010.18 358010.18 0 1 1 -716020.37 0M 123738190.36 65519686.47 m -200706.53 0 a 200706.53 200706.53 0 1 1 401413.05 0a 200706.53 200706.53 0 1 1 -401413.05 0"/>
<path id="N" d="M 93061024.00 68214556.00 L 92765748.00 68214556.00 A 387800.22 387800.22 0 0 0 92765748.00 68990168.00 L 93061024.00 68990168.00 A 387801.02 387801.02 0 0 0 93061024.00 68214556.00  zM 92913386.44 68602360.65 m -180637.35 0 a 180637.35 180637.35 0 1 1 361274.69 0a 180637.35 180637.35 0 1 1 -361274.69 0"/>
<path id="N" d="M 123738194.89 74519698.25 m -358010.18 0 a 358010.18 358010.18 0 1 1 716020.37 0a 358010.18 358010.18 0 1 1 -716020.37 0M 123738190.36 74519686.47 m -200706.53 0 a 200706.53 200706.53 0 1 1 401413.05 0a 200706.53 200706.53 0 1 1 -401413.05 0"/>
<path id="N" d="M 122738187.56 81779528.54 m -358024.36 0 a 358024.36 358024.36 0 1 1 716048.72 0a 358024.36 358024.36 0 1 1 -716048.72 0M 122738190.36 81779529.47 m -200706.53 0 a 200706.53 200706.53 0 1 1 401413.05 0a 200706.53 200706.53 0 1 1 -401413.05 0"/>
<path id="N" d="M 97188562.00 91732284.00 L 97188562.00 91338582.00 A 338174.95 338174.95 0 0 0 96512226.00 91338582.00 L 96512226.00 91732284.00 A 338174.95 338174.95 0 0 0 97188562.00 91732284.00  zM 96850396.38 91535427.09 m -140500.91 0 a 140500.91 140500.91 0 1 1 281001.82 0a 140500.91 140500.91 0 1 1 -281001.82 0"/>
<path id="N" d="M 123738187.56 88779528.54 m -358024.36 0 a 358024.36 358024.36 0 1 1 716048.72 0a 358024.36 358024.36 0 1 1 -716048.72 0M 123738190.36 88779529.47 m -200706.53 0 a 200706.53 200706.53 0 1 1 401413.05 0a 200706.53 200706.53 0 1 1 -401413.05 0"/>
<path id="N" d="M 103242137.00 77509842.00 L 103242137.00 77214566.00 A 387800.22 387800.22 0 1 0 102466525.00 77214566.00 L 102466525.00 77509842.00 A 387800.22 387800.22 0 0 0 103242137.00 77509842.00  zM 102854331.44 77362202.65 m -180637.35 0 a 180637.35 180637.35 0 1 1 361274.69 0a 180637.35 180637.35 0 1 1 -361274.69 0"/>
<path id="N" d="M 122738187.56 88779528.54 m -358024.36 0 a 358024.36 358024.36 0 1 1 716048.72 0a 358024.36 358024.36 0 1 1 -716048.72 0M 122738190.36 88779529.47 m -200706.53 0 a 200706.53 200706.53 0 1 1 401413.05 0a 200706.53 200706.53 0 1 1 -401413.05 0"/>
<path id="N" d="M 123738187.56 81779528.54 m -358024.36 0 a 358024.36 358024.36 0 1 1 716048.72 0a 358024.36 358024.36 0 1 1 -716048.72 0M 123738190.36 81779529.47 m -200706.53 0 a 200706.53 200706.53 0 1 1 401413.05 0a 200706.53 200706.53 0 1 1 -401413.05 0"/>
<path id="N" d="M 94488189.31 102608266.80 m -323873.92 0 a 323873.92 323873.92 0 1 1 647747.84 0a 323873.92 323873.92 0 1 1 -647747.84 0M 94488191.11 102608264.19 m -184653.81 0 a 184653.81 184653.81 0 1 1 369307.62 0a 184653.81 184653.81 0 1 1 -369307.62 0"/>
<path id="N" d="M 100731869.00 91732284.00 L 100731869.00 91338582.00 A 338174.95 338174.95 0 0 0 100055533.00 91338582.00 L 100055533.00 91732284.00 A 338174.95 338174.95 0 0 0 100731869.00 91732284.00  zM 100393703.38 91535427.09 m -140500.91 0 a 140500.91 140500.91 0 1 1 281001.82 0a 140500.91 140500.91 0 1 1 -281001.82 0"/>
<path id="N" d="M 123738187.56 86779528.54 m -358024.36 0 a 358024.36 358024.36 0 1 1 716048.72 0a 358024.36 358024.36 0 1 1 -716048.72 0M 123738190.36 86779529.47 m -200706.53 0 a 200706.53 200706.53 0 1 1 401413.05 0a 200706.53 200706.53 0 1 1 -401413.05 0"/>
<path id="N" d="M 93061024.00 61127942.00 L 92765748.00 61127942.00 A 387800.22 387800.22 0 0 0 92765748.00 61903554.00 L 93061024.00 61903554.00 A 387801.02 387801.02 0 0 0 93061024.00 61127942.00  zM 92913386.44 61515746.65 m -180637.35 0 a 180637.35 180637.35 0 1 1 361274.69 0a 180637.35 180637.35 0 1 1 -361274.69 0"/>
<path id="N" d="M 123738194.89 72519698.25 m -358010.18 0 a 358010.18 358010.18 0 1 1 716020.37 0a 358010.18 358010.18 0 1 1 -716020.37 0M 123738190.36 72519686.47 m -200706.53 0 a 200706.53 200706.53 0 1 1 401413.05 0a 200706.53 200706.53 0 1 1 -401413.05 0"/>
<path id="N" d="M 89379921.39 106102363.98 m -1029207.19 0 a 1029207.19 1029207.19 0 1 1 2058414.39 0a 1029207.19 1029207.19 0 1 1 -2058414.39 0M 89379916.88 106102395.22 m -652716.78 0 a 652716.78 652716.78 0 1 1 1305433.57 0a 652716.78 652716.78 0 1 1 -1305433.57 0"/>
<path id="N" d="M 124812992.39 106102363.98 m -1029207.19 0 a 1029207.19 1029207.19 0 1 1 2058414.39 0a 1029207.19 1029207.19 0 1 1 -2058414.39 0M 124812987.88 106102395.22 m -652716.78 0 a 652716.78 652716.78 0 1 1 1305433.57 0a 652716.78 652716.78 0 1 1 -1305433.57 0"/>
<path id="N" d="M 124812992.39 54921261.98 m -1029207.19 0 a 1029207.19 1029207.19 0 1 1 2058414.39 0a 1029207.19 1029207.19 0 1 1 -2058414.39 0M 124812987.88 54921293.22 m -652716.78 0 a 652716.78 652716.78 0 1 1 1305433.57 0a 652716.78 652716.78 0 1 1 -1305433.57 0"/>
<path id="N" d="M 89379921.39 54921261.98 m -1029207.19 0 a 1029207.19 1029207.19 0 1 1 2058414.39 0a 1029207.19 1029207.19 0 1 1 -2058414.39 0M 89379916.88 54921293.22 m -652716.78 0 a 652716.78 652716.78 0 1 1 1305433.57 0a 652716.78 652716.78 0 1 1 -1305433.57 0"/>
<path id="N" d="M 96681104.61 103675200.40 m -497004.14 0 a 497004.14 497004.14 0 1 1 994008.27 0a 497004.14 497004.14 0 1 1 -994008.27 0M 96681099.04 103675208.35 m -456651.65 0 a 456651.65 456651.65 0 1 1 913303.29 0a 456651.65 456651.65 0 1 1 -913303.29 0"/>
<path id="N" d="M 91507876.61 103675200.40 m -497004.14 0 a 497004.14 497004.14 0 1 1 994008.27 0a 497004.14 497004.14 0 1 1 -994008.27 0M 91507871.04 103675208.35 m -456651.65 0 a 456651.65 456651.65 0 1 1 913303.29 0a 456651.65 456651.65 0 1 1 -913303.29 0"/>
<path id="N" d="M 105681104.61 103675200.40 m -497004.14 0 a 497004.14 497004.14 0 1 1 994008.27 0a 497004.14 497004.14 0 1 1 -994008.27 0M 105681099.04 103675208.35 m -456651.65 0 a 456651.65 456651.65 0 1 1 913303.29 0a 456651.65 456651.65 0 1 1 -913303.29 0"/>
<path id="N" d="M 103767718.61 103675200.40 m -497004.14 0 a 497004.14 497004.14 0 1 1 994008.27 0a 497004.14 497004.14 0 1 1 -994008.27 0M 103767713.04 103675208.35 m -456651.65 0 a 456651.65 456651.65 0 1 1 913303.29 0a 456651.65 456651.65 0 1 1 -913303.29 0"/>
<path id="N" d="M 98594490.61 103675200.40 m -497004.14 0 a 497004.14 497004.14 0 1 1 994008.27 0a 497004.14 497004.14 0 1 1 -994008.27 0M 98594485.04 103675208.35 m -456651.65 0 a 456651.65 456651.65 0 1 1 913303.29 0a 456651.65 456651.65 0 1 1 -913303.29 0"/>
<path id="N" d="M 110854332.61 103675200.40 m -497004.14 0 a 497004.14 497004.14 0 1 1 994008.27 0a 497004.14 497004.14 0 1 1 -994008.27 0M 110854327.04 103675208.35 m -456651.65 0 a 456651.65 456651.65 0 1 1 913303.29 0a 456651.65 456651.65 0 1 1 -913303.29 0"/>
<path id="N" d="M 89064961.00 98992540.00 L 88671259.00 98992540.00 A 338174.95 338174.95 0 1 0 88671259.00 99668876.00 L 89064961.00 99668876.00 A 338168.19 338168.19 0 1 0 89064961.00 98992540.00  zM 88868110.36 99330708.47 m -200706.53 0 a 200706.53 200706.53 0 1 1 401413.05 0a 200706.53 200706.53 0 1 1 -401413.05 0"/>
<path id="N" d="M 123738194.89 75519698.25 m -358010.18 0 a 358010.18 358010.18 0 1 1 716020.37 0a 358010.18 358010.18 0 1 1 -716020.37 0M 123738190.36 75519686.47 m -200706.53 0 a 200706.53 200706.53 0 1 1 401413.05 0a 200706.53 200706.53 0 1 1 -401413.05 0"/>
<path id="N" d="M 123738194.89 59519698.25 m -358010.18 0 a 358010.18 358010.18 0 1 1 716020.37 0a 358010.18 358010.18 0 1 1 -716020.37 0M 123738190.36 59519686.47 m -200706.53 0 a 200706.53 200706.53 0 1 1 401413.05 0a 200706.53 200706.53 0 1 1 -401413.05 0"/>
<path id="N" d="M 123738187.56 80779528.54 m -358024.36 0 a 358024.36 358024.36 0 1 1 716048.72 0a 358024.36 358024.36 0 1 1 -716048.72 0M 123738190.36 80779529.47 m -200706.53 0 a 200706.53 200706.53 0 1 1 401413.05 0a 200706.53 200706.53 0 1 1 -401413.05 0"/>
<path id="N" d="M 123738187.56 96779528.54 m -358024.36 0 a 358024.36 358024.36 0 1 1 716048.72 0a 358024.36 358024.36 0 1 1 -716048.72 0M 123738190.36 96779529.47 m -200706.53 0 a 200706.53 200706.53 0 1 1 401413.05 0a 200706.53 200706.53 0 1 1 -401413.05 0"/>
<path id="N" d="M 93645255.00 91732284.00 L 93645255.00 91338582.00 A 338174.95 338174.95 0 0 0 92968919.00 91338582.00 L 92968919.00 91732284.00 A 338174.95 338174.95 0 0 0 93645255.00 91732284.00  zM 93307089.38 91535427.09 m -140500.91 0 a 140500.91 140500.91 0 1 1 281001.82 0a 140500.91 140500.91 0 1 1 -281001.82 0"/>
<path id="N" d="M 123738187.56 87779528.54 m -358024.36 0 a 358024.36 358024.36 0 1 1 716048.72 0a 358024.36 358024.36 0 1 1 -716048.72 0M 123738190.36 87779529.47 m -200706.53 0 a 200706.53 200706.53 0 1 1 401413.05 0a 200706.53 200706.53 0 1 1 -401413.05 0"/>
<path id="N" d="M 123738194.89 71519698.25 m -358010.18 0 a 358010.18 358010.18 0 1 1 716020.37 0a 358010.18 358010.18 0 1 1 -716020.37 0M 123738190.36 71519686.47 m -200706.53 0 a 200706.53 200706.53 0 1 1 401413.05 0a 200706.53 200706.53 0 1 1 -401413.05 0"/>
<path id="N" d="M 89370078.61 84980314.35 m -338168.19 0 a 338168.19 338168.19 0 1 1 676336.37 0a 338168.19 338168.19 0 1 1 -676336.37 0M 89370076.59 84980316.48 m -160563.52 0 a 160563.52 160563.52 0 1 1 321127.04 0a 160563.52 160563.52 0 1 1 -321127.04 0"/>
<path id="N" d="M 93061024.00 82387784.00 L 92765748.00 82387784.00 A 387800.22 387800.22 0 1 0 92765748.00 83163396.00 L 93061024.00 83163396.00 A 387801.02 387801.02 0 0 0 93061024.00 82387784.00  zM 92913386.44 82775588.65 m -180637.35 0 a 180637.35 180637.35 0 1 1 361274.69 0a 180637.35 180637.35 0 1 1 -361274.69 0"/>
<path id="N" d="M 122738194.89 74519698.25 m -358010.18 0 a 358010.18 358010.18 0 1 1 716020.37 0a 358010.18 358010.18 0 1 1 -716020.37 0M 122738190.36 74519686.47 m -200706.53 0 a 200706.53 200706.53 0 1 1 401413.05 0a 200706.53 200706.53 0 1 1 -401413.05 0"/>
<path id="N" d="M 90157480.61 63720471.35 m -338168.19 0 a 338168.19 338168.19 0 1 1 676336.37 0a 338168.19 338168.19 0 1 1 -676336.37 0M 90157478.59 63720473.48 m -160563.52 0 a 160563.52 160563.52 0 1 1 321127.04 0a 160563.52 160563.52 0 1 1 -321127.04 0"/>
<path id="N" d="M 123738194.89 64519698.25 m -358010.18 0 a 358010.18 358010.18 0 1 1 716020.37 0a 358010.18 358010.18 0 1 1 -716020.37 0M 123738190.36 64519686.47 m -200706.53 0 a 200706.53 200706.53 0 1 1 401413.05 0a 200706.53 200706.53 0 1 1 -401413.05 0"/>
<path id="N" d="M 89370078.61 77893699.35 m -338168.19 0 a 338168.19 338168.19 0 1 1 676336.37 0a 338168.19 338168.19 0 1 1 -676336.37 0M 89370076.59 77893701.48 m -160563.52 0 a 160563.52 160563.52 0 1 1 321127.04 0a 160563.52 160563.52 0 1 1 -321127.04 0"/>
<path id="N" d="M 123738194.89 69519698.25 m -358010.18 0 a 358010.18 358010.18 0 1 1 716020.37 0a 358010.18 358010.18 0 1 1 -716020.37 0M 123738190.36 69519686.47 m -200706.53 0 a 200706.53 200706.53 0 1 1 401413.05 0a 200706.53 200706.53 0 1 1 -401413.05 0"/>
<path id="N" d="M 90118111.00 93599351.00 L 89803149.00 93599351.00 A 278589.51 278589.51 0 0 0 89803149.00 94156557.00 L 90118111.00 94156557.00 A 278618.66 278618.66 0 0 0 90118111.00 93599351.00  zM 89960632.38 93877948.09 m -140500.91 0 a 140500.91 140500.91 0 1 1 281001.82 0a 140500.91 140500.91 0 1 1 -281001.82 0"/>
<path id="N" d="M 102159602.69 84842516.52 m -368153.59 0 a 368153.59 368153.59 0 1 1 736307.17 0a 368153.59 368153.59 0 1 1 -736307.17 0M 102159607.18 84842516.74 m -224312.26 0 a 224312.26 224312.26 0 1 1 448624.51 0a 224312.26 224312.26 0 1 1 -448624.51 0"/>
<path id="N" d="M 100787401.31 102608266.80 m -323873.92 0 a 323873.92 323873.92 0 1 1 647747.84 0a 323873.92 323873.92 0 1 1 -647747.84 0M 100787403.11 102608264.19 m -184653.81 0 a 184653.81 184653.81 0 1 1 369307.62 0a 184653.81 184653.81 0 1 1 -369307.62 0"/>
<path id="N" d="M 103242137.00 73179134.00 L 103242137.00 72883858.00 A 387800.22 387800.22 0 0 0 102466525.00 72883858.00 L 102466525.00 73179134.00 A 387800.22 387800.22 0 1 0 103242137.00 73179134.00  zM 102854331.44 73031494.65 m -180637.35 0 a 180637.35 180637.35 0 1 1 361274.69 0a 180637.35 180637.35 0 1 1 -361274.69 0"/>
<path id="N" d="M 122738187.56 90779528.54 m -358024.36 0 a 358024.36 358024.36 0 1 1 716048.72 0a 358024.36 358024.36 0 1 1 -716048.72 0M 122738190.36 90779529.47 m -200706.53 0 a 200706.53 200706.53 0 1 1 401413.05 0a 200706.53 200706.53 0 1 1 -401413.05 0"/>
<path id="N" d="M 90157480.61 70807085.35 m -338168.19 0 a 338168.19 338168.19 0 1 1 676336.37 0a 338168.19 338168.19 0 1 1 -676336.37 0M 90157478.59 70807087.48 m -160563.52 0 a 160563.52 160563.52 0 1 1 321127.04 0a 160563.52 160563.52 0 1 1 -321127.04 0"/>
<path id="N" d="M 123738194.89 66519698.25 m -358010.18 0 a 358010.18 358010.18 0 1 1 716020.37 0a 358010.18 358010.18 0 1 1 -716020.37 0M 123738190.36 66519686.47 m -200706.53 0 a 200706.53 200706.53 0 1 1 401413.05 0a 200706.53 200706.53 0 1 1 -401413.05 0"/>
<path id="N" d="M 96686594.00 98681103.00 L 96686594.00 98287401.00 A 338174.95 338174.95 0 0 0 96010258.00 98287401.00 L 96010258.00 98681103.00 A 338174.95 338174.95 0 0 0 96686594.00 98681103.00  zM 96348428.38 98484246.09 m -140500.91 0 a 140500.91 140500.91 0 1 1 281001.82 0a 140500.91 140500.91 0 1 1 -281001.82 0"/>
<path id="N" d="M 123738187.56 84779528.54 m -358024.36 0 a 358024.36 358024.36 0 1 1 716048.72 0a 358024.36 358024.36 0 1 1 -716048.72 0M 123738190.36 84779529.47 m -200706.53 0 a 200706.53 200706.53 0 1 1 401413.05 0a 200706.53 200706.53 0 1 1 -401413.05 0"/>
<path id="N" d="M 101273633.00 73179134.00 L 101273633.00 72883858.00 A 387800.22 387800.22 0 0 0 100498021.00 72883858.00 L 100498021.00 73179134.00 A 387800.22 387800.22 0 0 0 101273633.00 73179134.00  zM 100885827.44 73031494.65 m -180637.35 0 a 180637.35 180637.35 0 1 1 361274.69 0a 180637.35 180637.35 0 1 1 -361274.69 0"/>
<path id="N" d="M 101273633.00 77509842.00 L 101273633.00 77214566.00 A 387800.22 387800.22 0 0 0 100498021.00 77214566.00 L 100498021.00 77509842.00 A 387800.22 387800.22 0 0 0 101273633.00 77509842.00  zM 100885827.44 77362202.65 m -180637.35 0 a 180637.35 180637.35 0 1 1 361274.69 0a 180637.35 180637.35 0 1 1 -361274.69 0"/>
<path id="N" d="M 123738187.56 95779528.54 m -358024.36 0 a 358024.36 358024.36 0 1 1 716048.72 0a 358024.36 358024.36 0 1 1 -716048.72 0M 123738190.36 95779529.47 m -200706.53 0 a 200706.53 200706.53 0 1 1 401413.05 0a 200706.53 200706.53 0 1 1 -401413.05 0"/>
<path id="N" d="M 108661417.31 102608266.80 m -323873.92 0 a 323873.92 323873.92 0 1 1 647747.84 0a 323873.92 323873.92 0 1 1 -647747.84 0M 108661419.11 102608264.19 m -184653.81 0 a 184653.81 184653.81 0 1 1 369307.62 0a 184653.81 184653.81 0 1 1 -369307.62 0"/>
<path id="N" d="M 103094073.00 66141733.00 L 103094073.00 65748031.00 A 338174.95 338174.95 0 1 0 102417737.00 65748031.00 L 102417737.00 66141733.00 A 338174.95 338174.95 0 1 0 103094073.00 66141733.00  zM 102755907.38 65944876.09 m -140500.91 0 a 140500.91 140500.91 0 1 1 281001.82 0a 140500.91 140500.91 0 1 1 -281001.82 0"/>
<path id="N" d="M 123738194.89 60519698.25 m -358010.18 0 a 358010.18 358010.18 0 1 1 716020.37 0a 358010.18 358010.18 0 1 1 -716020.37 0M 123738190.36 60519686.47 m -200706.53 0 a 200706.53 200706.53 0 1 1 401413.05 0a 200706.53 200706.53 0 1 1 -401413.05 0"/>
<path id="N" d="M 93061024.00 76285422.00 L 92765748.00 76285422.00 A 387800.22 387800.22 0 0 0 92765748.00 77061034.00 L 93061024.00 77061034.00 A 387801.02 387801.02 0 0 0 93061024.00 76285422.00  zM 92913386.44 76673226.65 m -180637.35 0 a 180637.35 180637.35 0 1 1 361274.69 0a 180637.35 180637.35 0 1 1 -361274.69 0"/>
<path id="N" d="M 122738194.89 71519698.25 m -358010.18 0 a 358010.18 358010.18 0 1 1 716020.37 0a 358010.18 358010.18 0 1 1 -716020.37 0M 122738190.36 71519686.47 m -200706.53 0 a 200706.53 200706.53 0 1 1 401413.05 0a 200706.53 200706.53 0 1 1 -401413.05 0"/>
<path id="N" d="M 89763774.32 81496055.85 m -633610.47 0 a 633610.47 633610.47 0 1 1 1267220.94 0a 633610.47 633610.47 0 1 1 -1267220.94 0M 89763779.73 81496063.56 m -357386.44 0 a 357386.44 357386.44 0 1 1 714772.87 0a 357386.44 357386.44 0 1 1 -714772.87 0"/>
<path id="N" d="M 89763774.32 60236212.85 m -633610.47 0 a 633610.47 633610.47 0 1 1 1267220.94 0a 633610.47 633610.47 0 1 1 -1267220.94 0M 89763780.70 60236213.23 m -357393.77 0 a 357393.77 357393.77 0 1 1 714787.55 0a 357393.77 357393.77 0 1 1 -714787.55 0"/>
<path id="N" d="M 89763774.32 74409440.85 m -633610.47 0 a 633610.47 633610.47 0 1 1 1267220.94 0a 633610.47 633610.47 0 1 1 -1267220.94 0M 89763780.70 74409441.23 m -357393.77 0 a 357393.77 357393.77 0 1 1 714787.55 0a 357393.77 357393.77 0 1 1 -714787.55 0"/>
<path id="N" d="M 89763774.32 67322826.85 m -633610.47 0 a 633610.47 633610.47 0 1 1 1267220.94 0a 633610.47 633610.47 0 1 1 -1267220.94 0M 89763780.70 67322827.23 m -357393.77 0 a 357393.77 357393.77 0 1 1 714787.55 0a 357393.77 357393.77 0 1 1 -714787.55 0"/>
<path id="N" d="M 108812578.00 58169293.00 L 108812578.00 57972441.00 A 338174.95 338174.95 0 0 0 108136242.00 57972441.00 L 108136242.00 58169293.00 A 338174.95 338174.95 0 0 0 108812578.00 58169293.00  zM 108474408.59 58070868.48 m -160563.52 0 a 160563.52 160563.52 0 1 1 321127.04 0a 160563.52 160563.52 0 1 1 -321127.04 0"/>
<path id="N" d="M 116628977.00 57918269.00 L 115748977.00 57918269.00 L 115748977.00 58798269.00 L 116628977.00 58798269.00 L 116628977.00 57918269.00  zM 116188974.80 58358275.26 m -272323.74 0 a 272323.74 272323.74 0 1 1 544647.48 0a 272323.74 272323.74 0 1 1 -544647.48 0"/>
<path id="N" d="M 103514606.00 84477519.00 L 102784606.00 84477519.00 L 102784606.00 85207519.00 L 103514606.00 85207519.00 L 103514606.00 84477519.00  zM 103149607.18 84842516.74 m -224312.26 0 a 224312.26 224312.26 0 1 1 448624.51 0a 224312.26 224312.26 0 1 1 -448624.51 0"/>
<path id="N" d="M 114458666.89 100196863.25 m -358010.18 0 a 358010.18 358010.18 0 1 1 716020.37 0a 358010.18 358010.18 0 1 1 -716020.37 0M 114458660.59 100196852.48 m -160563.52 0 a 160563.52 160563.52 0 1 1 321127.04 0a 160563.52 160563.52 0 1 1 -321127.04 0"/>
<path id="N" d="M 93061024.00 83372036.00 L 92765748.00 83372036.00 A 387800.22 387800.22 0 1 0 92765748.00 84147648.00 L 93061024.00 84147648.00 A 387801.02 387801.02 0 0 0 93061024.00 83372036.00  zM 92913386.44 83759840.65 m -180637.35 0 a 180637.35 180637.35 0 1 1 361274.69 0a 180637.35 180637.35 0 1 1 -361274.69 0"/>
<path id="N" d="M 122738194.89 75519698.25 m -358010.18 0 a 358010.18 358010.18 0 1 1 716020.37 0a 358010.18 358010.18 0 1 1 -716020.37 0M 122738190.36 75519686.47 m -200706.53 0 a 200706.53 200706.53 0 1 1 401413.05 0a 200706.53 200706.53 0 1 1 -401413.05 0"/>
<path id="N" d="M 122738187.56 92779528.54 m -358024.36 0 a 358024.36 358024.36 0 1 1 716048.72 0a 358024.36 358024.36 0 1 1 -716048.72 0M 122738190.36 92779529.47 m -200706.53 0 a 200706.53 200706.53 0 1 1 401413.05 0a 200706.53 200706.53 0 1 1 -401413.05 0"/>
<path id="N" d="M 97188561.00 61811024.00 L 97188561.00 61417322.00 A 338174.95 338174.95 0 1 0 96512225.00 61417322.00 L 96512225.00 61811024.00 A 338174.95 338174.95 0 1 0 97188561.00 61811024.00  zM 96850395.38 61614167.09 m -140500.91 0 a 140500.91 140500.91 0 1 1 281001.82 0a 140500.91 140500.91 0 1 1 -281001.82 0"/>
<path id="N" d="M 123738194.89 63519698.25 m -358010.18 0 a 358010.18 358010.18 0 1 1 716020.37 0a 358010.18 358010.18 0 1 1 -716020.37 0M 123738190.36 63519686.47 m -200706.53 0 a 200706.53 200706.53 0 1 1 401413.05 0a 200706.53 200706.53 0 1 1 -401413.05 0"/>
<path id="N" d="M 89370078.61 70807085.35 m -338168.19 0 a 338168.19 338168.19 0 1 1 676336.37 0a 338168.19 338168.19 0 1 1 -676336.37 0M 89370076.59 70807087.48 m -160563.52 0 a 160563.52 160563.52 0 1 1 321127.04 0a 160563.52 160563.52 0 1 1 -321127.04 0"/>
<path id="N" d="M 123738194.89 67519698.25 m -358010.18 0 a 358010.18 358010.18 0 1 1 716020.37 0a 358010.18 358010.18 0 1 1 -716020.37 0M 123738190.36 67519686.47 m -200706.53 0 a 200706.53 200706.53 0 1 1 401413.05 0a 200706.53 200706.53 0 1 1 -401413.05 0"/>
<path id="N" d="M 90157480.61 84980314.35 m -338168.19 0 a 338168.19 338168.19 0 1 1 676336.37 0a 338168.19 338168.19 0 1 1 -676336.37 0M 90157478.59 84980316.48 m -160563.52 0 a 160563.52 160563.52 0 1 1 321127.04 0a 160563.52 160563.52 0 1 1 -321127.04 0"/>
<path id="N" d="M 123738194.89 70519698.25 m -358010.18 0 a 358010.18 358010.18 0 1 1 716020.37 0a 358010.18 358010.18 0 1 1 -716020.37 0M 123738190.36 70519686.47 m -200706.53 0 a 200706.53 200706.53 0 1 1 401413.05 0a 200706.53 200706.53 0 1 1 -401413.05 0"/>
<path id="N" d="M 97582262.00 81102362.00 L 97582262.00 80708660.00 A 338174.95 338174.95 0 0 0 96905926.00 80708660.00 L 96905926.00 81102362.00 A 338174.95 338174.95 0 0 0 97582262.00 81102362.00  zM 97244094.36 80905511.47 m -200706.53 0 a 200706.53 200706.53 0 1 1 401413.05 0a 200706.53 200706.53 0 1 1 -401413.05 0"/>
<path id="N" d="M 122738194.89 63519698.25 m -358010.18 0 a 358010.18 358010.18 0 1 1 716020.37 0a 358010.18 358010.18 0 1 1 -716020.37 0M 122738190.36 63519686.47 m -200706.53 0 a 200706.53 200706.53 0 1 1 401413.05 0a 200706.53 200706.53 0 1 1 -401413.05 0"/>
<path id="N" d="M 98369664.00 81102362.00 L 98369664.00 80708660.00 A 338174.95 338174.95 0 0 0 97693328.00 80708660.00 L 97693328.00 81102362.00 A 338174.95 338174.95 0 0 0 98369664.00 81102362.00  zM 98031496.36 80905511.47 m -200706.53 0 a 200706.53 200706.53 0 1 1 401413.05 0a 200706.53 200706.53 0 1 1 -401413.05 0"/>
<path id="N" d="M 122738194.89 65519698.25 m -358010.18 0 a 358010.18 358010.18 0 1 1 716020.37 0a 358010.18 358010.18 0 1 1 -716020.37 0M 122738190.36 65519686.47 m -200706.53 0 a 200706.53 200706.53 0 1 1 401413.05 0a 200706.53 200706.53 0 1 1 -401413.05 0"/>
<path id="N" d="M 114068483.00 85905512.00 L 114068483.00 85511810.00 A 338174.95 338174.95 0 0 0 113392147.00 85511810.00 L 113392147.00 85905512.00 A 338174.95 338174.95 0 0 0 114068483.00 85905512.00  zM 113730317.38 85708655.09 m -140500.91 0 a 140500.91 140500.91 0 1 1 281001.82 0a 140500.91 140500.91 0 1 1 -281001.82 0"/>
<path id="N" d="M 114068483.00 88809055.00 L 114068483.00 88415353.00 A 338174.95 338174.95 0 0 0 113392147.00 88415353.00 L 113392147.00 88809055.00 A 338174.95 338174.95 0 0 0 114068483.00 88809055.00  zM 113730317.38 88612198.09 m -140500.91 0 a 140500.91 140500.91 0 1 1 281001.82 0a 140500.91 140500.91 0 1 1 -281001.82 0"/>
<path id="N" d="M 90118111.00 95174153.00 L 89803149.00 95174153.00 A 278589.51 278589.51 0 0 0 89803149.00 95731359.00 L 90118111.00 95731359.00 A 278618.66 278618.66 0 0 0 90118111.00 95174153.00  zM 89960632.38 95452750.09 m -140500.91 0 a 140500.91 140500.91 0 1 1 281001.82 0a 140500.91 140500.91 0 1 1 -281001.82 0"/>
<path id="N" d="M 107031081.00 88582677.00 L 107031081.00 88188975.00 A 338174.95 338174.95 0 1 0 106354745.00 88188975.00 L 106354745.00 88582677.00 A 338174.95 338174.95 0 1 0 107031081.00 88582677.00  zM 106692915.38 88385820.09 m -140500.91 0 a 140500.91 140500.91 0 1 1 281001.82 0a 140500.91 140500.91 0 1 1 -281001.82 0"/>
<path id="N" d="M 90118111.00 91237145.00 L 89803149.00 91237145.00 A 278589.51 278589.51 0 0 0 89803149.00 91794351.00 L 90118111.00 91794351.00 A 278618.66 278618.66 0 0 0 90118111.00 91237145.00  zM 89960632.38 91515742.09 m -140500.91 0 a 140500.91 140500.91 0 1 1 281001.82 0a 140500.91 140500.91 0 1 1 -281001.82 0"/>
<path id="N" d="M 99209602.69 84842516.52 m -368153.59 0 a 368153.59 368153.59 0 1 1 736307.17 0a 368153.59 368153.59 0 1 1 -736307.17 0M 99209607.18 84842516.74 m -224312.26 0 a 224312.26 224312.26 0 1 1 448624.51 0a 224312.26 224312.26 0 1 1 -448624.51 0"/>
<path id="N" d="M 123738187.56 89779528.54 m -358024.36 0 a 358024.36 358024.36 0 1 1 716048.72 0a 358024.36 358024.36 0 1 1 -716048.72 0M 123738190.36 89779529.47 m -200706.53 0 a 200706.53 200706.53 0 1 1 401413.05 0a 200706.53 200706.53 0 1 1 -401413.05 0"/>
<path id="N" d="M 122738194.89 59519698.25 m -358010.18 0 a 358010.18 358010.18 0 1 1 716020.37 0a 358010.18 358010.18 0 1 1 -716020.37 0M 122738190.36 59519686.47 m -200706.53 0 a 200706.53 200706.53 0 1 1 401413.05 0a 200706.53 200706.53 0 1 1 -401413.05 0"/>
<path id="N" d="M 105456278.00 91732284.00 L 105456278.00 91338582.00 A 338174.95 338174.95 0 1 0 104779942.00 91338582.00 L 104779942.00 91732284.00 A 338174.95 338174.95 0 1 0 105456278.00 91732284.00  zM 105118112.38 91535427.09 m -140500.91 0 a 140500.91 140500.91 0 1 1 281001.82 0a 140500.91 140500.91 0 1 1 -281001.82 0"/>
<path id="N" d="M 123738187.56 92779528.54 m -358024.36 0 a 358024.36 358024.36 0 1 1 716048.72 0a 358024.36 358024.36 0 1 1 -716048.72 0M 123738190.36 92779529.47 m -200706.53 0 a 200706.53 200706.53 0 1 1 401413.05 0a 200706.53 200706.53 0 1 1 -401413.05 0"/>
<path id="N" d="M 97188561.00 66141733.00 L 97188561.00 65748031.00 A 338174.95 338174.95 0 1 0 96512225.00 65748031.00 L 96512225.00 66141733.00 A 338174.95 338174.95 0 1 0 97188561.00 66141733.00  zM 96850395.38 65944876.09 m -140500.91 0 a 140500.91 140500.91 0 1 1 281001.82 0a 140500.91 140500.91 0 1 1 -281001.82 0"/>
<path id="N" d="M 123738194.89 61519698.25 m -358010.18 0 a 358010.18 358010.18 0 1 1 716020.37 0a 358010.18 358010.18 0 1 1 -716020.37 0M 123738190.36 61519686.47 m -200706.53 0 a 200706.53 200706.53 0 1 1 401413.05 0a 200706.53 200706.53 0 1 1 -401413.05 0"/>
<path id="N" d="M 123738187.56 90779528.54 m -358024.36 0 a 358024.36 358024.36 0 1 1 716048.72 0a 358024.36 358024.36 0 1 1 -716048.72 0M 123738190.36 90779529.47 m -200706.53 0 a 200706.53 200706.53 0 1 1 401413.05 0a 200706.53 200706.53 0 1 1 -401413.05 0"/>
<path id="N" d="M 122738194.89 60519698.25 m -358010.18 0 a 358010.18 358010.18 0 1 1 716020.37 0a 358010.18 358010.18 0 1 1 -716020.37 0M 122738190.36 60519686.47 m -200706.53 0 a 200706.53 200706.53 0 1 1 401413.05 0a 200706.53 200706.53 0 1 1 -401413.05 0"/>
<path id="N" d="M 123738187.56 85779528.54 m -358024.36 0 a 358024.36 358024.36 0 1 1 716048.72 0a 358024.36 358024.36 0 1 1 -716048.72 0M 123738190.36 85779529.47 m -200706.53 0 a 200706.53 200706.53 0 1 1 401413.05 0a 200706.53 200706.53 0 1 1 -401413.05 0"/>
<path id="N" d="M 93061024.00 62112194.00 L 92765748.00 62112194.00 A 387800.22 387800.22 0 0 0 92765748.00 62887806.00 L 93061024.00 62887806.00 A 387801.02 387801.02 0 0 0 93061024.00 62112194.00  zM 92913386.44 62499998.65 m -180637.35 0 a 180637.35 180637.35 0 1 1 361274.69 0a 180637.35 180637.35 0 1 1 -361274.69 0"/>
<path id="N" d="M 123738194.89 73519698.25 m -358010.18 0 a 358010.18 358010.18 0 1 1 716020.37 0a 358010.18 358010.18 0 1 1 -716020.37 0M 123738190.36 73519686.47 m -200706.53 0 a 200706.53 200706.53 0 1 1 401413.05 0a 200706.53 200706.53 0 1 1 -401413.05 0"/>
<path id="N" d="M 93061024.00 69198808.00 L 92765748.00 69198808.00 A 387800.22 387800.22 0 0 0 92765748.00 69974420.00 L 93061024.00 69974420.00 A 387801.02 387801.02 0 0 0 93061024.00 69198808.00  zM 92913386.44 69586612.65 m -180637.35 0 a 180637.35 180637.35 0 1 1 361274.69 0a 180637.35 180637.35 0 1 1 -361274.69 0"/>
<path id="N" d="M 122738194.89 67519698.25 m -358010.18 0 a 358010.18 358010.18 0 1 1 716020.37 0a 358010.18 358010.18 0 1 1 -716020.37 0M 122738190.36 67519686.47 m -200706.53 0 a 200706.53 200706.53 0 1 1 401413.05 0a 200706.53 200706.53 0 1 1 -401413.05 0"/>
<path id="N" d="M 92734939.00 88572205.00 L 92734939.00 88178503.00 A 338174.95 338174.95 0 0 0 92058603.00 88178503.00 L 92058603.00 88572205.00 A 338174.95 338174.95 0 0 0 92734939.00 88572205.00  zM 92396773.38 88375348.09 m -140500.91 0 a 140500.91 140500.91 0 1 1 281001.82 0a 140500.91 140500.91 0 1 1 -281001.82 0"/>
<path id="N" d="M 90118111.00 90449743.00 L 89803149.00 90449743.00 A 278589.51 278589.51 0 0 0 89803149.00 91006949.00 L 90118111.00 91006949.00 A 278618.66 278618.66 0 0 0 90118111.00 90449743.00  zM 89960632.38 90728340.09 m -140500.91 0 a 140500.91 140500.91 0 1 1 281001.82 0a 140500.91 140500.91 0 1 1 -281001.82 0"/>
<path id="N" d="M 101125570.00 69685040.00 L 101125570.00 69291338.00 A 338174.95 338174.95 0 0 0 100449234.00 69291338.00 L 100449234.00 69685040.00 A 338174.95 338174.95 0 0 0 101125570.00 69685040.00  zM 100787402.36 69488189.47 m -200706.53 0 a 200706.53 200706.53 0 1 1 401413.05 0a 200706.53 200706.53 0 1 1 -401413.05 0"/>
<path id="N" d="M 122738187.56 95779528.54 m -358024.36 0 a 358024.36 358024.36 0 1 1 716048.72 0a 358024.36 358024.36 0 1 1 -716048.72 0M 122738190.36 95779529.47 m -200706.53 0 a 200706.53 200706.53 0 1 1 401413.05 0a 200706.53 200706.53 0 1 1 -401413.05 0"/>
<path id="N" d="M 102257885.00 73179134.00 L 102257885.00 72883858.00 A 387800.22 387800.22 0 0 0 101482273.00 72883858.00 L 101482273.00 73179134.00 A 387800.22 387800.22 0 0 0 102257885.00 73179134.00  zM 101870079.44 73031494.65 m -180637.35 0 a 180637.35 180637.35 0 1 1 361274.69 0a 180637.35 180637.35 0 1 1 -361274.69 0"/>
<path id="N" d="M 102257885.00 77509842.00 L 102257885.00 77214566.00 A 387800.22 387800.22 0 0 0 101482273.00 77214566.00 L 101482273.00 77509842.00 A 387800.22 387800.22 0 0 0 102257885.00 77509842.00  zM 101870079.44 77362202.65 m -180637.35 0 a 180637.35 180637.35 0 1 1 361274.69 0a 180637.35 180637.35 0 1 1 -361274.69 0"/>
<path id="N" d="M 123738187.56 94779528.54 m -358024.36 0 a 358024.36 358024.36 0 1 1 716048.72 0a 358024.36 358024.36 0 1 1 -716048.72 0M 123738190.36 94779529.47 m -200706.53 0 a 200706.53 200706.53 0 1 1 401413.05 0a 200706.53 200706.53 0 1 1 -401413.05 0"/>
<path id="N" d="M 89064961.00 100567344.00 L 88671259.00 100567344.00 A 338174.95 338174.95 0 1 0 88671259.00 101243680.00 L 89064961.00 101243680.00 A 338168.19 338168.19 0 1 0 89064961.00 100567344.00  zM 88868110.36 100905512.47 m -200706.53 0 a 200706.53 200706.53 0 1 1 401413.05 0a 200706.53 200706.53 0 1 1 -401413.05 0"/>
<path id="N" d="M 102700372.00 81102362.00 L 102700372.00 80708660.00 A 338174.95 338174.95 0 0 0 102024036.00 80708660.00 L 102024036.00 81102362.00 A 338174.95 338174.95 0 1 0 102700372.00 81102362.00  zM 102362204.36 80905511.47 m -200706.53 0 a 200706.53 200706.53 0 1 1 401413.05 0a 200706.53 200706.53 0 1 1 -401413.05 0"/>
<path id="N" d="M 122738187.56 84779528.54 m -358024.36 0 a 358024.36 358024.36 0 1 1 716048.72 0a 358024.36 358024.36 0 1 1 -716048.72 0M 122738190.36 84779529.47 m -200706.53 0 a 200706.53 200706.53 0 1 1 401413.05 0a 200706.53 200706.53 0 1 1 -401413.05 0"/>
<path id="N" d="M 107874015.31 102608266.80 m -323873.92 0 a 323873.92 323873.92 0 1 1 647747.84 0a 323873.92 323873.92 0 1 1 -647747.84 0M 107874017.11 102608264.19 m -184653.81 0 a 184653.81 184653.81 0 1 1 369307.62 0a 184653.81 184653.81 0 1 1 -369307.62 0"/>
<path id="N" d="M 92749586.00 98681103.00 L 92749586.00 98287401.00 A 338174.95 338174.95 0 0 0 92073250.00 98287401.00 L 92073250.00 98681103.00 A 338174.95 338174.95 0 0 0 92749586.00 98681103.00  zM 92411420.38 98484246.09 m -140500.91 0 a 140500.91 140500.91 0 1 1 281001.82 0a 140500.91 140500.91 0 1 1 -281001.82 0"/>
</g>
</svg>
