<svg width="99.99999812mm" height="139.9999994mm" viewBox="0 0 39370078 55118110"  version="1.1" xmlns="http://www.w3.org/2000/svg" xmlns:xlink="http://www.w3.org/1999/xlink">
<desc>
Origin 86614173 52165354 Bound 87411417 52952756 39370078 55118110
</desc>
<g fill-rule="evenodd" fill="rgb(192, 212, 212)" stroke="black" stroke-width="1" transform="translate(0, 55118110) scale(1, -1) translate(-87411417, -52952756)">
<path id="N" d="M 95915353.32 98917321.32 m -107749.89 0 a 107749.89 107749.89 0 1 1 215499.78 0a 107749.89 107749.89 0 1 1 -215499.78 0"/>
<path id="N" d="M 91978345.32 98917321.32 m -107749.89 0 a 107749.89 107749.89 0 1 1 215499.78 0a 107749.89 107749.89 0 1 1 -215499.78 0"/>
<path id="N" d="M 88435037.32 98897635.32 m -107749.89 0 a 107749.89 107749.89 0 1 1 215499.78 0a 107749.89 107749.89 0 1 1 -215499.78 0"/>
<path id="N" d="M 103897635.32 91968502.32 m -107749.89 0 a 107749.89 107749.89 0 1 1 215499.78 0a 107749.89 107749.89 0 1 1 -215499.78 0"/>
<path id="N" d="M 99173226.32 91968502.32 m -107749.89 0 a 107749.89 107749.89 0 1 1 215499.78 0a 107749.89 107749.89 0 1 1 -215499.78 0"/>
<path id="N" d="M 95629919.32 91968502.32 m -107749.89 0 a 107749.89 107749.89 0 1 1 215499.78 0a 107749.89 107749.89 0 1 1 -215499.78 0"/>
<path id="N" d="M 92086612.32 91968502.32 m -107749.89 0 a 107749.89 107749.89 0 1 1 215499.78 0a 107749.89 107749.89 0 1 1 -215499.78 0"/>
<path id="N" d="M 112509840.32 89045273.32 m -107749.89 0 a 107749.89 107749.89 0 1 1 215499.78 0a 107749.89 107749.89 0 1 1 -215499.78 0"/>
<path id="N" d="M 106259840.32 88818895.32 m -107749.89 0 a 107749.89 107749.89 0 1 1 215499.78 0a 107749.89 107749.89 0 1 1 -215499.78 0"/>
<path id="N" d="M 101535430.32 88818895.32 m -107749.89 0 a 107749.89 107749.89 0 1 1 215499.78 0a 107749.89 107749.89 0 1 1 -215499.78 0"/>
<path id="N" d="M 96811021.32 88818895.32 m -107749.89 0 a 107749.89 107749.89 0 1 1 215499.78 0a 107749.89 107749.89 0 1 1 -215499.78 0"/>
<path id="N" d="M 91963698.32 88808423.32 m -107749.89 0 a 107749.89 107749.89 0 1 1 215499.78 0a 107749.89 107749.89 0 1 1 -215499.78 0"/>
<path id="N" d="M 89527557.32 87145665.32 m -107749.89 0 a 107749.89 107749.89 0 1 1 215499.78 0a 107749.89 107749.89 0 1 1 -215499.78 0"/>
<path id="N" d="M 112509840.32 86141730.32 m -107749.89 0 a 107749.89 107749.89 0 1 1 215499.78 0a 107749.89 107749.89 0 1 1 -215499.78 0"/>
<path id="N" d="M 101141729.32 81338580.32 m -107749.89 0 a 107749.89 107749.89 0 1 1 215499.78 0a 107749.89 107749.89 0 1 1 -215499.78 0"/>
<path id="N" d="M 96023619.32 81338580.32 m -107749.89 0 a 107749.89 107749.89 0 1 1 215499.78 0a 107749.89 107749.89 0 1 1 -215499.78 0"/>
<path id="N" d="M 98779525.32 69921258.32 m -107749.89 0 a 107749.89 107749.89 0 1 1 215499.78 0a 107749.89 107749.89 0 1 1 -215499.78 0"/>
<path id="N" d="M 102322832.32 66377951.32 m -107749.89 0 a 107749.89 107749.89 0 1 1 215499.78 0a 107749.89 107749.89 0 1 1 -215499.78 0"/>
<path id="N" d="M 96417320.32 66377951.32 m -107749.89 0 a 107749.89 107749.89 0 1 1 215499.78 0a 107749.89 107749.89 0 1 1 -215499.78 0"/>
<path id="N" d="M 102322832.32 62047242.32 m -107749.89 0 a 107749.89 107749.89 0 1 1 215499.78 0a 107749.89 107749.89 0 1 1 -215499.78 0"/>
<path id="N" d="M 96417320.32 62047242.32 m -107749.89 0 a 107749.89 107749.89 0 1 1 215499.78 0a 107749.89 107749.89 0 1 1 -215499.78 0"/>
</g>
</svg>
