**ABCDEFGHIJKLMNOPQRSTUVWXYZabcdefghijklmnopqrstuvwxyz**************************
**PARASOLID !"#$%&'()*+,-./:;<=>?@[\]^_`{|}~0123456789**************************
**PART1;
MC=x86;
MC_MODEL=Intel64 Family 6 Model 158 Stepping 12, GenuineIntel;
MC_ID=unknown;
OS=Windows_NT;
OS_RELEASE=unknown;
FRU=CAD Exchanger 3.4.0 (cadexchanger.com);
APPL=unknown;
SITE=unknown;
USER=unknown;
FORMAT=text;
GUISE=transmit;
KEY=CAP_0603_1608;
FILE=CAP_0603_1608.x_t;
DATE=Thu Oct 24 13:58:13 2019;
**PART2;
SCH=SCH_1200000_12006;
USFLD_SIZE=0;
**PART3;
**END_OF_HEADER*****************************************************************
T51 : TRANSMIT FILE created by modeller version 120000017 SCH_1200000_120060 12
 1 516 0 2 0 0 0 0 1000 1e-008 0 0 0 1 0 1 1 38 6 12 10 35 11 9 70 2 0 1 0 0 4 1
 20 0 3 3 1 T74 20 3 1 0 4 0 0 0 0 0 0 0 0 0 0 0 0 0 0 0 0 0 0 0 81 1 4 7 32 5 0
 0 41 0 34 14 5 5 4 1e-008 39 0 7 38 6 -0 0 39 0 36 50 6 6 0 5 40 0 0 +0.0008000
812799989945 -0.0003999212954950759 0.0008119999825154441 0 0.9999999999999991 4
.371138842226317e-008 0 -4.371138842226317e-008 0.9999999999999991 15 7 8 0 8 5
 0 17 8 0 7 16 28 9 13 11 0 645 -18 9 9 0 8 0 14 10 ?1 29 10 10 0 9 15 0 -0.0004
999187200010056 -0.0003999212605259651 1.199998251544468e-005 16 11 11 0 ?13 0 1
9 12 0 0 1 30 12 12 0 11 20 0 0 +-0.0004999187200010056 -0.0003999212954950759 0
.000811999982515444 0 -4.371138842226317e-008 0.9999999999999991 17 13 0 739 740
 707 14 8 11 0 28 +18 14 13 0 13 9 17 15 ?1 29 15 14 0 14 18 10 -0.0004999187200
010056 -0.0003999212954950759 0.000811999982515444 17 16 0 7 22 8 17 21 19 0 27
 -18 17 15 0 16 14 23 18 ?1 29 18 16 0 17 24 15 0.0005000812799989945 -0.0003999
212605259651 1.199998251544468e-005 16 19 17 0 ?21 11 25 20 0 0 1 30 20 18 0 19
 26 12 0 +0.0008000812799989945 -0.0003999212605259651 1.199998251544468e-005 -1
 0 0 17 21 0 43 44 56 9 16 19 0 707 +17 22 0 7 28 16 23 27 25 0 31 -18 23 19 0 4
08 17 45 24 ?1 29 24 20 0 23 46 18 0.0005000812799989945 -0.0003999212954950759
 0.000811999982515444 16 25 21 0 ?27 19 29 26 0 0 1 30 26 22 0 25 30 20 0 +0.000
5000812799989945 -0.0003999212954950759 0.000811999982515444 0 4.371138842226317
e-008 -0.9999999999999991 17 27 0 407 375 408 17 22 25 0 372 +17 28 0 7 8 22 14
 31 29 0 86 +16 29 23 0 ?28 25 47 30 0 0 1 30 30 24 0 29 48 26 0 +0.000800081279
9989945 -0.0003999212954950759 0.000811999982515444 -1 0 0 17 31 0 85 90 86 23 2
8 29 0 93 -80 1 32 0 33 8001 0 0 0 0 3 5 0 0 FFFFTFTFFFFFFF2 79 15 33 SDL/TYSA_C
OLOUR83 3 34 0.5568627715110779 0.4941176474094391 0.2862745225429535 19 35 1 0
 1 37 0 36 V13 36 2 0 1 0 0 0 0 35 5 19 37 3 0 1 0 35 38 S13 38 4 0 1 0 5 0 0 37
 0 14 39 25 41 1e-008 60 5 43 38 40 -0 0 60 5 36 50 40 26 0 39 61 6 0 +0.0008000
812799989945 -0.0003999212605259651 1.199998251544468e-005 0 -4.37113882867379e-
008 0.9999999999999991 0 -0.9999999999999991 -4.37113882867379e-008 81 1 41 27 3
2 39 0 0 62 4 42 83 3 42 0.5568627715110779 0.4941176474094391 0.286274522542953
5 15 43 28 0 44 39 0 17 44 0 43 50 21 45 49 47 0 55 -18 45 29 0 646 23 51 46 ?1
 29 46 30 0 45 52 24 -0.0004999187200010056 0.000400078739474034 1.2000017484555
3e-005 16 47 31 0 ?49 29 53 48 0 0 1 30 48 32 0 47 54 30 0 +-0.00049991872000100
56 -0.0003999212605259651 1.199998251544468e-005 0 -0.9999999999999991 -4.371138
82867379e-008 17 49 0 641 642 646 9 44 47 0 0 +17 50 0 43 56 44 51 55 53 0 59 -1
8 51 33 0 335 45 66 52 ?1 29 52 34 0 51 67 46 0.0005000812799989945 0.0004000787
39474034 1.20000174845553e-005 16 53 35 0 ?55 47 57 54 0 0 1 30 54 36 0 53 58 48
 0 +0.0008000812799989945 0.000400078739474034 1.20000174845553e-005 -1 0 0 17 5
5 0 64 65 77 45 50 53 0 0 +17 56 0 43 21 50 17 59 57 0 0 -16 57 37 0 ?59 53 68 5
8 0 0 1 30 58 38 0 57 69 54 0 +0.0005000812799989945 -0.0003999212605259651 1.19
9998251544468e-005 0 0.9999999999999991 4.37113882867379e-008 17 59 0 331 332 33
6 51 56 57 0 348 +14 60 39 62 1e-008 81 39 64 38 61 -0 0 81 39 36 50 61 40 0 60
 82 40 0 +0.0008000812799989945 0.000400078739474034 1.20000174845553e-005 0 -0.
9999999999999991 -4.371138815121262e-008 0 4.371138815121262e-008 -0.99999999999
99991 81 1 62 41 32 60 0 0 83 41 63 83 3 63 0.5568627715110779 0.494117647409439
1 0.2862745225429535 15 64 42 0 65 60 0 17 65 0 64 71 55 66 70 68 0 89 -18 66 43
 0 65 51 72 67 ?1 29 67 44 0 66 73 52 -0.0004999187200010056 0.00040007870450492
35 0.0008120000174845547 16 68 45 0 ?70 57 74 69 0 0 1 30 69 46 0 68 75 58 0 +-0
.0004999187200010056 0.000400078739474034 1.20000174845553e-005 0 4.371138815121
262e-008 -0.9999999999999991 17 70 0 730 698 731 45 65 68 0 44 +17 71 0 64 77 65
 72 76 74 0 90 -18 72 47 0 420 66 100 73 ?1 29 73 48 0 72 101 67 0.0005000812799
989945 0.0004000787045049235 0.0008120000174845547 16 74 49 0 ?76 68 78 75 0 0 1
 30 75 50 0 74 79 69 0 +0.0008000812799989945 0.0004000787045049235 0.0008120000
174845547 -1 0 0 17 76 0 85 86 90 66 71 74 0 731 +17 77 0 64 55 71 51 80 78 0 0
 -16 78 51 0 ?80 74 87 79 0 0 1 30 79 52 0 78 88 75 0 +0.0005000812799989945 0.0
00400078739474034 1.20000174845553e-005 0 -4.371138815121262e-008 0.999999999999
9991 17 80 0 380 381 348 72 77 78 0 0 +14 81 53 83 1e-008 94 60 85 38 82 -0 0 94
 60 36 50 82 54 0 81 95 61 0 +0.0008000812799989945 0.0004000787045049235 0.0008
120000174845547 0 4.37113882867379e-008 -0.9999999999999991 0 0.9999999999999991
 4.37113882867379e-008 81 1 83 55 32 81 0 0 96 62 84 83 3 84 0.5568627715110779
 0.4941176474094391 0.2862745225429535 15 85 56 0 86 81 0 17 86 0 85 31 76 14 89
 87 0 770 -16 87 57 0 ?89 78 91 88 0 0 1 30 88 58 0 87 92 79 0 +-0.0004999187200
010056 0.0004000787045049235 0.0008120000174845547 0 0.9999999999999991 4.371138
82867379e-008 17 89 0 775 761 770 66 86 87 0 76 +17 90 0 85 76 31 72 93 91 0 80
 -16 91 59 0 ?93 87 102 92 0 0 1 30 92 60 0 91 103 88 0 +0.0005000812799989945 0
.0004000787045049235 0.0008120000174845547 0 -0.9999999999999991 -4.371138828673
79e-008 17 93 0 434 429 420 23 90 91 0 0 +14 94 61 96 1e-008 123 81 98 38 95 +0
 0 123 81 36 50 95 62 0 94 124 82 0 +0.0005000812799989945 0.0004120787039803868
 0.0008240000180090912 0 -4.37113882867379e-008 0.9999999999999991 0 -0.99999999
99999991 -4.37113882867379e-008 81 1 96 63 32 94 0 0 125 83 97 83 3 97 1 1 1 15
 98 64 0 99 94 0 17 99 0 98 107 119 100 104 102 0 112 +18 100 65 0 417 72 105 10
1 ?1 29 101 66 0 100 106 73 0.0005120812799989944 0.0004000787039803868 0.000824
0000174845546 16 102 67 0 ?99 91 110 103 0 0 1 30 103 68 0 102 111 92 0 +0.00050
00812799989945 0.0004000787039803868 0.0008240000174845546 -1 0 0 17 104 0 389 3
57 390 105 99 102 0 0 -18 105 69 0 305 100 108 106 ?1 29 106 70 0 105 109 101 0.
0007880812799989944 0.0004000787039803868 0.0008240000174845546 17 107 0 98 113
 99 108 112 110 0 0 +18 108 71 0 402 105 114 109 ?1 29 109 72 0 108 115 106 0.00
05120812799989944 -0.0003999212960196125 0.0008239999825154439 16 110 73 0 ?107
 102 116 111 0 0 1 30 111 74 0 110 117 103 0 +0.0005120812799989944 -0.000411921
2960196124 0.0008239999819909072 0 -0.9999999999999991 -4.37113882867379e-008 17
 112 0 434 420 429 100 107 110 0 0 -17 113 0 98 119 107 114 118 116 0 122 +18 11
4 75 0 113 108 129 115 ?1 29 115 76 0 114 130 109 0.0007880812799989944 -0.00039
99212960196125 0.0008239999825154439 16 116 77 0 ?113 110 120 117 0 0 1 30 117 7
8 0 116 121 111 0 +0.0005000812799989945 -0.0003999212960196125 0.00082399998251
54439 1 0 0 17 118 0 398 399 366 108 113 116 0 429 -17 119 0 98 99 113 105 122 1
20 0 104 +16 120 79 0 ?119 116 131 121 0 0 1 30 121 80 0 120 132 117 0 +0.000788
0812799989944 0.0004120787039803868 0.0008240000180090912 -0 0.9999999999999991
 4.37113882867379e-008 17 122 0 300 301 305 114 119 120 0 366 -14 123 81 125 1e-
008 152 94 127 38 124 +0 0 152 94 36 50 124 82 0 123 153 95 0 +0.000500081279998
9945 0.0004120787399985706 1.800909197413601e-011 0 0.9999999999999991 4.3711388
15515996e-008 0 -4.371138815515996e-008 0.9999999999999991 81 1 125 83 32 123 0
 0 154 96 126 83 3 126 1 1 1 15 127 84 0 128 123 0 17 128 0 127 136 148 129 133
 131 0 141 +18 129 85 0 128 114 134 130 ?1 29 130 86 0 129 135 115 0.00051208127
99989944 0.0004120787045049234 0.0008120000180090914 16 131 87 0 ?128 120 139 13
2 0 0 1 30 132 88 0 131 140 121 0 +0.0005120812799989944 0.0004120787039803868 0
.0008240000180090912 0 -4.371138815515996e-008 0.9999999999999991 17 133 0 380 3
48 381 134 128 131 0 283 -18 134 89 0 133 129 137 135 ?1 29 135 90 0 134 138 130
 0.0005120812799989944 0.000412078739474034 1.200001800909197e-005 17 136 0 127
 142 128 137 141 139 0 295 +18 137 91 0 357 134 143 138 ?1 29 138 92 0 137 144 1
35 0.0007880812799989944 0.0004120787045049234 0.0008120000180090914 16 139 93 0
 ?136 131 145 140 0 0 1 30 140 94 0 139 146 132 0 +0.0005000812799989945 0.00041
20787045049234 0.0008120000180090914 1 0 0 17 141 0 389 390 357 129 136 139 0 38
1 -17 142 0 127 148 136 143 147 145 0 151 +18 143 95 0 261 137 158 144 ?1 29 144
 96 0 143 159 138 0.0007880812799989944 0.000412078739474034 1.200001800909197e-
005 16 145 97 0 ?142 139 149 146 0 0 1 30 146 98 0 145 150 140 0 +0.000788081279
9989944 0.0004120787399985706 1.800909197413601e-011 0 4.371138815515996e-008 -0
.9999999999999991 17 147 0 291 292 260 137 142 145 0 0 -17 148 0 127 128 142 134
 151 149 0 345 +16 149 99 0 ?148 145 160 150 0 0 1 30 150 100 0 149 161 146 0 +0
.0005000812799989945 0.000412078739474034 1.200001800909197e-005 -1 0 0 17 151 0
 282 264 283 143 148 149 0 0 -14 152 101 154 1e-008 181 123 156 38 153 +0 0 181
 123 36 50 153 102 0 152 182 124 0 +0.0005000812799989945 -0.0004119212600014284
 -1.800909197413601e-011 0 4.37113882867379e-008 -0.9999999999999991 0 0.9999999
999999991 4.37113882867379e-008 81 1 154 103 32 152 0 0 183 125 155 83 3 155 1 1
 1 15 156 104 0 157 152 0 17 157 0 156 165 177 158 162 160 0 0 +18 158 105 0 323
 143 163 159 ?1 29 159 106 0 158 164 144 0.0005120812799989944 -0.00039992126000
14285 -1.748455531469515e-011 16 160 107 0 ?157 149 168 161 0 0 1 30 161 108 0 1
60 169 150 0 +0.0005000812799989945 -0.0003999212600014285 -1.748455531469515e-0
11 -1 0 0 17 162 0 322 273 323 163 157 160 0 177 -18 163 109 0 248 158 166 164 ?
1 29 164 110 0 163 167 159 0.0007880812799989944 -0.0003999212600014285 -1.74845
5531469515e-011 17 165 0 156 171 157 166 170 168 0 176 +18 166 111 0 332 163 172
 167 ?1 29 167 112 0 166 173 164 0.0005120812799989944 0.0004000787399985707 1.7
48455531469515e-011 16 168 113 0 ?165 160 174 169 0 0 1 30 169 114 0 168 175 161
 0 +0.0005120812799989944 0.0004120787399985706 1.800909197413601e-011 0 0.99999
99999999991 4.37113882867379e-008 17 170 0 331 336 332 158 165 168 0 339 -17 171
 0 156 177 165 172 176 174 0 180 +18 172 115 0 264 166 187 173 ?1 29 173 116 0 1
72 188 167 0.0007880812799989944 0.0004000787399985707 1.748455531469515e-011 16
 174 117 0 ?171 168 178 175 0 0 1 30 175 118 0 174 179 169 0 +0.0005000812799989
945 0.0004000787399985707 1.748455531469515e-011 1 0 0 17 176 0 282 283 264 166
 171 174 0 0 -17 177 0 156 157 171 163 180 178 0 0 +16 178 119 0 ?177 174 189 17
9 0 0 1 30 179 120 0 178 190 175 0 +0.0007880812799989944 -0.0004119212600014284
 -1.800909197413601e-011 0 -0.9999999999999991 -4.37113882867379e-008 17 180 0 2
43 244 248 172 177 178 0 0 -14 181 121 183 1e-008 210 152 185 38 182 +0 0 210 15
2 36 50 182 122 0 181 211 153 0 +0.0005000812799989945 -0.0004119212960196124 0.
0008239999819909072 0 -0.9999999999999991 -4.371138841831583e-008 0 4.3711388418
31583e-008 -0.9999999999999991 81 1 183 123 32 181 0 0 212 154 184 83 3 184 1 1
 1 15 185 124 0 186 181 0 17 186 0 185 194 206 187 191 189 0 0 +18 187 125 0 326
 172 192 188 ?1 29 188 126 0 187 193 173 0.0005120812799989944 -0.00041192126052
59651 1.199998199090798e-005 16 189 127 0 ?186 178 197 190 0 0 1 30 190 128 0 18
9 198 179 0 +0.0005120812799989944 -0.0004119212600014284 -1.800909197571495e-01
1 0 4.371138841831583e-008 -0.9999999999999991 17 191 0 407 408 375 192 186 189
 0 206 -18 192 129 0 399 187 195 193 ?1 29 193 130 0 192 196 188 0.0005120812799
989944 -0.0004119212954950758 0.0008119999819909074 17 194 0 185 200 186 195 199
 197 0 205 +18 195 131 0 273 192 201 196 ?1 29 196 132 0 195 202 193 0.000788081
2799989944 -0.0004119212605259651 1.199998199090798e-005 16 197 133 0 ?194 189 2
03 198 0 0 1 30 198 134 0 197 204 190 0 +0.0005000812799989945 -0.00041192126052
59651 1.199998199090798e-005 1 0 0 17 199 0 322 323 273 187 194 197 0 186 -17 20
0 0 185 206 194 201 205 203 0 209 +18 201 135 0 314 195 216 202 ?1 29 202 136 0
 201 217 196 0.0007880812799989944 -0.0004119212954950758 0.0008119999819909074
 16 203 137 0 ?200 197 207 204 0 0 1 30 204 138 0 203 208 198 0 +0.0007880812799
989944 -0.0004119212960196124 0.0008239999819909072 0 -4.371138841831583e-008 0.
9999999999999991 17 205 0 313 277 314 195 200 203 0 0 -17 206 0 185 186 200 192
 209 207 0 0 +16 207 139 0 ?206 203 218 208 0 0 1 30 208 140 0 207 219 204 0 +0.
0005000812799989945 -0.0004119212954950758 0.0008119999819909074 -1 0 0 17 209 0
 398 366 399 201 206 207 0 0 -14 210 141 212 1e-008 239 181 214 38 211 +0 0 239
 181 36 50 211 142 0 210 240 182 0 +0.0008000812799989945 -0.0003999212605259651
 1.199998251544468e-005 1 0 0 0 0.9999999999999991 4.37113882867379e-008 81 1 21
2 143 32 210 0 0 241 183 213 83 3 213 1 1 1 15 214 144 0 215 210 0 17 215 0 214
 223 235 216 220 218 0 0 +18 216 145 0 228 201 221 217 ?1 29 217 146 0 216 222 2
02 0.0008000812799989945 0.000400078739474034 1.20000174845553e-005 16 218 147 0
 ?215 207 226 219 0 0 1 30 219 148 0 218 227 208 0 +0.0008000812799989945 -0.000
3999212605259651 1.199998251544468e-005 0 0.9999999999999991 4.37113882867379e-0
08 17 220 0 243 248 244 221 215 218 0 0 -18 221 149 0 251 216 224 222 ?1 29 222
 150 0 221 225 217 0.0008000812799989945 -0.0003999212605259651 1.19999825154446
8e-005 17 223 0 214 229 215 224 228 226 0 308 +18 224 151 0 223 221 230 225 ?1 2
9 225 152 0 224 231 222 0.0008000812799989945 0.0004000787045049235 0.0008120000
174845547 16 226 153 0 ?223 218 232 227 0 0 1 30 227 154 0 226 233 219 0 +0.0008
000812799989945 0.000400078739474034 1.20000174845552e-005 0 -4.371138815515996e
-008 0.9999999999999991 17 228 0 291 260 292 216 223 226 0 244 -17 229 0 214 235
 223 230 234 232 0 238 +18 230 155 0 317 224 441 231 ?1 29 231 156 0 230 442 225
 0.0008000812799989945 -0.0003999212954950759 0.000811999982515444 16 232 157 0
 ?229 226 236 233 0 0 1 30 233 158 0 232 237 227 0 +0.0008000812799989945 -0.000
3999212954950758 0.000811999982515444 0 -0.9999999999999991 -4.37113882867379e-0
08 17 234 0 300 305 301 224 229 232 0 292 -17 235 0 214 215 229 221 238 236 0 27
7 +16 236 159 0 ?235 232 245 237 0 0 1 30 237 160 0 236 246 233 0 +0.00080008127
99989945 -0.0003999212605259651 1.199998251544468e-005 0 4.371138841831583e-008
 -0.9999999999999991 17 238 0 313 314 277 230 235 236 0 301 -14 239 161 241 1e-0
08 252 210 243 38 240 +0 0 252 210 36 51 240 162 0 239 253 211 0 +0.000788081279
9989945 -0.0003999212605259651 1.199998251544468e-005 0 0.9999999999999991 4.371
13882867379e-008 1.199999999999997e-005 -1 -0 0 81 1 241 163 32 239 0 0 254 212
 242 83 3 242 1 1 1 15 243 164 0 244 239 0 17 244 0 243 220 180 216 247 245 0 25
7 -16 245 165 0 ?247 236 249 246 0 0 1 31 246 166 0 245 250 237 0 +0.00078808127
99989945 0.000400078739474034 1.20000174845553e-005 -0 0.9999999999999991 4.3711
38376922884e-008 0 -4.371138376922884e-008 0.9999999999999991 1.2e-005 17 247 0
 256 261 257 172 244 245 0 171 +17 248 0 243 180 220 163 251 249 0 270 -16 249 1
67 0 ?251 245 258 250 0 0 1 31 250 168 0 249 259 246 0 +0.0007880812799989945 -0
.0003999212605259651 1.199998251544468e-005 0 -0.9999999999999991 -4.37113882867
379e-008 1 0 0 1.199999999999997e-005 17 251 0 269 274 270 221 248 249 0 235 +14
 252 169 254 1e-008 265 239 256 38 253 +0 0 265 239 36 53 253 170 0 252 266 240
 0 +0.0007880812799989945 0.000400078739474034 1.20000174845553e-005 1.2e-005 0
 -4.37113882867379e-008 0.9999999999999991 1 0 0 81 1 254 171 32 252 0 0 267 241
 255 83 3 255 1 1 1 15 256 172 0 257 252 0 17 257 0 256 247 261 216 260 258 0 21
5 -16 258 173 0 ?260 249 262 259 0 0 1 31 259 174 0 258 263 250 0 +0.00078808127
99989945 0.000400078739474034 1.20000174845553e-005 -0 -4.371138814556574e-008 0
.9999999999999991 0 0.9999999999999991 4.371138814556574e-008 1.200000000000002e
-005 17 260 0 291 147 228 143 257 258 0 142 +17 261 0 256 257 247 143 264 262 0
 260 -16 262 175 0 ?264 258 271 263 0 0 1 31 263 176 0 262 272 259 0 +0.00078808
12799989945 0.000400078739474034 1.20000174845553e-005 -1 0 0 0 0.99999999999999
91 4.37113882867379e-008 1.200000000000002e-005 17 264 0 282 176 151 172 261 262
 0 247 +14 265 177 267 1e-008 278 252 269 38 266 +0 0 278 252 36 53 266 178 0 26
5 279 253 0 +0.0007880812799989945 -0.0003999212605259651 1.199998251544468e-005
 1.2e-005 0 -4.37113882867379e-008 0.9999999999999991 1 0 0 81 1 267 179 32 265
 0 0 280 254 268 83 3 268 1 1 1 15 269 180 0 270 265 0 17 270 0 269 251 274 163
 273 271 0 162 -16 271 181 0 ?273 262 275 272 0 0 1 31 272 182 0 271 276 263 0 +
0.0007880812799989945 -0.0003999212605259651 1.199998251544464e-005 -1 0 0 0 0.9
999999999999991 4.37113882867379e-008 1.200000000000002e-005 17 273 0 322 199 16
2 195 270 271 0 274 +17 274 0 269 270 251 195 277 275 0 194 -16 275 183 0 ?277 2
71 284 276 0 0 1 31 276 184 0 275 285 272 0 +0.0007880812799989945 -0.0003999212
605259651 1.199998251544468e-005 0 -4.371139125135321e-008 0.9999999999999991 0
 0.9999999999999991 4.371139125135321e-008 1.200000000000002e-005 17 277 0 313 2
38 205 221 274 275 0 220 +14 278 185 280 1e-008 287 265 282 38 279 +0 0 287 265
 36 51 279 186 0 278 288 266 0 +0.0005000812799989945 0.000400078739474034 1.200
00174845553e-005 1 0 0 1.200000000000002e-005 0 0.9999999999999991 4.37113882867
379e-008 81 1 280 187 32 278 0 0 289 267 281 83 3 281 1 1 1 15 282 188 0 264 278
 0 17 283 0 282 151 176 134 286 284 0 148 -16 284 189 0 ?286 275 293 285 0 0 1 3
1 285 190 0 284 294 276 0 +0.0005120812799989944 0.000400078739474034 1.20000174
845553e-005 -1 -0 0 0 -0.9999999999999991 -4.37113882867379e-008 1.2000000000000
02e-005 17 286 0 344 335 345 166 283 284 0 165 +14 287 191 289 1e-008 296 278 29
1 38 288 +0 0 296 278 36 51 288 192 0 287 297 279 0 +0.0007880812799989945 0.000
400078739474034 1.20000174845552e-005 0 -4.371138815515996e-008 0.99999999999999
91 1.200000000000002e-005 0 -0.9999999999999991 -4.371138815515996e-008 81 1 289
 193 32 287 0 0 298 280 290 83 3 290 1 1 1 15 291 194 0 260 287 0 17 292 0 291 2
28 147 224 295 293 0 0 -16 293 195 0 ?295 284 302 294 0 0 1 31 294 196 0 293 303
 285 0 +0.0007880812799989945 0.0004000787045049235 0.0008120000174845547 0 -4.3
7113882867379e-008 0.9999999999999991 0 -0.9999999999999991 -4.37113882867379e-0
08 1.200000000000002e-005 17 295 0 353 354 308 137 292 293 0 147 +14 296 197 298
 1e-008 309 287 300 38 297 +0 0 309 287 36 51 297 198 0 296 310 288 0 +0.0007880
812799989945 -0.0003999212954950758 0.0008119999825154441 0 -0.9999999999999991
 -4.37113882867379e-008 1.199999999999997e-005 1 0 0 81 1 298 199 32 296 0 0 311
 289 299 83 3 299 1 1 1 15 300 200 0 301 296 0 17 301 0 300 234 122 230 304 302
 0 0 -16 302 201 0 ?304 293 306 303 0 0 1 31 303 202 0 302 307 294 0 +0.00078808
12799989945 -0.0003999212954950759 0.0008119999825154441 0 -0.9999999999999991 -
4.371138376922884e-008 0 4.371138376922884e-008 -0.9999999999999991 1.1999999999
99997e-005 17 304 0 362 363 317 114 301 302 0 0 +17 305 0 300 122 234 105 308 30
6 0 354 -16 306 203 0 ?308 302 315 307 0 0 1 31 307 204 0 306 316 303 0 +0.00078
80812799989945 0.0004000787045049235 0.0008120000174845547 0 0.9999999999999991
 4.37113882867379e-008 -1 -0 0 1.199999999999997e-005 17 308 0 353 295 354 224 3
05 306 0 234 +14 309 205 311 1e-008 318 296 313 38 310 +0 0 318 296 36 51 310 20
6 0 309 319 297 0 +0.0007880812799989945 -0.0003999212605259651 1.19999825154446
8e-005 0 4.371138841831583e-008 -0.9999999999999991 1.200000000000002e-005 0 0.9
999999999999991 4.371138841831583e-008 81 1 311 207 32 309 0 0 320 298 312 83 3
 312 1 1 1 15 313 208 0 277 309 0 17 314 0 313 205 238 201 317 315 0 363 -16 315
 209 0 ?317 306 324 316 0 0 1 31 316 210 0 315 325 307 0 +0.0007880812799989945
 -0.0003999212954950759 0.0008119999825154441 0 -4.37113882867379e-008 0.9999999
999999991 0 -0.9999999999999991 -4.37113882867379e-008 1.200000000000002e-005 17
 317 0 362 304 363 230 314 315 0 229 +14 318 211 320 1e-008 327 309 322 38 319 +
0 0 327 309 36 51 319 212 0 318 328 310 0 +0.0005000812799989945 -0.000399921260
5259651 1.199998251544464e-005 1 0 0 1.200000000000002e-005 0 0.9999999999999991
 4.37113882867379e-008 81 1 320 213 32 318 0 0 329 311 321 83 3 321 1 1 1 15 322
 214 0 273 318 0 17 323 0 322 162 199 158 326 324 0 170 -16 324 215 0 ?326 315 3
33 325 0 0 1 31 325 216 0 324 334 316 0 +0.0005120812799989944 -0.00039992126052
59651 1.199998251544468e-005 -1 -0 0 0 -0.9999999999999991 -4.37113882867379e-00
8 1.200000000000002e-005 17 326 0 371 372 339 187 323 324 0 375 +14 327 217 329
 1e-008 340 318 331 38 328 +0 0 340 318 36 51 328 218 0 327 341 319 0 +0.0005120
812799989944 -0.0004119212605259651 1.199998199090802e-005 0 -0.9999999999999991
 -4.37113882867379e-008 1.199999999999997e-005 1 0 0 81 1 329 219 32 327 0 0 342
 320 330 83 3 330 1 1 1 15 331 220 0 332 327 0 17 332 0 331 170 59 166 335 333 0
 286 -16 333 221 0 ?335 324 337 334 0 0 1 31 334 222 0 333 338 325 0 +0.00051208
12799989944 0.000400078739474034 1.20000174845553e-005 4.517509052022949e-015 0.
9999999999999991 4.37113882867379e-008 -1 4.517509052022944e-015 1.9746659226182
83e-022 1.199999999999997e-005 17 335 0 344 345 286 51 332 333 0 50 +17 336 0 33
1 59 170 17 339 337 0 56 -16 337 223 0 ?339 333 346 338 0 0 1 31 338 224 0 337 3
47 334 0 +0.0005120812799989944 -0.0003999212605259651 1.199998251544468e-005 0
 -0.9999999999999991 -4.37113882867379e-008 1 0 0 1.199999999999997e-005 17 339
 0 371 326 372 158 336 337 0 157 +14 340 225 342 1e-008 349 327 344 38 341 +0 0
 349 327 36 53 341 226 0 340 350 328 0 +0.0005120812799989944 0.0004000787394740
34 1.20000174845553e-005 1.2e-005 0 -4.37113882867379e-008 0.9999999999999991 1
 0 0 81 1 342 227 32 340 0 0 351 329 343 83 3 343 1 1 1 15 344 228 0 286 340 0 1
7 345 0 344 286 335 134 348 346 0 0 -16 346 229 0 ?348 337 355 347 0 0 1 31 347
 230 0 346 356 338 0 +0.0005120812799989944 0.000400078739474034 1.2000017484555
3e-005 -0 -4.371138814556574e-008 0.9999999999999991 0 0.9999999999999991 4.3711
38814556574e-008 1.200000000000002e-005 17 348 0 380 80 133 51 345 346 0 77 +14
 349 231 351 1e-008 358 340 353 38 350 +0 0 358 340 36 53 350 232 0 349 359 341
 0 +0.0007880812799989945 0.0004000787045049235 0.0008120000174845547 1.2e-005 0
 -4.37113882867379e-008 0.9999999999999991 1 0 0 81 1 351 233 32 349 0 0 360 342
 352 83 3 352 1 1 1 15 353 234 0 308 349 0 17 354 0 353 308 295 105 357 355 0 11
9 -16 355 235 0 ?357 346 364 356 0 0 1 31 356 236 0 355 365 347 0 +0.00078808127
99989945 0.0004000787045049235 0.0008120000174845547 -1 0 0 0 0.9999999999999991
 4.37113882867379e-008 1.200000000000002e-005 17 357 0 389 141 104 137 354 355 0
 136 +14 358 237 360 1e-008 367 349 362 38 359 +0 0 367 349 36 53 359 238 0 358
 368 350 0 +0.0007880812799989945 -0.0003999212954950759 0.0008119999825154441 1
.2e-005 0 -4.37113882867379e-008 0.9999999999999991 1 0 0 81 1 360 239 32 358 0
 0 369 351 361 83 3 361 1 1 1 15 362 240 0 317 358 0 17 363 0 362 317 304 201 36
6 364 0 200 -16 364 241 0 ?366 355 373 365 0 0 1 31 365 242 0 364 374 356 0 +0.0
007880812799989945 -0.0003999212954950759 0.0008119999825154441 -1 0 0 0 0.99999
99999999991 4.37113882867379e-008 1.200000000000002e-005 17 366 0 398 118 209 11
4 363 364 0 304 +14 367 243 369 1e-008 376 358 371 38 368 +0 0 376 358 36 53 368
 244 0 367 377 359 0 +0.0005120812799989944 -0.0003999212605259651 1.19999825154
4468e-005 1.2e-005 0 -4.37113882867379e-008 0.9999999999999991 1 0 0 81 1 369 24
5 32 367 0 0 378 360 370 83 3 370 1 1 1 15 371 246 0 339 367 0 17 372 0 371 339
 326 17 375 373 0 336 -16 373 247 0 ?375 364 382 374 0 0 1 31 374 248 0 373 383
 365 0 +0.0005120812799989944 -0.0003999212605259651 1.199998251544464e-005 2.82
3443157514343e-015 -4.371138842791005e-008 0.9999999999999991 1 1.23416620163642
7e-022 -2.82344315751434e-015 1.199999999999997e-005 17 375 0 407 191 27 187 372
 373 0 199 +14 376 249 378 1e-008 385 367 380 38 377 +0 0 385 367 36 51 377 250
 0 376 386 368 0 +0.0005120812799989944 0.0004000787399985707 1.748455531627409e
-011 0 4.371138815515996e-008 -0.9999999999999991 1.200000000000002e-005 0 0.999
9999999999991 4.371138815515996e-008 81 1 378 251 32 376 0 0 387 369 379 83 3 37
9 1 1 1 15 380 252 0 348 376 0 17 381 0 380 133 80 129 384 382 0 393 -16 382 253
 0 ?384 373 391 383 0 0 1 31 383 254 0 382 392 374 0 +0.0005120812799989944 0.00
04000787045049235 0.0008120000174845547 0 -4.37113882867379e-008 0.9999999999999
991 0 -0.9999999999999991 -4.37113882867379e-008 1.200000000000002e-005 17 384 0
 416 417 393 72 381 382 0 71 +14 385 255 387 1e-008 394 376 389 38 386 +0 0 394
 376 36 51 386 256 0 385 395 377 0 +0.0005000812799989945 0.0004000787045049235
 0.0008120000174845547 1 0 0 1.200000000000002e-005 0 0.9999999999999991 4.37113
882867379e-008 81 1 387 257 32 385 0 0 396 378 388 83 3 388 1 1 1 15 389 258 0 3
57 385 0 17 390 0 389 104 141 100 393 391 0 99 -16 391 259 0 ?393 382 400 392 0
 0 1 31 392 260 0 391 401 383 0 +0.0005120812799989944 0.0004000787045049235 0.0
008120000174845547 -1 -0 0 0 -0.9999999999999991 -4.37113882867379e-008 1.200000
000000002e-005 17 393 0 416 384 417 129 390 391 0 0 +14 394 261 396 1e-008 403 3
85 398 38 395 +0 0 403 385 36 51 395 262 0 394 404 386 0 +0.0005000812799989945
 -0.0003999212954950759 0.0008119999825154441 1 0 0 1.200000000000002e-005 0 0.9
999999999999991 4.37113882867379e-008 81 1 396 263 32 394 0 0 405 387 397 83 3 3
97 1 1 1 15 398 264 0 366 394 0 17 399 0 398 209 118 192 402 400 0 411 -16 400 2
65 0 ?402 391 409 401 0 0 1 31 401 266 0 400 410 392 0 +0.0005120812799989944 -0
.0003999212954950759 0.0008119999825154441 -1 -0 0 0 -0.9999999999999991 -4.3711
3882867379e-008 1.200000000000002e-005 17 402 0 425 426 411 108 399 400 0 118 +1
4 403 267 405 1e-008 412 394 407 38 404 +0 0 412 394 36 51 404 268 0 403 413 395
 0 +0.0005120812799989944 -0.0003999212960196125 0.0008239999825154439 0 -4.3711
38841831583e-008 0.9999999999999991 1.200000000000002e-005 0 -0.9999999999999991
 -4.371138841831583e-008 81 1 405 269 32 403 0 0 414 396 406 83 3 406 1 1 1 15 4
07 270 0 375 403 0 17 408 0 407 27 191 23 411 409 0 426 -16 409 271 0 ?411 400 4
18 410 0 0 1 31 410 272 0 409 419 401 0 +0.0005120812799989944 -0.00039992129549
50759 0.0008119999825154441 0 -4.37113882867379e-008 0.9999999999999991 0 -0.999
9999999999991 -4.37113882867379e-008 1.200000000000002e-005 17 411 0 425 402 426
 192 408 409 0 191 +14 412 273 414 1e-008 421 403 416 38 413 +0 0 421 403 36 53
 413 274 0 412 422 404 0 +0.0005120812799989944 0.0004000787045049235 0.00081200
00174845547 1.2e-005 0 -4.37113882867379e-008 0.9999999999999991 1 0 0 81 1 414
 275 32 412 0 0 423 405 415 83 3 415 1 1 1 15 416 276 0 393 412 0 17 417 0 416 3
93 384 100 420 418 0 390 -16 418 277 0 ?420 409 427 419 0 0 1 31 419 278 0 418 4
28 410 0 +0.0005120812799989944 0.0004000787045049235 0.0008120000174845547 0 -0
.9999999999999991 -4.37113882867379e-008 -1 -0 0 1.199999999999997e-005 17 420 0
 434 93 112 72 417 418 0 384 +14 421 279 423 1e-008 430 412 425 38 422 +0 0 430
 412 36 53 422 280 0 421 431 413 0 +0.0005120812799989944 -0.0003999212954950759
 0.0008119999825154441 1.2e-005 0 -4.37113882867379e-008 0.9999999999999991 1 0
 0 81 1 423 281 32 421 0 0 432 414 424 83 3 424 1 1 1 15 425 282 0 411 421 0 17
 426 0 425 411 402 23 429 427 0 22 -16 427 283 0 ?429 418 443 428 0 0 1 31 428 2
84 0 427 444 419 0 +0.0005120812799989944 -0.0003999212954950759 0.0008119999825
154441 -4.517509052022949e-015 0.9999999999999991 4.37113882867379e-008 1 4.5175
09052022944e-015 1.974665922618283e-022 1.199999999999997e-005 17 429 0 434 112
 93 108 426 427 0 107 +14 430 285 432 1e-008 435 421 434 38 431 +0 0 435 421 36
 51 431 286 0 430 436 422 0 +0.0005120812799989944 0.0004120787045049234 0.00081
20000180090914 0 0.9999999999999991 4.37113882867379e-008 1.199999999999997e-005
 -1 -0 0 81 1 432 287 32 430 0 0 437 423 433 83 3 433 1 1 1 15 434 288 0 420 430
 0 14 435 289 437 1e-008 464 430 439 38 436 -0 0 464 430 36 50 436 290 0 435 465
 431 0 +-0.0004999187200010056 0.0004120787039803868 0.0008240000180090912 0 4.3
7113882867379e-008 -0.9999999999999991 0 0.9999999999999991 4.37113882867379e-00
8 81 1 437 291 32 435 0 0 466 432 438 83 3 438 1 1 1 15 439 292 0 440 435 0 17 4
40 0 439 448 460 441 445 443 0 725 +18 441 293 0 453 230 446 442 ?1 29 442 294 0
 441 447 231 -0.0005119187200010055 0.0004000787039803868 0.0008240000174845546
 16 443 295 0 ?440 427 451 444 0 0 1 30 444 296 0 443 452 428 0 +-0.000511918720
0010055 0.0004120787039803868 0.0008240000180090912 -0 0.9999999999999991 4.3711
3882867379e-008 17 445 0 775 770 761 446 440 443 0 460 -18 446 297 0 445 441 449
 447 ?1 29 447 298 0 446 450 442 -0.0005119187200010055 -0.0003999212960196125 0
.0008239999825154439 17 448 0 439 454 440 449 453 451 0 689 +18 449 299 0 448 44
6 455 450 ?1 29 450 300 0 449 456 447 -0.0007879187200010056 0.00040007870398038
68 0.0008240000174845546 16 451 301 0 ?448 443 457 452 0 0 1 30 452 302 0 451 45
8 444 0 +-0.0004999187200010056 0.0004000787039803868 0.0008240000174845546 -1 -
0 0 17 453 0 721 722 689 441 448 451 0 440 -17 454 0 439 460 448 455 459 457 0 4
63 +18 455 303 0 454 449 470 456 ?1 29 456 304 0 455 471 450 -0.0007879187200010
056 -0.0003999212960196125 0.0008239999825154439 16 457 305 0 ?454 451 461 458 0
 0 1 30 458 306 0 457 462 452 0 +-0.0007879187200010056 0.0004120787039803868 0.
0008240000180090912 0 -0.9999999999999991 -4.37113882867379e-008 17 459 0 672 67
3 677 449 454 457 0 0 -17 460 0 439 440 454 446 463 461 0 767 +16 461 307 0 ?460
 457 472 462 0 0 1 30 462 308 0 461 473 458 0 +-0.0004999187200010056 -0.0003999
212960196125 0.0008239999825154439 1 0 0 17 463 0 748 716 749 455 460 461 0 677
 -14 464 309 466 1e-008 493 435 468 38 465 -0 0 493 435 36 50 465 310 0 464 494
 436 0 +-0.0004999187200010056 -0.0004119212960196124 0.0008239999819909072 0 0.
9999999999999991 4.371138841831583e-008 0 -4.371138841831583e-008 0.999999999999
9991 81 1 466 311 32 464 0 0 495 437 467 83 3 467 1 1 1 15 468 312 0 469 464 0 1
7 469 0 468 477 489 470 474 472 0 482 +18 470 313 0 469 455 475 471 ?1 29 471 31
4 0 470 476 456 -0.0005119187200010055 -0.0004119212954950758 0.0008119999819909
074 16 472 315 0 ?469 461 480 473 0 0 1 30 473 316 0 472 481 462 0 +-0.000511918
7200010055 -0.0004119212960196124 0.0008239999819909072 0 -4.371138841831583e-00
8 0.9999999999999991 17 474 0 739 707 740 475 469 472 0 489 -18 475 317 0 655 47
0 478 476 ?1 29 476 318 0 475 479 471 -0.0005119187200010055 -0.0004119212605259
651 1.199998199090802e-005 17 477 0 468 483 469 478 482 480 0 716 +18 478 319 0
 667 475 484 479 ?1 29 479 320 0 478 485 476 -0.0007879187200010056 -0.000411921
2954950758 0.0008119999819909074 16 480 321 0 ?477 472 486 481 0 0 1 30 481 322
 0 480 487 473 0 +-0.0004999187200010056 -0.0004119212954950758 0.00081199998199
09074 -1 -0 0 17 482 0 748 749 716 470 477 480 0 740 -17 483 0 468 489 477 484 4
88 486 0 492 +18 484 323 0 614 478 499 485 ?1 29 485 324 0 484 500 479 -0.000787
9187200010056 -0.0004119212605259651 1.199998199090802e-005 16 486 325 0 ?483 48
0 490 487 0 0 1 30 487 326 0 486 491 481 0 +-0.0007879187200010056 -0.0004119212
960196124 0.0008239999819909072 0 4.371138841831583e-008 -0.9999999999999991 17
 488 0 663 664 614 478 483 486 0 0 -17 489 0 468 469 483 475 492 490 0 0 +16 490
 327 0 ?489 486 501 491 0 0 1 30 491 328 0 490 502 487 0 +-0.0004999187200010056
 -0.0004119212605259651 1.199998199090798e-005 1 0 0 17 492 0 654 618 655 484 48
9 490 0 0 -14 493 329 495 1e-008 522 464 497 38 494 -0 0 522 464 36 50 494 330 0
 493 523 465 0 +-0.0004999187200010056 -0.0004119212600014284 -1.800909197413601
e-011 0 -4.37113882867379e-008 0.9999999999999991 0 -0.9999999999999991 -4.37113
882867379e-008 81 1 495 331 32 493 0 0 524 466 496 83 3 496 1 1 1 15 497 332 0 4
98 493 0 17 498 0 497 506 518 499 503 501 0 511 +18 499 333 0 498 484 504 500 ?1
 29 500 334 0 499 505 485 -0.0007879187200010056 0.0004000787399985707 1.7484555
31469515e-011 16 501 335 0 ?498 490 509 502 0 0 1 30 502 336 0 501 510 491 0 +-0
.0007879187200010056 -0.0004119212600014284 -1.800909197413601e-011 0 0.99999999
99999991 4.37113882867379e-008 17 503 0 584 589 585 504 498 501 0 518 -18 504 33
7 0 503 499 507 505 ?1 29 505 338 0 504 508 500 -0.0007879187200010056 -0.000399
9212600014285 -1.748455531469515e-011 17 506 0 497 512 498 507 511 509 0 649 +18
 507 339 0 506 504 513 508 ?1 29 508 340 0 507 514 505 -0.0005119187200010055 0.
0004000787399985707 1.748455531469515e-011 16 509 341 0 ?506 501 515 510 0 0 1 3
0 510 342 0 509 516 502 0 +-0.0004999187200010056 0.0004000787399985707 1.748455
531469515e-011 1 0 0 17 511 0 632 601 633 499 506 509 0 585 -17 512 0 497 518 50
6 513 517 515 0 658 +18 513 343 0 642 507 528 514 ?1 29 514 344 0 513 529 508 -0
.0005119187200010055 -0.0003999212600014285 -1.748455531469515e-011 16 515 345 0
 ?512 509 519 516 0 0 1 30 516 346 0 515 520 510 0 +-0.0005119187200010055 -0.00
04119212600014284 -1.800909197413601e-011 0 -0.9999999999999991 -4.3711388286737
9e-008 17 517 0 641 646 642 507 512 515 0 633 -17 518 0 497 498 512 504 521 519
 0 618 +16 519 347 0 ?518 515 530 520 0 0 1 30 520 348 0 519 531 516 0 +-0.00049
99187200010056 -0.0003999212600014285 -1.748455531469515e-011 -1 -0 0 17 521 0 6
54 655 618 513 518 519 0 0 -14 522 349 524 1e-008 551 493 526 38 523 -0 0 551 49
3 36 50 523 350 0 522 552 494 0 +-0.0004999187200010056 0.0004120787399985706 1.
800909197413601e-011 0 -0.9999999999999991 -4.371138815515996e-008 0 4.371138815
515996e-008 -0.9999999999999991 81 1 524 351 32 522 0 0 553 495 525 83 3 525 1 1
 1 15 526 352 0 527 522 0 17 527 0 526 535 547 528 532 530 0 540 +18 528 353 0 6
98 513 533 529 ?1 29 529 354 0 528 534 514 -0.0005119187200010055 0.000412078739
474034 1.200001800909197e-005 16 530 355 0 ?527 519 538 531 0 0 1 30 531 356 0 5
30 539 520 0 +-0.0005119187200010055 0.0004120787399985706 1.800909197413601e-01
1 0 4.371138815515996e-008 -0.9999999999999991 17 532 0 730 731 698 533 527 530
 0 722 -18 533 357 0 547 528 536 534 ?1 29 534 358 0 533 537 529 -0.000511918720
0010055 0.0004120787045049234 0.0008120000180090914 17 535 0 526 541 527 536 540
 538 0 546 +18 536 359 0 602 533 542 537 ?1 29 537 360 0 536 543 534 -0.00078791
87200010056 0.000412078739474034 1.200001800909197e-005 16 538 361 0 ?535 530 54
4 539 0 0 1 30 539 362 0 538 545 531 0 +-0.0004999187200010056 0.000412078739474
034 1.200001800909197e-005 -1 -0 0 17 540 0 632 633 601 528 535 538 0 636 -17 54
1 0 526 547 535 542 546 544 0 0 +18 542 363 0 686 536 557 543 ?1 29 543 364 0 54
2 558 537 -0.0007879187200010056 0.0004120787045049234 0.0008120000180090914 16
 544 365 0 ?541 538 548 545 0 0 1 30 545 366 0 544 549 539 0 +-0.000787918720001
0056 0.0004120787399985706 1.800909197413601e-011 0 -4.371138815515996e-008 0.99
99999999999991 17 546 0 623 605 624 536 541 544 0 601 -17 547 0 526 527 541 533
 550 548 0 532 +16 548 367 0 ?547 544 559 549 0 0 1 30 549 368 0 548 560 545 0 +
-0.0004999187200010056 0.0004120787045049234 0.0008120000180090914 1 0 0 17 550
 0 721 689 722 542 547 548 0 624 -14 551 369 553 1e-008 580 522 555 38 552 -0 0
 580 522 36 50 552 370 0 551 581 523 0 +-0.0007999187200010056 -0.00039992126052
59651 1.199998251544468e-005 1 0 0 0 0.9999999999999991 4.37113882867379e-008 81
 1 553 371 32 551 0 0 582 524 554 83 3 554 1 1 1 15 555 372 0 556 551 0 17 556 0
 555 564 576 557 561 559 0 673 +18 557 373 0 556 542 562 558 ?1 29 558 374 0 557
 563 543 -0.0007999187200010056 0.0004000787045049235 0.0008120000174845547 16 5
59 375 0 ?556 548 567 560 0 0 1 30 560 376 0 559 568 549 0 +-0.00079991872000100
56 -0.0003999212954950758 0.000811999982515444 -0 0.9999999999999991 4.371138828
67379e-008 17 561 0 672 677 673 562 556 559 0 680 -18 562 377 0 664 557 565 563
 ?1 29 563 378 0 562 566 558 -0.0007999187200010056 -0.0003999212954950759 0.000
811999982515444 17 564 0 555 570 556 565 569 567 0 575 +18 565 379 0 605 562 571
 566 ?1 29 566 380 0 565 572 563 -0.0007999187200010056 0.000400078739474034 1.2
0000174845553e-005 16 567 381 0 ?564 559 573 568 0 0 1 30 568 382 0 567 574 560
 0 +-0.0007999187200010056 0.000400078739474034 1.20000174845552e-005 0 4.371138
815515996e-008 -0.9999999999999991 17 569 0 623 624 605 557 564 567 0 627 -17 57
0 0 555 576 564 571 575 573 0 589 +18 571 383 0 611 565 0 572 ?1 29 572 384 0 57
1 0 566 -0.0007999187200010056 -0.0003999212605259651 1.199998251544468e-005 16
 573 385 0 ?570 567 577 574 0 0 1 30 574 386 0 573 578 568 0 +-0.000799918720001
0056 -0.0003999212605259651 1.199998251544468e-005 0 -0.9999999999999991 -4.3711
3882867379e-008 17 575 0 584 585 589 565 570 573 0 588 -17 576 0 555 556 570 562
 579 577 0 0 +16 577 387 0 ?576 573 586 578 0 0 1 30 578 388 0 577 587 574 0 +-0
.0007999187200010056 -0.0003999212605259651 1.199998251544468e-005 0 -4.37113884
1831583e-008 0.9999999999999991 17 579 0 663 614 664 571 576 577 0 570 -14 580 3
89 582 1e-008 593 551 584 38 581 +0 0 593 551 36 51 581 390 0 580 594 552 0 +-0.
0007879187200010056 -0.0004119212605259651 1.199998199090802e-005 0 0.9999999999
999991 4.37113882867379e-008 1.199999999999997e-005 -1 -0 0 81 1 582 391 32 580
 0 0 595 553 583 83 3 583 1 1 1 15 584 392 0 585 580 0 17 585 0 584 503 575 499
 588 586 0 598 -16 586 393 0 ?588 577 590 587 0 0 1 31 587 394 0 586 591 578 0 +
-0.0007879187200010056 0.000400078739474034 1.20000174845553e-005 0 0.9999999999
999991 4.37113882867379e-008 -1 -0 0 1.199999999999997e-005 17 588 0 597 602 598
 565 585 586 0 0 +17 589 0 584 575 503 571 592 590 0 0 -16 590 395 0 ?592 586 59
9 591 0 0 1 31 591 396 0 590 600 587 0 +-0.0007879187200010056 -0.00039992126052
59651 1.199998251544468e-005 0 -0.9999999999999991 -4.37113882867379e-008 1 0 0
 1.199999999999997e-005 17 592 0 610 615 611 504 589 590 0 0 +14 593 397 595 1e-
008 606 580 597 38 594 +0 0 606 580 36 53 594 398 0 593 607 581 0 +-0.0007879187
200010056 0.000400078739474034 1.20000174845553e-005 1.2e-005 0 -4.3711388286737
9e-008 0.9999999999999991 1 0 0 81 1 595 399 32 593 0 0 608 582 596 83 3 596 1 1
 1 15 597 400 0 598 593 0 17 598 0 597 588 602 499 601 599 0 0 -16 599 401 0 ?60
1 590 603 600 0 0 1 31 600 402 0 599 604 591 0 +-0.0007879187200010056 0.0004000
78739474034 1.20000174845553e-005 1 0 0 0 -0.9999999999999991 -4.37113882867379e
-008 1.200000000000002e-005 17 601 0 632 540 511 536 598 599 0 0 +17 602 0 597 5
98 588 536 605 603 0 535 -16 603 403 0 ?605 599 612 604 0 0 1 31 604 404 0 603 6
13 600 0 +-0.0007879187200010056 0.000400078739474034 1.20000174845553e-005 -0 -
4.371138814556574e-008 0.9999999999999991 0 0.9999999999999991 4.371138814556574
e-008 1.200000000000002e-005 17 605 0 623 569 546 565 602 603 0 564 +14 606 405
 608 1e-008 619 593 610 38 607 +0 0 619 593 36 53 607 406 0 606 620 594 0 +-0.00
07879187200010056 -0.0003999212605259651 1.199998251544468e-005 1.2e-005 0 -4.37
113882867379e-008 0.9999999999999991 1 0 0 81 1 608 407 32 606 0 0 621 595 609 8
3 3 609 1 1 1 15 610 408 0 611 606 0 17 611 0 610 592 615 571 614 612 0 579 -16
 612 409 0 ?614 603 616 613 0 0 1 31 613 410 0 612 617 604 0 +-0.000787918720001
0056 -0.0003999212605259651 1.199998251544468e-005 0 -4.371138842791005e-008 0.9
999999999999991 0 0.9999999999999991 4.371138842791005e-008 1.200000000000002e-0
05 17 614 0 663 488 579 484 611 612 0 615 +17 615 0 610 611 592 484 618 616 0 48
3 -16 616 411 0 ?618 612 625 617 0 0 1 31 617 412 0 616 626 613 0 +-0.0007879187
200010056 -0.0003999212605259651 1.199998251544468e-005 1 0 0 0 -0.9999999999999
991 -4.37113882867379e-008 1.200000000000002e-005 17 618 0 654 521 492 504 615 6
16 0 592 +14 619 413 621 1e-008 628 606 623 38 620 +0 0 628 606 36 51 620 414 0
 619 629 607 0 +-0.0007879187200010056 0.0004000787399985707 1.748455531627409e-
011 0 -4.371138815515996e-008 0.9999999999999991 1.200000000000002e-005 0 -0.999
9999999999991 -4.371138815515996e-008 81 1 621 415 32 619 0 0 630 608 622 83 3 6
22 1 1 1 15 623 416 0 605 619 0 17 624 0 623 546 569 542 627 625 0 541 -16 625 4
17 0 ?627 616 634 626 0 0 1 31 626 418 0 625 635 617 0 +-0.0007879187200010056 0
.0004000787045049235 0.0008120000174845547 0 -4.37113882867379e-008 0.9999999999
999991 0 -0.9999999999999991 -4.37113882867379e-008 1.200000000000002e-005 17 62
7 0 685 676 686 557 624 625 0 0 +14 628 419 630 1e-008 637 619 632 38 629 +0 0 6
37 619 36 51 629 420 0 628 638 620 0 +-0.0004999187200010056 0.00040007873947403
4 1.20000174845553e-005 -1 -0 0 1.200000000000002e-005 0 -0.9999999999999991 -4.
37113882867379e-008 81 1 630 421 32 628 0 0 639 621 631 83 3 631 1 1 1 15 632 42
2 0 601 628 0 17 633 0 632 511 540 507 636 634 0 0 -16 634 423 0 ?636 625 643 63
5 0 0 1 31 635 424 0 634 644 626 0 +-0.0005119187200010056 0.000400078739474034
 1.20000174845553e-005 1 0 -0 0 0.9999999999999991 4.37113882867379e-008 1.20000
0000000002e-005 17 636 0 694 695 649 528 633 634 0 0 +14 637 425 639 1e-008 650
 628 641 38 638 +0 0 650 628 36 51 638 426 0 637 651 629 0 +-0.00051191872000100
56 -0.0004119212605259651 1.199998199090798e-005 0 0.9999999999999991 4.37113882
867379e-008 1.199999999999997e-005 -1 -0 0 81 1 639 427 32 637 0 0 652 630 640 8
3 3 640 1 1 1 15 641 428 0 642 637 0 17 642 0 641 517 49 513 645 643 0 512 -16 6
43 429 0 ?645 634 647 644 0 0 1 31 644 430 0 643 648 635 0 +-0.00051191872000100
56 -0.0003999212605259651 1.199998251544468e-005 0 -0.9999999999999991 -4.371138
82867379e-008 1 0 0 1.199999999999997e-005 17 645 0 703 704 658 9 642 643 0 21 +
17 646 0 641 49 517 45 649 647 0 695 -16 647 431 0 ?649 643 656 648 0 0 1 31 648
 432 0 647 657 644 0 +-0.0005119187200010056 0.0004000787394740341 1.20000174845
5527e-005 -0 0.9999999999999991 4.371138376922884e-008 0 -4.371138376922884e-008
 0.9999999999999991 1.2e-005 17 649 0 694 636 695 507 646 647 0 517 +14 650 433
 652 1e-008 659 637 654 38 651 +0 0 659 637 36 51 651 434 0 650 660 638 0 +-0.00
04999187200010056 -0.0003999212605259651 1.199998251544468e-005 -1 -0 0 1.200000
000000002e-005 0 -0.9999999999999991 -4.37113882867379e-008 81 1 652 435 32 650
 0 0 661 639 653 83 3 653 1 1 1 15 654 436 0 618 650 0 17 655 0 654 492 521 475
 658 656 0 704 -16 656 437 0 ?658 647 665 657 0 0 1 31 657 438 0 656 666 648 0 +
-0.0005119187200010056 -0.0003999212605259651 1.199998251544468e-005 1 0 -0 0 0.
9999999999999991 4.37113882867379e-008 1.200000000000002e-005 17 658 0 703 645 7
04 513 655 656 0 521 +14 659 439 661 1e-008 668 650 663 38 660 +0 0 668 650 36 5
1 660 440 0 659 669 651 0 +-0.0007879187200010056 -0.0003999212960196125 0.00082
39999825154439 0 4.371138841831583e-008 -0.9999999999999991 1.200000000000002e-0
05 0 0.9999999999999991 4.371138841831583e-008 81 1 661 441 32 659 0 0 670 652 6
62 83 3 662 1 1 1 15 663 442 0 614 659 0 17 664 0 663 579 488 562 667 665 0 561
 -16 665 443 0 ?667 656 674 666 0 0 1 31 666 444 0 665 675 657 0 +-0.00078791872
00010056 -0.0003999212954950759 0.0008119999825154441 0 -4.37113882867379e-008 0
.9999999999999991 0 -0.9999999999999991 -4.37113882867379e-008 1.200000000000002
e-005 17 667 0 712 713 680 478 664 665 0 477 +14 668 445 670 1e-008 681 659 672
 38 669 +0 0 681 659 36 51 669 446 0 668 682 660 0 +-0.0007879187200010056 0.000
4120787045049234 0.0008120000180090914 0 -0.9999999999999991 -4.37113882867379e-
008 1.199999999999997e-005 1 0 0 81 1 670 447 32 668 0 0 683 661 671 83 3 671 1
 1 1 15 672 448 0 673 668 0 17 673 0 672 561 459 557 676 674 0 569 -16 674 449 0
 ?676 665 678 675 0 0 1 31 675 450 0 674 679 666 0 +-0.0007879187200010056 0.000
4000787045049235 0.0008120000174845547 0 0.9999999999999991 4.37113882867379e-00
8 -1 -0 0 1.199999999999997e-005 17 676 0 685 686 627 449 673 674 0 459 +17 677
 0 672 459 561 455 680 678 0 713 -16 678 451 0 ?680 674 687 679 0 0 1 31 679 452
 0 678 688 675 0 +-0.0007879187200010056 -0.0003999212954950759 0.00081199998251
54441 0 -0.9999999999999991 -4.37113882867379e-008 1 0 0 1.199999999999997e-005
 17 680 0 712 667 713 562 677 678 0 576 +14 681 453 683 1e-008 690 668 685 38 68
2 +0 0 690 668 36 53 682 454 0 681 691 669 0 +-0.0007879187200010056 0.000400078
7045049235 0.0008120000174845547 1.2e-005 0 -4.37113882867379e-008 0.99999999999
99991 1 0 0 81 1 683 455 32 681 0 0 692 670 684 83 3 684 1 1 1 15 685 456 0 627
 681 0 17 686 0 685 627 676 542 689 687 0 550 -16 687 457 0 ?689 678 696 688 0 0
 1 31 688 458 0 687 697 679 0 +-0.0007879187200010056 0.0004000787045049235 0.00
08120000174845547 1 0 0 0 -0.9999999999999991 -4.37113882867379e-008 1.200000000
000002e-005 17 689 0 721 453 550 449 686 687 0 676 +14 690 459 692 1e-008 699 68
1 694 38 691 +0 0 699 681 36 53 691 460 0 690 700 682 0 +-0.0005119187200010056
 0.000400078739474034 1.20000174845553e-005 1.2e-005 0 -4.37113882867379e-008 0.
9999999999999991 1 0 0 81 1 692 461 32 690 0 0 701 683 693 83 3 693 1 1 1 15 694
 462 0 649 690 0 17 695 0 694 649 636 45 698 696 0 70 -16 696 463 0 ?698 687 705
 697 0 0 1 31 697 464 0 696 706 688 0 +-0.0005119187200010056 0.0004000787394740
34 1.20000174845553e-005 2.823443157514343e-015 -4.371138814556574e-008 0.999999
9999999991 1 1.234166201636427e-022 -2.823443157514339e-015 1.199999999999997e-0
05 17 698 0 730 532 70 528 695 696 0 527 +14 699 465 701 1e-008 708 690 703 38 7
00 +0 0 708 690 36 53 700 466 0 699 709 691 0 +-0.0005119187200010056 -0.0003999
212605259651 1.199998251544468e-005 1.2e-005 0 -4.37113882867379e-008 0.99999999
99999991 1 0 0 81 1 701 467 32 699 0 0 710 692 702 83 3 702 1 1 1 15 703 468 0 6
58 699 0 17 704 0 703 658 645 475 707 705 0 474 -16 705 469 0 ?707 696 714 706 0
 0 1 31 706 470 0 705 715 697 0 +-0.0005119187200010056 -0.0003999212605259651 1
.199998251544464e-005 -0 -4.37113856044669e-008 0.9999999999999991 0 0.999999999
9999991 4.37113856044669e-008 1.200000000000002e-005 17 707 0 739 13 474 9 704 7
05 0 49 +14 708 471 710 1e-008 717 699 712 38 709 +0 0 717 699 36 53 709 472 0 7
08 718 700 0 +-0.0007879187200010056 -0.0003999212954950759 0.000811999982515444
1 1.2e-005 0 -4.37113882867379e-008 0.9999999999999991 1 0 0 81 1 710 473 32 708
 0 0 719 701 711 83 3 711 1 1 1 15 712 474 0 680 708 0 17 713 0 712 680 667 455
 716 714 0 0 -16 714 475 0 ?716 705 723 715 0 0 1 31 715 476 0 714 724 706 0 +-0
.0007879187200010056 -0.0003999212954950759 0.0008119999825154441 1 0 0 0 -0.999
9999999999991 -4.37113882867379e-008 1.200000000000002e-005 17 716 0 748 482 463
 478 713 714 0 488 +14 717 477 719 1e-008 726 708 721 38 718 +0 0 726 708 36 51
 718 478 0 717 727 709 0 +-0.0004999187200010056 0.0004000787045049235 0.0008120
000174845547 -1 -0 0 1.200000000000002e-005 0 -0.9999999999999991 -4.37113882867
379e-008 81 1 719 479 32 717 0 0 728 710 720 83 3 720 1 1 1 15 721 480 0 689 717
 0 17 722 0 721 550 453 533 725 723 0 734 -16 723 481 0 ?725 714 732 724 0 0 1 3
1 724 482 0 723 733 715 0 +-0.0005119187200010056 0.0004000787045049235 0.000812
0000174845547 1 0 -0 0 0.9999999999999991 4.37113882867379e-008 1.20000000000000
2e-005 17 725 0 757 758 734 441 722 723 0 761 +14 726 483 728 1e-008 735 717 730
 38 727 +0 0 735 717 36 51 727 484 0 726 736 718 0 +-0.0005119187200010056 0.000
400078703980387 0.0008240000174845545 0 -4.371138815515996e-008 0.99999999999999
91 1.200000000000002e-005 0 -0.9999999999999991 -4.371138815515996e-008 81 1 728
 485 32 726 0 0 737 719 729 83 3 729 1 1 1 15 730 486 0 698 726 0 17 731 0 730 7
0 532 66 734 732 0 758 -16 732 487 0 ?734 723 741 733 0 0 1 31 733 488 0 732 742
 724 0 +-0.0005119187200010056 0.0004000787045049236 0.0008120000174845547 0 -4.
37113882867379e-008 0.9999999999999991 0 -0.9999999999999991 -4.37113882867379e-
008 1.200000000000002e-005 17 734 0 757 725 758 533 731 732 0 0 +14 735 489 737
 1e-008 744 726 739 38 736 +0 0 744 726 36 51 736 490 0 735 745 727 0 +-0.000511
9187200010056 -0.0003999212960196125 0.0008239999825154439 0 4.371138841831583e-
008 -0.9999999999999991 1.200000000000002e-005 0 0.9999999999999991 4.3711388418
31583e-008 81 1 737 491 32 735 0 0 746 728 738 83 3 738 1 1 1 15 739 492 0 707 7
35 0 17 740 0 739 474 13 470 743 741 0 752 -16 741 493 0 ?743 732 750 742 0 0 1
 31 742 494 0 741 751 733 0 +-0.0005119187200010056 -0.0003999212954950759 0.000
8119999825154441 0 -4.37113882867379e-008 0.9999999999999991 0 -0.99999999999999
91 -4.37113882867379e-008 1.200000000000002e-005 17 743 0 766 767 752 14 740 741
 0 0 +14 744 495 746 1e-008 753 735 748 38 745 +0 0 753 735 36 51 745 496 0 744
 754 736 0 +-0.0004999187200010056 -0.0003999212954950759 0.0008119999825154441
 -1 -0 0 1.200000000000002e-005 0 -0.9999999999999991 -4.37113882867379e-008 81
 1 746 497 32 744 0 0 755 737 747 83 3 747 1 1 1 15 748 498 0 716 744 0 17 749 0
 748 463 482 446 752 750 0 0 -16 750 499 0 ?752 741 759 751 0 0 1 31 751 500 0 7
50 760 742 0 +-0.0005119187200010056 -0.0003999212954950759 0.000811999982515444
1 1 0 -0 0 0.9999999999999991 4.37113882867379e-008 1.200000000000002e-005 17 75
2 0 766 743 767 470 749 750 0 0 +14 753 501 755 1e-008 762 744 757 38 754 +0 0 7
62 744 36 53 754 502 0 753 763 745 0 +-0.0005119187200010056 0.00040007870450492
35 0.0008120000174845547 1.2e-005 0 -4.37113882867379e-008 0.9999999999999991 1
 0 0 81 1 755 503 32 753 0 0 764 746 756 83 3 756 1 1 1 15 757 504 0 734 753 0 1
7 758 0 757 734 725 66 761 759 0 0 -16 759 505 0 ?761 750 768 760 0 0 1 31 760 5
06 0 759 769 751 0 +-0.0005119187200010056 0.0004000787045049235 0.0008120000174
845547 4.517509052022949e-015 -0.9999999999999991 -4.37113882867379e-008 -1 -4.5
17509052022944e-015 -1.974665922618283e-022 1.199999999999997e-005 17 761 0 775
 445 89 441 758 759 0 0 +14 762 507 764 1e-008 771 753 766 38 763 +0 0 771 753 3
6 53 763 508 0 762 772 754 0 +-0.0005119187200010056 -0.0003999212954950759 0.00
08119999825154441 1.2e-005 0 -4.37113882867379e-008 0.9999999999999991 1 0 0 81
 1 764 509 32 762 0 0 773 755 765 83 3 765 1 1 1 15 766 510 0 752 762 0 17 767 0
 766 752 743 446 770 768 0 749 -16 768 511 0 ?770 759 0 769 0 0 1 31 769 512 0 7
68 0 760 0 +-0.0005119187200010056 -0.0003999212954950759 0.0008119999825154441
 -0 0.9999999999999991 4.37113882867379e-008 1 0 0 1.199999999999997e-005 17 770
 0 775 89 445 14 767 768 0 743 +14 771 513 773 1e-008 0 762 775 38 772 +0 0 0 76
2 36 51 772 514 0 771 0 763 0 +-0.0005119187200010056 -0.0004119212954950758 0.0
008119999819909074 0 -0.9999999999999991 -4.37113882867379e-008 1.19999999999999
7e-005 1 0 0 81 1 773 515 32 771 0 0 0 764 774 83 3 774 1 1 1 15 775 516 0 761 7
71 0 1 0 
