**ABCDEFGHIJKLMNOPQRSTUVWXYZabcdefghijklmnopqrstuvwxyz**************************
**PARASOLID !"#$%&'()*+,-./:;<=>?@[\]^_`{|}~0123456789**************************
**PART1;
MC=x86;
MC_MODEL=Intel64 Family 6 Model 158 Stepping 12, GenuineIntel;
MC_ID=unknown;
OS=Windows_NT;
OS_RELEASE=unknown;
FRU=CAD Exchanger 3.4.0 (cadexchanger.com);
APPL=unknown;
SITE=unknown;
USER=unknown;
FORMAT=text;
GUISE=transmit;
KEY=SOD523F_Diode_Schottky;
FILE=SOD523F_Diode_Schottky.x_t;
DATE=Thu Oct 24 23:00:19 2019;
**PART2;
SCH=SCH_1200000_12006;
USFLD_SIZE=0;
**PART3;
**END_OF_HEADER*****************************************************************
T51 : TRANSMIT FILE created by modeller version 120000017 SCH_1200000_120060 12
 1 314 0 2 0 0 0 0 1000 1e-008 0 0 0 1 0 1 1 38 6 12 10 35 11 9 70 2 0 1 0 0 4 1
 20 0 3 3 1 T74 20 3 1 0 4 0 0 0 0 0 0 0 0 0 0 0 0 0 0 0 0 0 0 0 81 1 4 7 32 5 0
 0 41 0 34 14 5 5 4 1e-008 39 0 7 38 6 +0 0 39 0 36 50 6 6 0 5 40 0 0 +8.1279998
99443239e-008 1.218915860892622e-007 0.0006499999999999994 0 -4.37113882867379e-
008 0.9999999999999991 0 -0.9999999999999991 -4.37113882867379e-008 15 7 8 0 8 5
 0 17 8 0 7 16 28 9 13 11 0 213 +18 9 9 0 8 0 14 10 ?1 29 10 10 0 9 15 0 0.00024
73970900062725 -0.0002971939184211886 0.0006499999870039127 16 11 11 0 ?8 0 19 1
2 0 0 1 30 12 12 0 11 20 0 0 +0.0005432136487071435 -0.0002971939184211885 0.000
6499999870039127 1 1.807003620809172e-016 7.898663690473109e-024 17 13 0 310 311
 213 14 8 11 0 28 -18 14 13 0 13 9 17 15 ?1 29 15 14 0 14 18 10 -0.0004972345300
082836 -0.0002971939184211887 0.0006499999870039127 17 16 0 7 22 8 17 21 19 0 27
 +18 17 15 0 16 14 23 18 ?1 29 18 16 0 17 24 15 0.0002473970900062725 0.00029743
77015933672 0.0006500000129960863 16 19 17 0 ?16 11 25 20 0 0 1 30 20 18 0 19 26
 12 0 +0.0002473970900062725 1.218915860893073e-007 0.0006499999999999994 -1.823
317388434479e-016 0.9999999999999991 4.37113882867379e-008 17 21 0 207 208 220 9
 16 19 0 0 -17 22 0 7 28 16 23 27 25 0 372 +18 23 19 0 22 17 45 24 ?1 29 24 20 0
 23 46 18 -0.0004972345300082836 0.0002974377015933671 0.0006500000129960863 16
 25 21 0 ?22 19 29 26 0 0 1 30 26 22 0 25 30 20 0 +-0.0005430510887091546 0.0002
974377015933671 0.0006500000129960863 -1 -1.807003620809172e-016 -7.898663690473
109e-024 17 27 0 404 223 399 17 22 25 0 220 -17 28 0 7 8 22 14 31 29 0 314 +16 2
9 23 0 ?28 25 47 30 0 0 1 30 30 24 0 29 48 26 0 +-0.0004972345300082836 -0.00034
30104771220598 0.0006499999850012073 0 -0.9999999999999991 -4.37113882867379e-00
8 17 31 0 368 369 345 23 28 29 0 399 -80 1 32 0 33 8001 0 0 0 0 3 5 0 0 FFFFTFTF
FFFFFF2 79 15 33 SDL/TYSA_COLOUR83 3 34 1 1 1 19 35 1 0 1 37 0 36 V13 36 2 0 1 0
 0 0 0 35 5 19 37 3 0 1 0 35 38 S13 38 4 0 1 0 5 0 0 37 0 14 39 25 41 1e-008 92
 5 43 38 40 +0 0 92 5 36 50 40 26 0 39 93 6 0 +-0.0005999187200010056 -0.0003998
780800015081 -1.748455531469516e-011 -0.9961946980917456 -3.809698512661935e-009
 0.08715574274765829 -0.08715574274765837 4.354505325747792e-008 -0.996194698091
7447 81 1 41 27 32 39 0 0 94 4 42 83 3 42 1 1 1 15 43 28 0 44 39 0 17 44 0 43 52
 88 45 49 47 0 57 -18 45 29 0 44 23 50 46 ?1 29 46 30 0 45 51 24 -0.000599918720
0010054 -0.0001498780800015083 -6.556708243010687e-012 16 47 31 0 ?49 29 55 48 0
 0 1 30 48 32 0 47 56 30 0 +-0.0005999187200010055 -0.0001498780800015083 -6.556
708245584688e-012 0.08715574274765837 -4.354505324714259e-008 0.9961946980917447
 17 49 0 474 469 268 50 44 47 0 466 +18 50 33 0 49 45 53 51 ?1 29 51 34 0 50 54
 46 -0.0005867954204721169 -0.0001498780865582165 0.0001499999934432916 17 52 0
 43 58 44 53 57 55 0 254 +18 53 35 0 63 50 59 54 ?1 29 54 36 0 53 60 51 -0.00059
99187200010055 -0.0003500683450969209 -1.530730265182127e-011 16 55 37 0 ?52 47
 61 56 0 0 1 30 56 38 0 55 62 48 0 +-0.0005999187200010055 -0.000399878080001508
1 -1.748455531469516e-011 0 -0.9999999999999991 -4.37113882867379e-008 17 57 0 2
28 263 254 45 52 55 0 268 -17 58 0 43 64 52 59 63 61 0 324 +18 59 39 0 69 53 65
 60 ?1 29 60 40 0 59 66 54 -0.0005470442649128709 -0.0002971939164261042 0.00060
43577741412956 16 61 41 0 ?58 55 67 62 0 0 1 30 62 42 0 61 68 56 0 +-0.000600294
228489686 -0.0003504438533979884 -4.292096989464981e-006 0.08682659386424778 0.0
8682655048364497 0.992432512934277 17 63 0 323 262 324 53 58 61 0 52 -17 64 0 43
 70 58 65 69 67 0 75 +18 65 43 0 64 59 71 66 ?1 29 66 44 0 65 72 60 -0.000547044
2649128709 0.0002974377035884515 0.0006043578001334691 16 67 45 0 ?64 61 73 68 0
 0 1 30 68 46 0 67 74 62 0 +-0.0005470442649128709 0.0003432542622893227 0.00060
43578021361746 0 0.9999999999999991 4.37113882867379e-008 17 69 0 368 345 369 59
 64 67 0 58 -17 70 0 43 76 64 71 75 73 0 81 +18 71 47 0 70 65 77 72 ?1 29 72 48
 0 71 78 66 -0.0005999187200010055 0.000350312185093904 1.530730265182126e-011 1
6 73 49 0 ?70 67 79 74 0 0 1 30 74 50 0 73 80 68 0 +-0.0005942631425680323 0.000
3446566048352716 6.464356092128949e-005 -0.08682659386424779 0.08682663724485046
 -0.9924325053436552 17 75 0 377 378 287 65 70 73 0 369 -17 76 0 43 82 70 77 81
 79 0 87 +18 77 51 0 76 71 83 78 ?1 29 78 52 0 77 84 72 -0.0005999187200010055 0
.0001501219199984915 6.556708243010686e-012 16 79 53 0 ?76 73 85 80 0 0 1 30 80
 54 0 79 86 74 0 +-0.0005999187200010055 -0.0003998780800015081 -1.7484555314695
16e-011 0 -0.9999999999999991 -4.37113882867379e-008 17 81 0 228 279 275 71 76 7
9 0 287 -17 82 0 43 88 76 83 87 85 0 459 -18 83 55 0 82 77 98 84 ?1 29 84 56 0 8
3 99 78 -0.0005867954204721169 0.0001501219134417834 0.0001500000065567081 16 85
 57 0 ?87 79 89 86 0 0 1 30 86 58 0 85 90 80 0 +-0.0005999187200010055 0.0001501
219199984914 6.55670823734788e-012 -0.08715574274765837 4.354505324714259e-008 -
0.9961946980917447 17 87 0 483 278 459 77 82 85 0 275 +17 88 0 43 44 82 50 91 89
 0 0 +16 89 59 0 ?88 85 100 90 0 0 1 30 90 60 0 89 101 86 0 +-0.0005867954204721
169 -0.0003998780865582163 0.0001499999825154445 0 -0.9999999999999991 -4.371138
82867379e-008 17 91 0 453 454 466 83 88 89 0 0 -14 92 61 94 1e-008 145 39 96 38
 93 +0 0 145 39 36 50 93 62 0 92 146 40 0 +0.0006000812799989944 -0.000399878080
001508 -1.748455531469515e-011 0.9961946980917456 -3.809698512661935e-009 0.0871
5574274765829 -0.08715574274765837 -4.354505325747792e-008 0.9961946980917447 81
 1 94 63 32 92 0 0 147 41 95 83 3 95 1 1 1 15 96 64 0 97 92 0 17 97 0 96 105 141
 98 102 100 0 434 -18 98 65 0 97 83 103 99 ?1 29 99 66 0 98 104 84 0.00058695798
04701058 -0.0001498780865582165 0.0001499999934432916 16 100 67 0 ?102 89 108 10
1 0 0 1 30 101 68 0 100 109 90 0 +0.0006000812799989944 -0.0001498780800015081 -
6.556708240436681e-012 0.08715574274765837 4.354505326781325e-008 -0.99619469809
17447 17 102 0 448 244 434 103 97 100 0 141 +18 103 69 0 241 98 106 104 ?1 29 10
4 70 0 103 107 99 0.0006000812799989944 -0.0001498780800015082 -6.55670824301068
3e-012 17 105 0 96 111 97 106 110 108 0 435 +18 106 71 0 116 103 112 107 ?1 29 1
07 72 0 106 113 104 0.0005869579804701058 0.0001501219134417834 0.00015000000655
67081 16 108 73 0 ?105 100 114 109 0 0 1 30 109 74 0 108 115 101 0 +0.0005869579
804701058 -0.0003998780865582162 0.0001499999825154445 -0 0.9999999999999991 4.3
7113882867379e-008 17 110 0 430 431 435 98 105 108 0 0 -17 111 0 96 117 105 112
 116 114 0 122 -18 112 75 0 111 106 118 113 ?1 29 113 76 0 112 119 107 0.0006000
812799989944 0.0001501219199984916 6.556708243010688e-012 16 114 77 0 ?116 108 1
20 115 0 0 1 30 115 78 0 114 121 109 0 +0.0006000812799989944 0.0001501219199984
916 6.556708248673491e-012 -0.08715574274765837 -4.354505326781325e-008 0.996194
6980917447 17 116 0 443 438 234 106 111 114 0 105 +17 117 0 96 123 111 118 122 1
20 0 288 +18 118 79 0 128 112 124 119 ?1 29 119 80 0 118 125 113 0.0006000812799
989944 0.0003503121850939041 1.530730265182126e-011 16 120 81 0 ?117 114 126 121
 0 0 1 30 121 82 0 120 127 115 0 +0.0006000812799989944 -0.0003998780800015079 -
1.748455531469515e-011 0 0.9999999999999991 4.37113882867379e-008 17 122 0 228 2
29 288 112 117 120 0 234 -17 123 0 96 129 117 124 128 126 0 363 +18 124 83 0 123
 118 130 125 ?1 29 125 84 0 124 131 119 0.0005472068249108598 0.0002974377035884
516 0.0006043578001334691 16 126 85 0 ?123 120 132 127 0 0 1 30 127 86 0 126 133
 121 0 +0.0005944257025660211 0.0003446566048352718 6.46435609212895e-005 -0.086
82659386424779 -0.08682663724485049 0.9924325053436552 17 128 0 350 296 351 118
 123 126 0 117 -17 129 0 96 135 123 130 134 132 0 305 +18 130 87 0 140 124 136 1
31 ?1 29 131 88 0 130 137 125 0.0005472068249108598 -0.000297193916426104 0.0006
043577741412956 16 132 89 0 ?129 126 138 133 0 0 1 30 133 90 0 132 139 127 0 +0.
0005472068249108598 -0.0003430104751269752 0.0006043577721385901 0 -0.9999999999
999991 -4.37113882867379e-008 17 134 0 359 360 336 124 129 132 0 351 -17 135 0 9
6 141 129 136 140 138 0 253 +18 136 91 0 135 130 151 137 ?1 29 137 92 0 136 152
 131 0.0006000812799989944 -0.0003500683450969206 -1.530730265182126e-011 16 138
 93 0 ?135 132 142 139 0 0 1 30 139 94 0 138 143 133 0 +0.0006004567884876748 -0
.0003504438533979883 -4.292096989464978e-006 0.08682659386424778 -0.086826550483
64495 -0.992432512934277 17 140 0 301 302 253 130 135 138 0 129 -17 141 0 96 97
 135 103 144 142 0 0 +16 142 95 0 ?141 138 153 143 0 0 1 30 143 96 0 142 154 139
 0 +0.0006000812799989944 -0.0003998780800015079 -1.748455531469515e-011 0 0.999
9999999999991 4.37113882867379e-008 17 144 0 228 245 241 136 141 142 0 0 -14 145
 97 147 1e-008 174 92 149 38 146 +0 0 174 92 36 50 146 98 0 145 175 93 0 +0.0006
000812799989944 -0.000399878080001508 -1.748455531469515e-011 1.800127426482687e
-016 -0.9961947019014432 0.08715569920260503 6.162975822039155e-033 -0.087155699
20260503 -0.9961947019014432 81 1 147 99 32 145 0 0 176 94 148 83 3 148 1 1 1 15
 149 100 0 150 145 0 17 150 0 149 158 170 151 155 153 0 163 +18 151 101 0 150 13
6 156 152 ?1 29 152 102 0 151 157 137 -0.0004972345300082836 -0.0003470036513306
915 0.0006043577719640429 16 153 103 0 ?150 142 161 154 0 0 1 30 154 104 0 153 1
62 143 0 +-0.0005430510887091546 -0.0003470036513306915 0.0006043577719640429 -1
 -1.807003620809173e-016 -7.898663687391623e-024 17 155 0 310 315 311 156 150 15
3 0 302 -18 156 105 0 155 151 159 157 ?1 29 157 106 0 156 160 152 0.000497397090
0062724 -0.0003470036513306912 0.0006043577719640429 17 158 0 149 164 150 159 16
3 161 0 169 +18 159 107 0 158 156 165 160 ?1 29 160 108 0 159 166 157 -0.0005501
089850964182 -0.0003998780800015081 -1.748455531469516e-011 16 161 109 0 ?158 15
3 167 162 0 0 1 30 162 110 0 161 168 154 0 +-0.0005414378647026182 -0.0003912069
639400033 9.911134251914557e-005 -0.08682659386424781 -0.08682655048364497 -0.99
2432512934277 17 163 0 323 324 262 151 158 161 0 311 -17 164 0 149 170 158 165 1
69 167 0 173 +18 165 111 0 245 159 180 166 ?1 29 166 112 0 165 181 160 0.0005502
71545094407 -0.0003998780800015079 -1.748455531469515e-011 16 167 113 0 ?164 161
 171 168 0 0 1 30 168 114 0 167 172 162 0 +0.0006000812799989944 -0.000399878080
0015079 -1.748455531469515e-011 1 1.807003620809172e-016 7.898663690473109e-024
 17 169 0 228 254 245 159 164 167 0 262 -17 170 0 149 150 164 156 173 171 0 0 +1
6 171 115 0 ?170 167 182 172 0 0 1 30 172 116 0 171 183 168 0 +0.000550647053583
0875 -0.0004002535883025756 -4.292099166717648e-006 -0.08682659386424781 0.08682
655048364495 0.992432512934277 17 173 0 301 253 302 165 170 171 0 0 -14 174 117
 176 1e-008 203 145 178 38 175 +0 0 203 145 36 50 175 118 0 174 204 146 0 +0.000
6000812799989944 0.0004001219199984914 1.748455531469516e-011 -1.800127426482687
e-016 0.9961946942820461 0.08715578629271155 6.162975822039155e-033 -0.087155786
29271155 0.9961946942820461 81 1 176 119 32 174 0 0 205 147 177 83 3 177 1 1 1 1
5 178 120 0 179 174 0 17 179 0 178 187 199 180 184 182 0 192 +18 180 121 0 179 1
65 185 181 ?1 29 181 122 0 180 186 166 -0.0005501089850964182 0.0004001219199984
912 1.748455531469515e-011 16 182 123 0 ?179 171 190 183 0 0 1 30 183 124 0 182
 191 172 0 +0.0006000812799989944 0.0004001219199984914 1.748455531469516e-011 -
1 -1.807003620809172e-016 -7.898663690473109e-024 17 184 0 228 288 279 185 179 1
82 0 199 -18 185 125 0 184 180 188 186 ?1 29 186 126 0 185 189 181 0.00055027154
5094407 0.0004001219199984914 1.748455531469516e-011 17 187 0 178 193 179 188 19
2 190 0 378 +18 188 127 0 198 185 194 189 ?1 29 189 128 0 188 195 186 -0.0004972
345300082835 0.0003472474384930388 0.0006043578023107218 16 190 129 0 ?187 182 1
96 191 0 0 1 30 191 130 0 190 197 183 0 +-0.0005414378647026184 0.00039145079527
23962 9.911137673020275e-005 0.08682659386424782 -0.08682663724485046 0.99243250
53436552 17 192 0 377 287 378 180 187 190 0 279 -17 193 0 178 199 187 194 198 19
6 0 390 +18 194 131 0 193 188 209 195 ?1 29 195 132 0 194 210 189 0.000497397090
0062725 0.000347247438493039 0.0006043578023107218 16 196 133 0 ?193 190 200 197
 0 0 1 30 197 134 0 196 201 191 0 +0.0005432136487071435 0.000347247438493039 0.
0006043578023107218 1 1.807003620809173e-016 7.898663693554599e-024 17 198 0 404
 399 390 188 193 196 0 187 -17 199 0 178 179 193 185 202 200 0 296 +16 200 135 0
 ?199 196 211 201 0 0 1 30 201 136 0 200 212 197 0 +0.0005506470535830875 0.0004
004974286747847 -4.292064164779022e-006 0.08682659386424782 0.08682663724485049
 -0.9924325053436552 17 202 0 350 351 296 194 199 200 0 354 -14 203 137 205 1e-0
08 224 174 207 38 204 +0 0 224 174 36 50 204 138 0 203 225 175 0 +8.127999899443
239e-008 1.218915860892622e-007 0.0006499999999999994 0 -4.37113882867379e-008 0
.9999999999999991 0 -0.9999999999999991 -4.37113882867379e-008 81 1 205 139 32 2
03 0 0 226 176 206 83 3 206 1 1 1 15 207 140 0 21 203 0 17 208 0 207 214 21 209
 213 211 0 219 +18 209 141 0 208 194 215 210 ?1 29 210 142 0 209 216 195 0.00049
73970900062725 -0.0002971939184211885 0.0006499999870039127 16 211 143 0 ?208 20
0 217 212 0 0 1 30 212 144 0 211 218 201 0 +0.0005432136487071435 -0.00029719391
84211885 0.0006499999870039127 1 1.807003620809172e-016 7.898663690473109e-024 1
7 213 0 310 13 315 9 208 211 0 21 -17 214 0 207 220 208 215 219 217 0 387 +18 21
5 145 0 360 209 230 216 ?1 29 216 146 0 215 231 210 0.0004973970900062725 0.0002
974377015933672 0.0006500000129960863 16 217 147 0 ?214 211 221 218 0 0 1 30 218
 148 0 217 222 212 0 +0.0004973970900062725 0.0003432542602942383 0.000650000014
9987917 0 0.9999999999999991 4.37113882867379e-008 17 219 0 359 336 360 209 214
 217 0 333 -17 220 0 207 21 214 17 223 221 0 0 +16 221 149 0 ?220 217 232 222 0
 0 1 30 222 150 0 221 233 218 0 +-0.0005430510887091546 0.0002974377015933671 0.
0006500000129960863 -1 -1.807003620809172e-016 -7.898663690473109e-024 17 223 0
 404 390 27 215 220 221 0 0 -14 224 151 226 1e-008 297 203 228 38 225 -0 0 297 2
03 36 50 225 152 0 224 298 204 0 +8.127999899443239e-008 1.219199984916486e-007
 0 0 -4.37113882867379e-008 0.9999999999999991 0 -0.9999999999999991 -4.37113882
867379e-008 81 1 226 153 32 224 0 0 299 205 227 83 3 227 1 1 1 15 228 154 0 122
 224 0 17 229 0 228 235 122 230 234 232 0 415 -18 230 155 0 229 215 236 231 ?1 2
9 231 156 0 230 237 216 0.0008000812799989945 0.0001501219199984916 6.5567082430
10691e-012 16 232 157 0 ?234 221 238 233 0 0 1 30 233 158 0 232 239 222 0 +0.000
8000812799989945 0.0001501219199984916 6.556708243010691e-012 -1 -1.185846126156
019e-016 -5.183498046872977e-024 17 234 0 443 116 415 112 229 232 0 0 +17 235 0
 228 241 229 236 240 238 0 0 -18 236 159 0 244 230 264 237 ?1 29 237 160 0 236 2
65 231 0.0008000812799989945 -0.0001498780800015081 -6.556708243010679e-012 16 2
38 161 0 ?240 232 242 239 0 0 1 30 239 162 0 238 243 233 0 +0.000800081279998994
5 -0.0001498780800015081 -6.556708243010679e-012 0 0.9999999999999991 4.37113882
867379e-008 17 240 0 409 410 422 230 235 238 0 0 +17 241 0 228 144 235 103 244 2
42 0 102 -16 242 163 0 ?244 238 246 243 0 0 1 30 243 164 0 242 247 239 0 +0.0008
000812799989945 -0.0001498780800015081 -6.556708243010679e-012 1 1.1858461261560
19e-016 5.183498046872977e-024 17 244 0 448 425 102 236 241 242 0 422 +17 245 0
 228 169 144 165 253 246 0 164 +16 246 165 0 ?245 242 255 247 0 0 1 134 247 166
 0 246 256 243 0 +248 252 136 248 3 4 4 2 1 FFT1 249 250 251 45 16 249 0.0006000
812799989944 -0.0003500683450969206 -1.530730265182126e-011 1 0.0004839804885734
882 -0.0003059083796725238 -1.337597817099643e-011 0.8065248903853478 0.00046737
72436052923 -0.0003225116246407195 -1.410172905862106e-011 0.8065248903853478 0.
000550271545094407 -0.0003998780800015079 -1.748455531469515e-011 1 127 2 250 4
 4 128 2 251 5.501585242055419 7.064785372303755 135 252 1 0 17 253 0 301 140 17
3 136 245 246 0 144 -17 254 0 228 57 169 53 262 255 0 0 +16 255 167 0 ?254 246 2
66 256 0 0 1 134 256 168 0 255 267 247 0 +257 261 136 257 3 4 4 2 1 FFT1 258 259
 260 45 16 258 -0.0005501089850964182 -0.0003998780800015081 -1.748455531469516e
-011 1 -0.0004672461349207331 -0.0003225116246407196 -1.410172905862106e-011 0.8
065248903853475 -0.000483849379888929 -0.0003059083796725238 -1.337597817099643e
-011 0.8065248903853475 -0.0005999187200010055 -0.0003500683450969209 -1.5307302
65182127e-011 1 127 2 259 4 4 128 2 260 5.501585242055419 7.064785372303756 135
 261 1 0 17 262 0 323 163 63 159 254 255 0 0 -17 263 0 228 269 57 264 268 266 0
 0 -18 264 169 0 274 236 270 265 ?1 29 265 170 0 264 271 237 -0.0007999187200010
057 -0.0001498780800015083 -6.556708243010688e-012 16 266 171 0 ?268 255 272 267
 0 0 1 30 267 172 0 266 273 256 0 +0.0008000812799989945 -0.0001498780800015081
 -6.556708243010679e-012 1 1.185846126156019e-016 5.183498046872977e-024 17 268
 0 474 49 475 45 263 266 0 0 +17 269 0 228 275 263 270 274 272 0 487 -18 270 173
 0 269 264 411 271 ?1 29 271 174 0 270 412 265 -0.0007999187200010057 0.00015012
19199984914 6.55670824301068e-012 16 272 175 0 ?274 266 276 273 0 0 1 30 273 176
 0 272 277 267 0 +-0.0007999187200010057 -0.0001498780800015083 -6.5567082430106
88e-012 0 -0.9999999999999991 -4.37113882867379e-008 17 274 0 492 478 487 264 26
9 272 0 475 +17 275 0 228 81 269 77 278 276 0 0 -16 276 177 0 ?278 272 280 277 0
 0 1 30 277 178 0 276 281 273 0 +0.0008000812799989945 0.0001501219199984916 6.5
56708243010691e-012 -1 -1.185846126156019e-016 -5.183498046872977e-024 17 278 0
 483 484 87 270 275 276 0 0 +17 279 0 228 184 81 180 287 280 0 0 +16 280 179 0 ?
279 276 289 281 0 0 1 134 281 180 0 280 290 277 0 +282 286 136 282 3 4 4 2 1 FFT
1 283 284 285 45 16 283 -0.0005999187200010055 0.000350312185093904 1.5307302651
82126e-011 1 -0.0004838493798889294 0.0003061050426993625 1.337597817099644e-011
 0.8065248903853481 -0.0004672461349207335 0.0003227082876675582 1.4101729058621
07e-011 0.8065248903853481 -0.0005501089850964182 0.0004001219199984912 1.748455
531469515e-011 1 127 2 284 4 4 128 2 285 5.501585242055421 7.064785372303755 135
 286 1 0 17 287 0 377 75 192 71 279 280 0 0 -17 288 0 228 122 184 118 296 289 0
 0 +16 289 181 0 ?288 280 303 290 0 0 1 134 290 182 0 289 304 281 0 +291 295 136
 291 3 4 4 2 1 FFT1 292 293 294 45 16 292 0.000550271545094407 0.000400121919998
4914 1.748455531469516e-011 1 0.0004673772436052923 0.0003227082876675582 1.4101
72905862107e-011 0.8065248903853478 0.0004839804885734882 0.0003061050426993624
 1.337597817099644e-011 0.8065248903853478 0.0006000812799989944 0.0003503121850
939041 1.530730265182126e-011 1 127 2 293 4 4 128 2 294 5.501585242055419 7.0647
85372303756 135 295 1 0 17 296 0 350 202 128 185 288 289 0 0 -14 297 183 299 1e-
008 306 224 301 38 298 +0 0 306 224 36 51 298 184 0 297 307 225 0 +0.00055064705
35830875 -0.0003504438532075034 -8.649884126847893e-006 0.08682659386424781 -0.0
8682655048364495 -0.9924325129342771 5.000000000000005e-005 0.9961946980917456 -
3.809698506590404e-009 0.08715574274765831 81 1 299 185 32 297 0 0 308 226 300 8
3 3 300 1 1 1 15 301 186 0 253 297 0 17 302 0 301 173 140 156 305 303 0 318 -16
 303 187 0 ?305 289 312 304 0 0 1 31 304 188 0 303 313 290 0 +0.0004973970900062
724 -0.0002971939162356191 0.0005999999870039127 -0.08682659386424747 0.08682655
048364488 0.9924325129342771 1.734723475976807e-018 -0.9961947019014432 0.087155
69920260496 4.999999999999999e-005 17 305 0 332 333 318 130 302 303 0 336 +14 30
6 189 308 1e-008 319 297 310 38 307 +0 0 319 297 36 51 307 190 0 306 320 298 0 +
8.127999899448611e-008 -0.0002971939162356192 0.0005999999870039127 1 1.80700362
0809172e-016 7.898663690473109e-024 5.000000000000002e-005 -1.807003620809174e-0
16 0.9999999999999991 4.37113882867379e-008 81 1 308 191 32 306 0 0 321 299 309
 83 3 309 1 1 1 15 310 192 0 311 306 0 17 311 0 310 155 13 151 314 312 0 327 -16
 312 193 0 ?314 303 316 313 0 0 1 31 313 194 0 312 317 304 0 +-0.000497234530008
2836 -0.0002971939162356193 0.0005999999870039127 -1 -0 0 0 -0.9999999999999991
 -4.37113882867379e-008 5.000000000000002e-005 17 314 0 341 342 327 14 311 312 0
 345 +17 315 0 310 213 155 209 318 316 0 0 -16 316 195 0 ?318 312 325 317 0 0 1
 31 317 196 0 316 326 313 0 +0.0004973970900062725 -0.0002971939162356191 0.0005
999999870039127 1 -2.176687297297085e-015 -9.514602363096304e-023 2.176687297297
087e-015 0.9999999999999991 4.37113882867379e-008 5.000000000000002e-005 17 318
 0 332 305 333 156 315 316 0 170 +14 319 197 321 1e-008 328 306 323 38 320 +0 0
 328 306 36 51 320 198 0 319 329 307 0 +-0.0005414378647026183 -0.00034139722884
49311 9.475355755901531e-005 -0.08682659386424781 -0.08682655048364497 -0.992432
5129342771 4.999999999999999e-005 -5.204170427930421e-018 0.9961947019014432 -0.
08715569920260505 81 1 321 199 32 319 0 0 330 308 322 83 3 322 1 1 1 15 323 200
 0 262 319 0 17 324 0 323 63 163 59 327 325 0 342 -16 325 201 0 ?327 316 334 326
 0 0 1 31 326 202 0 325 335 317 0 +-0.0004972345300082836 -0.0002971939162356193
 0.0005999999870039127 0.08682659386424765 0.08682655048364489 0.992432512934277
1 -4.336808689942017e-018 -0.9961947019014432 0.08715569920260498 4.999999999999
999e-005 17 327 0 341 314 342 151 324 325 0 0 +14 328 203 330 1e-008 337 319 332
 38 329 +0 0 337 319 36 53 329 204 0 328 338 320 0 +0.0004973970900062725 -0.000
2971939162356191 0.0005999999870039127 5e-005 0 -4.37113882867379e-008 0.9999999
999999991 1 0 0 81 1 330 205 32 328 0 0 339 321 331 83 3 331 1 1 1 15 332 206 0
 318 328 0 17 333 0 332 318 305 209 336 334 0 315 -16 334 207 0 ?336 325 343 335
 0 0 1 31 335 208 0 334 344 326 0 +0.0004973970900062725 -0.0002971939162356191
 0.0005999999870039127 -9.485539906266014e-017 0.9999999999999991 4.371138937094
007e-008 0 4.371138937094007e-008 -0.9999999999999991 5.000000000000002e-005 17
 336 0 359 134 219 130 333 334 0 0 +14 337 209 339 1e-008 346 328 341 38 338 +0
 0 346 328 36 53 338 210 0 337 347 329 0 +-0.0004972345300082836 -0.000297193916
2356193 0.0005999999870039127 5e-005 0 -4.37113882867379e-008 0.9999999999999991
 1 0 0 81 1 339 211 32 337 0 0 348 330 340 83 3 340 1 1 1 15 341 212 0 327 337 0
 17 342 0 341 327 314 59 345 343 0 0 -16 343 213 0 ?345 334 352 344 0 0 1 31 344
 214 0 343 353 335 0 +-0.0004972345300082836 -0.0002971939162356193 0.0005999999
870039127 -0 0.9999999999999991 4.37113882867379e-008 1 0 0 5.000000000000002e-0
05 17 345 0 368 31 69 14 342 343 0 0 +14 346 215 348 1e-008 355 337 350 38 347 +
0 0 355 337 36 51 347 216 0 346 356 338 0 +0.0005506470535830875 0.0003506876939
606824 -8.649853479414604e-006 0.08682659386424781 0.08682663724485047 -0.992432
5053436552 4.999999999999999e-005 3.469446951953614e-018 0.9961946942820461 0.08
715578629271156 81 1 348 217 32 346 0 0 357 339 349 83 3 349 1 1 1 15 350 218 0
 296 346 0 17 351 0 350 128 202 124 354 352 0 0 -16 352 219 0 ?354 343 361 353 0
 0 1 31 353 220 0 352 362 344 0 +0.0004973970900062725 0.0002974377037789366 0.0
006000000129960863 -0.08682659386424767 -0.08682663724485035 0.9924325053436552
 -7.806255641895632e-018 -0.9961946942820461 -0.08715578629271142 4.999999999999
999e-005 17 354 0 386 387 363 194 351 352 0 0 +14 355 221 357 1e-008 364 346 359
 38 356 +0 0 364 346 36 51 356 222 0 355 365 347 0 +0.0004973970900062725 1.2189
37716586766e-007 0.0005999999999999994 0 0.9999999999999991 4.37113882867379e-00
8 5.000000000000002e-005 -1 -0 0 81 1 357 223 32 355 0 0 366 348 358 83 3 358 1
 1 1 15 359 224 0 336 355 0 17 360 0 359 219 134 215 363 361 0 214 -16 361 225 0
 ?363 352 370 362 0 0 1 31 362 226 0 361 371 353 0 +0.0004973970900062725 0.0002
974377037789367 0.0006000000129960863 1.088343648648543e-015 0.9999999999999991
 4.37113882867379e-008 -1 1.088343648648541e-015 4.757301181548148e-023 5.000000
000000002e-005 17 363 0 386 354 387 124 360 361 0 134 +14 364 227 366 1e-008 373
 355 368 38 365 +0 0 373 355 36 51 365 228 0 364 374 356 0 +-0.00049723453000828
36 1.218937716586766e-007 0.0005999999999999994 0 -0.9999999999999991 -4.3711388
2867379e-008 5.000000000000002e-005 1 0 0 81 1 366 229 32 364 0 0 375 357 367 83
 3 367 1 1 1 15 368 230 0 345 364 0 17 369 0 368 69 31 65 372 370 0 381 -16 370
 231 0 ?372 361 379 371 0 0 1 31 371 232 0 370 380 362 0 +-0.0004972345300082836
 0.0002974377037789364 0.0006000000129960863 -9.485539906266014e-017 0.999999999
9999991 4.371138720253572e-008 0 -4.371138720253572e-008 0.9999999999999991 5.00
0000000000002e-005 17 372 0 395 396 381 23 369 370 0 31 +14 373 233 375 1e-008 3
82 364 377 38 374 +0 0 382 364 36 51 374 234 0 373 383 365 0 +-0.000544453407663
445 0.0003446566050257566 6.028577378390658e-005 -0.08682659386424781 0.08682663
724485044 -0.9924325053436552 5.000000000000005e-005 0.9961946980917456 3.809698
516998745e-009 -0.08715574274765831 81 1 375 235 32 373 0 0 384 366 376 83 3 376
 1 1 1 15 377 236 0 287 373 0 17 378 0 377 192 75 188 381 379 0 396 -16 379 237
 0 ?381 370 388 380 0 0 1 31 380 238 0 379 389 371 0 +-0.0004972345300082835 0.0
002974377037789364 0.0006000000129960863 0.08682659386424747 -0.0868266372448504
 0.9924325053436554 1.734723475976807e-018 -0.9961946942820461 -0.08715578629271
148 4.999999999999999e-005 17 381 0 395 372 396 65 378 379 0 0 +14 382 239 384 1
e-008 391 373 386 38 383 +0 0 391 373 36 53 383 240 0 382 392 374 0 +0.000497397
0900062725 0.0002974377037789367 0.0006000000129960863 5e-005 0 -4.3711388286737
9e-008 0.9999999999999991 1 0 0 81 1 384 241 32 382 0 0 393 375 385 83 3 385 1 1
 1 15 386 242 0 363 382 0 17 387 0 386 363 354 215 390 388 0 223 -16 388 243 0 ?
390 379 397 389 0 0 1 31 389 244 0 388 398 380 0 +0.0004973970900062725 0.000297
4377037789367 0.0006000000129960863 -1 0 0 0 0.9999999999999991 4.37113882867379
e-008 5.000000000000002e-005 17 390 0 404 198 223 194 387 388 0 202 +14 391 245
 393 1e-008 400 382 395 38 392 +0 0 400 382 36 53 392 246 0 391 401 383 0 +-0.00
04972345300082836 0.0002974377037789365 0.0006000000129960863 5e-005 0 -4.371138
82867379e-008 0.9999999999999991 1 0 0 81 1 393 247 32 391 0 0 402 384 394 83 3
 394 1 1 1 15 395 248 0 381 391 0 17 396 0 395 381 372 188 399 397 0 0 -16 397 2
49 0 ?399 388 413 398 0 0 1 31 398 250 0 397 414 389 0 +-0.0004972345300082836 0
.0002974377037789365 0.0006000000129960863 1 -2.176687297297085e-015 -9.51460236
3096304e-023 -2.176687297297087e-015 -0.9999999999999991 -4.37113882867379e-008
 5.000000000000002e-005 17 399 0 404 27 198 23 396 397 0 0 +14 400 251 402 1e-00
8 405 391 404 38 401 +0 0 405 391 36 51 401 252 0 400 406 392 0 +8.1279998994378
67e-008 0.0002974377037789366 0.0006000000129960863 -1 -1.807003620809172e-016 -
7.898663690473109e-024 5.000000000000002e-005 1.807003620809174e-016 -0.99999999
99999991 -4.37113882867379e-008 81 1 402 253 32 400 0 0 407 393 403 83 3 403 1 1
 1 15 404 254 0 390 400 0 14 405 255 407 1e-008 426 400 409 38 406 -0 0 426 400
 36 50 406 256 0 405 427 401 0 +0.0008000812799989945 -0.0001498780865582163 0.0
001499999934432916 -1 -0 0 0 -0.9999999999999991 -4.37113882867379e-008 81 1 407
 257 32 405 0 0 428 402 408 83 3 408 0.8274509906768799 0.8392156958580017 0.827
4509906768799 15 409 258 0 240 405 0 17 410 0 409 416 240 411 415 413 0 0 -18 41
1 259 0 421 270 417 412 ?1 29 412 260 0 411 418 271 0.0008000812799989945 0.0001
501219134417834 0.0001500000065567081 16 413 261 0 ?415 397 419 414 0 0 1 30 414
 262 0 413 420 398 0 +0.0008000812799989945 0.0001501219134417834 0.000150000006
5567081 -0 4.37113882867379e-008 -0.9999999999999991 17 415 0 443 234 438 230 41
0 413 0 240 +17 416 0 409 422 410 417 421 419 0 425 -18 417 263 0 416 411 455 41
8 ?1 29 418 264 0 417 456 412 0.0008000812799989945 -0.0001498780865582163 0.000
1499999934432916 16 419 265 0 ?421 413 423 420 0 0 1 30 420 266 0 419 424 414 0
 +0.0008000812799989945 -0.0001498780865582163 0.0001499999934432916 0 0.9999999
999999991 4.37113882867379e-008 17 421 0 430 435 431 411 416 419 0 438 +17 422 0
 409 240 416 236 425 423 0 235 +16 423 267 0 ?422 419 432 424 0 0 1 30 424 268 0
 423 433 420 0 +0.0008000812799989945 -0.0001498780865582163 0.00014999999344329
16 -0 4.37113882867379e-008 -0.9999999999999991 17 425 0 448 434 244 417 422 423
 0 431 -14 426 269 428 1e-008 439 405 430 38 427 +0 0 439 405 36 50 427 270 0 42
6 440 406 0 +8.127999899443239e-008 1.219134417834056e-007 0.0001499999999999999
 0 -4.37113882867379e-008 0.9999999999999991 0 -0.9999999999999991 -4.3711388286
7379e-008 81 1 428 271 32 426 0 0 441 407 429 83 3 429 0.8274509906768799 0.8392
156958580017 0.8274509906768799 15 430 272 0 110 426 0 17 431 0 430 421 110 417
 434 432 0 0 +16 432 273 0 ?431 423 436 433 0 0 1 30 433 274 0 432 437 424 0 +0.
0008000812799989945 -0.0001498780865582163 0.0001499999934432916 1 1.18584612615
6019e-016 5.183498046872977e-024 17 434 0 448 102 425 98 431 432 0 110 -17 435 0
 430 110 421 106 438 436 0 0 +16 436 275 0 ?435 432 457 437 0 0 1 30 437 276 0 4
36 458 433 0 +0.0008000812799989945 0.0001501219134417834 0.0001500000065567081
 -1 -1.185846126156019e-016 -5.183498046872977e-024 17 438 0 443 415 116 411 435
 436 0 410 -14 439 277 441 1e-008 444 426 443 38 440 -0 0 444 426 36 50 440 278
 0 439 445 427 0 +0.0008000812799989945 0.0001501219134417834 0.0001500000065567
081 1.18584612615602e-016 -0.9999999999999991 -4.37113882867379e-008 1 1.1858461
26156019e-016 5.183498046872977e-024 81 1 441 279 32 439 0 0 446 428 442 83 3 44
2 0.8274509906768799 0.8392156958580017 0.8274509906768799 15 443 280 0 234 439
 0 14 444 281 446 1e-008 449 439 448 38 445 -0 0 449 439 36 50 445 282 0 444 450
 440 0 +0.0008000812799989945 -0.0001498780865582163 0.0001499999934432916 -1.18
584612615602e-016 0.9999999999999991 4.37113882867379e-008 -1 -1.185846126156019
e-016 -5.183498046872977e-024 81 1 446 283 32 444 0 0 451 441 447 83 3 447 0.827
4509906768799 0.8392156958580017 0.8274509906768799 15 448 284 0 434 444 0 14 44
9 285 451 1e-008 470 444 453 38 450 +0 0 470 444 36 50 450 286 0 449 471 445 0 +
8.127999899443239e-008 1.219134417834056e-007 0.0001499999999999999 0 -4.3711388
2867379e-008 0.9999999999999991 0 -0.9999999999999991 -4.37113882867379e-008 81
 1 451 287 32 449 0 0 472 446 452 83 3 452 0.8274509906768799 0.8392156958580017
 0.8274509906768799 15 453 288 0 91 449 0 17 454 0 453 460 91 455 459 457 0 465
 +18 455 289 0 454 417 461 456 ?1 29 456 290 0 455 462 418 -0.000799918720001005
7 0.0001501219134417832 0.0001500000065567081 16 457 291 0 ?454 436 463 458 0 0
 1 30 458 292 0 457 464 437 0 +0.0008000812799989945 0.0001501219134417834 0.000
1500000065567081 -1 -1.185846126156019e-016 -5.183498046872977e-024 17 459 0 483
 87 484 83 454 457 0 91 -17 460 0 453 466 454 461 465 463 0 0 +18 461 293 0 469
 455 0 462 ?1 29 462 294 0 461 0 456 -0.0007999187200010057 -0.00014987808655821
65 0.0001499999934432916 16 463 295 0 ?460 457 467 464 0 0 1 30 464 296 0 463 46
8 458 0 +-0.0007999187200010057 -0.0001498780865582165 0.0001499999934432916 0 -
0.9999999999999991 -4.37113882867379e-008 17 465 0 492 487 478 455 460 463 0 484
 -17 466 0 453 91 460 50 469 467 0 88 +16 467 297 0 ?466 463 476 468 0 0 1 30 46
8 298 0 467 477 464 0 +0.0008000812799989945 -0.0001498780865582163 0.0001499999
934432916 1 1.185846126156019e-016 5.183498046872977e-024 17 469 0 474 475 49 46
1 466 467 0 478 -14 470 299 472 1e-008 479 449 474 38 471 -0 0 479 449 36 50 471
 300 0 470 480 450 0 +0.0008000812799989945 -0.0001498780865582163 0.00014999999
34432916 -1.18584612615602e-016 0.9999999999999991 4.37113882867379e-008 -1 -1.1
85846126156019e-016 -5.183498046872977e-024 81 1 472 301 32 470 0 0 481 451 473
 83 3 473 0.8274509906768799 0.8392156958580017 0.8274509906768799 15 474 302 0
 268 470 0 17 475 0 474 268 469 264 478 476 0 263 +16 476 303 0 ?475 467 485 477
 0 0 1 30 477 304 0 476 486 468 0 +-0.0007999187200010057 -0.0001498780865582165
 0.0001499999934432916 -0 4.37113882867379e-008 -0.9999999999999991 17 478 0 492
 465 274 461 475 476 0 460 -14 479 305 481 1e-008 488 470 483 38 480 -0 0 488 47
0 36 50 480 306 0 479 489 471 0 +0.0008000812799989945 0.0001501219134417834 0.0
001500000065567081 1.18584612615602e-016 -0.9999999999999991 -4.37113882867379e-
008 1 1.185846126156019e-016 5.183498046872977e-024 81 1 481 307 32 479 0 0 490
 472 482 83 3 482 0.8274509906768799 0.8392156958580017 0.8274509906768799 15 48
3 308 0 459 479 0 17 484 0 483 459 278 455 487 485 0 0 -16 485 309 0 ?487 476 0
 486 0 0 1 30 486 310 0 485 0 477 0 +-0.0007999187200010057 0.000150121913441783
2 0.0001500000065567081 -0 4.37113882867379e-008 -0.9999999999999991 17 487 0 49
2 274 465 270 484 485 0 278 +14 488 311 490 1e-008 0 479 492 38 489 -0 0 0 479 3
6 50 489 312 0 488 0 480 0 +-0.0007999187200010057 -0.0001498780865582165 0.0001
499999934432916 1 0 0 0 0.9999999999999991 4.37113882867379e-008 81 1 490 313 32
 488 0 0 0 481 491 83 3 491 0.8274509906768799 0.8392156958580017 0.827450990676
8799 15 492 314 0 274 488 0 1 0 
