**ABCDEFGHIJKLMNOPQRSTUVWXYZabcdefghijklmnopqrstuvwxyz**************************
**PARASOLID !"#$%&'()*+,-./:;<=>?@[\]^_`{|}~0123456789**************************
**PART1;
MC=x86;
MC_MODEL=Intel64 Family 6 Model 158 Stepping 12, GenuineIntel;
MC_ID=unknown;
OS=Windows_NT;
OS_RELEASE=unknown;
FRU=CAD Exchanger 3.4.0 (cadexchanger.com);
APPL=unknown;
SITE=unknown;
USER=unknown;
FORMAT=text;
GUISE=transmit;
KEY=SOD523F;
FILE=SOD523F.x_t;
DATE=Tue Nov 19 23:24:20 2019;
**PART2;
SCH=SCH_1200000_12006;
USFLD_SIZE=0;
**PART3;
**END_OF_HEADER*****************************************************************
T51 : TRANSMIT FILE created by modeller version 120000017 SCH_1200000_120060 12
 1 314 0 2 0 0 0 0 1000 1e-008 0 0 0 1 0 1 1 38 6 12 10 35 11 9 70 2 0 1 0 0 4 1
 20 0 3 3 1 T74 20 3 1 0 4 0 0 0 0 0 0 0 0 0 0 0 0 0 0 0 0 0 0 0 81 1 4 7 32 5 0
 0 41 0 34 14 5 5 4 1e-008 39 0 7 38 6 +0 0 39 0 36 50 6 6 0 5 40 0 0 +8.1279998
99940018e-008 1.218915860892622e-007 0.0006499999999999994 7.642741863815873e-01
5 -4.371138828673789e-008 0.9999999999999991 1.748455531469489e-007 -0.999999999
9999838 -4.371138828673856e-008 15 7 8 0 8 5 0 17 8 0 7 16 28 9 13 11 0 21 +18 9
 9 0 8 0 14 10 ?1 29 10 10 0 9 15 0 0.000247397141990621 -0.0002971938751791145
 0.0006499999870039127 16 11 11 0 ?8 0 19 12 0 0 1 30 12 12 0 11 20 0 0 +0.00054
32137006914875 -0.0002971938234569046 0.0006499999870039127 0.9999999999999848 1
.748455533276494e-007 7.898663690473228e-024 17 13 0 310 311 213 14 8 11 0 28 -1
8 14 13 0 13 9 17 15 ?1 29 15 14 0 14 18 10 -0.0004972344780239239 -0.0002971940
05374642 0.0006499999870039127 17 16 0 7 22 8 17 21 19 0 27 +18 17 15 0 16 14 23
 18 ?1 29 18 16 0 17 24 15 0.0002473970380219264 0.0002974377448354323 0.0006500
000129960863 16 19 17 0 ?16 11 25 20 0 0 1 30 20 18 0 19 26 12 0 +0.000247397090
0062737 1.2193482815891e-007 0.0006499999999999994 -1.748455533292806e-007 0.999
9999999999838 4.371138828673856e-008 17 21 0 207 208 220 9 16 19 0 213 -17 22 0
 7 28 16 23 27 25 0 31 +18 23 19 0 22 17 45 24 ?1 29 24 20 0 23 46 18 -0.0004972
345819926184 0.0002974376146399046 0.0006500000129960863 16 25 21 0 ?22 19 29 26
 0 0 1 30 26 22 0 25 30 20 0 +-0.0005430511406934887 0.0002974376066290831 0.000
6500000129960863 -0.9999999999999848 -1.748455533276494e-007 -7.898663690473228e
-024 17 27 0 404 223 399 17 22 25 0 220 -17 28 0 7 8 22 14 31 29 0 345 +16 29 23
 0 ?28 25 47 30 0 0 1 30 30 24 0 29 48 26 0 +-0.0004972344700131024 -0.000343010
5640755124 0.0006499999850012073 1.748455531469489e-007 -0.9999999999999838 -4.3
71138828673856e-008 17 31 0 368 369 345 23 28 29 0 372 -80 1 32 0 33 8001 0 0 0
 0 3 5 0 0 FFFFTFTFFFFFFF2 79 15 33 SDL/TYSA_COLOUR83 3 34 1 1 1 19 35 1 0 1 37
 0 36 V13 36 2 0 1 0 0 0 0 35 5 19 37 3 0 1 0 35 38 S13 38 4 0 1 0 5 0 0 37 0 14
 39 25 41 1e-008 92 5 43 38 40 +0 0 92 5 36 50 40 26 0 39 93 6 0 +-0.00059991865
00627753 -0.0003998781849088339 -1.748455531469543e-011 -0.9961946980917298 -1.7
79899115425711e-007 0.08715574274765829 -0.08715574274766466 2.830625920683039e-
008 -0.9961946980917447 81 1 41 27 32 39 0 0 94 4 42 83 3 42 1 1 1 15 43 28 0 44
 39 0 17 44 0 43 52 88 45 49 47 0 57 -18 45 29 0 44 23 50 46 ?1 29 46 30 0 45 51
 24 -0.0005999186937741634 -0.0001498781849088378 -6.556708243010785e-012 16 47
 31 0 ?49 29 55 48 0 0 1 30 48 32 0 47 56 30 0 +-0.0005999186937741635 -0.000149
8781849088379 -6.556708245584787e-012 0.08715574274766466 -2.830625919649506e-00
8 0.9961946980917447 17 49 0 474 469 268 50 44 47 0 88 +18 50 33 0 49 45 53 51 ?
1 29 51 34 0 50 54 46 -0.0005867953942452739 -0.0001498781891709955 0.0001499999
934432916 17 52 0 43 58 44 53 57 55 0 63 +18 53 35 0 52 50 59 54 ?1 29 54 36 0 5
3 60 51 -0.0005999186587717859 -0.0003500684500042474 -1.53073026518215e-011 16
 55 37 0 ?52 47 61 56 0 0 1 30 56 38 0 55 62 48 0 +-0.0005999186500627753 -0.000
3998781849088338 -1.748455531469543e-011 1.748455531469489e-007 -0.9999999999999
838 -4.371138828673856e-008 17 57 0 228 263 254 45 52 55 0 268 -17 58 0 43 64 52
 59 63 61 0 69 +18 59 39 0 58 53 65 60 ?1 29 60 40 0 59 66 54 -0.000547044212928
5107 -0.0002971940120885682 0.0006043577741412956 16 61 41 0 ?58 55 67 62 0 0 1
 30 62 42 0 61 68 56 0 +-0.0006002941671948102 -0.0003504439583709711 -4.2920969
89464981e-006 0.08682657868301022 0.08682656566488749 0.992432512934277 17 63 0
 323 262 324 53 58 61 0 254 -17 64 0 43 70 58 65 69 67 0 369 +18 65 43 0 75 59 7
1 66 ?1 29 66 44 0 65 72 60 -0.0005470443168972052 0.0002974376079259784 0.00060
43578001334691 16 67 45 0 ?64 61 73 68 0 0 1 30 68 46 0 67 74 62 0 +-0.000547044
3249080268 0.0003432541666268489 0.0006043578021361746 -1.748455531469489e-007 0
.9999999999999838 4.371138828673856e-008 17 69 0 368 345 369 59 64 67 0 342 -17
 70 0 43 76 64 71 75 73 0 81 +18 71 47 0 70 65 77 72 ?1 29 72 48 0 71 78 66 -0.0
00599918781230207 0.0003503120801865668 1.530730265182149e-011 16 73 49 0 ?70 67
 79 74 0 0 1 30 74 50 0 73 80 68 0 +-0.0005942632028083808 0.000344656500916787
 6.464356092128949e-005 -0.0868266090454979 0.08682662206360531 -0.9924325053436
552 17 75 0 377 378 287 65 70 73 0 381 -17 76 0 43 82 70 77 81 79 0 87 +18 77 51
 0 76 71 83 78 ?1 29 78 52 0 77 84 72 -0.0005999187462278294 0.00015012181509115
74 6.556708243010784e-012 16 79 53 0 ?76 73 85 80 0 0 1 30 80 54 0 79 86 74 0 +-
0.0005999186500627753 -0.0003998781849088338 -1.748455531469543e-011 1.748455531
469489e-007 -0.9999999999999838 -4.371138828673856e-008 17 81 0 228 279 275 71 7
6 79 0 287 -17 82 0 43 88 76 83 87 85 0 91 -18 83 55 0 459 77 98 84 ?1 29 84 56
 0 83 99 78 -0.0005867954466989398 0.0001501218108289998 0.0001500000065567081 1
6 85 57 0 ?87 79 89 86 0 0 1 30 86 58 0 85 90 80 0 +-0.0005999187462278294 0.000
1501218150911572 6.556708237347979e-012 -0.08715574274766466 2.830625919649506e-
008 -0.9961946980917447 17 87 0 483 278 459 77 82 85 0 275 +17 88 0 43 44 82 50
 91 89 0 466 +16 89 59 0 ?88 85 100 90 0 0 1 30 90 60 0 89 101 86 0 +-0.00058679
53505338857 -0.0003998781891709915 0.0001499999825154445 1.748455531469489e-007
 -0.9999999999999838 -4.371138828673856e-008 17 91 0 453 454 466 83 88 89 0 0 -1
4 92 61 94 1e-008 145 39 96 38 93 +0 0 145 39 36 50 93 62 0 92 146 40 0 +0.00060
00813499372065 -0.0003998779750941699 -1.748455531469542e-011 0.9961946980917311
 1.703705145172473e-007 0.08715574274765829 -0.08715574274764942 -5.878384730812
544e-008 0.9961946980917447 81 1 94 63 32 92 0 0 147 41 95 83 3 95 1 1 1 15 96 6
4 0 97 92 0 17 97 0 96 105 141 98 102 100 0 110 -18 98 65 0 434 83 103 99 ?1 29
 99 66 0 98 104 84 0.0005869580066969308 -0.0001498779839454329 0.00014999999344
32916 16 100 67 0 ?102 89 108 101 0 0 1 30 101 68 0 100 109 90 0 +0.000600081306
2258183 -0.000149877975094174 -6.55670824043678e-012 0.08715574274764942 5.87838
4731846077e-008 -0.9961946980917447 17 102 0 448 244 434 103 97 100 0 0 +18 103
 69 0 241 98 106 104 ?1 29 104 70 0 103 107 99 0.0006000813062258183 -0.00014987
7975094174 -6.556708243010782e-012 17 105 0 96 111 97 106 110 108 0 116 +18 106
 71 0 435 103 112 107 ?1 29 107 72 0 106 113 104 0.0005869579542432651 0.0001501
220160545624 0.0001500000065567081 16 108 73 0 ?105 100 114 109 0 0 1 30 109 74
 0 108 115 101 0 +0.0005869580504083192 -0.0003998779839454287 0.000149999982515
4445 -1.748455531469489e-007 0.9999999999999838 4.371138828673856e-008 17 110 0
 430 431 435 98 105 108 0 0 -17 111 0 96 117 105 112 116 114 0 234 -18 112 75 0
 111 106 118 113 ?1 29 113 76 0 112 119 107 0.0006000812537721524 0.000150122024
9058212 6.556708243010787e-012 16 114 77 0 ?116 108 120 115 0 0 1 30 115 78 0 11
4 121 109 0 +0.0006000812537721524 0.0001501220249058212 6.55670824867359e-012 -
0.08715574274764942 -5.878384731846077e-008 0.9961946980917447 17 116 0 443 438
 234 106 111 114 0 0 +17 117 0 96 123 111 118 122 120 0 288 +18 118 79 0 128 112
 124 119 ?1 29 119 80 0 118 125 113 0.0006000812187697747 0.0003503122900012306
 1.53073026518215e-011 16 120 81 0 ?117 114 126 121 0 0 1 30 121 82 0 120 127 11
5 0 +0.0006000813499372065 -0.0003998779750941699 -1.748455531469542e-011 -1.748
455531469489e-007 0.9999999999999838 4.371138828673856e-008 17 122 0 228 229 288
 112 117 120 0 0 -17 123 0 96 129 117 124 128 126 0 134 +18 124 83 0 363 118 130
 125 ?1 29 125 84 0 124 131 119 0.0005472067729265089 0.0002974377992509156 0.00
06043578001334691 16 126 85 0 ?123 120 132 127 0 0 1 30 127 86 0 126 133 121 0 +
0.0005944256423256546 0.0003446567087537458 6.46435609212895e-005 -0.08682657868
299505 -0.08682665242609301 0.9924325053436552 17 128 0 350 296 351 118 123 126
 0 117 -17 129 0 96 135 123 130 134 132 0 140 +18 130 87 0 129 124 136 131 ?1 29
 131 88 0 130 137 125 0.0005472068768952034 -0.0002971938207636309 0.00060435777
41412956 16 132 89 0 ?129 126 138 133 0 0 1 30 133 90 0 132 139 127 0 +0.0005472
06884906025 -0.0003430103794645014 0.0006043577721385901 1.748455531469489e-007
 -0.9999999999999838 -4.371138828673856e-008 17 134 0 359 360 336 124 129 132 0
 351 -17 135 0 96 141 129 136 140 138 0 253 +18 136 91 0 135 130 151 137 ?1 29 1
37 92 0 136 152 131 0.0006000813412281959 -0.0003500682401895834 -1.530730265182
149e-011 16 138 93 0 ?135 132 142 139 0 0 1 30 139 94 0 138 143 133 0 +0.0006004
568497825323 -0.0003504437484249951 -4.292096989464978e-006 0.08682660904548271
 -0.0868265353023998 -0.9924325129342771 17 140 0 301 302 253 130 135 138 0 305
 -17 141 0 96 97 135 103 144 142 0 102 +16 142 95 0 ?141 138 153 143 0 0 1 30 14
3 96 0 142 154 139 0 +0.0006000813499372065 -0.0003998779750941699 -1.7484555314
69542e-011 -1.748455531469489e-007 0.9999999999999838 4.371138828673856e-008 17
 144 0 228 245 241 136 141 142 0 0 -14 145 97 147 1e-008 174 92 149 38 146 +0 0
 174 92 36 50 146 98 0 145 175 93 0 +0.0006000813499372065 -0.000399877975094169
9 -1.748455531469542e-011 1.741802138760306e-007 -0.996194701901428 0.0871556992
0260503 1.523878643698859e-008 -0.0871556992026037 -0.9961947019014432 81 1 147
 99 32 145 0 0 176 94 148 83 3 148 1 1 1 15 149 100 0 150 145 0 17 150 0 149 158
 170 151 155 153 0 163 +18 151 101 0 150 136 156 152 ?1 29 152 102 0 151 157 137
 -0.0004972344693149136 -0.000347003738284144 0.0006043577719640429 16 153 103 0
 ?150 142 161 154 0 0 1 30 154 104 0 153 162 143 0 +-0.0005430510280157838 -0.00
03470037462949656 0.0006043577719640429 -0.9999999999999848 -1.748455533276494e-
007 -7.898663687391743e-024 17 155 0 310 315 311 156 150 153 0 170 -18 156 105 0
 155 151 159 157 ?1 29 157 106 0 156 160 152 0.0004973971506996273 -0.0003470035
64377228 0.0006043577719640429 17 158 0 149 164 150 159 163 161 0 169 +18 159 10
7 0 158 156 165 160 ?1 29 160 108 0 159 166 157 -0.0005501089151581886 -0.000399
8781761998232 -1.748455531469543e-011 16 161 109 0 ?158 153 167 162 0 0 1 30 162
 110 0 161 168 154 0 +-0.0005414377962804949 -0.0003912070586222117 9.9111342519
14557e-005 -0.08682657868301025 -0.08682656566488749 -0.992432512934277 17 163 0
 323 324 262 151 158 161 0 327 -17 164 0 149 170 158 165 169 167 0 173 +18 165 1
11 0 245 159 180 166 ?1 29 166 112 0 165 181 160 0.0005502716150326199 -0.000399
8779838031805 -1.748455531469542e-011 16 167 113 0 ?164 161 171 168 0 0 1 30 168
 114 0 167 172 162 0 +0.0006000813499372065 -0.0003998779750941699 -1.7484555314
69542e-011 0.9999999999999848 1.748455533276494e-007 7.898663690473228e-024 17 1
69 0 228 254 245 159 164 167 0 262 -17 170 0 149 150 164 156 173 171 0 302 +16 1
71 115 0 ?170 167 182 172 0 0 1 30 172 116 0 171 183 168 0 +0.000550647123586956
5 -0.0004002534920385922 -4.292099166717648e-006 -0.08682660904548273 0.08682653
530239978 0.992432512934277 17 173 0 301 253 302 165 170 171 0 0 -14 174 117 176
 1e-008 203 145 178 38 175 +0 0 203 145 36 50 175 118 0 174 204 146 0 +0.0006000
812100607641 0.0004001220249058171 1.748455531469543e-011 -1.741802125438129e-00
7 0.9961946942820309 0.08715578629271155 1.523880166430644e-008 -0.0871557862927
1022 0.9961946942820461 81 1 176 119 32 174 0 0 205 147 177 83 3 177 1 1 1 15 17
8 120 0 179 174 0 17 179 0 178 187 199 180 184 182 0 192 +18 180 121 0 179 165 1
85 181 ?1 29 181 122 0 180 186 166 -0.0005501090550346311 0.0004001218238001638
 1.748455531469542e-011 16 182 123 0 ?179 171 190 183 0 0 1 30 183 124 0 182 191
 172 0 +0.0006000812100607641 0.0004001220249058171 1.748455531469543e-011 -0.99
99999999999848 -1.748455533276494e-007 -7.898663690473228e-024 17 184 0 228 288
 279 185 179 182 0 199 -18 185 125 0 184 180 188 186 ?1 29 186 126 0 185 189 181
 0.0005502714751561775 0.0004001220161968065 1.748455531469543e-011 17 187 0 178
 193 179 188 192 190 0 198 +18 188 127 0 378 185 194 189 ?1 29 189 128 0 188 195
 186 -0.0004972345907016293 0.0003472473515395756 0.0006043578023107218 16 190 1
29 0 ?187 182 196 191 0 0 1 30 191 130 0 190 197 183 0 +-0.0005414379331247238 0
.0003914507005901758 9.911137673020275e-005 0.08682660904549792 -0.0868266220636
0531 0.9924325053436552 17 192 0 377 287 378 180 187 190 0 279 -17 193 0 178 199
 187 194 198 196 0 202 +18 194 131 0 390 188 209 195 ?1 29 195 132 0 194 210 189
 0.0004973970293129117 0.0003472475254464916 0.0006043578023107218 16 196 133 0
 ?193 190 200 197 0 0 1 30 197 134 0 196 201 191 0 +0.0005432135880137821 0.0003
472475334573131 0.0006043578023107218 0.9999999999999848 1.748455533276494e-007
 7.898663693554719e-024 17 198 0 404 399 390 188 193 196 0 396 -17 199 0 178 179
 193 185 202 200 0 296 +16 200 135 0 ?199 196 211 201 0 0 1 30 201 136 0 200 212
 197 0 +0.0005506469835792019 0.0004004975249387557 -4.292064164779022e-006 0.08
682657868299508 0.08682665242609301 -0.9924325053436552 17 202 0 350 351 296 194
 199 200 0 354 -14 203 137 205 1e-008 224 174 207 38 204 +0 0 224 174 36 50 204
 138 0 203 225 175 0 +8.127999899940018e-008 1.218915860892622e-007 0.0006499999
999999994 7.642741863815873e-015 -4.371138828673789e-008 0.9999999999999991 1.74
8455531469489e-007 -0.9999999999999838 -4.371138828673856e-008 81 1 205 139 32 2
03 0 0 226 176 206 83 3 206 1 1 1 15 207 140 0 21 203 0 17 208 0 207 214 21 209
 213 211 0 219 +18 209 141 0 333 194 215 210 ?1 29 210 142 0 209 216 195 0.00049
73971419906172 -0.0002971938314677261 0.0006499999870039127 16 211 143 0 ?208 20
0 217 212 0 0 1 30 212 144 0 211 218 201 0 +0.0005432137006914875 -0.00029719382
34569046 0.0006499999870039127 0.9999999999999848 1.748455533276494e-007 7.89866
3690473228e-024 17 213 0 310 13 315 9 208 211 0 0 -17 214 0 207 220 208 215 219
 217 0 223 +18 215 145 0 360 209 230 216 ?1 29 216 146 0 215 231 210 0.000497397
0380219226 0.0002974377885468206 0.0006500000129960863 16 217 147 0 ?214 211 221
 218 0 0 1 30 218 148 0 217 222 212 0 +0.000497397030011101 0.000343254347247690
9 0.0006500000149987917 -1.748455531469489e-007 0.9999999999999838 4.37113882867
3856e-008 17 219 0 359 336 360 209 214 217 0 315 -17 220 0 207 21 214 17 223 221
 0 0 +16 221 149 0 ?220 217 232 222 0 0 1 30 222 150 0 221 233 218 0 +-0.0005430
511406934887 0.0002974376066290831 0.0006500000129960863 -0.9999999999999848 -1.
748455533276494e-007 -7.898663690473228e-024 17 223 0 404 390 27 215 220 221 0 0
 -14 224 151 226 1e-008 297 203 228 38 225 -0 0 297 203 36 50 225 152 0 224 298
 204 0 +8.127999899443239e-008 1.219199984916486e-007 0 7.642741863815873e-015 -
4.371138828673789e-008 0.9999999999999991 1.748455531469489e-007 -0.999999999999
9838 -4.371138828673856e-008 81 1 226 153 32 224 0 0 299 205 227 83 3 227 1 1 1
 15 228 154 0 122 224 0 17 229 0 228 235 122 230 234 232 0 240 -18 230 155 0 229
 215 236 231 ?1 29 231 156 0 230 237 216 0.0008000812537721494 0.000150122059874
9319 6.55670824301079e-012 16 232 157 0 ?234 221 238 233 0 0 1 30 233 158 0 232
 239 222 0 +0.0008000812537721494 0.0001501220598749319 6.55670824301079e-012 -0
.9999999999999848 -1.748455532655337e-007 -5.183498046873056e-024 17 234 0 443 1
16 415 112 229 232 0 122 +17 235 0 228 241 229 236 240 238 0 0 -18 236 159 0 244
 230 264 237 ?1 29 237 160 0 236 265 231 0.0008000813062258152 -0.00014987794012
50633 -6.556708243010779e-012 16 238 161 0 ?240 232 242 239 0 0 1 30 239 162 0 2
38 243 233 0 +0.0008000813062258152 -0.0001498779401250633 -6.556708243010779e-0
12 -1.748455531469489e-007 0.9999999999999838 4.371138828673856e-008 17 240 0 40
9 410 422 230 235 238 0 415 +17 241 0 228 144 235 103 244 242 0 141 -16 242 163
 0 ?244 238 246 243 0 0 1 30 243 164 0 242 247 239 0 +0.0008000813062258152 -0.0
001498779401250633 -6.556708243010779e-012 0.9999999999999848 1.748455532655337e
-007 5.183498046873056e-024 17 244 0 448 425 102 236 241 242 0 422 +17 245 0 228
 169 144 165 253 246 0 164 +16 246 165 0 ?245 242 255 247 0 0 1 134 247 166 0 24
6 256 243 0 +248 252 136 248 3 4 4 2 1 FFT1 249 250 251 45 16 249 0.000600081341
2281959 -0.0003500682401895834 -1.530730265182149e-011 1 0.0004839805420773935 -
0.0003059082950621447 -1.337597817099663e-011 0.8065248903853478 0.0004673773000
122014 -0.0003225115429333437 -1.410172905862127e-011 0.8065248903853478 0.00055
02716150326199 -0.0003998779838031805 -1.748455531469542e-011 1 127 2 250 4 4 12
8 2 251 5.501585242055419 7.064785372303755 135 252 1 0 17 253 0 301 140 173 136
 245 246 0 144 -17 254 0 228 57 169 53 262 255 0 0 +16 255 167 0 ?254 246 266 25
6 0 0 1 134 256 168 0 255 267 247 0 +257 261 136 257 3 4 4 2 1 FFT1 258 259 260
 45 16 258 -0.0005501089151581886 -0.0003998781761998232 -1.748455531469543e-011
 1 -0.0004672460785138098 -0.0003225117063480854 -1.410172905862128e-011 0.80652
48903853475 -0.000483849326385009 -0.0003059084642828934 -1.337597817099663e-011
 0.8065248903853475 -0.0005999186587717859 -0.0003500684500042474 -1.53073026518
215e-011 1 127 2 259 4 4 128 2 260 5.501585242055419 7.064785372303756 135 261 1
 0 17 262 0 323 163 63 159 254 255 0 0 -17 263 0 228 269 57 264 268 266 0 475 -1
8 264 169 0 274 236 270 265 ?1 29 265 170 0 264 271 237 -0.0007999186937741606 -
0.0001498782198779485 -6.556708243010787e-012 16 266 171 0 ?268 255 272 267 0 0
 1 30 267 172 0 266 273 256 0 +0.0008000813062258152 -0.0001498779401250633 -6.5
56708243010779e-012 0.9999999999999848 1.748455532655337e-007 5.183498046873056e
-024 17 268 0 474 49 475 45 263 266 0 0 +17 269 0 228 275 263 270 274 272 0 278
 -18 270 173 0 269 264 411 271 ?1 29 271 174 0 270 412 265 -0.000799918746227826
4 0.0001501217801220466 6.55670824301078e-012 16 272 175 0 ?274 266 276 273 0 0
 1 30 273 176 0 272 277 267 0 +-0.0007999186937741606 -0.0001498782198779485 -6.
556708243010787e-012 1.748455531469489e-007 -0.9999999999999838 -4.3711388286738
56e-008 17 274 0 492 478 487 264 269 272 0 263 +17 275 0 228 81 269 77 278 276 0
 0 -16 276 177 0 ?278 272 280 277 0 0 1 30 277 178 0 276 281 273 0 +0.0008000812
537721494 0.0001501220598749319 6.55670824301079e-012 -0.9999999999999848 -1.748
455532655337e-007 -5.183498046873056e-024 17 278 0 483 484 87 270 275 276 0 487
 +17 279 0 228 184 81 180 287 280 0 0 +16 280 179 0 ?279 276 289 281 0 0 1 134 2
81 180 0 280 290 277 0 +282 286 136 282 3 4 4 2 1 FFT1 283 284 285 45 16 283 -0.
000599918781230207 0.0003503120801865668 1.530730265182149e-011 1 -0.00048384943
33928347 0.0003061049580889834 1.337597817099664e-011 0.8065248903853481 -0.0004
672461913276426 0.0003227082059601824 1.410172905862128e-011 0.8065248903853481
 -0.0005501090550346311 0.0004001218238001638 1.748455531469542e-011 1 127 2 284
 4 4 128 2 285 5.501585242055421 7.064785372303755 135 286 1 0 17 287 0 377 75 1
92 71 279 280 0 0 -17 288 0 228 122 184 118 296 289 0 0 +16 289 181 0 ?288 280 3
03 290 0 0 1 134 290 182 0 289 304 281 0 +291 295 136 291 3 4 4 2 1 FFT1 292 293
 294 45 16 292 0.0005502714751561775 0.0004001220161968065 1.748455531469543e-01
1 1 0.000467377187198369 0.000322708369374924 1.410172905862128e-011 0.806524890
3853478 0.0004839804350695682 0.0003061051273097321 1.337597817099664e-011 0.806
5248903853478 0.0006000812187697747 0.0003503122900012306 1.53073026518215e-011
 1 127 2 293 4 4 128 2 294 5.501585242055419 7.064785372303756 135 295 1 0 17 29
6 0 350 202 128 185 288 289 0 0 -14 297 183 299 1e-008 306 224 301 38 298 +0 0 3
06 224 36 51 298 184 0 297 307 225 0 +0.0005506471148779457 -0.00035044375694352
09 -8.649884126847893e-006 0.08682660904548273 -0.08682653530239978 -0.992432512
9342771 5.000000000000005e-005 0.9961946980917311 1.703705145233188e-007 0.08715
574274765831 81 1 299 185 32 297 0 0 308 226 300 83 3 300 1 1 1 15 301 186 0 253
 297 0 17 302 0 301 173 140 156 305 303 0 318 -16 303 187 0 ?305 289 312 304 0 0
 1 31 304 188 0 303 313 290 0 +0.0004973971419906167 -0.0002971938292821567 0.00
05999999870039127 -0.0868266090454824 0.08682653530239974 0.9924325129342773 1.7
41802136977526e-007 -0.996194701901428 0.08715569920260496 4.999999999999999e-00
5 17 305 0 332 333 318 130 302 303 0 336 +14 306 189 308 1e-008 319 297 310 38 3
07 +0 0 319 297 36 51 307 190 0 306 320 298 0 +8.133198334633181e-008 -0.0002971
939162356146 0.0005999999870039127 0.9999999999999848 1.748455533276494e-007 7.8
98663690473228e-024 5.000000000000002e-005 -1.748455533276493e-007 0.99999999999
99838 4.371138828673856e-008 81 1 308 191 32 306 0 0 321 299 309 83 3 309 1 1 1
 15 310 192 0 311 306 0 17 311 0 310 155 13 151 314 312 0 0 -16 312 193 0 ?314 3
03 316 313 0 0 1 31 313 194 0 312 317 304 0 +-0.0004972344780239242 -0.000297194
0031890726 0.0005999999870039127 -0.9999999999999848 -1.748455531469491e-007 -1.
577721810442024e-030 1.748455531469489e-007 -0.9999999999999838 -4.3711388286738
56e-008 5.000000000000002e-005 17 314 0 341 342 327 14 311 312 0 0 +17 315 0 310
 213 155 209 318 316 0 0 -16 316 195 0 ?318 312 325 317 0 0 1 31 317 196 0 316 3
26 313 0 +0.0004973971419906169 -0.0002971938292821567 0.0005999999870039127 0.9
999999999999848 1.748455509702618e-007 -9.514602208075702e-023 -1.74845550970261
6e-007 0.9999999999999838 4.371138828673856e-008 5.000000000000002e-005 17 318 0
 332 305 333 156 315 316 0 0 +14 319 197 321 1e-008 328 306 323 38 320 +0 0 328
 306 36 51 320 198 0 319 329 307 0 +-0.0005414378049895055 -0.000341397323527140
3 9.475355755901531e-005 -0.08682657868301025 -0.08682656566488749 -0.9924325129
342771 4.999999999999999e-005 -1.74180213701222e-007 0.996194701901428 -0.087155
69920260505 81 1 321 199 32 319 0 0 330 308 322 83 3 322 1 1 1 15 323 200 0 262
 319 0 17 324 0 323 63 163 59 327 325 0 0 -16 325 201 0 ?327 316 334 326 0 0 1 3
1 326 202 0 325 335 317 0 +-0.0004972344780239242 -0.0002971940031890726 0.00059
99999870039127 0.08682657868301007 0.08682656566488739 0.992432512934277 1.74180
2136916811e-007 -0.996194701901428 0.08715569920260498 4.999999999999999e-005 17
 327 0 341 314 342 151 324 325 0 311 +14 328 203 330 1e-008 337 319 332 38 329 +
0 0 337 319 36 53 329 204 0 328 338 320 0 +0.0004973971419906169 -0.000297193829
2821567 0.0005999999870039127 5e-005 7.642741863815873e-015 -4.371138828673789e-
008 0.9999999999999991 0.9999999999999848 1.748455531469491e-007 0 81 1 330 205
 32 328 0 0 339 321 331 83 3 331 1 1 1 15 332 206 0 318 328 0 17 333 0 332 318 3
05 209 336 334 0 208 -16 334 207 0 ?336 325 343 335 0 0 1 31 335 208 0 334 344 3
26 0 +0.0004973971419906169 -0.0002971938292821567 0.0005999999870039127 -1.7484
55532418043e-007 0.9999999999999839 4.371138937094074e-008 -7.642742053383801e-0
15 4.371138937094006e-008 -0.9999999999999991 5.000000000000002e-005 17 336 0 35
9 134 219 130 333 334 0 0 +14 337 209 339 1e-008 346 328 341 38 338 +0 0 346 328
 36 53 338 210 0 337 347 329 0 +-0.0004972344780239242 -0.0002971940031890726 0.
0005999999870039127 5e-005 7.642741863815873e-015 -4.371138828673789e-008 0.9999
999999999991 0.9999999999999848 1.748455531469491e-007 0 81 1 339 211 32 337 0 0
 348 330 340 83 3 340 1 1 1 15 341 212 0 327 337 0 17 342 0 341 327 314 59 345 3
43 0 324 -16 343 213 0 ?345 334 352 344 0 0 1 31 344 214 0 343 353 335 0 +-0.000
4972344780239242 -0.0002971940031890726 0.0005999999870039127 -1.748455531469489
e-007 0.9999999999999839 4.371138828673856e-008 0.9999999999999848 1.74845553146
9491e-007 0 5.000000000000002e-005 17 345 0 368 31 69 14 342 343 0 314 +14 346 2
15 348 1e-008 355 337 350 38 347 +0 0 355 337 36 51 347 216 0 346 356 338 0 +0.0
005506469922882124 0.0003506877902246542 -8.649853479414604e-006 0.0868265786829
9507 0.086826652426093 -0.9924325053436552 4.999999999999999e-005 -1.74180212360
3307e-007 0.9961946942820309 0.08715578629271156 81 1 348 217 32 346 0 0 357 339
 349 83 3 349 1 1 1 15 350 218 0 296 346 0 17 351 0 350 128 202 124 354 352 0 0
 -16 352 219 0 ?354 343 361 353 0 0 1 31 353 220 0 352 362 344 0 +0.000497397038
0219223 0.0002974377907323898 0.0006000000129960863 -0.08682657868299491 -0.0868
2665242609286 0.9924325053436554 1.741802123559939e-007 -0.9961946942820309 -0.0
8715578629271142 4.999999999999999e-005 17 354 0 386 387 363 194 351 352 0 0 +14
 355 221 357 1e-008 364 346 359 38 356 +0 0 364 346 36 51 356 222 0 355 365 347
 0 +0.0004973970900062696 1.21980725116566e-007 0.0005999999999999994 -1.7484555
31469489e-007 0.9999999999999838 4.371138828673856e-008 5.000000000000002e-005 -
0.9999999999999848 -1.748455531469491e-007 0 81 1 357 223 32 355 0 0 366 348 358
 83 3 358 1 1 1 15 359 224 0 336 355 0 17 360 0 359 219 134 215 363 361 0 387 -1
6 361 225 0 ?363 352 370 362 0 0 1 31 362 226 0 361 371 353 0 +0.000497397038021
9223 0.0002974377907323899 0.0006000000129960863 -1.748455520586053e-007 0.99999
99999999839 4.371138828673856e-008 -0.9999999999999848 -1.748455520586054e-007 4
.75730118154822e-023 5.000000000000002e-005 17 363 0 386 354 387 124 360 361 0 1
23 +14 364 227 366 1e-008 373 355 368 38 365 +0 0 373 355 36 51 365 228 0 364 37
4 356 0 +-0.0004972345300082715 1.218068182007871e-007 0.0005999999999999994 1.7
48455531469489e-007 -0.9999999999999838 -4.371138828673856e-008 5.00000000000000
2e-005 0.9999999999999848 1.748455531469491e-007 0 81 1 366 229 32 364 0 0 375 3
57 367 83 3 367 1 1 1 15 368 230 0 345 364 0 17 369 0 368 69 31 65 372 370 0 0 -
16 370 231 0 ?372 361 379 371 0 0 1 31 371 232 0 370 380 362 0 +-0.0004972345819
926188 0.000297437616825474 0.0006000000129960863 -1.748455532418043e-007 0.9999
999999999839 4.371138720253639e-008 7.642741674247945e-015 -4.371138720253572e-0
08 0.9999999999999991 5.000000000000002e-005 17 372 0 395 396 381 23 369 370 0 3
99 +14 373 233 375 1e-008 382 364 377 38 374 +0 0 382 364 36 51 374 234 0 373 38
3 365 0 +-0.0005444534679037942 0.0003446565098162827 6.028577378390658e-005 -0.
08682660904549791 0.08682662206360529 -0.9924325053436552 5.000000000000005e-005
 0.9961946980917298 1.779899115469079e-007 -0.08715574274765831 81 1 375 235 32
 373 0 0 384 366 376 83 3 376 1 1 1 15 377 236 0 287 373 0 17 378 0 377 192 75 1
88 381 379 0 187 -16 379 237 0 ?381 370 388 380 0 0 1 31 380 238 0 379 389 371 0
 +-0.0004972345819926186 0.000297437616825474 0.0006000000129960863 0.0868266090
4549755 -0.08682662206360525 0.9924325053436554 1.741802123655349e-007 -0.996194
6942820309 -0.08715578629271148 4.999999999999999e-005 17 381 0 395 372 396 65 3
78 379 0 64 +14 382 239 384 1e-008 391 373 386 38 383 +0 0 391 373 36 53 383 240
 0 382 392 374 0 +0.0004973970380219223 0.0002974377907323899 0.0006000000129960
863 5e-005 7.642741863815873e-015 -4.371138828673789e-008 0.9999999999999991 0.9
999999999999848 1.748455531469491e-007 0 81 1 384 241 32 382 0 0 393 375 385 83
 3 385 1 1 1 15 386 242 0 363 382 0 17 387 0 386 363 354 215 390 388 0 214 -16 3
88 243 0 ?390 379 397 389 0 0 1 31 389 244 0 388 398 380 0 +0.000497397038021922
3 0.0002974377907323899 0.0006000000129960863 -0.9999999999999848 -1.74845553146
9491e-007 -1.577721810442024e-030 -1.748455531469489e-007 0.9999999999999838 4.3
71138828673856e-008 5.000000000000002e-005 17 390 0 404 198 223 194 387 388 0 19
3 +14 391 245 393 1e-008 400 382 395 38 392 +0 0 400 382 36 53 392 246 0 391 401
 383 0 +-0.0004972345819926188 0.0002974376168254741 0.0006000000129960863 5e-00
5 7.642741863815873e-015 -4.371138828673789e-008 0.9999999999999991 0.9999999999
999848 1.748455531469491e-007 0 81 1 393 247 32 391 0 0 402 384 394 83 3 394 1 1
 1 15 395 248 0 381 391 0 17 396 0 395 381 372 188 399 397 0 0 -16 397 249 0 ?39
9 388 413 398 0 0 1 31 398 250 0 397 414 389 0 +-0.0004972345819926188 0.0002974
376168254741 0.0006000000129960863 0.9999999999999848 1.748455509702618e-007 -9.
514602208075702e-023 1.748455509702616e-007 -0.9999999999999838 -4.3711388286738
56e-008 5.000000000000002e-005 17 399 0 404 27 198 23 396 397 0 0 +14 400 251 40
2 1e-008 405 391 404 38 401 +0 0 405 391 36 51 401 252 0 400 406 392 0 +8.122801
465170425e-008 0.000297437703778932 0.0006000000129960863 -0.9999999999999848 -1
.748455533276494e-007 -7.898663690473228e-024 5.000000000000002e-005 1.748455533
276493e-007 -0.9999999999999838 -4.371138828673856e-008 81 1 402 253 32 400 0 0
 407 393 403 83 3 403 1 1 1 15 404 254 0 390 400 0 14 405 255 407 1e-008 426 400
 409 38 406 -0 0 426 400 36 50 406 256 0 405 427 401 0 +0.0008000813062258163 -0
.0001498779466817715 0.0001499999934432916 -0.9999999999999848 -1.74845553146949
1e-007 0 1.748455531469489e-007 -0.9999999999999838 -4.371138828673856e-008 81 1
 407 257 32 405 0 0 428 402 408 83 3 408 0.8274509906768799 0.8392156958580017 0
.8274509906768799 15 409 258 0 240 405 0 17 410 0 409 416 240 411 415 413 0 0 -1
8 411 259 0 421 270 417 412 ?1 29 412 260 0 411 418 271 0.0008000812537721504 0.
0001501220533182236 0.0001500000065567081 16 413 261 0 ?415 397 419 414 0 0 1 30
 414 262 0 413 420 398 0 +0.0008000812537721504 0.0001501220533182236 0.00015000
00065567081 -7.642741863815873e-015 4.371138828673789e-008 -0.9999999999999991 1
7 415 0 443 234 438 230 410 413 0 0 +17 416 0 409 422 410 417 421 419 0 425 -18
 417 263 0 416 411 455 418 ?1 29 418 264 0 417 456 412 0.0008000813062258163 -0.
0001498779466817715 0.0001499999934432916 16 419 265 0 ?421 413 423 420 0 0 1 30
 420 266 0 419 424 414 0 +0.0008000813062258163 -0.0001498779466817715 0.0001499
999934432916 -1.748455531469489e-007 0.9999999999999838 4.371138828673856e-008 1
7 421 0 430 435 431 411 416 419 0 438 +17 422 0 409 240 416 236 425 423 0 235 +1
6 423 267 0 ?422 419 432 424 0 0 1 30 424 268 0 423 433 420 0 +0.000800081306225
8163 -0.0001498779466817715 0.0001499999934432916 -7.642741863815873e-015 4.3711
38828673789e-008 -0.9999999999999991 17 425 0 448 434 244 417 422 423 0 431 -14
 426 269 428 1e-008 439 405 430 38 427 +0 0 439 405 36 50 427 270 0 426 440 406
 0 +8.12799989955788e-008 1.219134417834056e-007 0.0001499999999999999 7.6427418
63815873e-015 -4.371138828673789e-008 0.9999999999999991 1.748455531469489e-007
 -0.9999999999999838 -4.371138828673856e-008 81 1 428 271 32 426 0 0 441 407 429
 83 3 429 0.8274509906768799 0.8392156958580017 0.8274509906768799 15 430 272 0
 110 426 0 17 431 0 430 421 110 417 434 432 0 0 +16 432 273 0 ?431 423 436 433 0
 0 1 30 433 274 0 432 437 424 0 +0.0008000813062258163 -0.0001498779466817715 0.
0001499999934432916 0.9999999999999848 1.748455532655337e-007 5.183498046873056e
-024 17 434 0 448 102 425 98 431 432 0 97 -17 435 0 430 110 421 106 438 436 0 10
5 +16 436 275 0 ?435 432 457 437 0 0 1 30 437 276 0 436 458 433 0 +0.00080008125
37721504 0.0001501220533182236 0.0001500000065567081 -0.9999999999999848 -1.7484
55532655337e-007 -5.183498046873056e-024 17 438 0 443 415 116 411 435 436 0 410
 -14 439 277 441 1e-008 444 426 443 38 440 -0 0 444 426 36 50 440 278 0 439 445
 427 0 +0.0008000812537721504 0.0001501220533182236 0.0001500000065567081 1.7484
55532655335e-007 -0.9999999999999838 -4.371138828673856e-008 0.9999999999999848
 1.748455532655337e-007 5.183498046873056e-024 81 1 441 279 32 439 0 0 446 428 4
42 83 3 442 0.8274509906768799 0.8392156958580017 0.8274509906768799 15 443 280
 0 234 439 0 14 444 281 446 1e-008 449 439 448 38 445 -0 0 449 439 36 50 445 282
 0 444 450 440 0 +0.0008000813062258163 -0.0001498779466817715 0.000149999993443
2916 -1.748455532655335e-007 0.9999999999999838 4.371138828673856e-008 -0.999999
9999999848 -1.748455532655337e-007 -5.183498046873056e-024 81 1 446 283 32 444 0
 0 451 441 447 83 3 447 0.8274509906768799 0.8392156958580017 0.8274509906768799
 15 448 284 0 434 444 0 14 449 285 451 1e-008 470 444 453 38 450 +0 0 470 444 36
 50 450 286 0 449 471 445 0 +8.12799989955788e-008 1.219134417834056e-007 0.0001
499999999999999 7.642741863815873e-015 -4.371138828673789e-008 0.999999999999999
1 1.748455531469489e-007 -0.9999999999999838 -4.371138828673856e-008 81 1 451 28
7 32 449 0 0 472 446 452 83 3 452 0.8274509906768799 0.8392156958580017 0.827450
9906768799 15 453 288 0 91 449 0 17 454 0 453 460 91 455 459 457 0 465 +18 455 2
89 0 454 417 461 456 ?1 29 456 290 0 455 462 418 -0.0007999187462278254 0.000150
1217735653384 0.0001500000065567081 16 457 291 0 ?454 436 463 458 0 0 1 30 458 2
92 0 457 464 437 0 +0.0008000812537721504 0.0001501220533182236 0.00015000000655
67081 -0.9999999999999848 -1.748455532655337e-007 -5.183498046873056e-024 17 459
 0 483 87 484 83 454 457 0 82 -17 460 0 453 466 454 461 465 463 0 469 +18 461 29
3 0 460 455 0 462 ?1 29 462 294 0 461 0 456 -0.0007999186937741595 -0.0001498782
264346568 0.0001499999934432916 16 463 295 0 ?460 457 467 464 0 0 1 30 464 296 0
 463 468 458 0 +-0.0007999186937741595 -0.0001498782264346568 0.0001499999934432
916 1.748455531469489e-007 -0.9999999999999838 -4.371138828673856e-008 17 465 0
 492 487 478 455 460 463 0 484 -17 466 0 453 91 460 50 469 467 0 0 +16 467 297 0
 ?466 463 476 468 0 0 1 30 468 298 0 467 477 464 0 +0.0008000813062258163 -0.000
1498779466817715 0.0001499999934432916 0.9999999999999848 1.748455532655337e-007
 5.183498046873056e-024 17 469 0 474 475 49 461 466 467 0 478 -14 470 299 472 1e
-008 479 449 474 38 471 -0 0 479 449 36 50 471 300 0 470 480 450 0 +0.0008000813
062258163 -0.0001498779466817715 0.0001499999934432916 -1.748455532655335e-007 0
.9999999999999838 4.371138828673856e-008 -0.9999999999999848 -1.748455532655337e
-007 -5.183498046873056e-024 81 1 472 301 32 470 0 0 481 451 473 83 3 473 0.8274
509906768799 0.8392156958580017 0.8274509906768799 15 474 302 0 268 470 0 17 475
 0 474 268 469 264 478 476 0 0 +16 476 303 0 ?475 467 485 477 0 0 1 30 477 304 0
 476 486 468 0 +-0.0007999186937741595 -0.0001498782264346568 0.0001499999934432
916 -7.642741863815873e-015 4.371138828673789e-008 -0.9999999999999991 17 478 0
 492 465 274 461 475 476 0 0 -14 479 305 481 1e-008 488 470 483 38 480 -0 0 488
 470 36 50 480 306 0 479 489 471 0 +0.0008000812537721504 0.0001501220533182236
 0.0001500000065567081 1.748455532655335e-007 -0.9999999999999838 -4.37113882867
3856e-008 0.9999999999999848 1.748455532655337e-007 5.183498046873056e-024 81 1
 481 307 32 479 0 0 490 472 482 83 3 482 0.8274509906768799 0.8392156958580017 0
.8274509906768799 15 483 308 0 459 479 0 17 484 0 483 459 278 455 487 485 0 0 -1
6 485 309 0 ?487 476 0 486 0 0 1 30 486 310 0 485 0 477 0 +-0.000799918746227825
4 0.0001501217735653384 0.0001500000065567081 -7.642741863815873e-015 4.37113882
8673789e-008 -0.9999999999999991 17 487 0 492 274 465 270 484 485 0 0 +14 488 31
1 490 1e-008 0 479 492 38 489 -0 0 0 479 36 50 489 312 0 488 0 480 0 +-0.0007999
186937741595 -0.0001498782264346568 0.0001499999934432916 0.9999999999999848 1.7
48455531469491e-007 0 -1.748455531469489e-007 0.9999999999999838 4.3711388286738
56e-008 81 1 490 313 32 488 0 0 0 481 491 83 3 491 0.8274509906768799 0.83921569
58580017 0.8274509906768799 15 492 314 0 274 488 0 1 0 
