**ABCDEFGHIJKLMNOPQRSTUVWXYZabcdefghijklmnopqrstuvwxyz**************************
**PARASOLID !"#$%&'()*+,-./:;<=>?@[\]^_`{|}~0123456789**************************
**PART1;
MC=x86;
MC_MODEL=Intel64 Family 6 Model 158 Stepping 12, GenuineIntel;
MC_ID=unknown;
OS=Windows_NT;
OS_RELEASE=unknown;
FRU=CAD Exchanger 3.4.0 (cadexchanger.com);
APPL=unknown;
SITE=unknown;
USER=unknown;
FORMAT=text;
GUISE=transmit;
KEY=LED_0805_2012_LED;
FILE=LED_0805_2012_LED.x_t;
DATE=Tue Oct 29 00:38:58 2019;
**PART2;
SCH=SCH_1200000_12006;
USFLD_SIZE=0;
**PART3;
**END_OF_HEADER*****************************************************************
T51 : TRANSMIT FILE created by modeller version 120000017 SCH_1200000_120060 74
 3 1 3 0 2 305 736 12 2 188 0 3 0 0 0 0 1000 1e-008 0 0 0 1 0 1 1 39 7 13 11 36
 12 10 70 3 0 2 0 0 4 1 20 0 4 4 1 T74 20 4 1 0 5 0 0 0 0 0 0 0 0 0 0 0 0 0 0 0
 0 0 0 0 81 1 5 7 33 6 0 0 42 0 35 14 6 5 5 1e-008 40 0 8 39 7 +0 0 40 0 37 50 7
 6 0 6 41 0 0 +-0.0006499186107225227 -0.0006249594867635186 0.00029999997268038
21 -0.9961946980917298 -1.779899115425711e-007 0.08715574274765829 -0.0871557427
4766466 2.830625920683039e-008 -0.9961946980917447 15 8 8 0 9 6 0 17 9 0 8 17 29
 10 14 12 0 22 +18 10 9 0 9 0 15 11 ?2 29 11 10 0 10 16 0 -0.0006014187901785984
 0.0005267307406683019 0.0008543578101597438 16 12 11 0 ?9 0 20 13 0 0 2 30 13 1
2 0 12 21 0 0 +-0.0006014187981894198 0.000572547299369172 0.0008543578121624492
 -1.748455531469489e-007 0.9999999999999838 4.371138828673856e-008 17 14 0 268 2
45 269 15 9 12 0 29 -18 15 13 0 14 10 18 16 ?2 29 16 14 0 15 19 11 -0.0006014186
059997045 -0.0005266497456988297 0.0008543577641150204 17 17 0 8 23 9 18 22 20 0
 28 +18 18 15 0 17 15 24 19 ?2 29 19 16 0 18 25 16 -0.0006499188205704535 0.0005
752307783318748 0.0003000000251423647 16 20 17 0 ?17 12 26 21 0 0 2 30 21 18 0 2
0 27 13 0 +-0.0006408707557245358 0.0005661827121293604 0.0004034198610919698 -0
.0868266090454979 0.08682662206360531 -0.9924325053436552 17 22 0 277 278 169 10
 17 20 0 281 -17 23 0 8 29 17 24 28 26 0 32 +18 24 19 0 23 18 46 25 ?2 29 25 20
 0 24 47 19 -0.0006499186194315333 -0.0005751497518589323 0.0002999999748576347
 16 26 21 0 ?23 20 30 27 0 0 2 30 27 22 0 26 31 21 0 +-0.0006499186107225227 -0.
0006249594867635186 0.0002999999726803821 1.748455531469489e-007 -0.999999999999
9838 -4.371138828673856e-008 17 28 0 160 161 188 18 23 26 0 169 -17 29 0 8 9 23
 15 32 30 0 242 +16 30 23 0 ?29 26 48 31 0 0 2 30 31 24 0 30 49 27 0 +-0.0006502
941278545578 -0.0005755252602256556 0.0002957078931754723 0.08682657868301022 0.
08682656566488749 0.992432512934277 17 32 0 223 196 224 24 29 30 0 188 -80 1 33
 0 34 8001 0 0 0 0 3 5 0 0 FFFFTFTFFFFFFF2 79 15 34 SDL/TYSA_COLOUR83 3 35 1 1 1
 19 36 1 0 2 38 0 37 V13 37 2 0 2 0 0 0 0 36 6 19 38 3 0 2 0 36 39 S13 39 4 0 2
 0 6 0 0 38 0 14 40 25 42 1e-008 69 6 44 39 41 +0 0 69 6 37 50 41 26 0 40 70 7 0
 +0.0006500813892774577 -0.0006249592594642996 0.0002999999726803821 1.741802137
791007e-007 -0.996194701901428 0.08715569920260503 1.523878643698859e-008 -0.087
1556992026037 -0.9961947019014432 81 1 42 27 33 40 0 0 71 5 43 83 3 43 1 1 1 15
 44 28 0 45 40 0 17 45 0 44 53 65 46 50 48 0 58 +18 46 29 0 45 24 51 47 ?2 29 47
 30 0 46 52 25 -0.0005516088623861073 -0.0005764594718944057 0.00085435776193776
77 16 48 31 0 ?45 30 56 49 0 0 2 30 49 32 0 48 57 31 0 +-0.0005974254210869779 -
0.0005764594799052273 0.0008543577619377677 -0.9999999999999848 -1.7484555323034
92e-007 -3.645537087450118e-024 17 50 0 210 215 211 51 45 48 0 65 -18 51 33 0 50
 46 54 52 ?2 29 52 34 0 51 55 47 0.0005517716239810245 -0.0005764592789732341 0.
0008543577619377677 17 53 0 44 59 45 54 58 56 0 64 +18 54 35 0 53 51 60 55 ?2 29
 55 36 0 54 61 52 -0.000600108875817936 -0.0006249594780545079 0.000299999972680
3821 16 56 37 0 ?53 48 62 57 0 0 2 30 57 38 0 56 63 49 0 +-0.0005906838713318489
 -0.0006155344749815351 0.0004077282861579049 -0.08682657868301025 -0.0868265656
6488749 -0.992432512934277 17 58 0 223 224 196 46 53 56 0 211 -17 59 0 44 65 53
 60 64 62 0 68 +18 60 39 0 59 54 75 61 ?2 29 61 40 0 60 76 55 0.0006002716543728
711 -0.0006249592681733102 0.0002999999726803821 16 62 41 0 ?59 56 66 63 0 0 2 3
0 63 42 0 62 67 57 0 +0.0006500813892774577 -0.0006249592594642996 0.00029999997
26803821 0.9999999999999848 1.748455532303492e-007 3.645537087910721e-024 17 64
 0 160 188 179 54 59 62 0 196 -17 65 0 44 45 59 51 68 66 0 202 +16 66 43 0 ?65 6
2 77 67 0 0 2 30 67 44 0 66 78 63 0 +0.0006006471629272074 -0.000625334776408721
7 0.0002957078909982196 -0.08682660904548273 0.08682653530239978 0.9924325129342
77 17 68 0 201 187 202 60 65 66 0 179 -14 69 45 71 1e-008 98 40 73 39 70 +0 0 98
 40 37 50 70 46 0 69 99 41 0 +0.0006500813892774577 -0.0006249592594642996 0.000
2999999726803821 0.9961946980917311 1.703705145172473e-007 0.08715574274765829 -
0.08715574274764942 -5.878384730812544e-008 0.9961946980917447 81 1 71 47 33 69
 0 0 100 42 72 83 3 72 1 1 1 15 73 48 0 74 69 0 17 74 0 73 82 94 75 79 77 0 170
 +18 75 49 0 74 60 80 76 ?2 29 76 50 0 75 81 61 0.0006500811794295268 0.00057523
10056310938 0.0003000000251423647 16 77 51 0 ?74 66 85 78 0 0 2 30 78 52 0 77 86
 67 0 +0.0006500813892774577 -0.0006249592594642996 0.0002999999726803821 -1.748
455531469489e-007 0.9999999999999838 4.371138828673856e-008 17 79 0 160 179 170
 80 74 77 0 94 -18 80 53 0 79 75 83 81 ?2 29 81 54 0 80 84 76 0.0006500813805684
47 -0.0005751495245597129 0.0002999999748576347 17 82 0 73 88 74 83 87 85 0 93 +
18 83 55 0 82 80 89 84 ?2 29 84 56 0 83 90 81 0.0006015811659977064 0.0005267309
510074944 0.0008543578101597438 16 85 57 0 ?82 77 91 86 0 0 2 30 86 58 0 85 92 7
8 0 +0.000641033117747638 0.0005661829362645525 0.0004034198610919698 -0.0868265
7868299505 -0.08682665242609301 0.9924325053436552 17 87 0 250 178 251 75 82 85
 0 0 -17 88 0 73 94 82 89 93 91 0 97 +18 89 59 0 88 83 104 90 ?2 29 90 60 0 89 1
05 84 0.0006015813501766003 -0.0005266495353596369 0.0008543577641150204 16 91 6
1 0 ?88 85 95 92 0 0 2 30 92 62 0 91 96 86 0 +0.0006015813581874218 -0.000572466
0940605074 0.0008543577621123149 1.748455531469489e-007 -0.9999999999999838 -4.3
71138828673856e-008 17 93 0 259 260 236 83 88 91 0 251 -17 94 0 73 74 88 80 97 9
5 0 187 +16 95 63 0 ?94 91 106 96 0 0 2 30 96 64 0 95 107 92 0 +0.00065045688912
27832 -0.0005755250327951245 0.0002957078931754723 0.08682660904548271 -0.086826
5353023998 -0.9924325129342771 17 97 0 201 202 187 89 94 95 0 205 -14 98 65 100
 1e-008 127 69 102 39 99 +0 0 127 69 37 50 99 66 0 98 128 70 0 +0.00065008117072
05162 0.0006250407405356803 0.0003000000273196174 -1.74180212446883e-007 0.99619
46942820309 0.08715578629271155 1.523880166430644e-008 -0.08715578629271022 0.99
61946942820461 81 1 100 67 33 98 0 0 129 71 101 83 3 101 1 1 1 15 102 68 0 103 9
8 0 17 103 0 102 111 123 104 108 106 0 116 +18 104 69 0 161 89 109 105 ?2 29 105
 70 0 104 110 90 -0.0006001090943748775 0.0006250405219454718 0.0003000000273196
174 16 106 71 0 ?103 95 114 107 0 0 2 30 107 72 0 106 115 96 0 +0.00065008117072
05162 0.0006250407405356803 0.0003000000273196174 -0.9999999999999848 -1.7484555
32303492e-007 -3.645537087910721e-024 17 108 0 160 170 161 109 103 106 0 123 -18
 109 73 0 178 104 112 110 ?2 29 110 74 0 109 113 105 0.0006002714358159296 0.000
6250407318266697 0.0003000000273196174 17 111 0 102 117 103 112 116 114 0 122 +1
8 112 75 0 111 109 118 113 ?2 29 113 76 0 112 119 110 -0.0005516090639830223 0.0
005765404842818988 0.0008543578123369965 16 114 77 0 ?111 106 120 115 0 0 2 30 1
15 78 0 114 121 107 0 +-0.0005906840865929492 0.0006156155127504314 0.0004077283
3997318 0.08682660904549792 -0.08682662206360531 0.9924325053436552 17 116 0 277
 169 278 104 111 114 0 0 -17 117 0 102 123 111 118 122 120 0 126 +18 118 79 0 11
7 112 133 119 ?2 29 119 80 0 118 134 113 0.0005517714223841093 0.000576540677203
0705 0.0008543578123369965 16 120 81 0 ?117 114 124 121 0 0 2 30 121 82 0 120 12
5 115 0 +0.0005975879810849798 0.000576540685213892 0.0008543578123369965 0.9999
999999999848 1.748455532303492e-007 3.645537088371325e-024 17 122 0 304 299 290
 112 117 120 0 278 -17 123 0 102 103 117 109 126 124 0 0 +16 124 83 0 ?123 120 1
35 125 0 0 2 30 125 84 0 124 136 121 0 +0.0006006469442389538 0.0006254162405686
19 0.000295707945670283 0.08682657868299508 0.08682665242609301 -0.9924325053436
552 17 126 0 250 251 178 118 123 124 0 254 -14 127 85 129 1e-008 156 98 131 39 1
28 +0 0 156 98 37 50 128 86 0 127 157 99 0 +8.127999900131086e-008 4.06006592477
5814e-008 0.0008999999999999992 7.642741863815873e-015 -4.371138828673789e-008 0
.9999999999999991 1.748455531469489e-007 -0.9999999999999838 -4.371138828673856e
-008 81 1 129 87 33 127 0 0 158 100 130 83 3 130 1 1 1 15 131 88 0 132 127 0 17
 132 0 131 140 152 133 137 135 0 145 +18 133 89 0 132 118 138 134 ?2 29 134 90 0
 133 139 119 0.0005517714310931202 0.0005267309403033992 0.0009000000230223609 1
6 135 91 0 ?132 124 143 136 0 0 2 30 136 92 0 135 144 125 0 +0.00055177142308229
87 0.0005725474990042698 0.0009000000250250664 -1.748455531469489e-007 0.9999999
999999838 4.371138828673856e-008 17 137 0 259 236 260 138 132 135 0 215 -18 138
 93 0 137 133 141 139 ?2 29 139 94 0 138 142 134 0.0005517716152720142 -0.000526
6495460637319 0.0008999999769776375 17 140 0 131 146 132 141 145 143 0 151 +18 1
41 95 0 140 138 147 142 ?2 29 142 96 0 141 148 139 -0.0005516090552740115 0.0005
267307473822276 0.0009000000230223609 16 143 97 0 ?140 135 149 144 0 0 2 30 144
 98 0 143 150 136 0 +-0.0005974256139748821 0.0005267307393714061 0.000900000023
0223609 -0.9999999999999848 -1.748455532303492e-007 -3.645537087910721e-024 17 1
45 0 304 290 299 133 140 143 0 260 -17 146 0 131 152 140 147 151 149 0 155 +18 1
47 99 0 245 141 0 148 ?2 29 148 100 0 147 0 142 -0.0005516088710951176 -0.000526
6497389849036 0.0008999999769776375 16 149 101 0 ?146 143 153 150 0 0 2 30 150 1
02 0 149 154 144 0 +-0.0005516088630842962 -0.0005724662976857741 0.000899999974
9749321 1.748455531469489e-007 -0.9999999999999838 -4.371138828673856e-008 17 15
1 0 268 269 245 141 146 149 0 272 -17 152 0 131 132 146 138 155 153 0 0 +16 153
 103 0 ?152 149 162 154 0 0 2 30 154 104 0 153 163 150 0 +0.0005975881739728846
 -0.0005266495380529104 0.0008999999769776375 0.9999999999999848 1.7484555323034
92e-007 3.645537087910721e-024 17 155 0 210 211 215 147 152 153 0 0 -14 156 105
 158 1e-008 197 127 160 39 157 -0 0 197 127 37 50 157 106 0 156 198 128 0 +8.127
999899672521e-008 4.062688608073018e-008 0.0002999999999999997 7.642741863815873
e-015 -4.371138828673789e-008 0.9999999999999991 1.748455531469489e-007 -0.99999
99999999838 -4.371138828673856e-008 81 1 158 107 33 156 0 0 199 129 159 83 3 159
 1 1 1 15 160 108 0 28 156 0 17 161 0 160 108 28 104 169 162 0 103 +16 162 109 0
 ?161 153 171 163 0 0 2 134 163 110 0 162 172 154 0 +164 168 136 164 3 4 4 2 1 F
FT1 165 166 167 45 16 165 -0.0006499188205704535 0.0005752307783318748 0.0003000
000251423647 1 -0.0005241757096409902 0.0004875074864562434 0.000241957488423805
 0.8065248903853484 -0.000507572467575798 0.0005041107343274424 0.00024195748914
95559 0.8065248903853484 -0.0006001090943748775 0.0006250405219454718 0.00030000
00273196174 1 127 2 166 4 4 128 2 167 5.501585242055421 7.064785372303755 135 16
8 1 0 17 169 0 277 22 116 18 161 162 0 0 -17 170 0 160 79 108 75 178 171 0 87 +1
6 171 111 0 ?170 162 180 172 0 0 2 134 172 112 0 171 181 163 0 +173 177 136 173
 3 4 4 2 1 FFT1 174 175 176 45 16 174 0.0006002714358159296 0.000625040731826669
7 0.0003000000273196174 1 0.0005077033999887475 0.000504110911843913 0.000241957
4891495559 0.8065248903853484 0.0005243066478599466 0.000487507669778721 0.00024
1957488423805 0.8065248903853484 0.0006500811794295268 0.0005752310056310938 0.0
003000000251423647 1 127 2 175 4 4 128 2 176 5.501585242055419 7.064785372303751
 135 177 1 0 17 178 0 250 126 87 109 170 171 0 108 -17 179 0 160 64 79 60 187 18
0 0 0 +16 180 113 0 ?179 171 189 181 0 0 2 134 181 114 0 180 190 172 0 +182 186
 136 182 3 4 4 2 1 FFT1 183 184 185 45 16 183 0.000650081380568447 -0.0005751495
245597129 0.0002999999748576347 1 0.0005243068183255529 -0.000487441953266557 0.
0002419574458074035 0.8065248903853484 0.0005077035762603609 -0.0005040452011377
559 0.0002419574450816526 0.8065248903853484 0.0006002716543728711 -0.0006249592
681733102 0.0002999999726803821 1 127 2 184 4 4 128 2 185 5.501585242055419 7.06
4785372303751 135 186 1 0 17 187 0 201 97 68 80 179 180 0 0 -17 188 0 160 28 64
 24 196 189 0 0 +16 189 115 0 ?188 180 203 190 0 0 2 134 190 116 0 189 204 181 0
 +191 195 136 191 3 4 4 2 1 FFT1 192 193 194 45 16 192 -0.000600108875817936 -0.
0006249594780545079 0.0002999999726803821 1 -0.0005075722913041847 -0.0005040453
78654227 0.0002419574450816526 0.8065248903853484 -0.0005241755391753838 -0.0004
874421365890349 0.0002419574458074035 0.8065248903853484 -0.0006499186194315333
 -0.0005751497518589323 0.0002999999748576347 1 127 2 193 4 4 128 2 194 5.501585
242055419 7.064785372303751 135 195 1 0 17 196 0 223 58 32 54 188 189 0 0 -14 19
7 117 199 1e-008 206 156 201 39 198 +0 0 206 156 37 51 198 118 0 197 207 157 0 +
0.0006006471542181966 -0.0005755250413136501 0.0002913501060380895 0.08682660904
548273 -0.08682653530239978 -0.9924325129342771 5.000000000000005e-005 0.9961946
980917311 1.703705145319924e-007 0.08715574274765831 81 1 199 119 33 197 0 0 208
 158 200 83 3 200 1 1 1 15 201 120 0 187 197 0 17 202 0 201 68 97 51 205 203 0 2
18 -16 203 121 0 ?205 189 212 204 0 0 2 31 204 122 0 203 213 190 0 +0.0005517716
152720138 -0.0005266495438781626 0.0008499999769776375 -0.08682660904548259 0.08
682653530239967 0.9924325129342771 1.741802136934158e-007 -0.996194701901428 0.0
8715569920260491 5.000000000000005e-005 17 205 0 232 233 218 89 202 203 0 236 +1
4 206 123 208 1e-008 219 197 210 39 207 +0 0 219 197 37 51 207 124 0 206 220 198
 0 +8.137208844787918e-008 -0.0005266496403387482 0.0008499999769776375 0.999999
9999999848 1.748455532303492e-007 3.645537087910721e-024 5.000000000000002e-005
 -1.748455532303491e-007 0.9999999999999838 4.371138828673856e-008 81 1 208 125
 33 206 0 0 221 199 209 83 3 209 1 1 1 15 210 126 0 211 206 0 17 211 0 210 50 15
5 46 214 212 0 227 -16 212 127 0 ?214 203 216 213 0 0 2 31 213 128 0 212 217 204
 0 +-0.0005516088710951179 -0.0005266497367993341 0.0008499999769776375 -0.99999
99999999848 -1.748455531469491e-007 -1.577721810442024e-030 1.748455531469489e-0
07 -0.9999999999999838 -4.371138828673856e-008 5.000000000000002e-005 17 214 0 2
41 242 227 147 211 212 0 146 +17 215 0 210 155 50 138 218 216 0 233 -16 216 129
 0 ?218 212 225 217 0 0 2 31 217 130 0 216 226 213 0 +0.0005517716152720138 -0.0
005266495438781625 0.0008499999769776375 0.9999999999999848 1.748455531469491e-0
07 1.577721810442024e-030 -1.748455531469489e-007 0.9999999999999838 4.371138828
673856e-008 5.000000000000002e-005 17 218 0 232 205 233 51 215 216 0 0 +14 219 1
31 221 1e-008 228 206 223 39 220 +0 0 228 206 37 51 220 132 0 219 229 207 0 +-0.
0005906838800408598 -0.0005657247398864637 0.0004033705011977747 -0.086826578683
01025 -0.08682656566488749 -0.9924325129342771 5.000000000000005e-005 -1.7418021
37116304e-007 0.996194701901428 -0.08715569920260505 81 1 221 133 33 219 0 0 230
 208 222 83 3 222 1 1 1 15 223 134 0 196 219 0 17 224 0 223 32 58 15 227 225 0 0
 -16 225 135 0 ?227 216 234 226 0 0 2 31 226 136 0 225 235 217 0 +-0.00055160887
10951179 -0.0005266497367993341 0.0008499999769776375 0.08682657868301009 0.0868
2656566488732 0.9924325129342771 1.7418021369862e-007 -0.996194701901428 0.08715
569920260491 5.000000000000005e-005 17 227 0 241 214 242 46 224 225 0 0 +14 228
 137 230 1e-008 237 219 232 39 229 +0 0 237 219 37 53 229 138 0 228 238 220 0 +0
.0005517716152720138 -0.0005266495438781626 0.0008499999769776375 5e-005 7.64274
1863815873e-015 -4.371138828673789e-008 0.9999999999999991 0.9999999999999848 1.
748455531469491e-007 0 81 1 230 139 33 228 0 0 239 221 231 83 3 231 1 1 1 15 232
 140 0 218 228 0 17 233 0 232 218 205 138 236 234 0 152 -16 234 141 0 ?236 225 2
43 235 0 0 2 31 235 142 0 234 244 226 0 +0.0005517716152720138 -0.00052664954387
81626 0.0008499999769776375 -1.748455529572381e-007 0.9999999999999839 4.3711386
11833422e-008 -7.642741484680017e-015 4.371138611833354e-008 -0.9999999999999991
 5.000000000000002e-005 17 236 0 259 93 137 89 233 234 0 0 +14 237 143 239 1e-00
8 246 228 241 39 238 +0 0 246 228 37 53 238 144 0 237 247 229 0 +-0.000551608871
0951179 -0.0005266497367993341 0.0008499999769776375 5e-005 7.642741863815873e-0
15 -4.371138828673789e-008 0.9999999999999991 0.9999999999999848 1.7484555314694
91e-007 0 81 1 239 145 33 237 0 0 248 230 240 83 3 240 1 1 1 15 241 146 0 227 23
7 0 17 242 0 241 227 214 15 245 243 0 224 -16 243 147 0 ?245 234 252 244 0 0 2 3
1 244 148 0 243 253 235 0 +-0.0005516088710951179 -0.000526649736799334 0.000849
9999769776375 -1.748455553236362e-007 0.9999999999999839 4.371138828673856e-008
 0.9999999999999848 1.748455553236364e-007 9.514602363096441e-023 5.000000000000
002e-005 17 245 0 268 151 14 147 242 243 0 214 +14 246 149 248 1e-008 255 237 25
0 39 247 +0 0 255 237 37 51 247 150 0 246 256 238 0 +0.0006006469529479646 0.000
5756065058545172 0.0002913501563556475 0.08682657868299507 0.086826652426093 -0.
9924325053436552 5.000000000000005e-005 -1.741802123794127e-007 0.99619469428203
09 0.08715578629271156 81 1 248 151 33 246 0 0 257 239 249 83 3 249 1 1 1 15 250
 152 0 178 246 0 17 251 0 250 87 126 83 254 252 0 263 -16 252 153 0 ?254 243 261
 253 0 0 2 31 253 154 0 252 262 244 0 +0.0005517714310931199 0.00052673094248896
88 0.0008500000230223609 -0.08682657868299491 -0.08682665242609286 0.99243250534
36554 1.741802123559939e-007 -0.9961946942820309 -0.08715578629271142 4.99999999
9999999e-005 17 254 0 286 287 263 118 251 252 0 290 +14 255 155 257 1e-008 264 2
46 259 39 256 +0 0 264 246 37 51 256 156 0 255 265 247 0 +0.0005517715231825669
 4.069930540290767e-008 0.0008499999999999992 -1.748455531469489e-007 0.99999999
99999838 4.371138828673856e-008 5.000000000000002e-005 -0.9999999999999848 -1.74
8455531469491e-007 0 81 1 257 157 33 255 0 0 266 248 258 83 3 258 1 1 1 15 259 1
58 0 236 255 0 17 260 0 259 137 93 133 263 261 0 287 -16 261 159 0 ?263 252 270
 262 0 0 2 31 262 160 0 261 271 253 0 +0.0005517714310931199 0.00052673094248896
87 0.0008500000230223609 -1.748455553236362e-007 0.9999999999999839 4.3711388286
73856e-008 -0.9999999999999848 -1.748455553236364e-007 -9.514602363096441e-023 5
.000000000000002e-005 17 263 0 286 254 287 83 260 261 0 0 +14 264 161 266 1e-008
 273 255 268 39 265 +0 0 273 255 37 51 265 162 0 264 274 256 0 +-0.0005516089631
845649 4.050638423143726e-008 0.0008499999999999992 1.748455531469489e-007 -0.99
99999999999838 -4.371138828673856e-008 5.000000000000002e-005 0.9999999999999848
 1.748455531469491e-007 0 81 1 266 163 33 264 0 0 275 257 267 83 3 267 1 1 1 15
 268 164 0 245 264 0 17 269 0 268 14 151 10 272 270 0 0 -16 270 165 0 ?272 261 2
79 271 0 0 2 31 271 166 0 270 280 262 0 +-0.0005516090552740118 0.00052673074956
77975 0.0008500000230223609 -1.748455525778165e-007 0.9999999999999839 4.3711394
7919516e-008 7.642743001223444e-015 -4.371139479195092e-008 0.9999999999999991 5
.000000000000002e-005 17 272 0 295 296 281 141 269 270 0 299 +14 273 167 275 1e-
008 282 264 277 39 274 +0 0 282 264 37 51 274 168 0 273 283 265 0 +-0.0005910610
208199493 0.000566182721028856 0.0003990620739545868 -0.08682660904549791 0.0868
2662206360529 -0.9924325053436552 5.000000000000005e-005 0.9961946980917298 1.77
9899115573163e-007 -0.08715574274765831 81 1 275 169 33 273 0 0 284 266 276 83 3
 276 1 1 1 15 277 170 0 169 273 0 17 278 0 277 116 22 112 281 279 0 296 -16 279
 171 0 ?281 270 288 280 0 0 2 31 280 172 0 279 289 271 0 +-0.0005516090552740117
 0.0005267307495677973 0.0008500000230223609 0.08682660904549716 -0.086826622063
60518 0.9924325053436554 1.741802123742085e-007 -0.9961946942820309 -0.087155786
29271141 4.999999999999999e-005 17 281 0 295 272 296 10 278 279 0 269 +14 282 17
3 284 1e-008 291 273 286 39 283 +0 0 291 273 37 53 283 174 0 282 292 274 0 +0.00
05517714310931199 0.0005267309424889688 0.0008500000230223609 5e-005 7.642741863
815873e-015 -4.371138828673789e-008 0.9999999999999991 0.9999999999999848 1.7484
55531469491e-007 0 81 1 284 175 33 282 0 0 293 275 285 83 3 285 1 1 1 15 286 176
 0 263 282 0 17 287 0 286 263 254 133 290 288 0 0 -16 288 177 0 ?290 279 297 289
 0 0 2 31 289 178 0 288 298 280 0 +0.0005517714310931199 0.0005267309424889688 0
.0008500000230223609 -0.9999999999999848 -1.748455531469491e-007 -1.577721810442
024e-030 -1.748455531469489e-007 0.9999999999999838 4.37113904551429e-008 5.0000
00000000002e-005 17 290 0 304 122 145 118 287 288 0 0 +14 291 179 293 1e-008 300
 282 295 39 292 +0 0 300 282 37 53 292 180 0 291 301 283 0 +-0.00055160905527401
18 0.0005267307495677973 0.0008500000230223609 5e-005 7.642741863815873e-015 -4.
371138828673789e-008 0.9999999999999991 0.9999999999999848 1.748455531469491e-00
7 0 81 1 293 181 33 291 0 0 302 284 294 83 3 294 1 1 1 15 295 182 0 281 291 0 17
 296 0 295 281 272 112 299 297 0 0 -16 297 183 0 ?299 288 0 298 0 0 2 31 298 184
 0 297 0 289 0 +-0.0005516090552740118 0.0005267307495677972 0.00085000002302236
09 0.9999999999999848 1.748455509702618e-007 -9.514602208075702e-023 1.748455509
702616e-007 -0.9999999999999838 -4.371138828673856e-008 5.000000000000002e-005 1
7 299 0 304 145 122 141 296 297 0 0 +14 300 185 302 1e-008 0 291 304 39 301 +0 0
 0 291 37 51 301 186 0 300 0 292 0 +8.118790955397826e-008 0.0005267308460283829
 0.0008500000230223609 -0.9999999999999848 -1.748455532303492e-007 -3.6455370879
10721e-024 5.000000000000002e-005 1.748455532303491e-007 -0.9999999999999838 -4.
371138828673856e-008 81 1 302 187 33 300 0 0 0 293 303 83 3 303 1 1 1 15 304 188
 0 290 300 0 12 305 289 0 306 0 0 0 0 1000 1e-008 0 0 0 1 0 1 1 340 310 316 314
 337 315 313 70 306 0 305 0 0 4 1 20 0 307 307 1 T74 20 307 1 0 308 0 0 0 0 0 0
 0 0 0 0 0 0 0 0 0 0 0 0 0 81 1 308 7 33 309 0 0 343 0 336 14 309 5 308 1e-008 3
41 0 311 340 310 -0 0 341 0 338 50 310 6 0 309 342 0 0 +-0.0009999187724546539 0
.0002999591720415283 0.0003000000131134162 0.9999999999999848 1.748455531469491e
-007 0 -1.748455531469489e-007 0.9999999999999838 4.371138828673856e-008 15 311
 8 0 312 309 0 17 312 0 311 320 332 313 317 315 0 325 -18 313 9 0 312 0 318 314
 ?305 29 314 10 0 313 319 0 -0.0009999188074237668 0.0004999591851549415 2.18556
9414336928e-011 16 315 11 0 ?317 0 323 316 0 0 305 30 316 12 0 315 324 0 0 +-0.0
009999188074237646 0.000499959172041525 0.0003000000218556939 7.642741863815873e
-015 -4.371138828673789e-008 0.9999999999999991 17 317 0 655 487 656 318 312 315
 0 484 +18 318 13 0 317 313 321 319 ?305 29 319 14 0 318 322 314 -0.000999918807
4237646 0.000499959172041525 0.0003000000218556939 17 320 0 311 326 312 321 325
 323 0 670 +18 321 15 0 320 318 327 322 ?305 29 322 16 0 321 328 319 -0.00099991
87724546563 0.0002999591851549447 1.311341648602157e-011 16 323 17 0 ?320 315 32
9 324 0 0 305 30 324 18 0 323 330 316 0 +-0.0009999187724546563 0.00029995918515
49447 1.311341648602157e-011 1.748455531469489e-007 -0.9999999999999838 -4.37113
8828673856e-008 17 325 0 735 659 670 313 320 323 0 656 -17 326 0 311 332 320 327
 331 329 0 335 -18 327 19 0 326 321 347 328 ?305 29 328 20 0 327 348 322 -0.0009
999187724546539 0.0002999591720415283 0.0003000000131134162 16 329 21 0 ?331 323
 333 330 0 0 305 30 330 22 0 329 334 324 0 +-0.0009999187724546539 0.00029995917
20415283 0.0003000000131134162 -7.642741863815873e-015 4.371138828673789e-008 -0
.9999999999999991 17 331 0 664 665 493 321 326 329 0 0 +17 332 0 311 312 326 318
 335 333 0 0 -16 333 23 0 ?335 329 349 334 0 0 305 30 334 24 0 333 350 330 0 +-0
.0009999187724546539 0.0002999591720415283 0.0003000000131134162 1.7484555314694
89e-007 -0.9999999999999838 -4.371138828673856e-008 17 335 0 473 488 484 327 332
 333 0 493 +83 3 336 0.9686274528503418 0.8784313797950745 0.6000000238418579 19
 337 1 0 305 339 0 338 V13 338 2 0 305 0 0 0 0 337 309 19 339 3 0 305 0 337 340
 S13 340 4 0 305 0 309 0 0 339 0 14 341 25 343 1e-008 370 309 345 340 342 -0 0 3
70 309 338 50 342 26 0 341 371 310 0 +0.001000081227545316 0.0002999595217326345
 0.0003000000131134162 -0.9999999999999848 -1.748455531469491e-007 0 1.748455531
469489e-007 -0.9999999999999838 -4.371138828673856e-008 81 1 343 27 33 341 0 0 3
72 308 344 83 3 344 0.9686274528503418 0.8784313797950745 0.6000000238418579 15
 345 28 0 346 341 0 17 346 0 345 354 366 347 351 349 0 359 -18 347 29 0 722 327
 352 348 ?305 29 348 30 0 347 353 328 0.001000081192576205 0.0004999595217326314
 0.0003000000218556939 16 349 31 0 ?351 333 357 350 0 0 305 30 350 32 0 349 358
 334 0 +0.001000081192576205 0.0004999595217326314 0.0003000000218556939 -7.6427
41863815873e-015 4.371138828673789e-008 -0.9999999999999991 17 351 0 721 621 722
 352 346 349 0 0 +18 352 33 0 618 347 355 353 ?305 29 353 34 0 352 356 348 0.001
000081192576203 0.0004999595348460478 2.185569414336928e-011 17 354 0 345 360 34
6 355 359 357 0 365 -18 355 35 0 716 352 361 356 ?305 29 356 36 0 355 362 353 0.
001000081227545316 0.0002999595217326345 0.0003000000131134162 16 357 37 0 ?359
 349 363 358 0 0 305 30 358 38 0 357 364 350 0 +0.001000081227545316 0.000299959
5217326345 0.0003000000131134162 -1.748455531469489e-007 0.9999999999999838 4.37
1138828673856e-008 17 359 0 730 725 716 347 354 357 0 0 +17 360 0 345 366 354 36
1 365 363 0 0 +18 361 39 0 369 355 376 362 ?305 29 362 40 0 361 377 356 0.001000
081227545313 0.0002999595348460509 1.311341648602156e-011 16 363 41 0 ?360 357 3
67 364 0 0 305 30 364 42 0 363 368 358 0 +0.001000081227545316 0.000299959521732
6345 0.0003000000131134162 -7.642741863815873e-015 4.371138828673789e-008 -0.999
9999999999991 17 365 0 712 713 627 355 360 363 0 0 -17 366 0 345 346 360 352 369
 367 0 351 +16 367 43 0 ?366 363 378 368 0 0 305 30 368 44 0 367 379 364 0 +0.00
1000081227545313 0.0002999595348460509 1.311341648602156e-011 -1.748455531469489
e-007 0.9999999999999838 4.371138828673856e-008 17 369 0 617 622 618 361 366 367
 0 627 -14 370 45 372 1e-008 405 341 374 340 371 -0 0 405 341 338 50 371 46 0 37
0 406 342 0 +-0.0009999186107225173 -0.0006250408279584569 0.0002999999726803821
 0.9999999999999848 1.748455531469491e-007 0 -1.748455531469489e-007 0.999999999
9999838 4.371138828673856e-008 81 1 372 47 33 370 0 0 407 343 373 83 3 373 1 1 1
 15 374 48 0 375 370 0 17 375 0 374 383 401 376 380 378 0 680 -18 376 49 0 375 3
61 381 377 ?305 29 377 50 0 376 382 362 -0.0009999186325782138 -0.00050004081484
50422 -2.185569414336928e-011 16 378 51 0 ?380 367 386 379 0 0 305 30 379 52 0 3
78 387 368 0 +-0.0009999186325782114 -0.0005000408279584587 0.000299999978144305
6 7.642741863815873e-015 -4.371138828673789e-008 0.9999999999999991 17 380 0 679
 497 680 381 375 378 0 401 +18 381 53 0 494 376 384 382 ?305 29 382 54 0 381 385
 377 -0.0009999186325782114 -0.0005000408279584587 0.0002999999781443056 17 383
 0 374 389 375 384 388 386 0 518 +18 384 55 0 383 381 390 385 ?305 29 385 56 0 3
84 391 382 -0.0009999186194647974 -0.000575040814845041 -2.513404826487467e-011
 16 386 57 0 ?383 378 392 387 0 0 305 30 387 58 0 386 393 379 0 +-0.000999918610
7225197 -0.0006250408148450404 -2.73196176792116e-011 1.748455531469489e-007 -0.
9999999999999838 -4.371138828673856e-008 17 388 0 735 683 518 376 383 386 0 0 -1
7 389 0 374 395 383 390 394 392 0 0 +18 390 59 0 509 384 396 391 ?305 29 391 60
 0 390 397 385 -0.0009999186107225197 -0.0006250408148450404 -2.73196176792116e-
011 16 392 61 0 ?389 386 398 393 0 0 305 30 393 62 0 392 399 387 0 +-0.000999918
6107225197 -0.0006250408148450404 -2.73196176792116e-011 1.748455531469489e-007
 -0.9999999999999838 -4.371138828673856e-008 17 394 0 502 513 509 384 389 392 0
 0 -17 395 0 374 401 389 396 400 398 0 404 -18 396 63 0 477 390 411 397 ?305 29
 397 64 0 396 412 391 -0.0009999186107225173 -0.0006250408279584569 0.0002999999
726803821 16 398 65 0 ?400 392 402 399 0 0 305 30 399 66 0 398 403 393 0 +-0.000
9999186107225173 -0.0006250408279584569 0.0002999999726803821 -7.642741863815873
e-015 4.371138828673789e-008 -0.9999999999999991 17 400 0 688 512 477 390 395 39
8 0 389 +17 401 0 374 375 395 381 404 402 0 0 -16 402 67 0 ?404 398 413 403 0 0
 305 30 403 68 0 402 414 399 0 +-0.0009999186107225173 -0.0006250408279584569 0.
0002999999726803821 1.748455531469489e-007 -0.9999999999999838 -4.37113882867385
6e-008 17 404 0 473 474 494 396 401 402 0 0 +14 405 69 407 1e-008 440 370 409 34
0 406 -0 0 440 370 338 50 406 70 0 405 441 371 0 +0.001000081389277452 -0.000625
0404782673505 0.0002999999726803821 -0.9999999999999848 -1.748455531469491e-007
 0 1.748455531469489e-007 -0.9999999999999838 -4.371138828673856e-008 81 1 407 7
1 33 405 0 0 442 372 408 83 3 408 1 1 1 15 409 72 0 410 405 0 17 410 0 409 418 4
36 411 415 413 0 423 -18 411 73 0 698 396 416 412 ?305 29 412 74 0 411 417 397 0
.001000081367421758 -0.0005000404782673525 0.0002999999781443056 16 413 75 0 ?41
5 402 421 414 0 0 305 30 414 76 0 413 422 403 0 +0.001000081367421758 -0.0005000
404782673525 0.0002999999781443056 -7.642741863815873e-015 4.371138828673789e-00
8 -0.9999999999999991 17 415 0 697 631 698 416 410 413 0 0 +18 416 77 0 436 411
 419 417 ?305 29 417 78 0 416 420 412 0.001000081367421756 -0.000500040465153936
 -2.185569414336928e-011 17 418 0 409 424 410 419 423 421 0 0 -18 419 79 0 429 4
16 425 420 ?305 29 420 80 0 419 426 417 0.001000081389277452 -0.0006250404782673
505 0.0002999999726803821 16 421 81 0 ?423 413 427 422 0 0 305 30 422 82 0 421 4
28 414 0 +0.001000081389277452 -0.0006250404782673505 0.0002999999726803821 -1.7
48455531469489e-007 0.9999999999999838 4.371138828673856e-008 17 423 0 730 701 6
92 411 418 421 0 0 +17 424 0 409 430 418 425 429 427 0 435 +18 425 83 0 424 419
 431 426 ?305 29 426 84 0 425 432 420 0.00100008138927745 -0.000625040465153934
 -2.73196176792116e-011 16 427 85 0 ?424 421 433 428 0 0 305 30 428 86 0 427 434
 422 0 +0.001000081389277452 -0.0006250404782673505 0.0002999999726803821 -7.642
741863815873e-015 4.371138828673789e-008 -0.9999999999999991 17 429 0 688 689 51
2 419 424 427 0 692 -17 430 0 409 436 424 431 435 433 0 503 +18 431 87 0 430 425
 446 432 ?305 29 432 88 0 431 447 426 0.001000081380535172 -0.000575040465153934
7 -2.513404826487467e-011 16 433 89 0 ?430 427 437 434 0 0 305 30 434 90 0 433 4
38 428 0 +0.00100008138927745 -0.000625040465153934 -2.73196176792116e-011 -1.74
8455531469489e-007 0.9999999999999838 4.371138828673856e-008 17 435 0 502 509 50
3 425 430 433 0 512 -17 436 0 409 410 430 416 439 437 0 628 +16 437 91 0 ?436 43
3 448 438 0 0 305 30 438 92 0 437 449 434 0 +0.00100008138927745 -0.000625040465
153934 -2.73196176792116e-011 -1.748455531469489e-007 0.9999999999999838 4.37113
8828673856e-008 17 439 0 617 506 628 431 436 437 0 0 -14 440 93 442 1e-008 469 4
05 444 340 441 +0 0 469 405 338 50 441 94 0 440 470 406 0 +0.001000081279998982
 -4.047826736066369e-008 0.0002999999999999997 7.642741863815873e-015 -4.3711388
28673789e-008 0.9999999999999991 1.748455531469489e-007 -0.9999999999999838 -4.3
71138828673856e-008 81 1 442 95 33 440 0 0 471 407 443 83 3 443 1 1 1 15 444 96
 0 445 440 0 17 445 0 444 453 465 446 450 448 0 689 +18 446 97 0 445 431 451 447
 ?305 29 447 98 0 446 452 432 0.0006500813892774577 -0.0006250405394632942 0.000
2999999726803821 16 448 99 0 ?445 437 456 449 0 0 305 30 449 100 0 448 457 438 0
 +-0.0009999186107225173 -0.0006250408279584569 0.0002999999726803821 0.99999999
99999848 1.748455531469491e-007 0 17 450 0 688 477 689 451 445 448 0 465 -18 451
 101 0 474 446 454 452 ?305 29 452 102 0 451 455 447 -0.0006499186107225225 -0.0
006250407667625133 0.0002999999726803821 17 453 0 444 459 445 454 458 456 0 0 +1
8 454 103 0 646 451 460 455 ?305 29 455 104 0 454 461 452 0.0006500811707205162
 0.0006249594605366856 0.0003000000273196174 16 456 105 0 ?453 448 462 457 0 0 3
05 30 457 106 0 456 463 449 0 +0.0006500812799989868 -4.05394633042044e-008 0.00
02999999999999997 -1.748455529734766e-007 0.9999999999999838 4.371138828673856e-
008 17 458 0 730 692 646 446 453 456 0 0 -17 459 0 444 465 453 460 464 462 0 468
 +18 460 107 0 483 454 479 461 ?305 29 461 108 0 460 480 455 -0.0006499188292794
639 0.0006249592332374665 0.0003000000273196174 16 462 109 0 ?459 456 466 463 0
 0 305 30 463 110 0 462 467 457 0 +-0.0009999188292794587 0.000624959172041523 0
.0003000000273196174 -0.9999999999999848 -1.748455531469491e-007 0 17 464 0 636
 641 483 454 459 462 0 453 -17 465 0 444 445 459 451 468 466 0 0 -16 466 111 0 ?
468 462 475 467 0 0 305 30 467 112 0 466 476 463 0 +-0.0006499187200009932 -4.07
6676252364238e-008 0.0002999999999999997 -1.748455533204213e-007 0.9999999999999
838 4.371138828673856e-008 17 468 0 473 478 474 460 465 466 0 0 +14 469 113 471
 1e-008 498 440 473 340 470 +0 0 498 440 338 50 470 114 0 469 499 441 0 +0.00100
0081279998982 -4.047826736066369e-008 0.0002999999999999997 7.642741863815873e-0
15 -4.371138828673789e-008 0.9999999999999991 1.748455531469489e-007 -0.99999999
99999838 -4.371138828673856e-008 81 1 471 115 33 469 0 0 500 442 472 83 3 472 0.
9686274528503418 0.8784313797950745 0.6000000238418579 15 473 116 0 474 469 0 17
 474 0 473 468 404 451 477 475 0 450 +16 475 117 0 ?474 466 481 476 0 0 305 30 4
76 118 0 475 482 467 0 +-0.0009999186107225173 -0.0006250408279584569 0.00029999
99726803821 0.9999999999999848 1.748455531469491e-007 0 17 477 0 688 400 450 396
 474 475 0 395 -17 478 0 473 484 468 479 483 481 0 637 +18 479 119 0 478 460 489
 480 ?305 29 480 120 0 479 490 461 -0.0009999188292794587 0.000624959172041523 0
.0003000000273196174 16 481 121 0 ?478 475 485 482 0 0 305 30 482 122 0 481 486
 476 0 +-0.0009999188292794587 0.000624959172041523 0.0003000000273196174 -0.999
9999999999848 -1.748455531469491e-007 0 17 483 0 636 464 637 460 478 481 0 459 -
17 484 0 473 335 478 318 487 485 0 332 +16 485 123 0 ?484 481 491 486 0 0 305 30
 486 124 0 485 492 482 0 +-0.0009999187724546539 0.0002999591720415283 0.0003000
000131134162 1.748455531469489e-007 -0.9999999999999838 -4.371138828673856e-008
 17 487 0 655 640 317 479 484 485 0 0 -17 488 0 473 494 335 489 493 491 0 0 +18
 489 125 0 671 479 507 490 ?305 29 490 126 0 489 508 480 -0.0009999186675473221
 -0.0003000408279584619 0.0002999999868865833 16 491 127 0 ?488 485 495 492 0 0
 305 31 492 128 0 491 496 486 0 +-0.0009999187200009881 -4.082795846684916e-008
 0.0002999999999999997 -7.642741863815873e-015 4.37113882867379e-008 -0.99999999
99999991 1.748455531469489e-007 -0.9999999999999838 -4.371138828673856e-008 0.00
03 17 493 0 664 331 671 327 488 491 0 0 -17 494 0 473 404 488 381 497 495 0 380
 +16 495 129 0 ?494 491 504 496 0 0 305 30 496 130 0 495 505 492 0 +-0.000999918
6107225173 -0.0006250408279584569 0.0002999999726803821 1.748455531469489e-007 -
0.9999999999999838 -4.371138828673856e-008 17 497 0 679 674 380 489 494 495 0 48
8 -14 498 131 500 1e-008 608 469 502 340 499 -0 0 608 469 338 50 499 132 0 498 6
09 470 0 +0.001000081279998979 -4.046515394417767e-008 -4.739198214283937e-027 7
.642741863815873e-015 -4.371138828673789e-008 0.9999999999999991 1.7484555314694
89e-007 -0.9999999999999838 -4.371138828673856e-008 81 1 500 133 33 498 0 0 610
 471 501 83 3 501 1 1 1 15 502 134 0 503 498 559 17 503 0 502 435 555 431 506 50
4 0 439 -16 504 135 0 ?506 495 510 505 0 0 305 30 505 136 0 504 511 496 0 +0.001
000081380535173 -0.0005750404651539347 -2.513404826487467e-011 -0.99999999999998
48 -1.748455534179996e-007 -1.184799553570984e-023 17 506 0 617 558 439 507 503
 504 0 555 +18 507 137 0 506 489 514 508 ?305 29 508 138 0 507 515 490 0.0006000
813805351783 -0.000575040535092156 -2.513404826487468e-011 17 509 0 502 394 435
 390 512 510 0 400 -16 510 139 0 ?512 504 516 511 0 0 305 30 511 140 0 510 517 5
05 0 +-0.0009999186107225197 -0.0006250408148450404 -2.73196176792116e-011 0.999
9999999999848 1.748455531469491e-007 0 17 512 0 688 429 400 425 509 510 0 0 +17
 513 0 502 519 394 514 518 516 0 0 -18 514 141 0 524 507 520 515 ?305 29 515 142
 0 514 521 508 -0.0005999186194648033 -0.0005750407449068198 -2.513404826487467e
-011 16 516 143 0 ?518 510 522 517 0 0 305 30 517 144 0 516 523 511 0 +0.0010000
81380535172 -0.0005750404651539347 -2.513404826487467e-011 -0.9999999999999848 -
1.748455531469491e-007 0 17 518 0 735 388 524 384 513 516 0 394 +17 519 0 502 52
5 513 520 524 522 0 530 -18 520 145 0 519 514 526 521 ?305 29 521 146 0 520 527
 515 -0.0005999188205371894 0.0005749592550931615 2.513404826487468e-011 16 522
 147 0 ?524 516 528 523 0 0 305 30 523 148 0 522 529 517 0 +-0.00059991872000099
63 -4.074490682921279e-008 -4.739198214283937e-027 1.748455531469489e-007 -0.999
9999999999838 -4.371138828673856e-008 17 524 0 735 518 530 514 519 522 0 513 +17
 525 0 502 531 519 526 530 528 0 536 -18 526 149 0 525 520 532 527 ?305 29 527 1
50 0 526 533 521 -0.0009999188205371834 0.0005749591851549405 2.513404826487468e
-011 16 528 151 0 ?530 522 534 529 0 0 305 30 529 152 0 528 535 523 0 +0.0010000
81179462786 0.0005749595348460464 2.513404826487466e-011 0.9999999999999848 1.74
8455528758985e-007 -1.184799553570985e-023 17 530 0 735 524 659 520 525 528 0 0
 +17 531 0 502 537 525 532 536 534 0 640 -18 532 153 0 531 526 538 533 ?305 29 5
33 154 0 532 539 527 -0.0009999188292794609 0.0006249591851549395 2.731961767921
159e-011 16 534 155 0 ?536 528 540 535 0 0 305 30 535 156 0 534 541 529 0 +-0.00
09999187724546563 0.0002999591851549447 1.311341648602157e-011 1.748455531469489
e-007 -0.9999999999999838 -4.371138828673856e-008 17 536 0 655 656 640 526 531 5
34 0 659 +17 537 0 502 543 531 538 542 540 0 548 -18 538 157 0 537 532 544 539 ?
305 29 539 158 0 538 545 533 0.001000081170720509 0.0006249595348460457 2.731961
767921159e-011 16 540 159 0 ?542 534 546 541 0 0 305 30 541 160 0 540 547 535 0
 +-0.0009999188292794609 0.0006249591851549395 2.731961767921159e-011 -0.9999999
999999848 -1.748455531469491e-007 0 17 542 0 636 637 647 532 537 540 0 0 +17 543
 0 502 549 537 544 548 546 0 554 -18 544 161 0 621 538 550 545 ?305 29 545 162 0
 544 551 539 0.001000081179462786 0.0005749595348460464 2.513404826487466e-011 1
6 546 163 0 ?548 540 552 547 0 0 305 30 547 164 0 546 553 541 0 +0.0010000812275
45313 0.0002999595348460509 1.311341648602156e-011 -1.748455531469489e-007 0.999
9999999999838 4.371138828673856e-008 17 548 0 721 650 621 538 543 546 0 647 +17
 549 0 502 555 543 550 554 552 0 0 -18 550 165 0 558 544 561 551 ?305 29 551 166
 0 550 562 545 0.0006000811794627922 0.0005749594649078252 2.513404826487467e-01
1 16 552 167 0 ?554 546 556 553 0 0 305 30 553 168 0 552 557 547 0 +0.0010000811
79462786 0.0005749595348460464 2.513404826487466e-011 0.9999999999999848 1.74845
5528758985e-007 -1.184799553570984e-023 17 554 0 617 618 558 544 549 552 0 0 +17
 555 0 502 503 549 507 558 556 0 0 -16 556 169 0 ?558 552 563 557 0 0 305 30 557
 170 0 556 564 553 0 +0.0006000812799989852 -4.053509216539874e-008 -3.090781444
098219e-027 -1.748455530526705e-007 0.9999999999999838 4.371138828673856e-008 17
 558 0 617 554 506 550 555 556 0 549 +15 559 171 0 560 498 0 17 560 0 559 568 60
4 561 565 563 0 573 -18 561 172 0 560 550 566 562 ?305 29 562 173 0 561 567 551
 -3.741862820708959e-005 -0.000525040646556197 -2.294847885053774e-011 16 563 17
4 0 ?565 556 571 564 0 0 305 30 564 175 0 563 572 557 0 +0.001000081371792895 -0
.0005250404651539355 -2.294847885053774e-011 -0.9999999999999848 -1.748455531469
491e-007 0 17 565 0 612 607 573 566 560 563 0 604 +18 566 176 0 565 561 569 567
 ?305 29 567 177 0 566 570 562 -0.0001624186282070878 -0.0005250406684118911 -2.
294847885053774e-011 17 568 0 559 574 560 569 573 571 0 579 -18 569 178 0 568 56
6 575 570 ?305 29 570 179 0 569 576 567 -3.741870907315792e-005 -6.2540646556204
44e-005 -2.73196176792116e-012 16 571 180 0 ?573 563 577 572 0 0 305 30 572 181
 0 571 578 564 0 +-3.741872000100499e-005 -4.064655620556762e-008 -4.73919821428
3937e-027 1.748455531469489e-007 -0.9999999999999838 -4.371138828673856e-008 17
 573 0 612 565 579 561 568 571 0 0 +17 574 0 559 580 568 575 579 577 0 585 -18 5
75 182 0 574 569 581 576 ?305 29 576 183 0 575 582 570 0.000162581290926839 -6.2
54061158709382e-005 -2.73196176792116e-012 16 577 184 0 ?579 571 583 578 0 0 305
 30 578 185 0 577 584 572 0 +0.001000081290926826 -6.254046515394305e-005 -2.731
96176792116e-012 -0.9999999999999848 -1.748455531469491e-007 0 17 579 0 612 573
 585 569 574 577 0 0 +17 580 0 559 586 574 581 585 583 0 0 -18 581 186 0 591 575
 587 582 ?305 29 582 187 0 581 588 576 0.0001625812690711449 6.245938841290416e-
005 2.73196176792116e-012 16 583 188 0 ?585 577 589 584 0 0 305 30 584 189 0 583
 590 578 0 +0.000162581279998992 -4.061158709493824e-008 -4.739198214283937e-027
 1.748455531469489e-007 -0.9999999999999838 -4.371138828673856e-008 17 585 0 612
 579 591 575 580 583 0 0 +17 586 0 559 592 580 587 591 589 0 597 -18 587 190 0 5
86 581 593 588 ?305 29 588 191 0 587 594 582 -3.741873092885206e-005 6.245935344
379353e-005 2.73196176792116e-012 16 589 192 0 ?591 583 595 590 0 0 305 30 590 1
93 0 589 596 584 0 +0.001000081269071132 6.245953484605492e-005 2.73196176792116
e-012 0.9999999999999848 1.748455531469491e-007 0 17 591 0 612 585 597 581 586 5
89 0 580 +17 592 0 559 598 586 593 597 595 0 0 -18 593 194 0 603 587 599 594 ?30
5 29 594 195 0 593 600 588 -3.741881179492039e-005 0.0005249593534437859 2.29484
7885053774e-011 16 595 196 0 ?597 589 601 596 0 0 305 30 596 197 0 595 602 590 0
 +-3.741872000100499e-005 -4.064655620556762e-008 -4.739198214283937e-027 1.7484
55531469489e-007 -0.9999999999999838 -4.371138828673856e-008 17 597 0 612 591 60
3 587 592 595 0 0 +17 598 0 559 604 592 599 603 601 0 607 -18 599 198 0 598 593
 623 600 ?305 29 600 199 0 599 624 594 -0.0001624188117949186 0.0005249593315880
918 2.294847885053774e-011 16 601 200 0 ?603 595 605 602 0 0 305 30 602 201 0 60
1 606 596 0 +0.001000081188205064 0.0005249595348460474 2.294847885053774e-011 0
.9999999999999848 1.748455531469491e-007 0 17 603 0 612 597 607 593 598 601 0 59
2 +17 604 0 559 560 598 566 607 605 0 0 -16 605 202 0 ?607 601 619 606 0 0 305 3
0 606 203 0 605 620 602 0 +-0.0001624187200010032 -4.066841189971099e-008 -4.739
198214283937e-027 -1.748455531469489e-007 0.9999999999999838 4.371138828673856e-
008 17 607 0 612 603 565 599 604 605 0 0 +14 608 204 610 1e-008 613 498 612 340
 609 -0 0 613 498 338 50 609 205 0 608 614 499 0 +0.001000081279998979 -4.046515
394417767e-008 -4.739198214283937e-027 7.642741863815873e-015 -4.371138828673789
e-008 0.9999999999999991 1.748455531469489e-007 -0.9999999999999838 -4.371138828
673856e-008 81 1 610 206 33 608 0 0 615 500 611 83 3 611 0.2862745225429535 0.66
27451181411743 0.3294117748737335 15 612 207 0 573 608 0 14 613 208 615 1e-008 6
32 608 617 340 614 -0 0 632 608 338 50 614 209 0 613 633 609 0 +0.00100008127999
8979 -4.046515394417767e-008 -4.739198214283937e-027 7.642741863815873e-015 -4.3
71138828673789e-008 0.9999999999999991 1.748455531469489e-007 -0.999999999999983
8 -4.371138828673856e-008 81 1 615 210 33 613 0 0 634 610 616 83 3 616 0.9686274
528503418 0.8784313797950745 0.6000000238418579 15 617 211 0 439 613 0 17 618 0
 617 369 554 352 621 619 0 366 -16 619 212 0 ?621 605 625 620 0 0 305 30 620 213
 0 619 626 606 0 +0.001000081227545313 0.0002999595348460509 1.311341648602156e-
011 -1.748455531469489e-007 0.9999999999999838 4.371138828673856e-008 17 621 0 7
21 548 351 544 618 619 0 543 +17 622 0 617 628 369 623 627 625 0 631 -18 623 214
 0 622 599 642 624 ?305 29 624 215 0 623 643 600 0.001000081332452645 -0.0003000
404651539393 -1.311341648602157e-011 16 625 216 0 ?627 619 629 626 0 0 305 31 62
6 217 0 625 630 620 0 +0.001000081279998979 -4.046515394417767e-008 -4.739198214
283937e-027 -7.642741863815873e-015 4.37113882867379e-008 -0.9999999999999991 1.
748455531469489e-007 -0.9999999999999838 -4.371138828673856e-008 0.0003 17 627 0
 712 365 707 361 622 625 0 360 +17 628 0 617 439 622 416 631 629 0 415 -16 629 2
18 0 ?631 625 638 630 0 0 305 30 630 219 0 629 639 626 0 +0.00100008138927745 -0
.000625040465153934 -2.73196176792116e-011 -1.748455531469489e-007 0.99999999999
99838 4.371138828673856e-008 17 631 0 697 704 415 623 628 629 0 707 +14 632 220
 634 1e-008 651 613 636 340 633 -0 0 651 613 338 50 633 221 0 632 652 614 0 +-0.
0009999188292794587 0.000624959172041523 0.0003000000273196174 1.748455531469489
e-007 -0.9999999999999838 -4.371138828673856e-008 0.9999999999999848 1.748455531
469491e-007 0 81 1 634 222 33 632 0 0 653 615 635 83 3 635 1 1 1 15 636 223 0 54
2 632 0 17 637 0 636 483 542 479 640 638 0 487 -16 638 224 0 ?640 629 644 639 0
 0 305 30 639 225 0 638 645 630 0 +-0.0009999188292794587 0.000624959172041523 0
.0003000000273196174 -7.642741863815873e-015 4.371138828673789e-008 -0.999999999
9999991 17 640 0 655 536 487 532 637 638 0 542 +17 641 0 636 647 464 642 646 644
 0 725 -18 642 226 0 641 623 666 643 ?305 29 643 227 0 642 667 624 0.00100008117
0720511 0.0006249595217326292 0.0003000000273196174 16 644 228 0 ?646 638 648 64
5 0 0 305 30 645 229 0 644 649 639 0 +-0.0009999188292794587 0.00062495917204152
3 0.0003000000273196174 -0.9999999999999848 -1.748455531469491e-007 0 17 646 0 7
30 458 725 454 641 644 0 464 +17 647 0 636 542 641 538 650 648 0 0 +16 648 230 0
 ?647 644 657 649 0 0 305 30 649 231 0 648 658 645 0 +0.001000081170720511 0.000
6249595217326292 0.0003000000273196174 -7.642741863815873e-015 4.371138828673789
e-008 -0.9999999999999991 17 650 0 721 722 548 642 647 648 0 0 -14 651 232 653 1
e-008 660 632 655 340 652 -0 0 660 632 338 50 652 233 0 651 661 633 0 +-0.000999
9187724546539 0.0002999591720415283 0.0003000000131134162 0.9999999999999848 1.7
48455531469491e-007 0 -1.748455531469489e-007 0.9999999999999838 4.3711388286738
56e-008 81 1 653 234 33 651 0 0 662 634 654 83 3 654 1 1 1 15 655 235 0 656 651
 0 17 656 0 655 317 536 313 659 657 0 0 +16 657 236 0 ?656 648 668 658 0 0 305 3
0 658 237 0 657 669 649 0 +-0.0009999187724546563 0.0002999591851549447 1.311341
648602157e-011 1.748455531469489e-007 -0.9999999999999838 -4.371138828673856e-00
8 17 659 0 735 530 325 526 656 657 0 0 -14 660 238 662 1e-008 675 651 664 340 66
1 -0 0 675 651 338 51 661 239 0 660 676 652 0 +-0.0009999187200009881 -4.0827958
46684916e-008 0.0002999999999999997 -7.642741863815873e-015 4.371138828673789e-0
08 -0.9999999999999991 0.0003 -1.748455531469489e-007 0.9999999999999838 4.37113
8828673856e-008 81 1 662 240 33 660 0 0 677 653 663 83 3 663 0.9686274528503418
 0.8784313797950745 0.6000000238418579 15 664 241 0 665 660 0 17 665 0 664 671 3
31 666 670 668 0 683 +18 666 242 0 674 642 702 667 ?305 29 667 243 0 666 703 643
 -0.0009999186675473243 -0.0003000408148450455 -1.311341648602157e-011 16 668 24
4 0 ?665 657 672 669 0 0 305 31 669 245 0 668 673 658 0 +-0.0009999187200009903
 -4.081484505036315e-008 0 -7.642741863815873e-015 4.37113882867379e-008 -0.9999
999999999991 1.748455531469489e-007 -0.9999999999999838 -4.371138828673856e-008
 0.0003 17 670 0 735 325 683 321 665 668 0 331 -17 671 0 664 493 665 489 674 672
 0 497 -16 672 246 0 ?674 668 681 673 0 0 305 30 673 247 0 672 682 669 0 +-0.000
9999186675473221 -0.0003000408279584619 0.0002999999868865833 -7.642741863815873
e-015 4.371138828673789e-008 -0.9999999999999991 17 674 0 679 680 497 666 671 67
2 0 665 +14 675 248 677 1e-008 684 660 679 340 676 -0 0 684 660 338 50 676 249 0
 675 685 661 0 +-0.0009999186107225173 -0.0006250408279584569 0.0002999999726803
821 0.9999999999999848 1.748455531469491e-007 0 -1.748455531469489e-007 0.999999
9999999838 4.371138828673856e-008 81 1 677 250 33 675 0 0 686 662 678 83 3 678 0
.9686274528503418 0.8784313797950745 0.6000000238418579 15 679 251 0 680 675 0 1
7 680 0 679 380 674 376 683 681 0 388 +16 681 252 0 ?680 672 690 682 0 0 305 30
 682 253 0 681 691 673 0 +-0.0009999186107225197 -0.0006250408148450404 -2.73196
176792116e-011 1.748455531469489e-007 -0.9999999999999838 -4.371138828673856e-00
8 17 683 0 735 670 388 666 680 681 0 0 -14 684 254 686 1e-008 693 675 688 340 68
5 -0 0 693 675 338 50 685 255 0 684 694 676 0 +-0.0009999186107225173 -0.0006250
408279584569 0.0002999999726803821 -1.748455531469489e-007 0.9999999999999838 4.
371138828673856e-008 -0.9999999999999848 -1.748455531469491e-007 0 81 1 686 256
 33 684 0 0 695 677 687 83 3 687 1 1 1 15 688 257 0 512 684 0 17 689 0 688 450 4
29 446 692 690 0 458 -16 690 258 0 ?692 681 699 691 0 0 305 30 691 259 0 690 700
 682 0 +-0.0009999186107225173 -0.0006250408279584569 0.0002999999726803821 0.99
99999999999848 1.748455531469491e-007 0 17 692 0 730 423 458 419 689 690 0 418 +
14 693 260 695 1e-008 708 684 697 340 694 -0 0 708 684 338 50 694 261 0 693 709
 685 0 +0.001000081389277452 -0.0006250404782673505 0.0002999999726803821 -0.999
9999999999848 -1.748455531469491e-007 0 1.748455531469489e-007 -0.99999999999998
38 -4.371138828673856e-008 81 1 695 262 33 693 0 0 710 686 696 83 3 696 0.968627
4528503418 0.8784313797950745 0.6000000238418579 15 697 263 0 698 693 0 17 698 0
 697 415 704 411 701 699 0 410 -16 699 264 0 ?701 690 705 700 0 0 305 30 700 265
 0 699 706 691 0 +0.001000081389277452 -0.0006250404782673505 0.0002999999726803
821 -1.748455531469489e-007 0.9999999999999838 4.371138828673856e-008 17 701 0 7
30 716 423 702 698 699 0 713 +18 702 266 0 701 666 0 703 ?305 29 703 267 0 702 0
 667 0.001000081332452647 -0.0003000404782673557 0.0002999999868865833 17 704 0
 697 698 631 702 707 705 0 0 -16 705 268 0 ?707 699 714 706 0 0 305 30 706 269 0
 705 715 700 0 +0.001000081332452647 -0.0003000404782673557 0.000299999986886583
3 -7.642741863815873e-015 4.371138828673789e-008 -0.9999999999999991 17 707 0 71
2 627 713 623 704 705 0 0 +14 708 270 710 1e-008 717 693 712 340 709 -0 0 717 69
3 338 51 709 271 0 708 718 694 0 +0.001000081279998982 -4.047826736066369e-008 0
.0002999999999999997 -7.642741863815873e-015 4.371138828673789e-008 -0.999999999
9999991 0.0003 -1.748455531469489e-007 0.9999999999999838 4.371138828673856e-008
 81 1 710 272 33 708 0 0 719 695 711 83 3 711 0.9686274528503418 0.8784313797950
745 0.6000000238418579 15 712 273 0 627 708 0 17 713 0 712 707 365 702 716 714 0
 704 -16 714 274 0 ?716 705 723 715 0 0 305 31 715 275 0 714 724 706 0 +0.001000
081279998982 -4.047826736066369e-008 0.0002999999999999997 -7.642741863815873e-0
15 4.37113882867379e-008 -0.9999999999999991 1.748455531469489e-007 -0.999999999
9999838 -4.371138828673856e-008 0.0003 17 716 0 730 359 701 355 713 714 0 354 +1
4 717 276 719 1e-008 726 708 721 340 718 -0 0 726 708 338 50 718 277 0 717 727 7
09 0 +0.001000081227545316 0.0002999595217326345 0.0003000000131134162 -0.999999
9999999848 -1.748455531469491e-007 0 1.748455531469489e-007 -0.9999999999999838
 -4.371138828673856e-008 81 1 719 278 33 717 0 0 728 710 720 83 3 720 1 1 1 15 7
21 279 0 722 717 0 17 722 0 721 351 650 347 725 723 0 346 -16 723 280 0 ?725 714
 0 724 0 0 305 30 724 281 0 723 0 715 0 +0.001000081227545316 0.0002999595217326
345 0.0003000000131134162 -1.748455531469489e-007 0.9999999999999838 4.371138828
673856e-008 17 725 0 730 646 359 642 722 723 0 650 +14 726 282 728 1e-008 731 71
7 730 340 727 +0 0 731 717 338 50 727 283 0 726 732 718 0 +0.001000081279998982
 -4.047826736066369e-008 0.0002999999999999997 7.642741863815873e-015 -4.3711388
28673789e-008 0.9999999999999991 1.748455531469489e-007 -0.9999999999999838 -4.3
71138828673856e-008 81 1 728 284 33 726 0 0 733 719 729 83 3 729 0.9686274528503
418 0.8784313797950745 0.6000000238418579 15 730 285 0 458 726 0 14 731 286 733
 1e-008 0 726 735 340 732 -0 0 0 726 338 50 732 287 0 731 0 727 0 +0.00100008127
9998979 -4.046515394417767e-008 -4.739198214283937e-027 7.642741863815873e-015 -
4.371138828673789e-008 0.9999999999999991 1.748455531469489e-007 -0.999999999999
9838 -4.371138828673856e-008 81 1 733 288 33 731 0 0 0 728 734 83 3 734 0.968627
4528503418 0.8784313797950745 0.6000000238418579 15 735 289 0 659 731 0 12 736 6
8 0 737 0 0 0 0 1000 1e-008 0 0 0 1 0 1 1 771 741 747 745 768 746 744 70 737 0 7
36 0 0 4 1 20 0 738 738 1 T74 20 738 1 0 739 0 0 0 0 0 0 0 0 0 0 0 0 0 0 0 0 0 0
 0 81 1 739 7 33 740 0 0 774 0 767 14 740 5 739 1e-008 772 0 742 771 741 -0 0 77
2 0 769 50 741 6 0 740 773 0 0 +0.000400081341194935 -0.0003500405875458256 0.00
03999999847010138 -0.9999999999999848 -1.748455531469491e-007 0 1.74845553146948
9e-007 -0.9999999999999838 -4.371138828673856e-008 15 742 8 0 743 740 0 17 743 0
 742 751 763 744 748 746 0 756 +18 744 9 0 743 0 749 745 ?736 29 745 10 0 744 75
0 0 0.000400081218803047 0.0003499594168253018 0.0003000000152989856 16 746 11 0
 ?743 0 754 747 0 0 736 30 747 12 0 746 755 0 0 +0.0004000813411949342 -0.000350
0405831746869 0.0002999999847010138 -1.748455531469489e-007 0.9999999999999838 4
.371138828673856e-008 17 748 0 836 822 782 749 743 746 0 819 -18 749 13 0 748 74
4 752 750 ?736 29 750 14 0 749 753 745 0.0004000813411949342 -0.0003500405831746
869 0.0002999999847010138 17 751 0 742 757 743 752 756 754 0 762 -18 752 15 0 78
9 749 758 753 ?736 29 753 16 0 752 759 750 0.0004000812188030478 0.0003499594124
54163 0.0004000000152989856 16 754 17 0 ?756 746 760 755 0 0 736 30 755 18 0 754
 761 747 0 +0.0004000812188030478 0.000349959412454163 0.0004000000152989856 -7.
642741863815873e-015 4.371138828673789e-008 -0.9999999999999991 17 756 0 776 777
 789 744 751 754 0 782 +17 757 0 742 763 751 758 762 760 0 0 -18 758 19 0 766 75
2 778 759 ?736 29 759 20 0 758 779 753 0.000400081341194935 -0.00035004058754582
56 0.0003999999847010138 16 760 21 0 ?762 754 764 761 0 0 736 30 761 22 0 760 76
5 755 0 +0.000400081341194935 -0.0003500405875458256 0.0003999999847010138 -1.74
8455531469489e-007 0.9999999999999838 4.371138828673856e-008 17 762 0 831 792 82
6 752 757 760 0 0 +17 763 0 742 743 757 749 766 764 0 0 +16 764 23 0 ?763 760 78
0 765 0 0 736 30 765 24 0 764 781 761 0 +0.000400081341194935 -0.000350040587545
8256 0.0003999999847010138 -7.642741863815873e-015 4.371138828673789e-008 -0.999
9999999999991 17 766 0 818 823 819 758 763 764 0 826 -83 3 767 1 1 1 19 768 1 0
 736 770 0 769 V13 769 2 0 736 0 0 0 0 768 740 19 770 3 0 736 0 768 771 S13 771
 4 0 736 0 740 0 0 770 0 14 772 25 774 1e-008 793 740 776 771 773 -0 0 793 740 7
69 50 773 26 0 772 794 741 0 +-0.00039991878119694 0.0003499592725777205 0.00040
00000152989856 1.748455531469489e-007 -0.9999999999999838 -4.371138828673856e-00
8 0.9999999999999848 1.748455531469491e-007 0 81 1 774 27 33 772 0 0 795 739 775
 83 3 775 1 1 1 15 776 28 0 777 772 0 17 777 0 776 783 756 778 782 780 0 788 +18
 778 29 0 803 758 784 779 ?736 29 779 30 0 778 785 759 -0.0003999187811969408 0.
0003499592769488593 0.0003000000152989856 16 780 31 0 ?777 764 786 781 0 0 736 3
0 781 32 0 780 787 765 0 +-0.0003999187811969408 0.0003499592769488593 0.0003000
000152989856 -0.9999999999999848 -1.748455531469491e-007 0 17 782 0 836 748 803
 744 777 780 0 0 -17 783 0 776 789 777 784 788 786 0 0 -18 784 33 0 792 778 799
 785 ?736 29 785 34 0 784 800 779 -0.00039991878119694 0.0003499592725777205 0.0
004000000152989856 16 786 35 0 ?788 780 790 787 0 0 736 30 787 36 0 786 791 781
 0 +-0.00039991878119694 0.0003499592725777205 0.0004000000152989856 -7.64274186
3815873e-015 4.371138828673789e-008 -0.9999999999999991 17 788 0 797 798 810 778
 783 786 0 0 +17 789 0 776 756 783 752 792 790 0 751 -16 790 37 0 ?792 786 801 7
91 0 0 736 30 791 38 0 790 802 787 0 +-0.00039991878119694 0.0003499592725777205
 0.0004000000152989856 -0.9999999999999848 -1.748455531469491e-007 0 17 792 0 83
1 813 762 784 789 790 0 810 +14 793 39 795 1e-008 814 772 797 771 794 -0 0 814 7
72 769 50 794 40 0 793 815 773 0 +-0.0003999186588050529 -0.0003500407274222682
 0.0003999999847010138 0.9999999999999848 1.748455531469491e-007 0 -1.7484555314
69489e-007 0.9999999999999838 4.371138828673856e-008 81 1 795 41 33 793 0 0 816
 774 796 83 3 796 1 1 1 15 797 42 0 798 793 0 17 798 0 797 804 788 799 803 801 0
 822 +18 799 43 0 798 784 805 800 ?736 29 800 44 0 799 806 785 -0.00039991865880
50536 -0.0003500407230511293 0.0002999999847010138 16 801 45 0 ?798 790 807 802
 0 0 736 30 802 46 0 801 808 791 0 +-0.0003999186588050536 -0.000350040723051129
3 0.0002999999847010138 1.748455531469489e-007 -0.9999999999999838 -4.3711388286
73856e-008 17 803 0 836 782 822 778 798 801 0 777 -17 804 0 797 810 798 805 809
 807 0 823 -18 805 47 0 813 799 0 806 ?736 29 806 48 0 805 0 800 -0.000399918658
8050529 -0.0003500407274222682 0.0003999999847010138 16 807 49 0 ?809 801 811 80
8 0 0 736 30 808 50 0 807 812 802 0 +-0.0003999186588050529 -0.00035004072742226
82 0.0003999999847010138 -7.642741863815873e-015 4.371138828673789e-008 -0.99999
99999999991 17 809 0 818 819 823 799 804 807 0 0 +17 810 0 797 788 804 784 813 8
11 0 783 -16 811 51 0 ?813 807 820 812 0 0 736 30 812 52 0 811 821 808 0 +-0.000
3999186588050529 -0.0003500407274222682 0.0003999999847010138 1.748455531469489e
-007 -0.9999999999999838 -4.371138828673856e-008 17 813 0 831 826 792 805 810 81
1 0 804 +14 814 53 816 1e-008 827 793 818 771 815 -0 0 827 793 769 50 815 54 0 8
14 828 794 0 +-0.0003999186588050529 -0.0003500407274222682 0.000399999984701013
8 -1.748455531469489e-007 0.9999999999999838 4.371138828673856e-008 -0.999999999
9999848 -1.748455531469491e-007 0 81 1 816 55 33 814 0 0 829 795 817 83 3 817 1
 1 1 15 818 56 0 819 814 0 17 819 0 818 766 809 749 822 820 0 763 +16 820 57 0 ?
819 811 824 821 0 0 736 30 821 58 0 820 825 812 0 +-0.0003999186588050536 -0.000
3500407230511293 0.0002999999847010138 0.9999999999999848 1.748455531469491e-007
 0 17 822 0 836 803 748 799 819 820 0 809 -17 823 0 818 809 766 805 826 824 0 0
 -16 824 59 0 ?826 820 0 825 0 0 736 30 825 60 0 824 0 821 0 +-0.000399918658805
0529 -0.0003500407274222682 0.0003999999847010138 0.9999999999999848 1.748455531
469491e-007 0 17 826 0 831 762 813 758 823 824 0 757 +14 827 61 829 1e-008 832 8
14 831 771 828 -0 0 832 814 769 50 828 62 0 827 833 815 0 +8.127999899748949e-00
8 -4.065748405253089e-008 0.0003999999999999997 -7.642741863815873e-015 4.371138
828673789e-008 -0.9999999999999991 -1.748455531469489e-007 0.9999999999999838 4.
371138828673856e-008 81 1 829 63 33 827 0 0 834 816 830 83 3 830 1 1 1 15 831 64
 0 762 827 0 14 832 65 834 1e-008 0 827 836 771 833 +0 0 0 827 769 50 833 66 0 8
32 0 828 0 +8.127999899672521e-008 -4.065311291370222e-008 0.0002999999999999997
 -7.642741863815873e-015 4.371138828673789e-008 -0.9999999999999991 -1.748455531
469489e-007 0.9999999999999838 4.371138828673856e-008 81 1 834 67 33 832 0 0 0 8
29 835 83 3 835 1 1 1 15 836 68 0 748 832 0 1 0 
