G04 Layer_Color=7318015*
%FSLAX44Y44*%
%MOMM*%
G71*
G01*
G75*
%ADD10R,0.9000X0.8000*%
%ADD11R,0.8000X0.8000*%
%ADD12R,0.8000X0.9000*%
%ADD13R,0.8000X0.9000*%
%ADD14R,1.8000X1.3000*%
%ADD15R,9.5000X10.9000*%
%ADD16R,4.6000X1.3500*%
%ADD17C,0.2540*%
D10*
X195000Y208750D02*
D03*
Y221250D02*
D03*
X374980Y37820D02*
D03*
Y50320D02*
D03*
X155000Y221250D02*
D03*
Y208750D02*
D03*
X175000Y221250D02*
D03*
Y208750D02*
D03*
D11*
X402920Y50300D02*
D03*
Y35300D02*
D03*
D12*
X200500Y240000D02*
D03*
X219500D02*
D03*
X210000Y260000D02*
D03*
D13*
X203750Y280000D02*
D03*
X216250D02*
D03*
D14*
X130000Y195500D02*
D03*
Y224500D02*
D03*
D15*
X349750Y245000D02*
D03*
D16*
X258250Y219600D02*
D03*
Y270400D02*
D03*
D17*
X350000Y102455D02*
G03*
X150181Y106134I-99986J-2344D01*
G01*
X50000Y500000D02*
Y500000D01*
X-0Y450000D02*
X50000Y500000D01*
X-0Y50000D02*
Y450000D01*
Y50000D02*
X50000Y-0D01*
X150000D01*
X150000Y-0D01*
X150181Y181D02*
Y106134D01*
X350000Y-0D02*
Y102455D01*
Y-0D02*
X450000D01*
X500000Y50000D01*
Y450000D01*
X450000Y500000D02*
X500000Y450000D01*
X50000Y500000D02*
X450000D01*
M02*
