M48
;Layer_Color=6321
;FILE_FORMAT=4:4
METRIC,LZ
;TYPE=PLATED
T1F00S00C0.5000
T2F00S00C0.7112
T3F00S00C0.9000
T4F00S00C1.0000
T5F00S00C1.3208
T6F00S00C1.6002
T7F00S00C3.2000
%
T01
X0013Y00245
X00245
T02
X0028Y0025
X0031Y00245
Y0026
Y00275
Y0029
X00325
Y00275
X0034
Y0029
Y0026
X00325
Y00245
Y0023
X0034
Y00215
X00325
Y002
X0034
X0031
Y00215
Y0023
X0037Y00345
T03
X0015527Y0028287
Y0030787
Y0033287
Y0035787
T04
X0009075Y0011
X0011575
T05
X0005627Y0017833
Y0022913
X0044627
Y0017833
Y0031333
Y0036413
X0035413Y0044373
X0030333
X0019913
X0014833
X0005627Y0036413
Y0031333
T06
X00342064Y00331
Y00365036
X0024275
Y00331
T07
X0005Y0005
X0045
Y0045
X0005
M30
