G04 Layer_Physical_Order=2*
G04 Layer_Color=12500520*
%FSLAX25Y25*%
%MOIN*%
G70*
G01*
G75*
%ADD18C,0.07874*%
%ADD19C,0.01000*%
%ADD21C,0.15748*%
%ADD22C,0.00787*%
%ADD23C,0.00394*%
%ADD24C,0.00197*%
%ADD25C,0.00200*%
%ADD26C,0.00400*%
%ADD27C,0.00800*%
%ADD28O,0.09842X0.06890*%
%ADD29C,0.06000*%
%ADD30C,0.07700*%
%ADD31C,0.09500*%
%ADD32O,0.06890X0.09842*%
%ADD33C,0.05000*%
%ADD34C,0.03937*%
G36*
X196850Y177165D02*
Y19685D01*
X177165Y-0D01*
X137795D01*
X137795Y39370D01*
Y40336D01*
X137653Y43234D01*
X137085Y47060D01*
X136145Y50812D01*
X134842Y54454D01*
X133188Y57951D01*
X131200Y61269D01*
X128895Y64376D01*
X126298Y67242D01*
X123431Y69840D01*
X120324Y72145D01*
X117007Y74133D01*
X113510Y75787D01*
X109868Y77090D01*
X106296Y77985D01*
X106358Y78485D01*
X118551D01*
X118637Y77826D01*
X118990Y76975D01*
X119551Y76244D01*
X120282Y75683D01*
X121134Y75330D01*
X122047Y75210D01*
X122961Y75330D01*
X123812Y75683D01*
X124543Y76244D01*
X124750Y76513D01*
X125250D01*
X125457Y76244D01*
X126188Y75683D01*
X127039Y75330D01*
X127953Y75210D01*
X128866Y75330D01*
X129718Y75683D01*
X130449Y76244D01*
X130656Y76513D01*
X131156D01*
X131362Y76244D01*
X132093Y75683D01*
X132945Y75330D01*
X133858Y75210D01*
X134772Y75330D01*
X135623Y75683D01*
X136354Y76244D01*
X136916Y76975D01*
X137268Y77826D01*
X137389Y78740D01*
X137268Y79654D01*
X136916Y80505D01*
X136354Y81236D01*
X136085Y81443D01*
Y81943D01*
X136354Y82149D01*
X136916Y82881D01*
X137268Y83732D01*
X137389Y84646D01*
X137268Y85559D01*
X136916Y86411D01*
X136354Y87142D01*
X136085Y87348D01*
Y87848D01*
X136354Y88055D01*
X136916Y88786D01*
X137268Y89638D01*
X137389Y90551D01*
X137268Y91465D01*
X136916Y92316D01*
X136354Y93047D01*
X135623Y93608D01*
X134772Y93961D01*
X133858Y94081D01*
X132945Y93961D01*
X132093Y93608D01*
X131362Y93047D01*
X131156Y92778D01*
X130656D01*
X130449Y93047D01*
X130180Y93254D01*
Y93754D01*
X130449Y93960D01*
X131010Y94692D01*
X131363Y95543D01*
X131483Y96457D01*
X131363Y97370D01*
X131010Y98222D01*
X130449Y98953D01*
X130180Y99159D01*
Y99660D01*
X130449Y99866D01*
X130656Y100135D01*
X131156D01*
X131362Y99866D01*
X132093Y99305D01*
X132945Y98952D01*
X133858Y98832D01*
X134772Y98952D01*
X135623Y99305D01*
X136354Y99866D01*
X136916Y100597D01*
X137268Y101449D01*
X137389Y102362D01*
X137268Y103276D01*
X136916Y104127D01*
X136354Y104858D01*
X136085Y105065D01*
Y105565D01*
X136354Y105772D01*
X136916Y106503D01*
X137268Y107354D01*
X137389Y108268D01*
X137268Y109181D01*
X136916Y110033D01*
X136354Y110764D01*
X136085Y110970D01*
Y111470D01*
X136354Y111677D01*
X136916Y112408D01*
X137268Y113259D01*
X137389Y114173D01*
X137268Y115087D01*
X136916Y115938D01*
X136673Y116254D01*
X136901Y116779D01*
X137129Y116802D01*
X138802Y117309D01*
X140344Y118133D01*
X141695Y119242D01*
X151974Y129522D01*
X153084Y130873D01*
X153908Y132414D01*
X154415Y134087D01*
X154586Y135827D01*
X154415Y137566D01*
X153908Y139239D01*
X153084Y140781D01*
X151974Y142132D01*
X150623Y143241D01*
X149082Y144065D01*
X147409Y144572D01*
X145669Y144744D01*
X143930Y144572D01*
X142257Y144065D01*
X140927Y143354D01*
X140464Y143662D01*
X140471Y143715D01*
X140273Y145216D01*
X139693Y146615D01*
X138772Y147816D01*
X137571Y148738D01*
X136172Y149317D01*
X134671Y149515D01*
X133170Y149317D01*
X131771Y148738D01*
X130570Y147816D01*
X129648Y146615D01*
X129069Y145216D01*
X128871Y143715D01*
X129069Y142214D01*
X129648Y140815D01*
X130570Y139614D01*
X131771Y138692D01*
X133170Y138113D01*
X134467Y137942D01*
X134669Y137436D01*
X133134Y135902D01*
X131771Y135338D01*
X130633Y134464D01*
X117336D01*
X115596Y134293D01*
X113924Y133785D01*
X112382Y132961D01*
X111031Y131852D01*
X111031Y131852D01*
X104368Y125190D01*
X103259Y123838D01*
X102435Y122297D01*
X101928Y120624D01*
X101756Y118885D01*
X101756Y118884D01*
Y101511D01*
X101928Y99771D01*
X102435Y98098D01*
X103259Y96557D01*
X104368Y95206D01*
X105719Y94097D01*
X107261Y93273D01*
X108934Y92765D01*
X110673Y92594D01*
X112413Y92765D01*
X114086Y93273D01*
X115627Y94097D01*
X116979Y95206D01*
X118031Y96487D01*
X118232Y96475D01*
X118265Y96467D01*
X118534Y96331D01*
X118637Y95543D01*
X118990Y94692D01*
X119551Y93960D01*
X119820Y93754D01*
Y93254D01*
X119551Y93047D01*
X118990Y92316D01*
X118637Y91465D01*
X118517Y90551D01*
X118637Y89638D01*
X118924Y88944D01*
X118679Y88444D01*
X38972D01*
X33687Y93730D01*
X32655Y94521D01*
X31454Y95019D01*
X30165Y95188D01*
X30165Y95188D01*
X24216D01*
X14980Y104425D01*
Y129142D01*
X22153Y136316D01*
X50625Y107845D01*
X50625Y107845D01*
X51656Y107054D01*
X52585Y106669D01*
X52857Y106556D01*
X54146Y106386D01*
X61130D01*
X62419Y106556D01*
X63488Y106999D01*
X63767Y107036D01*
X64848Y107483D01*
X65776Y108196D01*
X66489Y109125D01*
X66937Y110206D01*
X67089Y111366D01*
X66937Y112527D01*
X66489Y113608D01*
X65776Y114536D01*
X64848Y115249D01*
X63767Y115697D01*
X63488Y115733D01*
X62419Y116176D01*
X62044Y116225D01*
X62077Y116725D01*
X62606D01*
X63767Y116878D01*
X64848Y117326D01*
X65776Y118038D01*
X66489Y118967D01*
X66937Y120048D01*
X67089Y121209D01*
X66937Y122369D01*
X66489Y123450D01*
X65776Y124379D01*
X64848Y125091D01*
X63767Y125539D01*
X62606Y125692D01*
X59654D01*
X58493Y125539D01*
X57412Y125091D01*
X56483Y124379D01*
X55771Y123450D01*
X55323Y122369D01*
X55170Y121209D01*
X55323Y120048D01*
X55771Y118967D01*
X56483Y118038D01*
X57412Y117326D01*
X58493Y116878D01*
X58740Y116846D01*
X58707Y116346D01*
X56208D01*
X25675Y146879D01*
X24643Y147671D01*
X23442Y148168D01*
X22843Y148247D01*
X22153Y148338D01*
X20865Y148168D01*
X19664Y147671D01*
X18632Y146879D01*
X6479Y134726D01*
X5688Y133695D01*
X5190Y132494D01*
X5020Y131205D01*
X5020Y131205D01*
Y102362D01*
X5020Y102362D01*
X5190Y101073D01*
X5688Y99872D01*
X6479Y98841D01*
X18632Y86687D01*
X19664Y85896D01*
X20865Y85399D01*
X22153Y85229D01*
X28103D01*
X30749Y82583D01*
Y43307D01*
X30918Y42018D01*
X31361Y40949D01*
X31398Y40670D01*
X31846Y39589D01*
X32558Y38661D01*
X33487Y37948D01*
X34568Y37500D01*
X35728Y37347D01*
X36889Y37500D01*
X37970Y37948D01*
X38899Y38661D01*
X39611Y39589D01*
X40059Y40670D01*
X40096Y40949D01*
X40538Y42018D01*
X40588Y42393D01*
X41088Y42360D01*
Y41831D01*
X41240Y40670D01*
X41688Y39589D01*
X42401Y38661D01*
X43329Y37948D01*
X44410Y37500D01*
X45071Y37413D01*
Y43307D01*
Y49201D01*
X44410Y49114D01*
X43329Y48666D01*
X42401Y47954D01*
X41688Y47025D01*
X41240Y45944D01*
X41208Y45697D01*
X40708Y45730D01*
Y78485D01*
X90493D01*
X90554Y77985D01*
X86983Y77090D01*
X83341Y75787D01*
X79844Y74133D01*
X76526Y72145D01*
X73419Y69840D01*
X70553Y67242D01*
X67955Y64376D01*
X65651Y61269D01*
X63662Y57951D01*
X62008Y54454D01*
X60705Y50812D01*
X59765Y47060D01*
X59197Y43234D01*
X59055Y40336D01*
Y39370D01*
X59055D01*
Y-0D01*
X19685D01*
X-0Y19685D01*
Y177165D01*
X19685Y196850D01*
X177165D01*
X196850Y177165D01*
D02*
G37*
%LPC*%
G36*
X96457Y99451D02*
X95682Y99349D01*
X94960Y99050D01*
X94340Y98574D01*
X93888Y97986D01*
X53749D01*
X53298Y98574D01*
X52678Y99050D01*
X51956Y99349D01*
X51181Y99451D01*
X50406Y99349D01*
X49684Y99050D01*
X49064Y98574D01*
X48588Y97954D01*
X48289Y97232D01*
X48187Y96457D01*
X48289Y95682D01*
X48588Y94960D01*
X49064Y94340D01*
X49684Y93864D01*
X50406Y93565D01*
X51181Y93463D01*
X51956Y93565D01*
X52678Y93864D01*
X53298Y94340D01*
X53749Y94927D01*
X93888D01*
X94340Y94340D01*
X94960Y93864D01*
X95682Y93565D01*
X96457Y93463D01*
X97232Y93565D01*
X97954Y93864D01*
X98574Y94340D01*
X99050Y94960D01*
X99349Y95682D01*
X99451Y96457D01*
X99349Y97232D01*
X99050Y97954D01*
X98574Y98574D01*
X97954Y99050D01*
X97232Y99349D01*
X96457Y99451D01*
D02*
G37*
G36*
X175697Y95100D02*
X174431Y94934D01*
X173251Y94445D01*
X172238Y93668D01*
X171460Y92655D01*
X170972Y91475D01*
X170805Y90209D01*
X170972Y88943D01*
X171460Y87763D01*
X172238Y86750D01*
X173251Y85972D01*
X174431Y85483D01*
X175697Y85317D01*
X176963Y85483D01*
X178143Y85972D01*
X179156Y86750D01*
X179933Y87763D01*
X180422Y88943D01*
X180589Y90209D01*
X180422Y91475D01*
X179933Y92655D01*
X179156Y93668D01*
X178143Y94445D01*
X176963Y94934D01*
X175697Y95100D01*
D02*
G37*
G36*
X175197Y75035D02*
X174431Y74934D01*
X173251Y74445D01*
X172238Y73668D01*
X171460Y72655D01*
X170972Y71475D01*
X170871Y70709D01*
X175197D01*
Y75035D01*
D02*
G37*
G36*
X176197D02*
Y70709D01*
X180523D01*
X180422Y71475D01*
X179933Y72655D01*
X179156Y73668D01*
X178143Y74445D01*
X176963Y74934D01*
X176197Y75035D01*
D02*
G37*
G36*
X180523Y122858D02*
X176197D01*
Y118532D01*
X176963Y118633D01*
X178143Y119122D01*
X179156Y119899D01*
X179933Y120912D01*
X180422Y122092D01*
X180523Y122858D01*
D02*
G37*
G36*
X21654Y128184D02*
X20887Y128083D01*
X19708Y127595D01*
X18695Y126817D01*
X17917Y125804D01*
X17428Y124624D01*
X17327Y123858D01*
X21654D01*
Y128184D01*
D02*
G37*
G36*
X175197Y122858D02*
X170871D01*
X170972Y122092D01*
X171460Y120912D01*
X172238Y119899D01*
X173251Y119122D01*
X174431Y118633D01*
X175197Y118532D01*
Y122858D01*
D02*
G37*
G36*
X21654D02*
X17327D01*
X17428Y122092D01*
X17917Y120912D01*
X18695Y119899D01*
X19708Y119122D01*
X20887Y118633D01*
X21654Y118532D01*
Y122858D01*
D02*
G37*
G36*
X26980D02*
X22654D01*
Y118532D01*
X23420Y118633D01*
X24600Y119122D01*
X25613Y119899D01*
X26390Y120912D01*
X26879Y122092D01*
X26980Y122858D01*
D02*
G37*
G36*
X46071Y49201D02*
Y43807D01*
X50054D01*
Y44783D01*
X49901Y45944D01*
X49453Y47025D01*
X48741Y47954D01*
X47813Y48666D01*
X46731Y49114D01*
X46071Y49201D01*
D02*
G37*
G36*
X21654Y69709D02*
X17327D01*
X17428Y68943D01*
X17917Y67763D01*
X18695Y66750D01*
X19708Y65972D01*
X20887Y65483D01*
X21654Y65383D01*
Y69709D01*
D02*
G37*
G36*
X50054Y42807D02*
X46071D01*
Y37413D01*
X46731Y37500D01*
X47813Y37948D01*
X48741Y38661D01*
X49453Y39589D01*
X49901Y40670D01*
X50054Y41831D01*
Y42807D01*
D02*
G37*
G36*
X19685Y27217D02*
X18216Y27073D01*
X16803Y26644D01*
X15500Y25948D01*
X14359Y25011D01*
X13422Y23870D01*
X12726Y22568D01*
X12297Y21155D01*
X12153Y19685D01*
X12297Y18216D01*
X12726Y16803D01*
X13422Y15500D01*
X14359Y14359D01*
X15500Y13422D01*
X16803Y12726D01*
X18216Y12297D01*
X19685Y12153D01*
X21155Y12297D01*
X22568Y12726D01*
X23870Y13422D01*
X25011Y14359D01*
X25948Y15500D01*
X26644Y16803D01*
X27073Y18216D01*
X27217Y19685D01*
X27073Y21155D01*
X26644Y22568D01*
X25948Y23870D01*
X25011Y25011D01*
X23870Y25948D01*
X22568Y26644D01*
X21155Y27073D01*
X19685Y27217D01*
D02*
G37*
G36*
X177165D02*
X175696Y27073D01*
X174283Y26644D01*
X172981Y25948D01*
X171839Y25011D01*
X170902Y23870D01*
X170206Y22568D01*
X169778Y21155D01*
X169633Y19685D01*
X169778Y18216D01*
X170206Y16803D01*
X170902Y15500D01*
X171839Y14359D01*
X172981Y13422D01*
X174283Y12726D01*
X175696Y12297D01*
X177165Y12153D01*
X178635Y12297D01*
X180048Y12726D01*
X181350Y13422D01*
X182492Y14359D01*
X183428Y15500D01*
X184124Y16803D01*
X184553Y18216D01*
X184698Y19685D01*
X184553Y21155D01*
X184124Y22568D01*
X183428Y23870D01*
X182492Y25011D01*
X181350Y25948D01*
X180048Y26644D01*
X178635Y27073D01*
X177165Y27217D01*
D02*
G37*
G36*
X21654Y75035D02*
X20887Y74934D01*
X19708Y74445D01*
X18695Y73668D01*
X17917Y72655D01*
X17428Y71475D01*
X17327Y70709D01*
X21654D01*
Y75035D01*
D02*
G37*
G36*
X22654D02*
Y70709D01*
X26980D01*
X26879Y71475D01*
X26390Y72655D01*
X25613Y73668D01*
X24600Y74445D01*
X23420Y74934D01*
X22654Y75035D01*
D02*
G37*
G36*
X180523Y69709D02*
X176197D01*
Y65383D01*
X176963Y65483D01*
X178143Y65972D01*
X179156Y66750D01*
X179933Y67763D01*
X180422Y68943D01*
X180523Y69709D01*
D02*
G37*
G36*
X26980D02*
X22654D01*
Y65383D01*
X23420Y65483D01*
X24600Y65972D01*
X25613Y66750D01*
X26390Y67763D01*
X26879Y68943D01*
X26980Y69709D01*
D02*
G37*
G36*
X175197D02*
X170871D01*
X170972Y68943D01*
X171460Y67763D01*
X172238Y66750D01*
X173251Y65972D01*
X174431Y65483D01*
X175197Y65383D01*
Y69709D01*
D02*
G37*
G36*
X78398Y179589D02*
X77131Y179422D01*
X75952Y178933D01*
X74939Y178156D01*
X74161Y177143D01*
X73672Y175963D01*
X73506Y174697D01*
X73672Y173431D01*
X74161Y172251D01*
X74939Y171238D01*
X75952Y170460D01*
X77131Y169972D01*
X78398Y169805D01*
X79664Y169972D01*
X80844Y170460D01*
X81857Y171238D01*
X82634Y172251D01*
X83123Y173431D01*
X83289Y174697D01*
X83123Y175963D01*
X82634Y177143D01*
X81857Y178156D01*
X80844Y178933D01*
X79664Y179422D01*
X78398Y179589D01*
D02*
G37*
G36*
X119421D02*
X118155Y179422D01*
X116975Y178933D01*
X115962Y178156D01*
X115185Y177143D01*
X114696Y175963D01*
X114529Y174697D01*
X114696Y173431D01*
X115185Y172251D01*
X115962Y171238D01*
X116975Y170460D01*
X118155Y169972D01*
X119421Y169805D01*
X120687Y169972D01*
X121867Y170460D01*
X122880Y171238D01*
X123658Y172251D01*
X124146Y173431D01*
X124313Y174697D01*
X124146Y175963D01*
X123658Y177143D01*
X122880Y178156D01*
X121867Y178933D01*
X120687Y179422D01*
X119421Y179589D01*
D02*
G37*
G36*
X177165Y184698D02*
X175696Y184553D01*
X174283Y184124D01*
X172981Y183428D01*
X171839Y182492D01*
X170902Y181350D01*
X170206Y180048D01*
X169778Y178635D01*
X169633Y177165D01*
X169778Y175696D01*
X170206Y174283D01*
X170902Y172981D01*
X171839Y171839D01*
X172981Y170902D01*
X174283Y170206D01*
X175696Y169778D01*
X177165Y169633D01*
X178635Y169778D01*
X180048Y170206D01*
X181350Y170902D01*
X182492Y171839D01*
X183428Y172981D01*
X184124Y174283D01*
X184553Y175696D01*
X184698Y177165D01*
X184553Y178635D01*
X184124Y180048D01*
X183428Y181350D01*
X182492Y182492D01*
X181350Y183428D01*
X180048Y184124D01*
X178635Y184553D01*
X177165Y184698D01*
D02*
G37*
G36*
X62606Y145377D02*
X61630D01*
Y141394D01*
X67024D01*
X66937Y142054D01*
X66489Y143135D01*
X65776Y144064D01*
X64848Y144776D01*
X63767Y145224D01*
X62606Y145377D01*
D02*
G37*
G36*
X19685Y184698D02*
X18216Y184553D01*
X16803Y184124D01*
X15500Y183428D01*
X14359Y182492D01*
X13422Y181350D01*
X12726Y180048D01*
X12297Y178635D01*
X12153Y177165D01*
X12297Y175696D01*
X12726Y174283D01*
X13422Y172981D01*
X14359Y171839D01*
X15500Y170902D01*
X16803Y170206D01*
X18216Y169778D01*
X19685Y169633D01*
X21155Y169778D01*
X22568Y170206D01*
X23870Y170902D01*
X25011Y171839D01*
X25948Y172981D01*
X26644Y174283D01*
X27073Y175696D01*
X27217Y177165D01*
X27073Y178635D01*
X26644Y180048D01*
X25948Y181350D01*
X25011Y182492D01*
X23870Y183428D01*
X22568Y184124D01*
X21155Y184553D01*
X19685Y184698D01*
D02*
G37*
G36*
X57898Y179523D02*
X57131Y179422D01*
X55952Y178933D01*
X54939Y178156D01*
X54161Y177143D01*
X53672Y175963D01*
X53572Y175197D01*
X57898D01*
Y179523D01*
D02*
G37*
G36*
X58898D02*
Y175197D01*
X63224D01*
X63123Y175963D01*
X62634Y177143D01*
X61857Y178156D01*
X60844Y178933D01*
X59664Y179422D01*
X58898Y179523D01*
D02*
G37*
G36*
X63224Y174197D02*
X58898D01*
Y169871D01*
X59664Y169972D01*
X60844Y170460D01*
X61857Y171238D01*
X62634Y172251D01*
X63123Y173431D01*
X63224Y174197D01*
D02*
G37*
G36*
X139421Y179589D02*
X138155Y179422D01*
X136975Y178933D01*
X135962Y178156D01*
X135185Y177143D01*
X134696Y175963D01*
X134529Y174697D01*
X134696Y173431D01*
X135185Y172251D01*
X135962Y171238D01*
X136975Y170460D01*
X138155Y169972D01*
X139421Y169805D01*
X140687Y169972D01*
X141867Y170460D01*
X142880Y171238D01*
X143658Y172251D01*
X144146Y173431D01*
X144313Y174697D01*
X144146Y175963D01*
X143658Y177143D01*
X142880Y178156D01*
X141867Y178933D01*
X140687Y179422D01*
X139421Y179589D01*
D02*
G37*
G36*
X57898Y174197D02*
X53572D01*
X53672Y173431D01*
X54161Y172251D01*
X54939Y171238D01*
X55952Y170460D01*
X57131Y169972D01*
X57898Y169871D01*
Y174197D01*
D02*
G37*
G36*
X95571Y136115D02*
X94070Y135917D01*
X92671Y135338D01*
X91470Y134416D01*
X90548Y133215D01*
X89969Y131816D01*
X89771Y130315D01*
X89969Y128814D01*
X90548Y127415D01*
X91470Y126214D01*
X92671Y125292D01*
X94070Y124713D01*
X95571Y124515D01*
X97072Y124713D01*
X98471Y125292D01*
X99672Y126214D01*
X100593Y127415D01*
X101173Y128814D01*
X101371Y130315D01*
X101173Y131816D01*
X100593Y133215D01*
X99672Y134416D01*
X98471Y135338D01*
X97072Y135917D01*
X95571Y136115D01*
D02*
G37*
G36*
X62606Y135534D02*
X59654D01*
X58493Y135382D01*
X57412Y134934D01*
X56483Y134221D01*
X55771Y133293D01*
X55323Y132211D01*
X55170Y131051D01*
X55323Y129891D01*
X55771Y128810D01*
X56483Y127881D01*
X57412Y127169D01*
X58493Y126721D01*
X59654Y126568D01*
X62606D01*
X63767Y126721D01*
X64848Y127169D01*
X65776Y127881D01*
X66489Y128810D01*
X66937Y129891D01*
X67089Y131051D01*
X66937Y132211D01*
X66489Y133293D01*
X65776Y134221D01*
X64848Y134934D01*
X63767Y135382D01*
X62606Y135534D01*
D02*
G37*
G36*
X176197Y128184D02*
Y123858D01*
X180523D01*
X180422Y124624D01*
X179933Y125804D01*
X179156Y126817D01*
X178143Y127595D01*
X176963Y128083D01*
X176197Y128184D01*
D02*
G37*
G36*
X22654D02*
Y123858D01*
X26980D01*
X26879Y124624D01*
X26390Y125804D01*
X25613Y126817D01*
X24600Y127595D01*
X23420Y128083D01*
X22654Y128184D01*
D02*
G37*
G36*
X175197D02*
X174431Y128083D01*
X173251Y127595D01*
X172238Y126817D01*
X171460Y125804D01*
X170972Y124624D01*
X170871Y123858D01*
X175197D01*
Y128184D01*
D02*
G37*
G36*
X175697Y148250D02*
X174431Y148083D01*
X173251Y147595D01*
X172238Y146817D01*
X171460Y145804D01*
X170972Y144624D01*
X170805Y143358D01*
X170972Y142092D01*
X171460Y140912D01*
X172238Y139899D01*
X173251Y139122D01*
X174431Y138633D01*
X175697Y138466D01*
X176963Y138633D01*
X178143Y139122D01*
X179156Y139899D01*
X179933Y140912D01*
X180422Y142092D01*
X180589Y143358D01*
X180422Y144624D01*
X179933Y145804D01*
X179156Y146817D01*
X178143Y147595D01*
X176963Y148083D01*
X175697Y148250D01*
D02*
G37*
G36*
X60630Y145377D02*
X59654D01*
X58493Y145224D01*
X57412Y144776D01*
X56483Y144064D01*
X55771Y143135D01*
X55323Y142054D01*
X55236Y141394D01*
X60630D01*
Y145377D01*
D02*
G37*
G36*
X95571Y149515D02*
X94070Y149317D01*
X92671Y148738D01*
X91470Y147816D01*
X90548Y146615D01*
X89969Y145216D01*
X89771Y143715D01*
X89969Y142214D01*
X90548Y140815D01*
X91470Y139614D01*
X92671Y138692D01*
X94070Y138113D01*
X95571Y137915D01*
X97072Y138113D01*
X98471Y138692D01*
X99672Y139614D01*
X100593Y140815D01*
X101173Y142214D01*
X101371Y143715D01*
X101173Y145216D01*
X100593Y146615D01*
X99672Y147816D01*
X98471Y148738D01*
X97072Y149317D01*
X95571Y149515D01*
D02*
G37*
G36*
X60630Y140394D02*
X55236D01*
X55323Y139733D01*
X55771Y138652D01*
X56483Y137724D01*
X57412Y137011D01*
X58493Y136563D01*
X59654Y136410D01*
X60630D01*
Y140394D01*
D02*
G37*
G36*
X67024D02*
X61630D01*
Y136410D01*
X62606D01*
X63767Y136563D01*
X64848Y137011D01*
X65776Y137724D01*
X66489Y138652D01*
X66937Y139733D01*
X67024Y140394D01*
D02*
G37*
%LPD*%
D18*
X30165Y90209D02*
X35728Y84646D01*
X22153Y90209D02*
X30165D01*
X54146Y111366D02*
X61130D01*
X22153Y143358D02*
X54146Y111366D01*
X10000Y131205D02*
X22153Y143358D01*
X10000Y102362D02*
Y131205D01*
Y102362D02*
X22153Y90209D01*
X35728Y43307D02*
Y83465D01*
X130795D01*
D19*
X51181Y96457D02*
X96457D01*
X137795Y40336D02*
G03*
X59126Y41785I-39365J-923D01*
G01*
X19685Y196850D02*
X177165D01*
X196850Y177165D01*
Y19685D02*
Y177165D01*
X177165Y-0D02*
X196850Y19685D01*
X137795Y-0D02*
X177165D01*
X137795D02*
Y40336D01*
X59126Y71D02*
Y41785D01*
X59055Y-0D02*
X59055Y-0D01*
X19685Y-0D02*
X59055D01*
X-0Y19685D02*
X19685Y-0D01*
X-0Y19685D02*
Y177165D01*
X19685Y196850D01*
Y196850D01*
D21*
X135390Y125547D02*
X145669Y135827D01*
X117336Y125547D02*
X135390D01*
X110673Y101511D02*
Y118885D01*
X117336Y125547D01*
D22*
X47842Y150539D02*
X70480D01*
X47842Y101720D02*
Y150539D01*
X70480Y101720D02*
Y150539D01*
X47842Y101720D02*
X70480D01*
X61130Y124161D02*
Y128098D01*
X59161Y126130D02*
X63098D01*
X45776Y99752D02*
X72547D01*
Y152508D01*
X45776D02*
X72547D01*
X45776Y99752D02*
Y152508D01*
X24114Y27953D02*
X57185D01*
Y54724D01*
X24114D02*
X57185D01*
X24114Y27953D02*
Y54724D01*
X40650Y41339D02*
Y45276D01*
X38681Y43307D02*
X42618D01*
D23*
X67028Y81201D02*
Y88090D01*
X70768Y81201D02*
Y88090D01*
X67028Y81201D02*
X70768D01*
X67028Y88090D02*
X70768D01*
X59153Y81201D02*
Y88090D01*
X62894Y81201D02*
Y88090D01*
X59153Y81201D02*
X62894D01*
X59153Y88090D02*
X62894D01*
X47638Y89370D02*
X54724D01*
X47638Y75984D02*
X54724D01*
Y89370D01*
X47638Y75984D02*
Y89370D01*
X79232Y108366D02*
X86122D01*
X79232Y112106D02*
X86122D01*
Y108366D02*
Y112106D01*
X79232Y108366D02*
Y112106D01*
X156760Y13406D02*
Y20295D01*
X160500Y13406D02*
Y20295D01*
X156760Y13406D02*
X160500D01*
X156760Y20295D02*
X160500D01*
X149500Y13905D02*
Y20795D01*
X145760Y13905D02*
Y20795D01*
X149500D01*
X145760Y13905D02*
X149500D01*
X78642Y81201D02*
Y88090D01*
X74902Y81201D02*
Y88090D01*
X78642D01*
X74902Y81201D02*
X78642D01*
X67028Y84646D02*
X70768D01*
X68898Y82776D02*
Y86516D01*
X59153Y84646D02*
X62894D01*
X61024Y82776D02*
Y86516D01*
X51181Y80709D02*
Y84646D01*
X49213Y82677D02*
X53150D01*
X82677Y108366D02*
Y112106D01*
X80807Y110236D02*
X84547D01*
X156760Y16850D02*
X160500D01*
X158630Y14980D02*
Y18721D01*
X145760Y17350D02*
X149500D01*
X147630Y15480D02*
Y19220D01*
X74902Y84646D02*
X78642D01*
X76772Y82776D02*
Y86516D01*
D24*
X66535Y80315D02*
Y88976D01*
X71260Y80315D02*
Y88976D01*
X66535Y80315D02*
X71260D01*
X66535Y88976D02*
X71260D01*
X58661Y80315D02*
Y88976D01*
X63386Y80315D02*
Y88976D01*
X58661Y80315D02*
X63386D01*
X58661Y88976D02*
X63386D01*
X46654Y91929D02*
X55709D01*
X46654Y73425D02*
X55709D01*
Y91929D01*
X46654Y73425D02*
Y91929D01*
X78347Y107874D02*
X87008D01*
X78347Y112598D02*
X87008D01*
Y107874D02*
Y112598D01*
X78347Y107874D02*
Y112598D01*
X155677Y11350D02*
Y22350D01*
X161583Y11350D02*
Y22350D01*
X155677Y11350D02*
X161583D01*
X155677Y22350D02*
X161583D01*
X149992Y13020D02*
Y21681D01*
X145268Y13020D02*
Y21681D01*
X149992D01*
X145268Y13020D02*
X149992D01*
X79134Y80315D02*
Y88976D01*
X74410Y80315D02*
Y88976D01*
X79134D01*
X74410Y80315D02*
X79134D01*
D25*
X76177Y91925D02*
X89177D01*
Y104925D01*
X76177D02*
X89177D01*
X76177Y91925D02*
Y104925D01*
D26*
X2253Y107059D02*
X42035D01*
Y159658D01*
X2253D02*
X42035D01*
X2253Y107059D02*
Y159658D01*
X6154Y110996D02*
X38098D01*
Y155758D01*
X6154D02*
X38098D01*
X6154Y110996D02*
Y155758D01*
X2253Y53909D02*
X42035D01*
Y106509D01*
X2253D02*
X42035D01*
X2253Y53909D02*
Y106509D01*
X6154Y57846D02*
X38098D01*
Y102609D01*
X6154D02*
X38098D01*
X6154Y57846D02*
Y102609D01*
X155797Y53909D02*
X195579D01*
Y106509D01*
X155797D02*
X195579D01*
X155797Y53909D02*
Y106509D01*
X159697Y57846D02*
X191642D01*
Y102609D01*
X159697D02*
X191642D01*
X159697Y57846D02*
Y102609D01*
X155797Y107059D02*
X195579D01*
Y159658D01*
X155797D02*
X195579D01*
X155797Y107059D02*
Y159658D01*
X159697Y110996D02*
X191642D01*
Y155758D01*
X159697D02*
X191642D01*
X159697Y110996D02*
Y155758D01*
X103122Y154815D02*
Y194597D01*
Y154815D02*
X155721D01*
Y194597D01*
X103122D02*
X155721D01*
X107059Y158752D02*
Y190697D01*
Y158752D02*
X151821D01*
Y190697D01*
X107059D02*
X151821D01*
X42098Y154815D02*
Y194597D01*
Y154815D02*
X94698D01*
Y194597D01*
X42098D02*
X94698D01*
X46035Y158752D02*
Y190697D01*
Y158752D02*
X90798D01*
Y190697D01*
X46035D02*
X90798D01*
X79665Y119823D02*
Y154215D01*
Y119823D02*
X150571D01*
Y154215D01*
X79665D02*
X150571D01*
D27*
X83602Y123760D02*
Y150315D01*
Y123760D02*
X146671D01*
Y150315D01*
X83602D02*
X146671D01*
D28*
X61130Y140894D02*
D03*
Y121209D02*
D03*
Y111366D02*
D03*
Y131051D02*
D03*
D29*
X19685Y19685D02*
D03*
X177165Y177165D02*
D03*
X19685D02*
D03*
X177165Y19685D02*
D03*
D30*
X22153Y143358D02*
D03*
Y123358D02*
D03*
Y90209D02*
D03*
Y70209D02*
D03*
X175697Y90209D02*
D03*
Y70209D02*
D03*
Y143358D02*
D03*
Y123358D02*
D03*
X139421Y174697D02*
D03*
X119421D02*
D03*
X78398D02*
D03*
X58398D02*
D03*
D31*
X95571Y143715D02*
D03*
X134671D02*
D03*
Y130315D02*
D03*
X95571D02*
D03*
D32*
X35728Y43307D02*
D03*
X45571D02*
D03*
D33*
X133858Y78740D02*
D03*
X127953D02*
D03*
X122047D02*
D03*
X133858Y84646D02*
D03*
X127953D02*
D03*
X122047D02*
D03*
X110236Y98425D02*
D03*
X145669Y135827D02*
D03*
X133858Y90551D02*
D03*
Y102362D02*
D03*
Y108268D02*
D03*
Y114173D02*
D03*
X127953Y90551D02*
D03*
Y96457D02*
D03*
Y102362D02*
D03*
Y108268D02*
D03*
Y114173D02*
D03*
X122047Y90551D02*
D03*
Y96457D02*
D03*
Y102362D02*
D03*
Y108268D02*
D03*
Y114173D02*
D03*
D34*
X96457Y96457D02*
D03*
X51181D02*
D03*
M02*
