G04 Layer_Color=15065295*
%FSLAX25Y25*%
%MOIN*%
G70*
G01*
G75*
%ADD19C,0.01000*%
%ADD22C,0.00787*%
%ADD23C,0.00394*%
%ADD24C,0.00197*%
%ADD25C,0.00200*%
%ADD26C,0.00400*%
%ADD27C,0.00800*%
%ADD35C,0.00591*%
%ADD36R,0.05209X0.22862*%
%ADD37R,0.06153X0.20894*%
%ADD38R,0.06153X0.20894*%
%ADD39R,0.22862X0.06153*%
G36*
X66791Y76670D02*
X66837D01*
X66891Y76666D01*
X66953Y76662D01*
X67078Y76649D01*
X67207Y76629D01*
X67332Y76604D01*
X67386Y76587D01*
X67440Y76570D01*
X67444D01*
X67453Y76566D01*
X67465Y76558D01*
X67486Y76550D01*
X67536Y76525D01*
X67594Y76487D01*
X67665Y76437D01*
X67735Y76371D01*
X67806Y76296D01*
X67869Y76204D01*
Y76200D01*
X67877Y76192D01*
X67885Y76179D01*
X67893Y76158D01*
X67906Y76134D01*
X67918Y76104D01*
X67935Y76071D01*
X67952Y76034D01*
X67981Y75946D01*
X68006Y75851D01*
X68022Y75743D01*
X68031Y75626D01*
Y75622D01*
Y75609D01*
Y75584D01*
X68027Y75560D01*
X68022Y75522D01*
X68018Y75480D01*
X68010Y75435D01*
X67997Y75385D01*
X67964Y75277D01*
X67943Y75218D01*
X67918Y75160D01*
X67889Y75102D01*
X67852Y75044D01*
X67810Y74989D01*
X67765Y74936D01*
X67760Y74931D01*
X67752Y74923D01*
X67735Y74910D01*
X67715Y74890D01*
X67685Y74869D01*
X67652Y74844D01*
X67611Y74815D01*
X67561Y74786D01*
X67507Y74757D01*
X67448Y74727D01*
X67382Y74698D01*
X67307Y74669D01*
X67228Y74644D01*
X67141Y74619D01*
X67045Y74598D01*
X66945Y74582D01*
X66949D01*
X66953Y74578D01*
X66978Y74565D01*
X67016Y74544D01*
X67061Y74519D01*
X67111Y74490D01*
X67161Y74461D01*
X67211Y74424D01*
X67253Y74391D01*
X67257Y74386D01*
X67261Y74382D01*
X67274Y74370D01*
X67290Y74353D01*
X67311Y74332D01*
X67336Y74307D01*
X67390Y74249D01*
X67453Y74174D01*
X67523Y74087D01*
X67598Y73987D01*
X67673Y73879D01*
X68339Y72835D01*
X67702D01*
X67195Y73633D01*
X67190Y73637D01*
X67186Y73650D01*
X67174Y73667D01*
X67157Y73692D01*
X67141Y73721D01*
X67115Y73754D01*
X67066Y73829D01*
X67007Y73916D01*
X66949Y74004D01*
X66887Y74087D01*
X66829Y74162D01*
Y74166D01*
X66820Y74170D01*
X66803Y74191D01*
X66778Y74224D01*
X66741Y74261D01*
X66704Y74303D01*
X66658Y74345D01*
X66612Y74386D01*
X66571Y74415D01*
X66566Y74420D01*
X66550Y74428D01*
X66529Y74440D01*
X66500Y74457D01*
X66462Y74474D01*
X66425Y74490D01*
X66383Y74507D01*
X66338Y74519D01*
X66333D01*
X66321Y74524D01*
X66300Y74528D01*
X66271Y74532D01*
X66229D01*
X66180Y74536D01*
X66121Y74540D01*
X65468D01*
Y72835D01*
X64961D01*
Y76674D01*
X66745D01*
X66791Y76670D01*
D02*
G37*
G36*
X69965Y76683D02*
X69994Y76679D01*
X70069Y76670D01*
X70152Y76658D01*
X70244Y76633D01*
X70335Y76604D01*
X70427Y76562D01*
X70431D01*
X70439Y76558D01*
X70452Y76550D01*
X70468Y76537D01*
X70510Y76512D01*
X70564Y76471D01*
X70626Y76421D01*
X70689Y76358D01*
X70755Y76283D01*
X70814Y76200D01*
Y76196D01*
X70822Y76188D01*
X70826Y76175D01*
X70839Y76158D01*
X70851Y76138D01*
X70868Y76109D01*
X70880Y76075D01*
X70901Y76042D01*
X70938Y75959D01*
X70976Y75863D01*
X71018Y75751D01*
X71051Y75630D01*
Y75626D01*
X71055Y75613D01*
X71059Y75597D01*
X71063Y75568D01*
X71072Y75534D01*
X71080Y75493D01*
X71088Y75447D01*
X71097Y75393D01*
X71101Y75331D01*
X71109Y75264D01*
X71117Y75189D01*
X71126Y75110D01*
X71130Y75023D01*
X71134Y74931D01*
X71138Y74831D01*
Y74727D01*
Y74719D01*
Y74698D01*
Y74661D01*
Y74615D01*
X71134Y74557D01*
X71130Y74494D01*
X71126Y74420D01*
X71122Y74341D01*
X71113Y74253D01*
X71105Y74166D01*
X71080Y73983D01*
X71043Y73804D01*
X71022Y73717D01*
X70997Y73637D01*
Y73633D01*
X70989Y73621D01*
X70984Y73596D01*
X70972Y73571D01*
X70955Y73533D01*
X70938Y73496D01*
X70918Y73450D01*
X70893Y73400D01*
X70835Y73296D01*
X70764Y73192D01*
X70681Y73088D01*
X70631Y73043D01*
X70581Y72997D01*
X70577Y72993D01*
X70568Y72989D01*
X70552Y72976D01*
X70531Y72964D01*
X70506Y72947D01*
X70473Y72926D01*
X70435Y72905D01*
X70389Y72885D01*
X70344Y72864D01*
X70290Y72843D01*
X70236Y72826D01*
X70173Y72806D01*
X70107Y72793D01*
X70036Y72781D01*
X69965Y72776D01*
X69886Y72772D01*
X69861D01*
X69832Y72776D01*
X69795Y72781D01*
X69749Y72785D01*
X69695Y72793D01*
X69636Y72806D01*
X69570Y72822D01*
X69503Y72843D01*
X69433Y72868D01*
X69358Y72901D01*
X69287Y72939D01*
X69216Y72984D01*
X69146Y73039D01*
X69079Y73097D01*
X69017Y73167D01*
X69012Y73172D01*
X69000Y73188D01*
X68983Y73217D01*
X68958Y73259D01*
X68929Y73313D01*
X68896Y73375D01*
X68863Y73454D01*
X68829Y73542D01*
X68792Y73646D01*
X68759Y73758D01*
X68725Y73887D01*
X68696Y74029D01*
X68671Y74182D01*
X68655Y74349D01*
X68642Y74532D01*
X68638Y74727D01*
Y74736D01*
Y74757D01*
Y74794D01*
X68642Y74840D01*
Y74898D01*
X68646Y74965D01*
X68651Y75039D01*
X68655Y75118D01*
X68663Y75206D01*
X68671Y75293D01*
X68696Y75476D01*
X68730Y75655D01*
X68750Y75743D01*
X68775Y75822D01*
Y75826D01*
X68784Y75838D01*
X68792Y75863D01*
X68800Y75892D01*
X68817Y75925D01*
X68834Y75967D01*
X68854Y76009D01*
X68879Y76059D01*
X68938Y76163D01*
X69012Y76267D01*
X69096Y76371D01*
X69141Y76416D01*
X69191Y76462D01*
X69195Y76466D01*
X69204Y76471D01*
X69221Y76483D01*
X69241Y76495D01*
X69266Y76516D01*
X69300Y76533D01*
X69337Y76554D01*
X69383Y76574D01*
X69428Y76595D01*
X69483Y76616D01*
X69541Y76637D01*
X69599Y76653D01*
X69666Y76666D01*
X69736Y76679D01*
X69811Y76683D01*
X69886Y76687D01*
X69936D01*
X69965Y76683D01*
D02*
G37*
G36*
X78284Y72835D02*
X77814D01*
Y75834D01*
X77806Y75826D01*
X77785Y75805D01*
X77748Y75776D01*
X77693Y75734D01*
X77631Y75684D01*
X77552Y75630D01*
X77465Y75572D01*
X77365Y75510D01*
X77361D01*
X77352Y75501D01*
X77340Y75493D01*
X77319Y75485D01*
X77294Y75468D01*
X77265Y75455D01*
X77198Y75418D01*
X77124Y75381D01*
X77040Y75339D01*
X76953Y75301D01*
X76870Y75268D01*
Y75722D01*
X76874Y75726D01*
X76886Y75730D01*
X76907Y75743D01*
X76936Y75755D01*
X76970Y75772D01*
X77011Y75797D01*
X77057Y75822D01*
X77103Y75846D01*
X77211Y75913D01*
X77327Y75992D01*
X77448Y76075D01*
X77560Y76171D01*
X77565Y76175D01*
X77573Y76183D01*
X77589Y76196D01*
X77610Y76217D01*
X77631Y76242D01*
X77660Y76267D01*
X77723Y76337D01*
X77793Y76412D01*
X77864Y76500D01*
X77926Y76591D01*
X77981Y76687D01*
X78284D01*
Y72835D01*
D02*
G37*
G36*
X161043Y29598D02*
X161072Y29594D01*
X161147Y29586D01*
X161230Y29573D01*
X161321Y29548D01*
X161413Y29519D01*
X161504Y29478D01*
X161509D01*
X161517Y29474D01*
X161529Y29465D01*
X161546Y29453D01*
X161588Y29428D01*
X161642Y29386D01*
X161704Y29336D01*
X161767Y29274D01*
X161833Y29199D01*
X161891Y29116D01*
Y29112D01*
X161900Y29103D01*
X161904Y29091D01*
X161916Y29074D01*
X161929Y29053D01*
X161945Y29024D01*
X161958Y28991D01*
X161979Y28958D01*
X162016Y28874D01*
X162054Y28779D01*
X162095Y28667D01*
X162128Y28546D01*
Y28542D01*
X162133Y28529D01*
X162137Y28513D01*
X162141Y28484D01*
X162149Y28450D01*
X162158Y28409D01*
X162166Y28363D01*
X162174Y28309D01*
X162178Y28246D01*
X162187Y28180D01*
X162195Y28105D01*
X162203Y28026D01*
X162207Y27939D01*
X162212Y27847D01*
X162216Y27747D01*
Y27643D01*
Y27635D01*
Y27614D01*
Y27577D01*
Y27531D01*
X162212Y27473D01*
X162207Y27410D01*
X162203Y27335D01*
X162199Y27256D01*
X162191Y27169D01*
X162183Y27082D01*
X162158Y26899D01*
X162120Y26720D01*
X162099Y26632D01*
X162074Y26553D01*
Y26549D01*
X162066Y26537D01*
X162062Y26512D01*
X162049Y26487D01*
X162033Y26449D01*
X162016Y26412D01*
X161995Y26366D01*
X161970Y26316D01*
X161912Y26212D01*
X161841Y26108D01*
X161758Y26004D01*
X161708Y25958D01*
X161658Y25913D01*
X161654Y25908D01*
X161646Y25904D01*
X161629Y25892D01*
X161609Y25879D01*
X161583Y25863D01*
X161550Y25842D01*
X161513Y25821D01*
X161467Y25800D01*
X161421Y25780D01*
X161367Y25759D01*
X161313Y25742D01*
X161251Y25721D01*
X161184Y25709D01*
X161113Y25696D01*
X161043Y25692D01*
X160964Y25688D01*
X160939D01*
X160910Y25692D01*
X160872Y25696D01*
X160826Y25701D01*
X160772Y25709D01*
X160714Y25721D01*
X160647Y25738D01*
X160581Y25759D01*
X160510Y25784D01*
X160435Y25817D01*
X160365Y25854D01*
X160294Y25900D01*
X160223Y25954D01*
X160157Y26013D01*
X160094Y26083D01*
X160090Y26087D01*
X160078Y26104D01*
X160061Y26133D01*
X160036Y26175D01*
X160007Y26229D01*
X159974Y26291D01*
X159940Y26370D01*
X159907Y26458D01*
X159870Y26562D01*
X159836Y26674D01*
X159803Y26803D01*
X159774Y26944D01*
X159749Y27098D01*
X159732Y27265D01*
X159720Y27448D01*
X159716Y27643D01*
Y27652D01*
Y27672D01*
Y27710D01*
X159720Y27755D01*
Y27814D01*
X159724Y27880D01*
X159728Y27955D01*
X159732Y28034D01*
X159741Y28122D01*
X159749Y28209D01*
X159774Y28392D01*
X159807Y28571D01*
X159828Y28658D01*
X159853Y28737D01*
Y28741D01*
X159861Y28754D01*
X159870Y28779D01*
X159878Y28808D01*
X159895Y28841D01*
X159911Y28883D01*
X159932Y28925D01*
X159957Y28974D01*
X160015Y29078D01*
X160090Y29182D01*
X160173Y29286D01*
X160219Y29332D01*
X160269Y29378D01*
X160273Y29382D01*
X160281Y29386D01*
X160298Y29399D01*
X160319Y29411D01*
X160344Y29432D01*
X160377Y29449D01*
X160415Y29469D01*
X160460Y29490D01*
X160506Y29511D01*
X160560Y29532D01*
X160618Y29553D01*
X160677Y29569D01*
X160743Y29582D01*
X160814Y29594D01*
X160889Y29598D01*
X160964Y29603D01*
X161014D01*
X161043Y29598D01*
D02*
G37*
G36*
X74838Y94488D02*
X74368D01*
Y97487D01*
X74360Y97479D01*
X74339Y97458D01*
X74301Y97429D01*
X74247Y97388D01*
X74185Y97338D01*
X74106Y97284D01*
X74019Y97225D01*
X73919Y97163D01*
X73915D01*
X73906Y97155D01*
X73894Y97146D01*
X73873Y97138D01*
X73848Y97122D01*
X73819Y97109D01*
X73752Y97072D01*
X73677Y97034D01*
X73594Y96992D01*
X73507Y96955D01*
X73424Y96922D01*
Y97375D01*
X73428Y97379D01*
X73440Y97384D01*
X73461Y97396D01*
X73490Y97408D01*
X73524Y97425D01*
X73565Y97450D01*
X73611Y97475D01*
X73657Y97500D01*
X73765Y97567D01*
X73881Y97646D01*
X74002Y97729D01*
X74114Y97825D01*
X74118Y97829D01*
X74127Y97837D01*
X74143Y97850D01*
X74164Y97870D01*
X74185Y97895D01*
X74214Y97920D01*
X74277Y97991D01*
X74347Y98066D01*
X74418Y98153D01*
X74480Y98245D01*
X74534Y98340D01*
X74838D01*
Y94488D01*
D02*
G37*
G36*
X70824Y98390D02*
X70874Y98386D01*
X70928Y98382D01*
X70986Y98374D01*
X71052Y98361D01*
X71127Y98349D01*
X71202Y98332D01*
X71281Y98311D01*
X71364Y98286D01*
X71448Y98257D01*
X71531Y98224D01*
X71610Y98186D01*
X71693Y98141D01*
X71697Y98137D01*
X71714Y98128D01*
X71735Y98116D01*
X71764Y98095D01*
X71801Y98070D01*
X71839Y98037D01*
X71885Y97999D01*
X71934Y97958D01*
X71988Y97908D01*
X72043Y97858D01*
X72097Y97799D01*
X72151Y97737D01*
X72201Y97666D01*
X72255Y97596D01*
X72300Y97517D01*
X72346Y97434D01*
X72350Y97429D01*
X72355Y97413D01*
X72367Y97388D01*
X72380Y97354D01*
X72400Y97313D01*
X72417Y97259D01*
X72438Y97201D01*
X72459Y97134D01*
X72479Y97063D01*
X72500Y96984D01*
X72521Y96901D01*
X72538Y96810D01*
X72550Y96718D01*
X72563Y96618D01*
X72567Y96514D01*
X72571Y96410D01*
Y96406D01*
Y96389D01*
Y96364D01*
X72567Y96331D01*
Y96289D01*
X72563Y96240D01*
X72558Y96185D01*
X72554Y96127D01*
X72546Y96061D01*
X72534Y95994D01*
X72509Y95849D01*
X72475Y95703D01*
X72425Y95557D01*
Y95553D01*
X72417Y95541D01*
X72409Y95520D01*
X72396Y95495D01*
X72384Y95462D01*
X72363Y95424D01*
X72342Y95378D01*
X72317Y95333D01*
X72255Y95229D01*
X72180Y95121D01*
X72092Y95008D01*
X71988Y94900D01*
X71993Y94896D01*
X72005Y94888D01*
X72022Y94875D01*
X72051Y94858D01*
X72080Y94842D01*
X72118Y94817D01*
X72159Y94792D01*
X72205Y94763D01*
X72305Y94705D01*
X72417Y94646D01*
X72534Y94588D01*
X72646Y94542D01*
X72492Y94193D01*
X72488D01*
X72475Y94201D01*
X72450Y94209D01*
X72421Y94222D01*
X72384Y94239D01*
X72338Y94255D01*
X72288Y94280D01*
X72234Y94309D01*
X72176Y94338D01*
X72109Y94372D01*
X71972Y94451D01*
X71822Y94546D01*
X71668Y94659D01*
X71664Y94655D01*
X71647Y94650D01*
X71627Y94638D01*
X71593Y94621D01*
X71552Y94605D01*
X71506Y94584D01*
X71452Y94563D01*
X71390Y94542D01*
X71323Y94521D01*
X71248Y94501D01*
X71173Y94480D01*
X71090Y94463D01*
X70911Y94434D01*
X70820Y94430D01*
X70724Y94426D01*
X70674D01*
X70636Y94430D01*
X70591Y94434D01*
X70537Y94438D01*
X70478Y94447D01*
X70412Y94459D01*
X70341Y94472D01*
X70266Y94488D01*
X70187Y94509D01*
X70108Y94530D01*
X70025Y94559D01*
X69942Y94592D01*
X69859Y94630D01*
X69780Y94675D01*
X69775Y94679D01*
X69763Y94688D01*
X69738Y94700D01*
X69709Y94721D01*
X69676Y94746D01*
X69634Y94779D01*
X69588Y94817D01*
X69538Y94858D01*
X69488Y94904D01*
X69434Y94958D01*
X69380Y95016D01*
X69326Y95079D01*
X69272Y95145D01*
X69222Y95216D01*
X69172Y95295D01*
X69126Y95378D01*
X69122Y95383D01*
X69118Y95399D01*
X69106Y95424D01*
X69089Y95458D01*
X69072Y95503D01*
X69056Y95553D01*
X69035Y95611D01*
X69014Y95678D01*
X68989Y95753D01*
X68968Y95832D01*
X68952Y95915D01*
X68935Y96007D01*
X68918Y96098D01*
X68906Y96198D01*
X68902Y96302D01*
X68898Y96406D01*
Y96414D01*
Y96431D01*
Y96460D01*
X68902Y96502D01*
X68906Y96552D01*
X68910Y96610D01*
X68918Y96676D01*
X68927Y96751D01*
X68939Y96826D01*
X68952Y96909D01*
X68993Y97084D01*
X69022Y97171D01*
X69052Y97263D01*
X69085Y97354D01*
X69126Y97442D01*
X69131Y97446D01*
X69139Y97463D01*
X69151Y97487D01*
X69168Y97517D01*
X69193Y97558D01*
X69222Y97604D01*
X69255Y97650D01*
X69293Y97704D01*
X69339Y97762D01*
X69389Y97820D01*
X69438Y97879D01*
X69497Y97937D01*
X69563Y97995D01*
X69630Y98049D01*
X69700Y98103D01*
X69780Y98149D01*
X69784Y98153D01*
X69800Y98162D01*
X69821Y98170D01*
X69854Y98186D01*
X69896Y98207D01*
X69942Y98228D01*
X70000Y98249D01*
X70058Y98274D01*
X70129Y98295D01*
X70200Y98315D01*
X70279Y98336D01*
X70366Y98357D01*
X70454Y98374D01*
X70545Y98382D01*
X70641Y98390D01*
X70736Y98394D01*
X70786D01*
X70824Y98390D01*
D02*
G37*
G36*
X74665Y76670D02*
X74711D01*
X74765Y76666D01*
X74827Y76662D01*
X74952Y76649D01*
X75081Y76629D01*
X75206Y76604D01*
X75260Y76587D01*
X75314Y76570D01*
X75318D01*
X75327Y76566D01*
X75339Y76558D01*
X75360Y76550D01*
X75410Y76525D01*
X75468Y76487D01*
X75539Y76437D01*
X75609Y76371D01*
X75680Y76296D01*
X75743Y76204D01*
Y76200D01*
X75751Y76192D01*
X75759Y76179D01*
X75767Y76158D01*
X75780Y76134D01*
X75792Y76104D01*
X75809Y76071D01*
X75826Y76034D01*
X75855Y75946D01*
X75880Y75851D01*
X75896Y75743D01*
X75905Y75626D01*
Y75622D01*
Y75609D01*
Y75584D01*
X75901Y75560D01*
X75896Y75522D01*
X75892Y75480D01*
X75884Y75435D01*
X75871Y75385D01*
X75838Y75277D01*
X75817Y75218D01*
X75792Y75160D01*
X75763Y75102D01*
X75726Y75044D01*
X75684Y74989D01*
X75639Y74936D01*
X75634Y74931D01*
X75626Y74923D01*
X75609Y74910D01*
X75589Y74890D01*
X75560Y74869D01*
X75526Y74844D01*
X75485Y74815D01*
X75435Y74786D01*
X75381Y74757D01*
X75322Y74727D01*
X75256Y74698D01*
X75181Y74669D01*
X75102Y74644D01*
X75015Y74619D01*
X74919Y74598D01*
X74819Y74582D01*
X74823D01*
X74827Y74578D01*
X74852Y74565D01*
X74890Y74544D01*
X74936Y74519D01*
X74985Y74490D01*
X75035Y74461D01*
X75085Y74424D01*
X75127Y74391D01*
X75131Y74386D01*
X75135Y74382D01*
X75148Y74370D01*
X75164Y74353D01*
X75185Y74332D01*
X75210Y74307D01*
X75264Y74249D01*
X75327Y74174D01*
X75397Y74087D01*
X75472Y73987D01*
X75547Y73879D01*
X76213Y72835D01*
X75576D01*
X75069Y73633D01*
X75064Y73637D01*
X75060Y73650D01*
X75048Y73667D01*
X75031Y73692D01*
X75015Y73721D01*
X74989Y73754D01*
X74940Y73829D01*
X74881Y73916D01*
X74823Y74004D01*
X74761Y74087D01*
X74703Y74162D01*
Y74166D01*
X74694Y74170D01*
X74677Y74191D01*
X74653Y74224D01*
X74615Y74261D01*
X74578Y74303D01*
X74532Y74345D01*
X74486Y74386D01*
X74445Y74415D01*
X74440Y74420D01*
X74424Y74428D01*
X74403Y74440D01*
X74374Y74457D01*
X74336Y74474D01*
X74299Y74490D01*
X74257Y74507D01*
X74212Y74519D01*
X74207D01*
X74195Y74524D01*
X74174Y74528D01*
X74145Y74532D01*
X74103D01*
X74054Y74536D01*
X73995Y74540D01*
X73342D01*
Y72835D01*
X72835D01*
Y76674D01*
X74619D01*
X74665Y76670D01*
D02*
G37*
G36*
X76008Y118572D02*
X76053D01*
X76107Y118568D01*
X76170Y118563D01*
X76295Y118551D01*
X76424Y118530D01*
X76548Y118505D01*
X76602Y118489D01*
X76657Y118472D01*
X76661D01*
X76669Y118468D01*
X76682Y118459D01*
X76702Y118451D01*
X76752Y118426D01*
X76810Y118389D01*
X76881Y118339D01*
X76952Y118272D01*
X77023Y118197D01*
X77085Y118106D01*
Y118102D01*
X77093Y118093D01*
X77102Y118081D01*
X77110Y118060D01*
X77122Y118035D01*
X77135Y118006D01*
X77152Y117973D01*
X77168Y117935D01*
X77197Y117848D01*
X77222Y117752D01*
X77239Y117644D01*
X77247Y117528D01*
Y117523D01*
Y117511D01*
Y117486D01*
X77243Y117461D01*
X77239Y117424D01*
X77235Y117382D01*
X77226Y117336D01*
X77214Y117286D01*
X77181Y117178D01*
X77160Y117120D01*
X77135Y117062D01*
X77106Y117003D01*
X77068Y116945D01*
X77027Y116891D01*
X76981Y116837D01*
X76977Y116833D01*
X76968Y116824D01*
X76952Y116812D01*
X76931Y116791D01*
X76902Y116771D01*
X76869Y116745D01*
X76827Y116716D01*
X76777Y116687D01*
X76723Y116658D01*
X76665Y116629D01*
X76598Y116600D01*
X76523Y116571D01*
X76444Y116546D01*
X76357Y116521D01*
X76261Y116500D01*
X76161Y116483D01*
X76166D01*
X76170Y116479D01*
X76195Y116467D01*
X76232Y116446D01*
X76278Y116421D01*
X76328Y116392D01*
X76378Y116363D01*
X76428Y116325D01*
X76469Y116292D01*
X76473Y116288D01*
X76478Y116284D01*
X76490Y116271D01*
X76507Y116255D01*
X76528Y116234D01*
X76552Y116209D01*
X76607Y116151D01*
X76669Y116076D01*
X76740Y115988D01*
X76815Y115889D01*
X76889Y115780D01*
X77555Y114736D01*
X76919D01*
X76411Y115535D01*
X76407Y115539D01*
X76403Y115552D01*
X76390Y115568D01*
X76374Y115593D01*
X76357Y115622D01*
X76332Y115656D01*
X76282Y115731D01*
X76224Y115818D01*
X76166Y115905D01*
X76103Y115988D01*
X76045Y116063D01*
Y116067D01*
X76037Y116072D01*
X76020Y116092D01*
X75995Y116126D01*
X75958Y116163D01*
X75920Y116205D01*
X75875Y116246D01*
X75829Y116288D01*
X75787Y116317D01*
X75783Y116321D01*
X75766Y116330D01*
X75745Y116342D01*
X75716Y116359D01*
X75679Y116375D01*
X75642Y116392D01*
X75600Y116409D01*
X75554Y116421D01*
X75550D01*
X75538Y116425D01*
X75517Y116429D01*
X75488Y116434D01*
X75446D01*
X75396Y116438D01*
X75338Y116442D01*
X74685D01*
Y114736D01*
X74177D01*
Y118576D01*
X75962D01*
X76008Y118572D01*
D02*
G37*
G36*
X150988Y26202D02*
X151507D01*
Y25770D01*
X150988D01*
Y24850D01*
X150517D01*
Y25770D01*
X148845D01*
Y26202D01*
X150601Y28690D01*
X150988D01*
Y26202D01*
D02*
G37*
G36*
X147160Y28686D02*
X147206D01*
X147260Y28682D01*
X147323Y28678D01*
X147447Y28665D01*
X147576Y28644D01*
X147701Y28619D01*
X147755Y28603D01*
X147809Y28586D01*
X147813D01*
X147822Y28582D01*
X147834Y28574D01*
X147855Y28565D01*
X147905Y28540D01*
X147963Y28503D01*
X148034Y28453D01*
X148105Y28386D01*
X148175Y28311D01*
X148238Y28220D01*
Y28216D01*
X148246Y28207D01*
X148254Y28195D01*
X148263Y28174D01*
X148275Y28149D01*
X148288Y28120D01*
X148304Y28087D01*
X148321Y28049D01*
X148350Y27962D01*
X148375Y27866D01*
X148392Y27758D01*
X148400Y27642D01*
Y27638D01*
Y27625D01*
Y27600D01*
X148396Y27575D01*
X148392Y27538D01*
X148388Y27496D01*
X148379Y27450D01*
X148367Y27400D01*
X148333Y27292D01*
X148313Y27234D01*
X148288Y27176D01*
X148259Y27118D01*
X148221Y27059D01*
X148179Y27005D01*
X148134Y26951D01*
X148130Y26947D01*
X148121Y26939D01*
X148105Y26926D01*
X148084Y26905D01*
X148055Y26885D01*
X148021Y26860D01*
X147980Y26831D01*
X147930Y26801D01*
X147876Y26772D01*
X147818Y26743D01*
X147751Y26714D01*
X147676Y26685D01*
X147597Y26660D01*
X147510Y26635D01*
X147414Y26614D01*
X147314Y26598D01*
X147318D01*
X147323Y26593D01*
X147347Y26581D01*
X147385Y26560D01*
X147431Y26535D01*
X147481Y26506D01*
X147531Y26477D01*
X147581Y26439D01*
X147622Y26406D01*
X147626Y26402D01*
X147630Y26398D01*
X147643Y26385D01*
X147660Y26369D01*
X147680Y26348D01*
X147705Y26323D01*
X147759Y26265D01*
X147822Y26190D01*
X147892Y26103D01*
X147967Y26003D01*
X148042Y25894D01*
X148708Y24850D01*
X148071D01*
X147564Y25649D01*
X147560Y25653D01*
X147555Y25666D01*
X147543Y25682D01*
X147526Y25707D01*
X147510Y25736D01*
X147485Y25770D01*
X147435Y25845D01*
X147377Y25932D01*
X147318Y26019D01*
X147256Y26103D01*
X147198Y26177D01*
Y26182D01*
X147189Y26186D01*
X147173Y26206D01*
X147148Y26240D01*
X147110Y26277D01*
X147073Y26319D01*
X147027Y26360D01*
X146981Y26402D01*
X146940Y26431D01*
X146936Y26435D01*
X146919Y26444D01*
X146898Y26456D01*
X146869Y26473D01*
X146832Y26489D01*
X146794Y26506D01*
X146753Y26523D01*
X146707Y26535D01*
X146703D01*
X146690Y26539D01*
X146669Y26544D01*
X146640Y26548D01*
X146599D01*
X146549Y26552D01*
X146491Y26556D01*
X145837D01*
Y24850D01*
X145330D01*
Y28690D01*
X147115D01*
X147160Y28686D01*
D02*
G37*
G36*
X62124Y76683D02*
X62170Y76679D01*
X62224Y76670D01*
X62287Y76662D01*
X62349Y76649D01*
X62420Y76633D01*
X62490Y76612D01*
X62565Y76587D01*
X62636Y76558D01*
X62711Y76520D01*
X62782Y76479D01*
X62848Y76433D01*
X62911Y76379D01*
X62915Y76375D01*
X62923Y76367D01*
X62940Y76346D01*
X62960Y76325D01*
X62985Y76296D01*
X63015Y76258D01*
X63044Y76217D01*
X63073Y76167D01*
X63102Y76117D01*
X63131Y76059D01*
X63160Y75996D01*
X63185Y75930D01*
X63206Y75855D01*
X63223Y75780D01*
X63231Y75701D01*
X63235Y75618D01*
Y75613D01*
Y75609D01*
Y75597D01*
Y75580D01*
X63231Y75534D01*
X63223Y75476D01*
X63210Y75406D01*
X63194Y75331D01*
X63173Y75248D01*
X63139Y75164D01*
Y75160D01*
X63135Y75156D01*
X63131Y75143D01*
X63123Y75127D01*
X63098Y75081D01*
X63064Y75023D01*
X63019Y74952D01*
X62965Y74873D01*
X62902Y74790D01*
X62823Y74698D01*
X62819Y74694D01*
X62815Y74686D01*
X62798Y74673D01*
X62782Y74653D01*
X62757Y74628D01*
X62728Y74598D01*
X62694Y74561D01*
X62653Y74524D01*
X62603Y74478D01*
X62549Y74428D01*
X62490Y74370D01*
X62424Y74312D01*
X62353Y74245D01*
X62274Y74178D01*
X62187Y74103D01*
X62095Y74024D01*
X62091Y74020D01*
X62079Y74008D01*
X62054Y73991D01*
X62029Y73966D01*
X61991Y73937D01*
X61954Y73904D01*
X61866Y73829D01*
X61775Y73750D01*
X61688Y73667D01*
X61646Y73629D01*
X61608Y73596D01*
X61575Y73563D01*
X61550Y73538D01*
X61546Y73533D01*
X61529Y73517D01*
X61509Y73492D01*
X61480Y73459D01*
X61446Y73421D01*
X61413Y73380D01*
X61347Y73288D01*
X63239D01*
Y72835D01*
X60698D01*
Y72843D01*
Y72864D01*
Y72897D01*
X60702Y72939D01*
X60706Y72989D01*
X60718Y73043D01*
X60731Y73101D01*
X60752Y73159D01*
Y73163D01*
X60756Y73172D01*
X60760Y73184D01*
X60768Y73205D01*
X60781Y73226D01*
X60793Y73255D01*
X60826Y73321D01*
X60868Y73400D01*
X60922Y73488D01*
X60984Y73579D01*
X61059Y73671D01*
X61064Y73675D01*
X61068Y73683D01*
X61080Y73696D01*
X61101Y73717D01*
X61122Y73737D01*
X61151Y73766D01*
X61180Y73800D01*
X61217Y73837D01*
X61259Y73879D01*
X61305Y73920D01*
X61355Y73970D01*
X61413Y74020D01*
X61471Y74074D01*
X61538Y74128D01*
X61604Y74187D01*
X61679Y74249D01*
X61688Y74253D01*
X61708Y74274D01*
X61738Y74299D01*
X61779Y74336D01*
X61829Y74378D01*
X61887Y74428D01*
X61954Y74482D01*
X62020Y74544D01*
X62162Y74673D01*
X62299Y74811D01*
X62366Y74877D01*
X62428Y74944D01*
X62482Y75006D01*
X62528Y75064D01*
X62532Y75069D01*
X62536Y75077D01*
X62549Y75094D01*
X62561Y75114D01*
X62582Y75143D01*
X62599Y75173D01*
X62640Y75248D01*
X62682Y75335D01*
X62719Y75431D01*
X62744Y75530D01*
X62748Y75580D01*
X62752Y75630D01*
Y75634D01*
Y75643D01*
Y75659D01*
X62748Y75676D01*
Y75701D01*
X62740Y75730D01*
X62728Y75792D01*
X62703Y75867D01*
X62665Y75946D01*
X62644Y75988D01*
X62615Y76025D01*
X62586Y76063D01*
X62549Y76100D01*
X62545Y76104D01*
X62540Y76109D01*
X62528Y76117D01*
X62511Y76129D01*
X62490Y76146D01*
X62466Y76163D01*
X62407Y76200D01*
X62328Y76233D01*
X62241Y76267D01*
X62137Y76288D01*
X62079Y76296D01*
X61987D01*
X61962Y76292D01*
X61933D01*
X61900Y76283D01*
X61825Y76271D01*
X61738Y76246D01*
X61646Y76208D01*
X61600Y76183D01*
X61554Y76158D01*
X61513Y76125D01*
X61471Y76088D01*
X61467Y76084D01*
X61463Y76079D01*
X61455Y76067D01*
X61438Y76050D01*
X61426Y76029D01*
X61409Y76005D01*
X61388Y75976D01*
X61371Y75942D01*
X61351Y75905D01*
X61334Y75863D01*
X61301Y75763D01*
X61276Y75655D01*
X61272Y75593D01*
X61267Y75526D01*
X60785Y75576D01*
Y75584D01*
X60789Y75601D01*
X60793Y75626D01*
X60797Y75664D01*
X60806Y75709D01*
X60818Y75763D01*
X60831Y75822D01*
X60851Y75884D01*
X60872Y75946D01*
X60897Y76017D01*
X60930Y76084D01*
X60964Y76150D01*
X61005Y76221D01*
X61051Y76283D01*
X61101Y76346D01*
X61159Y76400D01*
X61163Y76404D01*
X61176Y76412D01*
X61193Y76425D01*
X61217Y76446D01*
X61251Y76466D01*
X61292Y76491D01*
X61338Y76516D01*
X61392Y76545D01*
X61450Y76570D01*
X61517Y76595D01*
X61588Y76620D01*
X61667Y76641D01*
X61750Y76662D01*
X61837Y76674D01*
X61933Y76683D01*
X62033Y76687D01*
X62087D01*
X62124Y76683D01*
D02*
G37*
G36*
X58917Y76670D02*
X58963D01*
X59017Y76666D01*
X59079Y76662D01*
X59204Y76649D01*
X59333Y76629D01*
X59458Y76604D01*
X59512Y76587D01*
X59566Y76570D01*
X59570D01*
X59578Y76566D01*
X59591Y76558D01*
X59612Y76550D01*
X59662Y76525D01*
X59720Y76487D01*
X59791Y76437D01*
X59861Y76371D01*
X59932Y76296D01*
X59994Y76204D01*
Y76200D01*
X60003Y76192D01*
X60011Y76179D01*
X60019Y76158D01*
X60032Y76134D01*
X60044Y76104D01*
X60061Y76071D01*
X60078Y76034D01*
X60107Y75946D01*
X60132Y75851D01*
X60148Y75743D01*
X60157Y75626D01*
Y75622D01*
Y75609D01*
Y75584D01*
X60153Y75560D01*
X60148Y75522D01*
X60144Y75480D01*
X60136Y75435D01*
X60123Y75385D01*
X60090Y75277D01*
X60069Y75218D01*
X60044Y75160D01*
X60015Y75102D01*
X59978Y75044D01*
X59936Y74989D01*
X59890Y74936D01*
X59886Y74931D01*
X59878Y74923D01*
X59861Y74910D01*
X59841Y74890D01*
X59811Y74869D01*
X59778Y74844D01*
X59737Y74815D01*
X59687Y74786D01*
X59632Y74757D01*
X59574Y74727D01*
X59508Y74698D01*
X59433Y74669D01*
X59354Y74644D01*
X59266Y74619D01*
X59171Y74598D01*
X59071Y74582D01*
X59075D01*
X59079Y74578D01*
X59104Y74565D01*
X59142Y74544D01*
X59187Y74519D01*
X59237Y74490D01*
X59287Y74461D01*
X59337Y74424D01*
X59379Y74391D01*
X59383Y74386D01*
X59387Y74382D01*
X59400Y74370D01*
X59416Y74353D01*
X59437Y74332D01*
X59462Y74307D01*
X59516Y74249D01*
X59578Y74174D01*
X59649Y74087D01*
X59724Y73987D01*
X59799Y73879D01*
X60465Y72835D01*
X59828D01*
X59320Y73633D01*
X59316Y73637D01*
X59312Y73650D01*
X59300Y73667D01*
X59283Y73692D01*
X59266Y73721D01*
X59241Y73754D01*
X59192Y73829D01*
X59133Y73916D01*
X59075Y74004D01*
X59013Y74087D01*
X58954Y74162D01*
Y74166D01*
X58946Y74170D01*
X58930Y74191D01*
X58904Y74224D01*
X58867Y74261D01*
X58830Y74303D01*
X58784Y74345D01*
X58738Y74386D01*
X58697Y74415D01*
X58692Y74420D01*
X58676Y74428D01*
X58655Y74440D01*
X58626Y74457D01*
X58588Y74474D01*
X58551Y74490D01*
X58509Y74507D01*
X58464Y74519D01*
X58459D01*
X58447Y74524D01*
X58426Y74528D01*
X58397Y74532D01*
X58355D01*
X58306Y74536D01*
X58247Y74540D01*
X57594D01*
Y72835D01*
X57087D01*
Y76674D01*
X58871D01*
X58917Y76670D01*
D02*
G37*
G36*
X79136Y118584D02*
X79165Y118580D01*
X79244Y118572D01*
X79331Y118555D01*
X79431Y118530D01*
X79531Y118497D01*
X79631Y118451D01*
X79635D01*
X79643Y118447D01*
X79656Y118439D01*
X79677Y118426D01*
X79722Y118397D01*
X79781Y118355D01*
X79847Y118301D01*
X79914Y118239D01*
X79980Y118168D01*
X80039Y118085D01*
Y118081D01*
X80043Y118077D01*
X80051Y118060D01*
X80059Y118043D01*
X80072Y118023D01*
X80084Y117998D01*
X80109Y117935D01*
X80134Y117860D01*
X80159Y117777D01*
X80176Y117686D01*
X80180Y117590D01*
Y117586D01*
Y117578D01*
Y117565D01*
Y117548D01*
X80172Y117499D01*
X80163Y117440D01*
X80147Y117369D01*
X80122Y117295D01*
X80089Y117216D01*
X80043Y117137D01*
Y117132D01*
X80039Y117128D01*
X80018Y117103D01*
X79989Y117066D01*
X79943Y117020D01*
X79889Y116966D01*
X79818Y116912D01*
X79739Y116862D01*
X79648Y116812D01*
X79652D01*
X79664Y116808D01*
X79681Y116804D01*
X79706Y116795D01*
X79731Y116787D01*
X79764Y116775D01*
X79843Y116741D01*
X79926Y116696D01*
X80014Y116641D01*
X80101Y116571D01*
X80176Y116483D01*
X80180Y116479D01*
X80184Y116471D01*
X80193Y116458D01*
X80205Y116438D01*
X80222Y116417D01*
X80238Y116388D01*
X80255Y116355D01*
X80272Y116313D01*
X80288Y116271D01*
X80305Y116226D01*
X80338Y116121D01*
X80359Y116001D01*
X80367Y115934D01*
Y115868D01*
Y115864D01*
Y115847D01*
X80363Y115818D01*
Y115785D01*
X80355Y115739D01*
X80347Y115689D01*
X80338Y115635D01*
X80322Y115572D01*
X80301Y115506D01*
X80276Y115439D01*
X80247Y115368D01*
X80209Y115298D01*
X80168Y115223D01*
X80118Y115152D01*
X80064Y115082D01*
X79997Y115015D01*
X79993Y115011D01*
X79980Y114998D01*
X79960Y114982D01*
X79930Y114961D01*
X79897Y114936D01*
X79851Y114907D01*
X79801Y114874D01*
X79743Y114844D01*
X79681Y114811D01*
X79610Y114778D01*
X79535Y114749D01*
X79452Y114724D01*
X79365Y114703D01*
X79273Y114686D01*
X79177Y114674D01*
X79074Y114670D01*
X79053D01*
X79024Y114674D01*
X78990D01*
X78944Y114678D01*
X78895Y114686D01*
X78841Y114695D01*
X78778Y114707D01*
X78712Y114724D01*
X78645Y114744D01*
X78574Y114765D01*
X78504Y114795D01*
X78433Y114832D01*
X78366Y114869D01*
X78296Y114915D01*
X78233Y114969D01*
X78229Y114973D01*
X78221Y114982D01*
X78204Y114998D01*
X78179Y115023D01*
X78154Y115052D01*
X78125Y115090D01*
X78096Y115131D01*
X78063Y115181D01*
X78029Y115231D01*
X77996Y115294D01*
X77963Y115356D01*
X77934Y115427D01*
X77909Y115502D01*
X77884Y115581D01*
X77867Y115664D01*
X77855Y115751D01*
X78325Y115814D01*
Y115810D01*
X78329Y115797D01*
X78333Y115776D01*
X78341Y115747D01*
X78350Y115714D01*
X78358Y115676D01*
X78387Y115589D01*
X78425Y115493D01*
X78470Y115398D01*
X78528Y115310D01*
X78562Y115273D01*
X78595Y115235D01*
X78599D01*
X78603Y115227D01*
X78616Y115219D01*
X78628Y115206D01*
X78670Y115181D01*
X78728Y115148D01*
X78799Y115115D01*
X78878Y115090D01*
X78974Y115069D01*
X79074Y115061D01*
X79107D01*
X79132Y115065D01*
X79157Y115069D01*
X79194Y115073D01*
X79269Y115090D01*
X79361Y115115D01*
X79456Y115156D01*
X79502Y115185D01*
X79548Y115215D01*
X79593Y115248D01*
X79639Y115289D01*
X79643Y115294D01*
X79648Y115302D01*
X79660Y115314D01*
X79677Y115331D01*
X79693Y115352D01*
X79710Y115381D01*
X79731Y115410D01*
X79756Y115448D01*
X79797Y115531D01*
X79831Y115627D01*
X79860Y115739D01*
X79864Y115797D01*
X79868Y115859D01*
Y115864D01*
Y115872D01*
Y115893D01*
X79864Y115913D01*
X79860Y115943D01*
X79856Y115972D01*
X79843Y116047D01*
X79814Y116134D01*
X79777Y116221D01*
X79752Y116267D01*
X79722Y116309D01*
X79689Y116350D01*
X79652Y116392D01*
X79648Y116396D01*
X79643Y116400D01*
X79631Y116413D01*
X79614Y116425D01*
X79593Y116442D01*
X79568Y116458D01*
X79506Y116500D01*
X79427Y116537D01*
X79336Y116571D01*
X79232Y116596D01*
X79173Y116600D01*
X79115Y116604D01*
X79090D01*
X79061Y116600D01*
X79024D01*
X78974Y116592D01*
X78920Y116583D01*
X78853Y116571D01*
X78782Y116554D01*
X78832Y116966D01*
X78841D01*
X78861Y116962D01*
X78886Y116958D01*
X78940D01*
X78961Y116962D01*
X78990D01*
X79019Y116966D01*
X79090Y116979D01*
X79173Y116995D01*
X79265Y117024D01*
X79361Y117062D01*
X79452Y117116D01*
X79456D01*
X79465Y117124D01*
X79473Y117132D01*
X79489Y117145D01*
X79531Y117182D01*
X79577Y117236D01*
X79618Y117303D01*
X79660Y117386D01*
X79677Y117432D01*
X79685Y117486D01*
X79693Y117540D01*
X79698Y117598D01*
Y117603D01*
Y117611D01*
Y117623D01*
X79693Y117644D01*
X79689Y117690D01*
X79677Y117752D01*
X79656Y117819D01*
X79623Y117889D01*
X79577Y117964D01*
X79552Y117998D01*
X79519Y118031D01*
X79510Y118039D01*
X79485Y118056D01*
X79448Y118085D01*
X79398Y118118D01*
X79331Y118147D01*
X79252Y118176D01*
X79165Y118193D01*
X79065Y118201D01*
X79040D01*
X79019Y118197D01*
X78994D01*
X78970Y118193D01*
X78903Y118181D01*
X78832Y118160D01*
X78753Y118127D01*
X78678Y118085D01*
X78603Y118027D01*
X78595Y118018D01*
X78574Y117993D01*
X78541Y117956D01*
X78508Y117898D01*
X78466Y117827D01*
X78429Y117736D01*
X78395Y117632D01*
X78370Y117511D01*
X77900Y117594D01*
Y117598D01*
X77904Y117615D01*
X77909Y117640D01*
X77917Y117673D01*
X77930Y117711D01*
X77942Y117756D01*
X77959Y117806D01*
X77979Y117860D01*
X78034Y117981D01*
X78063Y118039D01*
X78100Y118102D01*
X78142Y118160D01*
X78187Y118218D01*
X78237Y118276D01*
X78291Y118326D01*
X78296Y118331D01*
X78304Y118339D01*
X78325Y118351D01*
X78346Y118368D01*
X78379Y118389D01*
X78412Y118410D01*
X78454Y118435D01*
X78504Y118459D01*
X78553Y118480D01*
X78612Y118505D01*
X78674Y118526D01*
X78741Y118547D01*
X78816Y118563D01*
X78890Y118576D01*
X78970Y118584D01*
X79053Y118588D01*
X79107D01*
X79136Y118584D01*
D02*
G37*
G36*
X157503Y29586D02*
X157553D01*
X157602Y29582D01*
X157715Y29578D01*
X157827Y29565D01*
X157939Y29553D01*
X157989Y29540D01*
X158035Y29532D01*
X158039D01*
X158052Y29528D01*
X158068Y29524D01*
X158089Y29515D01*
X158118Y29507D01*
X158151Y29499D01*
X158231Y29469D01*
X158318Y29432D01*
X158409Y29386D01*
X158505Y29328D01*
X158597Y29257D01*
X158601Y29253D01*
X158609Y29245D01*
X158626Y29232D01*
X158647Y29212D01*
X158671Y29186D01*
X158701Y29153D01*
X158734Y29120D01*
X158767Y29078D01*
X158805Y29033D01*
X158842Y28983D01*
X158879Y28929D01*
X158917Y28870D01*
X158988Y28741D01*
X159050Y28600D01*
Y28596D01*
X159058Y28583D01*
X159063Y28558D01*
X159075Y28529D01*
X159088Y28492D01*
X159100Y28446D01*
X159113Y28396D01*
X159129Y28338D01*
X159142Y28271D01*
X159154Y28201D01*
X159167Y28126D01*
X159179Y28047D01*
X159192Y27964D01*
X159196Y27876D01*
X159204Y27689D01*
Y27685D01*
Y27668D01*
Y27647D01*
Y27614D01*
X159200Y27577D01*
Y27531D01*
X159196Y27481D01*
X159192Y27427D01*
X159179Y27306D01*
X159158Y27177D01*
X159133Y27044D01*
X159100Y26911D01*
Y26907D01*
X159096Y26894D01*
X159088Y26878D01*
X159083Y26857D01*
X159071Y26828D01*
X159058Y26794D01*
X159029Y26715D01*
X158992Y26628D01*
X158946Y26533D01*
X158896Y26441D01*
X158838Y26354D01*
Y26349D01*
X158830Y26345D01*
X158821Y26333D01*
X158809Y26316D01*
X158780Y26279D01*
X158734Y26229D01*
X158684Y26171D01*
X158626Y26112D01*
X158559Y26058D01*
X158489Y26004D01*
X158484D01*
X158480Y26000D01*
X158455Y25983D01*
X158414Y25962D01*
X158360Y25933D01*
X158293Y25904D01*
X158214Y25871D01*
X158122Y25842D01*
X158027Y25813D01*
X158023D01*
X158014Y25809D01*
X158002D01*
X157981Y25804D01*
X157956Y25800D01*
X157923Y25792D01*
X157889Y25788D01*
X157852Y25784D01*
X157761Y25771D01*
X157657Y25759D01*
X157540Y25755D01*
X157415Y25750D01*
X156030D01*
Y29590D01*
X157461D01*
X157503Y29586D01*
D02*
G37*
G36*
X47181Y72800D02*
X47231Y72796D01*
X47289Y72787D01*
X47351Y72779D01*
X47422Y72766D01*
X47497Y72750D01*
X47576Y72733D01*
X47655Y72708D01*
X47738Y72679D01*
X47822Y72646D01*
X47901Y72604D01*
X47980Y72563D01*
X48055Y72509D01*
X48059Y72504D01*
X48071Y72496D01*
X48092Y72479D01*
X48117Y72454D01*
X48150Y72425D01*
X48188Y72388D01*
X48225Y72346D01*
X48271Y72296D01*
X48317Y72242D01*
X48362Y72180D01*
X48408Y72113D01*
X48450Y72038D01*
X48495Y71959D01*
X48533Y71872D01*
X48570Y71781D01*
X48604Y71685D01*
X48104Y71568D01*
Y71573D01*
X48096Y71585D01*
X48092Y71610D01*
X48079Y71639D01*
X48067Y71672D01*
X48046Y71710D01*
X48005Y71801D01*
X47951Y71901D01*
X47880Y72005D01*
X47805Y72101D01*
X47759Y72142D01*
X47713Y72180D01*
X47709Y72184D01*
X47701Y72188D01*
X47688Y72197D01*
X47668Y72209D01*
X47643Y72226D01*
X47613Y72242D01*
X47580Y72259D01*
X47539Y72276D01*
X47493Y72292D01*
X47447Y72309D01*
X47339Y72342D01*
X47214Y72363D01*
X47148Y72371D01*
X47035D01*
X47002Y72367D01*
X46965Y72363D01*
X46919Y72359D01*
X46869Y72355D01*
X46819Y72346D01*
X46698Y72317D01*
X46573Y72280D01*
X46511Y72255D01*
X46449Y72226D01*
X46391Y72192D01*
X46332Y72155D01*
X46328Y72151D01*
X46320Y72147D01*
X46303Y72134D01*
X46282Y72118D01*
X46262Y72097D01*
X46232Y72068D01*
X46203Y72038D01*
X46170Y72005D01*
X46137Y71964D01*
X46099Y71922D01*
X46033Y71826D01*
X45970Y71714D01*
X45916Y71585D01*
Y71581D01*
X45912Y71568D01*
X45904Y71548D01*
X45900Y71523D01*
X45891Y71489D01*
X45879Y71452D01*
X45871Y71406D01*
X45858Y71360D01*
X45845Y71306D01*
X45837Y71248D01*
X45816Y71123D01*
X45804Y70990D01*
X45800Y70849D01*
Y70845D01*
Y70828D01*
Y70803D01*
X45804Y70766D01*
Y70724D01*
X45808Y70674D01*
X45812Y70620D01*
X45816Y70557D01*
X45825Y70491D01*
X45833Y70424D01*
X45858Y70279D01*
X45895Y70133D01*
X45941Y69992D01*
Y69988D01*
X45950Y69975D01*
X45958Y69958D01*
X45966Y69933D01*
X45983Y69900D01*
X46004Y69867D01*
X46049Y69788D01*
X46112Y69696D01*
X46187Y69609D01*
X46278Y69522D01*
X46328Y69484D01*
X46382Y69447D01*
X46386D01*
X46395Y69438D01*
X46411Y69430D01*
X46436Y69418D01*
X46465Y69405D01*
X46499Y69389D01*
X46536Y69376D01*
X46578Y69359D01*
X46673Y69326D01*
X46786Y69297D01*
X46906Y69276D01*
X46969Y69272D01*
X47035Y69268D01*
X47077D01*
X47106Y69272D01*
X47143Y69276D01*
X47185Y69280D01*
X47235Y69289D01*
X47285Y69297D01*
X47401Y69326D01*
X47460Y69347D01*
X47522Y69372D01*
X47584Y69401D01*
X47643Y69434D01*
X47701Y69472D01*
X47759Y69513D01*
X47763Y69517D01*
X47772Y69526D01*
X47788Y69538D01*
X47809Y69559D01*
X47830Y69584D01*
X47859Y69617D01*
X47888Y69655D01*
X47921Y69696D01*
X47955Y69746D01*
X47988Y69800D01*
X48021Y69859D01*
X48055Y69925D01*
X48084Y69996D01*
X48113Y70075D01*
X48142Y70158D01*
X48163Y70245D01*
X48670Y70117D01*
Y70108D01*
X48662Y70087D01*
X48654Y70058D01*
X48637Y70012D01*
X48620Y69963D01*
X48595Y69900D01*
X48570Y69834D01*
X48537Y69763D01*
X48500Y69684D01*
X48458Y69609D01*
X48412Y69526D01*
X48358Y69447D01*
X48300Y69372D01*
X48237Y69297D01*
X48167Y69226D01*
X48092Y69160D01*
X48088Y69156D01*
X48071Y69147D01*
X48050Y69131D01*
X48017Y69110D01*
X47980Y69085D01*
X47930Y69056D01*
X47876Y69027D01*
X47809Y68998D01*
X47738Y68968D01*
X47663Y68939D01*
X47580Y68910D01*
X47489Y68885D01*
X47393Y68864D01*
X47293Y68848D01*
X47189Y68839D01*
X47077Y68835D01*
X47019D01*
X46973Y68839D01*
X46923Y68844D01*
X46861Y68848D01*
X46794Y68856D01*
X46719Y68868D01*
X46640Y68881D01*
X46557Y68898D01*
X46474Y68918D01*
X46391Y68939D01*
X46303Y68968D01*
X46220Y69002D01*
X46141Y69039D01*
X46066Y69085D01*
X46062Y69089D01*
X46049Y69097D01*
X46029Y69110D01*
X46004Y69131D01*
X45970Y69160D01*
X45933Y69189D01*
X45891Y69226D01*
X45845Y69272D01*
X45800Y69322D01*
X45750Y69376D01*
X45704Y69434D01*
X45654Y69501D01*
X45604Y69572D01*
X45559Y69646D01*
X45517Y69730D01*
X45475Y69817D01*
X45471Y69821D01*
X45467Y69838D01*
X45459Y69867D01*
X45446Y69900D01*
X45430Y69946D01*
X45413Y69996D01*
X45396Y70058D01*
X45375Y70125D01*
X45359Y70200D01*
X45338Y70279D01*
X45321Y70362D01*
X45309Y70454D01*
X45284Y70645D01*
X45280Y70745D01*
X45276Y70845D01*
Y70853D01*
Y70869D01*
Y70903D01*
X45280Y70944D01*
X45284Y70998D01*
X45288Y71061D01*
X45296Y71127D01*
X45305Y71202D01*
X45317Y71281D01*
X45330Y71364D01*
X45371Y71543D01*
X45400Y71631D01*
X45430Y71718D01*
X45463Y71810D01*
X45504Y71893D01*
X45509Y71897D01*
X45517Y71914D01*
X45529Y71934D01*
X45546Y71968D01*
X45571Y72005D01*
X45600Y72047D01*
X45633Y72092D01*
X45671Y72147D01*
X45717Y72197D01*
X45762Y72255D01*
X45816Y72309D01*
X45875Y72367D01*
X45937Y72421D01*
X46004Y72475D01*
X46079Y72525D01*
X46153Y72571D01*
X46158Y72575D01*
X46174Y72579D01*
X46195Y72592D01*
X46228Y72608D01*
X46266Y72625D01*
X46316Y72646D01*
X46370Y72667D01*
X46428Y72687D01*
X46494Y72708D01*
X46569Y72729D01*
X46644Y72750D01*
X46727Y72766D01*
X46898Y72796D01*
X46990Y72800D01*
X47085Y72804D01*
X47139D01*
X47181Y72800D01*
D02*
G37*
G36*
X150703Y5289D02*
X151223D01*
Y4856D01*
X150703D01*
Y3937D01*
X150233D01*
Y4856D01*
X148561D01*
Y5289D01*
X150316Y7777D01*
X150703D01*
Y5289D01*
D02*
G37*
G36*
X147100Y7785D02*
X147146Y7781D01*
X147200Y7773D01*
X147263Y7764D01*
X147325Y7752D01*
X147396Y7735D01*
X147466Y7714D01*
X147541Y7689D01*
X147612Y7660D01*
X147687Y7623D01*
X147758Y7581D01*
X147824Y7535D01*
X147887Y7481D01*
X147891Y7477D01*
X147899Y7469D01*
X147916Y7448D01*
X147936Y7427D01*
X147961Y7398D01*
X147991Y7361D01*
X148020Y7319D01*
X148049Y7269D01*
X148078Y7219D01*
X148107Y7161D01*
X148136Y7099D01*
X148161Y7032D01*
X148182Y6957D01*
X148199Y6882D01*
X148207Y6803D01*
X148211Y6720D01*
Y6716D01*
Y6712D01*
Y6699D01*
Y6683D01*
X148207Y6637D01*
X148199Y6579D01*
X148186Y6508D01*
X148170Y6433D01*
X148149Y6350D01*
X148115Y6267D01*
Y6262D01*
X148111Y6258D01*
X148107Y6246D01*
X148099Y6229D01*
X148074Y6183D01*
X148040Y6125D01*
X147995Y6054D01*
X147941Y5975D01*
X147878Y5892D01*
X147799Y5801D01*
X147795Y5796D01*
X147791Y5788D01*
X147774Y5776D01*
X147758Y5755D01*
X147733Y5730D01*
X147704Y5701D01*
X147670Y5663D01*
X147629Y5626D01*
X147579Y5580D01*
X147525Y5530D01*
X147466Y5472D01*
X147400Y5414D01*
X147329Y5347D01*
X147250Y5281D01*
X147163Y5206D01*
X147071Y5127D01*
X147067Y5123D01*
X147055Y5110D01*
X147030Y5094D01*
X147005Y5068D01*
X146967Y5039D01*
X146930Y5006D01*
X146842Y4931D01*
X146751Y4852D01*
X146663Y4769D01*
X146622Y4732D01*
X146584Y4698D01*
X146551Y4665D01*
X146526Y4640D01*
X146522Y4636D01*
X146505Y4619D01*
X146485Y4594D01*
X146456Y4561D01*
X146422Y4524D01*
X146389Y4482D01*
X146322Y4390D01*
X148215D01*
Y3937D01*
X145674D01*
Y3945D01*
Y3966D01*
Y3999D01*
X145678Y4041D01*
X145682Y4091D01*
X145694Y4145D01*
X145707Y4203D01*
X145728Y4262D01*
Y4266D01*
X145732Y4274D01*
X145736Y4286D01*
X145744Y4307D01*
X145757Y4328D01*
X145769Y4357D01*
X145802Y4424D01*
X145844Y4503D01*
X145898Y4590D01*
X145960Y4682D01*
X146035Y4773D01*
X146039Y4777D01*
X146044Y4786D01*
X146056Y4798D01*
X146077Y4819D01*
X146098Y4840D01*
X146127Y4869D01*
X146156Y4902D01*
X146194Y4940D01*
X146235Y4981D01*
X146281Y5023D01*
X146331Y5073D01*
X146389Y5123D01*
X146447Y5177D01*
X146514Y5231D01*
X146580Y5289D01*
X146655Y5351D01*
X146663Y5356D01*
X146684Y5376D01*
X146713Y5401D01*
X146755Y5439D01*
X146805Y5480D01*
X146863Y5530D01*
X146930Y5584D01*
X146996Y5647D01*
X147138Y5776D01*
X147275Y5913D01*
X147342Y5980D01*
X147404Y6046D01*
X147458Y6109D01*
X147504Y6167D01*
X147508Y6171D01*
X147512Y6179D01*
X147525Y6196D01*
X147537Y6217D01*
X147558Y6246D01*
X147575Y6275D01*
X147616Y6350D01*
X147658Y6437D01*
X147695Y6533D01*
X147720Y6633D01*
X147724Y6683D01*
X147729Y6733D01*
Y6737D01*
Y6745D01*
Y6762D01*
X147724Y6778D01*
Y6803D01*
X147716Y6832D01*
X147704Y6895D01*
X147679Y6970D01*
X147641Y7049D01*
X147620Y7090D01*
X147591Y7128D01*
X147562Y7165D01*
X147525Y7203D01*
X147520Y7207D01*
X147516Y7211D01*
X147504Y7219D01*
X147487Y7232D01*
X147466Y7248D01*
X147441Y7265D01*
X147383Y7303D01*
X147304Y7336D01*
X147217Y7369D01*
X147113Y7390D01*
X147055Y7398D01*
X146963D01*
X146938Y7394D01*
X146909D01*
X146876Y7386D01*
X146801Y7373D01*
X146713Y7348D01*
X146622Y7311D01*
X146576Y7286D01*
X146530Y7261D01*
X146489Y7228D01*
X146447Y7190D01*
X146443Y7186D01*
X146439Y7182D01*
X146431Y7169D01*
X146414Y7153D01*
X146401Y7132D01*
X146385Y7107D01*
X146364Y7078D01*
X146347Y7045D01*
X146327Y7007D01*
X146310Y6966D01*
X146277Y6866D01*
X146252Y6758D01*
X146247Y6695D01*
X146243Y6628D01*
X145761Y6678D01*
Y6687D01*
X145765Y6703D01*
X145769Y6728D01*
X145773Y6766D01*
X145782Y6812D01*
X145794Y6866D01*
X145807Y6924D01*
X145827Y6986D01*
X145848Y7049D01*
X145873Y7119D01*
X145906Y7186D01*
X145940Y7253D01*
X145981Y7323D01*
X146027Y7386D01*
X146077Y7448D01*
X146135Y7502D01*
X146139Y7506D01*
X146152Y7515D01*
X146168Y7527D01*
X146194Y7548D01*
X146227Y7569D01*
X146268Y7594D01*
X146314Y7619D01*
X146368Y7648D01*
X146426Y7673D01*
X146493Y7698D01*
X146564Y7723D01*
X146643Y7743D01*
X146726Y7764D01*
X146813Y7777D01*
X146909Y7785D01*
X147009Y7789D01*
X147063D01*
X147100Y7785D01*
D02*
G37*
G36*
X138029Y125952D02*
X138079Y125948D01*
X138137Y125944D01*
X138204Y125936D01*
X138279Y125928D01*
X138354Y125915D01*
X138437Y125903D01*
X138612Y125861D01*
X138699Y125832D01*
X138791Y125803D01*
X138882Y125769D01*
X138969Y125728D01*
X138973Y125724D01*
X138990Y125715D01*
X139015Y125703D01*
X139044Y125686D01*
X139086Y125661D01*
X139132Y125632D01*
X139177Y125599D01*
X139231Y125561D01*
X139290Y125516D01*
X139348Y125466D01*
X139406Y125416D01*
X139464Y125358D01*
X139523Y125291D01*
X139577Y125224D01*
X139631Y125154D01*
X139676Y125075D01*
X139681Y125071D01*
X139689Y125054D01*
X139697Y125033D01*
X139714Y125000D01*
X139735Y124958D01*
X139756Y124913D01*
X139776Y124854D01*
X139801Y124796D01*
X139822Y124725D01*
X139843Y124655D01*
X139864Y124576D01*
X139884Y124488D01*
X139901Y124401D01*
X139910Y124309D01*
X139918Y124214D01*
X139922Y124118D01*
Y124114D01*
Y124093D01*
Y124068D01*
X139918Y124031D01*
X139914Y123981D01*
X139910Y123927D01*
X139901Y123868D01*
X139889Y123802D01*
X139876Y123727D01*
X139860Y123652D01*
X139839Y123573D01*
X139814Y123490D01*
X139785Y123407D01*
X139751Y123323D01*
X139714Y123244D01*
X139668Y123161D01*
X139664Y123157D01*
X139656Y123140D01*
X139643Y123120D01*
X139622Y123091D01*
X139597Y123053D01*
X139564Y123016D01*
X139527Y122970D01*
X139485Y122920D01*
X139435Y122866D01*
X139385Y122812D01*
X139327Y122758D01*
X139265Y122704D01*
X139194Y122654D01*
X139123Y122600D01*
X139044Y122554D01*
X138961Y122508D01*
X138957Y122504D01*
X138940Y122500D01*
X138915Y122487D01*
X138882Y122475D01*
X138840Y122454D01*
X138786Y122437D01*
X138728Y122416D01*
X138662Y122396D01*
X138591Y122375D01*
X138512Y122354D01*
X138428Y122333D01*
X138337Y122317D01*
X138245Y122304D01*
X138146Y122292D01*
X138042Y122288D01*
X137938Y122283D01*
X137892D01*
X137859Y122288D01*
X137817D01*
X137767Y122292D01*
X137713Y122296D01*
X137655Y122300D01*
X137588Y122308D01*
X137522Y122321D01*
X137376Y122346D01*
X137231Y122379D01*
X137085Y122429D01*
X137081D01*
X137068Y122437D01*
X137047Y122446D01*
X137022Y122458D01*
X136989Y122471D01*
X136952Y122491D01*
X136906Y122512D01*
X136860Y122537D01*
X136756Y122600D01*
X136648Y122675D01*
X136536Y122762D01*
X136428Y122866D01*
X136423Y122862D01*
X136415Y122849D01*
X136403Y122833D01*
X136386Y122803D01*
X136369Y122774D01*
X136344Y122737D01*
X136319Y122695D01*
X136290Y122650D01*
X136232Y122550D01*
X136174Y122437D01*
X136116Y122321D01*
X136070Y122208D01*
X135720Y122362D01*
Y122367D01*
X135729Y122379D01*
X135737Y122404D01*
X135749Y122433D01*
X135766Y122471D01*
X135783Y122516D01*
X135808Y122566D01*
X135837Y122620D01*
X135866Y122679D01*
X135899Y122745D01*
X135978Y122882D01*
X136074Y123032D01*
X136186Y123186D01*
X136182Y123190D01*
X136178Y123207D01*
X136165Y123228D01*
X136149Y123261D01*
X136132Y123303D01*
X136111Y123348D01*
X136091Y123402D01*
X136070Y123465D01*
X136049Y123531D01*
X136028Y123606D01*
X136007Y123681D01*
X135991Y123764D01*
X135962Y123943D01*
X135958Y124035D01*
X135953Y124130D01*
Y124135D01*
Y124155D01*
Y124180D01*
X135958Y124218D01*
X135962Y124264D01*
X135966Y124318D01*
X135974Y124376D01*
X135987Y124443D01*
X135999Y124513D01*
X136016Y124588D01*
X136037Y124667D01*
X136057Y124746D01*
X136086Y124829D01*
X136120Y124913D01*
X136157Y124996D01*
X136203Y125075D01*
X136207Y125079D01*
X136215Y125091D01*
X136228Y125116D01*
X136249Y125145D01*
X136274Y125179D01*
X136307Y125220D01*
X136344Y125266D01*
X136386Y125316D01*
X136432Y125366D01*
X136486Y125420D01*
X136544Y125474D01*
X136607Y125528D01*
X136673Y125582D01*
X136744Y125632D01*
X136823Y125682D01*
X136906Y125728D01*
X136910Y125732D01*
X136927Y125736D01*
X136952Y125749D01*
X136985Y125765D01*
X137031Y125782D01*
X137081Y125799D01*
X137139Y125819D01*
X137206Y125840D01*
X137280Y125865D01*
X137359Y125886D01*
X137443Y125903D01*
X137534Y125919D01*
X137626Y125936D01*
X137725Y125948D01*
X137829Y125952D01*
X137934Y125957D01*
X137988D01*
X138029Y125952D01*
D02*
G37*
G36*
X138021Y121784D02*
X138079D01*
X138146Y121780D01*
X138221Y121776D01*
X138300Y121772D01*
X138387Y121763D01*
X138474Y121755D01*
X138657Y121730D01*
X138836Y121697D01*
X138924Y121676D01*
X139003Y121651D01*
X139007D01*
X139019Y121643D01*
X139044Y121634D01*
X139073Y121626D01*
X139107Y121609D01*
X139148Y121593D01*
X139190Y121572D01*
X139240Y121547D01*
X139344Y121489D01*
X139448Y121414D01*
X139552Y121331D01*
X139597Y121285D01*
X139643Y121235D01*
X139647Y121231D01*
X139652Y121223D01*
X139664Y121206D01*
X139676Y121185D01*
X139697Y121160D01*
X139714Y121127D01*
X139735Y121089D01*
X139756Y121044D01*
X139776Y120998D01*
X139797Y120944D01*
X139818Y120886D01*
X139835Y120827D01*
X139847Y120761D01*
X139860Y120690D01*
X139864Y120615D01*
X139868Y120540D01*
Y120536D01*
Y120528D01*
Y120511D01*
Y120491D01*
X139864Y120461D01*
X139860Y120432D01*
X139851Y120357D01*
X139839Y120274D01*
X139814Y120183D01*
X139785Y120091D01*
X139743Y120000D01*
Y119995D01*
X139739Y119987D01*
X139731Y119975D01*
X139718Y119958D01*
X139693Y119916D01*
X139652Y119862D01*
X139602Y119800D01*
X139539Y119738D01*
X139464Y119671D01*
X139381Y119613D01*
X139377D01*
X139369Y119604D01*
X139356Y119600D01*
X139340Y119588D01*
X139319Y119575D01*
X139290Y119559D01*
X139256Y119546D01*
X139223Y119525D01*
X139140Y119488D01*
X139044Y119450D01*
X138932Y119409D01*
X138811Y119376D01*
X138807D01*
X138795Y119371D01*
X138778Y119367D01*
X138749Y119363D01*
X138716Y119355D01*
X138674Y119346D01*
X138628Y119338D01*
X138574Y119330D01*
X138512Y119326D01*
X138445Y119317D01*
X138370Y119309D01*
X138291Y119301D01*
X138204Y119297D01*
X138112Y119292D01*
X138013Y119288D01*
X137796D01*
X137738Y119292D01*
X137676Y119297D01*
X137601Y119301D01*
X137522Y119305D01*
X137434Y119313D01*
X137347Y119322D01*
X137164Y119346D01*
X136985Y119384D01*
X136898Y119405D01*
X136819Y119430D01*
X136814D01*
X136802Y119438D01*
X136777Y119442D01*
X136752Y119455D01*
X136715Y119471D01*
X136677Y119488D01*
X136631Y119509D01*
X136582Y119534D01*
X136477Y119592D01*
X136373Y119663D01*
X136269Y119746D01*
X136224Y119796D01*
X136178Y119846D01*
X136174Y119850D01*
X136170Y119858D01*
X136157Y119875D01*
X136145Y119896D01*
X136128Y119921D01*
X136107Y119954D01*
X136086Y119991D01*
X136066Y120037D01*
X136045Y120083D01*
X136024Y120137D01*
X136007Y120191D01*
X135987Y120253D01*
X135974Y120320D01*
X135962Y120391D01*
X135958Y120461D01*
X135953Y120540D01*
Y120545D01*
Y120565D01*
X135958Y120595D01*
X135962Y120632D01*
X135966Y120678D01*
X135974Y120732D01*
X135987Y120790D01*
X136003Y120856D01*
X136024Y120923D01*
X136049Y120994D01*
X136082Y121069D01*
X136120Y121139D01*
X136165Y121210D01*
X136220Y121281D01*
X136278Y121347D01*
X136349Y121410D01*
X136353Y121414D01*
X136369Y121426D01*
X136398Y121443D01*
X136440Y121468D01*
X136494Y121497D01*
X136556Y121530D01*
X136636Y121564D01*
X136723Y121597D01*
X136827Y121634D01*
X136939Y121668D01*
X137068Y121701D01*
X137210Y121730D01*
X137364Y121755D01*
X137530Y121772D01*
X137713Y121784D01*
X137908Y121788D01*
X137975D01*
X138021Y121784D01*
D02*
G37*
G36*
X50434Y72746D02*
X50463Y72742D01*
X50538Y72733D01*
X50621Y72721D01*
X50713Y72696D01*
X50804Y72667D01*
X50896Y72625D01*
X50900D01*
X50908Y72621D01*
X50921Y72613D01*
X50937Y72600D01*
X50979Y72575D01*
X51033Y72534D01*
X51095Y72484D01*
X51158Y72421D01*
X51224Y72346D01*
X51283Y72263D01*
Y72259D01*
X51291Y72251D01*
X51295Y72238D01*
X51308Y72221D01*
X51320Y72201D01*
X51337Y72172D01*
X51349Y72138D01*
X51370Y72105D01*
X51407Y72022D01*
X51445Y71926D01*
X51486Y71814D01*
X51520Y71693D01*
Y71689D01*
X51524Y71676D01*
X51528Y71660D01*
X51532Y71631D01*
X51540Y71597D01*
X51549Y71556D01*
X51557Y71510D01*
X51565Y71456D01*
X51570Y71394D01*
X51578Y71327D01*
X51586Y71252D01*
X51595Y71173D01*
X51599Y71086D01*
X51603Y70994D01*
X51607Y70894D01*
Y70790D01*
Y70782D01*
Y70761D01*
Y70724D01*
Y70678D01*
X51603Y70620D01*
X51599Y70557D01*
X51595Y70483D01*
X51591Y70404D01*
X51582Y70316D01*
X51574Y70229D01*
X51549Y70046D01*
X51511Y69867D01*
X51491Y69780D01*
X51466Y69700D01*
Y69696D01*
X51457Y69684D01*
X51453Y69659D01*
X51441Y69634D01*
X51424Y69596D01*
X51407Y69559D01*
X51387Y69513D01*
X51362Y69463D01*
X51303Y69359D01*
X51233Y69255D01*
X51149Y69151D01*
X51100Y69106D01*
X51050Y69060D01*
X51046Y69056D01*
X51037Y69052D01*
X51020Y69039D01*
X51000Y69027D01*
X50975Y69010D01*
X50941Y68989D01*
X50904Y68968D01*
X50858Y68948D01*
X50813Y68927D01*
X50758Y68906D01*
X50704Y68889D01*
X50642Y68868D01*
X50575Y68856D01*
X50505Y68844D01*
X50434Y68839D01*
X50355Y68835D01*
X50330D01*
X50301Y68839D01*
X50263Y68844D01*
X50218Y68848D01*
X50164Y68856D01*
X50105Y68868D01*
X50039Y68885D01*
X49972Y68906D01*
X49902Y68931D01*
X49827Y68964D01*
X49756Y69002D01*
X49685Y69047D01*
X49615Y69102D01*
X49548Y69160D01*
X49485Y69230D01*
X49481Y69235D01*
X49469Y69251D01*
X49452Y69280D01*
X49427Y69322D01*
X49398Y69376D01*
X49365Y69438D01*
X49332Y69517D01*
X49298Y69605D01*
X49261Y69709D01*
X49228Y69821D01*
X49194Y69950D01*
X49165Y70092D01*
X49140Y70245D01*
X49124Y70412D01*
X49111Y70595D01*
X49107Y70790D01*
Y70799D01*
Y70820D01*
Y70857D01*
X49111Y70903D01*
Y70961D01*
X49115Y71028D01*
X49119Y71102D01*
X49124Y71181D01*
X49132Y71269D01*
X49140Y71356D01*
X49165Y71539D01*
X49198Y71718D01*
X49219Y71806D01*
X49244Y71885D01*
Y71889D01*
X49253Y71901D01*
X49261Y71926D01*
X49269Y71955D01*
X49286Y71988D01*
X49303Y72030D01*
X49323Y72072D01*
X49348Y72122D01*
X49406Y72226D01*
X49481Y72330D01*
X49565Y72434D01*
X49610Y72479D01*
X49660Y72525D01*
X49664Y72529D01*
X49673Y72534D01*
X49689Y72546D01*
X49710Y72558D01*
X49735Y72579D01*
X49768Y72596D01*
X49806Y72617D01*
X49852Y72637D01*
X49897Y72658D01*
X49951Y72679D01*
X50010Y72700D01*
X50068Y72716D01*
X50134Y72729D01*
X50205Y72742D01*
X50280Y72746D01*
X50355Y72750D01*
X50405D01*
X50434Y72746D01*
D02*
G37*
G36*
X153515Y3937D02*
X152991D01*
X151502Y7777D01*
X152055D01*
X153053Y4985D01*
Y4981D01*
X153057Y4969D01*
X153066Y4952D01*
X153074Y4927D01*
X153082Y4898D01*
X153095Y4865D01*
X153107Y4827D01*
X153124Y4781D01*
X153153Y4686D01*
X153186Y4582D01*
X153220Y4470D01*
X153253Y4357D01*
Y4361D01*
X153257Y4370D01*
X153261Y4390D01*
X153270Y4411D01*
X153278Y4440D01*
X153286Y4474D01*
X153299Y4511D01*
X153311Y4553D01*
X153340Y4648D01*
X153378Y4756D01*
X153419Y4869D01*
X153461Y4985D01*
X154497Y7777D01*
X155013D01*
X153515Y3937D01*
D02*
G37*
%LPC*%
G36*
X150233Y7020D02*
X149022Y5289D01*
X150233D01*
Y7020D01*
D02*
G37*
G36*
X137934Y125433D02*
X137900D01*
X137863Y125428D01*
X137809D01*
X137746Y125420D01*
X137676Y125412D01*
X137597Y125403D01*
X137509Y125387D01*
X137418Y125366D01*
X137326Y125341D01*
X137231Y125312D01*
X137135Y125275D01*
X137039Y125233D01*
X136948Y125183D01*
X136864Y125129D01*
X136785Y125062D01*
X136781Y125058D01*
X136769Y125046D01*
X136748Y125025D01*
X136723Y124996D01*
X136694Y124958D01*
X136661Y124917D01*
X136623Y124863D01*
X136586Y124804D01*
X136548Y124742D01*
X136511Y124667D01*
X136477Y124592D01*
X136448Y124509D01*
X136423Y124417D01*
X136403Y124322D01*
X136390Y124222D01*
X136386Y124118D01*
Y124114D01*
Y124106D01*
Y124089D01*
Y124072D01*
X136390Y124047D01*
Y124018D01*
X136398Y123952D01*
X136411Y123872D01*
X136428Y123785D01*
X136452Y123694D01*
X136486Y123602D01*
Y123606D01*
X136494Y123615D01*
X136503Y123627D01*
X136511Y123644D01*
X136523Y123664D01*
X136540Y123694D01*
X136573Y123756D01*
X136607Y123831D01*
X136644Y123914D01*
X136677Y124010D01*
X136706Y124106D01*
X137076Y123985D01*
Y123981D01*
X137072Y123964D01*
X137064Y123943D01*
X137052Y123910D01*
X137039Y123872D01*
X137022Y123831D01*
X137006Y123781D01*
X136985Y123727D01*
X136931Y123615D01*
X136869Y123490D01*
X136794Y123369D01*
X136711Y123257D01*
X136715Y123253D01*
X136731Y123236D01*
X136752Y123215D01*
X136785Y123186D01*
X136831Y123153D01*
X136881Y123115D01*
X136943Y123074D01*
X137018Y123032D01*
X137097Y122991D01*
X137189Y122949D01*
X137289Y122912D01*
X137401Y122878D01*
X137522Y122849D01*
X137651Y122828D01*
X137788Y122812D01*
X137938Y122808D01*
X137983D01*
X138017Y122812D01*
X138058D01*
X138104Y122816D01*
X138158Y122820D01*
X138212Y122828D01*
X138341Y122845D01*
X138479Y122874D01*
X138616Y122916D01*
X138749Y122970D01*
X138753D01*
X138766Y122978D01*
X138782Y122986D01*
X138807Y122999D01*
X138836Y123016D01*
X138870Y123036D01*
X138949Y123086D01*
X139036Y123153D01*
X139123Y123232D01*
X139211Y123323D01*
X139290Y123432D01*
X139294Y123436D01*
X139298Y123444D01*
X139306Y123461D01*
X139319Y123486D01*
X139335Y123515D01*
X139352Y123548D01*
X139369Y123585D01*
X139390Y123631D01*
X139406Y123681D01*
X139423Y123731D01*
X139456Y123848D01*
X139477Y123977D01*
X139485Y124047D01*
Y124118D01*
Y124126D01*
Y124143D01*
X139481Y124172D01*
Y124214D01*
X139473Y124259D01*
X139464Y124318D01*
X139452Y124380D01*
X139435Y124447D01*
X139415Y124522D01*
X139390Y124596D01*
X139356Y124675D01*
X139319Y124754D01*
X139277Y124834D01*
X139223Y124908D01*
X139165Y124987D01*
X139094Y125058D01*
X139090Y125062D01*
X139077Y125075D01*
X139052Y125091D01*
X139023Y125116D01*
X138982Y125145D01*
X138932Y125175D01*
X138874Y125212D01*
X138803Y125245D01*
X138728Y125279D01*
X138641Y125312D01*
X138545Y125345D01*
X138441Y125374D01*
X138329Y125399D01*
X138204Y125416D01*
X138075Y125428D01*
X137934Y125433D01*
D02*
G37*
G36*
X147131Y28266D02*
X145837D01*
Y26997D01*
X146986D01*
X147015Y27001D01*
X147048D01*
X147127Y27005D01*
X147214Y27014D01*
X147306Y27026D01*
X147393Y27043D01*
X147472Y27068D01*
X147476D01*
X147481Y27072D01*
X147506Y27080D01*
X147539Y27097D01*
X147585Y27122D01*
X147630Y27155D01*
X147680Y27193D01*
X147730Y27242D01*
X147772Y27297D01*
X147776Y27305D01*
X147789Y27326D01*
X147805Y27355D01*
X147826Y27400D01*
X147843Y27450D01*
X147859Y27509D01*
X147872Y27575D01*
X147876Y27642D01*
Y27646D01*
Y27654D01*
Y27667D01*
X147872Y27687D01*
Y27708D01*
X147868Y27737D01*
X147851Y27800D01*
X147826Y27871D01*
X147793Y27945D01*
X147743Y28016D01*
X147709Y28054D01*
X147676Y28087D01*
X147672Y28091D01*
X147668Y28095D01*
X147655Y28104D01*
X147639Y28116D01*
X147618Y28128D01*
X147589Y28145D01*
X147560Y28162D01*
X147522Y28178D01*
X147481Y28195D01*
X147435Y28207D01*
X147385Y28224D01*
X147331Y28237D01*
X147268Y28249D01*
X147202Y28257D01*
X147131Y28266D01*
D02*
G37*
G36*
X75978Y118152D02*
X74685D01*
Y116883D01*
X75833D01*
X75862Y116887D01*
X75895D01*
X75974Y116891D01*
X76062Y116899D01*
X76153Y116912D01*
X76240Y116929D01*
X76320Y116954D01*
X76324D01*
X76328Y116958D01*
X76353Y116966D01*
X76386Y116983D01*
X76432Y117008D01*
X76478Y117041D01*
X76528Y117078D01*
X76578Y117128D01*
X76619Y117182D01*
X76623Y117191D01*
X76636Y117211D01*
X76652Y117241D01*
X76673Y117286D01*
X76690Y117336D01*
X76706Y117394D01*
X76719Y117461D01*
X76723Y117528D01*
Y117532D01*
Y117540D01*
Y117552D01*
X76719Y117573D01*
Y117594D01*
X76715Y117623D01*
X76698Y117686D01*
X76673Y117756D01*
X76640Y117831D01*
X76590Y117902D01*
X76557Y117939D01*
X76523Y117973D01*
X76519Y117977D01*
X76515Y117981D01*
X76503Y117989D01*
X76486Y118002D01*
X76465Y118014D01*
X76436Y118031D01*
X76407Y118048D01*
X76370Y118064D01*
X76328Y118081D01*
X76282Y118093D01*
X76232Y118110D01*
X76178Y118122D01*
X76116Y118135D01*
X76049Y118143D01*
X75978Y118152D01*
D02*
G37*
G36*
X150517Y27933D02*
X149307Y26202D01*
X150517D01*
Y27933D01*
D02*
G37*
G36*
X157423Y29137D02*
X156537D01*
Y26204D01*
X157419D01*
X157453Y26208D01*
X157490D01*
X157573Y26212D01*
X157669Y26221D01*
X157769Y26233D01*
X157864Y26250D01*
X157952Y26270D01*
X157956D01*
X157960Y26274D01*
X157973Y26279D01*
X157989Y26283D01*
X158027Y26300D01*
X158077Y26320D01*
X158131Y26349D01*
X158189Y26383D01*
X158247Y26424D01*
X158297Y26470D01*
X158301Y26474D01*
X158305Y26478D01*
X158326Y26503D01*
X158360Y26545D01*
X158401Y26599D01*
X158443Y26670D01*
X158489Y26753D01*
X158534Y26849D01*
X158576Y26957D01*
Y26961D01*
X158580Y26969D01*
X158584Y26986D01*
X158592Y27011D01*
X158601Y27040D01*
X158609Y27077D01*
X158617Y27119D01*
X158630Y27165D01*
X158638Y27215D01*
X158647Y27273D01*
X158655Y27331D01*
X158663Y27398D01*
X158676Y27539D01*
X158680Y27697D01*
Y27706D01*
Y27722D01*
Y27755D01*
X158676Y27797D01*
Y27847D01*
X158671Y27905D01*
X158663Y27968D01*
X158655Y28038D01*
X158630Y28188D01*
X158597Y28342D01*
X158547Y28488D01*
X158513Y28558D01*
X158480Y28621D01*
X158476Y28625D01*
X158472Y28633D01*
X158459Y28650D01*
X158443Y28675D01*
X158426Y28700D01*
X158401Y28729D01*
X158347Y28795D01*
X158276Y28870D01*
X158193Y28941D01*
X158102Y29008D01*
X158052Y29033D01*
X157998Y29058D01*
X157993D01*
X157989Y29062D01*
X157977Y29066D01*
X157960Y29070D01*
X157935Y29074D01*
X157910Y29083D01*
X157877Y29091D01*
X157840Y29099D01*
X157798Y29103D01*
X157748Y29112D01*
X157694Y29120D01*
X157636Y29124D01*
X157569Y29128D01*
X157498Y29133D01*
X157423Y29137D01*
D02*
G37*
G36*
X66762Y76250D02*
X65468D01*
Y74981D01*
X66616D01*
X66645Y74985D01*
X66679D01*
X66758Y74989D01*
X66845Y74998D01*
X66937Y75010D01*
X67024Y75027D01*
X67103Y75052D01*
X67107D01*
X67111Y75056D01*
X67136Y75064D01*
X67170Y75081D01*
X67215Y75106D01*
X67261Y75139D01*
X67311Y75177D01*
X67361Y75227D01*
X67402Y75281D01*
X67407Y75289D01*
X67419Y75310D01*
X67436Y75339D01*
X67457Y75385D01*
X67473Y75435D01*
X67490Y75493D01*
X67502Y75560D01*
X67507Y75626D01*
Y75630D01*
Y75639D01*
Y75651D01*
X67502Y75672D01*
Y75693D01*
X67498Y75722D01*
X67482Y75784D01*
X67457Y75855D01*
X67423Y75930D01*
X67373Y76000D01*
X67340Y76038D01*
X67307Y76071D01*
X67303Y76075D01*
X67299Y76079D01*
X67286Y76088D01*
X67269Y76100D01*
X67249Y76113D01*
X67220Y76129D01*
X67190Y76146D01*
X67153Y76163D01*
X67111Y76179D01*
X67066Y76192D01*
X67016Y76208D01*
X66962Y76221D01*
X66899Y76233D01*
X66833Y76242D01*
X66762Y76250D01*
D02*
G37*
G36*
X160959Y29212D02*
X160930D01*
X160905Y29207D01*
X160880Y29203D01*
X160847Y29199D01*
X160772Y29178D01*
X160689Y29145D01*
X160647Y29124D01*
X160602Y29095D01*
X160560Y29066D01*
X160519Y29028D01*
X160477Y28987D01*
X160440Y28937D01*
X160435Y28933D01*
X160431Y28920D01*
X160419Y28899D01*
X160402Y28866D01*
X160385Y28825D01*
X160365Y28775D01*
X160340Y28716D01*
X160319Y28642D01*
X160298Y28558D01*
X160273Y28467D01*
X160252Y28359D01*
X160236Y28242D01*
X160219Y28113D01*
X160211Y27968D01*
X160202Y27814D01*
X160198Y27643D01*
Y27639D01*
Y27631D01*
Y27618D01*
Y27602D01*
Y27581D01*
Y27552D01*
X160202Y27489D01*
X160207Y27414D01*
X160211Y27327D01*
X160215Y27231D01*
X160227Y27132D01*
X160252Y26919D01*
X160269Y26815D01*
X160290Y26711D01*
X160315Y26616D01*
X160348Y26528D01*
X160381Y26449D01*
X160419Y26383D01*
X160423Y26379D01*
X160427Y26370D01*
X160440Y26354D01*
X160460Y26333D01*
X160481Y26312D01*
X160506Y26287D01*
X160568Y26229D01*
X160647Y26171D01*
X160743Y26125D01*
X160793Y26104D01*
X160847Y26087D01*
X160905Y26079D01*
X160964Y26075D01*
X160976D01*
X160997Y26079D01*
X161018D01*
X161047Y26083D01*
X161080Y26092D01*
X161155Y26112D01*
X161197Y26129D01*
X161238Y26150D01*
X161284Y26175D01*
X161330Y26208D01*
X161375Y26241D01*
X161421Y26283D01*
X161467Y26333D01*
X161509Y26387D01*
X161513Y26391D01*
X161517Y26403D01*
X161529Y26420D01*
X161542Y26449D01*
X161563Y26487D01*
X161579Y26537D01*
X161600Y26595D01*
X161621Y26661D01*
X161642Y26741D01*
X161663Y26832D01*
X161683Y26932D01*
X161700Y27048D01*
X161713Y27177D01*
X161725Y27319D01*
X161729Y27473D01*
X161733Y27643D01*
Y27647D01*
Y27656D01*
Y27668D01*
Y27685D01*
Y27706D01*
Y27731D01*
X161729Y27797D01*
X161725Y27872D01*
X161721Y27959D01*
X161717Y28055D01*
X161704Y28155D01*
X161679Y28367D01*
X161658Y28471D01*
X161638Y28571D01*
X161613Y28667D01*
X161583Y28758D01*
X161550Y28833D01*
X161509Y28899D01*
X161504Y28904D01*
X161500Y28912D01*
X161488Y28929D01*
X161471Y28949D01*
X161446Y28970D01*
X161421Y28999D01*
X161392Y29028D01*
X161359Y29058D01*
X161280Y29112D01*
X161184Y29162D01*
X161134Y29182D01*
X161076Y29199D01*
X161022Y29207D01*
X160959Y29212D01*
D02*
G37*
G36*
X70807Y97958D02*
X70711D01*
X70682Y97953D01*
X70641D01*
X70595Y97945D01*
X70537Y97937D01*
X70474Y97924D01*
X70408Y97908D01*
X70333Y97887D01*
X70258Y97862D01*
X70179Y97829D01*
X70100Y97791D01*
X70021Y97750D01*
X69946Y97696D01*
X69867Y97637D01*
X69796Y97567D01*
X69792Y97562D01*
X69780Y97550D01*
X69763Y97525D01*
X69738Y97496D01*
X69709Y97454D01*
X69680Y97404D01*
X69642Y97346D01*
X69609Y97275D01*
X69576Y97201D01*
X69542Y97113D01*
X69509Y97018D01*
X69480Y96913D01*
X69455Y96801D01*
X69438Y96676D01*
X69426Y96547D01*
X69422Y96406D01*
Y96398D01*
Y96373D01*
X69426Y96335D01*
Y96281D01*
X69434Y96219D01*
X69443Y96148D01*
X69451Y96069D01*
X69468Y95982D01*
X69488Y95890D01*
X69513Y95799D01*
X69542Y95703D01*
X69580Y95607D01*
X69621Y95512D01*
X69671Y95420D01*
X69726Y95337D01*
X69792Y95258D01*
X69796Y95254D01*
X69809Y95241D01*
X69829Y95220D01*
X69859Y95195D01*
X69896Y95166D01*
X69938Y95133D01*
X69992Y95096D01*
X70050Y95058D01*
X70112Y95021D01*
X70187Y94983D01*
X70262Y94950D01*
X70345Y94921D01*
X70437Y94896D01*
X70533Y94875D01*
X70632Y94863D01*
X70736Y94858D01*
X70782D01*
X70807Y94863D01*
X70836D01*
X70903Y94871D01*
X70982Y94883D01*
X71069Y94900D01*
X71161Y94925D01*
X71252Y94958D01*
X71248D01*
X71240Y94967D01*
X71227Y94975D01*
X71211Y94983D01*
X71190Y94996D01*
X71161Y95012D01*
X71098Y95046D01*
X71023Y95079D01*
X70940Y95116D01*
X70845Y95150D01*
X70749Y95179D01*
X70869Y95549D01*
X70874D01*
X70890Y95545D01*
X70911Y95537D01*
X70944Y95524D01*
X70982Y95512D01*
X71023Y95495D01*
X71073Y95478D01*
X71127Y95458D01*
X71240Y95403D01*
X71364Y95341D01*
X71485Y95266D01*
X71597Y95183D01*
X71602Y95187D01*
X71618Y95204D01*
X71639Y95224D01*
X71668Y95258D01*
X71702Y95303D01*
X71739Y95354D01*
X71781Y95416D01*
X71822Y95491D01*
X71864Y95570D01*
X71905Y95661D01*
X71943Y95761D01*
X71976Y95873D01*
X72005Y95994D01*
X72026Y96123D01*
X72043Y96260D01*
X72047Y96410D01*
Y96414D01*
Y96431D01*
Y96456D01*
X72043Y96489D01*
Y96531D01*
X72038Y96576D01*
X72034Y96631D01*
X72026Y96685D01*
X72009Y96814D01*
X71980Y96951D01*
X71939Y97088D01*
X71885Y97221D01*
Y97225D01*
X71876Y97238D01*
X71868Y97255D01*
X71855Y97280D01*
X71839Y97309D01*
X71818Y97342D01*
X71768Y97421D01*
X71702Y97508D01*
X71622Y97596D01*
X71531Y97683D01*
X71423Y97762D01*
X71419Y97766D01*
X71410Y97770D01*
X71394Y97779D01*
X71369Y97791D01*
X71340Y97808D01*
X71306Y97825D01*
X71269Y97841D01*
X71223Y97862D01*
X71173Y97879D01*
X71123Y97895D01*
X71007Y97929D01*
X70878Y97949D01*
X70807Y97958D01*
D02*
G37*
G36*
X69882Y76296D02*
X69853D01*
X69828Y76292D01*
X69803Y76288D01*
X69770Y76283D01*
X69695Y76262D01*
X69612Y76229D01*
X69570Y76208D01*
X69524Y76179D01*
X69483Y76150D01*
X69441Y76113D01*
X69399Y76071D01*
X69362Y76021D01*
X69358Y76017D01*
X69354Y76005D01*
X69341Y75984D01*
X69324Y75950D01*
X69308Y75909D01*
X69287Y75859D01*
X69262Y75801D01*
X69241Y75726D01*
X69221Y75643D01*
X69195Y75551D01*
X69175Y75443D01*
X69158Y75327D01*
X69141Y75197D01*
X69133Y75052D01*
X69125Y74898D01*
X69121Y74727D01*
Y74723D01*
Y74715D01*
Y74703D01*
Y74686D01*
Y74665D01*
Y74636D01*
X69125Y74573D01*
X69129Y74499D01*
X69133Y74411D01*
X69137Y74316D01*
X69150Y74216D01*
X69175Y74004D01*
X69191Y73900D01*
X69212Y73796D01*
X69237Y73700D01*
X69270Y73613D01*
X69304Y73533D01*
X69341Y73467D01*
X69345Y73463D01*
X69349Y73454D01*
X69362Y73438D01*
X69383Y73417D01*
X69403Y73396D01*
X69428Y73371D01*
X69491Y73313D01*
X69570Y73255D01*
X69666Y73209D01*
X69715Y73188D01*
X69770Y73172D01*
X69828Y73163D01*
X69886Y73159D01*
X69899D01*
X69919Y73163D01*
X69940D01*
X69969Y73167D01*
X70003Y73176D01*
X70077Y73197D01*
X70119Y73213D01*
X70161Y73234D01*
X70206Y73259D01*
X70252Y73292D01*
X70298Y73326D01*
X70344Y73367D01*
X70389Y73417D01*
X70431Y73471D01*
X70435Y73475D01*
X70439Y73488D01*
X70452Y73504D01*
X70464Y73533D01*
X70485Y73571D01*
X70502Y73621D01*
X70523Y73679D01*
X70543Y73746D01*
X70564Y73825D01*
X70585Y73916D01*
X70606Y74016D01*
X70622Y74133D01*
X70635Y74261D01*
X70647Y74403D01*
X70652Y74557D01*
X70656Y74727D01*
Y74732D01*
Y74740D01*
Y74752D01*
Y74769D01*
Y74790D01*
Y74815D01*
X70652Y74881D01*
X70647Y74956D01*
X70643Y75044D01*
X70639Y75139D01*
X70626Y75239D01*
X70602Y75451D01*
X70581Y75555D01*
X70560Y75655D01*
X70535Y75751D01*
X70506Y75842D01*
X70473Y75917D01*
X70431Y75984D01*
X70427Y75988D01*
X70423Y75996D01*
X70410Y76013D01*
X70394Y76034D01*
X70369Y76055D01*
X70344Y76084D01*
X70315Y76113D01*
X70281Y76142D01*
X70202Y76196D01*
X70107Y76246D01*
X70057Y76267D01*
X69998Y76283D01*
X69944Y76292D01*
X69882Y76296D01*
D02*
G37*
G36*
X137908Y121306D02*
X137817D01*
X137755Y121302D01*
X137680Y121298D01*
X137592Y121293D01*
X137497Y121289D01*
X137397Y121277D01*
X137185Y121252D01*
X137081Y121235D01*
X136977Y121214D01*
X136881Y121189D01*
X136794Y121156D01*
X136715Y121123D01*
X136648Y121085D01*
X136644Y121081D01*
X136636Y121077D01*
X136619Y121064D01*
X136598Y121044D01*
X136577Y121023D01*
X136552Y120998D01*
X136494Y120936D01*
X136436Y120856D01*
X136390Y120761D01*
X136369Y120711D01*
X136353Y120657D01*
X136344Y120599D01*
X136340Y120540D01*
Y120536D01*
Y120528D01*
X136344Y120507D01*
Y120486D01*
X136349Y120457D01*
X136357Y120424D01*
X136378Y120349D01*
X136394Y120307D01*
X136415Y120266D01*
X136440Y120220D01*
X136473Y120174D01*
X136507Y120129D01*
X136548Y120083D01*
X136598Y120037D01*
X136652Y119995D01*
X136656Y119991D01*
X136669Y119987D01*
X136686Y119975D01*
X136715Y119962D01*
X136752Y119941D01*
X136802Y119925D01*
X136860Y119904D01*
X136927Y119883D01*
X137006Y119862D01*
X137097Y119842D01*
X137197Y119821D01*
X137314Y119804D01*
X137443Y119792D01*
X137584Y119779D01*
X137738Y119775D01*
X137908Y119771D01*
X137996D01*
X138063Y119775D01*
X138137Y119779D01*
X138225Y119783D01*
X138320Y119787D01*
X138420Y119800D01*
X138632Y119825D01*
X138736Y119846D01*
X138836Y119867D01*
X138932Y119891D01*
X139023Y119921D01*
X139098Y119954D01*
X139165Y119995D01*
X139169Y120000D01*
X139177Y120004D01*
X139194Y120016D01*
X139215Y120033D01*
X139236Y120058D01*
X139265Y120083D01*
X139294Y120112D01*
X139323Y120145D01*
X139377Y120224D01*
X139427Y120320D01*
X139448Y120370D01*
X139464Y120428D01*
X139473Y120482D01*
X139477Y120545D01*
Y120549D01*
Y120557D01*
Y120574D01*
X139473Y120599D01*
X139469Y120624D01*
X139464Y120657D01*
X139444Y120732D01*
X139410Y120815D01*
X139390Y120856D01*
X139360Y120902D01*
X139331Y120944D01*
X139294Y120985D01*
X139252Y121027D01*
X139202Y121064D01*
X139198Y121069D01*
X139186Y121073D01*
X139165Y121085D01*
X139132Y121102D01*
X139090Y121119D01*
X139040Y121139D01*
X138982Y121164D01*
X138907Y121185D01*
X138824Y121206D01*
X138732Y121231D01*
X138624Y121252D01*
X138508Y121268D01*
X138379Y121285D01*
X138233Y121293D01*
X138079Y121302D01*
X137908Y121306D01*
D02*
G37*
G36*
X58888Y76250D02*
X57594D01*
Y74981D01*
X58742D01*
X58771Y74985D01*
X58805D01*
X58884Y74989D01*
X58971Y74998D01*
X59063Y75010D01*
X59150Y75027D01*
X59229Y75052D01*
X59233D01*
X59237Y75056D01*
X59262Y75064D01*
X59296Y75081D01*
X59341Y75106D01*
X59387Y75139D01*
X59437Y75177D01*
X59487Y75227D01*
X59528Y75281D01*
X59533Y75289D01*
X59545Y75310D01*
X59562Y75339D01*
X59583Y75385D01*
X59599Y75435D01*
X59616Y75493D01*
X59628Y75560D01*
X59632Y75626D01*
Y75630D01*
Y75639D01*
Y75651D01*
X59628Y75672D01*
Y75693D01*
X59624Y75722D01*
X59608Y75784D01*
X59583Y75855D01*
X59549Y75930D01*
X59499Y76000D01*
X59466Y76038D01*
X59433Y76071D01*
X59429Y76075D01*
X59425Y76079D01*
X59412Y76088D01*
X59395Y76100D01*
X59375Y76113D01*
X59346Y76129D01*
X59316Y76146D01*
X59279Y76163D01*
X59237Y76179D01*
X59192Y76192D01*
X59142Y76208D01*
X59088Y76221D01*
X59025Y76233D01*
X58959Y76242D01*
X58888Y76250D01*
D02*
G37*
G36*
X50351Y72359D02*
X50322D01*
X50297Y72355D01*
X50272Y72350D01*
X50239Y72346D01*
X50164Y72325D01*
X50080Y72292D01*
X50039Y72271D01*
X49993Y72242D01*
X49951Y72213D01*
X49910Y72176D01*
X49868Y72134D01*
X49831Y72084D01*
X49827Y72080D01*
X49823Y72068D01*
X49810Y72047D01*
X49793Y72013D01*
X49777Y71972D01*
X49756Y71922D01*
X49731Y71864D01*
X49710Y71789D01*
X49689Y71706D01*
X49664Y71614D01*
X49644Y71506D01*
X49627Y71390D01*
X49610Y71260D01*
X49602Y71115D01*
X49594Y70961D01*
X49589Y70790D01*
Y70786D01*
Y70778D01*
Y70766D01*
Y70749D01*
Y70728D01*
Y70699D01*
X49594Y70636D01*
X49598Y70562D01*
X49602Y70474D01*
X49606Y70379D01*
X49619Y70279D01*
X49644Y70067D01*
X49660Y69963D01*
X49681Y69859D01*
X49706Y69763D01*
X49739Y69676D01*
X49773Y69596D01*
X49810Y69530D01*
X49814Y69526D01*
X49818Y69517D01*
X49831Y69501D01*
X49852Y69480D01*
X49872Y69459D01*
X49897Y69434D01*
X49960Y69376D01*
X50039Y69318D01*
X50134Y69272D01*
X50184Y69251D01*
X50239Y69235D01*
X50297Y69226D01*
X50355Y69222D01*
X50367D01*
X50388Y69226D01*
X50409D01*
X50438Y69230D01*
X50471Y69239D01*
X50546Y69260D01*
X50588Y69276D01*
X50630Y69297D01*
X50675Y69322D01*
X50721Y69355D01*
X50767Y69389D01*
X50813Y69430D01*
X50858Y69480D01*
X50900Y69534D01*
X50904Y69538D01*
X50908Y69551D01*
X50921Y69567D01*
X50933Y69596D01*
X50954Y69634D01*
X50971Y69684D01*
X50991Y69742D01*
X51012Y69809D01*
X51033Y69888D01*
X51054Y69979D01*
X51075Y70079D01*
X51091Y70196D01*
X51104Y70324D01*
X51116Y70466D01*
X51120Y70620D01*
X51125Y70790D01*
Y70795D01*
Y70803D01*
Y70815D01*
Y70832D01*
Y70853D01*
Y70878D01*
X51120Y70944D01*
X51116Y71019D01*
X51112Y71107D01*
X51108Y71202D01*
X51095Y71302D01*
X51070Y71514D01*
X51050Y71618D01*
X51029Y71718D01*
X51004Y71814D01*
X50975Y71905D01*
X50941Y71980D01*
X50900Y72047D01*
X50896Y72051D01*
X50892Y72059D01*
X50879Y72076D01*
X50862Y72097D01*
X50837Y72118D01*
X50813Y72147D01*
X50783Y72176D01*
X50750Y72205D01*
X50671Y72259D01*
X50575Y72309D01*
X50525Y72330D01*
X50467Y72346D01*
X50413Y72355D01*
X50351Y72359D01*
D02*
G37*
G36*
X74636Y76250D02*
X73342D01*
Y74981D01*
X74490D01*
X74519Y74985D01*
X74553D01*
X74632Y74989D01*
X74719Y74998D01*
X74811Y75010D01*
X74898Y75027D01*
X74977Y75052D01*
X74981D01*
X74985Y75056D01*
X75010Y75064D01*
X75044Y75081D01*
X75089Y75106D01*
X75135Y75139D01*
X75185Y75177D01*
X75235Y75227D01*
X75277Y75281D01*
X75281Y75289D01*
X75293Y75310D01*
X75310Y75339D01*
X75331Y75385D01*
X75347Y75435D01*
X75364Y75493D01*
X75376Y75560D01*
X75381Y75626D01*
Y75630D01*
Y75639D01*
Y75651D01*
X75376Y75672D01*
Y75693D01*
X75372Y75722D01*
X75356Y75784D01*
X75331Y75855D01*
X75297Y75930D01*
X75248Y76000D01*
X75214Y76038D01*
X75181Y76071D01*
X75177Y76075D01*
X75173Y76079D01*
X75160Y76088D01*
X75143Y76100D01*
X75123Y76113D01*
X75094Y76129D01*
X75064Y76146D01*
X75027Y76163D01*
X74985Y76179D01*
X74940Y76192D01*
X74890Y76208D01*
X74836Y76221D01*
X74773Y76233D01*
X74707Y76242D01*
X74636Y76250D01*
D02*
G37*
%LPD*%
D19*
X118110Y74803D02*
Y83858D01*
Y74803D02*
X118504Y74410D01*
X129921D01*
X118110Y109449D02*
Y118504D01*
X129528D01*
X137795Y40336D02*
G03*
X59126Y41785I-39365J-923D01*
G01*
X19685Y196850D02*
X177165D01*
X196850Y177165D01*
Y19685D02*
Y177165D01*
X177165Y-0D02*
X196850Y19685D01*
X137795Y-0D02*
X177165D01*
X137795D02*
Y40336D01*
X59126Y71D02*
Y41785D01*
X59055Y-0D02*
X59055Y-0D01*
X19685Y-0D02*
X59055D01*
X-0Y19685D02*
X19685Y-0D01*
X-0Y19685D02*
Y177165D01*
X19685Y196850D01*
Y196850D01*
D22*
X26083Y52658D02*
X55217D01*
Y30020D02*
Y52658D01*
X26083Y30020D02*
X55217D01*
X26083D02*
Y52658D01*
X47842Y150539D02*
X70480D01*
X47842Y101720D02*
Y150539D01*
X70480Y101720D02*
Y150539D01*
X47842Y101720D02*
X70480D01*
X61130Y124161D02*
Y128098D01*
X59161Y126130D02*
X63098D01*
X45776Y99752D02*
X72547D01*
Y152508D01*
X45776D02*
X72547D01*
X45776Y99752D02*
Y152508D01*
X24114Y27953D02*
X57185D01*
Y54724D01*
X24114D02*
X57185D01*
X24114Y27953D02*
Y54724D01*
X40650Y41339D02*
Y45276D01*
X38681Y43307D02*
X42618D01*
D23*
X157646Y17539D02*
X158630Y16161D01*
X157646Y17539D02*
X158630D01*
X157744Y16161D02*
X158630D01*
X159516D01*
X158630Y17539D02*
X159614D01*
X158630Y16161D02*
X159614Y17539D01*
X67028Y81201D02*
Y88090D01*
X70768Y81201D02*
Y88090D01*
X67028Y81201D02*
X70768D01*
X67028Y88090D02*
X70768D01*
X59153Y81201D02*
Y88090D01*
X62894Y81201D02*
Y88090D01*
X59153Y81201D02*
X62894D01*
X59153Y88090D02*
X62894D01*
X47638Y89370D02*
X54724D01*
X47638Y75984D02*
X54724D01*
Y89370D01*
X47638Y75984D02*
Y89370D01*
X79232Y108366D02*
X86122D01*
X79232Y112106D02*
X86122D01*
Y108366D02*
Y112106D01*
X79232Y108366D02*
Y112106D01*
X156760Y13406D02*
Y20295D01*
X160500Y13406D02*
Y20295D01*
X156760Y13406D02*
X160500D01*
X156760Y20295D02*
X160500D01*
X149500Y13905D02*
Y20795D01*
X145760Y13905D02*
Y20795D01*
X149500D01*
X145760Y13905D02*
X149500D01*
X78642Y81201D02*
Y88090D01*
X74902Y81201D02*
Y88090D01*
X78642D01*
X74902Y81201D02*
X78642D01*
X67028Y84646D02*
X70768D01*
X68898Y82776D02*
Y86516D01*
X59153Y84646D02*
X62894D01*
X61024Y82776D02*
Y86516D01*
X51181Y80709D02*
Y84646D01*
X49213Y82677D02*
X53150D01*
X82677Y108366D02*
Y112106D01*
X80807Y110236D02*
X84547D01*
X156760Y16850D02*
X160500D01*
X158630Y14980D02*
Y18721D01*
X145760Y17350D02*
X149500D01*
X147630Y15480D02*
Y19220D01*
X74902Y84646D02*
X78642D01*
X76772Y82776D02*
Y86516D01*
D24*
X66535Y80315D02*
Y88976D01*
X71260Y80315D02*
Y88976D01*
X66535Y80315D02*
X71260D01*
X66535Y88976D02*
X71260D01*
X58661Y80315D02*
Y88976D01*
X63386Y80315D02*
Y88976D01*
X58661Y80315D02*
X63386D01*
X58661Y88976D02*
X63386D01*
X46654Y91929D02*
X55709D01*
X46654Y73425D02*
X55709D01*
Y91929D01*
X46654Y73425D02*
Y91929D01*
X78347Y107874D02*
X87008D01*
X78347Y112598D02*
X87008D01*
Y107874D02*
Y112598D01*
X78347Y107874D02*
Y112598D01*
X155677Y11350D02*
Y22350D01*
X161583Y11350D02*
Y22350D01*
X155677Y11350D02*
X161583D01*
X155677Y22350D02*
X161583D01*
X149992Y13020D02*
Y21681D01*
X145268Y13020D02*
Y21681D01*
X149992D01*
X145268Y13020D02*
X149992D01*
X79134Y80315D02*
Y88976D01*
X74410Y80315D02*
Y88976D01*
X79134D01*
X74410Y80315D02*
X79134D01*
D25*
X76177Y91925D02*
X89177D01*
Y104925D01*
X76177D02*
X89177D01*
X76177Y91925D02*
Y104925D01*
D26*
X83602Y123760D02*
Y150315D01*
Y123760D02*
X146671D01*
Y150315D01*
X83602D02*
X146671D01*
X2253Y107059D02*
X42035D01*
Y159658D01*
X2253D02*
X42035D01*
X2253Y107059D02*
Y159658D01*
X6154Y110996D02*
X38098D01*
Y155758D01*
X6154D02*
X38098D01*
X6154Y110996D02*
Y155758D01*
X2253Y53909D02*
X42035D01*
Y106509D01*
X2253D02*
X42035D01*
X2253Y53909D02*
Y106509D01*
X6154Y57846D02*
X38098D01*
Y102609D01*
X6154D02*
X38098D01*
X6154Y57846D02*
Y102609D01*
X155797Y53909D02*
X195579D01*
Y106509D01*
X155797D02*
X195579D01*
X155797Y53909D02*
Y106509D01*
X159697Y57846D02*
X191642D01*
Y102609D01*
X159697D02*
X191642D01*
X159697Y57846D02*
Y102609D01*
X155797Y107059D02*
X195579D01*
Y159658D01*
X155797D02*
X195579D01*
X155797Y107059D02*
Y159658D01*
X159697Y110996D02*
X191642D01*
Y155758D01*
X159697D02*
X191642D01*
X159697Y110996D02*
Y155758D01*
X103122Y154815D02*
Y194597D01*
Y154815D02*
X155721D01*
Y194597D01*
X103122D02*
X155721D01*
X107059Y158752D02*
Y190697D01*
Y158752D02*
X151821D01*
Y190697D01*
X107059D02*
X151821D01*
X42098Y154815D02*
Y194597D01*
Y154815D02*
X94698D01*
Y194597D01*
X42098D02*
X94698D01*
X46035Y158752D02*
Y190697D01*
Y158752D02*
X90798D01*
Y190697D01*
X46035D02*
X90798D01*
X79665Y119823D02*
Y154215D01*
Y119823D02*
X150571D01*
Y154215D01*
X79665D02*
X150571D01*
D27*
X76877Y97047D02*
X88425D01*
Y99825D01*
X76877D02*
X88425D01*
X76877Y97047D02*
Y99825D01*
X6154Y110996D02*
X38098D01*
Y155758D01*
X6154D02*
X38098D01*
X6154Y110996D02*
Y155758D01*
Y57846D02*
X38098D01*
Y102609D01*
X6154D02*
X38098D01*
X6154Y57846D02*
Y102609D01*
X159697Y57846D02*
X191642D01*
Y102609D01*
X159697D02*
X191642D01*
X159697Y57846D02*
Y102609D01*
Y110996D02*
X191642D01*
Y155758D01*
X159697D02*
X191642D01*
X159697Y110996D02*
Y155758D01*
X107059Y158752D02*
Y190697D01*
Y158752D02*
X151821D01*
Y190697D01*
X107059D02*
X151821D01*
X46035Y158752D02*
Y190697D01*
Y158752D02*
X90798D01*
Y190697D01*
X46035D02*
X90798D01*
X83602Y123760D02*
Y150315D01*
Y123760D02*
X146671D01*
Y150315D01*
X83602D02*
X146671D01*
D35*
X66437Y84646D02*
X71358D01*
X70669Y89370D02*
X71358D01*
Y79921D02*
Y89370D01*
X70669Y79921D02*
X71358D01*
X66437D02*
X67126D01*
X66437D02*
Y89370D01*
X67126D01*
X58563Y84646D02*
X63484D01*
X62795Y89370D02*
X63484D01*
Y79921D02*
Y89370D01*
X62795Y79921D02*
X63484D01*
X58563D02*
X59252D01*
X58563D02*
Y89370D01*
X59252D01*
X46752Y92028D02*
X47736D01*
X46752Y73327D02*
Y92028D01*
Y73327D02*
X47736D01*
X54626D02*
X55610D01*
Y92028D01*
X54626D02*
X55610D01*
X46752Y82677D02*
X55610D01*
X82677Y107776D02*
Y112697D01*
X77953Y112008D02*
Y112697D01*
X87402D01*
Y112008D02*
Y112697D01*
Y107776D02*
Y108465D01*
X77953Y107776D02*
X87402D01*
X77953D02*
Y108465D01*
X160008Y16850D02*
X161386D01*
X155874D02*
X157252D01*
X155874Y22850D02*
X156630D01*
X155874Y10945D02*
Y22850D01*
Y11350D02*
X157630D01*
X159630D02*
X161386D01*
Y10945D02*
Y22850D01*
X160630D02*
X161386D01*
X155874Y10850D02*
Y11350D01*
Y10850D02*
X157630D01*
Y11350D01*
X161386Y10850D02*
Y11350D01*
X159630Y10850D02*
X161386D01*
X159630D02*
Y11350D01*
X145169Y17350D02*
X150091D01*
X145169Y12626D02*
X145858D01*
X145169D02*
Y22075D01*
X145858D01*
X149402D02*
X150091D01*
Y12626D02*
Y22075D01*
X149402Y12626D02*
X150091D01*
X74311Y84646D02*
X79232D01*
X74311Y79921D02*
X75000D01*
X74311D02*
Y89370D01*
X75000D01*
X78543D02*
X79232D01*
Y79921D02*
Y89370D01*
X78543Y79921D02*
X79232D01*
D36*
X194246Y122427D02*
D03*
Y69278D02*
D03*
D37*
X3077Y68293D02*
D03*
D38*
Y121443D02*
D03*
D39*
X118490Y193774D02*
D03*
X57467D02*
D03*
M02*
