G04 Layer_Color=15065295*
%FSLAX44Y44*%
%MOMM*%
G71*
G01*
G75*
%ADD17C,0.2540*%
%ADD29C,0.1500*%
%ADD30C,0.1016*%
%ADD31C,0.1000*%
%ADD32C,0.2032*%
%ADD33C,0.2000*%
%ADD34R,5.8070X1.5630*%
%ADD35R,1.5630X5.3070*%
%ADD36R,1.5630X5.3070*%
%ADD37R,1.3230X5.8070*%
G36*
X169638Y194741D02*
X169765D01*
X170061Y194727D01*
X170371Y194685D01*
X170709Y194642D01*
X171019Y194572D01*
X171175Y194530D01*
X171301Y194487D01*
X171315D01*
X171330Y194473D01*
X171414Y194431D01*
X171541Y194375D01*
X171696Y194276D01*
X171865Y194149D01*
X172048Y193980D01*
X172218Y193782D01*
X172387Y193557D01*
Y193543D01*
X172401Y193529D01*
X172457Y193444D01*
X172514Y193303D01*
X172598Y193120D01*
X172669Y192908D01*
X172739Y192655D01*
X172782Y192387D01*
X172796Y192091D01*
Y192077D01*
Y192048D01*
Y191992D01*
X172782Y191922D01*
Y191823D01*
X172767Y191724D01*
X172711Y191485D01*
X172626Y191203D01*
X172514Y190907D01*
X172344Y190611D01*
X172232Y190470D01*
X172119Y190329D01*
X172105Y190315D01*
X172091Y190301D01*
X172048Y190258D01*
X171992Y190216D01*
X171922Y190159D01*
X171837Y190103D01*
X171724Y190033D01*
X171611Y189948D01*
X171471Y189878D01*
X171315Y189807D01*
X171146Y189722D01*
X170963Y189652D01*
X170752Y189596D01*
X170540Y189525D01*
X170301Y189483D01*
X170047Y189441D01*
X170075Y189426D01*
X170131Y189398D01*
X170216Y189342D01*
X170329Y189286D01*
X170582Y189130D01*
X170709Y189032D01*
X170822Y188947D01*
X170850Y188919D01*
X170921Y188848D01*
X171033Y188736D01*
X171175Y188595D01*
X171330Y188397D01*
X171513Y188186D01*
X171696Y187932D01*
X171893Y187650D01*
X173571Y185000D01*
X171964D01*
X170681Y187030D01*
Y187044D01*
X170653Y187072D01*
X170625Y187115D01*
X170582Y187171D01*
X170484Y187326D01*
X170357Y187523D01*
X170202Y187735D01*
X170047Y187960D01*
X169892Y188172D01*
X169751Y188369D01*
X169737Y188383D01*
X169694Y188440D01*
X169624Y188524D01*
X169525Y188623D01*
X169314Y188834D01*
X169201Y188933D01*
X169088Y189018D01*
X169074Y189032D01*
X169046Y189046D01*
X168990Y189074D01*
X168905Y189116D01*
X168820Y189159D01*
X168722Y189201D01*
X168496Y189271D01*
X168482D01*
X168454Y189286D01*
X168397D01*
X168327Y189300D01*
X168228Y189314D01*
X168115D01*
X167960Y189328D01*
X166297D01*
Y185000D01*
X165000D01*
Y194755D01*
X169525D01*
X169638Y194741D01*
D02*
G37*
G36*
X177800Y194783D02*
X177983Y194755D01*
X178195Y194713D01*
X178420Y194657D01*
X178660Y194586D01*
X178885Y194473D01*
X178900D01*
X178914Y194459D01*
X178984Y194417D01*
X179097Y194346D01*
X179238Y194248D01*
X179393Y194107D01*
X179562Y193952D01*
X179717Y193768D01*
X179872Y193557D01*
X179886Y193529D01*
X179943Y193458D01*
X179999Y193331D01*
X180098Y193148D01*
X180182Y192937D01*
X180295Y192697D01*
X180394Y192415D01*
X180478Y192105D01*
Y192091D01*
X180493Y192063D01*
X180507Y192020D01*
X180521Y191950D01*
X180535Y191865D01*
X180549Y191767D01*
X180577Y191640D01*
X180591Y191499D01*
X180620Y191344D01*
X180634Y191175D01*
X180648Y190977D01*
X180676Y190780D01*
X180690Y190554D01*
Y190329D01*
X180704Y190075D01*
Y189807D01*
Y189793D01*
Y189737D01*
Y189638D01*
Y189525D01*
X180690Y189370D01*
Y189201D01*
X180676Y189018D01*
X180662Y188820D01*
X180620Y188369D01*
X180549Y187904D01*
X180464Y187453D01*
X180408Y187241D01*
X180338Y187030D01*
Y187016D01*
X180323Y186988D01*
X180295Y186931D01*
X180267Y186861D01*
X180239Y186762D01*
X180182Y186663D01*
X180070Y186424D01*
X179929Y186170D01*
X179746Y185888D01*
X179534Y185634D01*
X179280Y185395D01*
X179266D01*
X179252Y185366D01*
X179210Y185338D01*
X179153Y185310D01*
X179083Y185268D01*
X179012Y185212D01*
X178801Y185113D01*
X178547Y185014D01*
X178251Y184915D01*
X177899Y184859D01*
X177518Y184831D01*
X177377D01*
X177278Y184845D01*
X177166Y184859D01*
X177025Y184887D01*
X176870Y184915D01*
X176700Y184958D01*
X176531Y185014D01*
X176348Y185070D01*
X176165Y185155D01*
X175982Y185254D01*
X175798Y185366D01*
X175615Y185508D01*
X175446Y185663D01*
X175291Y185832D01*
X175277Y185846D01*
X175249Y185888D01*
X175206Y185959D01*
X175136Y186071D01*
X175065Y186198D01*
X174995Y186367D01*
X174896Y186565D01*
X174811Y186790D01*
X174727Y187044D01*
X174642Y187340D01*
X174558Y187664D01*
X174487Y188031D01*
X174417Y188426D01*
X174375Y188848D01*
X174346Y189314D01*
X174332Y189807D01*
Y189821D01*
Y189878D01*
Y189976D01*
Y190089D01*
X174346Y190244D01*
Y190413D01*
X174360Y190597D01*
X174375Y190808D01*
X174417Y191245D01*
X174487Y191710D01*
X174572Y192175D01*
X174628Y192387D01*
X174685Y192598D01*
Y192612D01*
X174699Y192641D01*
X174727Y192697D01*
X174755Y192768D01*
X174783Y192866D01*
X174840Y192965D01*
X174953Y193204D01*
X175093Y193458D01*
X175277Y193726D01*
X175488Y193994D01*
X175742Y194219D01*
X175756D01*
X175770Y194248D01*
X175812Y194276D01*
X175869Y194304D01*
X175939Y194360D01*
X176024Y194403D01*
X176235Y194515D01*
X176489Y194614D01*
X176785Y194713D01*
X177138Y194769D01*
X177518Y194797D01*
X177645D01*
X177800Y194783D01*
D02*
G37*
G36*
X350583Y319916D02*
X350710D01*
X350865Y319902D01*
X351034Y319888D01*
X351217Y319860D01*
X351626Y319789D01*
X352063Y319690D01*
X352528Y319549D01*
X352980Y319352D01*
X352994Y319338D01*
X353036Y319324D01*
X353092Y319296D01*
X353177Y319239D01*
X353276Y319183D01*
X353388Y319112D01*
X353656Y318915D01*
X353938Y318689D01*
X354234Y318393D01*
X354530Y318069D01*
X354784Y317689D01*
X354798Y317675D01*
X354812Y317632D01*
X354840Y317576D01*
X354883Y317491D01*
X354925Y317393D01*
X354981Y317280D01*
X355038Y317139D01*
X355094Y316984D01*
X355150Y316800D01*
X355207Y316617D01*
X355306Y316208D01*
X355376Y315757D01*
X355404Y315518D01*
Y315264D01*
Y315250D01*
Y315208D01*
Y315137D01*
X355390Y315038D01*
Y314911D01*
X355376Y314785D01*
X355348Y314615D01*
X355320Y314446D01*
X355249Y314080D01*
X355136Y313657D01*
X354967Y313248D01*
X354869Y313037D01*
X354756Y312825D01*
X354742Y312811D01*
X354728Y312783D01*
X354685Y312726D01*
X354643Y312642D01*
X354573Y312557D01*
X354488Y312444D01*
X354291Y312205D01*
X354037Y311951D01*
X353727Y311669D01*
X353360Y311401D01*
X352951Y311176D01*
X352937D01*
X352895Y311148D01*
X352839Y311119D01*
X352754Y311091D01*
X352641Y311035D01*
X352514Y310993D01*
X352359Y310936D01*
X352190Y310880D01*
X352007Y310837D01*
X351810Y310781D01*
X351598Y310725D01*
X351373Y310682D01*
X350879Y310626D01*
X350358Y310598D01*
X350160D01*
X350047Y310612D01*
X349921D01*
X349780Y310626D01*
X349639Y310640D01*
X349300Y310682D01*
X348934Y310753D01*
X348553Y310837D01*
X348187Y310964D01*
X348172D01*
X348144Y310978D01*
X348088Y311007D01*
X348032Y311035D01*
X347947Y311077D01*
X347848Y311119D01*
X347623Y311232D01*
X347355Y311387D01*
X347073Y311585D01*
X346791Y311810D01*
X346509Y312064D01*
Y312050D01*
X346481Y312022D01*
X346453Y311979D01*
X346410Y311909D01*
X346354Y311838D01*
X346298Y311740D01*
X346171Y311528D01*
X346016Y311274D01*
X345861Y310993D01*
X345734Y310697D01*
X345607Y310415D01*
X344719Y310795D01*
Y310809D01*
X344733Y310837D01*
X344761Y310894D01*
X344789Y310978D01*
X344832Y311077D01*
X344888Y311190D01*
X344944Y311317D01*
X345015Y311458D01*
X345184Y311768D01*
X345381Y312120D01*
X345635Y312501D01*
X345917Y312896D01*
Y312910D01*
X345889Y312938D01*
X345861Y313008D01*
X345818Y313079D01*
X345776Y313192D01*
X345720Y313304D01*
X345677Y313445D01*
X345621Y313600D01*
X345565Y313770D01*
X345508Y313953D01*
X345410Y314362D01*
X345339Y314813D01*
X345325Y315052D01*
X345311Y315292D01*
Y315306D01*
Y315348D01*
Y315419D01*
X345325Y315518D01*
Y315630D01*
X345339Y315771D01*
X345367Y315926D01*
X345395Y316096D01*
X345466Y316462D01*
X345579Y316871D01*
X345734Y317294D01*
X345832Y317491D01*
X345945Y317703D01*
X345959Y317717D01*
X345973Y317745D01*
X346016Y317801D01*
X346058Y317872D01*
X346129Y317971D01*
X346213Y318069D01*
X346410Y318309D01*
X346664Y318577D01*
X346974Y318845D01*
X347327Y319112D01*
X347735Y319352D01*
X347750D01*
X347792Y319380D01*
X347848Y319408D01*
X347933Y319437D01*
X348046Y319479D01*
X348172Y319535D01*
X348328Y319592D01*
X348497Y319634D01*
X348680Y319690D01*
X348877Y319747D01*
X349089Y319789D01*
X349328Y319845D01*
X349822Y319902D01*
X350344Y319930D01*
X350484D01*
X350583Y319916D01*
D02*
G37*
G36*
X198843Y185000D02*
X197645D01*
Y192626D01*
X197631Y192612D01*
X197560Y192556D01*
X197476Y192471D01*
X197335Y192373D01*
X197180Y192246D01*
X196982Y192105D01*
X196757Y191950D01*
X196503Y191795D01*
X196489D01*
X196475Y191781D01*
X196390Y191724D01*
X196249Y191654D01*
X196080Y191569D01*
X195883Y191471D01*
X195671Y191372D01*
X195460Y191273D01*
X195249Y191189D01*
Y192344D01*
X195263D01*
X195291Y192373D01*
X195347Y192387D01*
X195418Y192429D01*
X195502Y192471D01*
X195601Y192528D01*
X195841Y192669D01*
X196122Y192824D01*
X196404Y193021D01*
X196700Y193247D01*
X196997Y193486D01*
X197011Y193500D01*
X197025Y193515D01*
X197067Y193557D01*
X197123Y193599D01*
X197250Y193740D01*
X197419Y193909D01*
X197589Y194107D01*
X197772Y194332D01*
X197927Y194558D01*
X198068Y194797D01*
X198843D01*
Y185000D01*
D02*
G37*
G36*
X189638Y194741D02*
X189765D01*
X190061Y194727D01*
X190371Y194685D01*
X190709Y194642D01*
X191019Y194572D01*
X191175Y194530D01*
X191301Y194487D01*
X191315D01*
X191330Y194473D01*
X191414Y194431D01*
X191541Y194375D01*
X191696Y194276D01*
X191865Y194149D01*
X192048Y193980D01*
X192218Y193782D01*
X192387Y193557D01*
Y193543D01*
X192401Y193529D01*
X192457Y193444D01*
X192514Y193303D01*
X192598Y193120D01*
X192669Y192908D01*
X192739Y192655D01*
X192782Y192387D01*
X192796Y192091D01*
Y192077D01*
Y192048D01*
Y191992D01*
X192782Y191922D01*
Y191823D01*
X192768Y191724D01*
X192711Y191485D01*
X192626Y191203D01*
X192514Y190907D01*
X192344Y190611D01*
X192232Y190470D01*
X192119Y190329D01*
X192105Y190315D01*
X192091Y190301D01*
X192048Y190258D01*
X191992Y190216D01*
X191922Y190159D01*
X191837Y190103D01*
X191724Y190033D01*
X191611Y189948D01*
X191471Y189878D01*
X191315Y189807D01*
X191146Y189722D01*
X190963Y189652D01*
X190752Y189596D01*
X190540Y189525D01*
X190301Y189483D01*
X190047Y189441D01*
X190075Y189426D01*
X190131Y189398D01*
X190216Y189342D01*
X190329Y189286D01*
X190582Y189130D01*
X190709Y189032D01*
X190822Y188947D01*
X190850Y188919D01*
X190921Y188848D01*
X191033Y188736D01*
X191175Y188595D01*
X191330Y188397D01*
X191513Y188186D01*
X191696Y187932D01*
X191893Y187650D01*
X193571Y185000D01*
X191964D01*
X190681Y187030D01*
Y187044D01*
X190653Y187072D01*
X190625Y187115D01*
X190582Y187171D01*
X190484Y187326D01*
X190357Y187523D01*
X190202Y187735D01*
X190047Y187960D01*
X189892Y188172D01*
X189751Y188369D01*
X189737Y188383D01*
X189694Y188440D01*
X189624Y188524D01*
X189525Y188623D01*
X189314Y188834D01*
X189201Y188933D01*
X189088Y189018D01*
X189074Y189032D01*
X189046Y189046D01*
X188990Y189074D01*
X188905Y189116D01*
X188820Y189159D01*
X188722Y189201D01*
X188496Y189271D01*
X188482D01*
X188454Y189286D01*
X188397D01*
X188327Y189300D01*
X188228Y189314D01*
X188115D01*
X187960Y189328D01*
X186297D01*
Y185000D01*
X185000D01*
Y194755D01*
X189525D01*
X189638Y194741D01*
D02*
G37*
G36*
X190084Y240000D02*
X188886D01*
Y247626D01*
X188871Y247612D01*
X188801Y247556D01*
X188716Y247471D01*
X188575Y247373D01*
X188420Y247246D01*
X188223Y247105D01*
X187997Y246950D01*
X187744Y246795D01*
X187730D01*
X187715Y246781D01*
X187631Y246724D01*
X187490Y246654D01*
X187321Y246569D01*
X187123Y246471D01*
X186912Y246372D01*
X186700Y246273D01*
X186489Y246189D01*
Y247344D01*
X186503D01*
X186531Y247373D01*
X186588Y247387D01*
X186658Y247429D01*
X186743Y247471D01*
X186842Y247528D01*
X187081Y247669D01*
X187363Y247824D01*
X187645Y248021D01*
X187941Y248247D01*
X188237Y248486D01*
X188251Y248500D01*
X188265Y248515D01*
X188308Y248557D01*
X188364Y248599D01*
X188491Y248740D01*
X188660Y248909D01*
X188829Y249107D01*
X189012Y249332D01*
X189167Y249558D01*
X189308Y249797D01*
X190084D01*
Y240000D01*
D02*
G37*
G36*
X409130Y75189D02*
X409313Y75161D01*
X409525Y75119D01*
X409750Y75062D01*
X409990Y74992D01*
X410216Y74879D01*
X410230D01*
X410244Y74865D01*
X410314Y74823D01*
X410427Y74752D01*
X410568Y74654D01*
X410723Y74513D01*
X410892Y74358D01*
X411047Y74174D01*
X411202Y73963D01*
X411217Y73935D01*
X411273Y73864D01*
X411329Y73737D01*
X411428Y73554D01*
X411513Y73343D01*
X411625Y73103D01*
X411724Y72821D01*
X411809Y72511D01*
Y72497D01*
X411823Y72469D01*
X411837Y72426D01*
X411851Y72356D01*
X411865Y72271D01*
X411879Y72173D01*
X411907Y72046D01*
X411921Y71905D01*
X411950Y71750D01*
X411964Y71581D01*
X411978Y71383D01*
X412006Y71186D01*
X412020Y70960D01*
Y70735D01*
X412034Y70481D01*
Y70213D01*
Y70199D01*
Y70143D01*
Y70044D01*
Y69931D01*
X412020Y69776D01*
Y69607D01*
X412006Y69424D01*
X411992Y69226D01*
X411950Y68775D01*
X411879Y68310D01*
X411795Y67859D01*
X411738Y67647D01*
X411668Y67436D01*
Y67422D01*
X411654Y67394D01*
X411625Y67337D01*
X411597Y67267D01*
X411569Y67168D01*
X411513Y67069D01*
X411400Y66830D01*
X411259Y66576D01*
X411076Y66294D01*
X410864Y66040D01*
X410610Y65801D01*
X410596D01*
X410582Y65773D01*
X410540Y65744D01*
X410484Y65716D01*
X410413Y65674D01*
X410342Y65617D01*
X410131Y65519D01*
X409877Y65420D01*
X409581Y65321D01*
X409229Y65265D01*
X408848Y65237D01*
X408707D01*
X408609Y65251D01*
X408496Y65265D01*
X408355Y65293D01*
X408200Y65321D01*
X408031Y65364D01*
X407861Y65420D01*
X407678Y65476D01*
X407495Y65561D01*
X407312Y65660D01*
X407128Y65773D01*
X406945Y65914D01*
X406776Y66069D01*
X406621Y66238D01*
X406607Y66252D01*
X406579Y66294D01*
X406536Y66365D01*
X406466Y66477D01*
X406395Y66604D01*
X406325Y66773D01*
X406226Y66971D01*
X406142Y67196D01*
X406057Y67450D01*
X405972Y67746D01*
X405888Y68070D01*
X405817Y68437D01*
X405747Y68832D01*
X405705Y69254D01*
X405676Y69720D01*
X405662Y70213D01*
Y70227D01*
Y70284D01*
Y70382D01*
Y70495D01*
X405676Y70650D01*
Y70819D01*
X405690Y71002D01*
X405705Y71214D01*
X405747Y71651D01*
X405817Y72116D01*
X405902Y72581D01*
X405958Y72793D01*
X406015Y73004D01*
Y73018D01*
X406029Y73047D01*
X406057Y73103D01*
X406085Y73173D01*
X406113Y73272D01*
X406170Y73371D01*
X406283Y73610D01*
X406423Y73864D01*
X406607Y74132D01*
X406818Y74400D01*
X407072Y74625D01*
X407086D01*
X407100Y74654D01*
X407142Y74682D01*
X407199Y74710D01*
X407269Y74766D01*
X407354Y74809D01*
X407565Y74921D01*
X407819Y75020D01*
X408115Y75119D01*
X408468Y75175D01*
X408848Y75203D01*
X408975D01*
X409130Y75189D01*
D02*
G37*
G36*
X119835Y184910D02*
X119962Y184896D01*
X120117Y184882D01*
X120272Y184868D01*
X120456Y184826D01*
X120836Y184741D01*
X121259Y184614D01*
X121470Y184530D01*
X121668Y184431D01*
X121865Y184304D01*
X122063Y184177D01*
X122077Y184163D01*
X122105Y184149D01*
X122161Y184107D01*
X122232Y184036D01*
X122302Y183966D01*
X122401Y183867D01*
X122500Y183754D01*
X122612Y183641D01*
X122725Y183500D01*
X122838Y183331D01*
X122965Y183162D01*
X123078Y182979D01*
X123176Y182768D01*
X123289Y182556D01*
X123374Y182330D01*
X123458Y182077D01*
X122190Y181781D01*
Y181795D01*
X122175Y181823D01*
X122147Y181879D01*
X122119Y181950D01*
X122091Y182034D01*
X122049Y182147D01*
X121936Y182373D01*
X121795Y182626D01*
X121626Y182880D01*
X121414Y183120D01*
X121189Y183331D01*
X121160Y183360D01*
X121076Y183416D01*
X120935Y183486D01*
X120752Y183585D01*
X120512Y183670D01*
X120244Y183754D01*
X119920Y183811D01*
X119567Y183825D01*
X119455D01*
X119384Y183811D01*
X119285D01*
X119173Y183797D01*
X118905Y183754D01*
X118609Y183698D01*
X118299Y183599D01*
X117975Y183458D01*
X117678Y183275D01*
X117664D01*
X117650Y183247D01*
X117552Y183176D01*
X117425Y183064D01*
X117270Y182894D01*
X117086Y182683D01*
X116917Y182443D01*
X116762Y182147D01*
X116621Y181823D01*
Y181809D01*
X116607Y181781D01*
X116593Y181738D01*
X116579Y181668D01*
X116551Y181583D01*
X116523Y181485D01*
X116480Y181245D01*
X116424Y180963D01*
X116367Y180653D01*
X116339Y180315D01*
X116325Y179948D01*
Y179934D01*
Y179892D01*
Y179821D01*
Y179737D01*
X116339Y179638D01*
Y179511D01*
X116353Y179370D01*
X116367Y179215D01*
X116410Y178877D01*
X116480Y178510D01*
X116565Y178144D01*
X116678Y177777D01*
Y177763D01*
X116692Y177735D01*
X116720Y177693D01*
X116748Y177622D01*
X116833Y177453D01*
X116959Y177255D01*
X117114Y177030D01*
X117312Y176790D01*
X117537Y176579D01*
X117805Y176381D01*
X117819D01*
X117848Y176367D01*
X117890Y176339D01*
X117946Y176311D01*
X118017Y176283D01*
X118101Y176241D01*
X118299Y176156D01*
X118552Y176071D01*
X118834Y176001D01*
X119144Y175944D01*
X119469Y175930D01*
X119567D01*
X119652Y175944D01*
X119751D01*
X119849Y175959D01*
X120103Y176015D01*
X120399Y176085D01*
X120695Y176198D01*
X121005Y176353D01*
X121160Y176438D01*
X121301Y176551D01*
X121315Y176565D01*
X121330Y176579D01*
X121372Y176621D01*
X121428Y176663D01*
X121485Y176734D01*
X121555Y176819D01*
X121640Y176903D01*
X121710Y177016D01*
X121795Y177143D01*
X121893Y177284D01*
X121978Y177425D01*
X122063Y177594D01*
X122133Y177777D01*
X122204Y177974D01*
X122274Y178186D01*
X122330Y178412D01*
X123627Y178087D01*
Y178073D01*
X123613Y178017D01*
X123585Y177932D01*
X123543Y177819D01*
X123500Y177693D01*
X123444Y177537D01*
X123374Y177368D01*
X123289Y177185D01*
X123092Y176790D01*
X122838Y176396D01*
X122683Y176198D01*
X122528Y176001D01*
X122359Y175832D01*
X122161Y175663D01*
X122147Y175648D01*
X122119Y175620D01*
X122049Y175592D01*
X121978Y175536D01*
X121865Y175465D01*
X121753Y175395D01*
X121597Y175324D01*
X121442Y175254D01*
X121259Y175169D01*
X121062Y175099D01*
X120850Y175028D01*
X120625Y174958D01*
X120385Y174901D01*
X120131Y174873D01*
X119864Y174845D01*
X119581Y174831D01*
X119426D01*
X119314Y174845D01*
X119187D01*
X119032Y174859D01*
X118863Y174887D01*
X118665Y174915D01*
X118256Y174986D01*
X117833Y175099D01*
X117411Y175254D01*
X117213Y175352D01*
X117016Y175465D01*
X117002Y175479D01*
X116974Y175493D01*
X116917Y175536D01*
X116861Y175592D01*
X116776Y175648D01*
X116678Y175733D01*
X116565Y175832D01*
X116452Y175944D01*
X116339Y176071D01*
X116212Y176198D01*
X115959Y176523D01*
X115719Y176903D01*
X115507Y177326D01*
Y177340D01*
X115479Y177382D01*
X115465Y177453D01*
X115423Y177537D01*
X115395Y177650D01*
X115352Y177791D01*
X115296Y177946D01*
X115254Y178115D01*
X115211Y178299D01*
X115155Y178510D01*
X115085Y178947D01*
X115028Y179441D01*
X115000Y179948D01*
Y179962D01*
Y180019D01*
Y180103D01*
X115014Y180202D01*
Y180343D01*
X115028Y180484D01*
X115042Y180667D01*
X115070Y180850D01*
X115141Y181259D01*
X115240Y181710D01*
X115381Y182161D01*
X115578Y182598D01*
X115592Y182612D01*
X115606Y182655D01*
X115634Y182711D01*
X115691Y182782D01*
X115747Y182880D01*
X115818Y182993D01*
X116001Y183247D01*
X116241Y183529D01*
X116523Y183811D01*
X116847Y184093D01*
X117227Y184332D01*
X117241Y184346D01*
X117284Y184360D01*
X117340Y184389D01*
X117411Y184431D01*
X117523Y184473D01*
X117636Y184515D01*
X117777Y184572D01*
X117932Y184628D01*
X118101Y184685D01*
X118285Y184741D01*
X118679Y184826D01*
X119130Y184896D01*
X119596Y184924D01*
X119737D01*
X119835Y184910D01*
D02*
G37*
G36*
X400320Y75147D02*
X400602Y75133D01*
X400883Y75105D01*
X401165Y75062D01*
X401405Y75020D01*
X401419D01*
X401447Y75006D01*
X401490D01*
X401546Y74978D01*
X401701Y74936D01*
X401898Y74865D01*
X402124Y74766D01*
X402364Y74640D01*
X402603Y74499D01*
X402829Y74315D01*
X402843Y74301D01*
X402857Y74287D01*
X402899Y74245D01*
X402956Y74202D01*
X403097Y74061D01*
X403266Y73864D01*
X403449Y73625D01*
X403646Y73343D01*
X403830Y73018D01*
X403985Y72652D01*
Y72638D01*
X403999Y72610D01*
X404027Y72553D01*
X404041Y72469D01*
X404083Y72370D01*
X404112Y72257D01*
X404140Y72130D01*
X404182Y71975D01*
X404224Y71820D01*
X404253Y71637D01*
X404323Y71242D01*
X404365Y70805D01*
X404380Y70326D01*
Y70312D01*
Y70284D01*
Y70213D01*
Y70143D01*
X404365Y70044D01*
Y69931D01*
X404351Y69663D01*
X404309Y69353D01*
X404267Y69029D01*
X404196Y68691D01*
X404112Y68352D01*
Y68338D01*
X404098Y68310D01*
X404083Y68268D01*
X404069Y68211D01*
X404013Y68056D01*
X403928Y67859D01*
X403844Y67633D01*
X403731Y67408D01*
X403590Y67168D01*
X403449Y66943D01*
X403435Y66914D01*
X403379Y66844D01*
X403294Y66745D01*
X403181Y66618D01*
X403054Y66477D01*
X402899Y66336D01*
X402744Y66181D01*
X402561Y66055D01*
X402533Y66040D01*
X402476Y65998D01*
X402378Y65942D01*
X402237Y65871D01*
X402068Y65787D01*
X401870Y65716D01*
X401645Y65631D01*
X401391Y65561D01*
X401363D01*
X401320Y65547D01*
X401278Y65533D01*
X401137Y65519D01*
X400940Y65491D01*
X400714Y65462D01*
X400446Y65434D01*
X400150Y65420D01*
X399826Y65406D01*
X396316D01*
Y75161D01*
X400066D01*
X400320Y75147D01*
D02*
G37*
G36*
X179892Y249910D02*
X180019D01*
X180145Y249896D01*
X180315Y249868D01*
X180484Y249840D01*
X180850Y249769D01*
X181273Y249656D01*
X181682Y249487D01*
X181893Y249389D01*
X182105Y249276D01*
X182119Y249262D01*
X182147Y249248D01*
X182204Y249205D01*
X182288Y249163D01*
X182373Y249093D01*
X182486Y249008D01*
X182725Y248811D01*
X182979Y248557D01*
X183261Y248247D01*
X183529Y247880D01*
X183754Y247471D01*
Y247457D01*
X183782Y247415D01*
X183811Y247359D01*
X183839Y247274D01*
X183895Y247161D01*
X183937Y247034D01*
X183994Y246879D01*
X184050Y246710D01*
X184093Y246527D01*
X184149Y246330D01*
X184205Y246118D01*
X184248Y245893D01*
X184304Y245399D01*
X184332Y244878D01*
Y244863D01*
Y244821D01*
Y244765D01*
Y244680D01*
X184318Y244567D01*
Y244441D01*
X184304Y244300D01*
X184290Y244159D01*
X184248Y243820D01*
X184177Y243454D01*
X184093Y243073D01*
X183966Y242707D01*
Y242693D01*
X183952Y242664D01*
X183923Y242608D01*
X183895Y242552D01*
X183853Y242467D01*
X183811Y242368D01*
X183698Y242143D01*
X183543Y241875D01*
X183345Y241593D01*
X183120Y241311D01*
X182866Y241029D01*
X182880D01*
X182908Y241001D01*
X182951Y240973D01*
X183021Y240930D01*
X183092Y240874D01*
X183190Y240818D01*
X183402Y240691D01*
X183656Y240536D01*
X183937Y240381D01*
X184233Y240254D01*
X184515Y240127D01*
X184135Y239239D01*
X184121D01*
X184093Y239253D01*
X184036Y239281D01*
X183952Y239309D01*
X183853Y239352D01*
X183740Y239408D01*
X183613Y239464D01*
X183472Y239535D01*
X183162Y239704D01*
X182810Y239901D01*
X182429Y240155D01*
X182034Y240437D01*
X182020D01*
X181992Y240409D01*
X181922Y240381D01*
X181851Y240338D01*
X181738Y240296D01*
X181626Y240240D01*
X181485Y240197D01*
X181330Y240141D01*
X181160Y240085D01*
X180977Y240028D01*
X180568Y239930D01*
X180117Y239859D01*
X179878Y239845D01*
X179638Y239831D01*
X179511D01*
X179412Y239845D01*
X179300D01*
X179159Y239859D01*
X179004Y239887D01*
X178834Y239915D01*
X178468Y239986D01*
X178059Y240099D01*
X177636Y240254D01*
X177439Y240352D01*
X177227Y240465D01*
X177213Y240479D01*
X177185Y240493D01*
X177129Y240536D01*
X177058Y240578D01*
X176959Y240648D01*
X176861Y240733D01*
X176621Y240930D01*
X176353Y241184D01*
X176085Y241494D01*
X175818Y241847D01*
X175578Y242255D01*
Y242270D01*
X175550Y242312D01*
X175522Y242368D01*
X175493Y242453D01*
X175451Y242566D01*
X175395Y242693D01*
X175338Y242848D01*
X175296Y243017D01*
X175240Y243200D01*
X175183Y243397D01*
X175141Y243609D01*
X175085Y243848D01*
X175028Y244342D01*
X175000Y244863D01*
Y244878D01*
Y244934D01*
Y245004D01*
X175014Y245103D01*
Y245230D01*
X175028Y245385D01*
X175042Y245554D01*
X175070Y245737D01*
X175141Y246146D01*
X175240Y246583D01*
X175381Y247048D01*
X175578Y247500D01*
X175592Y247514D01*
X175606Y247556D01*
X175634Y247612D01*
X175691Y247697D01*
X175747Y247796D01*
X175818Y247908D01*
X176015Y248176D01*
X176241Y248458D01*
X176537Y248754D01*
X176861Y249050D01*
X177241Y249304D01*
X177255Y249318D01*
X177298Y249332D01*
X177354Y249360D01*
X177439Y249403D01*
X177537Y249445D01*
X177650Y249501D01*
X177791Y249558D01*
X177946Y249614D01*
X178130Y249671D01*
X178313Y249727D01*
X178722Y249826D01*
X179173Y249896D01*
X179412Y249924D01*
X179793D01*
X179892Y249910D01*
D02*
G37*
G36*
X128195Y184783D02*
X128378Y184755D01*
X128589Y184713D01*
X128815Y184657D01*
X129055Y184586D01*
X129280Y184473D01*
X129294D01*
X129309Y184459D01*
X129379Y184417D01*
X129492Y184346D01*
X129633Y184248D01*
X129788Y184107D01*
X129957Y183952D01*
X130112Y183768D01*
X130267Y183557D01*
X130281Y183529D01*
X130337Y183458D01*
X130394Y183331D01*
X130493Y183148D01*
X130577Y182937D01*
X130690Y182697D01*
X130789Y182415D01*
X130873Y182105D01*
Y182091D01*
X130887Y182063D01*
X130901Y182020D01*
X130915Y181950D01*
X130930Y181865D01*
X130944Y181767D01*
X130972Y181640D01*
X130986Y181499D01*
X131014Y181344D01*
X131028Y181175D01*
X131042Y180977D01*
X131071Y180780D01*
X131085Y180554D01*
Y180329D01*
X131099Y180075D01*
Y179807D01*
Y179793D01*
Y179737D01*
Y179638D01*
Y179525D01*
X131085Y179370D01*
Y179201D01*
X131071Y179018D01*
X131056Y178820D01*
X131014Y178369D01*
X130944Y177904D01*
X130859Y177453D01*
X130803Y177241D01*
X130732Y177030D01*
Y177016D01*
X130718Y176988D01*
X130690Y176931D01*
X130662Y176861D01*
X130634Y176762D01*
X130577Y176663D01*
X130464Y176424D01*
X130323Y176170D01*
X130140Y175888D01*
X129929Y175634D01*
X129675Y175395D01*
X129661D01*
X129647Y175366D01*
X129605Y175338D01*
X129548Y175310D01*
X129478Y175268D01*
X129407Y175212D01*
X129196Y175113D01*
X128942Y175014D01*
X128646Y174915D01*
X128294Y174859D01*
X127913Y174831D01*
X127772D01*
X127673Y174845D01*
X127560Y174859D01*
X127420Y174887D01*
X127264Y174915D01*
X127095Y174958D01*
X126926Y175014D01*
X126743Y175070D01*
X126559Y175155D01*
X126376Y175254D01*
X126193Y175366D01*
X126010Y175508D01*
X125841Y175663D01*
X125686Y175832D01*
X125671Y175846D01*
X125643Y175888D01*
X125601Y175959D01*
X125531Y176071D01*
X125460Y176198D01*
X125389Y176367D01*
X125291Y176565D01*
X125206Y176790D01*
X125122Y177044D01*
X125037Y177340D01*
X124952Y177664D01*
X124882Y178031D01*
X124811Y178426D01*
X124769Y178848D01*
X124741Y179314D01*
X124727Y179807D01*
Y179821D01*
Y179878D01*
Y179976D01*
Y180089D01*
X124741Y180244D01*
Y180413D01*
X124755Y180597D01*
X124769Y180808D01*
X124811Y181245D01*
X124882Y181710D01*
X124967Y182175D01*
X125023Y182387D01*
X125079Y182598D01*
Y182612D01*
X125093Y182641D01*
X125122Y182697D01*
X125150Y182768D01*
X125178Y182866D01*
X125234Y182965D01*
X125347Y183204D01*
X125488Y183458D01*
X125671Y183726D01*
X125883Y183994D01*
X126137Y184219D01*
X126151D01*
X126165Y184248D01*
X126207Y184276D01*
X126264Y184304D01*
X126334Y184360D01*
X126419Y184403D01*
X126630Y184515D01*
X126884Y184614D01*
X127180Y184713D01*
X127532Y184769D01*
X127913Y184797D01*
X128040D01*
X128195Y184783D01*
D02*
G37*
G36*
X383503Y66560D02*
X384828D01*
Y65460D01*
X383503D01*
Y63120D01*
X382305D01*
Y65460D01*
X378061D01*
Y66560D01*
X382530Y72875D01*
X383503D01*
Y66560D01*
D02*
G37*
G36*
X193048Y301171D02*
X193175D01*
X193471Y301157D01*
X193781Y301115D01*
X194119Y301072D01*
X194429Y301002D01*
X194585Y300960D01*
X194711Y300917D01*
X194725D01*
X194740Y300903D01*
X194824Y300861D01*
X194951Y300805D01*
X195106Y300706D01*
X195275Y300579D01*
X195459Y300410D01*
X195628Y300212D01*
X195797Y299987D01*
Y299973D01*
X195811Y299959D01*
X195867Y299874D01*
X195924Y299733D01*
X196008Y299550D01*
X196079Y299338D01*
X196149Y299085D01*
X196192Y298817D01*
X196206Y298521D01*
Y298507D01*
Y298479D01*
Y298422D01*
X196192Y298352D01*
Y298253D01*
X196178Y298154D01*
X196121Y297915D01*
X196036Y297633D01*
X195924Y297337D01*
X195755Y297041D01*
X195642Y296900D01*
X195529Y296759D01*
X195515Y296745D01*
X195501Y296730D01*
X195459Y296688D01*
X195402Y296646D01*
X195332Y296590D01*
X195247Y296533D01*
X195134Y296463D01*
X195021Y296378D01*
X194881Y296308D01*
X194725Y296237D01*
X194556Y296152D01*
X194373Y296082D01*
X194162Y296026D01*
X193950Y295955D01*
X193710Y295913D01*
X193457Y295871D01*
X193485Y295856D01*
X193541Y295828D01*
X193626Y295772D01*
X193739Y295716D01*
X193992Y295560D01*
X194119Y295462D01*
X194232Y295377D01*
X194260Y295349D01*
X194331Y295278D01*
X194443Y295166D01*
X194585Y295025D01*
X194740Y294827D01*
X194923Y294616D01*
X195106Y294362D01*
X195303Y294080D01*
X196981Y291430D01*
X195374D01*
X194091Y293460D01*
Y293474D01*
X194063Y293502D01*
X194035Y293545D01*
X193992Y293601D01*
X193894Y293756D01*
X193767Y293953D01*
X193612Y294165D01*
X193457Y294390D01*
X193302Y294602D01*
X193161Y294799D01*
X193147Y294813D01*
X193104Y294870D01*
X193034Y294954D01*
X192935Y295053D01*
X192724Y295264D01*
X192611Y295363D01*
X192498Y295448D01*
X192484Y295462D01*
X192456Y295476D01*
X192400Y295504D01*
X192315Y295546D01*
X192230Y295589D01*
X192132Y295631D01*
X191906Y295701D01*
X191892D01*
X191864Y295716D01*
X191807D01*
X191737Y295730D01*
X191638Y295744D01*
X191525D01*
X191370Y295758D01*
X189707D01*
Y291430D01*
X188410D01*
Y301185D01*
X192935D01*
X193048Y301171D01*
D02*
G37*
G36*
X389961Y10000D02*
X388608D01*
X384830Y19755D01*
X386240D01*
X388777Y12664D01*
Y12650D01*
X388791Y12622D01*
X388805Y12580D01*
X388834Y12523D01*
X388848Y12439D01*
X388876Y12354D01*
X388946Y12143D01*
X389031Y11903D01*
X389115Y11635D01*
X389285Y11071D01*
Y11085D01*
X389299Y11114D01*
X389313Y11156D01*
X389327Y11212D01*
X389369Y11367D01*
X389440Y11579D01*
X389510Y11818D01*
X389595Y12086D01*
X389693Y12368D01*
X389806Y12664D01*
X392457Y19755D01*
X393768D01*
X389961Y10000D01*
D02*
G37*
G36*
X373776Y72861D02*
X373903D01*
X374199Y72847D01*
X374509Y72805D01*
X374847Y72762D01*
X375157Y72692D01*
X375312Y72650D01*
X375439Y72607D01*
X375453D01*
X375467Y72593D01*
X375552Y72551D01*
X375679Y72495D01*
X375834Y72396D01*
X376003Y72269D01*
X376186Y72100D01*
X376356Y71902D01*
X376525Y71677D01*
Y71663D01*
X376539Y71649D01*
X376595Y71564D01*
X376652Y71423D01*
X376736Y71240D01*
X376807Y71028D01*
X376877Y70775D01*
X376920Y70507D01*
X376934Y70211D01*
Y70197D01*
Y70168D01*
Y70112D01*
X376920Y70042D01*
Y69943D01*
X376905Y69844D01*
X376849Y69605D01*
X376764Y69323D01*
X376652Y69027D01*
X376483Y68731D01*
X376370Y68590D01*
X376257Y68449D01*
X376243Y68435D01*
X376229Y68421D01*
X376186Y68378D01*
X376130Y68336D01*
X376060Y68280D01*
X375975Y68223D01*
X375862Y68153D01*
X375750Y68068D01*
X375608Y67998D01*
X375453Y67927D01*
X375284Y67842D01*
X375101Y67772D01*
X374890Y67716D01*
X374678Y67645D01*
X374439Y67603D01*
X374185Y67561D01*
X374213Y67546D01*
X374269Y67518D01*
X374354Y67462D01*
X374467Y67406D01*
X374720Y67250D01*
X374847Y67152D01*
X374960Y67067D01*
X374988Y67039D01*
X375059Y66968D01*
X375172Y66856D01*
X375312Y66715D01*
X375467Y66517D01*
X375651Y66306D01*
X375834Y66052D01*
X376031Y65770D01*
X377709Y63120D01*
X376102D01*
X374819Y65150D01*
Y65164D01*
X374791Y65192D01*
X374763Y65234D01*
X374720Y65291D01*
X374622Y65446D01*
X374495Y65643D01*
X374340Y65855D01*
X374185Y66080D01*
X374030Y66292D01*
X373889Y66489D01*
X373875Y66503D01*
X373832Y66560D01*
X373762Y66644D01*
X373663Y66743D01*
X373452Y66954D01*
X373339Y67053D01*
X373226Y67138D01*
X373212Y67152D01*
X373184Y67166D01*
X373127Y67194D01*
X373043Y67236D01*
X372958Y67279D01*
X372860Y67321D01*
X372634Y67391D01*
X372620D01*
X372592Y67406D01*
X372535D01*
X372465Y67420D01*
X372366Y67434D01*
X372253D01*
X372098Y67448D01*
X370435D01*
Y63120D01*
X369138D01*
Y72875D01*
X373663D01*
X373776Y72861D01*
D02*
G37*
G36*
X201097Y301213D02*
X201281Y301185D01*
X201506Y301143D01*
X201760Y301072D01*
X202014Y300988D01*
X202267Y300875D01*
X202281D01*
X202296Y300861D01*
X202380Y300819D01*
X202507Y300734D01*
X202648Y300635D01*
X202817Y300494D01*
X202986Y300339D01*
X203155Y300156D01*
X203296Y299945D01*
X203311Y299916D01*
X203353Y299846D01*
X203409Y299719D01*
X203480Y299564D01*
X203550Y299381D01*
X203607Y299169D01*
X203649Y298930D01*
X203663Y298690D01*
Y298662D01*
Y298577D01*
X203649Y298464D01*
X203621Y298309D01*
X203578Y298126D01*
X203508Y297929D01*
X203423Y297731D01*
X203311Y297534D01*
X203296Y297506D01*
X203254Y297449D01*
X203170Y297351D01*
X203057Y297238D01*
X202916Y297111D01*
X202747Y296970D01*
X202549Y296843D01*
X202310Y296716D01*
X202324D01*
X202352Y296702D01*
X202394Y296688D01*
X202451Y296674D01*
X202606Y296618D01*
X202803Y296533D01*
X203029Y296420D01*
X203254Y296279D01*
X203466Y296096D01*
X203663Y295885D01*
X203677Y295856D01*
X203734Y295772D01*
X203818Y295631D01*
X203903Y295448D01*
X203987Y295222D01*
X204072Y294954D01*
X204128Y294644D01*
X204142Y294306D01*
Y294292D01*
Y294249D01*
Y294179D01*
X204128Y294094D01*
X204114Y293982D01*
X204086Y293855D01*
X204058Y293714D01*
X204030Y293559D01*
X203917Y293220D01*
X203832Y293037D01*
X203748Y292868D01*
X203635Y292685D01*
X203508Y292501D01*
X203367Y292318D01*
X203198Y292149D01*
X203184Y292135D01*
X203155Y292107D01*
X203099Y292064D01*
X203029Y292008D01*
X202944Y291938D01*
X202831Y291867D01*
X202704Y291782D01*
X202549Y291712D01*
X202394Y291627D01*
X202211Y291543D01*
X202028Y291472D01*
X201816Y291402D01*
X201591Y291345D01*
X201351Y291303D01*
X201111Y291275D01*
X200844Y291261D01*
X200717D01*
X200632Y291275D01*
X200519Y291289D01*
X200392Y291303D01*
X200252Y291331D01*
X200096Y291360D01*
X199758Y291444D01*
X199406Y291585D01*
X199222Y291670D01*
X199053Y291768D01*
X198884Y291895D01*
X198715Y292022D01*
X198701Y292036D01*
X198673Y292064D01*
X198630Y292107D01*
X198588Y292163D01*
X198518Y292234D01*
X198447Y292332D01*
X198363Y292431D01*
X198278Y292558D01*
X198193Y292699D01*
X198109Y292840D01*
X197954Y293178D01*
X197827Y293573D01*
X197785Y293784D01*
X197756Y294010D01*
X198955Y294165D01*
Y294151D01*
X198969Y294123D01*
X198983Y294066D01*
X198997Y293996D01*
X199011Y293911D01*
X199039Y293812D01*
X199110Y293601D01*
X199208Y293347D01*
X199335Y293107D01*
X199476Y292882D01*
X199645Y292685D01*
X199674Y292670D01*
X199730Y292614D01*
X199843Y292544D01*
X199984Y292473D01*
X200153Y292389D01*
X200364Y292318D01*
X200604Y292262D01*
X200858Y292248D01*
X200942D01*
X200999Y292262D01*
X201154Y292276D01*
X201351Y292318D01*
X201577Y292389D01*
X201816Y292487D01*
X202056Y292628D01*
X202281Y292826D01*
X202310Y292854D01*
X202380Y292938D01*
X202465Y293065D01*
X202577Y293234D01*
X202690Y293446D01*
X202775Y293685D01*
X202845Y293967D01*
X202873Y294278D01*
Y294292D01*
Y294320D01*
Y294362D01*
X202859Y294419D01*
X202845Y294574D01*
X202803Y294757D01*
X202747Y294982D01*
X202648Y295208D01*
X202507Y295434D01*
X202324Y295645D01*
X202296Y295673D01*
X202225Y295730D01*
X202112Y295814D01*
X201957Y295913D01*
X201760Y296012D01*
X201520Y296096D01*
X201252Y296152D01*
X200956Y296181D01*
X200830D01*
X200731Y296167D01*
X200604Y296152D01*
X200463Y296124D01*
X200294Y296096D01*
X200110Y296054D01*
X200252Y297111D01*
X200322D01*
X200378Y297097D01*
X200562D01*
X200717Y297125D01*
X200900Y297153D01*
X201111Y297196D01*
X201351Y297266D01*
X201577Y297365D01*
X201816Y297492D01*
X201830D01*
X201845Y297506D01*
X201915Y297562D01*
X202014Y297661D01*
X202126Y297788D01*
X202239Y297971D01*
X202338Y298183D01*
X202408Y298422D01*
X202437Y298563D01*
Y298718D01*
Y298732D01*
Y298746D01*
Y298831D01*
X202408Y298944D01*
X202380Y299099D01*
X202324Y299268D01*
X202253Y299451D01*
X202141Y299634D01*
X201985Y299804D01*
X201971Y299818D01*
X201901Y299874D01*
X201802Y299945D01*
X201675Y300029D01*
X201506Y300100D01*
X201309Y300170D01*
X201083Y300226D01*
X200830Y300241D01*
X200717D01*
X200590Y300212D01*
X200421Y300184D01*
X200237Y300128D01*
X200054Y300057D01*
X199857Y299945D01*
X199674Y299804D01*
X199659Y299790D01*
X199603Y299719D01*
X199518Y299620D01*
X199420Y299479D01*
X199321Y299296D01*
X199222Y299071D01*
X199138Y298803D01*
X199081Y298493D01*
X197883Y298704D01*
Y298718D01*
X197897Y298760D01*
X197911Y298817D01*
X197925Y298901D01*
X197954Y299000D01*
X197996Y299113D01*
X198081Y299381D01*
X198221Y299691D01*
X198391Y300001D01*
X198602Y300297D01*
X198870Y300565D01*
X198884Y300579D01*
X198912Y300593D01*
X198955Y300621D01*
X199011Y300664D01*
X199081Y300720D01*
X199180Y300776D01*
X199279Y300833D01*
X199406Y300903D01*
X199688Y301016D01*
X200012Y301129D01*
X200392Y301199D01*
X200590Y301227D01*
X200942D01*
X201097Y301213D01*
D02*
G37*
G36*
X149638Y194741D02*
X149765D01*
X150061Y194727D01*
X150371Y194685D01*
X150709Y194642D01*
X151019Y194572D01*
X151174Y194530D01*
X151301Y194487D01*
X151315D01*
X151329Y194473D01*
X151414Y194431D01*
X151541Y194375D01*
X151696Y194276D01*
X151865Y194149D01*
X152049Y193980D01*
X152218Y193782D01*
X152387Y193557D01*
Y193543D01*
X152401Y193529D01*
X152457Y193444D01*
X152514Y193303D01*
X152598Y193120D01*
X152669Y192908D01*
X152739Y192655D01*
X152781Y192387D01*
X152796Y192091D01*
Y192077D01*
Y192048D01*
Y191992D01*
X152781Y191922D01*
Y191823D01*
X152767Y191724D01*
X152711Y191485D01*
X152626Y191203D01*
X152514Y190907D01*
X152345Y190611D01*
X152232Y190470D01*
X152119Y190329D01*
X152105Y190315D01*
X152091Y190301D01*
X152049Y190258D01*
X151992Y190216D01*
X151922Y190159D01*
X151837Y190103D01*
X151724Y190033D01*
X151611Y189948D01*
X151470Y189878D01*
X151315Y189807D01*
X151146Y189722D01*
X150963Y189652D01*
X150752Y189596D01*
X150540Y189525D01*
X150301Y189483D01*
X150047Y189441D01*
X150075Y189426D01*
X150131Y189398D01*
X150216Y189342D01*
X150329Y189286D01*
X150582Y189130D01*
X150709Y189032D01*
X150822Y188947D01*
X150850Y188919D01*
X150921Y188848D01*
X151033Y188736D01*
X151174Y188595D01*
X151329Y188397D01*
X151513Y188186D01*
X151696Y187932D01*
X151893Y187650D01*
X153571Y185000D01*
X151964D01*
X150681Y187030D01*
Y187044D01*
X150653Y187072D01*
X150625Y187115D01*
X150582Y187171D01*
X150484Y187326D01*
X150357Y187523D01*
X150202Y187735D01*
X150047Y187960D01*
X149892Y188172D01*
X149751Y188369D01*
X149737Y188383D01*
X149694Y188440D01*
X149624Y188524D01*
X149525Y188623D01*
X149314Y188834D01*
X149201Y188933D01*
X149088Y189018D01*
X149074Y189032D01*
X149046Y189046D01*
X148989Y189074D01*
X148905Y189116D01*
X148820Y189159D01*
X148722Y189201D01*
X148496Y189271D01*
X148482D01*
X148454Y189286D01*
X148397D01*
X148327Y189300D01*
X148228Y189314D01*
X148115D01*
X147960Y189328D01*
X146297D01*
Y185000D01*
X145000D01*
Y194755D01*
X149525D01*
X149638Y194741D01*
D02*
G37*
G36*
X350724Y309343D02*
X350893D01*
X351077Y309329D01*
X351288Y309315D01*
X351725Y309273D01*
X352190Y309202D01*
X352655Y309118D01*
X352867Y309061D01*
X353078Y309005D01*
X353092D01*
X353121Y308991D01*
X353177Y308962D01*
X353247Y308934D01*
X353346Y308906D01*
X353445Y308850D01*
X353685Y308737D01*
X353938Y308596D01*
X354206Y308413D01*
X354474Y308201D01*
X354699Y307948D01*
Y307933D01*
X354728Y307919D01*
X354756Y307877D01*
X354784Y307821D01*
X354840Y307750D01*
X354883Y307666D01*
X354995Y307454D01*
X355094Y307200D01*
X355193Y306904D01*
X355249Y306552D01*
X355277Y306171D01*
Y306157D01*
Y306143D01*
Y306101D01*
Y306044D01*
X355263Y305889D01*
X355235Y305706D01*
X355193Y305495D01*
X355136Y305269D01*
X355066Y305030D01*
X354953Y304804D01*
Y304790D01*
X354939Y304776D01*
X354897Y304705D01*
X354826Y304592D01*
X354728Y304452D01*
X354587Y304296D01*
X354432Y304127D01*
X354248Y303972D01*
X354037Y303817D01*
X354009Y303803D01*
X353938Y303747D01*
X353811Y303690D01*
X353628Y303592D01*
X353417Y303507D01*
X353177Y303394D01*
X352895Y303295D01*
X352585Y303211D01*
X352571D01*
X352543Y303197D01*
X352500Y303183D01*
X352430Y303169D01*
X352345Y303155D01*
X352247Y303141D01*
X352120Y303112D01*
X351979Y303098D01*
X351824Y303070D01*
X351655Y303056D01*
X351457Y303042D01*
X351260Y303014D01*
X351034Y302999D01*
X350809D01*
X350555Y302985D01*
X350005D01*
X349850Y302999D01*
X349681D01*
X349498Y303014D01*
X349300Y303028D01*
X348849Y303070D01*
X348384Y303141D01*
X347933Y303225D01*
X347721Y303281D01*
X347510Y303352D01*
X347496D01*
X347468Y303366D01*
X347411Y303394D01*
X347341Y303422D01*
X347242Y303451D01*
X347144Y303507D01*
X346904Y303620D01*
X346650Y303761D01*
X346368Y303944D01*
X346114Y304155D01*
X345875Y304409D01*
Y304423D01*
X345846Y304437D01*
X345818Y304480D01*
X345790Y304536D01*
X345748Y304607D01*
X345691Y304677D01*
X345593Y304888D01*
X345494Y305142D01*
X345395Y305438D01*
X345339Y305791D01*
X345311Y306171D01*
Y306185D01*
Y306228D01*
Y306312D01*
X345325Y306411D01*
X345339Y306524D01*
X345367Y306665D01*
X345395Y306820D01*
X345438Y306989D01*
X345494Y307158D01*
X345550Y307341D01*
X345635Y307525D01*
X345734Y307708D01*
X345846Y307891D01*
X345988Y308074D01*
X346143Y308244D01*
X346312Y308399D01*
X346326Y308413D01*
X346368Y308441D01*
X346439Y308483D01*
X346551Y308554D01*
X346678Y308624D01*
X346847Y308695D01*
X347045Y308793D01*
X347270Y308878D01*
X347524Y308962D01*
X347820Y309047D01*
X348144Y309132D01*
X348511Y309202D01*
X348906Y309273D01*
X349328Y309315D01*
X349794Y309343D01*
X350287Y309357D01*
X350569D01*
X350724Y309343D01*
D02*
G37*
G36*
X373651Y19783D02*
X373764Y19769D01*
X373905Y19755D01*
X374060Y19727D01*
X374215Y19699D01*
X374581Y19600D01*
X374948Y19459D01*
X375131Y19375D01*
X375315Y19276D01*
X375484Y19149D01*
X375639Y19008D01*
X375653Y18994D01*
X375681Y18980D01*
X375709Y18923D01*
X375766Y18867D01*
X375836Y18796D01*
X375907Y18698D01*
X375977Y18599D01*
X376062Y18472D01*
X376203Y18204D01*
X376344Y17866D01*
X376400Y17697D01*
X376428Y17500D01*
X376456Y17302D01*
X376470Y17091D01*
Y17063D01*
Y16992D01*
X376456Y16879D01*
X376442Y16724D01*
X376414Y16555D01*
X376358Y16358D01*
X376301Y16146D01*
X376217Y15935D01*
X376203Y15907D01*
X376175Y15836D01*
X376118Y15723D01*
X376034Y15568D01*
X375921Y15399D01*
X375780Y15188D01*
X375611Y14976D01*
X375413Y14737D01*
X375385Y14708D01*
X375315Y14624D01*
X375244Y14553D01*
X375174Y14483D01*
X375089Y14398D01*
X374976Y14286D01*
X374864Y14173D01*
X374723Y14046D01*
X374581Y13905D01*
X374412Y13750D01*
X374229Y13595D01*
X374032Y13412D01*
X373806Y13228D01*
X373581Y13031D01*
X373567Y13017D01*
X373538Y12989D01*
X373482Y12946D01*
X373411Y12890D01*
X373327Y12805D01*
X373228Y12721D01*
X373003Y12537D01*
X372763Y12326D01*
X372537Y12115D01*
X372340Y11931D01*
X372256Y11861D01*
X372185Y11790D01*
X372171Y11776D01*
X372129Y11734D01*
X372072Y11678D01*
X372002Y11593D01*
X371931Y11494D01*
X371847Y11396D01*
X371678Y11156D01*
X376485D01*
Y10000D01*
X370014D01*
Y10014D01*
Y10071D01*
Y10155D01*
X370028Y10268D01*
X370042Y10395D01*
X370070Y10536D01*
X370099Y10677D01*
X370155Y10832D01*
Y10846D01*
X370169Y10860D01*
X370197Y10944D01*
X370254Y11071D01*
X370338Y11241D01*
X370451Y11438D01*
X370592Y11664D01*
X370747Y11889D01*
X370945Y12129D01*
Y12143D01*
X370973Y12157D01*
X371043Y12241D01*
X371170Y12368D01*
X371353Y12552D01*
X371565Y12763D01*
X371833Y13017D01*
X372157Y13299D01*
X372509Y13595D01*
X372523Y13609D01*
X372580Y13651D01*
X372664Y13722D01*
X372763Y13806D01*
X372890Y13919D01*
X373045Y14046D01*
X373200Y14187D01*
X373383Y14342D01*
X373736Y14680D01*
X374088Y15019D01*
X374257Y15188D01*
X374412Y15357D01*
X374553Y15512D01*
X374666Y15667D01*
Y15681D01*
X374694Y15695D01*
X374723Y15738D01*
X374751Y15794D01*
X374849Y15949D01*
X374962Y16132D01*
X375061Y16358D01*
X375159Y16597D01*
X375216Y16865D01*
X375244Y17119D01*
Y17133D01*
Y17147D01*
X375230Y17232D01*
X375216Y17373D01*
X375174Y17528D01*
X375117Y17725D01*
X375019Y17923D01*
X374892Y18120D01*
X374723Y18317D01*
X374694Y18345D01*
X374624Y18402D01*
X374525Y18472D01*
X374370Y18571D01*
X374173Y18656D01*
X373947Y18740D01*
X373679Y18796D01*
X373383Y18811D01*
X373299D01*
X373242Y18796D01*
X373073Y18782D01*
X372876Y18740D01*
X372664Y18684D01*
X372425Y18585D01*
X372199Y18458D01*
X371988Y18289D01*
X371959Y18261D01*
X371903Y18190D01*
X371819Y18078D01*
X371734Y17908D01*
X371635Y17711D01*
X371551Y17457D01*
X371494Y17175D01*
X371466Y16851D01*
X370240Y16978D01*
Y16992D01*
X370254Y17034D01*
Y17105D01*
X370268Y17204D01*
X370296Y17316D01*
X370324Y17443D01*
X370367Y17598D01*
X370409Y17753D01*
X370522Y18092D01*
X370691Y18430D01*
X370789Y18599D01*
X370916Y18768D01*
X371043Y18923D01*
X371184Y19064D01*
X371198Y19079D01*
X371226Y19093D01*
X371269Y19135D01*
X371339Y19177D01*
X371424Y19233D01*
X371522Y19290D01*
X371635Y19360D01*
X371776Y19431D01*
X371931Y19501D01*
X372100Y19572D01*
X372284Y19628D01*
X372481Y19685D01*
X372692Y19727D01*
X372918Y19769D01*
X373158Y19783D01*
X373411Y19797D01*
X373552D01*
X373651Y19783D01*
D02*
G37*
G36*
X382800Y13440D02*
X384125D01*
Y12340D01*
X382800D01*
Y10000D01*
X381602D01*
Y12340D01*
X377359D01*
Y13440D01*
X381827Y19755D01*
X382800D01*
Y13440D01*
D02*
G37*
G36*
X157800Y194783D02*
X157913Y194769D01*
X158054Y194755D01*
X158209Y194727D01*
X158364Y194699D01*
X158730Y194600D01*
X159097Y194459D01*
X159280Y194375D01*
X159464Y194276D01*
X159633Y194149D01*
X159788Y194008D01*
X159802Y193994D01*
X159830Y193980D01*
X159858Y193923D01*
X159915Y193867D01*
X159985Y193797D01*
X160056Y193698D01*
X160126Y193599D01*
X160211Y193472D01*
X160352Y193204D01*
X160493Y192866D01*
X160549Y192697D01*
X160577Y192500D01*
X160605Y192302D01*
X160620Y192091D01*
Y192063D01*
Y191992D01*
X160605Y191879D01*
X160591Y191724D01*
X160563Y191555D01*
X160507Y191358D01*
X160450Y191146D01*
X160366Y190935D01*
X160352Y190907D01*
X160323Y190836D01*
X160267Y190723D01*
X160182Y190568D01*
X160070Y190399D01*
X159929Y190188D01*
X159760Y189976D01*
X159562Y189737D01*
X159534Y189708D01*
X159464Y189624D01*
X159393Y189553D01*
X159323Y189483D01*
X159238Y189398D01*
X159125Y189286D01*
X159012Y189173D01*
X158871Y189046D01*
X158730Y188905D01*
X158561Y188750D01*
X158378Y188595D01*
X158181Y188412D01*
X157955Y188228D01*
X157730Y188031D01*
X157716Y188017D01*
X157687Y187989D01*
X157631Y187946D01*
X157560Y187890D01*
X157476Y187805D01*
X157377Y187721D01*
X157152Y187537D01*
X156912Y187326D01*
X156686Y187115D01*
X156489Y186931D01*
X156404Y186861D01*
X156334Y186790D01*
X156320Y186776D01*
X156278Y186734D01*
X156221Y186678D01*
X156151Y186593D01*
X156080Y186494D01*
X155996Y186396D01*
X155827Y186156D01*
X160634D01*
Y185000D01*
X154163D01*
Y185014D01*
Y185070D01*
Y185155D01*
X154177Y185268D01*
X154191Y185395D01*
X154219Y185536D01*
X154248Y185677D01*
X154304Y185832D01*
Y185846D01*
X154318Y185860D01*
X154346Y185944D01*
X154403Y186071D01*
X154487Y186241D01*
X154600Y186438D01*
X154741Y186663D01*
X154896Y186889D01*
X155093Y187129D01*
Y187143D01*
X155122Y187157D01*
X155192Y187241D01*
X155319Y187368D01*
X155502Y187552D01*
X155714Y187763D01*
X155982Y188017D01*
X156306Y188299D01*
X156658Y188595D01*
X156672Y188609D01*
X156729Y188651D01*
X156813Y188722D01*
X156912Y188806D01*
X157039Y188919D01*
X157194Y189046D01*
X157349Y189187D01*
X157532Y189342D01*
X157885Y189680D01*
X158237Y190019D01*
X158406Y190188D01*
X158561Y190357D01*
X158702Y190512D01*
X158815Y190667D01*
Y190681D01*
X158843Y190695D01*
X158871Y190737D01*
X158900Y190794D01*
X158998Y190949D01*
X159111Y191132D01*
X159210Y191358D01*
X159308Y191597D01*
X159365Y191865D01*
X159393Y192119D01*
Y192133D01*
Y192147D01*
X159379Y192232D01*
X159365Y192373D01*
X159323Y192528D01*
X159266Y192725D01*
X159167Y192922D01*
X159041Y193120D01*
X158871Y193317D01*
X158843Y193345D01*
X158773Y193402D01*
X158674Y193472D01*
X158519Y193571D01*
X158322Y193656D01*
X158096Y193740D01*
X157828Y193797D01*
X157532Y193811D01*
X157448D01*
X157391Y193797D01*
X157222Y193782D01*
X157025Y193740D01*
X156813Y193684D01*
X156574Y193585D01*
X156348Y193458D01*
X156137Y193289D01*
X156108Y193261D01*
X156052Y193190D01*
X155968Y193078D01*
X155883Y192908D01*
X155784Y192711D01*
X155700Y192457D01*
X155643Y192175D01*
X155615Y191851D01*
X154389Y191978D01*
Y191992D01*
X154403Y192034D01*
Y192105D01*
X154417Y192204D01*
X154445Y192316D01*
X154473Y192443D01*
X154515Y192598D01*
X154558Y192753D01*
X154670Y193092D01*
X154840Y193430D01*
X154938Y193599D01*
X155065Y193768D01*
X155192Y193923D01*
X155333Y194064D01*
X155347Y194079D01*
X155375Y194093D01*
X155418Y194135D01*
X155488Y194177D01*
X155573Y194233D01*
X155671Y194290D01*
X155784Y194360D01*
X155925Y194431D01*
X156080Y194501D01*
X156249Y194572D01*
X156433Y194628D01*
X156630Y194685D01*
X156841Y194727D01*
X157067Y194769D01*
X157307Y194783D01*
X157560Y194797D01*
X157701D01*
X157800Y194783D01*
D02*
G37*
%LPC*%
G36*
X127899Y183811D02*
X127814D01*
X127758Y183797D01*
X127603Y183768D01*
X127420Y183726D01*
X127208Y183641D01*
X126982Y183515D01*
X126870Y183430D01*
X126757Y183345D01*
X126658Y183233D01*
X126559Y183106D01*
Y183092D01*
X126531Y183064D01*
X126503Y183007D01*
X126461Y182937D01*
X126419Y182824D01*
X126362Y182697D01*
X126320Y182542D01*
X126264Y182359D01*
X126207Y182147D01*
X126151Y181908D01*
X126094Y181640D01*
X126052Y181344D01*
X126010Y181005D01*
X125982Y180639D01*
X125968Y180244D01*
X125953Y179807D01*
Y179779D01*
Y179708D01*
Y179582D01*
X125968Y179412D01*
Y179229D01*
X125982Y179004D01*
X125996Y178764D01*
X126024Y178510D01*
X126094Y177960D01*
X126137Y177693D01*
X126193Y177439D01*
X126249Y177199D01*
X126334Y176974D01*
X126419Y176776D01*
X126517Y176607D01*
Y176593D01*
X126545Y176579D01*
X126616Y176480D01*
X126743Y176353D01*
X126898Y176212D01*
X127109Y176071D01*
X127349Y175944D01*
X127617Y175846D01*
X127758Y175832D01*
X127913Y175818D01*
X127997D01*
X128054Y175832D01*
X128195Y175860D01*
X128392Y175916D01*
X128604Y176015D01*
X128843Y176156D01*
X128956Y176241D01*
X129069Y176353D01*
X129182Y176466D01*
X129294Y176607D01*
Y176621D01*
X129323Y176649D01*
X129351Y176692D01*
X129379Y176762D01*
X129435Y176861D01*
X129478Y176988D01*
X129534Y177129D01*
X129590Y177298D01*
X129633Y177509D01*
X129689Y177735D01*
X129746Y178003D01*
X129788Y178285D01*
X129816Y178623D01*
X129844Y178975D01*
X129872Y179370D01*
Y179807D01*
Y179821D01*
Y179835D01*
Y179906D01*
Y180033D01*
X129858Y180202D01*
Y180385D01*
X129844Y180611D01*
X129830Y180850D01*
X129802Y181118D01*
X129731Y181654D01*
X129689Y181922D01*
X129633Y182175D01*
X129576Y182415D01*
X129492Y182641D01*
X129407Y182838D01*
X129309Y183007D01*
Y183021D01*
X129280Y183035D01*
X129252Y183078D01*
X129210Y183134D01*
X129083Y183261D01*
X128928Y183416D01*
X128716Y183557D01*
X128477Y183684D01*
X128350Y183740D01*
X128209Y183782D01*
X128054Y183797D01*
X127899Y183811D01*
D02*
G37*
G36*
X350287Y308131D02*
X350061D01*
X349892Y308117D01*
X349709D01*
X349484Y308103D01*
X349244Y308088D01*
X348990Y308060D01*
X348440Y307990D01*
X348172Y307948D01*
X347919Y307891D01*
X347679Y307835D01*
X347454Y307750D01*
X347256Y307666D01*
X347087Y307567D01*
X347073D01*
X347059Y307539D01*
X346960Y307468D01*
X346833Y307341D01*
X346692Y307186D01*
X346551Y306975D01*
X346424Y306735D01*
X346326Y306467D01*
X346312Y306326D01*
X346298Y306171D01*
Y306157D01*
Y306129D01*
Y306087D01*
X346312Y306030D01*
X346340Y305889D01*
X346396Y305692D01*
X346495Y305481D01*
X346636Y305241D01*
X346721Y305128D01*
X346833Y305015D01*
X346946Y304903D01*
X347087Y304790D01*
X347101D01*
X347129Y304762D01*
X347172Y304733D01*
X347242Y304705D01*
X347341Y304649D01*
X347468Y304607D01*
X347609Y304550D01*
X347778Y304494D01*
X347989Y304452D01*
X348215Y304395D01*
X348483Y304339D01*
X348765Y304296D01*
X349103Y304268D01*
X349455Y304240D01*
X349850Y304212D01*
X350513D01*
X350682Y304226D01*
X350865D01*
X351091Y304240D01*
X351330Y304254D01*
X351598Y304282D01*
X352134Y304353D01*
X352402Y304395D01*
X352655Y304452D01*
X352895Y304508D01*
X353121Y304592D01*
X353318Y304677D01*
X353487Y304776D01*
X353501D01*
X353515Y304804D01*
X353558Y304832D01*
X353614Y304874D01*
X353741Y305001D01*
X353896Y305156D01*
X354037Y305368D01*
X354164Y305607D01*
X354220Y305734D01*
X354262Y305875D01*
X354277Y306030D01*
X354291Y306185D01*
Y306199D01*
Y306228D01*
Y306270D01*
X354277Y306326D01*
X354248Y306481D01*
X354206Y306665D01*
X354122Y306876D01*
X353995Y307102D01*
X353910Y307215D01*
X353825Y307327D01*
X353713Y307426D01*
X353586Y307525D01*
X353572D01*
X353544Y307553D01*
X353487Y307581D01*
X353417Y307623D01*
X353304Y307666D01*
X353177Y307722D01*
X353022Y307764D01*
X352839Y307821D01*
X352627Y307877D01*
X352388Y307933D01*
X352120Y307990D01*
X351824Y308032D01*
X351485Y308074D01*
X351119Y308103D01*
X350724Y308117D01*
X350287Y308131D01*
D02*
G37*
G36*
X381602Y17810D02*
X378529Y13440D01*
X381602D01*
Y17810D01*
D02*
G37*
G36*
X350344Y318605D02*
X350160D01*
X350033Y318591D01*
X349878Y318577D01*
X349695Y318549D01*
X349484Y318520D01*
X349272Y318492D01*
X348793Y318379D01*
X348553Y318309D01*
X348313Y318210D01*
X348074Y318111D01*
X347848Y317985D01*
X347623Y317844D01*
X347425Y317675D01*
X347411Y317660D01*
X347383Y317632D01*
X347327Y317576D01*
X347270Y317505D01*
X347186Y317407D01*
X347101Y317294D01*
X347017Y317167D01*
X346918Y317012D01*
X346819Y316857D01*
X346735Y316674D01*
X346650Y316476D01*
X346566Y316265D01*
X346509Y316025D01*
X346453Y315786D01*
X346424Y315532D01*
X346410Y315264D01*
Y315250D01*
Y315236D01*
Y315193D01*
Y315137D01*
X346424Y315010D01*
X346439Y314841D01*
X346467Y314629D01*
X346523Y314418D01*
X346580Y314178D01*
X346664Y313953D01*
X346678Y313981D01*
X346735Y314051D01*
X346805Y314178D01*
X346890Y314333D01*
X346974Y314531D01*
X347073Y314742D01*
X347158Y314982D01*
X347228Y315236D01*
X348158Y314911D01*
Y314897D01*
X348144Y314855D01*
X348130Y314799D01*
X348102Y314728D01*
X348074Y314629D01*
X348032Y314517D01*
X347933Y314263D01*
X347792Y313967D01*
X347637Y313657D01*
X347454Y313361D01*
X347228Y313065D01*
X347242Y313051D01*
X347270Y313008D01*
X347341Y312952D01*
X347425Y312882D01*
X347538Y312797D01*
X347665Y312698D01*
X347820Y312600D01*
X348003Y312487D01*
X348215Y312388D01*
X348455Y312289D01*
X348708Y312191D01*
X348976Y312106D01*
X349286Y312022D01*
X349610Y311965D01*
X349963Y311937D01*
X350344Y311923D01*
X350541D01*
X350654Y311937D01*
X350766D01*
X350907Y311951D01*
X351048Y311979D01*
X351373Y312022D01*
X351725Y312092D01*
X352077Y312191D01*
X352416Y312332D01*
X352430D01*
X352458Y312346D01*
X352500Y312374D01*
X352557Y312402D01*
X352726Y312501D01*
X352923Y312628D01*
X353149Y312797D01*
X353374Y313008D01*
X353600Y313248D01*
X353797Y313516D01*
Y313530D01*
X353825Y313544D01*
X353839Y313586D01*
X353882Y313657D01*
X353910Y313727D01*
X353952Y313812D01*
X354051Y314023D01*
X354136Y314277D01*
X354220Y314573D01*
X354277Y314911D01*
X354291Y315264D01*
Y315278D01*
Y315320D01*
Y315405D01*
X354277Y315504D01*
X354262Y315630D01*
X354234Y315771D01*
X354206Y315926D01*
X354164Y316096D01*
X354107Y316293D01*
X354051Y316476D01*
X353966Y316674D01*
X353868Y316885D01*
X353755Y317082D01*
X353614Y317280D01*
X353473Y317477D01*
X353290Y317660D01*
X353276Y317675D01*
X353247Y317703D01*
X353191Y317745D01*
X353106Y317801D01*
X353008Y317886D01*
X352881Y317956D01*
X352726Y318041D01*
X352557Y318126D01*
X352359Y318224D01*
X352134Y318309D01*
X351894Y318379D01*
X351626Y318450D01*
X351344Y318520D01*
X351034Y318563D01*
X350696Y318591D01*
X350344Y318605D01*
D02*
G37*
G36*
X149370Y193670D02*
X146297D01*
Y190441D01*
X149201D01*
X149370Y190456D01*
X149567Y190470D01*
X149793Y190484D01*
X150019Y190512D01*
X150244Y190554D01*
X150441Y190611D01*
X150470Y190625D01*
X150526Y190653D01*
X150611Y190695D01*
X150723Y190752D01*
X150850Y190836D01*
X150977Y190935D01*
X151104Y191062D01*
X151203Y191203D01*
X151217Y191217D01*
X151245Y191273D01*
X151287Y191358D01*
X151344Y191471D01*
X151386Y191597D01*
X151428Y191738D01*
X151456Y191908D01*
X151470Y192077D01*
Y192091D01*
Y192105D01*
X151456Y192190D01*
X151442Y192316D01*
X151414Y192486D01*
X151344Y192655D01*
X151259Y192852D01*
X151132Y193035D01*
X150963Y193219D01*
X150935Y193233D01*
X150864Y193289D01*
X150752Y193360D01*
X150568Y193444D01*
X150357Y193529D01*
X150075Y193599D01*
X149751Y193656D01*
X149370Y193670D01*
D02*
G37*
G36*
X189370D02*
X186297D01*
Y190441D01*
X189201D01*
X189370Y190456D01*
X189567Y190470D01*
X189793Y190484D01*
X190019Y190512D01*
X190244Y190554D01*
X190441Y190611D01*
X190470Y190625D01*
X190526Y190653D01*
X190611Y190695D01*
X190723Y190752D01*
X190850Y190836D01*
X190977Y190935D01*
X191104Y191062D01*
X191203Y191203D01*
X191217Y191217D01*
X191245Y191273D01*
X191287Y191358D01*
X191344Y191471D01*
X191386Y191597D01*
X191428Y191738D01*
X191456Y191908D01*
X191471Y192077D01*
Y192091D01*
Y192105D01*
X191456Y192190D01*
X191442Y192316D01*
X191414Y192486D01*
X191344Y192655D01*
X191259Y192852D01*
X191132Y193035D01*
X190963Y193219D01*
X190935Y193233D01*
X190864Y193289D01*
X190752Y193360D01*
X190568Y193444D01*
X190357Y193529D01*
X190075Y193599D01*
X189751Y193656D01*
X189370Y193670D01*
D02*
G37*
G36*
X192780Y300100D02*
X189707D01*
Y296871D01*
X192611D01*
X192780Y296886D01*
X192977Y296900D01*
X193203Y296914D01*
X193428Y296942D01*
X193654Y296984D01*
X193852Y297041D01*
X193880Y297055D01*
X193936Y297083D01*
X194021Y297125D01*
X194133Y297182D01*
X194260Y297266D01*
X194387Y297365D01*
X194514Y297492D01*
X194613Y297633D01*
X194627Y297647D01*
X194655Y297703D01*
X194697Y297788D01*
X194754Y297901D01*
X194796Y298027D01*
X194838Y298168D01*
X194866Y298337D01*
X194881Y298507D01*
Y298521D01*
Y298535D01*
X194866Y298619D01*
X194852Y298746D01*
X194824Y298916D01*
X194754Y299085D01*
X194669Y299282D01*
X194542Y299465D01*
X194373Y299648D01*
X194345Y299663D01*
X194274Y299719D01*
X194162Y299790D01*
X193978Y299874D01*
X193767Y299959D01*
X193485Y300029D01*
X193161Y300086D01*
X192780Y300100D01*
D02*
G37*
G36*
X373508Y71790D02*
X370435D01*
Y68561D01*
X373339D01*
X373508Y68576D01*
X373705Y68590D01*
X373931Y68604D01*
X374156Y68632D01*
X374382Y68674D01*
X374579Y68731D01*
X374608Y68745D01*
X374664Y68773D01*
X374749Y68815D01*
X374861Y68872D01*
X374988Y68956D01*
X375115Y69055D01*
X375242Y69182D01*
X375341Y69323D01*
X375355Y69337D01*
X375383Y69393D01*
X375425Y69478D01*
X375482Y69591D01*
X375524Y69717D01*
X375566Y69858D01*
X375594Y70027D01*
X375608Y70197D01*
Y70211D01*
Y70225D01*
X375594Y70310D01*
X375580Y70436D01*
X375552Y70606D01*
X375482Y70775D01*
X375397Y70972D01*
X375270Y71155D01*
X375101Y71339D01*
X375073Y71353D01*
X375002Y71409D01*
X374890Y71480D01*
X374706Y71564D01*
X374495Y71649D01*
X374213Y71719D01*
X373889Y71775D01*
X373508Y71790D01*
D02*
G37*
G36*
X382305Y70930D02*
X379231Y66560D01*
X382305D01*
Y70930D01*
D02*
G37*
G36*
X399868Y74005D02*
X397613D01*
Y66562D01*
X399925D01*
X400023Y66576D01*
X400235Y66590D01*
X400475Y66604D01*
X400728Y66632D01*
X400982Y66675D01*
X401194Y66731D01*
X401222Y66745D01*
X401292Y66759D01*
X401391Y66802D01*
X401518Y66858D01*
X401659Y66943D01*
X401800Y67027D01*
X401941Y67126D01*
X402082Y67239D01*
X402096Y67267D01*
X402152Y67323D01*
X402237Y67422D01*
X402335Y67563D01*
X402448Y67746D01*
X402575Y67958D01*
X402688Y68197D01*
X402786Y68465D01*
Y68479D01*
X402801Y68507D01*
X402815Y68550D01*
X402829Y68606D01*
X402843Y68677D01*
X402871Y68775D01*
X402899Y68874D01*
X402928Y68987D01*
X402970Y69269D01*
X403012Y69593D01*
X403040Y69959D01*
X403054Y70354D01*
Y70368D01*
Y70424D01*
Y70495D01*
X403040Y70608D01*
Y70735D01*
X403026Y70876D01*
X403012Y71045D01*
X402998Y71214D01*
X402928Y71595D01*
X402843Y71989D01*
X402716Y72356D01*
X402631Y72539D01*
X402547Y72694D01*
Y72708D01*
X402519Y72736D01*
X402491Y72779D01*
X402462Y72835D01*
X402350Y72976D01*
X402209Y73145D01*
X402025Y73328D01*
X401814Y73512D01*
X401574Y73667D01*
X401320Y73794D01*
X401292Y73808D01*
X401222Y73822D01*
X401095Y73864D01*
X400912Y73906D01*
X400686Y73935D01*
X400404Y73977D01*
X400235Y73991D01*
X400052D01*
X399868Y74005D01*
D02*
G37*
G36*
X408834Y74217D02*
X408750D01*
X408693Y74202D01*
X408538Y74174D01*
X408355Y74132D01*
X408143Y74047D01*
X407918Y73921D01*
X407805Y73836D01*
X407692Y73751D01*
X407594Y73639D01*
X407495Y73512D01*
Y73498D01*
X407467Y73470D01*
X407439Y73413D01*
X407396Y73343D01*
X407354Y73230D01*
X407298Y73103D01*
X407255Y72948D01*
X407199Y72765D01*
X407142Y72553D01*
X407086Y72313D01*
X407030Y72046D01*
X406987Y71750D01*
X406945Y71411D01*
X406917Y71045D01*
X406903Y70650D01*
X406889Y70213D01*
Y70185D01*
Y70114D01*
Y69988D01*
X406903Y69818D01*
Y69635D01*
X406917Y69409D01*
X406931Y69170D01*
X406959Y68916D01*
X407030Y68366D01*
X407072Y68099D01*
X407128Y67845D01*
X407185Y67605D01*
X407269Y67380D01*
X407354Y67182D01*
X407453Y67013D01*
Y66999D01*
X407481Y66985D01*
X407551Y66886D01*
X407678Y66759D01*
X407833Y66618D01*
X408045Y66477D01*
X408284Y66350D01*
X408552Y66252D01*
X408693Y66238D01*
X408848Y66224D01*
X408933D01*
X408989Y66238D01*
X409130Y66266D01*
X409328Y66322D01*
X409539Y66421D01*
X409779Y66562D01*
X409891Y66646D01*
X410004Y66759D01*
X410117Y66872D01*
X410230Y67013D01*
Y67027D01*
X410258Y67055D01*
X410286Y67098D01*
X410314Y67168D01*
X410371Y67267D01*
X410413Y67394D01*
X410469Y67535D01*
X410526Y67704D01*
X410568Y67915D01*
X410625Y68141D01*
X410681Y68409D01*
X410723Y68691D01*
X410751Y69029D01*
X410779Y69381D01*
X410808Y69776D01*
Y70213D01*
Y70227D01*
Y70241D01*
Y70312D01*
Y70439D01*
X410794Y70608D01*
Y70791D01*
X410779Y71017D01*
X410765Y71256D01*
X410737Y71524D01*
X410667Y72060D01*
X410625Y72328D01*
X410568Y72581D01*
X410512Y72821D01*
X410427Y73047D01*
X410342Y73244D01*
X410244Y73413D01*
Y73427D01*
X410216Y73441D01*
X410187Y73484D01*
X410145Y73540D01*
X410018Y73667D01*
X409863Y73822D01*
X409652Y73963D01*
X409412Y74090D01*
X409285Y74146D01*
X409144Y74188D01*
X408989Y74202D01*
X408834Y74217D01*
D02*
G37*
G36*
X179666Y248811D02*
X179525D01*
X179426Y248797D01*
X179300Y248782D01*
X179159Y248754D01*
X179004Y248726D01*
X178834Y248684D01*
X178637Y248627D01*
X178454Y248571D01*
X178256Y248486D01*
X178045Y248388D01*
X177848Y248275D01*
X177650Y248134D01*
X177453Y247993D01*
X177270Y247810D01*
X177255Y247796D01*
X177227Y247767D01*
X177185Y247711D01*
X177129Y247626D01*
X177044Y247528D01*
X176974Y247401D01*
X176889Y247246D01*
X176804Y247077D01*
X176706Y246879D01*
X176621Y246654D01*
X176551Y246414D01*
X176480Y246146D01*
X176410Y245864D01*
X176367Y245554D01*
X176339Y245216D01*
X176325Y244863D01*
Y244835D01*
Y244779D01*
Y244680D01*
X176339Y244553D01*
X176353Y244398D01*
X176381Y244215D01*
X176410Y244004D01*
X176438Y243792D01*
X176551Y243313D01*
X176621Y243073D01*
X176720Y242833D01*
X176819Y242594D01*
X176945Y242368D01*
X177086Y242143D01*
X177255Y241945D01*
X177270Y241931D01*
X177298Y241903D01*
X177354Y241847D01*
X177425Y241790D01*
X177523Y241706D01*
X177636Y241621D01*
X177763Y241537D01*
X177918Y241438D01*
X178073Y241339D01*
X178256Y241255D01*
X178454Y241170D01*
X178665Y241085D01*
X178905Y241029D01*
X179144Y240973D01*
X179398Y240944D01*
X179666Y240930D01*
X179793D01*
X179920Y240944D01*
X180089Y240959D01*
X180301Y240987D01*
X180512Y241043D01*
X180752Y241100D01*
X180977Y241184D01*
X180949Y241198D01*
X180879Y241255D01*
X180752Y241325D01*
X180597Y241410D01*
X180399Y241494D01*
X180188Y241593D01*
X179948Y241677D01*
X179694Y241748D01*
X180019Y242678D01*
X180033D01*
X180075Y242664D01*
X180131Y242650D01*
X180202Y242622D01*
X180301Y242594D01*
X180413Y242552D01*
X180667Y242453D01*
X180963Y242312D01*
X181273Y242157D01*
X181569Y241974D01*
X181865Y241748D01*
X181879Y241762D01*
X181922Y241790D01*
X181978Y241861D01*
X182048Y241945D01*
X182133Y242058D01*
X182232Y242185D01*
X182330Y242340D01*
X182443Y242523D01*
X182542Y242735D01*
X182641Y242974D01*
X182739Y243228D01*
X182824Y243496D01*
X182908Y243806D01*
X182965Y244130D01*
X182993Y244483D01*
X183007Y244863D01*
Y244878D01*
Y244920D01*
Y244976D01*
Y245061D01*
X182993Y245174D01*
Y245286D01*
X182979Y245427D01*
X182951Y245568D01*
X182908Y245893D01*
X182838Y246245D01*
X182739Y246597D01*
X182598Y246936D01*
Y246950D01*
X182584Y246978D01*
X182556Y247020D01*
X182528Y247077D01*
X182429Y247246D01*
X182302Y247443D01*
X182133Y247669D01*
X181922Y247894D01*
X181682Y248120D01*
X181414Y248317D01*
X181400D01*
X181386Y248345D01*
X181344Y248360D01*
X181273Y248402D01*
X181203Y248430D01*
X181118Y248472D01*
X180907Y248571D01*
X180653Y248656D01*
X180357Y248740D01*
X180019Y248797D01*
X179666Y248811D01*
D02*
G37*
G36*
X169370Y193670D02*
X166297D01*
Y190441D01*
X169201D01*
X169370Y190456D01*
X169567Y190470D01*
X169793Y190484D01*
X170019Y190512D01*
X170244Y190554D01*
X170441Y190611D01*
X170470Y190625D01*
X170526Y190653D01*
X170611Y190695D01*
X170723Y190752D01*
X170850Y190836D01*
X170977Y190935D01*
X171104Y191062D01*
X171203Y191203D01*
X171217Y191217D01*
X171245Y191273D01*
X171287Y191358D01*
X171344Y191471D01*
X171386Y191597D01*
X171428Y191738D01*
X171456Y191908D01*
X171471Y192077D01*
Y192091D01*
Y192105D01*
X171456Y192190D01*
X171442Y192316D01*
X171414Y192486D01*
X171344Y192655D01*
X171259Y192852D01*
X171132Y193035D01*
X170963Y193219D01*
X170935Y193233D01*
X170864Y193289D01*
X170752Y193360D01*
X170568Y193444D01*
X170357Y193529D01*
X170075Y193599D01*
X169751Y193656D01*
X169370Y193670D01*
D02*
G37*
G36*
X177504Y193811D02*
X177419D01*
X177363Y193797D01*
X177208Y193768D01*
X177025Y193726D01*
X176813Y193641D01*
X176588Y193515D01*
X176475Y193430D01*
X176362Y193345D01*
X176264Y193233D01*
X176165Y193106D01*
Y193092D01*
X176137Y193064D01*
X176108Y193007D01*
X176066Y192937D01*
X176024Y192824D01*
X175968Y192697D01*
X175925Y192542D01*
X175869Y192359D01*
X175812Y192147D01*
X175756Y191908D01*
X175700Y191640D01*
X175657Y191344D01*
X175615Y191005D01*
X175587Y190639D01*
X175573Y190244D01*
X175559Y189807D01*
Y189779D01*
Y189708D01*
Y189582D01*
X175573Y189412D01*
Y189229D01*
X175587Y189004D01*
X175601Y188764D01*
X175629Y188510D01*
X175700Y187960D01*
X175742Y187693D01*
X175798Y187439D01*
X175855Y187199D01*
X175939Y186974D01*
X176024Y186776D01*
X176122Y186607D01*
Y186593D01*
X176151Y186579D01*
X176221Y186480D01*
X176348Y186353D01*
X176503Y186212D01*
X176715Y186071D01*
X176954Y185944D01*
X177222Y185846D01*
X177363Y185832D01*
X177518Y185818D01*
X177603D01*
X177659Y185832D01*
X177800Y185860D01*
X177997Y185916D01*
X178209Y186015D01*
X178449Y186156D01*
X178561Y186241D01*
X178674Y186353D01*
X178787Y186466D01*
X178900Y186607D01*
Y186621D01*
X178928Y186649D01*
X178956Y186692D01*
X178984Y186762D01*
X179041Y186861D01*
X179083Y186988D01*
X179139Y187129D01*
X179196Y187298D01*
X179238Y187509D01*
X179294Y187735D01*
X179351Y188003D01*
X179393Y188285D01*
X179421Y188623D01*
X179449Y188975D01*
X179478Y189370D01*
Y189807D01*
Y189821D01*
Y189835D01*
Y189906D01*
Y190033D01*
X179464Y190202D01*
Y190385D01*
X179449Y190611D01*
X179435Y190850D01*
X179407Y191118D01*
X179337Y191654D01*
X179294Y191922D01*
X179238Y192175D01*
X179182Y192415D01*
X179097Y192641D01*
X179012Y192838D01*
X178914Y193007D01*
Y193021D01*
X178885Y193035D01*
X178857Y193078D01*
X178815Y193134D01*
X178688Y193261D01*
X178533Y193416D01*
X178322Y193557D01*
X178082Y193684D01*
X177955Y193740D01*
X177814Y193782D01*
X177659Y193797D01*
X177504Y193811D01*
D02*
G37*
%LPD*%
D17*
X300000Y301000D02*
X329000D01*
X300000Y278000D02*
Y301000D01*
X301000Y189000D02*
X330000D01*
X300000Y190000D02*
X301000Y189000D01*
X300000Y190000D02*
Y213000D01*
X350000Y102455D02*
G03*
X150181Y106134I-99986J-2344D01*
G01*
X50000Y500000D02*
Y500000D01*
X-0Y450000D02*
X50000Y500000D01*
X-0Y50000D02*
Y450000D01*
Y50000D02*
X50000Y-0D01*
X150000D01*
X150000Y-0D01*
X150181Y181D02*
Y106134D01*
X350000Y-0D02*
Y102455D01*
Y-0D02*
X450000D01*
X500000Y50000D01*
Y450000D01*
X450000Y500000D02*
X500000Y450000D01*
X50000Y500000D02*
X450000D01*
D29*
X199500Y203000D02*
X201250D01*
Y227000D01*
X199500D02*
X201250D01*
X188750D02*
X190500D01*
X188750Y203000D02*
Y227000D01*
Y203000D02*
X190500D01*
X188750Y215000D02*
X201250D01*
X379480Y32070D02*
X381230D01*
Y56070D01*
X379480D02*
X381230D01*
X368730D02*
X370480D01*
X368730Y32070D02*
Y56070D01*
Y32070D02*
X370480D01*
X368730Y44070D02*
X381230D01*
X405460Y27560D02*
Y28830D01*
Y27560D02*
X409920D01*
Y28830D01*
X400380Y27560D02*
Y28830D01*
X395920Y27560D02*
X400380D01*
X395920D02*
Y28830D01*
X408000Y58040D02*
X409920D01*
Y27800D02*
Y58040D01*
X405460Y28830D02*
X409920D01*
X395920D02*
X400380D01*
X395920Y27800D02*
Y58040D01*
X397840D01*
X395920Y42800D02*
X399420D01*
X406420D02*
X409920D01*
X198000Y273750D02*
Y275500D01*
Y273750D02*
X222000D01*
Y275500D01*
Y284500D02*
Y286250D01*
X198000D02*
X222000D01*
X198000Y284500D02*
Y286250D01*
X210000Y273750D02*
Y286250D01*
X118750Y210000D02*
X141250D01*
X138750Y233750D02*
X141250D01*
Y186250D02*
Y233750D01*
X138750Y186250D02*
X141250D01*
X118750D02*
X121250D01*
X118750D02*
Y233750D01*
X121250D01*
X148750Y227000D02*
X150500D01*
X148750Y203000D02*
Y227000D01*
Y203000D02*
X150500D01*
X159500D02*
X161250D01*
Y227000D01*
X159500D02*
X161250D01*
X148750Y215000D02*
X161250D01*
X168750Y227000D02*
X170500D01*
X168750Y203000D02*
Y227000D01*
Y203000D02*
X170500D01*
X179500D02*
X181250D01*
Y227000D01*
X179500D02*
X181250D01*
X168750Y215000D02*
X181250D01*
D30*
X212350Y381800D02*
X372544D01*
Y314350D02*
Y381800D01*
X212350Y314350D02*
X372544D01*
X212350D02*
Y381800D01*
D31*
X402920Y41050D02*
X405420Y44550D01*
X402920D02*
X405420D01*
X402920Y41050D02*
X405170D01*
X400670D02*
X402920D01*
X400420Y44550D02*
X402920D01*
X400420D02*
X402920Y41050D01*
D32*
X195268Y246500D02*
Y253556D01*
X224600D01*
Y246500D02*
Y253556D01*
X195268Y246500D02*
X224600D01*
X271930Y484370D02*
X385626D01*
Y403230D02*
Y484370D01*
X271930Y403230D02*
X385626D01*
X271930D02*
Y484370D01*
X116930D02*
X230626D01*
Y403230D02*
Y484370D01*
X116930Y403230D02*
X230626D01*
X116930D02*
Y484370D01*
X405630Y281930D02*
Y395626D01*
X486770D01*
Y281930D02*
Y395626D01*
X405630Y281930D02*
X486770D01*
X405630Y146930D02*
Y260626D01*
X486770D01*
Y146930D02*
Y260626D01*
X405630Y146930D02*
X486770D01*
X15630D02*
Y260626D01*
X96770D01*
Y146930D02*
Y260626D01*
X15630Y146930D02*
X96770D01*
X15630Y281930D02*
Y395626D01*
X96770D01*
Y281930D02*
Y395626D01*
X15630Y281930D02*
X96770D01*
D33*
X66250Y133750D02*
X140250D01*
Y76250D02*
Y133750D01*
X66250Y76250D02*
X140250D01*
X66250D02*
Y133750D01*
D34*
X145965Y492185D02*
D03*
X300965D02*
D03*
D35*
X7815Y308465D02*
D03*
D36*
Y173465D02*
D03*
D37*
X493385Y175965D02*
D03*
Y310965D02*
D03*
M02*
