G04 Layer_Physical_Order=1*
G04 Layer_Color=11767835*
%FSLAX44Y44*%
%MOMM*%
G71*
G01*
G75*
%ADD10R,0.9000X0.8000*%
%ADD11R,0.8000X0.8000*%
%ADD12R,0.8000X0.9000*%
%ADD13R,0.8000X0.9000*%
%ADD14R,1.8000X1.3000*%
%ADD15R,9.5000X10.9000*%
%ADD16R,4.6000X1.3500*%
%ADD17C,0.2540*%
%ADD18C,0.3000*%
%ADD19C,2.0000*%
%ADD20C,4.0000*%
%ADD21C,3.0000*%
%ADD22C,2.4130*%
%ADD23C,6.0000*%
%ADD24C,1.9558*%
%ADD25O,1.7500X2.5000*%
%ADD26O,2.5000X1.7500*%
%ADD27C,1.2700*%
%ADD28C,1.0000*%
G36*
X500000Y450000D02*
Y50000D01*
X450000Y-0D01*
X350000D01*
X350000Y100000D01*
Y102455D01*
X349638Y109813D01*
X348197Y119532D01*
X345809Y129063D01*
X342499Y138314D01*
X338298Y147197D01*
X333247Y155624D01*
X327394Y163516D01*
X320796Y170796D01*
X313516Y177394D01*
X305624Y183247D01*
X300921Y186066D01*
X299909Y186796D01*
X300170Y187737D01*
X300181Y187777D01*
X300208Y187877D01*
X300231Y187960D01*
X300288D01*
X300851Y187960D01*
X300874D01*
X300874D01*
X370861D01*
Y56860D01*
X367940D01*
Y43780D01*
Y31280D01*
X382020D01*
Y35125D01*
X393076Y46181D01*
X396380D01*
Y43760D01*
X409460D01*
Y56840D01*
X396380D01*
Y54419D01*
X391370D01*
X389794Y54106D01*
X388457Y53213D01*
X383193Y47949D01*
X382020Y48435D01*
Y56860D01*
X379099D01*
Y187960D01*
X399790D01*
Y216482D01*
X446270D01*
X449544Y216913D01*
X452594Y218176D01*
X455214Y220186D01*
X457224Y222806D01*
X458306Y225419D01*
X483943Y251056D01*
X483944Y251056D01*
X485954Y253676D01*
X486477Y254939D01*
X487217Y256726D01*
X487648Y260000D01*
X487648Y260000D01*
Y335400D01*
X487648Y335400D01*
X487217Y338674D01*
X485954Y341724D01*
X483944Y344344D01*
X483943Y344344D01*
X455214Y373074D01*
X452594Y375084D01*
X449544Y376347D01*
X446270Y376778D01*
X442996Y376347D01*
X439946Y375084D01*
X437326Y373074D01*
X435316Y370454D01*
X434053Y367404D01*
X433622Y364130D01*
X434053Y360856D01*
X435316Y357806D01*
X437326Y355186D01*
X462352Y330161D01*
Y265239D01*
X438891Y241778D01*
X399790D01*
Y302040D01*
X299710D01*
Y189078D01*
Y189078D01*
X299710Y189014D01*
Y188530D01*
X299710Y188391D01*
Y188272D01*
X299676Y188245D01*
X299676Y188244D01*
X299631Y188208D01*
X299612Y188193D01*
X298793Y187524D01*
X297689Y188003D01*
X297197Y188298D01*
X288314Y192499D01*
X279063Y195809D01*
X269533Y198197D01*
X259813Y199638D01*
X250000Y200121D01*
X240186Y199638D01*
X230467Y198197D01*
X220937Y195809D01*
X211686Y192499D01*
X202803Y188298D01*
X194376Y183247D01*
X186484Y177394D01*
X179204Y170796D01*
X172606Y163516D01*
X166753Y155624D01*
X161702Y147197D01*
X157501Y138314D01*
X154191Y129063D01*
X151803Y119532D01*
X150361Y109813D01*
X150000Y102455D01*
Y100000D01*
X150000D01*
Y-0D01*
X50000D01*
X-0Y50000D01*
Y450000D01*
X50000Y500000D01*
X450000D01*
X500000Y450000D01*
D02*
G37*
%LPC*%
G36*
X55000Y190588D02*
X53054Y190332D01*
X50057Y189091D01*
X47484Y187116D01*
X45509Y184543D01*
X44268Y181546D01*
X44012Y179600D01*
X55000D01*
Y190588D01*
D02*
G37*
G36*
X57540D02*
Y179600D01*
X68528D01*
X68272Y181546D01*
X67031Y184543D01*
X65056Y187116D01*
X62483Y189091D01*
X59486Y190332D01*
X57540Y190588D01*
D02*
G37*
G36*
X68528Y177060D02*
X57540D01*
Y166072D01*
X59486Y166328D01*
X62483Y167569D01*
X65056Y169544D01*
X67031Y172117D01*
X68272Y175114D01*
X68528Y177060D01*
D02*
G37*
G36*
X445000D02*
X434012D01*
X434268Y175114D01*
X435509Y172117D01*
X437484Y169544D01*
X440057Y167569D01*
X443054Y166328D01*
X445000Y166072D01*
Y177060D01*
D02*
G37*
G36*
X458528D02*
X447540D01*
Y166072D01*
X449486Y166328D01*
X452483Y167569D01*
X455056Y169544D01*
X457031Y172117D01*
X458272Y175114D01*
X458528Y177060D01*
D02*
G37*
G36*
X218230Y238730D02*
X212960D01*
Y232960D01*
X218230D01*
Y238730D01*
D02*
G37*
G36*
X226040D02*
X220770D01*
Y232960D01*
X226040D01*
Y238730D01*
D02*
G37*
G36*
X218230Y247040D02*
X212960D01*
Y241270D01*
X218230D01*
Y247040D01*
D02*
G37*
G36*
X445000Y190588D02*
X443054Y190332D01*
X440057Y189091D01*
X437484Y187116D01*
X435509Y184543D01*
X434268Y181546D01*
X434012Y179600D01*
X445000D01*
Y190588D01*
D02*
G37*
G36*
X447540D02*
Y179600D01*
X458528D01*
X458272Y181546D01*
X457031Y184543D01*
X455056Y187116D01*
X452483Y189091D01*
X449486Y190332D01*
X447540Y190588D01*
D02*
G37*
G36*
X56270Y241555D02*
X53054Y241132D01*
X50057Y239891D01*
X47484Y237916D01*
X45509Y235343D01*
X44268Y232346D01*
X43845Y229130D01*
X44268Y225914D01*
X45509Y222917D01*
X47484Y220344D01*
X50057Y218369D01*
X53054Y217128D01*
X56270Y216705D01*
X59486Y217128D01*
X62483Y218369D01*
X65056Y220344D01*
X67031Y222917D01*
X68272Y225914D01*
X68695Y229130D01*
X68272Y232346D01*
X67031Y235343D01*
X65056Y237916D01*
X62483Y239891D01*
X59486Y241132D01*
X56270Y241555D01*
D02*
G37*
G36*
X55000Y177060D02*
X44012D01*
X44268Y175114D01*
X45509Y172117D01*
X47484Y169544D01*
X50057Y167569D01*
X53054Y166328D01*
X55000Y166072D01*
Y177060D01*
D02*
G37*
G36*
X409460Y34030D02*
X404190D01*
Y28760D01*
X409460D01*
Y34030D01*
D02*
G37*
G36*
X401650Y41840D02*
X396380D01*
Y36570D01*
X401650D01*
Y41840D01*
D02*
G37*
G36*
Y34030D02*
X396380D01*
Y28760D01*
X401650D01*
Y34030D01*
D02*
G37*
G36*
X50000Y82641D02*
X44894Y82239D01*
X39913Y81043D01*
X35182Y79083D01*
X30814Y76407D01*
X26920Y73080D01*
X23593Y69186D01*
X20917Y64819D01*
X18957Y60086D01*
X17761Y55106D01*
X17359Y50000D01*
X17761Y44894D01*
X18957Y39913D01*
X20917Y35182D01*
X23593Y30814D01*
X26920Y26920D01*
X30814Y23593D01*
X35182Y20917D01*
X39913Y18957D01*
X44894Y17761D01*
X50000Y17359D01*
X55106Y17761D01*
X60086Y18957D01*
X64819Y20917D01*
X69186Y23593D01*
X73080Y26920D01*
X76407Y30814D01*
X79083Y35182D01*
X81043Y39913D01*
X82239Y44894D01*
X82641Y50000D01*
X82239Y55106D01*
X81043Y60086D01*
X79083Y64819D01*
X76407Y69186D01*
X73080Y73080D01*
X69186Y76407D01*
X64819Y79083D01*
X60086Y81043D01*
X55106Y82239D01*
X50000Y82641D01*
D02*
G37*
G36*
X450000D02*
X444894Y82239D01*
X439913Y81043D01*
X435182Y79083D01*
X430814Y76407D01*
X426920Y73080D01*
X423593Y69186D01*
X420917Y64819D01*
X418957Y60086D01*
X417761Y55106D01*
X417359Y50000D01*
X417761Y44894D01*
X418957Y39913D01*
X420917Y35182D01*
X423593Y30814D01*
X426920Y26920D01*
X430814Y23593D01*
X435182Y20917D01*
X439913Y18957D01*
X444894Y17761D01*
X450000Y17359D01*
X455106Y17761D01*
X460087Y18957D01*
X464818Y20917D01*
X469186Y23593D01*
X473080Y26920D01*
X476407Y30814D01*
X479083Y35182D01*
X481043Y39913D01*
X482239Y44894D01*
X482641Y50000D01*
X482239Y55106D01*
X481043Y60086D01*
X479083Y64819D01*
X476407Y69186D01*
X473080Y73080D01*
X469186Y76407D01*
X464818Y79083D01*
X460087Y81043D01*
X455106Y82239D01*
X450000Y82641D01*
D02*
G37*
G36*
X409460Y41840D02*
X404190D01*
Y36570D01*
X409460D01*
Y41840D01*
D02*
G37*
G36*
X114480Y124970D02*
X112803Y124749D01*
X110056Y123612D01*
X107698Y121802D01*
X105888Y119444D01*
X104751Y116697D01*
X104363Y113750D01*
Y111270D01*
X114480D01*
Y124970D01*
D02*
G37*
G36*
X117020D02*
Y111270D01*
X127137D01*
Y113750D01*
X126749Y116697D01*
X125612Y119444D01*
X123802Y121802D01*
X121444Y123612D01*
X118697Y124749D01*
X117020Y124970D01*
D02*
G37*
G36*
X127137Y108730D02*
X117020D01*
Y95030D01*
X118697Y95251D01*
X121444Y96388D01*
X123802Y98198D01*
X125612Y100556D01*
X126749Y103303D01*
X127137Y106250D01*
Y108730D01*
D02*
G37*
G36*
X90750Y125137D02*
X87803Y124749D01*
X85056Y123612D01*
X82698Y121802D01*
X80888Y119444D01*
X79751Y116697D01*
X79363Y113750D01*
Y106250D01*
X79751Y103303D01*
X80888Y100556D01*
X82698Y98198D01*
X85056Y96388D01*
X87803Y95251D01*
X90750Y94863D01*
X93697Y95251D01*
X96444Y96388D01*
X98802Y98198D01*
X100612Y100556D01*
X101749Y103303D01*
X102137Y106250D01*
Y113750D01*
X101749Y116697D01*
X100612Y119444D01*
X98802Y121802D01*
X96444Y123612D01*
X93697Y124749D01*
X90750Y125137D01*
D02*
G37*
G36*
X114480Y108730D02*
X104363D01*
Y106250D01*
X104751Y103303D01*
X105888Y100556D01*
X107698Y98198D01*
X110056Y96388D01*
X112803Y95251D01*
X114480Y95030D01*
Y108730D01*
D02*
G37*
G36*
X154000Y369257D02*
X151520D01*
X148573Y368869D01*
X145826Y367732D01*
X143468Y365922D01*
X141658Y363564D01*
X140521Y360817D01*
X140300Y359140D01*
X154000D01*
Y369257D01*
D02*
G37*
G36*
X159020D02*
X156540D01*
Y359140D01*
X170240D01*
X170019Y360817D01*
X168882Y363564D01*
X167072Y365922D01*
X164714Y367732D01*
X161967Y368869D01*
X159020Y369257D01*
D02*
G37*
G36*
X50000Y482641D02*
X44894Y482239D01*
X39913Y481043D01*
X35182Y479083D01*
X30814Y476407D01*
X26920Y473080D01*
X23593Y469186D01*
X20917Y464818D01*
X18957Y460087D01*
X17761Y455106D01*
X17359Y450000D01*
X17761Y444894D01*
X18957Y439913D01*
X20917Y435182D01*
X23593Y430814D01*
X26920Y426920D01*
X30814Y423593D01*
X35182Y420917D01*
X39913Y418957D01*
X44894Y417761D01*
X50000Y417359D01*
X55106Y417761D01*
X60086Y418957D01*
X64819Y420917D01*
X69186Y423593D01*
X73080Y426920D01*
X76407Y430814D01*
X79083Y435182D01*
X81043Y439913D01*
X82239Y444894D01*
X82641Y450000D01*
X82239Y455106D01*
X81043Y460087D01*
X79083Y464818D01*
X76407Y469186D01*
X73080Y473080D01*
X69186Y476407D01*
X64819Y479083D01*
X60086Y481043D01*
X55106Y482239D01*
X50000Y482641D01*
D02*
G37*
G36*
X154000Y356600D02*
X140300D01*
X140521Y354923D01*
X141658Y352176D01*
X143468Y349818D01*
X145826Y348008D01*
X148573Y346871D01*
X151520Y346483D01*
X154000D01*
Y356600D01*
D02*
G37*
G36*
X170240D02*
X156540D01*
Y346483D01*
X159020D01*
X161967Y346871D01*
X164714Y348008D01*
X167072Y349818D01*
X168882Y352176D01*
X170019Y354923D01*
X170240Y356600D01*
D02*
G37*
G36*
X56270Y376555D02*
X53054Y376132D01*
X50057Y374891D01*
X47484Y372916D01*
X45509Y370343D01*
X44268Y367346D01*
X43845Y364130D01*
X44268Y360914D01*
X45509Y357917D01*
X47484Y355344D01*
X50057Y353369D01*
X53054Y352128D01*
X56270Y351705D01*
X59486Y352128D01*
X62483Y353369D01*
X65056Y355344D01*
X67031Y357917D01*
X68272Y360914D01*
X68695Y364130D01*
X68272Y367346D01*
X67031Y370343D01*
X65056Y372916D01*
X62483Y374891D01*
X59486Y376132D01*
X56270Y376555D01*
D02*
G37*
G36*
X354130Y466379D02*
X349711Y465944D01*
X345463Y464655D01*
X341547Y462562D01*
X338115Y459745D01*
X315576Y437206D01*
X314499Y437926D01*
X315547Y440456D01*
X315978Y443730D01*
X315547Y447004D01*
X314284Y450054D01*
X312274Y452674D01*
X309654Y454684D01*
X306604Y455947D01*
X303330Y456378D01*
X199130D01*
X195856Y455947D01*
X192806Y454684D01*
X190186Y452674D01*
X188176Y450054D01*
X186913Y447004D01*
X186482Y443730D01*
X186913Y440456D01*
X188176Y437406D01*
X190186Y434786D01*
X192806Y432776D01*
X195856Y431513D01*
X199130Y431082D01*
X303330D01*
X306604Y431513D01*
X309134Y432561D01*
X309854Y431484D01*
X266054Y387685D01*
X242750D01*
X238331Y387250D01*
X234083Y385961D01*
X230167Y383868D01*
X226735Y381051D01*
X223918Y377619D01*
X221825Y373703D01*
X220536Y369455D01*
X220101Y365036D01*
Y331000D01*
X220536Y326581D01*
X221825Y322333D01*
X223918Y318417D01*
X226735Y314985D01*
X230167Y312168D01*
X234083Y310075D01*
X238331Y308786D01*
X242750Y308351D01*
X247169Y308786D01*
X251417Y310075D01*
X255333Y312168D01*
X258765Y314985D01*
X261582Y318417D01*
X263675Y322333D01*
X264964Y326581D01*
X265399Y331000D01*
Y342387D01*
X275436D01*
X275436Y342387D01*
X279855Y342822D01*
X284103Y344111D01*
X288019Y346204D01*
X291451Y349021D01*
X370145Y427715D01*
X372962Y431147D01*
X375055Y435063D01*
X376344Y439311D01*
X376779Y443730D01*
X376344Y448149D01*
X375055Y452397D01*
X372962Y456313D01*
X370145Y459745D01*
X366713Y462562D01*
X362797Y464655D01*
X358549Y465944D01*
X354130Y466379D01*
D02*
G37*
G36*
X147060Y455988D02*
X145114Y455732D01*
X142117Y454491D01*
X139544Y452516D01*
X137569Y449943D01*
X136328Y446946D01*
X136072Y445000D01*
X147060D01*
Y455988D01*
D02*
G37*
G36*
X149600D02*
Y445000D01*
X160588D01*
X160332Y446946D01*
X159091Y449943D01*
X157116Y452516D01*
X154543Y454491D01*
X151546Y455732D01*
X149600Y455988D01*
D02*
G37*
G36*
X450000Y482641D02*
X444894Y482239D01*
X439913Y481043D01*
X435182Y479083D01*
X430814Y476407D01*
X426920Y473080D01*
X423593Y469186D01*
X420917Y464818D01*
X418957Y460087D01*
X417761Y455106D01*
X417359Y450000D01*
X417761Y444894D01*
X418957Y439913D01*
X420917Y435182D01*
X423593Y430814D01*
X426920Y426920D01*
X430814Y423593D01*
X435182Y420917D01*
X439913Y418957D01*
X444894Y417761D01*
X450000Y417359D01*
X455106Y417761D01*
X460087Y418957D01*
X464818Y420917D01*
X469186Y423593D01*
X473080Y426920D01*
X476407Y430814D01*
X479083Y435182D01*
X481043Y439913D01*
X482239Y444894D01*
X482641Y450000D01*
X482239Y455106D01*
X481043Y460087D01*
X479083Y464818D01*
X476407Y469186D01*
X473080Y473080D01*
X469186Y476407D01*
X464818Y479083D01*
X460087Y481043D01*
X455106Y482239D01*
X450000Y482641D01*
D02*
G37*
G36*
X147060Y442460D02*
X136072D01*
X136328Y440514D01*
X137569Y437517D01*
X139544Y434944D01*
X142117Y432969D01*
X145114Y431728D01*
X147060Y431472D01*
Y442460D01*
D02*
G37*
G36*
X160588D02*
X149600D01*
Y431472D01*
X151546Y431728D01*
X154543Y432969D01*
X157116Y434944D01*
X159091Y437517D01*
X160332Y440514D01*
X160588Y442460D01*
D02*
G37*
G36*
X445000Y312060D02*
X434012D01*
X434268Y310114D01*
X435509Y307117D01*
X437484Y304544D01*
X440057Y302569D01*
X443054Y301328D01*
X445000Y301072D01*
Y312060D01*
D02*
G37*
G36*
X458528D02*
X447540D01*
Y301072D01*
X449486Y301328D01*
X452483Y302569D01*
X455056Y304544D01*
X457031Y307117D01*
X458272Y310114D01*
X458528Y312060D01*
D02*
G37*
G36*
X68528D02*
X57540D01*
Y301072D01*
X59486Y301328D01*
X62483Y302569D01*
X65056Y304544D01*
X67031Y307117D01*
X68272Y310114D01*
X68528Y312060D01*
D02*
G37*
G36*
X226040Y247040D02*
X220770D01*
Y241270D01*
X226040D01*
Y247040D01*
D02*
G37*
G36*
X55000Y312060D02*
X44012D01*
X44268Y310114D01*
X45509Y307117D01*
X47484Y304544D01*
X50057Y302569D01*
X53054Y301328D01*
X55000Y301072D01*
Y312060D01*
D02*
G37*
G36*
X342064Y387685D02*
X337645Y387250D01*
X333397Y385961D01*
X329481Y383868D01*
X326049Y381051D01*
X323232Y377619D01*
X321139Y373703D01*
X319850Y369455D01*
X319415Y365036D01*
Y331000D01*
X319850Y326581D01*
X321139Y322333D01*
X323232Y318417D01*
X326049Y314985D01*
X329481Y312168D01*
X333397Y310075D01*
X337645Y308786D01*
X342064Y308351D01*
X346483Y308786D01*
X350731Y310075D01*
X354647Y312168D01*
X358079Y314985D01*
X360896Y318417D01*
X362989Y322333D01*
X362995Y322351D01*
X370000D01*
X374419Y322786D01*
X378667Y324075D01*
X382583Y326168D01*
X386015Y328985D01*
X388832Y332417D01*
X390925Y336333D01*
X392214Y340581D01*
X392649Y345000D01*
X392214Y349419D01*
X390925Y353667D01*
X388832Y357583D01*
X386015Y361015D01*
X382583Y363832D01*
X378667Y365925D01*
X374419Y367214D01*
X370000Y367649D01*
X364456D01*
X364278Y369455D01*
X362989Y373703D01*
X360896Y377619D01*
X358079Y381051D01*
X354647Y383868D01*
X350731Y385961D01*
X346483Y387250D01*
X342064Y387685D01*
D02*
G37*
G36*
X447540Y325588D02*
Y314600D01*
X458528D01*
X458272Y316546D01*
X457031Y319543D01*
X455056Y322116D01*
X452483Y324091D01*
X449486Y325332D01*
X447540Y325588D01*
D02*
G37*
G36*
X159020Y344257D02*
X151520D01*
X148573Y343869D01*
X145826Y342732D01*
X143468Y340922D01*
X141658Y338564D01*
X140521Y335817D01*
X140133Y332870D01*
X140521Y329923D01*
X141658Y327176D01*
X143468Y324818D01*
X145826Y323008D01*
X148573Y321871D01*
X151520Y321483D01*
X159020D01*
X160914Y321732D01*
X162710Y319937D01*
X161990Y318860D01*
X161967Y318869D01*
X159020Y319257D01*
X151520D01*
X148573Y318869D01*
X145826Y317732D01*
X143468Y315922D01*
X141658Y313564D01*
X140521Y310817D01*
X140133Y307870D01*
X140521Y304923D01*
X141658Y302176D01*
X142711Y300805D01*
X136213Y294307D01*
X135371Y293047D01*
X135075Y291560D01*
Y257290D01*
X135371Y255803D01*
X136213Y254543D01*
X161696Y229060D01*
X161170Y227790D01*
X153684D01*
X153237Y228089D01*
X151750Y228385D01*
X141540D01*
Y233540D01*
X133885D01*
Y238477D01*
X135378Y239622D01*
X136586Y241197D01*
X137346Y243032D01*
X137605Y245000D01*
X137346Y246968D01*
X136586Y248803D01*
X135378Y250378D01*
X133802Y251586D01*
X131968Y252346D01*
X130000Y252605D01*
X128032Y252346D01*
X126198Y251586D01*
X124622Y250378D01*
X123414Y248803D01*
X122654Y246968D01*
X122395Y245000D01*
X122654Y243032D01*
X123414Y241197D01*
X124622Y239622D01*
X126115Y238477D01*
Y233540D01*
X118460D01*
Y215460D01*
X141540D01*
Y220615D01*
X147960D01*
Y214710D01*
Y207204D01*
X142713Y201957D01*
X141540Y202443D01*
Y204540D01*
X118460D01*
Y186460D01*
X141540D01*
Y191615D01*
X141750D01*
X143237Y191911D01*
X144497Y192753D01*
X153954Y202210D01*
X162040D01*
Y204865D01*
X167960D01*
Y202210D01*
X182040D01*
X182040Y202210D01*
Y202210D01*
X182938Y201430D01*
X186175Y198193D01*
X187435Y197351D01*
X188922Y197055D01*
X204060D01*
X205547Y197351D01*
X206807Y198193D01*
X224329Y215715D01*
X232710D01*
Y210310D01*
X243327D01*
X243596Y209808D01*
X245787Y207137D01*
X248458Y204946D01*
X251505Y203317D01*
X254812Y202314D01*
X258250Y201975D01*
X261688Y202314D01*
X264995Y203317D01*
X268042Y204946D01*
X270713Y207137D01*
X273885Y210310D01*
X283790D01*
Y220215D01*
X292463Y228887D01*
X294655Y231558D01*
X296283Y234605D01*
X297286Y237912D01*
X297625Y241350D01*
X297286Y244788D01*
X296283Y248095D01*
X294655Y251142D01*
X292463Y253813D01*
X291753Y254395D01*
X290954Y256324D01*
X288944Y258944D01*
X286324Y260954D01*
X283790Y262003D01*
Y279690D01*
X254454D01*
X251397Y282747D01*
X250137Y283589D01*
X248650Y283885D01*
X222790D01*
Y287040D01*
X197210D01*
Y272960D01*
X204555D01*
Y267040D01*
X203460D01*
Y252960D01*
X216540D01*
Y267040D01*
X212325D01*
Y272960D01*
X222790D01*
Y276115D01*
X232710D01*
Y261110D01*
X254365D01*
Y249859D01*
X253391Y248885D01*
X251523D01*
X250378Y250378D01*
X248803Y251586D01*
X246968Y252346D01*
X245000Y252605D01*
X243032Y252346D01*
X241197Y251586D01*
X239622Y250378D01*
X238414Y248803D01*
X237654Y246968D01*
X237395Y245000D01*
X237654Y243032D01*
X238414Y241197D01*
X239622Y239622D01*
X241197Y238414D01*
X243032Y237654D01*
X245000Y237395D01*
X246968Y237654D01*
X248803Y238414D01*
X250378Y239622D01*
X251523Y241115D01*
X253181D01*
X253667Y239942D01*
X245787Y232063D01*
X243596Y229392D01*
X243327Y228890D01*
X232710D01*
Y223485D01*
X222720D01*
X221233Y223189D01*
X219973Y222347D01*
X203310Y205684D01*
X202040Y206210D01*
Y207480D01*
X195000D01*
Y210020D01*
X202040D01*
Y214710D01*
Y222796D01*
X203247Y224003D01*
X204089Y225263D01*
X204385Y226750D01*
Y232960D01*
X207040D01*
Y247040D01*
X193960D01*
Y232960D01*
X196615D01*
Y228359D01*
X196046Y227790D01*
X193954D01*
X178885Y242859D01*
Y313140D01*
X178638Y314380D01*
X178589Y314627D01*
X177747Y315887D01*
X167829Y325804D01*
X168882Y327176D01*
X170019Y329923D01*
X170407Y332870D01*
X170019Y335817D01*
X168882Y338564D01*
X167072Y340922D01*
X164714Y342732D01*
X161967Y343869D01*
X159020Y344257D01*
D02*
G37*
G36*
X445000Y325588D02*
X443054Y325332D01*
X440057Y324091D01*
X437484Y322116D01*
X435509Y319543D01*
X434268Y316546D01*
X434012Y314600D01*
X445000D01*
Y325588D01*
D02*
G37*
G36*
X55000D02*
X53054Y325332D01*
X50057Y324091D01*
X47484Y322116D01*
X45509Y319543D01*
X44268Y316546D01*
X44012Y314600D01*
X55000D01*
Y325588D01*
D02*
G37*
G36*
X57540D02*
Y314600D01*
X68528D01*
X68272Y316546D01*
X67031Y319543D01*
X65056Y322116D01*
X62483Y324091D01*
X59486Y325332D01*
X57540Y325588D01*
D02*
G37*
%LPD*%
G36*
X171115Y279250D02*
Y241250D01*
X171411Y239763D01*
X172253Y238503D01*
X181696Y229060D01*
X181170Y227790D01*
X173954D01*
X142845Y258899D01*
Y273695D01*
X144115Y274322D01*
X145826Y273008D01*
X148573Y271871D01*
X151520Y271483D01*
X159020D01*
X161967Y271871D01*
X164714Y273008D01*
X167072Y274818D01*
X168882Y277176D01*
X169845Y279503D01*
X171115Y279250D01*
D02*
G37*
D10*
X195000Y208750D02*
D03*
Y221250D02*
D03*
X374980Y37820D02*
D03*
Y50320D02*
D03*
X155000Y221250D02*
D03*
Y208750D02*
D03*
X175000Y221250D02*
D03*
Y208750D02*
D03*
D11*
X402920Y50300D02*
D03*
Y35300D02*
D03*
D12*
X200500Y240000D02*
D03*
X219500D02*
D03*
X210000Y260000D02*
D03*
D13*
X203750Y280000D02*
D03*
X216250D02*
D03*
D14*
X130000Y195500D02*
D03*
Y224500D02*
D03*
D15*
X349750Y245000D02*
D03*
D16*
X258250Y219600D02*
D03*
Y270400D02*
D03*
D17*
X155270Y307870D02*
X156920D01*
X155270Y329383D02*
Y332870D01*
X138960Y291560D02*
X155270Y307870D01*
X138960Y257290D02*
Y291560D01*
Y257290D02*
X175000Y221250D01*
X155270Y332870D02*
X175000Y313140D01*
Y241250D02*
Y313140D01*
X130000Y224500D02*
X151750D01*
X155000Y221250D01*
X130000Y195500D02*
X141750D01*
X155000Y208750D01*
X175000D01*
X181112D01*
X188922Y200940D01*
X204060D01*
X222720Y219600D01*
X258250D01*
X216250Y280000D02*
X248650D01*
X258250Y270400D01*
X208440Y261560D02*
X210000Y260000D01*
X208440Y261560D02*
Y275310D01*
X203750Y280000D02*
X208440Y275310D01*
X175000Y241250D02*
X195000Y221250D01*
X200500Y226750D02*
Y240000D01*
X195000Y221250D02*
X200500Y226750D01*
X130000Y224500D02*
Y240000D01*
X258250Y248250D02*
Y270400D01*
X255000Y245000D02*
X258250Y248250D01*
X245000Y245000D02*
X255000D01*
X350000Y102455D02*
G03*
X150181Y106134I-99986J-2344D01*
G01*
X50000Y500000D02*
Y500000D01*
X-0Y450000D02*
X50000Y500000D01*
X-0Y50000D02*
Y450000D01*
Y50000D02*
X50000Y-0D01*
X150000D01*
X150000Y-0D01*
X150181Y181D02*
Y106134D01*
X350000Y-0D02*
Y102455D01*
Y-0D02*
X450000D01*
X500000Y50000D01*
Y450000D01*
X450000Y500000D02*
X500000Y450000D01*
X50000Y500000D02*
X450000D01*
D18*
X374980Y37820D02*
X378890D01*
X391370Y50300D01*
X402920D01*
X374980Y50320D02*
Y219770D01*
X349750Y245000D02*
X365620Y229130D01*
X374980Y219770D01*
D19*
X199130Y443730D02*
X303330D01*
X475000Y260000D02*
Y335400D01*
X446270Y364130D02*
X475000Y335400D01*
X280000Y241350D02*
Y250000D01*
X446270Y229130D02*
Y231270D01*
X475000Y260000D01*
X365620Y229130D02*
X446270D01*
D20*
X275436Y365036D02*
X354130Y443730D01*
X242750Y331000D02*
Y365036D01*
X275436D01*
X356064Y345000D02*
X370000D01*
X342064Y331000D02*
Y365036D01*
D21*
X258250Y219600D02*
X280000Y241350D01*
D22*
X242750Y331000D02*
D03*
X342064D02*
D03*
Y365036D02*
D03*
X242750D02*
D03*
D23*
X50000Y450000D02*
D03*
Y50000D02*
D03*
X450000D02*
D03*
Y450000D02*
D03*
D24*
X303330Y443730D02*
D03*
X354130D02*
D03*
X148330D02*
D03*
X199130D02*
D03*
X446270Y313330D02*
D03*
Y364130D02*
D03*
Y178330D02*
D03*
Y229130D02*
D03*
X56270Y178330D02*
D03*
Y229130D02*
D03*
Y313330D02*
D03*
Y364130D02*
D03*
D25*
X90750Y110000D02*
D03*
X115750D02*
D03*
D26*
X155270Y357870D02*
D03*
Y307870D02*
D03*
Y282870D02*
D03*
Y332870D02*
D03*
D27*
X310000Y290000D02*
D03*
Y275000D02*
D03*
Y260000D02*
D03*
Y245000D02*
D03*
Y230000D02*
D03*
X325000Y290000D02*
D03*
Y275000D02*
D03*
Y260000D02*
D03*
Y245000D02*
D03*
Y230000D02*
D03*
X340000Y290000D02*
D03*
Y275000D02*
D03*
Y260000D02*
D03*
Y230000D02*
D03*
X370000Y345000D02*
D03*
X280000Y250000D02*
D03*
X310000Y215000D02*
D03*
X325000D02*
D03*
X340000D02*
D03*
X310000Y200000D02*
D03*
X325000D02*
D03*
X340000D02*
D03*
D28*
X130000Y245000D02*
D03*
X245000D02*
D03*
M02*
