G04 Layer_Color=12697792*
%FSLAX25Y25*%
%MOIN*%
G70*
G01*
G75*
%ADD19C,0.01000*%
%ADD22C,0.00787*%
%ADD23C,0.00394*%
%ADD24C,0.00197*%
%ADD25C,0.00200*%
%ADD26C,0.00400*%
%ADD27C,0.00800*%
%ADD28O,0.09842X0.06890*%
%ADD29C,0.06000*%
%ADD30C,0.07700*%
%ADD31C,0.09500*%
%ADD32O,0.06890X0.09842*%
D19*
X137795Y40336D02*
G03*
X59126Y41785I-39365J-923D01*
G01*
X19685Y196850D02*
X177165D01*
X196850Y177165D01*
Y19685D02*
Y177165D01*
X177165Y-0D02*
X196850Y19685D01*
X137795Y-0D02*
X177165D01*
X137795D02*
Y40336D01*
X59126Y71D02*
Y41785D01*
X59055Y-0D02*
X59055Y-0D01*
X19685Y-0D02*
X59055D01*
X-0Y19685D02*
X19685Y-0D01*
X-0Y19685D02*
Y177165D01*
X19685Y196850D01*
Y196850D01*
D22*
X47842Y150539D02*
X70480D01*
X47842Y101720D02*
Y150539D01*
X70480Y101720D02*
Y150539D01*
X47842Y101720D02*
X70480D01*
X61130Y124161D02*
Y128098D01*
X59161Y126130D02*
X63098D01*
X45776Y99752D02*
X72547D01*
Y152508D01*
X45776D02*
X72547D01*
X45776Y99752D02*
Y152508D01*
X24114Y27953D02*
X57185D01*
Y54724D01*
X24114D02*
X57185D01*
X24114Y27953D02*
Y54724D01*
X40650Y41339D02*
Y45276D01*
X38681Y43307D02*
X42618D01*
D23*
X67028Y81201D02*
Y88090D01*
X70768Y81201D02*
Y88090D01*
X67028Y81201D02*
X70768D01*
X67028Y88090D02*
X70768D01*
X59153Y81201D02*
Y88090D01*
X62894Y81201D02*
Y88090D01*
X59153Y81201D02*
X62894D01*
X59153Y88090D02*
X62894D01*
X47638Y89370D02*
X54724D01*
X47638Y75984D02*
X54724D01*
Y89370D01*
X47638Y75984D02*
Y89370D01*
X79232Y108366D02*
X86122D01*
X79232Y112106D02*
X86122D01*
Y108366D02*
Y112106D01*
X79232Y108366D02*
Y112106D01*
X156760Y13406D02*
Y20295D01*
X160500Y13406D02*
Y20295D01*
X156760Y13406D02*
X160500D01*
X156760Y20295D02*
X160500D01*
X149500Y13905D02*
Y20795D01*
X145760Y13905D02*
Y20795D01*
X149500D01*
X145760Y13905D02*
X149500D01*
X78642Y81201D02*
Y88090D01*
X74902Y81201D02*
Y88090D01*
X78642D01*
X74902Y81201D02*
X78642D01*
X67028Y84646D02*
X70768D01*
X68898Y82776D02*
Y86516D01*
X59153Y84646D02*
X62894D01*
X61024Y82776D02*
Y86516D01*
X51181Y80709D02*
Y84646D01*
X49213Y82677D02*
X53150D01*
X82677Y108366D02*
Y112106D01*
X80807Y110236D02*
X84547D01*
X156760Y16850D02*
X160500D01*
X158630Y14980D02*
Y18721D01*
X145760Y17350D02*
X149500D01*
X147630Y15480D02*
Y19220D01*
X74902Y84646D02*
X78642D01*
X76772Y82776D02*
Y86516D01*
D24*
X66535Y80315D02*
Y88976D01*
X71260Y80315D02*
Y88976D01*
X66535Y80315D02*
X71260D01*
X66535Y88976D02*
X71260D01*
X58661Y80315D02*
Y88976D01*
X63386Y80315D02*
Y88976D01*
X58661Y80315D02*
X63386D01*
X58661Y88976D02*
X63386D01*
X46654Y91929D02*
X55709D01*
X46654Y73425D02*
X55709D01*
Y91929D01*
X46654Y73425D02*
Y91929D01*
X78347Y107874D02*
X87008D01*
X78347Y112598D02*
X87008D01*
Y107874D02*
Y112598D01*
X78347Y107874D02*
Y112598D01*
X155677Y11350D02*
Y22350D01*
X161583Y11350D02*
Y22350D01*
X155677Y11350D02*
X161583D01*
X155677Y22350D02*
X161583D01*
X149992Y13020D02*
Y21681D01*
X145268Y13020D02*
Y21681D01*
X149992D01*
X145268Y13020D02*
X149992D01*
X79134Y80315D02*
Y88976D01*
X74410Y80315D02*
Y88976D01*
X79134D01*
X74410Y80315D02*
X79134D01*
D25*
X76177Y91925D02*
X89177D01*
Y104925D01*
X76177D02*
X89177D01*
X76177Y91925D02*
Y104925D01*
D26*
X2253Y107059D02*
X42035D01*
Y159658D01*
X2253D02*
X42035D01*
X2253Y107059D02*
Y159658D01*
X6154Y110996D02*
X38098D01*
Y155758D01*
X6154D02*
X38098D01*
X6154Y110996D02*
Y155758D01*
X2253Y53909D02*
X42035D01*
Y106509D01*
X2253D02*
X42035D01*
X2253Y53909D02*
Y106509D01*
X6154Y57846D02*
X38098D01*
Y102609D01*
X6154D02*
X38098D01*
X6154Y57846D02*
Y102609D01*
X155797Y53909D02*
X195579D01*
Y106509D01*
X155797D02*
X195579D01*
X155797Y53909D02*
Y106509D01*
X159697Y57846D02*
X191642D01*
Y102609D01*
X159697D02*
X191642D01*
X159697Y57846D02*
Y102609D01*
X155797Y107059D02*
X195579D01*
Y159658D01*
X155797D02*
X195579D01*
X155797Y107059D02*
Y159658D01*
X159697Y110996D02*
X191642D01*
Y155758D01*
X159697D02*
X191642D01*
X159697Y110996D02*
Y155758D01*
X103122Y154815D02*
Y194597D01*
Y154815D02*
X155721D01*
Y194597D01*
X103122D02*
X155721D01*
X107059Y158752D02*
Y190697D01*
Y158752D02*
X151821D01*
Y190697D01*
X107059D02*
X151821D01*
X42098Y154815D02*
Y194597D01*
Y154815D02*
X94698D01*
Y194597D01*
X42098D02*
X94698D01*
X46035Y158752D02*
Y190697D01*
Y158752D02*
X90798D01*
Y190697D01*
X46035D02*
X90798D01*
X79665Y119823D02*
Y154215D01*
Y119823D02*
X150571D01*
Y154215D01*
X79665D02*
X150571D01*
D27*
X83602Y123760D02*
Y150315D01*
Y123760D02*
X146671D01*
Y150315D01*
X83602D02*
X146671D01*
D28*
X61130Y140894D02*
D03*
Y121209D02*
D03*
Y111366D02*
D03*
Y131051D02*
D03*
D29*
X19685Y19685D02*
D03*
X177165Y177165D02*
D03*
X19685D02*
D03*
X177165Y19685D02*
D03*
D30*
X22153Y143358D02*
D03*
Y123358D02*
D03*
Y90209D02*
D03*
Y70209D02*
D03*
X175697Y90209D02*
D03*
Y70209D02*
D03*
Y143358D02*
D03*
Y123358D02*
D03*
X139421Y174697D02*
D03*
X119421D02*
D03*
X78398D02*
D03*
X58398D02*
D03*
D31*
X95571Y143715D02*
D03*
X134671D02*
D03*
Y130315D02*
D03*
X95571D02*
D03*
D32*
X35728Y43307D02*
D03*
X45571D02*
D03*
M02*
